<?xml version="1.0" encoding="us-ascii" standalone="no"?><svg xmlns="http://www.w3.org/2000/svg" xmlns:xlink="http://www.w3.org/1999/xlink" contentStyleType="text/css" height="320px" preserveAspectRatio="none" style="width:983px;height:320px;background:#FFFFFF;" version="1.1" viewBox="0 0 983 320" width="983px" zoomAndPan="magnify"><defs/><g><!--cluster Local group--><g id="cluster_Local group"><path d="M363.5,6 L438.5,6 A3.75,3.75 0 0 1 441,8.5 L448,28.1 L973.5,28.1 A2.5,2.5 0 0 1 976,30.6 L976,310.5 A2.5,2.5 0 0 1 973.5,313 L363.5,313 A2.5,2.5 0 0 1 361,310.5 L361,8.5 A2.5,2.5 0 0 1 363.5,6 " fill="none" style="stroke:#7D5393;stroke-width:1.5;"/><line style="stroke:#7D5393;stroke-width:1.5;" x1="361" x2="448" y1="28.1" y2="28.1"/><text fill="#000000" font-family="NanumGothic" font-size="14" font-weight="bold" lengthAdjust="spacing" textLength="74" x="365" y="20.88">Local group</text></g><!--entity LocalControllerCS00--><g id="elem_LocalControllerCS00"><polygon fill="#7D5393" points="377,147.9,387,137.9,516,137.9,516,190.1,506,200.1,377,200.1,377,147.9" style="stroke:#181818;stroke-width:1.5;"/><line style="stroke:#181818;stroke-width:1.5;" x1="506" x2="516" y1="147.9" y2="137.9"/><line style="stroke:#181818;stroke-width:1.5;" x1="377" x2="506" y1="147.9" y2="147.9"/><line style="stroke:#181818;stroke-width:1.5;" x1="506" x2="506" y1="147.9" y2="200.1"/><text fill="#FFFFFF" font-family="NanumGothic" font-size="14" lengthAdjust="spacing" textLength="99" x="392" y="170.78">Local Controller</text><text fill="#FFFFFF" font-family="NanumGothic" font-size="14" lengthAdjust="spacing" textLength="33" x="392" y="186.88">CS00</text></g><!--entity CS01--><g id="elem_CS01"><polygon fill="#7D5393" points="825,244.9,835,234.9,960,234.9,960,287.1,950,297.1,825,297.1,825,244.9" style="stroke:#181818;stroke-width:1.5;"/><line style="stroke:#181818;stroke-width:1.5;" x1="950" x2="960" y1="244.9" y2="234.9"/><line style="stroke:#181818;stroke-width:1.5;" x1="825" x2="950" y1="244.9" y2="244.9"/><line style="stroke:#181818;stroke-width:1.5;" x1="950" x2="950" y1="244.9" y2="297.1"/><text fill="#FFFFFF" font-family="NanumGothic" font-size="14" lengthAdjust="spacing" textLength="95" x="840" y="267.78">Charge Station</text><text fill="#FFFFFF" font-family="NanumGothic" font-size="14" lengthAdjust="spacing" textLength="33" x="840" y="283.88">CS01</text></g><!--entity CS02--><g id="elem_CS02"><polygon fill="#7D5393" points="825,147.9,835,137.9,960,137.9,960,190.1,950,200.1,825,200.1,825,147.9" style="stroke:#181818;stroke-width:1.5;"/><line style="stroke:#181818;stroke-width:1.5;" x1="950" x2="960" y1="147.9" y2="137.9"/><line style="stroke:#181818;stroke-width:1.5;" x1="825" x2="950" y1="147.9" y2="147.9"/><line style="stroke:#181818;stroke-width:1.5;" x1="950" x2="950" y1="147.9" y2="200.1"/><text fill="#FFFFFF" font-family="NanumGothic" font-size="14" lengthAdjust="spacing" textLength="95" x="840" y="170.78">Charge Station</text><text fill="#FFFFFF" font-family="NanumGothic" font-size="14" lengthAdjust="spacing" textLength="33" x="840" y="186.88">CS02</text></g><!--entity CS03--><g id="elem_CS03"><polygon fill="#7D5393" points="825,50.9,835,40.9,960,40.9,960,93.1,950,103.1,825,103.1,825,50.9" style="stroke:#181818;stroke-width:1.5;"/><line style="stroke:#181818;stroke-width:1.5;" x1="950" x2="960" y1="50.9" y2="40.9"/><line style="stroke:#181818;stroke-width:1.5;" x1="825" x2="950" y1="50.9" y2="50.9"/><line style="stroke:#181818;stroke-width:1.5;" x1="950" x2="950" y1="50.9" y2="103.1"/><text fill="#FFFFFF" font-family="NanumGothic" font-size="14" lengthAdjust="spacing" textLength="95" x="840" y="73.78">Charge Station</text><text fill="#FFFFFF" font-family="NanumGothic" font-size="14" lengthAdjust="spacing" textLength="33" x="840" y="89.88">CS03</text></g><!--entity CSMS--><g id="elem_CSMS"><polygon fill="#7D5393" points="16,155.95,26,145.95,95,145.95,95,182.05,85,192.05,16,192.05,16,155.95" style="stroke:#181818;stroke-width:1.5;"/><line style="stroke:#181818;stroke-width:1.5;" x1="85" x2="95" y1="155.95" y2="145.95"/><line style="stroke:#181818;stroke-width:1.5;" x1="16" x2="85" y1="155.95" y2="155.95"/><line style="stroke:#181818;stroke-width:1.5;" x1="85" x2="85" y1="155.95" y2="192.05"/><text fill="#FFFFFF" font-family="NanumGothic" font-size="14" lengthAdjust="spacing" textLength="39" x="31" y="178.83">CSMS</text></g><!--reverse link CSMS to LocalControllerCS00--><g id="link_CSMS_LocalControllerCS00"><path d="M75.9952,140.8596 C88.2552,124.9696 103.15,110 125,101 C215.4,63.75 251.52,72.34 345,101 C368.97,108.35 392.37,123.56 410.55,137.73 " fill="none" id="CSMS-backto-LocalControllerCS00" style="stroke:#181818;stroke-width:1.0;"/><polygon fill="#181818" points="72.33,145.61,80.9947,140.9279,75.3843,141.6513,74.6609,136.0409,72.33,145.61" style="stroke:#181818;stroke-width:1.0;"/><text fill="#000000" font-family="NanumGothic" font-size="13" lengthAdjust="spacing" textLength="68" x="197" y="58.15">WebSocket</text><text fill="#000000" font-family="NanumGothic" font-size="13" lengthAdjust="spacing" textLength="218" x="126" y="73.1">ws://csms.example.com/ocpp/CS00</text></g><!--reverse link CSMS to LocalControllerCS00--><g id="link_CSMS_LocalControllerCS00"><path d="M101.22,169 C166.85,169 294.76,169 376.67,169 " fill="none" id="CSMS-backto-LocalControllerCS00-1" style="stroke:#181818;stroke-width:1.0;"/><polygon fill="#181818" points="95.22,169,104.22,173,100.22,169,104.22,165,95.22,169" style="stroke:#181818;stroke-width:1.0;"/><text fill="#000000" font-family="NanumGothic" font-size="13" lengthAdjust="spacing" textLength="68" x="197" y="150.96">WebSocket</text><text fill="#000000" font-family="NanumGothic" font-size="13" lengthAdjust="spacing" textLength="218" x="126" y="165.91">ws://csms.example.com/ocpp/CS01</text></g><!--reverse link CSMS to LocalControllerCS00--><g id="link_CSMS_LocalControllerCS00"><path d="M95.0041,195.5779 C105.7341,201.8779 112.83,204.78 125,208 C219.52,233.02 248.89,225.99 345,208 C355.49,206.04 366.28,203.01 376.74,199.5 " fill="none" id="CSMS-backto-LocalControllerCS00-2" style="stroke:#181818;stroke-width:1.0;"/><polygon fill="#181818" points="89.83,192.54,95.5659,200.5462,94.1417,195.0716,99.6164,193.6475,89.83,192.54" style="stroke:#181818;stroke-width:1.0;"/><text fill="#000000" font-family="NanumGothic" font-size="13" lengthAdjust="spacing" textLength="68" x="197" y="189.96">WebSocket</text><text fill="#000000" font-family="NanumGothic" font-size="13" lengthAdjust="spacing" textLength="218" x="126" y="204.91">ws://csms.example.com/ocpp/CS02</text></g><!--reverse link CSMS to LocalControllerCS00--><g id="link_CSMS_LocalControllerCS00"><path d="M68.3591,197.5809 C78.9291,220.3209 96.02,248.26 125,263 C212.15,307.33 254.05,298.9 345,263 C376.78,250.46 404.41,222.59 422.62,200.44 " fill="none" id="CSMS-backto-LocalControllerCS00-3" style="stroke:#181818;stroke-width:1.0;"/><polygon fill="#181818" points="65.83,192.14,65.9963,201.9875,67.9375,196.6741,73.2509,198.6154,65.83,192.14" style="stroke:#181818;stroke-width:1.0;"/><text fill="#000000" font-family="NanumGothic" font-size="13" lengthAdjust="spacing" textLength="68" x="197" y="244.96">WebSocket</text><text fill="#000000" font-family="NanumGothic" font-size="13" lengthAdjust="spacing" textLength="218" x="126" y="259.91">ws://csms.example.com/ocpp/CS03</text></g><!--reverse link LocalControllerCS00 to CS03--><g id="link_LocalControllerCS00_CS03"><path d="M521.9279,137.5972 C531.7879,134.0072 536.26,132.71 546,130 C641.06,103.52 754.41,87.31 824.68,78.98 " fill="none" id="LocalControllerCS00-backto-CS03" style="stroke:#181818;stroke-width:1.0;"/><polygon fill="#181818" points="516.29,139.65,526.1154,140.3295,520.9883,137.9394,523.3784,132.8123,516.29,139.65" style="stroke:#181818;stroke-width:1.0;"/><text fill="#000000" font-family="NanumGothic" font-size="13" lengthAdjust="spacing" textLength="68" x="632.5" y="65.17">WebSocket</text><text fill="#000000" font-family="NanumGothic" font-size="13" lengthAdjust="spacing" textLength="247" x="547" y="80.12">ws://controller.example.local/ocpp/CS03</text></g><!--reverse link LocalControllerCS00 to CS02--><g id="link_LocalControllerCS00_CS02"><path d="M522.39,169 C606.42,169 741.52,169 824.63,169 " fill="none" id="LocalControllerCS00-backto-CS02" style="stroke:#181818;stroke-width:1.0;"/><polygon fill="#181818" points="516.39,169,525.39,173,521.39,169,525.39,165,516.39,169" style="stroke:#181818;stroke-width:1.0;"/><text fill="#000000" font-family="NanumGothic" font-size="13" lengthAdjust="spacing" textLength="68" x="632.5" y="150.96">WebSocket</text><text fill="#000000" font-family="NanumGothic" font-size="13" lengthAdjust="spacing" textLength="247" x="547" y="165.91">ws://controller.example.local/ocpp/CS02</text></g><!--reverse link LocalControllerCS00 to CS01--><g id="link_LocalControllerCS00_CS01"><path d="M521.9279,200.4028 C531.7879,203.9928 536.26,205.29 546,208 C641.06,234.48 754.41,250.69 824.68,259.02 " fill="none" id="LocalControllerCS00-backto-CS01" style="stroke:#181818;stroke-width:1.0;"/><polygon fill="#181818" points="516.29,198.35,523.3784,205.1877,520.9883,200.0606,526.1154,197.6705,516.29,198.35" style="stroke:#181818;stroke-width:1.0;"/><text fill="#000000" font-family="NanumGothic" font-size="13" lengthAdjust="spacing" textLength="68" x="632.5" y="189.96">WebSocket</text><text fill="#000000" font-family="NanumGothic" font-size="13" lengthAdjust="spacing" textLength="247" x="547" y="204.91">ws://controller.example.local/ocpp/CS01</text></g><!--SRC=[hP2xRiCm34LtVWNhFV5hoz35Qpjvw18WK6N64Ig9WYmZAOh-UoqxSJkacJIH8EyzV3mfA_NO4KesZYtPSEYKwBqmXo5yQjgwqMW0JSU0WT6h_XImKvvaK6m1B4_Uh6bVsmp5W341EBBko6Fsmb9ex3sFBiClG5pKIxbX6pnhJNvlcxOePl_S-kt4Ego-vYHyJzW64MVFhl8wjIWVgQgRgdgagc-g6hu1xco2cz5jdkSRTuZuHkyjomyAY7jx7dPvBWSpREaYZ9iUDpqqP-bSlXoHb5ScvbM9UJK0n70bt6F_Grn5ArT7yrzot3Szk9h1PNfm2Jy0]--></g></svg>