<?xml version="1.0" encoding="us-ascii" standalone="no"?><svg xmlns="http://www.w3.org/2000/svg" xmlns:xlink="http://www.w3.org/1999/xlink" contentStyleType="text/css" height="850px" preserveAspectRatio="none" style="width:528px;height:850px;background:#FFFFFF;" version="1.1" viewBox="0 0 528 850" width="528px" zoomAndPan="magnify"><defs/><g><rect fill="#FFFFFF" height="715.8" style="stroke:#181818;stroke-width:1.0;" width="10" x="118" y="46.1"/><rect fill="#FFFFFF" height="275.6" style="stroke:#181818;stroke-width:1.0;" width="10" x="219.5" y="229.7"/><rect fill="#FFFFFF" height="101.9" style="stroke:#181818;stroke-width:1.0;" width="10" x="219.5" y="653"/><rect fill="#FFFFFF" height="48.95" style="stroke:#181818;stroke-width:1.0;" width="10" x="322.5" y="267.65"/><rect fill="#FFFFFF" height="48.95" style="stroke:#181818;stroke-width:1.0;" width="10" x="322.5" y="441.35"/><rect fill="#FFFFFF" height="48.95" style="stroke:#181818;stroke-width:1.0;" width="10" x="322.5" y="690.95"/><rect fill="none" height="773.65" style="stroke:#000000;stroke-width:1.5;" width="512" x="10" y="53.1"/><rect fill="none" height="363.4" style="stroke:#000000;stroke-width:1.5;" width="443" x="69" y="141.9"/><rect fill="none" height="79.9" style="stroke:#000000;stroke-width:1.5;" width="331" x="167" y="244.7"/><rect fill="none" height="79.9" style="stroke:#000000;stroke-width:1.5;" width="331" x="167" y="418.4"/><rect fill="none" height="96.75" style="stroke:#000000;stroke-width:1.5;" width="302" x="73" y="519.3"/><rect fill="none" height="124.85" style="stroke:#000000;stroke-width:1.5;" width="439" x="69" y="630.05"/><rect fill="none" height="79.9" style="stroke:#000000;stroke-width:1.5;" width="331" x="167" y="668"/><line style="stroke:#181818;stroke-width:0.5;stroke-dasharray:5.0,5.0;" x1="123" x2="123" y1="36.1" y2="843.75"/><line style="stroke:#181818;stroke-width:0.5;stroke-dasharray:5.0,5.0;" x1="224" x2="224" y1="36.1" y2="843.75"/><line style="stroke:#181818;stroke-width:0.5;stroke-dasharray:5.0,5.0;" x1="327" x2="327" y1="36.1" y2="843.75"/><rect fill="#7D5393" height="30.1" rx="2.5" ry="2.5" style="stroke:#181818;stroke-width:0.5;" width="88" x="79" y="5"/><text fill="#FFFFFF" font-family="NanumGothic" font-size="14" lengthAdjust="spacing" textLength="74" x="86" y="24.88">Transaction</text><rect fill="#7D5393" height="30.1" rx="2.5" ry="2.5" style="stroke:#181818;stroke-width:0.5;" width="95" x="177" y="5"/><text fill="#FFFFFF" font-family="NanumGothic" font-size="14" lengthAdjust="spacing" textLength="81" x="184" y="24.88">Energy Offer</text><rect fill="#7D5393" height="30.1" rx="2.5" ry="2.5" style="stroke:#181818;stroke-width:0.5;" width="91" x="282" y="5"/><text fill="#FFFFFF" font-family="NanumGothic" font-size="14" lengthAdjust="spacing" textLength="77" x="289" y="24.88">Energy Flow</text><rect fill="#FFFFFF" height="715.8" style="stroke:#181818;stroke-width:1.0;" width="10" x="118" y="46.1"/><rect fill="#FFFFFF" height="275.6" style="stroke:#181818;stroke-width:1.0;" width="10" x="219.5" y="229.7"/><rect fill="#FFFFFF" height="101.9" style="stroke:#181818;stroke-width:1.0;" width="10" x="219.5" y="653"/><rect fill="#FFFFFF" height="48.95" style="stroke:#181818;stroke-width:1.0;" width="10" x="322.5" y="267.65"/><rect fill="#FFFFFF" height="48.95" style="stroke:#181818;stroke-width:1.0;" width="10" x="322.5" y="441.35"/><rect fill="#FFFFFF" height="48.95" style="stroke:#181818;stroke-width:1.0;" width="10" x="322.5" y="690.95"/><path d="M10,53.1 L164,53.1 L164,60.05 L154,70.05 L10,70.05 L10,53.1 " fill="#EEEEEE" style="stroke:#000000;stroke-width:1.5;"/><rect fill="none" height="773.65" style="stroke:#000000;stroke-width:1.5;" width="512" x="10" y="53.1"/><text fill="#000000" font-family="NanumGothic" font-size="13" font-weight="bold" lengthAdjust="spacing" textLength="109" x="25" y="66.06">TransactionGroup</text><path d="M20,75.05 L20,129.05 L226,129.05 L226,85.05 L216,75.05 L20,75.05 " fill="#7D5393" style="stroke:#000000;stroke-width:0.5;"/><path d="M216,75.05 L216,85.05 L226,85.05 L216,75.05 " fill="#7D5393" style="stroke:#000000;stroke-width:0.5;"/><text fill="#FFFFFF" font-family="NanumGothic" font-size="13" lengthAdjust="spacing" textLength="185" x="26" y="92.01">Transaction start is configured</text><text fill="#FFFFFF" font-family="NanumGothic" font-size="13" lengthAdjust="spacing" textLength="159" x="26" y="106.96">via configuration Variable:</text><text fill="#FFFFFF" font-family="NanumGothic" font-size="13" lengthAdjust="spacing" textLength="75" x="26" y="121.91">TxStartPoint</text><path d="M69,141.9 L226,141.9 L226,148.85 L216,158.85 L69,158.85 L69,141.9 " fill="#EEEEEE" style="stroke:#000000;stroke-width:1.5;"/><rect fill="none" height="363.4" style="stroke:#000000;stroke-width:1.5;" width="443" x="69" y="141.9"/><text fill="#000000" font-family="NanumGothic" font-size="13" font-weight="bold" lengthAdjust="spacing" textLength="112" x="84" y="154.86">EnergyOfferPeriod</text><path d="M116,163.85 L116,217.85 L333,217.85 L333,173.85 L323,163.85 L116,163.85 " fill="#7D5393" style="stroke:#000000;stroke-width:0.5;"/><path d="M323,163.85 L323,173.85 L333,173.85 L323,163.85 " fill="#7D5393" style="stroke:#000000;stroke-width:0.5;"/><text fill="#FFFFFF" font-family="NanumGothic" font-size="13" lengthAdjust="spacing" textLength="196" x="122" y="180.81">Energy Offer Period starts when</text><text fill="#FFFFFF" font-family="NanumGothic" font-size="13" lengthAdjust="spacing" textLength="191" x="122" y="195.76">the EVSE is ready and willing to</text><text fill="#FFFFFF" font-family="NanumGothic" font-size="13" lengthAdjust="spacing" textLength="88" x="122" y="210.71">supply energy.</text><path d="M167,244.7 L342,244.7 L342,251.65 L332,261.65 L167,261.65 L167,244.7 " fill="#EEEEEE" style="stroke:#000000;stroke-width:1.5;"/><rect fill="none" height="79.9" style="stroke:#000000;stroke-width:1.5;" width="331" x="167" y="244.7"/><text fill="#000000" font-family="NanumGothic" font-size="13" font-weight="bold" lengthAdjust="spacing" textLength="130" x="182" y="257.66">EnergyTransferPeriod</text><path d="M337,280.65 L337,304.65 L488,304.65 L488,290.65 L478,280.65 L337,280.65 " fill="#7D5393" style="stroke:#000000;stroke-width:0.5;"/><path d="M478,280.65 L478,290.65 L488,290.65 L478,280.65 " fill="#7D5393" style="stroke:#000000;stroke-width:0.5;"/><text fill="#FFFFFF" font-family="NanumGothic" font-size="13" lengthAdjust="spacing" textLength="130" x="343" y="297.61">Energy is transferred.</text><path d="M234,336.6 L234,405.6 L502,405.6 L502,346.6 L492,336.6 L234,336.6 " fill="#7D5393" style="stroke:#000000;stroke-width:0.5;"/><path d="M492,336.6 L492,346.6 L502,346.6 L492,336.6 " fill="#7D5393" style="stroke:#000000;stroke-width:0.5;"/><text fill="#FFFFFF" font-family="NanumGothic" font-size="13" lengthAdjust="spacing" textLength="241" x="240" y="353.56">During an EnergyOfferPeriod there may</text><text fill="#FFFFFF" font-family="NanumGothic" font-size="13" lengthAdjust="spacing" textLength="247" x="240" y="368.51">be periods the EV is not charging due to</text><text fill="#FFFFFF" font-family="NanumGothic" font-size="13" lengthAdjust="spacing" textLength="223" x="240" y="383.46">for instance, warm/full battery or EV</text><text fill="#FFFFFF" font-family="NanumGothic" font-size="13" lengthAdjust="spacing" textLength="146" x="240" y="398.41">internal smart charging.</text><path d="M167,418.4 L342,418.4 L342,425.35 L332,435.35 L167,435.35 L167,418.4 " fill="#EEEEEE" style="stroke:#000000;stroke-width:1.5;"/><rect fill="none" height="79.9" style="stroke:#000000;stroke-width:1.5;" width="331" x="167" y="418.4"/><text fill="#000000" font-family="NanumGothic" font-size="13" font-weight="bold" lengthAdjust="spacing" textLength="130" x="182" y="431.36">EnergyTransferPeriod</text><path d="M337,454.35 L337,478.35 L488,478.35 L488,464.35 L478,454.35 L337,454.35 " fill="#7D5393" style="stroke:#000000;stroke-width:0.5;"/><path d="M478,454.35 L478,464.35 L488,464.35 L478,454.35 " fill="#7D5393" style="stroke:#000000;stroke-width:0.5;"/><text fill="#FFFFFF" font-family="NanumGothic" font-size="13" lengthAdjust="spacing" textLength="130" x="343" y="471.31">Energy is transferred.</text><path d="M73,519.3 L282,519.3 L282,526.25 L272,536.25 L73,536.25 L73,519.3 " fill="#EEEEEE" style="stroke:#000000;stroke-width:1.5;"/><rect fill="none" height="96.75" style="stroke:#000000;stroke-width:1.5;" width="302" x="73" y="519.3"/><text fill="#000000" font-family="NanumGothic" font-size="13" font-weight="bold" lengthAdjust="spacing" textLength="164" x="88" y="532.26">EnergyOfferSuspendPeriod</text><path d="M83,541.25 L83,610.25 L365,610.25 L365,551.25 L355,541.25 L83,541.25 " fill="#7D5393" style="stroke:#000000;stroke-width:0.5;"/><path d="M355,541.25 L355,551.25 L365,551.25 L355,541.25 " fill="#7D5393" style="stroke:#000000;stroke-width:0.5;"/><text fill="#FFFFFF" font-family="NanumGothic" font-size="13" lengthAdjust="spacing" textLength="261" x="89" y="558.21">During a transaction, there may be periods</text><text fill="#FFFFFF" font-family="NanumGothic" font-size="13" lengthAdjust="spacing" textLength="259" x="89" y="573.16">the EnergyOffer to EV is suspended by the</text><text fill="#FFFFFF" font-family="NanumGothic" font-size="13" lengthAdjust="spacing" textLength="254" x="89" y="588.11">EVSE, for instance due to Smart Charging</text><text fill="#FFFFFF" font-family="NanumGothic" font-size="13" lengthAdjust="spacing" textLength="110" x="89" y="603.06">or local balancing.</text><path d="M69,630.05 L226,630.05 L226,637 L216,647 L69,647 L69,630.05 " fill="#EEEEEE" style="stroke:#000000;stroke-width:1.5;"/><rect fill="none" height="124.85" style="stroke:#000000;stroke-width:1.5;" width="439" x="69" y="630.05"/><text fill="#000000" font-family="NanumGothic" font-size="13" font-weight="bold" lengthAdjust="spacing" textLength="112" x="84" y="643.01">EnergyOfferPeriod</text><path d="M167,668 L342,668 L342,674.95 L332,684.95 L167,684.95 L167,668 " fill="#EEEEEE" style="stroke:#000000;stroke-width:1.5;"/><rect fill="none" height="79.9" style="stroke:#000000;stroke-width:1.5;" width="331" x="167" y="668"/><text fill="#000000" font-family="NanumGothic" font-size="13" font-weight="bold" lengthAdjust="spacing" textLength="130" x="182" y="680.96">EnergyTransferPeriod</text><path d="M337,703.95 L337,727.95 L488,727.95 L488,713.95 L478,703.95 L337,703.95 " fill="#7D5393" style="stroke:#000000;stroke-width:0.5;"/><path d="M478,703.95 L478,713.95 L488,713.95 L478,703.95 " fill="#7D5393" style="stroke:#000000;stroke-width:0.5;"/><text fill="#FFFFFF" font-family="NanumGothic" font-size="13" lengthAdjust="spacing" textLength="130" x="343" y="720.91">Energy is transferred.</text><path d="M20,766.9 L20,820.9 L225,820.9 L225,776.9 L215,766.9 L20,766.9 " fill="#7D5393" style="stroke:#000000;stroke-width:0.5;"/><path d="M215,766.9 L215,776.9 L225,776.9 L215,766.9 " fill="#7D5393" style="stroke:#000000;stroke-width:0.5;"/><text fill="#FFFFFF" font-family="NanumGothic" font-size="13" lengthAdjust="spacing" textLength="184" x="26" y="783.86">Transaction stop is configured</text><text fill="#FFFFFF" font-family="NanumGothic" font-size="13" lengthAdjust="spacing" textLength="159" x="26" y="798.81">via configuration Variable:</text><text fill="#FFFFFF" font-family="NanumGothic" font-size="13" lengthAdjust="spacing" textLength="74" x="26" y="813.76">TxStopPoint</text><!--SRC=[xLKzSzim3DtrAz3CZhjtw9Au7PixzxpaCi0I9F6E9daaPKV_lk27RSfIqbmxjfn4u15u01x5JqBLScW8d1ybhSrma5Lbq7fH2uFAmzrFYyfXxOLMTu0EYlqKk55akn5-j2tPY4o6k5z4VfFwL033jgf2v2DwckJfh1vCQVaU3HM0qWpLHx8JFF0gzbmSfmVXeDQg5TrWgOcOey2B2IDoXrRWNjAN5EDr6qu-QQ4y6qWrCM75tubIKU8JMQ5Js2kfiWKGLzabI6SIFGUddbH6-PvWizjk0cTBs8o0dFiaf1Ig0wypp0t6o95vXPZhQ2mvJfjm_zoBfY7rSlzrnklIzT8HFMMTCTgqL2XFBAI8Gqt0cnnftCaL6sP5rtlGxVpafMlS3Pyvy0ZNsJqj6OhpxzOCqD0IftF8M7bLlSMl3FGus30NL7D1X55QWWEE6RidCD7ZyfH3LPm0wXvj5y8q0rr7t6eBGh52L4qhEA4zV6u7AM6FtfCTWTsRNSQoIiagbE0EGU_dW4l2-DV7keXBrVAgRXGmk-pRmHb6VF3Ed-MHgapNSNKLHY69yleNbBpEEd4fBpMm7mFgt1h-LQmcKiaYWcrKmaDMGeOpJkeQWuWaW-SI-LtvHTr_zOVvhyJtb7WxXW8rVUm- -WXgyuTle3Qp9_3Ax1S0]--></g></svg>