<?xml version="1.0" encoding="us-ascii" standalone="no"?><svg xmlns="http://www.w3.org/2000/svg" xmlns:xlink="http://www.w3.org/1999/xlink" contentStyleType="text/css" height="558px" preserveAspectRatio="none" style="width:647px;height:558px;background:#FFFFFF;" version="1.1" viewBox="0 0 647 558" width="647px" zoomAndPan="magnify"><defs/><g><rect fill="#FFFFFF" height="28.95" style="stroke:#181818;stroke-width:1.0;" width="10" x="40.5" y="102"/><rect fill="#FFFFFF" height="243.6" style="stroke:#181818;stroke-width:1.0;" width="10" x="40.5" y="216.8"/><rect fill="#FFFFFF" height="143.75" style="stroke:#181818;stroke-width:1.0;" width="10" x="361.5" y="102"/><rect fill="#FFFFFF" height="167.75" style="stroke:#181818;stroke-width:1.0;" width="10" x="361.5" y="374.55"/><rect fill="#FFFFFF" height="70.9" style="stroke:#181818;stroke-width:1.0;" width="10" x="535.5" y="274.7"/><rect fill="none" height="58.9" style="stroke:#000000;stroke-width:1.5;" width="244" x="296.5" y="475.4"/><line style="stroke:#181818;stroke-width:0.5;stroke-dasharray:5.0,5.0;" x1="45" x2="45" y1="36.1" y2="551.3"/><line style="stroke:#181818;stroke-width:0.5;stroke-dasharray:5.0,5.0;" x1="366.5" x2="366.5" y1="36.1" y2="551.3"/><line style="stroke:#181818;stroke-width:0.5;stroke-dasharray:5.0,5.0;" x1="540" x2="540" y1="36.1" y2="551.3"/><rect fill="#7D5393" height="30.1" rx="2.5" ry="2.5" style="stroke:#181818;stroke-width:0.5;" width="53" x="19" y="5"/><text fill="#FFFFFF" font-family="NanumGothic" font-size="14" lengthAdjust="spacing" textLength="39" x="26" y="24.88">CSMS</text><rect fill="#7D5393" height="30.1" rx="2.5" ry="2.5" style="stroke:#181818;stroke-width:0.5;" width="120" x="306.5" y="5"/><text fill="#FFFFFF" font-family="NanumGothic" font-size="14" lengthAdjust="spacing" textLength="106" x="313.5" y="24.88">Charging Station</text><rect fill="#7D5393" height="30.1" rx="2.5" ry="2.5" style="stroke:#181818;stroke-width:0.5;" width="187" x="447" y="5"/><text fill="#FFFFFF" font-family="NanumGothic" font-size="14" lengthAdjust="spacing" textLength="173" x="454" y="24.88">Certificate Authority Server</text><rect fill="#FFFFFF" height="28.95" style="stroke:#181818;stroke-width:1.0;" width="10" x="40.5" y="102"/><rect fill="#FFFFFF" height="243.6" style="stroke:#181818;stroke-width:1.0;" width="10" x="40.5" y="216.8"/><rect fill="#FFFFFF" height="143.75" style="stroke:#181818;stroke-width:1.0;" width="10" x="361.5" y="102"/><rect fill="#FFFFFF" height="167.75" style="stroke:#181818;stroke-width:1.0;" width="10" x="361.5" y="374.55"/><rect fill="#FFFFFF" height="70.9" style="stroke:#181818;stroke-width:1.0;" width="10" x="535.5" y="274.7"/><path d="M5,51.1 L5,75.1 L407,75.1 L407,61.1 L397,51.1 L5,51.1 " fill="#7D5393" style="stroke:#000000;stroke-width:0.5;"/><path d="M397,51.1 L397,61.1 L407,61.1 L397,51.1 " fill="#7D5393" style="stroke:#000000;stroke-width:0.5;"/><text fill="#FFFFFF" font-family="NanumGothic" font-size="13" lengthAdjust="spacing" textLength="164" x="119.75" y="68.06">CS certificate is almost due</text><polygon fill="#181818" points="349.5,98,359.5,102,349.5,106,353.5,102" style="stroke:#181818;stroke-width:1.0;"/><line style="stroke:#181818;stroke-width:1.0;" x1="50.5" x2="355.5" y1="102" y2="102"/><text fill="#000000" font-family="NanumGothic" font-size="13" lengthAdjust="spacing" textLength="244" x="57.5" y="97.01">TriggerMessageRequest(SignCertificate)</text><polygon fill="#181818" points="56.5,126.95,46.5,130.95,56.5,134.95,52.5,130.95" style="stroke:#181818;stroke-width:1.0;"/><line style="stroke:#181818;stroke-width:1.0;stroke-dasharray:2.0,2.0;" x1="50.5" x2="360.5" y1="130.95" y2="130.95"/><text fill="#000000" font-family="NanumGothic" font-size="13" lengthAdjust="spacing" textLength="221" x="62.5" y="125.96">TriggerMessageResponse(Accepted)</text><line style="stroke:#181818;stroke-width:1.0;" x1="371.5" x2="413.5" y1="174.85" y2="174.85"/><line style="stroke:#181818;stroke-width:1.0;" x1="413.5" x2="413.5" y1="174.85" y2="187.85"/><line style="stroke:#181818;stroke-width:1.0;" x1="372.5" x2="413.5" y1="187.85" y2="187.85"/><polygon fill="#181818" points="382.5,183.85,372.5,187.85,382.5,191.85,378.5,187.85" style="stroke:#181818;stroke-width:1.0;"/><text fill="#000000" font-family="NanumGothic" font-size="13" lengthAdjust="spacing" textLength="84" x="378.5" y="154.91">generate new</text><text fill="#000000" font-family="NanumGothic" font-size="13" lengthAdjust="spacing" textLength="141" x="386.5" y="169.86">public / private key pair</text><polygon fill="#181818" points="61.5,212.8,51.5,216.8,61.5,220.8,57.5,216.8" style="stroke:#181818;stroke-width:1.0;"/><line style="stroke:#181818;stroke-width:1.0;" x1="55.5" x2="360.5" y1="216.8" y2="216.8"/><text fill="#000000" font-family="NanumGothic" font-size="13" lengthAdjust="spacing" textLength="164" x="67.5" y="211.81">SignCertificateRequest(csr)</text><polygon fill="#181818" points="354.5,241.75,364.5,245.75,354.5,249.75,358.5,245.75" style="stroke:#181818;stroke-width:1.0;"/><line style="stroke:#181818;stroke-width:1.0;stroke-dasharray:2.0,2.0;" x1="50.5" x2="360.5" y1="245.75" y2="245.75"/><text fill="#000000" font-family="NanumGothic" font-size="13" lengthAdjust="spacing" textLength="212" x="57.5" y="240.76">SignCertificateResponse(Accepted)</text><polygon fill="#181818" points="523.5,270.7,533.5,274.7,523.5,278.7,527.5,274.7" style="stroke:#181818;stroke-width:1.0;"/><line style="stroke:#181818;stroke-width:1.0;" x1="50.5" x2="529.5" y1="274.7" y2="274.7"/><text fill="#000000" font-family="NanumGothic" font-size="13" lengthAdjust="spacing" textLength="77" x="57.5" y="269.71">forward CSR</text><line style="stroke:#181818;stroke-width:1.0;" x1="545.5" x2="587.5" y1="303.65" y2="303.65"/><line style="stroke:#181818;stroke-width:1.0;" x1="587.5" x2="587.5" y1="303.65" y2="316.65"/><line style="stroke:#181818;stroke-width:1.0;" x1="546.5" x2="587.5" y1="316.65" y2="316.65"/><polygon fill="#181818" points="556.5,312.65,546.5,316.65,556.5,320.65,552.5,316.65" style="stroke:#181818;stroke-width:1.0;"/><text fill="#000000" font-family="NanumGothic" font-size="13" lengthAdjust="spacing" textLength="88" x="552.5" y="298.66">sign certificate</text><polygon fill="#181818" points="61.5,341.6,51.5,345.6,61.5,349.6,57.5,345.6" style="stroke:#181818;stroke-width:1.0;"/><line style="stroke:#181818;stroke-width:1.0;stroke-dasharray:2.0,2.0;" x1="55.5" x2="539.5" y1="345.6" y2="345.6"/><text fill="#000000" font-family="NanumGothic" font-size="13" lengthAdjust="spacing" textLength="149" x="67.5" y="340.61">return Signed Certificate</text><polygon fill="#181818" points="349.5,370.55,359.5,374.55,349.5,378.55,353.5,374.55" style="stroke:#181818;stroke-width:1.0;"/><line style="stroke:#181818;stroke-width:1.0;" x1="50.5" x2="355.5" y1="374.55" y2="374.55"/><text fill="#000000" font-family="NanumGothic" font-size="13" lengthAdjust="spacing" textLength="221" x="57.5" y="369.56">CertificateSignedRequest(certificate)</text><line style="stroke:#181818;stroke-width:1.0;" x1="371.5" x2="413.5" y1="418.45" y2="418.45"/><line style="stroke:#181818;stroke-width:1.0;" x1="413.5" x2="413.5" y1="418.45" y2="431.45"/><line style="stroke:#181818;stroke-width:1.0;" x1="372.5" x2="413.5" y1="431.45" y2="431.45"/><polygon fill="#181818" points="382.5,427.45,372.5,431.45,382.5,435.45,378.5,431.45" style="stroke:#181818;stroke-width:1.0;"/><text fill="#000000" font-family="NanumGothic" font-size="13" lengthAdjust="spacing" textLength="80" x="378.5" y="398.51">Verify validity</text><text fill="#000000" font-family="NanumGothic" font-size="13" lengthAdjust="spacing" textLength="120" x="386.5" y="413.46">of signed certificate</text><polygon fill="#181818" points="56.5,456.4,46.5,460.4,56.5,464.4,52.5,460.4" style="stroke:#181818;stroke-width:1.0;"/><line style="stroke:#181818;stroke-width:1.0;stroke-dasharray:2.0,2.0;" x1="50.5" x2="360.5" y1="460.4" y2="460.4"/><text fill="#000000" font-family="NanumGothic" font-size="13" lengthAdjust="spacing" textLength="287" x="62.5" y="455.41">CertificateSignedResponse (Accepted/Rejected)</text><path d="M296.5,475.4 L362.5,475.4 L362.5,482.35 L352.5,492.35 L296.5,492.35 L296.5,475.4 " fill="#EEEEEE" style="stroke:#000000;stroke-width:1.5;"/><rect fill="none" height="58.9" style="stroke:#000000;stroke-width:1.5;" width="244" x="296.5" y="475.4"/><text fill="#000000" font-family="NanumGothic" font-size="13" font-weight="bold" lengthAdjust="spacing" textLength="21" x="311.5" y="488.36">opt</text><text fill="#000000" font-family="NanumGothic" font-size="11" font-weight="bold" lengthAdjust="spacing" textLength="52" x="377.5" y="487.52">[key valid]</text><line style="stroke:#181818;stroke-width:1.0;" x1="371.5" x2="413.5" y1="513.3" y2="513.3"/><line style="stroke:#181818;stroke-width:1.0;" x1="413.5" x2="413.5" y1="513.3" y2="526.3"/><line style="stroke:#181818;stroke-width:1.0;" x1="372.5" x2="413.5" y1="526.3" y2="526.3"/><polygon fill="#181818" points="382.5,522.3,372.5,526.3,382.5,530.3,378.5,526.3" style="stroke:#181818;stroke-width:1.0;"/><text fill="#000000" font-family="NanumGothic" font-size="13" lengthAdjust="spacing" textLength="150" x="378.5" y="508.31">Switch to new certificate</text><!--SRC=[ZLEnKiCm3Dtz5Q9JUqVfpi1TZhbBmp6n64T93QbjPAMz_3rsqWOtIO4XTx5alVSaFTzfe-gcGF3SrlZWcaCjX9F4Mcad3SFYET_c2v0UuiyejPTKQLD1pfArDVsrS_0S6rLWE9HQIKR86jvRqjn2ZdH4wgkpN0XZGzg6KCTvFu6440ULG6aFiZvOpr0qAD0K4264YEMmVXe3FC8BwQf2sgBtii8TVZNeUPdhoYGALq8griT8qFN-Snhf4QC0h2DdA9aIUMUDnsMc53h6OYKAl2QPOit81wZG8CKYWoTuCm2kUQ-rWWquwj4-iGKdDSqZTk96_Lx6e3oDM-y7EITbWl5hXvF1NHQK1JcbfPEa8Z3k4lfWYF0DbtpWItSl-kpG4o4tP3fP6A2IYwcEwBARvaYAUfXXCFFU-DCDinjyHT9b2qTPwo8-WhX4MtRz1U7N7TwqrupKVlumB62pmmzKyrwpZZkVT2BYi_g7yloaMUs1RMUzL6TuT-8R]--></g></svg>