<?xml version="1.0" encoding="us-ascii" standalone="no"?><svg xmlns="http://www.w3.org/2000/svg" xmlns:xlink="http://www.w3.org/1999/xlink" contentStyleType="text/css" height="743px" preserveAspectRatio="none" style="width:883px;height:743px;background:#FFFFFF;" version="1.1" viewBox="0 0 883 743" width="883px" zoomAndPan="magnify"><defs/><g><rect fill="#FFFFFF" height="28.95" style="stroke:#181818;stroke-width:1.0;" width="10" x="108" y="131.05"/><rect fill="#FFFFFF" height="28.95" style="stroke:#181818;stroke-width:1.0;" width="10" x="271" y="131.05"/><rect fill="#FFFFFF" height="28.95" style="stroke:#181818;stroke-width:1.0;" width="10" x="271" y="243.85"/><rect fill="#FFFFFF" height="28.95" style="stroke:#181818;stroke-width:1.0;" width="10" x="271" y="316.4"/><rect fill="#FFFFFF" height="339.5" style="stroke:#181818;stroke-width:1.0;" width="10" x="271" y="388.3"/><rect fill="#FFFFFF" height="28.95" style="stroke:#181818;stroke-width:1.0;" width="10" x="816" y="243.85"/><rect fill="#FFFFFF" height="28.95" style="stroke:#181818;stroke-width:1.0;" width="10" x="816" y="316.4"/><rect fill="#FFFFFF" height="28.95" style="stroke:#181818;stroke-width:1.0;" width="10" x="816" y="587"/><rect fill="#FFFFFF" height="51.95" style="stroke:#181818;stroke-width:1.0;" width="10" x="816" y="675.85"/><rect fill="none" height="650.6" style="stroke:#000000;stroke-width:1.5;" width="867.5" x="10" y="69.2"/><rect fill="none" height="74.85" style="stroke:#000000;stroke-width:1.5;" width="326" x="20" y="93.15"/><rect fill="none" height="178.35" style="stroke:#000000;stroke-width:1.5;" width="671.5" x="196" y="182"/><rect fill="none" height="147.4" style="stroke:#000000;stroke-width:1.5;" width="651.5" x="206" y="205.95"/><rect fill="none" height="131.8" style="stroke:#000000;stroke-width:1.5;" width="393" x="196" y="403.3"/><rect fill="none" height="58.9" style="stroke:#000000;stroke-width:1.5;" width="272" x="206" y="427.25"/><rect fill="none" height="74.85" style="stroke:#000000;stroke-width:1.5;" width="651.5" x="206" y="549.1"/><rect fill="none" height="74.85" style="stroke:#000000;stroke-width:1.5;" width="651.5" x="206" y="637.95"/><line style="stroke:#181818;stroke-width:0.5;stroke-dasharray:5.0,5.0;" x1="113" x2="113" y1="52.2" y2="736.8"/><line style="stroke:#181818;stroke-width:0.5;stroke-dasharray:5.0,5.0;" x1="276" x2="276" y1="52.2" y2="736.8"/><line style="stroke:#181818;stroke-width:0.5;stroke-dasharray:5.0,5.0;" x1="820.5" x2="820.5" y1="52.2" y2="736.8"/><rect fill="#7D5393" height="46.2" rx="2.5" ry="2.5" style="stroke:#181818;stroke-width:0.5;" width="166" x="30" y="5"/><text fill="#FFFFFF" font-family="NanumGothic" font-size="14" lengthAdjust="spacing" textLength="152" x="37" y="24.88">External Control System</text><text fill="#FFFFFF" font-family="NanumGothic" font-size="14" lengthAdjust="spacing" textLength="98" x="64" y="40.98">(example DSO)</text><rect fill="#7D5393" height="30.1" rx="2.5" ry="2.5" style="stroke:#181818;stroke-width:0.5;" width="120" x="216" y="21.1"/><text fill="#FFFFFF" font-family="NanumGothic" font-size="14" lengthAdjust="spacing" textLength="106" x="223" y="40.98">Charging Station</text><rect fill="#7D5393" height="30.1" rx="2.5" ry="2.5" style="stroke:#181818;stroke-width:0.5;" width="53" x="794.5" y="21.1"/><text fill="#FFFFFF" font-family="NanumGothic" font-size="14" lengthAdjust="spacing" textLength="39" x="801.5" y="40.98">CSMS</text><rect fill="#FFFFFF" height="28.95" style="stroke:#181818;stroke-width:1.0;" width="10" x="108" y="131.05"/><rect fill="#FFFFFF" height="28.95" style="stroke:#181818;stroke-width:1.0;" width="10" x="271" y="131.05"/><rect fill="#FFFFFF" height="28.95" style="stroke:#181818;stroke-width:1.0;" width="10" x="271" y="243.85"/><rect fill="#FFFFFF" height="28.95" style="stroke:#181818;stroke-width:1.0;" width="10" x="271" y="316.4"/><rect fill="#FFFFFF" height="339.5" style="stroke:#181818;stroke-width:1.0;" width="10" x="271" y="388.3"/><rect fill="#FFFFFF" height="28.95" style="stroke:#181818;stroke-width:1.0;" width="10" x="816" y="243.85"/><rect fill="#FFFFFF" height="28.95" style="stroke:#181818;stroke-width:1.0;" width="10" x="816" y="316.4"/><rect fill="#FFFFFF" height="28.95" style="stroke:#181818;stroke-width:1.0;" width="10" x="816" y="587"/><rect fill="#FFFFFF" height="51.95" style="stroke:#181818;stroke-width:1.0;" width="10" x="816" y="675.85"/><path d="M10,69.2 L82,69.2 L82,76.15 L72,86.15 L10,86.15 L10,69.2 " fill="#EEEEEE" style="stroke:#000000;stroke-width:1.5;"/><rect fill="none" height="650.6" style="stroke:#000000;stroke-width:1.5;" width="867.5" x="10" y="69.2"/><text fill="#000000" font-family="NanumGothic" font-size="13" font-weight="bold" lengthAdjust="spacing" textLength="27" x="25" y="82.16">loop</text><path d="M20,93.15 L86,93.15 L86,100.1 L76,110.1 L20,110.1 L20,93.15 " fill="#EEEEEE" style="stroke:#000000;stroke-width:1.5;"/><rect fill="none" height="74.85" style="stroke:#000000;stroke-width:1.5;" width="326" x="20" y="93.15"/><text fill="#000000" font-family="NanumGothic" font-size="13" font-weight="bold" lengthAdjust="spacing" textLength="21" x="35" y="106.11">opt</text><text fill="#000000" font-family="NanumGothic" font-size="11" font-weight="bold" lengthAdjust="spacing" textLength="134" x="101" y="105.27">[during charging process]</text><polygon fill="#181818" points="129,127.05,119,131.05,129,135.05,125,131.05" style="stroke:#181818;stroke-width:1.0;"/><line style="stroke:#181818;stroke-width:1.0;" x1="123" x2="270" y1="131.05" y2="131.05"/><text fill="#000000" font-family="NanumGothic" font-size="13" lengthAdjust="spacing" textLength="52" x="135" y="126.06">I/U value</text><polygon fill="#181818" points="124,156,114,160,124,164,120,160" style="stroke:#181818;stroke-width:1.0;"/><line style="stroke:#181818;stroke-width:1.0;" x1="118" x2="275" y1="160" y2="160"/><text fill="#000000" font-family="NanumGothic" font-size="13" lengthAdjust="spacing" textLength="129" x="130" y="155.01">reactive power factor</text><path d="M196,182 L262,182 L262,188.95 L252,198.95 L196,198.95 L196,182 " fill="#EEEEEE" style="stroke:#000000;stroke-width:1.5;"/><rect fill="none" height="178.35" style="stroke:#000000;stroke-width:1.5;" width="671.5" x="196" y="182"/><text fill="#000000" font-family="NanumGothic" font-size="13" font-weight="bold" lengthAdjust="spacing" textLength="21" x="211" y="194.96">opt</text><text fill="#000000" font-family="NanumGothic" font-size="11" font-weight="bold" lengthAdjust="spacing" textLength="128" x="277" y="194.12">[if MeterValues enabled]</text><path d="M206,205.95 L266,205.95 L266,212.9 L256,222.9 L206,222.9 L206,205.95 " fill="#EEEEEE" style="stroke:#000000;stroke-width:1.5;"/><rect fill="none" height="147.4" style="stroke:#000000;stroke-width:1.5;" width="651.5" x="206" y="205.95"/><text fill="#000000" font-family="NanumGothic" font-size="13" font-weight="bold" lengthAdjust="spacing" textLength="15" x="221" y="218.91">alt</text><text fill="#000000" font-family="NanumGothic" font-size="11" font-weight="bold" lengthAdjust="spacing" textLength="132" x="281" y="218.07">[No transaction ongoing]</text><polygon fill="#181818" points="804,239.85,814,243.85,804,247.85,808,243.85" style="stroke:#181818;stroke-width:1.0;"/><line style="stroke:#181818;stroke-width:1.0;" x1="281" x2="810" y1="243.85" y2="243.85"/><text fill="#000000" font-family="NanumGothic" font-size="13" lengthAdjust="spacing" textLength="251" x="288" y="238.86">MeterValuesRequest(evseId, meterValue)</text><polygon fill="#181818" points="287,268.8,277,272.8,287,276.8,283,272.8" style="stroke:#181818;stroke-width:1.0;"/><line style="stroke:#181818;stroke-width:1.0;stroke-dasharray:2.0,2.0;" x1="281" x2="820" y1="272.8" y2="272.8"/><text fill="#000000" font-family="NanumGothic" font-size="13" lengthAdjust="spacing" textLength="145" x="293" y="267.81">MeterValuesResponse()</text><line style="stroke:#000000;stroke-width:1.0;stroke-dasharray:2.0,2.0;" x1="206" x2="857.5" y1="281.8" y2="281.8"/><text fill="#000000" font-family="NanumGothic" font-size="11" font-weight="bold" lengthAdjust="spacing" textLength="114" x="211" y="291.92">[transaction ongoing]</text><polygon fill="#181818" points="804,312.4,814,316.4,804,320.4,808,316.4" style="stroke:#181818;stroke-width:1.0;"/><line style="stroke:#181818;stroke-width:1.0;" x1="281" x2="810" y1="316.4" y2="316.4"/><text fill="#000000" font-family="NanumGothic" font-size="13" lengthAdjust="spacing" textLength="312" x="288" y="311.41">TransactionEventRequest(eventType = Updated, ...)</text><polygon fill="#181818" points="287,341.35,277,345.35,287,349.35,283,345.35" style="stroke:#181818;stroke-width:1.0;"/><line style="stroke:#181818;stroke-width:1.0;stroke-dasharray:2.0,2.0;" x1="281" x2="820" y1="345.35" y2="345.35"/><text fill="#000000" font-family="NanumGothic" font-size="13" lengthAdjust="spacing" textLength="183" x="293" y="340.36">TransactionEventResponse(...)</text><polygon fill="#181818" points="259,384.3,269,388.3,259,392.3,263,388.3" style="stroke:#181818;stroke-width:1.0;"/><line style="stroke:#181818;stroke-width:1.0;" x1="113" x2="265" y1="388.3" y2="388.3"/><text fill="#000000" font-family="NanumGothic" font-size="13" lengthAdjust="spacing" textLength="77" x="120" y="383.31">Set grid limit</text><path d="M196,403.3 L262,403.3 L262,410.25 L252,420.25 L196,420.25 L196,403.3 " fill="#EEEEEE" style="stroke:#000000;stroke-width:1.5;"/><rect fill="none" height="131.8" style="stroke:#000000;stroke-width:1.5;" width="393" x="196" y="403.3"/><text fill="#000000" font-family="NanumGothic" font-size="13" font-weight="bold" lengthAdjust="spacing" textLength="21" x="211" y="416.26">opt</text><text fill="#000000" font-family="NanumGothic" font-size="11" font-weight="bold" lengthAdjust="spacing" textLength="124" x="277" y="415.42">[if transaction ongoing]</text><path d="M206,427.25 L272,427.25 L272,434.2 L262,444.2 L206,444.2 L206,427.25 " fill="#EEEEEE" style="stroke:#000000;stroke-width:1.5;"/><rect fill="none" height="58.9" style="stroke:#000000;stroke-width:1.5;" width="272" x="206" y="427.25"/><text fill="#000000" font-family="NanumGothic" font-size="13" font-weight="bold" lengthAdjust="spacing" textLength="21" x="221" y="440.21">opt</text><line style="stroke:#181818;stroke-width:1.0;" x1="281" x2="323" y1="465.15" y2="465.15"/><line style="stroke:#181818;stroke-width:1.0;" x1="323" x2="323" y1="465.15" y2="478.15"/><line style="stroke:#181818;stroke-width:1.0;" x1="282" x2="323" y1="478.15" y2="478.15"/><polygon fill="#181818" points="292,474.15,282,478.15,292,482.15,288,478.15" style="stroke:#181818;stroke-width:1.0;"/><text fill="#000000" font-family="NanumGothic" font-size="13" lengthAdjust="spacing" textLength="178" x="288" y="460.16">recalculate charging schedule</text><line style="stroke:#181818;stroke-width:1.0;" x1="281" x2="323" y1="514.1" y2="514.1"/><line style="stroke:#181818;stroke-width:1.0;" x1="323" x2="323" y1="514.1" y2="527.1"/><line style="stroke:#181818;stroke-width:1.0;" x1="282" x2="323" y1="527.1" y2="527.1"/><polygon fill="#181818" points="292,523.1,282,527.1,292,531.1,288,527.1" style="stroke:#181818;stroke-width:1.0;"/><text fill="#000000" font-family="NanumGothic" font-size="13" lengthAdjust="spacing" textLength="289" x="288" y="509.11">set charging limit(minimum of all known limits)</text><path d="M206,549.1 L272,549.1 L272,556.05 L262,566.05 L206,566.05 L206,549.1 " fill="#EEEEEE" style="stroke:#000000;stroke-width:1.5;"/><rect fill="none" height="74.85" style="stroke:#000000;stroke-width:1.5;" width="651.5" x="206" y="549.1"/><text fill="#000000" font-family="NanumGothic" font-size="13" font-weight="bold" lengthAdjust="spacing" textLength="21" x="221" y="562.06">opt</text><text fill="#000000" font-family="NanumGothic" font-size="11" font-weight="bold" lengthAdjust="spacing" textLength="328" x="287" y="561.22">[if charging limit changed more than: LimitChangeSignificance]</text><polygon fill="#181818" points="804,583,814,587,804,591,808,587" style="stroke:#181818;stroke-width:1.0;"/><line style="stroke:#181818;stroke-width:1.0;" x1="281" x2="810" y1="587" y2="587"/><text fill="#000000" font-family="NanumGothic" font-size="13" lengthAdjust="spacing" textLength="422" x="288" y="582.01">NotifyChargingLimitRequest(evseId, chargingSchedule, chargingLimit)</text><polygon fill="#181818" points="292,611.95,282,615.95,292,619.95,288,615.95" style="stroke:#181818;stroke-width:1.0;"/><line style="stroke:#181818;stroke-width:1.0;stroke-dasharray:2.0,2.0;" x1="286" x2="820" y1="615.95" y2="615.95"/><text fill="#000000" font-family="NanumGothic" font-size="13" lengthAdjust="spacing" textLength="189" x="298" y="610.96">NotifyChargingLimitResponse()</text><path d="M206,637.95 L272,637.95 L272,644.9 L262,654.9 L206,654.9 L206,637.95 " fill="#EEEEEE" style="stroke:#000000;stroke-width:1.5;"/><rect fill="none" height="74.85" style="stroke:#000000;stroke-width:1.5;" width="651.5" x="206" y="637.95"/><text fill="#000000" font-family="NanumGothic" font-size="13" font-weight="bold" lengthAdjust="spacing" textLength="21" x="221" y="650.91">opt</text><text fill="#000000" font-family="NanumGothic" font-size="11" font-weight="bold" lengthAdjust="spacing" textLength="325" x="287" y="650.07">[if charging rate changed more than: LimitChangeSignificance]</text><polygon fill="#181818" points="804,671.85,814,675.85,804,679.85,808,675.85" style="stroke:#181818;stroke-width:1.0;"/><line style="stroke:#181818;stroke-width:1.0;" x1="281" x2="810" y1="675.85" y2="675.85"/><text fill="#000000" font-family="NanumGothic" font-size="13" lengthAdjust="spacing" textLength="516" x="288" y="670.86">TransactionEventRequest(eventType = Updated, trigger = ChargingRateChanged, ...)</text><polygon fill="#181818" points="292,700.8,282,704.8,292,708.8,288,704.8" style="stroke:#181818;stroke-width:1.0;"/><line style="stroke:#181818;stroke-width:1.0;stroke-dasharray:2.0,2.0;" x1="286" x2="815" y1="704.8" y2="704.8"/><text fill="#000000" font-family="NanumGothic" font-size="13" lengthAdjust="spacing" textLength="183" x="298" y="699.81">TransactionEventResponse(...)</text><!--SRC=[jLHDRzim3BtxLt0z9S2QtGDqboo70ci7rErEksWIxGhJroGvRVxzACLEOZlsq68x9B3unFV8Pz8VfE6g4GWXxXMkNADLKJZce-JICHFXQliQqHkcO6DDz5P1kGyHzG-pm5UcdKBuKdvRNW4BiDsK_TpDC_ErD3MKaKLfJRxL1TlO8AEyAm-twA4ebBMk0B0kWcXyOk8TfVEMOmY4mf0IhZ-dMjPm- -a9Tamrc6yn7kMEHSnrzWB3acP9FUOy16TVq4D59-jpXi2Hn5beA0A0HXHjTxA2EoIZlwTg0o7ifq9ng595kBSGFJCXaL4frjIMc39yiT3atlgSyG5_qtzSu2xWhVW8-WWjMvQPEljmVZ6jCZt3TTBhvmoaWxCcuA9JclLaU26ffHYgWE_nuF6KijsXYISZwF2uTmWtyEG4QP4hgzNg_zWnhgBrv4pnVROOSHea6Zguf5vYXDfB0Kfg6OlvmM-dSSfgWcSi7ofxv4pnHYMju-O6_eoYKTWr09FxDk8BrCcH9tUpqD98tMYm5MsAWb_6lfW359QZ7UldfgEfKO2sdeQB3cluce1DZfUoDhAId1cEnUoGtTiegtq7PuhXmdNAPTlyAPAlBuk9gPgUgOkYlLKR3yo46xvzF__4Z3TjNFIohkahUdFaUo3W87c-a6zovc_Rbbn8lpy0]--></g></svg>