<?xml version="1.0" encoding="us-ascii" standalone="no"?><svg xmlns="http://www.w3.org/2000/svg" xmlns:xlink="http://www.w3.org/1999/xlink" contentStyleType="text/css" height="759px" preserveAspectRatio="none" style="width:811px;height:759px;background:#FFFFFF;" version="1.1" viewBox="0 0 811 759" width="811px" zoomAndPan="magnify"><defs/><g><rect fill="#FFFFFF" height="198.7" style="stroke:#181818;stroke-width:1.0;" width="10" x="47.5" y="248.85"/><rect fill="#FFFFFF" height="28.95" style="stroke:#181818;stroke-width:1.0;" width="10" x="266.5" y="114.05"/><rect fill="#FFFFFF" height="494.2" style="stroke:#181818;stroke-width:1.0;" width="10" x="266.5" y="248.85"/><rect fill="#FFFFFF" height="28.95" style="stroke:#181818;stroke-width:1.0;" width="10" x="605.5" y="114.05"/><rect fill="none" height="58.9" style="stroke:#000000;stroke-width:1.5;" width="275" x="201.5" y="263.85"/><rect fill="none" height="58.9" style="stroke:#000000;stroke-width:1.5;" width="269" x="201.5" y="336.75"/><rect fill="none" height="45.9" style="stroke:#000000;stroke-width:1.5;" width="331.5" x="10" y="409.65"/><rect fill="none" height="265.5" style="stroke:#000000;stroke-width:1.5;" width="730.5" x="75" y="469.55"/><rect fill="none" height="140.35" style="stroke:#000000;stroke-width:1.5;" width="710.5" x="85" y="587.7"/><line style="stroke:#181818;stroke-width:0.5;stroke-dasharray:5.0,5.0;" x1="52" x2="52" y1="83.1" y2="752.05"/><line style="stroke:#181818;stroke-width:0.5;stroke-dasharray:5.0,5.0;" x1="110" x2="110" y1="83.1" y2="752.05"/><line style="stroke:#181818;stroke-width:0.5;stroke-dasharray:5.0,5.0;" x1="271.5" x2="271.5" y1="83.1" y2="752.05"/><line style="stroke:#181818;stroke-width:0.5;stroke-dasharray:5.0,5.0;" x1="610" x2="610" y1="83.1" y2="752.05"/><text fill="#000000" font-family="NanumGothic" font-size="14" lengthAdjust="spacing" textLength="59" x="20" y="79.88">EV Driver</text><ellipse cx="52.5" cy="14.5" fill="#E2E2F0" rx="8" ry="8" style="stroke:#7D5393;stroke-width:1.5;"/><path d="M52.5,22.5 L52.5,49.5 M39.5,30.5 L65.5,30.5 M52.5,49.5 L39.5,64.5 M52.5,49.5 L65.5,64.5 " fill="none" style="stroke:#7D5393;stroke-width:1.5;"/><rect fill="#7D5393" height="30.1" rx="2.5" ry="2.5" style="stroke:#181818;stroke-width:0.5;" width="31" x="95" y="52"/><text fill="#FFFFFF" font-family="NanumGothic" font-size="14" lengthAdjust="spacing" textLength="17" x="102" y="71.88">EV</text><rect fill="#7D5393" height="30.1" rx="2.5" ry="2.5" style="stroke:#181818;stroke-width:0.5;" width="120" x="211.5" y="52"/><text fill="#FFFFFF" font-family="NanumGothic" font-size="14" lengthAdjust="spacing" textLength="106" x="218.5" y="71.88">Charging Station</text><rect fill="#7D5393" height="30.1" rx="2.5" ry="2.5" style="stroke:#181818;stroke-width:0.5;" width="53" x="584" y="52"/><text fill="#FFFFFF" font-family="NanumGothic" font-size="14" lengthAdjust="spacing" textLength="39" x="591" y="71.88">CSMS</text><rect fill="#FFFFFF" height="198.7" style="stroke:#181818;stroke-width:1.0;" width="10" x="47.5" y="248.85"/><rect fill="#FFFFFF" height="28.95" style="stroke:#181818;stroke-width:1.0;" width="10" x="266.5" y="114.05"/><rect fill="#FFFFFF" height="494.2" style="stroke:#181818;stroke-width:1.0;" width="10" x="266.5" y="248.85"/><rect fill="#FFFFFF" height="28.95" style="stroke:#181818;stroke-width:1.0;" width="10" x="605.5" y="114.05"/><polygon fill="#181818" points="287.5,110.05,277.5,114.05,287.5,118.05,283.5,114.05" style="stroke:#181818;stroke-width:1.0;"/><line style="stroke:#181818;stroke-width:1.0;" x1="281.5" x2="604.5" y1="114.05" y2="114.05"/><text fill="#000000" font-family="NanumGothic" font-size="13" lengthAdjust="spacing" textLength="315" x="293.5" y="109.06">SetChargingProfileRequest(TxDefaultProfile, evseId)</text><polygon fill="#181818" points="598.5,139,608.5,143,598.5,147,602.5,143" style="stroke:#181818;stroke-width:1.0;"/><line style="stroke:#181818;stroke-width:1.0;stroke-dasharray:2.0,2.0;" x1="271.5" x2="604.5" y1="143" y2="143"/><text fill="#000000" font-family="NanumGothic" font-size="13" lengthAdjust="spacing" textLength="238" x="278.5" y="138.01">SetChargingProfileResponse(Accepted)</text><path d="M13,156 L13,180 L707,180 L707,166 L697,156 L13,156 " fill="#7D5393" style="stroke:#000000;stroke-width:0.5;"/><path d="M697,156 L697,166 L707,166 L697,156 " fill="#7D5393" style="stroke:#000000;stroke-width:0.5;"/><text fill="#FFFFFF" font-family="NanumGothic" font-size="13" lengthAdjust="spacing" textLength="673" x="19" y="172.96">Time period between start of transaction and setting of charging profile can be minutes, but can also be days.</text><line style="stroke:#181818;stroke-width:1.0;" x1="271.5" x2="313.5" y1="206.9" y2="206.9"/><line style="stroke:#181818;stroke-width:1.0;" x1="313.5" x2="313.5" y1="206.9" y2="219.9"/><line style="stroke:#181818;stroke-width:1.0;" x1="272.5" x2="313.5" y1="219.9" y2="219.9"/><polygon fill="#181818" points="282.5,215.9,272.5,219.9,282.5,223.9,278.5,219.9" style="stroke:#181818;stroke-width:1.0;"/><text fill="#000000" font-family="NanumGothic" font-size="13" lengthAdjust="spacing" textLength="94" x="278.5" y="201.91">connection loss</text><polygon fill="#181818" points="254.5,244.85,264.5,248.85,254.5,252.85,258.5,248.85" style="stroke:#181818;stroke-width:1.0;"/><line style="stroke:#181818;stroke-width:1.0;" x1="57.5" x2="260.5" y1="248.85" y2="248.85"/><text fill="#000000" font-family="NanumGothic" font-size="13" lengthAdjust="spacing" textLength="108" x="64.5" y="243.86">Present IdToken()</text><path d="M201.5,263.85 L267.5,263.85 L267.5,270.8 L257.5,280.8 L201.5,280.8 L201.5,263.85 " fill="#EEEEEE" style="stroke:#000000;stroke-width:1.5;"/><rect fill="none" height="58.9" style="stroke:#000000;stroke-width:1.5;" width="275" x="201.5" y="263.85"/><text fill="#000000" font-family="NanumGothic" font-size="13" font-weight="bold" lengthAdjust="spacing" textLength="21" x="216.5" y="276.81">opt</text><text fill="#000000" font-family="NanumGothic" font-size="11" font-weight="bold" lengthAdjust="spacing" textLength="72" x="282.5" y="275.97">[if supported]</text><line style="stroke:#181818;stroke-width:1.0;" x1="276.5" x2="318.5" y1="301.75" y2="301.75"/><line style="stroke:#181818;stroke-width:1.0;" x1="318.5" x2="318.5" y1="301.75" y2="314.75"/><line style="stroke:#181818;stroke-width:1.0;" x1="277.5" x2="318.5" y1="314.75" y2="314.75"/><polygon fill="#181818" points="287.5,310.75,277.5,314.75,287.5,318.75,283.5,314.75" style="stroke:#181818;stroke-width:1.0;"/><text fill="#000000" font-family="NanumGothic" font-size="13" lengthAdjust="spacing" textLength="181" x="283.5" y="296.76">check local authorization list()</text><path d="M201.5,336.75 L267.5,336.75 L267.5,343.7 L257.5,353.7 L201.5,353.7 L201.5,336.75 " fill="#EEEEEE" style="stroke:#000000;stroke-width:1.5;"/><rect fill="none" height="58.9" style="stroke:#000000;stroke-width:1.5;" width="269" x="201.5" y="336.75"/><text fill="#000000" font-family="NanumGothic" font-size="13" font-weight="bold" lengthAdjust="spacing" textLength="21" x="216.5" y="349.71">opt</text><text fill="#000000" font-family="NanumGothic" font-size="11" font-weight="bold" lengthAdjust="spacing" textLength="72" x="282.5" y="348.87">[if supported]</text><line style="stroke:#181818;stroke-width:1.0;" x1="276.5" x2="318.5" y1="374.65" y2="374.65"/><line style="stroke:#181818;stroke-width:1.0;" x1="318.5" x2="318.5" y1="374.65" y2="387.65"/><line style="stroke:#181818;stroke-width:1.0;" x1="277.5" x2="318.5" y1="387.65" y2="387.65"/><polygon fill="#181818" points="287.5,383.65,277.5,387.65,287.5,391.65,283.5,387.65" style="stroke:#181818;stroke-width:1.0;"/><text fill="#000000" font-family="NanumGothic" font-size="13" lengthAdjust="spacing" textLength="175" x="283.5" y="369.66">Check Authorization Cache()</text><path d="M10,409.65 L76,409.65 L76,416.6 L66,426.6 L10,426.6 L10,409.65 " fill="#EEEEEE" style="stroke:#000000;stroke-width:1.5;"/><rect fill="none" height="45.9" style="stroke:#000000;stroke-width:1.5;" width="331.5" x="10" y="409.65"/><text fill="#000000" font-family="NanumGothic" font-size="13" font-weight="bold" lengthAdjust="spacing" textLength="21" x="25" y="422.61">opt</text><polygon fill="#181818" points="63.5,443.55,53.5,447.55,63.5,451.55,59.5,447.55" style="stroke:#181818;stroke-width:1.0;"/><line style="stroke:#181818;stroke-width:1.0;stroke-dasharray:2.0,2.0;" x1="57.5" x2="265.5" y1="447.55" y2="447.55"/><text fill="#000000" font-family="NanumGothic" font-size="13" lengthAdjust="spacing" textLength="69" x="69.5" y="442.56">notification</text><path d="M75,469.55 L135,469.55 L135,476.5 L125,486.5 L75,486.5 L75,469.55 " fill="#EEEEEE" style="stroke:#000000;stroke-width:1.5;"/><rect fill="none" height="265.5" style="stroke:#000000;stroke-width:1.5;" width="730.5" x="75" y="469.55"/><text fill="#000000" font-family="NanumGothic" font-size="13" font-weight="bold" lengthAdjust="spacing" textLength="15" x="90" y="482.51">alt</text><text fill="#000000" font-family="NanumGothic" font-size="11" font-weight="bold" lengthAdjust="spacing" textLength="572" x="150" y="481.67">[LocalAuthorizeOffline=true &amp; (Id in cache or (Id in local list &amp; Valid)) or (OfflineTxForUnknownIdEnabled=true</text><text fill="#000000" font-family="NanumGothic" font-size="11" font-weight="bold" lengthAdjust="spacing" textLength="145" x="150" y="494.32">&amp; Id not Invalid in local list)]</text><line style="stroke:#181818;stroke-width:1.0;" x1="276.5" x2="318.5" y1="517.75" y2="517.75"/><line style="stroke:#181818;stroke-width:1.0;" x1="318.5" x2="318.5" y1="517.75" y2="530.75"/><line style="stroke:#181818;stroke-width:1.0;" x1="277.5" x2="318.5" y1="530.75" y2="530.75"/><polygon fill="#181818" points="287.5,526.75,277.5,530.75,287.5,534.75,283.5,530.75" style="stroke:#181818;stroke-width:1.0;"/><text fill="#000000" font-family="NanumGothic" font-size="13" lengthAdjust="spacing" textLength="89" x="283.5" y="512.76">lock connector</text><line style="stroke:#181818;stroke-width:1.0;" x1="276.5" x2="318.5" y1="559.7" y2="559.7"/><line style="stroke:#181818;stroke-width:1.0;" x1="318.5" x2="318.5" y1="559.7" y2="572.7"/><line style="stroke:#181818;stroke-width:1.0;" x1="277.5" x2="318.5" y1="572.7" y2="572.7"/><polygon fill="#181818" points="287.5,568.7,277.5,572.7,287.5,576.7,283.5,572.7" style="stroke:#181818;stroke-width:1.0;"/><text fill="#000000" font-family="NanumGothic" font-size="13" lengthAdjust="spacing" textLength="107" x="283.5" y="554.71">start energy offer</text><path d="M85,587.7 L151,587.7 L151,594.65 L141,604.65 L85,604.65 L85,587.7 " fill="#EEEEEE" style="stroke:#000000;stroke-width:1.5;"/><rect fill="none" height="140.35" style="stroke:#000000;stroke-width:1.5;" width="710.5" x="85" y="587.7"/><text fill="#000000" font-family="NanumGothic" font-size="13" font-weight="bold" lengthAdjust="spacing" textLength="21" x="100" y="600.66">opt</text><text fill="#000000" font-family="NanumGothic" font-size="11" font-weight="bold" lengthAdjust="spacing" textLength="229" x="166" y="599.82">[loop Change according to charging profile]</text><line style="stroke:#000000;stroke-width:1.0;stroke-dasharray:2.0,2.0;" x1="85" x2="795.5" y1="605.65" y2="605.65"/><text fill="#000000" font-family="NanumGothic" font-size="11" font-weight="bold" lengthAdjust="spacing" textLength="227" x="90" y="615.77">[for each interval period in charging profile]</text><line style="stroke:#181818;stroke-width:1.0;" x1="276.5" x2="318.5" y1="659.175" y2="659.175"/><line style="stroke:#181818;stroke-width:1.0;" x1="318.5" x2="318.5" y1="659.175" y2="672.175"/><line style="stroke:#181818;stroke-width:1.0;" x1="277.5" x2="318.5" y1="672.175" y2="672.175"/><polygon fill="#181818" points="287.5,668.175,277.5,672.175,287.5,676.175,283.5,672.175" style="stroke:#181818;stroke-width:1.0;"/><text fill="#000000" font-family="NanumGothic" font-size="13" lengthAdjust="spacing" textLength="224" x="283.5" y="654.185">get limit from charging profile():limit</text><path d="M519,624.3 L519,693.3 L775,693.3 L775,634.3 L765,624.3 L519,624.3 " fill="#7D5393" style="stroke:#000000;stroke-width:0.5;"/><path d="M765,624.3 L765,634.3 L775,634.3 L765,624.3 " fill="#7D5393" style="stroke:#000000;stroke-width:0.5;"/><text fill="#FFFFFF" font-family="NanumGothic" font-size="13" lengthAdjust="spacing" textLength="235" x="525" y="641.26">Charging Station implements charging</text><text fill="#FFFFFF" font-family="NanumGothic" font-size="13" lengthAdjust="spacing" textLength="164" x="525" y="656.21">profile via the Control Pilot</text><text fill="#FFFFFF" font-family="NanumGothic" font-size="13" lengthAdjust="spacing" textLength="211" x="525" y="671.16">signal whenever maximum current</text><text fill="#FFFFFF" font-family="NanumGothic" font-size="13" lengthAdjust="spacing" textLength="100" x="525" y="686.11">needs changing.</text><polygon fill="#181818" points="121.5,716.05,111.5,720.05,121.5,724.05,117.5,720.05" style="stroke:#181818;stroke-width:1.0;"/><line style="stroke:#181818;stroke-width:1.0;" x1="115.5" x2="265.5" y1="720.05" y2="720.05"/><text fill="#000000" font-family="NanumGothic" font-size="13" lengthAdjust="spacing" textLength="132" x="127.5" y="715.06">set max current(limit)</text><!--SRC=[dLHDRzf04BtxLqnpY41AyWEGMYaYL49gLLGefrusksCpOZthxguXwQ_lxDfE8824UW3Py_7cpPiPVoBMjZK88RvQV6ZQsXQ5qj5vk9cjuSdJ3lqDg02pTVTIDCf7qjGeZYccTnwRfnlbA-8Abb55Sfo31cDl-v2n_BxiekIXAD8_t7_vc3E19SR1jl2k98i_yK-B8OvMBqzOgjR6tdu7k0iuD-FK3-rKn1C6xuwkwB4RxXC1yPol6Xh70KUFMcCJKSeOl5Zeq9LBiPD79tAAT7UT3M15DKA3dfo1PunxH9QvY4hWIeXUSKWeGaonWO0n9eN5fGUrcuuRQCK203Ln6p7SmNCRiqtPu9B3gDVmKA2W91vd6ZyZl7RCs9MtBeIY61RYRFJ2Oq2Pwzoit1PvT324jqMwg5RXcWXKGcYRnddHLhIvYk86zLROQML1jN7ZFFtjeYt9WenJn_yDFitWZqUmKoKb3t3FGGdMqF4aoKqbwQvDW8ErU5CbOoaRuLlgOwY7FyhI4kFdw5k4MnZD3H3BK8K0oB7sxrtlgLk9MIjBPZpExZvzzVBL-L-yPRVdkPcnUhPeEao0ttmhyqeSOSwxb7mCERvIASdO3klYV75bLhVeoEYhLrdg4dDc6fPrhadnN24ehPqtQTUZEzbxYKSR44hfM9JT2Fs8NZePZYefTffp7RyAXGdL5A7qhZx16OqdsPlnydLxgZRTwtk1uNi8L3SMQxcGy8RKXmutl2C5KOOxTHozix0WwmQuG1LBL_kDo9Kki5OlLBT2glLUCFieHZGPdXFyGxQ-t_o5lcVhIVgq9CW1RfGRIzDFkvb-_m00]--></g></svg>