<?xml version="1.0" encoding="us-ascii" standalone="no"?><svg xmlns="http://www.w3.org/2000/svg" xmlns:xlink="http://www.w3.org/1999/xlink" contentStyleType="text/css" height="788px" preserveAspectRatio="none" style="width:1737px;height:788px;background:#FFFFFF;" version="1.1" viewBox="0 0 1737 788" width="1737px" zoomAndPan="magnify"><defs/><g><ellipse cx="314.08" cy="16" fill="#222222" rx="10" ry="10" style="stroke:#222222;stroke-width:1.0;"/><g id="Idle"><rect fill="#7D5393" height="50" rx="12.5" ry="12.5" style="stroke:#000000;stroke-width:0.5;" width="50" x="289.08" y="102"/><line style="stroke:#000000;stroke-width:0.5;" x1="289.08" x2="339.08" y1="128.1" y2="128.1"/><text fill="#FFFFFF" font-family="NanumGothic" font-size="14" lengthAdjust="spacing" textLength="22" x="303.08" y="119.88">Idle</text></g><g id="DownloadScheduled"><rect fill="#7D5393" height="50" rx="12.5" ry="12.5" style="stroke:#000000;stroke-width:0.5;" width="151" x="356.58" y="228"/><line style="stroke:#000000;stroke-width:0.5;" x1="356.58" x2="507.58" y1="254.1" y2="254.1"/><text fill="#FFFFFF" font-family="NanumGothic" font-size="14" lengthAdjust="spacing" textLength="131" x="366.58" y="245.88">DownloadScheduled</text></g><g id="Downloading"><rect fill="#7D5393" height="50" rx="12.5" ry="12.5" style="stroke:#000000;stroke-width:0.5;" width="104" x="644.08" y="102"/><line style="stroke:#000000;stroke-width:0.5;" x1="644.08" x2="748.08" y1="128.1" y2="128.1"/><text fill="#FFFFFF" font-family="NanumGothic" font-size="14" lengthAdjust="spacing" textLength="84" x="654.08" y="119.88">Downloading</text></g><g id="DownloadPaused"><rect fill="#7D5393" height="50" rx="12.5" ry="12.5" style="stroke:#000000;stroke-width:0.5;" width="131" x="1102.58" y="102"/><line style="stroke:#000000;stroke-width:0.5;" x1="1102.58" x2="1233.58" y1="128.1" y2="128.1"/><text fill="#FFFFFF" font-family="NanumGothic" font-size="14" lengthAdjust="spacing" textLength="111" x="1112.58" y="119.88">DownloadPaused</text></g><g id="DownloadFailed"><rect fill="#7D5393" height="50" rx="12.5" ry="12.5" style="stroke:#000000;stroke-width:0.5;" width="122" x="946.08" y="102"/><line style="stroke:#000000;stroke-width:0.5;" x1="946.08" x2="1068.08" y1="128.1" y2="128.1"/><text fill="#FFFFFF" font-family="NanumGothic" font-size="14" lengthAdjust="spacing" textLength="102" x="956.08" y="119.88">DownloadFailed</text></g><g id="Downloaded"><rect fill="#7D5393" height="50" rx="12.5" ry="12.5" style="stroke:#000000;stroke-width:0.5;" width="101" x="720.58" y="228"/><line style="stroke:#000000;stroke-width:0.5;" x1="720.58" x2="821.58" y1="254.1" y2="254.1"/><text fill="#FFFFFF" font-family="NanumGothic" font-size="14" lengthAdjust="spacing" textLength="81" x="730.58" y="245.88">Downloaded</text></g><g id="InvalidSignature"><rect fill="#7D5393" height="50" rx="12.5" ry="12.5" style="stroke:#000000;stroke-width:0.5;" width="121" x="1016.58" y="228"/><line style="stroke:#000000;stroke-width:0.5;" x1="1016.58" x2="1137.58" y1="254.1" y2="254.1"/><text fill="#FFFFFF" font-family="NanumGothic" font-size="14" lengthAdjust="spacing" textLength="101" x="1026.58" y="245.88">InvalidSignature</text></g><g id="SignatureVerified"><rect fill="#7D5393" height="50" rx="12.5" ry="12.5" style="stroke:#000000;stroke-width:0.5;" width="130" x="706.08" y="354"/><line style="stroke:#000000;stroke-width:0.5;" x1="706.08" x2="836.08" y1="380.1" y2="380.1"/><text fill="#FFFFFF" font-family="NanumGothic" font-size="14" lengthAdjust="spacing" textLength="110" x="716.08" y="371.88">SignatureVerified</text></g><g id="InstallScheduled"><rect fill="#7D5393" height="50" rx="12.5" ry="12.5" style="stroke:#000000;stroke-width:0.5;" width="122" x="1064.08" y="354"/><line style="stroke:#000000;stroke-width:0.5;" x1="1064.08" x2="1186.08" y1="380.1" y2="380.1"/><text fill="#FFFFFF" font-family="NanumGothic" font-size="14" lengthAdjust="spacing" textLength="102" x="1074.08" y="371.88">InstallScheduled</text></g><g id="InstallRebooting_1"><rect fill="#7D5393" height="50" rx="12.5" ry="12.5" style="stroke:#000000;stroke-width:0.5;" width="137" x="1220.58" y="354"/><line style="stroke:#000000;stroke-width:0.5;" x1="1220.58" x2="1357.58" y1="380.1" y2="380.1"/><text fill="#FFFFFF" font-family="NanumGothic" font-size="14" lengthAdjust="spacing" textLength="117" x="1230.58" y="371.88">InstallRebooting_1</text></g><g id="Installing"><rect fill="#7D5393" height="50" rx="12.5" ry="12.5" style="stroke:#000000;stroke-width:0.5;" width="75" x="1087.58" y="480"/><line style="stroke:#000000;stroke-width:0.5;" x1="1087.58" x2="1162.58" y1="506.1" y2="506.1"/><text fill="#FFFFFF" font-family="NanumGothic" font-size="14" lengthAdjust="spacing" textLength="55" x="1097.58" y="497.88">Installing</text></g><g id="InstallVerificationFailed"><rect fill="#7D5393" height="50" rx="12.5" ry="12.5" style="stroke:#000000;stroke-width:0.5;" width="165" x="1405.58" y="480"/><line style="stroke:#000000;stroke-width:0.5;" x1="1405.58" x2="1570.58" y1="506.1" y2="506.1"/><text fill="#FFFFFF" font-family="NanumGothic" font-size="14" lengthAdjust="spacing" textLength="145" x="1415.58" y="497.88">InstallVerificationFailed</text></g><g id="InstallationFailed"><rect fill="#7D5393" height="50" rx="12.5" ry="12.5" style="stroke:#000000;stroke-width:0.5;" width="125" x="1605.58" y="480"/><line style="stroke:#000000;stroke-width:0.5;" x1="1605.58" x2="1730.58" y1="506.1" y2="506.1"/><text fill="#FFFFFF" font-family="NanumGothic" font-size="14" lengthAdjust="spacing" textLength="105" x="1615.58" y="497.88">InstallationFailed</text></g><g id="InstallRebooting_2"><rect fill="#7D5393" height="50" rx="12.5" ry="12.5" style="stroke:#000000;stroke-width:0.5;" width="137" x="1293.58" y="606"/><line style="stroke:#000000;stroke-width:0.5;" x1="1293.58" x2="1430.58" y1="632.1" y2="632.1"/><text fill="#FFFFFF" font-family="NanumGothic" font-size="14" lengthAdjust="spacing" textLength="117" x="1303.58" y="623.88">InstallRebooting_2</text></g><g id="Installed"><rect fill="#7D5393" height="50" rx="12.5" ry="12.5" style="stroke:#000000;stroke-width:0.5;" width="72" x="1118.08" y="732"/><line style="stroke:#000000;stroke-width:0.5;" x1="1118.08" x2="1190.08" y1="758.1" y2="758.1"/><text fill="#FFFFFF" font-family="NanumGothic" font-size="14" lengthAdjust="spacing" textLength="52" x="1128.08" y="749.88">Installed</text></g><!--link *start* to Idle--><g id="link_*start*_Idle"><path d="M314.08,26.29 C314.08,42.87 314.08,72.03 314.08,95.85 " fill="none" id="*start*-to-Idle" style="stroke:#181818;stroke-width:1.0;"/><polygon fill="#181818" points="314.08,101.85,318.08,92.85,314.08,96.85,310.08,92.85,314.08,101.85" style="stroke:#181818;stroke-width:1.0;"/></g><!--link Idle to DownloadScheduled--><g id="link_Idle_DownloadScheduled"><path d="M288.77,130.09 C214.75,136.67 6,158.91 40.08,198 C80.26,244.09 248.0801,252.1512 350.2701,252.8112 " fill="none" id="Idle-to-DownloadScheduled" style="stroke:#181818;stroke-width:1.0;"/><polygon fill="#181818" points="356.27,252.85,347.296,248.792,351.2701,252.8177,347.2444,256.7918,356.27,252.85" style="stroke:#181818;stroke-width:1.0;"/><text fill="#000000" font-family="NanumGothic" font-size="13" lengthAdjust="spacing" textLength="168" x="41.08" y="194.96">Retrieve date/time in future</text></g><!--link Idle to Downloading--><g id="link_Idle_Downloading"><path d="M339.45,127 C440.91,127 536.38,127 637.84,127 " fill="none" id="Idle-to-Downloading" style="stroke:#181818;stroke-width:1.0;"/><polygon fill="#181818" points="643.84,127,634.84,123,638.84,127,634.84,131,643.84,127" style="stroke:#181818;stroke-width:1.0;"/></g><!--link DownloadScheduled to Downloading--><!--link Downloading to DownloadScheduled--><g id="link_Downloading_DownloadScheduled"><path d="M643.8,130.44 C530.86,136.25 272.13,152.64 246.08,182 C209.73,222.97 284.0238,239.4139 350.2438,246.4739 " fill="none" id="Downloading-to-DownloadScheduled" style="stroke:#181818;stroke-width:1.0;"/><polygon fill="#181818" points="356.21,247.11,347.6848,242.1784,351.2382,246.5799,346.8367,250.1333,356.21,247.11" style="stroke:#181818;stroke-width:1.0;"/><text fill="#000000" font-family="NanumGothic" font-size="13" lengthAdjust="spacing" textLength="401" x="247.08" y="194.96">Failed to download firmware, waiting for retryInterval to try again</text></g><!--link DownloadScheduled to Downloading--><g id="link_DownloadScheduled_Downloading"><path d="M508.05,250.4 C560.1,246.24 627.45,233.75 674.58,198 C689.65,186.56 698.3845,173.3695 701.8845,158.0395 " fill="none" id="DownloadScheduled-to-Downloading-1" style="stroke:#181818;stroke-width:1.0;"/><polygon fill="#181818" points="703.22,152.19,697.3171,160.0739,702.1071,157.0646,705.1164,161.8546,703.22,152.19" style="stroke:#181818;stroke-width:1.0;"/></g><!--link Downloading to DownloadPaused--><g id="link_Downloading_DownloadPaused"><path d="M747.89,101.56 C777.96,88.23 817,73.28 853.58,66.5 C916.07,54.91 933.94,55.77 996.58,66.5 C1036.1,73.27 1073.0618,85.9501 1105.8718,99.2901 " fill="none" id="Downloading-to-DownloadPaused" style="stroke:#181818;stroke-width:1.0;"/><polygon fill="#181818" points="1111.43,101.55,1104.5993,94.4548,1106.7982,99.6668,1101.5862,101.8657,1111.43,101.55" style="stroke:#181818;stroke-width:1.0;"/><text fill="#000000" font-family="NanumGothic" font-size="13" lengthAdjust="spacing" textLength="141" x="854.58" y="68.96">Temporarily suspended</text></g><!--link DownloadPaused to Downloading--><g id="link_DownloadPaused_Downloading"><path d="M1137.71,101.61 C1118.82,87.53 1093.31,71.4 1067.58,64 C956.14,31.96 826.4972,72.2524 753.8472,101.4524 " fill="none" id="DownloadPaused-to-Downloading" style="stroke:#181818;stroke-width:1.0;"/><polygon fill="#181818" points="748.28,103.69,758.1225,104.0451,752.9193,101.8253,755.139,96.6222,748.28,103.69" style="stroke:#181818;stroke-width:1.0;"/></g><!--link Downloading to DownloadFailed--><g id="link_Downloading_DownloadFailed"><path d="M748.49,127 C802.93,127 882.06,127 939.63,127 " fill="none" id="Downloading-to-DownloadFailed" style="stroke:#181818;stroke-width:1.0;"/><polygon fill="#181818" points="945.63,127,936.63,123,940.63,127,936.63,131,945.63,127" style="stroke:#181818;stroke-width:1.0;"/><text fill="#000000" font-family="NanumGothic" font-size="13" lengthAdjust="spacing" textLength="162" x="766.08" y="120.96">Firmware not downloaded</text></g><!--link Downloading to Downloaded--><g id="link_Downloading_Downloaded"><path d="M712.99,152.46 C719.16,161.63 726.09,172.19 732.08,182 C741.22,196.96 747.9483,208.8764 755.3283,222.4764 " fill="none" id="Downloading-to-Downloaded" style="stroke:#181818;stroke-width:1.0;"/><polygon fill="#181818" points="758.19,227.75,757.4132,217.9318,755.8053,223.3553,750.3817,221.7474,758.19,227.75" style="stroke:#181818;stroke-width:1.0;"/><text fill="#000000" font-family="NanumGothic" font-size="13" lengthAdjust="spacing" textLength="140" x="742.04" y="194.96">Downloading firmware</text></g><!--link Downloaded to InvalidSignature--><g id="link_Downloaded_InvalidSignature"><path d="M821.95,253 C875.4,253 953.45,253 1010.34,253 " fill="none" id="Downloaded-to-InvalidSignature" style="stroke:#181818;stroke-width:1.0;"/><polygon fill="#181818" points="1016.34,253,1007.34,249,1011.34,253,1007.34,257,1016.34,253" style="stroke:#181818;stroke-width:1.0;"/><text fill="#000000" font-family="NanumGothic" font-size="13" lengthAdjust="spacing" textLength="158" x="840.08" y="246.96">Invalid firmware signature</text></g><!--link Downloaded to SignatureVerified--><g id="link_Downloaded_SignatureVerified"><path d="M771.08,278.5 C771.08,300.24 771.08,325.83 771.08,347.55 " fill="none" id="Downloaded-to-SignatureVerified" style="stroke:#181818;stroke-width:1.0;"/><polygon fill="#181818" points="771.08,353.55,775.08,344.55,771.08,348.55,767.08,344.55,771.08,353.55" style="stroke:#181818;stroke-width:1.0;"/><text fill="#000000" font-family="NanumGothic" font-size="13" lengthAdjust="spacing" textLength="150" x="772.08" y="320.96">Valid firmware signature</text></g><!--link SignatureVerified to InstallScheduled--><g id="link_SignatureVerified_InstallScheduled"><path d="M836.42,379 C901.35,379 994.16,379 1057.67,379 " fill="none" id="SignatureVerified-to-InstallScheduled" style="stroke:#181818;stroke-width:1.0;"/><polygon fill="#181818" points="1063.67,379,1054.67,375,1058.67,379,1054.67,383,1063.67,379" style="stroke:#181818;stroke-width:1.0;"/><text fill="#000000" font-family="NanumGothic" font-size="13" lengthAdjust="spacing" textLength="191" x="854.58" y="372.96">Installation date/time in futrure</text></g><!--link InstallScheduled to InstallRebooting_1--><g id="link_InstallScheduled_InstallRebooting_1"><path d="M1186.26,379 C1197.64,379 1203.02,379 1214.4,379 " fill="none" id="InstallScheduled-to-InstallRebooting_1" style="stroke:#181818;stroke-width:1.0;"/><polygon fill="#181818" points="1220.4,379,1211.4,375,1215.4,379,1211.4,383,1220.4,379" style="stroke:#181818;stroke-width:1.0;"/></g><!--link SignatureVerified to InstallRebooting_1--><g id="link_SignatureVerified_InstallRebooting_1"><path d="M836.53,353.74 C916.3,326.46 1054.85,290.44 1171.08,318.5 C1199.5,325.36 1223.6102,337.2212 1245.8902,350.5412 " fill="none" id="SignatureVerified-to-InstallRebooting_1" style="stroke:#181818;stroke-width:1.0;"/><polygon fill="#181818" points="1251.04,353.62,1245.3678,345.5686,1246.7485,351.0543,1241.2627,352.435,1251.04,353.62" style="stroke:#181818;stroke-width:1.0;"/><text fill="#000000" font-family="NanumGothic" font-size="13" lengthAdjust="spacing" textLength="192" x="978.08" y="320.96">Installation requires reboot first</text></g><!--link InstallScheduled to Installing--><g id="link_InstallScheduled_Installing"><path d="M1125.08,404.5 C1125.08,426.24 1125.08,451.83 1125.08,473.55 " fill="none" id="InstallScheduled-to-Installing" style="stroke:#181818;stroke-width:1.0;"/><polygon fill="#181818" points="1125.08,479.55,1129.08,470.55,1125.08,474.55,1121.08,470.55,1125.08,479.55" style="stroke:#181818;stroke-width:1.0;"/></g><!--link SignatureVerified to Installing--><g id="link_SignatureVerified_Installing"><path d="M836.42,402.89 C910.14,428.71 1021.8674,467.8463 1081.6974,488.8063 " fill="none" id="SignatureVerified-to-Installing" style="stroke:#181818;stroke-width:1.0;"/><polygon fill="#181818" points="1087.36,490.79,1080.1886,484.0393,1082.6412,489.1369,1077.5436,491.5894,1087.36,490.79" style="stroke:#181818;stroke-width:1.0;"/><text fill="#000000" font-family="NanumGothic" font-size="13" lengthAdjust="spacing" textLength="112" x="970.28" y="446.96">Install immediately</text></g><!--link InstallRebooting_1 to Installing--><g id="link_InstallRebooting_1_Installing"><path d="M1256.68,404.5 C1227.93,426.24 1190.9368,454.2124 1162.1968,475.9324 " fill="none" id="InstallRebooting_1-to-Installing" style="stroke:#181818;stroke-width:1.0;"/><polygon fill="#181818" points="1157.41,479.55,1167.0019,477.3148,1161.399,476.5354,1162.1785,470.9325,1157.41,479.55" style="stroke:#181818;stroke-width:1.0;"/></g><!--link Installing to InstallVerificationFailed--><g id="link_Installing_InstallVerificationFailed"><path d="M1162.9,505 C1219.92,505 1323.31,505 1399.38,505 " fill="none" id="Installing-to-InstallVerificationFailed" style="stroke:#181818;stroke-width:1.0;"/><polygon fill="#181818" points="1405.38,505,1396.38,501,1400.38,505,1396.38,509,1405.38,505" style="stroke:#181818;stroke-width:1.0;"/><text fill="#000000" font-family="NanumGothic" font-size="13" lengthAdjust="spacing" textLength="206" x="1181.08" y="498.96">Verification of the firmware failed</text></g><!--link Installing to InstallationFailed--><g id="link_Installing_InstallationFailed"><path d="M1162.91,490.4 C1227.82,467.19 1364.62,426.26 1480.58,444.5 C1523.49,451.25 1564.3453,464.1013 1600.2953,477.4513 " fill="none" id="Installing-to-InstallationFailed" style="stroke:#181818;stroke-width:1.0;"/><polygon fill="#181818" points="1605.92,479.54,1598.8754,472.6571,1601.2328,477.7994,1596.0905,480.1567,1605.92,479.54" style="stroke:#181818;stroke-width:1.0;"/><text fill="#000000" font-family="NanumGothic" font-size="13" lengthAdjust="spacing" textLength="103" x="1376.58" y="446.96">Installation failed</text></g><!--link Installing to InstallRebooting_2--><g id="link_Installing_InstallRebooting_2"><path d="M1162.9,525.79 C1204.32,547.46 1265.4941,579.4576 1310.1241,602.8176 " fill="none" id="Installing-to-InstallRebooting_2" style="stroke:#181818;stroke-width:1.0;"/><polygon fill="#181818" points="1315.44,605.6,1309.3212,597.8825,1311.0101,603.2813,1305.6113,604.9703,1315.44,605.6" style="stroke:#181818;stroke-width:1.0;"/></g><!--reverse link InstallationFailed to InstallRebooting_2--><g id="link_InstallationFailed_InstallRebooting_2"><path d="M1602.0692,532.7533 C1548.4192,554.4933 1476.02,583.83 1422.41,605.55 " fill="none" id="InstallationFailed-backto-InstallRebooting_2" style="stroke:#181818;stroke-width:1.0;"/><polygon fill="#181818" points="1607.63,530.5,1597.7866,530.1728,1602.996,532.3778,1600.791,537.5872,1607.63,530.5" style="stroke:#181818;stroke-width:1.0;"/><text fill="#000000" font-family="NanumGothic" font-size="13" lengthAdjust="spacing" textLength="103" x="1534.4" y="572.96">Installation failed</text></g><!--link Installing to Installed--><g id="link_Installing_Installed"><path d="M1127.91,530.43 C1133.47,578.34 1145.059,678.1799 1150.589,725.8799 " fill="none" id="Installing-to-Installed" style="stroke:#181818;stroke-width:1.0;"/><polygon fill="#181818" points="1151.28,731.84,1154.2169,722.4392,1150.7042,726.8733,1146.2702,723.3605,1151.28,731.84" style="stroke:#181818;stroke-width:1.0;"/><text fill="#000000" font-family="NanumGothic" font-size="13" lengthAdjust="spacing" textLength="131" x="1143.46" y="635.96">Installation successful</text></g><!--link InstallRebooting_2 to Installed--><g id="link_InstallRebooting_2_Installed"><path d="M1320.99,656.5 C1282.98,679.15 1232.1834,709.4372 1195.7234,731.1772 " fill="none" id="InstallRebooting_2-to-Installed" style="stroke:#181818;stroke-width:1.0;"/><polygon fill="#181818" points="1190.57,734.25,1200.3487,733.0764,1194.8645,731.6893,1196.2516,726.2051,1190.57,734.25" style="stroke:#181818;stroke-width:1.0;"/><text fill="#000000" font-family="NanumGothic" font-size="13" lengthAdjust="spacing" textLength="131" x="1271.53" y="698.96">Installation successful</text></g><!--SRC=[fL8xRy8m4DxzAwvhrRGg8qEdgX9R1HKBGfKRN-0anqxz0ENVruOyYK58NIBx_BtkBW-aSka5WdMrnEVAbvAnpUCMikmD5a8YO_4BuVQkZqfgBbRv7eMNAEQmH6S83mY2EtnnL2AGWi8xRn94KZl69YgGYL3Qx4a8LDjhy70vHKg4-E0KPPm6qJn2GQOySeDFSEJa8hVG1an8Mo-KGtFWCkB35VYEaqgbkfcaV_latiOKNrXMsd13iWRhROLAe61Z5DofUUueTDQq0KgxhhcWUdKgaJHyQ-V0Ua3qMQWm018hsYaULpLlAnq1RFl6Hjn0xbXhD5HGj5nVuqwmPtVhk9I33JOLxaYhoQzaej0bPw2pn1-juuw_Ns_w3N0NZWP_FHcquH0XiH7hMCAp5ulRIvYD09qBK5cYeD2NhDaqpQKkwy-3-6UJ_9Iu_J-6DT05k3tsMoXEeBJOI6KqYuOregLcE9isCeFCL__tcC2jptEqjl0owNaVa_q1]--></g></svg>