<?xml version="1.0" encoding="us-ascii" standalone="no"?><svg xmlns="http://www.w3.org/2000/svg" xmlns:xlink="http://www.w3.org/1999/xlink" contentStyleType="text/css" height="602px" preserveAspectRatio="none" style="width:909px;height:602px;background:#FFFFFF;" version="1.1" viewBox="0 0 909 602" width="909px" zoomAndPan="magnify"><defs/><g><rect fill="#FFFFFF" height="519.15" style="stroke:#181818;stroke-width:1.0;" width="10" x="72.5" y="67.05"/><rect fill="#FFFFFF" height="110.8" style="stroke:#181818;stroke-width:1.0;" width="10" x="181.5" y="67.05"/><rect fill="#FFFFFF" height="81.85" style="stroke:#181818;stroke-width:1.0;" width="10" x="181.5" y="343.6"/><rect fill="#FFFFFF" height="28.95" style="stroke:#181818;stroke-width:1.0;" width="10" x="181.5" y="490.35"/><rect fill="#FFFFFF" height="28.95" style="stroke:#181818;stroke-width:1.0;" width="10" x="181.5" y="548.25"/><rect fill="#FFFFFF" height="276.55" style="stroke:#181818;stroke-width:1.0;" width="10" x="700.5" y="96"/><rect fill="#FFFFFF" height="57.9" style="stroke:#181818;stroke-width:1.0;" width="10" x="700.5" y="461.4"/><rect fill="#FFFFFF" height="28.95" style="stroke:#181818;stroke-width:1.0;" width="10" x="700.5" y="548.25"/><rect fill="none" height="45.9" style="stroke:#000000;stroke-width:1.5;" width="213" x="10" y="139.95"/><rect fill="none" height="58.9" style="stroke:#000000;stroke-width:1.5;" width="268" x="635.5" y="241.8"/><rect fill="none" height="45.9" style="stroke:#000000;stroke-width:1.5;" width="213" x="10" y="387.55"/><line style="stroke:#181818;stroke-width:0.5;stroke-dasharray:5.0,5.0;" x1="77" x2="77" y1="36.1" y2="595.2"/><line style="stroke:#181818;stroke-width:0.5;stroke-dasharray:5.0,5.0;" x1="186" x2="186" y1="36.1" y2="595.2"/><line style="stroke:#181818;stroke-width:0.5;stroke-dasharray:5.0,5.0;" x1="705.5" x2="705.5" y1="36.1" y2="595.2"/><rect fill="#7D5393" height="30.1" rx="2.5" ry="2.5" style="stroke:#181818;stroke-width:0.5;" width="115" x="20" y="5"/><text fill="#FFFFFF" font-family="NanumGothic" font-size="14" lengthAdjust="spacing" textLength="101" x="27" y="24.88">External Trigger</text><rect fill="#7D5393" height="30.1" rx="2.5" ry="2.5" style="stroke:#181818;stroke-width:0.5;" width="53" x="160" y="5"/><text fill="#FFFFFF" font-family="NanumGothic" font-size="14" lengthAdjust="spacing" textLength="39" x="167" y="24.88">CSMS</text><rect fill="#7D5393" height="30.1" rx="2.5" ry="2.5" style="stroke:#181818;stroke-width:0.5;" width="120" x="645.5" y="5"/><text fill="#FFFFFF" font-family="NanumGothic" font-size="14" lengthAdjust="spacing" textLength="106" x="652.5" y="24.88">Charging Station</text><rect fill="#FFFFFF" height="519.15" style="stroke:#181818;stroke-width:1.0;" width="10" x="72.5" y="67.05"/><rect fill="#FFFFFF" height="110.8" style="stroke:#181818;stroke-width:1.0;" width="10" x="181.5" y="67.05"/><rect fill="#FFFFFF" height="81.85" style="stroke:#181818;stroke-width:1.0;" width="10" x="181.5" y="343.6"/><rect fill="#FFFFFF" height="28.95" style="stroke:#181818;stroke-width:1.0;" width="10" x="181.5" y="490.35"/><rect fill="#FFFFFF" height="28.95" style="stroke:#181818;stroke-width:1.0;" width="10" x="181.5" y="548.25"/><rect fill="#FFFFFF" height="276.55" style="stroke:#181818;stroke-width:1.0;" width="10" x="700.5" y="96"/><rect fill="#FFFFFF" height="57.9" style="stroke:#181818;stroke-width:1.0;" width="10" x="700.5" y="461.4"/><rect fill="#FFFFFF" height="28.95" style="stroke:#181818;stroke-width:1.0;" width="10" x="700.5" y="548.25"/><polygon fill="#181818" points="169.5,63.05,179.5,67.05,169.5,71.05,173.5,67.05" style="stroke:#181818;stroke-width:1.0;"/><line style="stroke:#181818;stroke-width:1.0;" x1="82.5" x2="175.5" y1="67.05" y2="67.05"/><text fill="#000000" font-family="NanumGothic" font-size="13" lengthAdjust="spacing" textLength="85" x="89.5" y="62.06">remote stop()</text><polygon fill="#181818" points="688.5,92,698.5,96,688.5,100,692.5,96" style="stroke:#181818;stroke-width:1.0;"/><line style="stroke:#181818;stroke-width:1.0;" x1="191.5" x2="694.5" y1="96" y2="96"/><text fill="#000000" font-family="NanumGothic" font-size="13" lengthAdjust="spacing" textLength="285" x="198.5" y="91.01">RequestStopTransactionRequest(transactionId)</text><polygon fill="#181818" points="202.5,120.95,192.5,124.95,202.5,128.95,198.5,124.95" style="stroke:#181818;stroke-width:1.0;"/><line style="stroke:#181818;stroke-width:1.0;stroke-dasharray:2.0,2.0;" x1="196.5" x2="699.5" y1="124.95" y2="124.95"/><text fill="#000000" font-family="NanumGothic" font-size="13" lengthAdjust="spacing" textLength="271" x="208.5" y="119.96">RequestStopTransactionResponse(Accepted)</text><path d="M10,139.95 L76,139.95 L76,146.9 L66,156.9 L10,156.9 L10,139.95 " fill="#EEEEEE" style="stroke:#000000;stroke-width:1.5;"/><rect fill="none" height="45.9" style="stroke:#000000;stroke-width:1.5;" width="213" x="10" y="139.95"/><text fill="#000000" font-family="NanumGothic" font-size="13" font-weight="bold" lengthAdjust="spacing" textLength="21" x="25" y="152.91">opt</text><polygon fill="#181818" points="93.5,173.85,83.5,177.85,93.5,181.85,89.5,177.85" style="stroke:#181818;stroke-width:1.0;"/><line style="stroke:#181818;stroke-width:1.0;" x1="87.5" x2="185.5" y1="177.85" y2="177.85"/><text fill="#000000" font-family="NanumGothic" font-size="13" lengthAdjust="spacing" textLength="69" x="99.5" y="172.86">notification</text><line style="stroke:#181818;stroke-width:1.0;" x1="710.5" x2="752.5" y1="213.8" y2="213.8"/><line style="stroke:#181818;stroke-width:1.0;" x1="752.5" x2="752.5" y1="213.8" y2="226.8"/><line style="stroke:#181818;stroke-width:1.0;" x1="711.5" x2="752.5" y1="226.8" y2="226.8"/><polygon fill="#181818" points="721.5,222.8,711.5,226.8,721.5,230.8,717.5,226.8" style="stroke:#181818;stroke-width:1.0;"/><text fill="#000000" font-family="NanumGothic" font-size="13" lengthAdjust="spacing" textLength="106" x="717.5" y="208.81">stop energy offer</text><path d="M635.5,241.8 L701.5,241.8 L701.5,248.75 L691.5,258.75 L635.5,258.75 L635.5,241.8 " fill="#EEEEEE" style="stroke:#000000;stroke-width:1.5;"/><rect fill="none" height="58.9" style="stroke:#000000;stroke-width:1.5;" width="268" x="635.5" y="241.8"/><text fill="#000000" font-family="NanumGothic" font-size="13" font-weight="bold" lengthAdjust="spacing" textLength="21" x="650.5" y="254.76">opt</text><text fill="#000000" font-family="NanumGothic" font-size="11" font-weight="bold" lengthAdjust="spacing" textLength="182" x="716.5" y="253.92">[if cable not permanently attached]</text><line style="stroke:#181818;stroke-width:1.0;" x1="710.5" x2="752.5" y1="279.7" y2="279.7"/><line style="stroke:#181818;stroke-width:1.0;" x1="752.5" x2="752.5" y1="279.7" y2="292.7"/><line style="stroke:#181818;stroke-width:1.0;" x1="711.5" x2="752.5" y1="292.7" y2="292.7"/><polygon fill="#181818" points="721.5,288.7,711.5,292.7,721.5,296.7,717.5,292.7" style="stroke:#181818;stroke-width:1.0;"/><text fill="#000000" font-family="NanumGothic" font-size="13" lengthAdjust="spacing" textLength="106" x="717.5" y="274.71">Unlock connector</text><polygon fill="#181818" points="202.5,339.6,192.5,343.6,202.5,347.6,198.5,343.6" style="stroke:#181818;stroke-width:1.0;"/><line style="stroke:#181818;stroke-width:1.0;" x1="196.5" x2="699.5" y1="343.6" y2="343.6"/><text fill="#000000" font-family="NanumGothic" font-size="13" lengthAdjust="spacing" textLength="482" x="208.5" y="323.66">TransactionEventRequest(eventType = Updated, chargingState = EVConnected,</text><text fill="#000000" font-family="NanumGothic" font-size="13" lengthAdjust="spacing" textLength="202" x="208.5" y="338.61">triggerReason = RemoteStop, ...)</text><polygon fill="#181818" points="693.5,368.55,703.5,372.55,693.5,376.55,697.5,372.55" style="stroke:#181818;stroke-width:1.0;"/><line style="stroke:#181818;stroke-width:1.0;stroke-dasharray:2.0,2.0;" x1="191.5" x2="699.5" y1="372.55" y2="372.55"/><text fill="#000000" font-family="NanumGothic" font-size="13" lengthAdjust="spacing" textLength="183" x="198.5" y="367.56">TransactionEventResponse(...)</text><path d="M10,387.55 L76,387.55 L76,394.5 L66,404.5 L10,404.5 L10,387.55 " fill="#EEEEEE" style="stroke:#000000;stroke-width:1.5;"/><rect fill="none" height="45.9" style="stroke:#000000;stroke-width:1.5;" width="213" x="10" y="387.55"/><text fill="#000000" font-family="NanumGothic" font-size="13" font-weight="bold" lengthAdjust="spacing" textLength="21" x="25" y="400.51">opt</text><polygon fill="#181818" points="93.5,421.45,83.5,425.45,93.5,429.45,89.5,425.45" style="stroke:#181818;stroke-width:1.0;"/><line style="stroke:#181818;stroke-width:1.0;" x1="87.5" x2="185.5" y1="425.45" y2="425.45"/><text fill="#000000" font-family="NanumGothic" font-size="13" lengthAdjust="spacing" textLength="69" x="99.5" y="420.46">notification</text><polygon fill="#181818" points="688.5,457.4,698.5,461.4,688.5,465.4,692.5,461.4" style="stroke:#181818;stroke-width:1.0;"/><line style="stroke:#181818;stroke-width:1.0;" x1="82.5" x2="694.5" y1="461.4" y2="461.4"/><text fill="#000000" font-family="NanumGothic" font-size="13" lengthAdjust="spacing" textLength="79" x="89.5" y="456.41">Unplug cable</text><polygon fill="#181818" points="202.5,486.35,192.5,490.35,202.5,494.35,198.5,490.35" style="stroke:#181818;stroke-width:1.0;"/><line style="stroke:#181818;stroke-width:1.0;" x1="196.5" x2="699.5" y1="490.35" y2="490.35"/><text fill="#000000" font-family="NanumGothic" font-size="13" lengthAdjust="spacing" textLength="220" x="208.5" y="485.36">StatusNotificationRequest(Available)</text><polygon fill="#181818" points="693.5,515.3,703.5,519.3,693.5,523.3,697.5,519.3" style="stroke:#181818;stroke-width:1.0;"/><line style="stroke:#181818;stroke-width:1.0;stroke-dasharray:2.0,2.0;" x1="186.5" x2="699.5" y1="519.3" y2="519.3"/><text fill="#000000" font-family="NanumGothic" font-size="13" lengthAdjust="spacing" textLength="176" x="193.5" y="514.31">StatusNotificationResponse()</text><polygon fill="#181818" points="202.5,544.25,192.5,548.25,202.5,552.25,198.5,548.25" style="stroke:#181818;stroke-width:1.0;"/><line style="stroke:#181818;stroke-width:1.0;" x1="196.5" x2="699.5" y1="548.25" y2="548.25"/><text fill="#000000" font-family="NanumGothic" font-size="13" lengthAdjust="spacing" textLength="464" x="208.5" y="543.26">TransactionEventRequest(eventType = Ended, stoppedReason = Remote, ...)</text><polygon fill="#181818" points="693.5,573.2,703.5,577.2,693.5,581.2,697.5,577.2" style="stroke:#181818;stroke-width:1.0;"/><line style="stroke:#181818;stroke-width:1.0;stroke-dasharray:2.0,2.0;" x1="186.5" x2="699.5" y1="577.2" y2="577.2"/><text fill="#000000" font-family="NanumGothic" font-size="13" lengthAdjust="spacing" textLength="183" x="193.5" y="572.21">TransactionEventResponse(...)</text><!--SRC=[jPBDJiCm48JlUOg5KolHFa0ba53L0mSuj8KJ5sDlKmjtRPnDHT-UR7uWTLC44bogPftCp7wU2qlQbGQXu8F3QIXtBik2Ycor3OeOBXVlZ96KWtMqUOxn4bG1tR2T7NynNzslwhVaJtAqLJ6tbCEA5LjFpMlji9rbMQ8EavjQQWOHTvubgm-ZSQOqsxsgdjCqdmTrW4n-QurZdnaiyQt4WbULt3egAkGxJ-rqn5-ZEzDpEucR363ocVUSGH4y5JYwrHe3OoMU-S0PG9SqMMW6vDbkh6uC0GmUhuXa1c8CR2pa00bZVW2_sLIin1di1hHwSIW-433k526nEu1YLdgBHhBzGFwHdDUle3qHQlRnVB0Q3q2Foc9VMNRiKHxMXu1m3O_1L8kQAz0z7JbOFCqR8pc4P-A6rX9LKRbSL_IbBGB_2gRJwNYu5qDxdCPgRwoMwTDFk_07zpZK_bFGmPLvSsc_QMP7NWPbyT1Bqv6_tIlhHFONk8RKMc37j4JdEtfdy_wa9mioKWIfU42JjE2a0Odr_rSZvV01]--></g></svg>