<?xml version="1.0" encoding="us-ascii" standalone="no"?><svg xmlns="http://www.w3.org/2000/svg" xmlns:xlink="http://www.w3.org/1999/xlink" contentStyleType="text/css" height="484px" preserveAspectRatio="none" style="width:711px;height:484px;background:#FFFFFF;" version="1.1" viewBox="0 0 711 484" width="711px" zoomAndPan="magnify"><defs/><g><rect fill="#FFFFFF" height="268.55" style="stroke:#181818;stroke-width:1.0;" width="10" x="15.5" y="190.85"/><rect fill="#FFFFFF" height="28.95" style="stroke:#181818;stroke-width:1.0;" width="10" x="430.5" y="125.95"/><rect fill="#FFFFFF" height="28.95" style="stroke:#181818;stroke-width:1.0;" width="10" x="430.5" y="190.85"/><rect fill="#FFFFFF" height="28.95" style="stroke:#181818;stroke-width:1.0;" width="10" x="430.5" y="248.75"/><rect fill="#FFFFFF" height="152.75" style="stroke:#181818;stroke-width:1.0;" width="10" x="430.5" y="306.65"/><rect fill="#FFFFFF" height="28.95" style="stroke:#181818;stroke-width:1.0;" width="10" x="663.5" y="125.95"/><rect fill="#FFFFFF" height="28.95" style="stroke:#181818;stroke-width:1.0;" width="10" x="663.5" y="394.5"/><rect fill="none" height="109.8" style="stroke:#000000;stroke-width:1.5;" width="468" x="237" y="53.1"/><rect fill="none" height="109.8" style="stroke:#000000;stroke-width:1.5;" width="505" x="200" y="321.65"/><line style="stroke:#181818;stroke-width:0.5;stroke-dasharray:5.0,5.0;" x1="20" x2="20" y1="36.1" y2="477.4"/><line style="stroke:#181818;stroke-width:0.5;stroke-dasharray:5.0,5.0;" x1="435.5" x2="435.5" y1="36.1" y2="477.4"/><line style="stroke:#181818;stroke-width:0.5;stroke-dasharray:5.0,5.0;" x1="668" x2="668" y1="36.1" y2="477.4"/><rect fill="#7D5393" height="30.1" rx="2.5" ry="2.5" style="stroke:#181818;stroke-width:0.5;" width="31" x="5" y="5"/><text fill="#FFFFFF" font-family="NanumGothic" font-size="14" lengthAdjust="spacing" textLength="17" x="12" y="24.88">EV</text><rect fill="#7D5393" height="30.1" rx="2.5" ry="2.5" style="stroke:#181818;stroke-width:0.5;" width="120" x="375.5" y="5"/><text fill="#FFFFFF" font-family="NanumGothic" font-size="14" lengthAdjust="spacing" textLength="106" x="382.5" y="24.88">Charging Station</text><rect fill="#7D5393" height="30.1" rx="2.5" ry="2.5" style="stroke:#181818;stroke-width:0.5;" width="53" x="642" y="5"/><text fill="#FFFFFF" font-family="NanumGothic" font-size="14" lengthAdjust="spacing" textLength="39" x="649" y="24.88">CSMS</text><rect fill="#FFFFFF" height="268.55" style="stroke:#181818;stroke-width:1.0;" width="10" x="15.5" y="190.85"/><rect fill="#FFFFFF" height="28.95" style="stroke:#181818;stroke-width:1.0;" width="10" x="430.5" y="125.95"/><rect fill="#FFFFFF" height="28.95" style="stroke:#181818;stroke-width:1.0;" width="10" x="430.5" y="190.85"/><rect fill="#FFFFFF" height="28.95" style="stroke:#181818;stroke-width:1.0;" width="10" x="430.5" y="248.75"/><rect fill="#FFFFFF" height="152.75" style="stroke:#181818;stroke-width:1.0;" width="10" x="430.5" y="306.65"/><rect fill="#FFFFFF" height="28.95" style="stroke:#181818;stroke-width:1.0;" width="10" x="663.5" y="125.95"/><rect fill="#FFFFFF" height="28.95" style="stroke:#181818;stroke-width:1.0;" width="10" x="663.5" y="394.5"/><path d="M237,53.1 L303,53.1 L303,60.05 L293,70.05 L237,70.05 L237,53.1 " fill="#EEEEEE" style="stroke:#000000;stroke-width:1.5;"/><rect fill="none" height="109.8" style="stroke:#000000;stroke-width:1.5;" width="468" x="237" y="53.1"/><text fill="#000000" font-family="NanumGothic" font-size="13" font-weight="bold" lengthAdjust="spacing" textLength="21" x="252" y="66.06">opt</text><text fill="#000000" font-family="NanumGothic" font-size="11" font-weight="bold" lengthAdjust="spacing" textLength="70" x="318" y="65.22">[Identify first]</text><path d="M247,75.05 L247,99.05 L624,99.05 L624,85.05 L614,75.05 L247,75.05 " fill="#7D5393" style="stroke:#000000;stroke-width:0.5;"/><path d="M614,75.05 L614,85.05 L624,85.05 L614,75.05 " fill="#7D5393" style="stroke:#000000;stroke-width:0.5;"/><text fill="#FFFFFF" font-family="NanumGothic" font-size="13" lengthAdjust="spacing" textLength="356" x="253" y="92.01">User might identify prior to connecting the EV to the EVSE</text><polygon fill="#181818" points="651.5,121.95,661.5,125.95,651.5,129.95,655.5,125.95" style="stroke:#181818;stroke-width:1.0;"/><line style="stroke:#181818;stroke-width:1.0;" x1="440.5" x2="657.5" y1="125.95" y2="125.95"/><text fill="#000000" font-family="NanumGothic" font-size="13" lengthAdjust="spacing" textLength="166" x="447.5" y="120.96">AuthorizeRequest(idToken)</text><polygon fill="#181818" points="446.5,150.9,436.5,154.9,446.5,158.9,442.5,154.9" style="stroke:#181818;stroke-width:1.0;"/><line style="stroke:#181818;stroke-width:1.0;stroke-dasharray:2.0,2.0;" x1="440.5" x2="667.5" y1="154.9" y2="154.9"/><text fill="#000000" font-family="NanumGothic" font-size="13" lengthAdjust="spacing" textLength="199" x="452.5" y="149.91">AuthorizeResponse(idTokenInfo)</text><polygon fill="#181818" points="418.5,186.85,428.5,190.85,418.5,194.85,422.5,190.85" style="stroke:#181818;stroke-width:1.0;"/><line style="stroke:#181818;stroke-width:1.0;" x1="25.5" x2="424.5" y1="190.85" y2="190.85"/><text fill="#000000" font-family="NanumGothic" font-size="13" lengthAdjust="spacing" textLength="130" x="32.5" y="185.86">ServiceDiscoveryReq()</text><polygon fill="#181818" points="36.5,215.8,26.5,219.8,36.5,223.8,32.5,219.8" style="stroke:#181818;stroke-width:1.0;"/><line style="stroke:#181818;stroke-width:1.0;stroke-dasharray:2.0,2.0;" x1="30.5" x2="434.5" y1="219.8" y2="219.8"/><text fill="#000000" font-family="NanumGothic" font-size="13" lengthAdjust="spacing" textLength="352" x="42.5" y="214.81">ServiceDiscoveryRes(PaymentServiceList: ExternalPayment)</text><polygon fill="#181818" points="418.5,244.75,428.5,248.75,418.5,252.75,422.5,248.75" style="stroke:#181818;stroke-width:1.0;"/><line style="stroke:#181818;stroke-width:1.0;" x1="25.5" x2="424.5" y1="248.75" y2="248.75"/><text fill="#000000" font-family="NanumGothic" font-size="13" lengthAdjust="spacing" textLength="386" x="32.5" y="243.76">PaymentServiceSelectionReq(paymentOption: ExternalPayment)</text><polygon fill="#181818" points="36.5,273.7,26.5,277.7,36.5,281.7,32.5,277.7" style="stroke:#181818;stroke-width:1.0;"/><line style="stroke:#181818;stroke-width:1.0;stroke-dasharray:2.0,2.0;" x1="30.5" x2="434.5" y1="277.7" y2="277.7"/><text fill="#000000" font-family="NanumGothic" font-size="13" lengthAdjust="spacing" textLength="179" x="42.5" y="272.71">PaymentServiceSelectionRes()</text><polygon fill="#181818" points="418.5,302.65,428.5,306.65,418.5,310.65,422.5,306.65" style="stroke:#181818;stroke-width:1.0;"/><line style="stroke:#181818;stroke-width:1.0;" x1="25.5" x2="424.5" y1="306.65" y2="306.65"/><text fill="#000000" font-family="NanumGothic" font-size="13" lengthAdjust="spacing" textLength="116" x="32.5" y="301.66">AuthorizationReq()</text><path d="M200,321.65 L266,321.65 L266,328.6 L256,338.6 L200,338.6 L200,321.65 " fill="#EEEEEE" style="stroke:#000000;stroke-width:1.5;"/><rect fill="none" height="109.8" style="stroke:#000000;stroke-width:1.5;" width="505" x="200" y="321.65"/><text fill="#000000" font-family="NanumGothic" font-size="13" font-weight="bold" lengthAdjust="spacing" textLength="21" x="215" y="334.61">opt</text><text fill="#000000" font-family="NanumGothic" font-size="11" font-weight="bold" lengthAdjust="spacing" textLength="111" x="281" y="333.77">[Identify after plugin]</text><path d="M210,343.6 L210,367.6 L661,367.6 L661,353.6 L651,343.6 L210,343.6 " fill="#7D5393" style="stroke:#000000;stroke-width:0.5;"/><path d="M651,343.6 L651,353.6 L661,353.6 L651,343.6 " fill="#7D5393" style="stroke:#000000;stroke-width:0.5;"/><text fill="#FFFFFF" font-family="NanumGothic" font-size="13" lengthAdjust="spacing" textLength="430" x="216" y="360.56">User might identify after plugging in, sequence time-out is 60 seconds</text><polygon fill="#181818" points="651.5,390.5,661.5,394.5,651.5,398.5,655.5,394.5" style="stroke:#181818;stroke-width:1.0;"/><line style="stroke:#181818;stroke-width:1.0;" x1="440.5" x2="657.5" y1="394.5" y2="394.5"/><text fill="#000000" font-family="NanumGothic" font-size="13" lengthAdjust="spacing" textLength="166" x="447.5" y="389.51">AuthorizeRequest(idToken)</text><polygon fill="#181818" points="451.5,419.45,441.5,423.45,451.5,427.45,447.5,423.45" style="stroke:#181818;stroke-width:1.0;"/><line style="stroke:#181818;stroke-width:1.0;stroke-dasharray:2.0,2.0;" x1="445.5" x2="667.5" y1="423.45" y2="423.45"/><text fill="#000000" font-family="NanumGothic" font-size="13" lengthAdjust="spacing" textLength="199" x="457.5" y="418.46">AuthorizeResponse(idTokenInfo)</text><polygon fill="#181818" points="31.5,455.4,21.5,459.4,31.5,463.4,27.5,459.4" style="stroke:#181818;stroke-width:1.0;"/><line style="stroke:#181818;stroke-width:1.0;stroke-dasharray:2.0,2.0;" x1="25.5" x2="434.5" y1="459.4" y2="459.4"/><text fill="#000000" font-family="NanumGothic" font-size="13" lengthAdjust="spacing" textLength="114" x="37.5" y="454.41">AuthorizationRes()</text><!--SRC=[hLCxJyCm4DxzAuvEhKGH4qC790GPAe501BfRoRKzaTZ6lbI4NyyvRGhf8n9LiyIwn_Vm-Ix8P4ML8mIk2xnoLLaevRHdoiXfmp18PWFG0P9PDto_r7v1PW4fQoPhcg8sk8djTAHFwRfA3afPnp3DqJ3DQvYJ3wm0Z6K4kqA_1mNolGT9bBHOCb3RwJnP3smXiyPWnb4IBr7qnk3wb2RIZYPlu9MSTy1XVDk8ci1TnKlhwHjVyRF2m4FAt-m7cf4qQG5VQT6tB-qtrLY3vW_Z2DkjxJ04Pqt0bc9gvZRIvDX3z3SPgSIKKcBr45EAVaKPFb38uetMOcauKjj-6UXH8hLtGKAGp0vXXk6BhaiPnYRrI84da7mnUgEBJMwaUbmTqz_5JR68qxKcsd3hrBDRL-wn_T_OKR8mF4byEsRTIkuJrLa5FHSpu8fAIaxQY5-0PZ_9N4A8hzba24mbZcqbrG5khYKkMvE7ysx7ULTW-ygFJMxdfdVc9Q-yPte_]--></g></svg>