<?xml version="1.0" encoding="us-ascii" standalone="no"?><svg xmlns="http://www.w3.org/2000/svg" xmlns:xlink="http://www.w3.org/1999/xlink" contentStyleType="text/css" height="746px" preserveAspectRatio="none" style="width:848px;height:746px;background:#FFFFFF;" version="1.1" viewBox="0 0 848 746" width="848px" zoomAndPan="magnify"><defs/><g><rect fill="#FFFFFF" height="363.3" style="stroke:#181818;stroke-width:1.0;" width="10" x="51.5" y="46.1"/><rect fill="#FFFFFF" height="145.7" style="stroke:#181818;stroke-width:1.0;" width="10" x="158" y="67.05"/><rect fill="#FFFFFF" height="422.3" style="stroke:#181818;stroke-width:1.0;" width="10" x="158" y="270.65"/><rect fill="#FFFFFF" height="28.95" style="stroke:#181818;stroke-width:1.0;" width="10" x="683" y="96"/><rect fill="#FFFFFF" height="28.95" style="stroke:#181818;stroke-width:1.0;" width="10" x="683" y="183.8"/><rect fill="#FFFFFF" height="167.7" style="stroke:#181818;stroke-width:1.0;" width="10" x="683" y="241.7"/><rect fill="#FFFFFF" height="28.95" style="stroke:#181818;stroke-width:1.0;" width="10" x="683" y="469.3"/><rect fill="#FFFFFF" height="28.95" style="stroke:#181818;stroke-width:1.0;" width="10" x="683" y="664"/><rect fill="none" height="45.9" style="stroke:#000000;stroke-width:1.5;" width="714.5" x="10" y="371.5"/><rect fill="none" height="74.85" style="stroke:#000000;stroke-width:1.5;" width="631.5" x="93" y="431.4"/><rect fill="none" height="58.9" style="stroke:#000000;stroke-width:1.5;" width="262" x="93" y="520.25"/><line style="stroke:#181818;stroke-width:0.5;stroke-dasharray:5.0,5.0;" x1="56" x2="56" y1="36.1" y2="739.9"/><line style="stroke:#181818;stroke-width:0.5;stroke-dasharray:5.0,5.0;" x1="163" x2="163" y1="36.1" y2="739.9"/><line style="stroke:#181818;stroke-width:0.5;stroke-dasharray:5.0,5.0;" x1="687.5" x2="687.5" y1="36.1" y2="739.9"/><rect fill="#7D5393" height="30.1" rx="2.5" ry="2.5" style="stroke:#181818;stroke-width:0.5;" width="73" x="20" y="5"/><text fill="#FFFFFF" font-family="NanumGothic" font-size="14" lengthAdjust="spacing" textLength="59" x="27" y="24.88">EV Driver</text><rect fill="#7D5393" height="30.1" rx="2.5" ry="2.5" style="stroke:#181818;stroke-width:0.5;" width="120" x="103" y="5"/><text fill="#FFFFFF" font-family="NanumGothic" font-size="14" lengthAdjust="spacing" textLength="106" x="110" y="24.88">Charging Station</text><rect fill="#7D5393" height="30.1" rx="2.5" ry="2.5" style="stroke:#181818;stroke-width:0.5;" width="53" x="661.5" y="5"/><text fill="#FFFFFF" font-family="NanumGothic" font-size="14" lengthAdjust="spacing" textLength="39" x="668.5" y="24.88">CSMS</text><rect fill="#FFFFFF" height="363.3" style="stroke:#181818;stroke-width:1.0;" width="10" x="51.5" y="46.1"/><rect fill="#FFFFFF" height="145.7" style="stroke:#181818;stroke-width:1.0;" width="10" x="158" y="67.05"/><rect fill="#FFFFFF" height="422.3" style="stroke:#181818;stroke-width:1.0;" width="10" x="158" y="270.65"/><rect fill="#FFFFFF" height="28.95" style="stroke:#181818;stroke-width:1.0;" width="10" x="683" y="96"/><rect fill="#FFFFFF" height="28.95" style="stroke:#181818;stroke-width:1.0;" width="10" x="683" y="183.8"/><rect fill="#FFFFFF" height="167.7" style="stroke:#181818;stroke-width:1.0;" width="10" x="683" y="241.7"/><rect fill="#FFFFFF" height="28.95" style="stroke:#181818;stroke-width:1.0;" width="10" x="683" y="469.3"/><rect fill="#FFFFFF" height="28.95" style="stroke:#181818;stroke-width:1.0;" width="10" x="683" y="664"/><polygon fill="#181818" points="146,63.05,156,67.05,146,71.05,150,67.05" style="stroke:#181818;stroke-width:1.0;"/><line style="stroke:#181818;stroke-width:1.0;" x1="61.5" x2="152" y1="67.05" y2="67.05"/><text fill="#000000" font-family="NanumGothic" font-size="13" lengthAdjust="spacing" textLength="73" x="68.5" y="62.06">Plugin cable</text><polygon fill="#181818" points="671,92,681,96,671,100,675,96" style="stroke:#181818;stroke-width:1.0;"/><line style="stroke:#181818;stroke-width:1.0;" x1="168" x2="677" y1="96" y2="96"/><text fill="#000000" font-family="NanumGothic" font-size="13" lengthAdjust="spacing" textLength="223" x="175" y="91.01">StatusNotificationRequest(Occupied)</text><polygon fill="#181818" points="179,120.95,169,124.95,179,128.95,175,124.95" style="stroke:#181818;stroke-width:1.0;"/><line style="stroke:#181818;stroke-width:1.0;stroke-dasharray:2.0,2.0;" x1="173" x2="687" y1="124.95" y2="124.95"/><text fill="#000000" font-family="NanumGothic" font-size="13" lengthAdjust="spacing" textLength="176" x="185" y="119.96">StatusNotificationResponse()</text><polygon fill="#181818" points="671,179.8,681,183.8,671,187.8,675,183.8" style="stroke:#181818;stroke-width:1.0;"/><line style="stroke:#181818;stroke-width:1.0;" x1="168" x2="677" y1="183.8" y2="183.8"/><text fill="#000000" font-family="NanumGothic" font-size="13" lengthAdjust="spacing" textLength="488" x="175" y="148.91">TransactionEventRequest(eventType = Started, triggerReason = CablePluggedIn,</text><text fill="#000000" font-family="NanumGothic" font-size="13" lengthAdjust="spacing" textLength="340" x="175" y="163.86">chargingState = EVConnected, transactionId = AB1234,</text><text fill="#000000" font-family="NanumGothic" font-size="13" lengthAdjust="spacing" textLength="310" x="175" y="178.81">evse.id = 1, evse.connectorId = 1, meterValues, ...)</text><polygon fill="#181818" points="174,208.75,164,212.75,174,216.75,170,212.75" style="stroke:#181818;stroke-width:1.0;"/><line style="stroke:#181818;stroke-width:1.0;stroke-dasharray:2.0,2.0;" x1="168" x2="687" y1="212.75" y2="212.75"/><text fill="#000000" font-family="NanumGothic" font-size="13" lengthAdjust="spacing" textLength="183" x="180" y="207.76">TransactionEventResponse(...)</text><polygon fill="#181818" points="671,237.7,681,241.7,671,245.7,675,241.7" style="stroke:#181818;stroke-width:1.0;"/><line style="stroke:#181818;stroke-width:1.0;" x1="61.5" x2="677" y1="241.7" y2="241.7"/><text fill="#000000" font-family="NanumGothic" font-size="13" lengthAdjust="spacing" textLength="86" x="68.5" y="236.71">remote start()</text><polygon fill="#181818" points="179,266.65,169,270.65,179,274.65,175,270.65" style="stroke:#181818;stroke-width:1.0;"/><line style="stroke:#181818;stroke-width:1.0;" x1="173" x2="682" y1="270.65" y2="270.65"/><text fill="#000000" font-family="NanumGothic" font-size="13" lengthAdjust="spacing" textLength="388" x="185" y="265.66">RequestStartTransactionRequest(idToken, remoteStartId = 123)</text><polygon fill="#181818" points="671,295.6,681,299.6,671,303.6,675,299.6" style="stroke:#181818;stroke-width:1.0;"/><line style="stroke:#181818;stroke-width:1.0;stroke-dasharray:2.0,2.0;" x1="168" x2="677" y1="299.6" y2="299.6"/><text fill="#000000" font-family="NanumGothic" font-size="13" lengthAdjust="spacing" textLength="479" x="175" y="294.61">RequestStartTransactionResponse(status = Accepted, transactionId = AB1234)</text><line style="stroke:#181818;stroke-width:1.0;" x1="693" x2="735" y1="343.5" y2="343.5"/><line style="stroke:#181818;stroke-width:1.0;" x1="735" x2="735" y1="343.5" y2="356.5"/><line style="stroke:#181818;stroke-width:1.0;" x1="694" x2="735" y1="356.5" y2="356.5"/><polygon fill="#181818" points="704,352.5,694,356.5,704,360.5,700,356.5" style="stroke:#181818;stroke-width:1.0;"/><text fill="#000000" font-family="NanumGothic" font-size="13" lengthAdjust="spacing" textLength="127" x="700" y="323.56">Match remoteStartId</text><text fill="#000000" font-family="NanumGothic" font-size="13" lengthAdjust="spacing" textLength="122" x="700" y="338.51">with TransactionId()</text><path d="M10,371.5 L76,371.5 L76,378.45 L66,388.45 L10,388.45 L10,371.5 " fill="#EEEEEE" style="stroke:#000000;stroke-width:1.5;"/><rect fill="none" height="45.9" style="stroke:#000000;stroke-width:1.5;" width="714.5" x="10" y="371.5"/><text fill="#000000" font-family="NanumGothic" font-size="13" font-weight="bold" lengthAdjust="spacing" textLength="21" x="25" y="384.46">opt</text><polygon fill="#181818" points="67.5,405.4,57.5,409.4,67.5,413.4,63.5,409.4" style="stroke:#181818;stroke-width:1.0;"/><line style="stroke:#181818;stroke-width:1.0;" x1="61.5" x2="687" y1="409.4" y2="409.4"/><text fill="#000000" font-family="NanumGothic" font-size="13" lengthAdjust="spacing" textLength="69" x="73.5" y="404.41">notification</text><path d="M93,431.4 L153,431.4 L153,438.35 L143,448.35 L93,448.35 L93,431.4 " fill="#EEEEEE" style="stroke:#000000;stroke-width:1.5;"/><rect fill="none" height="74.85" style="stroke:#000000;stroke-width:1.5;" width="631.5" x="93" y="431.4"/><text fill="#000000" font-family="NanumGothic" font-size="13" font-weight="bold" lengthAdjust="spacing" textLength="15" x="108" y="444.36">alt</text><text fill="#000000" font-family="NanumGothic" font-size="11" font-weight="bold" lengthAdjust="spacing" textLength="157" x="168" y="443.52">[AuthorizeRemoteStart = true]</text><polygon fill="#181818" points="671,465.3,681,469.3,671,473.3,675,469.3" style="stroke:#181818;stroke-width:1.0;"/><line style="stroke:#181818;stroke-width:1.0;" x1="168" x2="677" y1="469.3" y2="469.3"/><text fill="#000000" font-family="NanumGothic" font-size="13" lengthAdjust="spacing" textLength="166" x="175" y="464.31">AuthorizeRequest(idToken)</text><polygon fill="#181818" points="179,494.25,169,498.25,179,502.25,175,498.25" style="stroke:#181818;stroke-width:1.0;"/><line style="stroke:#181818;stroke-width:1.0;stroke-dasharray:2.0,2.0;" x1="173" x2="687" y1="498.25" y2="498.25"/><text fill="#000000" font-family="NanumGothic" font-size="13" lengthAdjust="spacing" textLength="199" x="185" y="493.26">AuthorizeResponse(idTokenInfo)</text><path d="M93,520.25 L153,520.25 L153,527.2 L143,537.2 L93,537.2 L93,520.25 " fill="#EEEEEE" style="stroke:#000000;stroke-width:1.5;"/><rect fill="none" height="58.9" style="stroke:#000000;stroke-width:1.5;" width="262" x="93" y="520.25"/><text fill="#000000" font-family="NanumGothic" font-size="13" font-weight="bold" lengthAdjust="spacing" textLength="15" x="108" y="533.21">alt</text><text fill="#000000" font-family="NanumGothic" font-size="11" font-weight="bold" lengthAdjust="spacing" textLength="182" x="168" y="532.37">[if cable not permanently attached]</text><line style="stroke:#181818;stroke-width:1.0;" x1="168" x2="210" y1="558.15" y2="558.15"/><line style="stroke:#181818;stroke-width:1.0;" x1="210" x2="210" y1="558.15" y2="571.15"/><line style="stroke:#181818;stroke-width:1.0;" x1="169" x2="210" y1="571.15" y2="571.15"/><polygon fill="#181818" points="179,567.15,169,571.15,179,575.15,175,571.15" style="stroke:#181818;stroke-width:1.0;"/><text fill="#000000" font-family="NanumGothic" font-size="13" lengthAdjust="spacing" textLength="89" x="175" y="553.16">lock connector</text><line style="stroke:#181818;stroke-width:1.0;" x1="168" x2="210" y1="607.1" y2="607.1"/><line style="stroke:#181818;stroke-width:1.0;" x1="210" x2="210" y1="607.1" y2="620.1"/><line style="stroke:#181818;stroke-width:1.0;" x1="169" x2="210" y1="620.1" y2="620.1"/><polygon fill="#181818" points="179,616.1,169,620.1,179,624.1,175,620.1" style="stroke:#181818;stroke-width:1.0;"/><text fill="#000000" font-family="NanumGothic" font-size="13" lengthAdjust="spacing" textLength="107" x="175" y="602.11">start energy offer</text><polygon fill="#181818" points="671,660,681,664,671,668,675,664" style="stroke:#181818;stroke-width:1.0;"/><line style="stroke:#181818;stroke-width:1.0;" x1="168" x2="677" y1="664" y2="664"/><text fill="#000000" font-family="NanumGothic" font-size="13" lengthAdjust="spacing" textLength="456" x="175" y="644.06">TransactionEventRequest(eventType = Updated, chargingState = Charging,</text><text fill="#000000" font-family="NanumGothic" font-size="13" lengthAdjust="spacing" textLength="336" x="175" y="659.01">triggerReason = RemoteStart, remoteStartId = 123, ...)</text><polygon fill="#181818" points="174,688.95,164,692.95,174,696.95,170,692.95" style="stroke:#181818;stroke-width:1.0;"/><line style="stroke:#181818;stroke-width:1.0;stroke-dasharray:2.0,2.0;" x1="168" x2="687" y1="692.95" y2="692.95"/><text fill="#000000" font-family="NanumGothic" font-size="13" lengthAdjust="spacing" textLength="183" x="180" y="687.96">TransactionEventResponse(...)</text><ellipse cx="838.5" cy="721.15" fill="none" rx="4" ry="4" style="stroke:#181818;stroke-width:1.5;"/><polygon fill="#181818" points="821.5,717.9,831.5,721.9,821.5,725.9,825.5,721.9" style="stroke:#181818;stroke-width:1.0;"/><line style="stroke:#181818;stroke-width:1.0;" x1="163" x2="827.5" y1="721.9" y2="721.9"/><text fill="#000000" font-family="NanumGothic" font-size="13" lengthAdjust="spacing" textLength="172" x="170" y="716.91">continue regular transaction</text><!--SRC=[jLGzRzim4DtrAwwPBC0naAIJWHH8NGyUqXQswoaTMF8a4v59bJgvS7zzIUh3D2C53OekWdYyU_VuxkETLBoe1K95fm9dPNqeagHaXYIN9LC4LyiTV3BoYEOAM0NBNNEuz5dicScboc53ZAHMthKpjhOeOlEuQRpiJv8mJlB82C_uIVS7rnzYg3byBMfx1iv-57WEZZCcaS53sNnppxEkFckIcUJ-Req_QwneyeNpkfGeqW3MKtHVk1uYCmHMbLfLE4aJWJ7E62U0hM6gSkvQBO-egEE4xh0zbGZtBfaX55CW8_CSpHfPPL7kOU6qSBhaA5Pg2l2aU93AnIvt2wqKyZQ-JxOIzlBXuytjtNiVXySAPz8PRwRW3xo9qsRLMWz8Q7QiiFocC9lDtY3NorUsOdcOKA-ed2-al6WHhw71WoRNp5QaoGYd0Kgjq5xRW5wdlnHR_OnMqmRUkpL2tDwbRsc_dkTembQAohUKgmhdMBvIhpHuLTj5ZupuFg9gY_fBqZxKVYMiG8akAG7e83f1vw22RhOEiVGNbdvcKGaxoWN1GqrxRUHlN9zPMCfaQdJPnYOW2BiGFhL1KIaxpaFL361QELkSbSfqEl2QdhVCcfNYdWybcWDJja6B4p0YnlSeHjZ730hDdw6VcGR_R-9ytm8gDFa9T9QvFVYF- -9RAPZldtWPTBX-ukDb4jHjiEl_tymxe5Tsm80S-ZlChTOaLOsMQruNp8JJalm1]--></g></svg>