<?xml version="1.0" encoding="us-ascii" standalone="no"?><svg xmlns="http://www.w3.org/2000/svg" xmlns:xlink="http://www.w3.org/1999/xlink" contentStyleType="text/css" height="979px" preserveAspectRatio="none" style="width:1051px;height:979px;background:#FFFFFF;" version="1.1" viewBox="0 0 1051 979" width="1051px" zoomAndPan="magnify"><defs/><g><rect fill="#FFFFFF" height="386.9" style="stroke:#181818;stroke-width:1.0;" width="10" x="90.5" y="292.75"/><rect fill="#FFFFFF" height="291.1" style="stroke:#181818;stroke-width:1.0;" width="10" x="256.5" y="149"/><rect fill="#FFFFFF" height="271.55" style="stroke:#181818;stroke-width:1.0;" width="10" x="256.5" y="522.9"/><rect fill="#FFFFFF" height="130.75" style="stroke:#181818;stroke-width:1.0;" width="10" x="256.5" y="823.4"/><rect fill="#FFFFFF" height="28.95" style="stroke:#181818;stroke-width:1.0;" width="10" x="816.5" y="234.85"/><rect fill="#FFFFFF" height="78.85" style="stroke:#181818;stroke-width:1.0;" width="10" x="816.5" y="522.9"/><rect fill="#FFFFFF" height="28.95" style="stroke:#181818;stroke-width:1.0;" width="10" x="816.5" y="765.5"/><rect fill="#FFFFFF" height="28.95" style="stroke:#181818;stroke-width:1.0;" width="10" x="816.5" y="852.35"/><rect fill="#FFFFFF" height="28.95" style="stroke:#181818;stroke-width:1.0;" width="10" x="816.5" y="925.2"/><rect fill="none" height="309" style="stroke:#000000;stroke-width:1.5;" width="974" x="70" y="307.75"/><rect fill="none" height="154.65" style="stroke:#000000;stroke-width:1.5;" width="842.5" x="191.5" y="455.1"/><line style="stroke:#181818;stroke-width:0.5;stroke-dasharray:5.0,5.0;" x1="37" x2="37" y1="83.1" y2="972.15"/><line style="stroke:#181818;stroke-width:0.5;stroke-dasharray:5.0,5.0;" x1="95" x2="95" y1="83.1" y2="972.15"/><line style="stroke:#181818;stroke-width:0.5;stroke-dasharray:5.0,5.0;" x1="261.5" x2="261.5" y1="83.1" y2="972.15"/><line style="stroke:#181818;stroke-width:0.5;stroke-dasharray:5.0,5.0;" x1="821" x2="821" y1="83.1" y2="972.15"/><text fill="#000000" font-family="NanumGothic" font-size="14" lengthAdjust="spacing" textLength="59" x="5" y="79.88">EV Driver</text><ellipse cx="37.5" cy="14.5" fill="#E2E2F0" rx="8" ry="8" style="stroke:#7D5393;stroke-width:1.5;"/><path d="M37.5,22.5 L37.5,49.5 M24.5,30.5 L50.5,30.5 M37.5,49.5 L24.5,64.5 M37.5,49.5 L50.5,64.5 " fill="none" style="stroke:#7D5393;stroke-width:1.5;"/><rect fill="#7D5393" height="30.1" rx="2.5" ry="2.5" style="stroke:#181818;stroke-width:0.5;" width="31" x="80" y="52"/><text fill="#FFFFFF" font-family="NanumGothic" font-size="14" lengthAdjust="spacing" textLength="17" x="87" y="71.88">EV</text><rect fill="#7D5393" height="30.1" rx="2.5" ry="2.5" style="stroke:#181818;stroke-width:0.5;" width="120" x="201.5" y="52"/><text fill="#FFFFFF" font-family="NanumGothic" font-size="14" lengthAdjust="spacing" textLength="106" x="208.5" y="71.88">Charging Station</text><rect fill="#7D5393" height="30.1" rx="2.5" ry="2.5" style="stroke:#181818;stroke-width:0.5;" width="53" x="795" y="52"/><text fill="#FFFFFF" font-family="NanumGothic" font-size="14" lengthAdjust="spacing" textLength="39" x="802" y="71.88">CSMS</text><rect fill="#FFFFFF" height="386.9" style="stroke:#181818;stroke-width:1.0;" width="10" x="90.5" y="292.75"/><rect fill="#FFFFFF" height="291.1" style="stroke:#181818;stroke-width:1.0;" width="10" x="256.5" y="149"/><rect fill="#FFFFFF" height="271.55" style="stroke:#181818;stroke-width:1.0;" width="10" x="256.5" y="522.9"/><rect fill="#FFFFFF" height="130.75" style="stroke:#181818;stroke-width:1.0;" width="10" x="256.5" y="823.4"/><rect fill="#FFFFFF" height="28.95" style="stroke:#181818;stroke-width:1.0;" width="10" x="816.5" y="234.85"/><rect fill="#FFFFFF" height="78.85" style="stroke:#181818;stroke-width:1.0;" width="10" x="816.5" y="522.9"/><rect fill="#FFFFFF" height="28.95" style="stroke:#181818;stroke-width:1.0;" width="10" x="816.5" y="765.5"/><rect fill="#FFFFFF" height="28.95" style="stroke:#181818;stroke-width:1.0;" width="10" x="816.5" y="852.35"/><rect fill="#FFFFFF" height="28.95" style="stroke:#181818;stroke-width:1.0;" width="10" x="816.5" y="925.2"/><path d="M10,98.1 L10,122.1 L848,122.1 L848,108.1 L838,98.1 L10,98.1 " fill="#7D5393" style="stroke:#000000;stroke-width:0.5;"/><path d="M838,98.1 L838,108.1 L848,108.1 L838,98.1 " fill="#7D5393" style="stroke:#000000;stroke-width:0.5;"/><text fill="#FFFFFF" font-family="NanumGothic" font-size="13" lengthAdjust="spacing" textLength="336" x="256.5" y="115.06">User authorization successful and transaction is started</text><polygon fill="#181818" points="106.5,145,96.5,149,106.5,153,102.5,149" style="stroke:#181818;stroke-width:1.0;"/><line style="stroke:#181818;stroke-width:1.0;" x1="100.5" x2="255.5" y1="149" y2="149"/><text fill="#000000" font-family="NanumGothic" font-size="13" lengthAdjust="spacing" textLength="132" x="112.5" y="144.01">set max current(limit)</text><line style="stroke:#181818;stroke-width:1.0;" x1="266.5" x2="308.5" y1="177.95" y2="177.95"/><line style="stroke:#181818;stroke-width:1.0;" x1="308.5" x2="308.5" y1="177.95" y2="190.95"/><line style="stroke:#181818;stroke-width:1.0;" x1="267.5" x2="308.5" y1="190.95" y2="190.95"/><polygon fill="#181818" points="277.5,186.95,267.5,190.95,277.5,194.95,273.5,190.95" style="stroke:#181818;stroke-width:1.0;"/><text fill="#000000" font-family="NanumGothic" font-size="13" lengthAdjust="spacing" textLength="102" x="273.5" y="172.96">switch power on</text><polygon fill="#181818" points="804.5,230.85,814.5,234.85,804.5,238.85,808.5,234.85" style="stroke:#181818;stroke-width:1.0;"/><line style="stroke:#181818;stroke-width:1.0;" x1="266.5" x2="810.5" y1="234.85" y2="234.85"/><text fill="#000000" font-family="NanumGothic" font-size="13" lengthAdjust="spacing" textLength="378" x="273.5" y="214.91">TransactionEventRequest(eventType = Updated, transactionId,</text><text fill="#000000" font-family="NanumGothic" font-size="13" lengthAdjust="spacing" textLength="182" x="305.5" y="229.86">chargingState = Charging, ...)</text><polygon fill="#181818" points="277.5,259.8,267.5,263.8,277.5,267.8,273.5,263.8" style="stroke:#181818;stroke-width:1.0;"/><line style="stroke:#181818;stroke-width:1.0;stroke-dasharray:2.0,2.0;" x1="271.5" x2="820.5" y1="263.8" y2="263.8"/><text fill="#000000" font-family="NanumGothic" font-size="13" lengthAdjust="spacing" textLength="183" x="283.5" y="258.81">TransactionEventResponse(...)</text><polygon fill="#181818" points="244.5,288.75,254.5,292.75,244.5,296.75,248.5,292.75" style="stroke:#181818;stroke-width:1.0;"/><line style="stroke:#181818;stroke-width:1.0;" x1="100.5" x2="250.5" y1="292.75" y2="292.75"/><text fill="#000000" font-family="NanumGothic" font-size="13" lengthAdjust="spacing" textLength="95" x="107.5" y="287.76">start charging()</text><path d="M70,307.75 L142,307.75 L142,314.7 L132,324.7 L70,324.7 L70,307.75 " fill="#EEEEEE" style="stroke:#000000;stroke-width:1.5;"/><rect fill="none" height="309" style="stroke:#000000;stroke-width:1.5;" width="974" x="70" y="307.75"/><text fill="#000000" font-family="NanumGothic" font-size="13" font-weight="bold" lengthAdjust="spacing" textLength="27" x="85" y="320.71">loop</text><text fill="#000000" font-family="NanumGothic" font-size="11" font-weight="bold" lengthAdjust="spacing" textLength="229" x="157" y="319.87">[loop Change according to charging profile]</text><line style="stroke:#000000;stroke-width:1.0;stroke-dasharray:2.0,2.0;" x1="70" x2="1044" y1="325.7" y2="325.7"/><text fill="#000000" font-family="NanumGothic" font-size="11" font-weight="bold" lengthAdjust="spacing" textLength="227" x="75" y="335.82">[for each interval period in charging profile]</text><line style="stroke:#181818;stroke-width:1.0;" x1="266.5" x2="308.5" y1="379.225" y2="379.225"/><line style="stroke:#181818;stroke-width:1.0;" x1="308.5" x2="308.5" y1="379.225" y2="392.225"/><line style="stroke:#181818;stroke-width:1.0;" x1="267.5" x2="308.5" y1="392.225" y2="392.225"/><polygon fill="#181818" points="277.5,388.225,267.5,392.225,277.5,396.225,273.5,392.225" style="stroke:#181818;stroke-width:1.0;"/><text fill="#000000" font-family="NanumGothic" font-size="13" lengthAdjust="spacing" textLength="224" x="273.5" y="374.235">get limit from charging profile():limit</text><path d="M509,344.35 L509,413.35 L765,413.35 L765,354.35 L755,344.35 L509,344.35 " fill="#7D5393" style="stroke:#000000;stroke-width:0.5;"/><path d="M755,344.35 L755,354.35 L765,354.35 L755,344.35 " fill="#7D5393" style="stroke:#000000;stroke-width:0.5;"/><text fill="#FFFFFF" font-family="NanumGothic" font-size="13" lengthAdjust="spacing" textLength="235" x="515" y="361.31">Charging Station implements charging</text><text fill="#FFFFFF" font-family="NanumGothic" font-size="13" lengthAdjust="spacing" textLength="164" x="515" y="376.26">profile via the Control Pilot</text><text fill="#FFFFFF" font-family="NanumGothic" font-size="13" lengthAdjust="spacing" textLength="211" x="515" y="391.21">signal whenever maximum current</text><text fill="#FFFFFF" font-family="NanumGothic" font-size="13" lengthAdjust="spacing" textLength="100" x="515" y="406.16">needs changing.</text><polygon fill="#181818" points="111.5,436.1,101.5,440.1,111.5,444.1,107.5,440.1" style="stroke:#181818;stroke-width:1.0;"/><line style="stroke:#181818;stroke-width:1.0;" x1="105.5" x2="260.5" y1="440.1" y2="440.1"/><text fill="#000000" font-family="NanumGothic" font-size="13" lengthAdjust="spacing" textLength="132" x="117.5" y="435.11">set max current(limit)</text><path d="M191.5,455.1 L257.5,455.1 L257.5,462.05 L247.5,472.05 L191.5,472.05 L191.5,455.1 " fill="#EEEEEE" style="stroke:#000000;stroke-width:1.5;"/><rect fill="none" height="154.65" style="stroke:#000000;stroke-width:1.5;" width="842.5" x="191.5" y="455.1"/><text fill="#000000" font-family="NanumGothic" font-size="13" font-weight="bold" lengthAdjust="spacing" textLength="21" x="206.5" y="468.06">opt</text><text fill="#000000" font-family="NanumGothic" font-size="11" font-weight="bold" lengthAdjust="spacing" textLength="141" x="272.5" y="467.22">[Change of limits by CSMS]</text><polygon fill="#181818" points="804.5,518.9,814.5,522.9,804.5,526.9,808.5,522.9" style="stroke:#181818;stroke-width:1.0;"/><line style="stroke:#181818;stroke-width:1.0;" x1="266.5" x2="810.5" y1="522.9" y2="522.9"/><text fill="#000000" font-family="NanumGothic" font-size="13" lengthAdjust="spacing" textLength="413" x="273.5" y="488.01">SetChargingProfileRequest(evseId,chargingProfile.id,[transactionId],</text><text fill="#000000" font-family="NanumGothic" font-size="13" lengthAdjust="spacing" textLength="508" x="273.5" y="502.96">chargingProfilePurpose: TxProfile, ChargingProfileKind, RecurrencyKind, ValidFrom,</text><text fill="#000000" font-family="NanumGothic" font-size="13" lengthAdjust="spacing" textLength="168" x="273.5" y="517.91">ValidTo, ChargingSchedule)</text><path d="M831,535.9 L831,574.9 L1024,574.9 L1024,545.9 L1014,535.9 L831,535.9 " fill="#7D5393" style="stroke:#000000;stroke-width:0.5;"/><path d="M1014,535.9 L1014,545.9 L1024,545.9 L1014,535.9 " fill="#7D5393" style="stroke:#000000;stroke-width:0.5;"/><text fill="#FFFFFF" font-family="NanumGothic" font-size="13" lengthAdjust="spacing" textLength="102" x="837" y="552.86">CSMS decides to</text><text fill="#FFFFFF" font-family="NanumGothic" font-size="13" lengthAdjust="spacing" textLength="172" x="837" y="567.81">change the charging profile.</text><polygon fill="#181818" points="809.5,597.75,819.5,601.75,809.5,605.75,813.5,601.75" style="stroke:#181818;stroke-width:1.0;"/><line style="stroke:#181818;stroke-width:1.0;stroke-dasharray:2.0,2.0;" x1="266.5" x2="815.5" y1="601.75" y2="601.75"/><text fill="#000000" font-family="NanumGothic" font-size="13" lengthAdjust="spacing" textLength="238" x="273.5" y="596.76">SetChargingProfileResponse(Accepted)</text><path d="M10,628.75 L10,652.75 L848,652.75 L848,638.75 L838,628.75 L10,628.75 " fill="#7D5393" style="stroke:#000000;stroke-width:0.5;"/><path d="M838,628.75 L838,638.75 L848,638.75 L838,628.75 " fill="#7D5393" style="stroke:#000000;stroke-width:0.5;"/><text fill="#FFFFFF" font-family="NanumGothic" font-size="13" lengthAdjust="spacing" textLength="177" x="336" y="645.71">User authorization successful</text><polygon fill="#181818" points="106.5,675.65,96.5,679.65,106.5,683.65,102.5,679.65" style="stroke:#181818;stroke-width:1.0;"/><line style="stroke:#181818;stroke-width:1.0;stroke-dasharray:2.0,2.0;" x1="100.5" x2="255.5" y1="679.65" y2="679.65"/><text fill="#000000" font-family="NanumGothic" font-size="13" lengthAdjust="spacing" textLength="90" x="112.5" y="674.66">end charging()</text><line style="stroke:#181818;stroke-width:1.0;" x1="266.5" x2="308.5" y1="708.6" y2="708.6"/><line style="stroke:#181818;stroke-width:1.0;" x1="308.5" x2="308.5" y1="708.6" y2="721.6"/><line style="stroke:#181818;stroke-width:1.0;" x1="267.5" x2="308.5" y1="721.6" y2="721.6"/><polygon fill="#181818" points="277.5,717.6,267.5,721.6,277.5,725.6,273.5,721.6" style="stroke:#181818;stroke-width:1.0;"/><text fill="#000000" font-family="NanumGothic" font-size="13" lengthAdjust="spacing" textLength="104" x="273.5" y="703.61">switch power off</text><polygon fill="#181818" points="804.5,761.5,814.5,765.5,804.5,769.5,808.5,765.5" style="stroke:#181818;stroke-width:1.0;"/><line style="stroke:#181818;stroke-width:1.0;" x1="266.5" x2="810.5" y1="765.5" y2="765.5"/><text fill="#000000" font-family="NanumGothic" font-size="13" lengthAdjust="spacing" textLength="378" x="273.5" y="745.56">TransactionEventRequest(eventType = Updated, transactionId,</text><text fill="#000000" font-family="NanumGothic" font-size="13" lengthAdjust="spacing" textLength="208" x="297.5" y="760.51">chargingState = EVConnected, ...)</text><polygon fill="#181818" points="272.5,790.45,262.5,794.45,272.5,798.45,268.5,794.45" style="stroke:#181818;stroke-width:1.0;"/><line style="stroke:#181818;stroke-width:1.0;stroke-dasharray:2.0,2.0;" x1="266.5" x2="820.5" y1="794.45" y2="794.45"/><text fill="#000000" font-family="NanumGothic" font-size="13" lengthAdjust="spacing" textLength="183" x="278.5" y="789.46">TransactionEventResponse(...)</text><polygon fill="#181818" points="244.5,819.4,254.5,823.4,244.5,827.4,248.5,823.4" style="stroke:#181818;stroke-width:1.0;"/><line style="stroke:#181818;stroke-width:1.0;stroke-dasharray:2.0,2.0;" x1="37.5" x2="250.5" y1="823.4" y2="823.4"/><text fill="#000000" font-family="NanumGothic" font-size="13" lengthAdjust="spacing" textLength="78" x="44.5" y="818.41">unplug cable</text><polygon fill="#181818" points="804.5,848.35,814.5,852.35,804.5,856.35,808.5,852.35" style="stroke:#181818;stroke-width:1.0;"/><line style="stroke:#181818;stroke-width:1.0;" x1="266.5" x2="810.5" y1="852.35" y2="852.35"/><text fill="#000000" font-family="NanumGothic" font-size="13" lengthAdjust="spacing" textLength="220" x="273.5" y="847.36">StatusNotificationRequest(Available)</text><polygon fill="#181818" points="277.5,877.3,267.5,881.3,277.5,885.3,273.5,881.3" style="stroke:#181818;stroke-width:1.0;"/><line style="stroke:#181818;stroke-width:1.0;stroke-dasharray:2.0,2.0;" x1="271.5" x2="820.5" y1="881.3" y2="881.3"/><text fill="#000000" font-family="NanumGothic" font-size="13" lengthAdjust="spacing" textLength="176" x="283.5" y="876.31">StatusNotificationResponse()</text><polygon fill="#181818" points="804.5,921.2,814.5,925.2,804.5,929.2,808.5,925.2" style="stroke:#181818;stroke-width:1.0;"/><line style="stroke:#181818;stroke-width:1.0;" x1="266.5" x2="810.5" y1="925.2" y2="925.2"/><text fill="#000000" font-family="NanumGothic" font-size="13" lengthAdjust="spacing" textLength="437" x="273.5" y="905.26">TransactionEventRequest(eventType = Ended, transactionId, timestamp,</text><text fill="#000000" font-family="NanumGothic" font-size="13" lengthAdjust="spacing" textLength="96" x="297.5" y="920.21">stopReason, ...)</text><polygon fill="#181818" points="272.5,950.15,262.5,954.15,272.5,958.15,268.5,954.15" style="stroke:#181818;stroke-width:1.0;"/><line style="stroke:#181818;stroke-width:1.0;stroke-dasharray:2.0,2.0;" x1="266.5" x2="820.5" y1="954.15" y2="954.15"/><text fill="#000000" font-family="NanumGothic" font-size="13" lengthAdjust="spacing" textLength="253" x="278.5" y="949.16">TransactionEventResponse([IdTokenInfo])</text><!--SRC=[jLNDRjim3BxxARYUKY3D0nJOW6BBW6BOK3HjBkqEgap7n6H9a-IqsTEFad_Yk6wnRAiFXaLI7_y-qkz8IrNd23xi52viNQai4p8O1oVBDNnoj4Lt0iB3SjqSCYjS84bMw11jMkMX-6Cft8Rq1bP1138w6NN2LZQwiVgwQgpu8ykq2GY6tVL-vuq6uDQpLDIXD8v-9IJmjPJeVL4h43g7u8Jsd4HKaUVKs17c6R8gucRPA18u-y1kpi5ZW4eyWQoTGnrcYYeAfx4Sj1KSppY1APoHY44VASWIh7dai5-wn9cT0y3DFl3bbYEunfyr-Z33UBZPMOJtS6jpZYMV3xEyvEEzXlQH0mVnHkTm3el5OfXEgdHymzbKvC-ZyTPeZxC4a-C8YEaocN-iVX_JRE2VIPCfOooa5r_K6mGXfN5vf4um_IsmpXIaC4Fb4Gec9pilWNH0jnKAB3eoEP-VtG0cp9zqQSEjJ-s6mfdg6Spiz3nf6Iqnqz6cZ8SzUCTqeCeghBXSlaT9Xbr0Mn8GIYwQqS4P1LUaJ0FbQQCvcSSIDKRcCnMfggkEZib68-O9M4VW1Slsh9xCz1LU0mnxEEOsWB6XwuefckfuUDXrSpXTs9R9yLbXw2okckJtVFR8d9M7sWNbyxi3Ld-Vjr3tUcHxLJjhF399drh974RElf3ciRZ69ckvQyvheIZ_p3tUGoVHZTa3h6I9UQtmD6NvOeaEbMa6KejwWiIozSM2zCabbvIZPtPd_RJ62aTAZ5ctI2R31a_Kl2_wLBdRWRtWzMXvQJG9ZIUtSH7Nuz_ltTUMQyl2Q35O0uCeuY8uVfKMnPllql4cNQvvQZNATESjb-bhWzarPjfFhQsgDo350w_Bu_vS3OjOKFjl9b11Ckcwmbri1Qa8UqJMKsXjtXD_a7_ivbBd4xqCLB6XgEo-hJuOUut26_tVkdXtoHla1-fBNPZlH_NpDm00]--></g></svg>