<?xml version="1.0" encoding="us-ascii" standalone="no"?><svg xmlns="http://www.w3.org/2000/svg" xmlns:xlink="http://www.w3.org/1999/xlink" contentStyleType="text/css" height="860px" preserveAspectRatio="none" style="width:783px;height:860px;background:#FFFFFF;" version="1.1" viewBox="0 0 783 860" width="783px" zoomAndPan="magnify"><defs/><g><rect fill="#FFFFFF" height="57.9" style="stroke:#181818;stroke-width:1.0;" width="10" x="106" y="172.95"/><rect fill="#FFFFFF" height="28.95" style="stroke:#181818;stroke-width:1.0;" width="10" x="106" y="318"/><rect fill="#FFFFFF" height="57.9" style="stroke:#181818;stroke-width:1.0;" width="10" x="106" y="575.25"/><rect fill="#FFFFFF" height="28.95" style="stroke:#181818;stroke-width:1.0;" width="10" x="106" y="792.85"/><rect fill="#FFFFFF" height="145.05" style="stroke:#181818;stroke-width:1.0;" width="10" x="480" y="201.9"/><rect fill="#FFFFFF" height="33.95" style="stroke:#181818;stroke-width:1.0;" width="10" x="480" y="462.75"/><rect fill="#FFFFFF" height="28.95" style="stroke:#181818;stroke-width:1.0;" width="10" x="480" y="604.2"/><rect fill="#FFFFFF" height="86.85" style="stroke:#181818;stroke-width:1.0;" width="10" x="480" y="734.95"/><rect fill="none" height="736.7" style="stroke:#000000;stroke-width:1.5;" width="761" x="10" y="100.1"/><rect fill="none" height="116.1" style="stroke:#000000;stroke-width:1.5;" width="500.5" x="64.5" y="245.85"/><rect fill="none" height="74.85" style="stroke:#000000;stroke-width:1.5;" width="480.5" x="74.5" y="280.1"/><rect fill="none" height="74.85" style="stroke:#000000;stroke-width:1.5;" width="480.5" x="74.5" y="754.95"/><line style="stroke:#181818;stroke-width:0.5;stroke-dasharray:5.0,5.0;" x1="37" x2="37" y1="83.1" y2="853.8"/><line style="stroke:#181818;stroke-width:0.5;stroke-dasharray:5.0,5.0;" x1="110.5" x2="110.5" y1="83.1" y2="853.8"/><line style="stroke:#181818;stroke-width:0.5;stroke-dasharray:5.0,5.0;" x1="485" x2="485" y1="83.1" y2="853.8"/><text fill="#000000" font-family="NanumGothic" font-size="14" lengthAdjust="spacing" textLength="28" x="20" y="79.88">CSO</text><ellipse cx="37" cy="14.5" fill="#E2E2F0" rx="8" ry="8" style="stroke:#7D5393;stroke-width:1.5;"/><path d="M37,22.5 L37,49.5 M24,30.5 L50,30.5 M37,49.5 L24,64.5 M37,49.5 L50,64.5 " fill="none" style="stroke:#7D5393;stroke-width:1.5;"/><rect fill="#7D5393" height="30.1" rx="2.5" ry="2.5" style="stroke:#181818;stroke-width:0.5;" width="53" x="84.5" y="52"/><text fill="#FFFFFF" font-family="NanumGothic" font-size="14" lengthAdjust="spacing" textLength="39" x="91.5" y="71.88">CSMS</text><rect fill="#7D5393" height="30.1" rx="2.5" ry="2.5" style="stroke:#181818;stroke-width:0.5;" width="120" x="425" y="52"/><text fill="#FFFFFF" font-family="NanumGothic" font-size="14" lengthAdjust="spacing" textLength="106" x="432" y="71.88">Charging Station</text><rect fill="#FFFFFF" height="57.9" style="stroke:#181818;stroke-width:1.0;" width="10" x="106" y="172.95"/><rect fill="#FFFFFF" height="28.95" style="stroke:#181818;stroke-width:1.0;" width="10" x="106" y="318"/><rect fill="#FFFFFF" height="57.9" style="stroke:#181818;stroke-width:1.0;" width="10" x="106" y="575.25"/><rect fill="#FFFFFF" height="28.95" style="stroke:#181818;stroke-width:1.0;" width="10" x="106" y="792.85"/><rect fill="#FFFFFF" height="145.05" style="stroke:#181818;stroke-width:1.0;" width="10" x="480" y="201.9"/><rect fill="#FFFFFF" height="33.95" style="stroke:#181818;stroke-width:1.0;" width="10" x="480" y="462.75"/><rect fill="#FFFFFF" height="28.95" style="stroke:#181818;stroke-width:1.0;" width="10" x="480" y="604.2"/><rect fill="#FFFFFF" height="86.85" style="stroke:#181818;stroke-width:1.0;" width="10" x="480" y="734.95"/><path d="M10,100.1 L70,100.1 L70,107.05 L60,117.05 L10,117.05 L10,100.1 " fill="#EEEEEE" style="stroke:#000000;stroke-width:1.5;"/><rect fill="none" height="736.7" style="stroke:#000000;stroke-width:1.5;" width="761" x="10" y="100.1"/><text fill="#000000" font-family="NanumGothic" font-size="13" font-weight="bold" lengthAdjust="spacing" textLength="15" x="25" y="113.06">alt</text><text fill="#000000" font-family="NanumGothic" font-size="11" font-weight="bold" lengthAdjust="spacing" textLength="127" x="85" y="112.22">[Reset Charging Station]</text><path d="M205,122.05 L205,146.05 L480,146.05 L480,132.05 L470,122.05 L205,122.05 " fill="#7D5393" style="stroke:#000000;stroke-width:0.5;"/><path d="M470,122.05 L470,132.05 L480,132.05 L470,122.05 " fill="#7D5393" style="stroke:#000000;stroke-width:0.5;"/><text fill="#FFFFFF" font-family="NanumGothic" font-size="13" lengthAdjust="spacing" textLength="254" x="211" y="139.01">Transactions active on one or more EVSEs</text><polygon fill="#181818" points="94,168.95,104,172.95,94,176.95,98,172.95" style="stroke:#181818;stroke-width:1.0;"/><line style="stroke:#181818;stroke-width:1.0;" x1="37" x2="100" y1="172.95" y2="172.95"/><text fill="#000000" font-family="NanumGothic" font-size="13" lengthAdjust="spacing" textLength="50" x="44" y="167.96">reset CS</text><polygon fill="#181818" points="468,197.9,478,201.9,468,205.9,472,201.9" style="stroke:#181818;stroke-width:1.0;"/><line style="stroke:#181818;stroke-width:1.0;" x1="116" x2="474" y1="201.9" y2="201.9"/><text fill="#000000" font-family="NanumGothic" font-size="13" lengthAdjust="spacing" textLength="131" x="123" y="196.91">ResetRequest(OnIdle)</text><polygon fill="#181818" points="122,226.85,112,230.85,122,234.85,118,230.85" style="stroke:#181818;stroke-width:1.0;"/><line style="stroke:#181818;stroke-width:1.0;stroke-dasharray:2.0,2.0;" x1="116" x2="479" y1="230.85" y2="230.85"/><text fill="#000000" font-family="NanumGothic" font-size="13" lengthAdjust="spacing" textLength="163" x="128" y="225.86">ResetResponse(Scheduled)</text><path d="M64.5,245.85 L130.5,245.85 L130.5,252.8 L120.5,262.8 L64.5,262.8 L64.5,245.85 " fill="#EEEEEE" style="stroke:#000000;stroke-width:1.5;"/><rect fill="none" height="116.1" style="stroke:#000000;stroke-width:1.5;" width="500.5" x="64.5" y="245.85"/><text fill="#000000" font-family="NanumGothic" font-size="13" font-weight="bold" lengthAdjust="spacing" textLength="21" x="79.5" y="258.81">opt</text><text fill="#000000" font-family="NanumGothic" font-size="11" font-weight="bold" lengthAdjust="spacing" textLength="182" x="145.5" y="257.97">[Avoid starting of new transactions</text><text fill="#000000" font-family="NanumGothic" font-size="11" font-weight="bold" lengthAdjust="spacing" textLength="74" x="145.5" y="270.62">on free EVSEs]</text><path d="M74.5,280.1 L146.5,280.1 L146.5,287.05 L136.5,297.05 L74.5,297.05 L74.5,280.1 " fill="#EEEEEE" style="stroke:#000000;stroke-width:1.5;"/><rect fill="none" height="74.85" style="stroke:#000000;stroke-width:1.5;" width="480.5" x="74.5" y="280.1"/><text fill="#000000" font-family="NanumGothic" font-size="13" font-weight="bold" lengthAdjust="spacing" textLength="27" x="89.5" y="293.06">loop</text><text fill="#000000" font-family="NanumGothic" font-size="11" font-weight="bold" lengthAdjust="spacing" textLength="195" x="161.5" y="292.22">[for all connectors of Available EVSEs]</text><polygon fill="#181818" points="127,314,117,318,127,322,123,318" style="stroke:#181818;stroke-width:1.0;"/><line style="stroke:#181818;stroke-width:1.0;" x1="121" x2="479" y1="318" y2="318"/><text fill="#000000" font-family="NanumGothic" font-size="13" lengthAdjust="spacing" textLength="251" x="133" y="313.01">StatusNotificationRequest(Unavailable,...)</text><polygon fill="#181818" points="473,342.95,483,346.95,473,350.95,477,346.95" style="stroke:#181818;stroke-width:1.0;"/><line style="stroke:#181818;stroke-width:1.0;stroke-dasharray:2.0,2.0;" x1="111" x2="479" y1="346.95" y2="346.95"/><text fill="#000000" font-family="NanumGothic" font-size="13" lengthAdjust="spacing" textLength="188" x="118" y="341.96">StatusNotificationResponse(...)</text><path d="M353,373.95 L353,427.95 L617,427.95 L617,383.95 L607,373.95 L353,373.95 " fill="#7D5393" style="stroke:#000000;stroke-width:0.5;"/><path d="M607,373.95 L607,383.95 L617,383.95 L607,373.95 " fill="#7D5393" style="stroke:#000000;stroke-width:0.5;"/><text fill="#FFFFFF" font-family="NanumGothic" font-size="13" lengthAdjust="spacing" textLength="176" x="359" y="390.91">Wait for transactions to end,</text><text fill="#FFFFFF" font-family="NanumGothic" font-size="13" lengthAdjust="spacing" textLength="189" x="359" y="405.86">and optionally set connector(s)</text><text fill="#FFFFFF" font-family="NanumGothic" font-size="13" lengthAdjust="spacing" textLength="243" x="359" y="420.81">to Unavailable when a transaction ends.</text><line style="stroke:#181818;stroke-width:1.0;" x1="485" x2="532" y1="449.75" y2="449.75"/><line style="stroke:#181818;stroke-width:1.0;" x1="532" x2="532" y1="449.75" y2="462.75"/><line style="stroke:#181818;stroke-width:1.0;" x1="491" x2="532" y1="462.75" y2="462.75"/><polygon fill="#181818" points="501,458.75,491,462.75,501,466.75,497,462.75" style="stroke:#181818;stroke-width:1.0;"/><text fill="#000000" font-family="NanumGothic" font-size="13" lengthAdjust="spacing" textLength="148" x="497" y="444.76">reboot Charging Station</text><ellipse cx="773.5" cy="495.95" fill="none" rx="4" ry="4" style="stroke:#181818;stroke-width:1.5;"/><polygon fill="#181818" points="756.5,492.7,766.5,496.7,756.5,500.7,760.5,496.7" style="stroke:#181818;stroke-width:1.0;"/><line style="stroke:#181818;stroke-width:1.0;" x1="485" x2="762.5" y1="496.7" y2="496.7"/><text fill="#000000" font-family="NanumGothic" font-size="13" lengthAdjust="spacing" textLength="265" x="492" y="491.71">Continue B01 - Cold Boot Charging Station</text><line style="stroke:#000000;stroke-width:1.0;stroke-dasharray:2.0,2.0;" x1="10" x2="771" y1="505.7" y2="505.7"/><text fill="#000000" font-family="NanumGothic" font-size="11" font-weight="bold" lengthAdjust="spacing" textLength="64" x="15" y="515.82">[Reset EVSE]</text><path d="M297,524.35 L297,548.35 L480,548.35 L480,534.35 L470,524.35 L297,524.35 " fill="#7D5393" style="stroke:#000000;stroke-width:0.5;"/><path d="M470,524.35 L470,534.35 L480,534.35 L470,524.35 " fill="#7D5393" style="stroke:#000000;stroke-width:0.5;"/><text fill="#FFFFFF" font-family="NanumGothic" font-size="13" lengthAdjust="spacing" textLength="162" x="303" y="541.31">Transaction active on EVSE</text><polygon fill="#181818" points="94,571.25,104,575.25,94,579.25,98,575.25" style="stroke:#181818;stroke-width:1.0;"/><line style="stroke:#181818;stroke-width:1.0;" x1="37" x2="100" y1="575.25" y2="575.25"/><text fill="#000000" font-family="NanumGothic" font-size="13" lengthAdjust="spacing" textLength="50" x="44" y="570.26">reset CS</text><polygon fill="#181818" points="468,600.2,478,604.2,468,608.2,472,604.2" style="stroke:#181818;stroke-width:1.0;"/><line style="stroke:#181818;stroke-width:1.0;" x1="116" x2="474" y1="604.2" y2="604.2"/><text fill="#000000" font-family="NanumGothic" font-size="13" lengthAdjust="spacing" textLength="176" x="123" y="599.21">ResetRequest(OnIdle, evseId)</text><polygon fill="#181818" points="122,629.15,112,633.15,122,637.15,118,633.15" style="stroke:#181818;stroke-width:1.0;"/><line style="stroke:#181818;stroke-width:1.0;stroke-dasharray:2.0,2.0;" x1="116" x2="484" y1="633.15" y2="633.15"/><text fill="#000000" font-family="NanumGothic" font-size="13" lengthAdjust="spacing" textLength="163" x="128" y="628.16">ResetResponse(Scheduled)</text><path d="M346,646.15 L346,700.15 L623,700.15 L623,656.15 L613,646.15 L346,646.15 " fill="#7D5393" style="stroke:#000000;stroke-width:0.5;"/><path d="M613,646.15 L613,656.15 L623,656.15 L613,646.15 " fill="#7D5393" style="stroke:#000000;stroke-width:0.5;"/><text fill="#FFFFFF" font-family="NanumGothic" font-size="13" lengthAdjust="spacing" textLength="170" x="352" y="663.11">Wait for transaction to end,</text><text fill="#FFFFFF" font-family="NanumGothic" font-size="13" lengthAdjust="spacing" textLength="189" x="352" y="678.06">and optionally set connector(s)</text><text fill="#FFFFFF" font-family="NanumGothic" font-size="13" lengthAdjust="spacing" textLength="256" x="352" y="693.01">to Unavailable when the transaction ends.</text><line style="stroke:#181818;stroke-width:1.0;" x1="485" x2="532" y1="721.95" y2="721.95"/><line style="stroke:#181818;stroke-width:1.0;" x1="532" x2="532" y1="721.95" y2="734.95"/><line style="stroke:#181818;stroke-width:1.0;" x1="491" x2="532" y1="734.95" y2="734.95"/><polygon fill="#181818" points="501,730.95,491,734.95,501,738.95,497,734.95" style="stroke:#181818;stroke-width:1.0;"/><text fill="#000000" font-family="NanumGothic" font-size="13" lengthAdjust="spacing" textLength="64" x="497" y="716.96">reset EVSE</text><path d="M74.5,754.95 L146.5,754.95 L146.5,761.9 L136.5,771.9 L74.5,771.9 L74.5,754.95 " fill="#EEEEEE" style="stroke:#000000;stroke-width:1.5;"/><rect fill="none" height="74.85" style="stroke:#000000;stroke-width:1.5;" width="480.5" x="74.5" y="754.95"/><text fill="#000000" font-family="NanumGothic" font-size="13" font-weight="bold" lengthAdjust="spacing" textLength="27" x="89.5" y="767.91">loop</text><text fill="#000000" font-family="NanumGothic" font-size="11" font-weight="bold" lengthAdjust="spacing" textLength="140" x="161.5" y="767.07">[for all connectors of EVSE]</text><polygon fill="#181818" points="127,788.85,117,792.85,127,796.85,123,792.85" style="stroke:#181818;stroke-width:1.0;"/><line style="stroke:#181818;stroke-width:1.0;" x1="121" x2="479" y1="792.85" y2="792.85"/><text fill="#000000" font-family="NanumGothic" font-size="13" lengthAdjust="spacing" textLength="345" x="133" y="787.86">StatusNotificationRequest(Available, evseId, connectorId)</text><polygon fill="#181818" points="473,817.8,483,821.8,473,825.8,477,821.8" style="stroke:#181818;stroke-width:1.0;"/><line style="stroke:#181818;stroke-width:1.0;stroke-dasharray:2.0,2.0;" x1="111" x2="479" y1="821.8" y2="821.8"/><text fill="#000000" font-family="NanumGothic" font-size="13" lengthAdjust="spacing" textLength="176" x="118" y="816.81">StatusNotificationResponse()</text><!--SRC=[jLJ1JkGm3BttAxoS1cccMgvpG0B4WSCi4jrTBkmXD2uJASGbIOlu-tNITEYqtLaDWgfLLCTviP-V_KsPKZSImVatZNdTFEii4wKd2oTNnUq920UyPhMmNfMg5iQ7ZKsHTZR5Q6ihx9CoJr1uuHMPpYqPauqlq1xkqA67iN-M0HZo21eh3rHDpW8_FwqmZeFaVmTXRH78yCkBXMUo2DU_Ysl7pcXan0kud0UipcFGQx3TzGNR8uBWEsCwqN5JHC_zkzTTp7Vuqg3pYrjp8pMUxW6C4uMn2LQx21AOgpaBN1Jb5cMZKGP0YPEOgFPmqPAINAb0E5F6x1Xy1Jzauy7m7PN5TmO0D54D5JCZj8QIZC5GNnVENxH2QV6eX-upCVSX1qFZVf1NbIhZNa_6BoDwg6MUvwS9QP96X8_qpl4xXv_u6O2EsPbQPpJ3GkZai5COjMXdNU-5yf6lFMOzXTFBw25OLLmGjZEbRn2KjEDruReusNz02hnkqO0OGWOubuyrEaFzc2MBZqGphNEa4C_fpngkoB2M6eJBxsUmubyjuV8Vw0SOHkqmTNGGqf5DFEZXTBgd1BwiRvU0hSCR-UNzEqbzfhcFr-EdoD5lyPC4EIZy8J8FJA9q-aF3PpV5-g8kty6x2izEeW_DeGxjFyDcEg72uE7lBm00]--></g></svg>