<?xml version="1.0" encoding="us-ascii" standalone="no"?><svg xmlns="http://www.w3.org/2000/svg" xmlns:xlink="http://www.w3.org/1999/xlink" contentStyleType="text/css" height="587px" preserveAspectRatio="none" style="width:714px;height:587px;background:#FFFFFF;" version="1.1" viewBox="0 0 714 587" width="714px" zoomAndPan="magnify"><defs/><g><rect fill="#FFFFFF" height="260.55" style="stroke:#181818;stroke-width:1.0;" width="10" x="47.5" y="93.1"/><rect fill="#FFFFFF" height="115.8" style="stroke:#181818;stroke-width:1.0;" width="10" x="174.5" y="114.05"/><rect fill="#FFFFFF" height="303.55" style="stroke:#181818;stroke-width:1.0;" width="10" x="174.5" y="258.8"/><rect fill="#FFFFFF" height="28.95" style="stroke:#181818;stroke-width:1.0;" width="10" x="676.5" y="143"/><rect fill="#FFFFFF" height="28.95" style="stroke:#181818;stroke-width:1.0;" width="10" x="676.5" y="200.9"/><rect fill="#FFFFFF" height="28.95" style="stroke:#181818;stroke-width:1.0;" width="10" x="676.5" y="504.45"/><rect fill="none" height="45.9" style="stroke:#000000;stroke-width:1.5;" width="239.5" x="10" y="315.75"/><rect fill="none" height="58.9" style="stroke:#000000;stroke-width:1.5;" width="268" x="109.5" y="375.65"/><line style="stroke:#181818;stroke-width:0.5;stroke-dasharray:5.0,5.0;" x1="52" x2="52" y1="83.1" y2="580.35"/><line style="stroke:#181818;stroke-width:0.5;stroke-dasharray:5.0,5.0;" x1="179.5" x2="179.5" y1="83.1" y2="580.35"/><line style="stroke:#181818;stroke-width:0.5;stroke-dasharray:5.0,5.0;" x1="681" x2="681" y1="83.1" y2="580.35"/><text fill="#000000" font-family="NanumGothic" font-size="14" lengthAdjust="spacing" textLength="59" x="20" y="79.88">EV Driver</text><ellipse cx="52.5" cy="14.5" fill="#E2E2F0" rx="8" ry="8" style="stroke:#7D5393;stroke-width:1.5;"/><path d="M52.5,22.5 L52.5,49.5 M39.5,30.5 L65.5,30.5 M52.5,49.5 L39.5,64.5 M52.5,49.5 L65.5,64.5 " fill="none" style="stroke:#7D5393;stroke-width:1.5;"/><rect fill="#7D5393" height="30.1" rx="2.5" ry="2.5" style="stroke:#181818;stroke-width:0.5;" width="120" x="119.5" y="52"/><text fill="#FFFFFF" font-family="NanumGothic" font-size="14" lengthAdjust="spacing" textLength="106" x="126.5" y="71.88">Charging Station</text><rect fill="#7D5393" height="30.1" rx="2.5" ry="2.5" style="stroke:#181818;stroke-width:0.5;" width="53" x="655" y="52"/><text fill="#FFFFFF" font-family="NanumGothic" font-size="14" lengthAdjust="spacing" textLength="39" x="662" y="71.88">CSMS</text><rect fill="#FFFFFF" height="260.55" style="stroke:#181818;stroke-width:1.0;" width="10" x="47.5" y="93.1"/><rect fill="#FFFFFF" height="115.8" style="stroke:#181818;stroke-width:1.0;" width="10" x="174.5" y="114.05"/><rect fill="#FFFFFF" height="303.55" style="stroke:#181818;stroke-width:1.0;" width="10" x="174.5" y="258.8"/><rect fill="#FFFFFF" height="28.95" style="stroke:#181818;stroke-width:1.0;" width="10" x="676.5" y="143"/><rect fill="#FFFFFF" height="28.95" style="stroke:#181818;stroke-width:1.0;" width="10" x="676.5" y="200.9"/><rect fill="#FFFFFF" height="28.95" style="stroke:#181818;stroke-width:1.0;" width="10" x="676.5" y="504.45"/><polygon fill="#181818" points="162.5,110.05,172.5,114.05,162.5,118.05,166.5,114.05" style="stroke:#181818;stroke-width:1.0;"/><line style="stroke:#181818;stroke-width:1.0;" x1="57.5" x2="168.5" y1="114.05" y2="114.05"/><text fill="#000000" font-family="NanumGothic" font-size="13" lengthAdjust="spacing" textLength="73" x="64.5" y="109.06">Plugin cable</text><polygon fill="#181818" points="664.5,139,674.5,143,664.5,147,668.5,143" style="stroke:#181818;stroke-width:1.0;"/><line style="stroke:#181818;stroke-width:1.0;" x1="184.5" x2="670.5" y1="143" y2="143"/><text fill="#000000" font-family="NanumGothic" font-size="13" lengthAdjust="spacing" textLength="223" x="191.5" y="138.01">StatusNotificationRequest(Occupied)</text><polygon fill="#181818" points="195.5,167.95,185.5,171.95,195.5,175.95,191.5,171.95" style="stroke:#181818;stroke-width:1.0;"/><line style="stroke:#181818;stroke-width:1.0;stroke-dasharray:2.0,2.0;" x1="189.5" x2="680.5" y1="171.95" y2="171.95"/><text fill="#000000" font-family="NanumGothic" font-size="13" lengthAdjust="spacing" textLength="176" x="201.5" y="166.96">StatusNotificationResponse()</text><polygon fill="#181818" points="664.5,196.9,674.5,200.9,664.5,204.9,668.5,200.9" style="stroke:#181818;stroke-width:1.0;"/><line style="stroke:#181818;stroke-width:1.0;" x1="184.5" x2="670.5" y1="200.9" y2="200.9"/><text fill="#000000" font-family="NanumGothic" font-size="13" lengthAdjust="spacing" textLength="300" x="191.5" y="195.91">TransactionEventRequest(eventType = Started,...)</text><polygon fill="#181818" points="190.5,225.85,180.5,229.85,190.5,233.85,186.5,229.85" style="stroke:#181818;stroke-width:1.0;"/><line style="stroke:#181818;stroke-width:1.0;stroke-dasharray:2.0,2.0;" x1="184.5" x2="680.5" y1="229.85" y2="229.85"/><text fill="#000000" font-family="NanumGothic" font-size="13" lengthAdjust="spacing" textLength="183" x="196.5" y="224.86">TransactionEventResponse(...)</text><polygon fill="#181818" points="162.5,254.8,172.5,258.8,162.5,262.8,166.5,258.8" style="stroke:#181818;stroke-width:1.0;"/><line style="stroke:#181818;stroke-width:1.0;" x1="57.5" x2="168.5" y1="258.8" y2="258.8"/><text fill="#000000" font-family="NanumGothic" font-size="13" lengthAdjust="spacing" textLength="98" x="64.5" y="253.81">Present IdToken</text><line style="stroke:#181818;stroke-width:1.0;" x1="184.5" x2="226.5" y1="287.75" y2="287.75"/><line style="stroke:#181818;stroke-width:1.0;" x1="226.5" x2="226.5" y1="287.75" y2="300.75"/><line style="stroke:#181818;stroke-width:1.0;" x1="185.5" x2="226.5" y1="300.75" y2="300.75"/><polygon fill="#181818" points="195.5,296.75,185.5,300.75,195.5,304.75,191.5,300.75" style="stroke:#181818;stroke-width:1.0;"/><text fill="#000000" font-family="NanumGothic" font-size="13" lengthAdjust="spacing" textLength="167" x="191.5" y="282.76">check authorization cache()</text><path d="M10,315.75 L76,315.75 L76,322.7 L66,332.7 L10,332.7 L10,315.75 " fill="#EEEEEE" style="stroke:#000000;stroke-width:1.5;"/><rect fill="none" height="45.9" style="stroke:#000000;stroke-width:1.5;" width="239.5" x="10" y="315.75"/><text fill="#000000" font-family="NanumGothic" font-size="13" font-weight="bold" lengthAdjust="spacing" textLength="21" x="25" y="328.71">opt</text><polygon fill="#181818" points="63.5,349.65,53.5,353.65,63.5,357.65,59.5,353.65" style="stroke:#181818;stroke-width:1.0;"/><line style="stroke:#181818;stroke-width:1.0;" x1="57.5" x2="173.5" y1="353.65" y2="353.65"/><text fill="#000000" font-family="NanumGothic" font-size="13" lengthAdjust="spacing" textLength="69" x="69.5" y="348.66">notification</text><path d="M109.5,375.65 L175.5,375.65 L175.5,382.6 L165.5,392.6 L109.5,392.6 L109.5,375.65 " fill="#EEEEEE" style="stroke:#000000;stroke-width:1.5;"/><rect fill="none" height="58.9" style="stroke:#000000;stroke-width:1.5;" width="268" x="109.5" y="375.65"/><text fill="#000000" font-family="NanumGothic" font-size="13" font-weight="bold" lengthAdjust="spacing" textLength="21" x="124.5" y="388.61">opt</text><text fill="#000000" font-family="NanumGothic" font-size="11" font-weight="bold" lengthAdjust="spacing" textLength="182" x="190.5" y="387.77">[if cable not permanently attached]</text><line style="stroke:#181818;stroke-width:1.0;" x1="184.5" x2="226.5" y1="413.55" y2="413.55"/><line style="stroke:#181818;stroke-width:1.0;" x1="226.5" x2="226.5" y1="413.55" y2="426.55"/><line style="stroke:#181818;stroke-width:1.0;" x1="185.5" x2="226.5" y1="426.55" y2="426.55"/><polygon fill="#181818" points="195.5,422.55,185.5,426.55,195.5,430.55,191.5,426.55" style="stroke:#181818;stroke-width:1.0;"/><text fill="#000000" font-family="NanumGothic" font-size="13" lengthAdjust="spacing" textLength="89" x="191.5" y="408.56">lock connector</text><line style="stroke:#181818;stroke-width:1.0;" x1="184.5" x2="226.5" y1="462.5" y2="462.5"/><line style="stroke:#181818;stroke-width:1.0;" x1="226.5" x2="226.5" y1="462.5" y2="475.5"/><line style="stroke:#181818;stroke-width:1.0;" x1="185.5" x2="226.5" y1="475.5" y2="475.5"/><polygon fill="#181818" points="195.5,471.5,185.5,475.5,195.5,479.5,191.5,475.5" style="stroke:#181818;stroke-width:1.0;"/><text fill="#000000" font-family="NanumGothic" font-size="13" lengthAdjust="spacing" textLength="108" x="191.5" y="457.51">Start energy offer</text><polygon fill="#181818" points="664.5,500.45,674.5,504.45,664.5,508.45,668.5,504.45" style="stroke:#181818;stroke-width:1.0;"/><line style="stroke:#181818;stroke-width:1.0;" x1="184.5" x2="670.5" y1="504.45" y2="504.45"/><text fill="#000000" font-family="NanumGothic" font-size="13" lengthAdjust="spacing" textLength="473" x="191.5" y="499.46">TransactionEventRequest(eventType = Updated, chargingState = Charging,...)</text><polygon fill="#181818" points="195.5,529.4,185.5,533.4,195.5,537.4,191.5,533.4" style="stroke:#181818;stroke-width:1.0;"/><line style="stroke:#181818;stroke-width:1.0;stroke-dasharray:2.0,2.0;" x1="189.5" x2="680.5" y1="533.4" y2="533.4"/><text fill="#000000" font-family="NanumGothic" font-size="13" lengthAdjust="spacing" textLength="183" x="201.5" y="528.41">TransactionEventResponse(...)</text><polygon fill="#181818" points="701,558.35,711,562.35,701,566.35,705,562.35" style="stroke:#181818;stroke-width:1.0;"/><line style="stroke:#181818;stroke-width:1.0;" x1="179.5" x2="707" y1="562.35" y2="562.35"/><text fill="#000000" font-family="NanumGothic" font-size="13" lengthAdjust="spacing" textLength="315" x="186.5" y="557.36">continue E01 - Start Transaction - Cable Plugin First</text><!--SRC=[jPDDJyCm38Rl_HLcfqrY5LmhmMKCYGCVOcFtaBfRj2u9YJkf_7gIj6LLLYOcnAMg7UVnwuzS2CdBAaUmL9UOwcfN9WdZf0oCvYkuCsAFPWJCmdpL68bcXWGNcac2qMp3p5h8DIo8aL0oX7RErXVTM3mkcYZt4tA9FICyy9Fk3wQtCIg3bx9oDd3sNkBXSfmnYHm1vV9bGMTbdnI9Gl1mzeeV5LeQFtDUQO7vf8SD4lqNfaDYXc1MAsbnF4boZ3a_QLeQ9gqFLdA-HqcT8lJ6ijO8DpwL8SmlqpGzG-0nkPKNCB72lXqtzFHG35f7XuTygROepvnBJECRv5jW5MsK4PzD76VEwvgQA4sG00nmEeKPoDv0N6olhEybGvatB54qk-GlWKQpOz9LKjR0Y7pEV3ZPaUXIESrSIOd-yNW-_AxQC5X0YMPTWoeA_mB-j2blEcT-KrmV3nH_q57_TOS6j6U-BoHavVf_TGtJjkGUr_bcOGZjwxuNnjAfTVm2]--></g></svg>