<?xml version="1.0" encoding="us-ascii" standalone="no"?><svg xmlns="http://www.w3.org/2000/svg" xmlns:xlink="http://www.w3.org/1999/xlink" contentStyleType="text/css" height="1018px" preserveAspectRatio="none" style="width:553px;height:1018px;background:#FFFFFF;" version="1.1" viewBox="0 0 553 1018" width="553px" zoomAndPan="magnify"><defs/><g><rect fill="#FFFFFF" height="221.65" style="stroke:#181818;stroke-width:1.0;" width="10" x="117" y="67.05"/><rect fill="#FFFFFF" height="546.2" style="stroke:#181818;stroke-width:1.0;" width="10" x="117" y="456.35"/><rect fill="#FFFFFF" height="170.75" style="stroke:#181818;stroke-width:1.0;" width="10" x="122" y="756.9"/><rect fill="#FFFFFF" height="28.95" style="stroke:#181818;stroke-width:1.0;" width="10" x="506" y="67.05"/><rect fill="#FFFFFF" height="28.95" style="stroke:#181818;stroke-width:1.0;" width="10" x="506" y="124.95"/><rect fill="#FFFFFF" height="28.95" style="stroke:#181818;stroke-width:1.0;" width="10" x="506" y="259.75"/><rect fill="#FFFFFF" height="28.95" style="stroke:#181818;stroke-width:1.0;" width="10" x="506" y="456.35"/><rect fill="#FFFFFF" height="28.95" style="stroke:#181818;stroke-width:1.0;" width="10" x="506" y="598.15"/><rect fill="#FFFFFF" height="28.95" style="stroke:#181818;stroke-width:1.0;" width="10" x="506" y="756.9"/><rect fill="#FFFFFF" height="28.95" style="stroke:#181818;stroke-width:1.0;" width="10" x="506" y="898.7"/><rect fill="none" height="151.75" style="stroke:#000000;stroke-width:1.5;" width="495.5" x="52" y="418.45"/><rect fill="none" height="151.75" style="stroke:#000000;stroke-width:1.5;" width="495.5" x="52" y="719"/><rect fill="none" height="51.9" style="stroke:#000000;stroke-width:1.5;" width="116" x="64" y="942.65"/><line style="stroke:#181818;stroke-width:0.5;stroke-dasharray:5.0,5.0;" x1="122" x2="122" y1="36.1" y2="1011.55"/><line style="stroke:#181818;stroke-width:0.5;stroke-dasharray:5.0,5.0;" x1="510.5" x2="510.5" y1="36.1" y2="1011.55"/><rect fill="#7D5393" height="30.1" rx="2.5" ry="2.5" style="stroke:#181818;stroke-width:0.5;" width="120" x="62" y="5"/><text fill="#FFFFFF" font-family="NanumGothic" font-size="14" lengthAdjust="spacing" textLength="106" x="69" y="24.88">Charging Station</text><rect fill="#7D5393" height="30.1" rx="2.5" ry="2.5" style="stroke:#181818;stroke-width:0.5;" width="53" x="484.5" y="5"/><text fill="#FFFFFF" font-family="NanumGothic" font-size="14" lengthAdjust="spacing" textLength="39" x="491.5" y="24.88">CSMS</text><rect fill="#FFFFFF" height="221.65" style="stroke:#181818;stroke-width:1.0;" width="10" x="117" y="67.05"/><rect fill="#FFFFFF" height="546.2" style="stroke:#181818;stroke-width:1.0;" width="10" x="117" y="456.35"/><rect fill="#FFFFFF" height="170.75" style="stroke:#181818;stroke-width:1.0;" width="10" x="122" y="756.9"/><rect fill="#FFFFFF" height="28.95" style="stroke:#181818;stroke-width:1.0;" width="10" x="506" y="67.05"/><rect fill="#FFFFFF" height="28.95" style="stroke:#181818;stroke-width:1.0;" width="10" x="506" y="124.95"/><rect fill="#FFFFFF" height="28.95" style="stroke:#181818;stroke-width:1.0;" width="10" x="506" y="259.75"/><rect fill="#FFFFFF" height="28.95" style="stroke:#181818;stroke-width:1.0;" width="10" x="506" y="456.35"/><rect fill="#FFFFFF" height="28.95" style="stroke:#181818;stroke-width:1.0;" width="10" x="506" y="598.15"/><rect fill="#FFFFFF" height="28.95" style="stroke:#181818;stroke-width:1.0;" width="10" x="506" y="756.9"/><rect fill="#FFFFFF" height="28.95" style="stroke:#181818;stroke-width:1.0;" width="10" x="506" y="898.7"/><polygon fill="#181818" points="138,63.05,128,67.05,138,71.05,134,67.05" style="stroke:#181818;stroke-width:1.0;"/><line style="stroke:#181818;stroke-width:1.0;" x1="132" x2="505" y1="67.05" y2="67.05"/><text fill="#000000" font-family="NanumGothic" font-size="13" lengthAdjust="spacing" textLength="160" x="144" y="62.06">UpdateFirmwareRequest()</text><polygon fill="#181818" points="499,92,509,96,499,100,503,96" style="stroke:#181818;stroke-width:1.0;"/><line style="stroke:#181818;stroke-width:1.0;stroke-dasharray:2.0,2.0;" x1="127" x2="505" y1="96" y2="96"/><text fill="#000000" font-family="NanumGothic" font-size="13" lengthAdjust="spacing" textLength="169" x="134" y="91.01">UpdateFirmwareResponse()</text><polygon fill="#181818" points="494,120.95,504,124.95,494,128.95,498,124.95" style="stroke:#181818;stroke-width:1.0;"/><line style="stroke:#181818;stroke-width:1.0;" x1="127" x2="500" y1="124.95" y2="124.95"/><text fill="#000000" font-family="NanumGothic" font-size="13" lengthAdjust="spacing" textLength="360" x="134" y="119.96">FirmwareStatusNotificationRequest(Status = Downloading)</text><polygon fill="#181818" points="138,149.9,128,153.9,138,157.9,134,153.9" style="stroke:#181818;stroke-width:1.0;"/><line style="stroke:#181818;stroke-width:1.0;stroke-dasharray:2.0,2.0;" x1="132" x2="510" y1="153.9" y2="153.9"/><text fill="#000000" font-family="NanumGothic" font-size="13" lengthAdjust="spacing" textLength="233" x="144" y="148.91">FirmwareStatusNotificationResponse()</text><ellipse cx="126.5" cy="195.1" fill="none" rx="4" ry="4" style="stroke:#181818;stroke-width:1.5;"/><line style="stroke:#181818;stroke-width:1.0;" x1="127" x2="169" y1="182.85" y2="182.85"/><line style="stroke:#181818;stroke-width:1.0;" x1="169" x2="169" y1="182.85" y2="195.85"/><line style="stroke:#181818;stroke-width:1.0;" x1="132" x2="169" y1="195.85" y2="195.85"/><polygon fill="#181818" points="142,191.85,132,195.85,142,199.85,138,195.85" style="stroke:#181818;stroke-width:1.0;"/><text fill="#000000" font-family="NanumGothic" font-size="13" lengthAdjust="spacing" textLength="121" x="134" y="177.86">Download firmware</text><path d="M35,208.85 L35,232.85 L208,232.85 L208,218.85 L198,208.85 L35,208.85 " fill="#7D5393" style="stroke:#000000;stroke-width:0.5;"/><path d="M198,208.85 L198,218.85 L208,218.85 L198,208.85 " fill="#7D5393" style="stroke:#000000;stroke-width:0.5;"/><text fill="#FFFFFF" font-family="NanumGothic" font-size="13" lengthAdjust="spacing" textLength="152" x="41" y="225.81">Downloading firmware...</text><polygon fill="#181818" points="494,255.75,504,259.75,494,263.75,498,259.75" style="stroke:#181818;stroke-width:1.0;"/><line style="stroke:#181818;stroke-width:1.0;" x1="127" x2="500" y1="259.75" y2="259.75"/><text fill="#000000" font-family="NanumGothic" font-size="13" lengthAdjust="spacing" textLength="356" x="134" y="254.76">FirmwareStatusNotificationRequest(Status = Downloaded)</text><polygon fill="#181818" points="133,284.7,123,288.7,133,292.7,129,288.7" style="stroke:#181818;stroke-width:1.0;"/><line style="stroke:#181818;stroke-width:1.0;stroke-dasharray:2.0,2.0;" x1="127" x2="510" y1="288.7" y2="288.7"/><text fill="#000000" font-family="NanumGothic" font-size="13" lengthAdjust="spacing" textLength="233" x="139" y="283.71">FirmwareStatusNotificationResponse()</text><path d="M5,301.7 L5,325.7 L239,325.7 L239,311.7 L229,301.7 L5,301.7 " fill="#7D5393" style="stroke:#000000;stroke-width:0.5;"/><path d="M229,301.7 L229,311.7 L239,311.7 L229,301.7 " fill="#7D5393" style="stroke:#000000;stroke-width:0.5;"/><text fill="#FFFFFF" font-family="NanumGothic" font-size="13" lengthAdjust="spacing" textLength="213" x="11" y="318.66">Waiting for transactions to finish...</text><path d="M127,336.65 L127,405.65 L375,405.65 L375,346.65 L365,336.65 L127,336.65 " fill="#7D5393" style="stroke:#000000;stroke-width:0.5;"/><path d="M365,336.65 L365,346.65 L375,346.65 L365,336.65 " fill="#7D5393" style="stroke:#000000;stroke-width:0.5;"/><text fill="#FFFFFF" font-family="NanumGothic" font-size="13" lengthAdjust="spacing" textLength="191" x="133" y="353.61">It is not fixed in what order the</text><text fill="#FFFFFF" font-family="NanumGothic" font-size="13" lengthAdjust="spacing" textLength="220" x="133" y="368.56">FirmwareStatusNotificationRequests</text><text fill="#FFFFFF" font-family="NanumGothic" font-size="13" lengthAdjust="spacing" textLength="227" x="133" y="383.51">are sent and in what order rebooting</text><text fill="#FFFFFF" font-family="NanumGothic" font-size="13" lengthAdjust="spacing" textLength="71" x="133" y="398.46">takes place.</text><path d="M52,418.45 L118,418.45 L118,425.4 L108,435.4 L52,435.4 L52,418.45 " fill="#EEEEEE" style="stroke:#000000;stroke-width:1.5;"/><rect fill="none" height="151.75" style="stroke:#000000;stroke-width:1.5;" width="495.5" x="52" y="418.45"/><text fill="#000000" font-family="NanumGothic" font-size="13" font-weight="bold" lengthAdjust="spacing" textLength="21" x="67" y="431.41">opt</text><text fill="#000000" font-family="NanumGothic" font-size="11" font-weight="bold" lengthAdjust="spacing" textLength="237" x="133" y="430.57">[if reboot required before installing firmware]</text><polygon fill="#181818" points="494,452.35,504,456.35,494,460.35,498,456.35" style="stroke:#181818;stroke-width:1.0;"/><line style="stroke:#181818;stroke-width:1.0;" x1="127" x2="500" y1="456.35" y2="456.35"/><text fill="#000000" font-family="NanumGothic" font-size="13" lengthAdjust="spacing" textLength="322" x="134" y="451.36">FirmwareStatusNotificationRequest(InstallRebooting)</text><polygon fill="#181818" points="138,481.3,128,485.3,138,489.3,134,485.3" style="stroke:#181818;stroke-width:1.0;"/><line style="stroke:#181818;stroke-width:1.0;stroke-dasharray:2.0,2.0;" x1="132" x2="510" y1="485.3" y2="485.3"/><text fill="#000000" font-family="NanumGothic" font-size="13" lengthAdjust="spacing" textLength="233" x="144" y="480.31">FirmwareStatusNotificationResponse()</text><ellipse cx="126.5" cy="526.5" fill="none" rx="4" ry="4" style="stroke:#181818;stroke-width:1.5;"/><line style="stroke:#181818;stroke-width:1.0;" x1="127" x2="169" y1="514.25" y2="514.25"/><line style="stroke:#181818;stroke-width:1.0;" x1="169" x2="169" y1="514.25" y2="527.25"/><line style="stroke:#181818;stroke-width:1.0;" x1="132" x2="169" y1="527.25" y2="527.25"/><polygon fill="#181818" points="142,523.25,132,527.25,142,531.25,138,527.25" style="stroke:#181818;stroke-width:1.0;"/><text fill="#000000" font-family="NanumGothic" font-size="13" lengthAdjust="spacing" textLength="44" x="134" y="509.26">Reboot</text><path d="M74,540.25 L74,564.25 L170,564.25 L170,550.25 L160,540.25 L74,540.25 " fill="#7D5393" style="stroke:#000000;stroke-width:0.5;"/><path d="M160,540.25 L160,550.25 L170,550.25 L160,540.25 " fill="#7D5393" style="stroke:#000000;stroke-width:0.5;"/><text fill="#FFFFFF" font-family="NanumGothic" font-size="13" lengthAdjust="spacing" textLength="75" x="80" y="557.21">Rebooting...</text><polygon fill="#181818" points="494,594.15,504,598.15,494,602.15,498,598.15" style="stroke:#181818;stroke-width:1.0;"/><line style="stroke:#181818;stroke-width:1.0;" x1="127" x2="500" y1="598.15" y2="598.15"/><text fill="#000000" font-family="NanumGothic" font-size="13" lengthAdjust="spacing" textLength="333" x="134" y="593.16">FirmwareStatusNotificationRequest(Status = Installing)</text><polygon fill="#181818" points="138,623.1,128,627.1,138,631.1,134,627.1" style="stroke:#181818;stroke-width:1.0;"/><line style="stroke:#181818;stroke-width:1.0;stroke-dasharray:2.0,2.0;" x1="132" x2="510" y1="627.1" y2="627.1"/><text fill="#000000" font-family="NanumGothic" font-size="13" lengthAdjust="spacing" textLength="233" x="144" y="622.11">FirmwareStatusNotificationResponse()</text><ellipse cx="126.5" cy="668.3" fill="none" rx="4" ry="4" style="stroke:#181818;stroke-width:1.5;"/><line style="stroke:#181818;stroke-width:1.0;" x1="127" x2="169" y1="656.05" y2="656.05"/><line style="stroke:#181818;stroke-width:1.0;" x1="169" x2="169" y1="656.05" y2="669.05"/><line style="stroke:#181818;stroke-width:1.0;" x1="132" x2="169" y1="669.05" y2="669.05"/><polygon fill="#181818" points="142,665.05,132,669.05,142,673.05,138,669.05" style="stroke:#181818;stroke-width:1.0;"/><text fill="#000000" font-family="NanumGothic" font-size="13" lengthAdjust="spacing" textLength="94" x="134" y="651.06">Install firmware</text><path d="M78,682.05 L78,706.05 L165,706.05 L165,692.05 L155,682.05 L78,682.05 " fill="#7D5393" style="stroke:#000000;stroke-width:0.5;"/><path d="M155,682.05 L155,692.05 L165,692.05 L155,682.05 " fill="#7D5393" style="stroke:#000000;stroke-width:0.5;"/><text fill="#FFFFFF" font-family="NanumGothic" font-size="13" lengthAdjust="spacing" textLength="66" x="84" y="699.01">Installing...</text><path d="M52,719 L118,719 L118,725.95 L108,735.95 L52,735.95 L52,719 " fill="#EEEEEE" style="stroke:#000000;stroke-width:1.5;"/><rect fill="none" height="151.75" style="stroke:#000000;stroke-width:1.5;" width="495.5" x="52" y="719"/><text fill="#000000" font-family="NanumGothic" font-size="13" font-weight="bold" lengthAdjust="spacing" textLength="21" x="67" y="731.96">opt</text><text fill="#000000" font-family="NanumGothic" font-size="11" font-weight="bold" lengthAdjust="spacing" textLength="283" x="133" y="731.12">[if reboot required after installing to activate firmware]</text><polygon fill="#181818" points="494,752.9,504,756.9,494,760.9,498,756.9" style="stroke:#181818;stroke-width:1.0;"/><line style="stroke:#181818;stroke-width:1.0;" x1="132" x2="500" y1="756.9" y2="756.9"/><text fill="#000000" font-family="NanumGothic" font-size="13" lengthAdjust="spacing" textLength="322" x="139" y="751.91">FirmwareStatusNotificationRequest(InstallRebooting)</text><polygon fill="#181818" points="143,781.85,133,785.85,143,789.85,139,785.85" style="stroke:#181818;stroke-width:1.0;"/><line style="stroke:#181818;stroke-width:1.0;stroke-dasharray:2.0,2.0;" x1="137" x2="510" y1="785.85" y2="785.85"/><text fill="#000000" font-family="NanumGothic" font-size="13" lengthAdjust="spacing" textLength="233" x="149" y="780.86">FirmwareStatusNotificationResponse()</text><ellipse cx="131.5" cy="827.05" fill="none" rx="4" ry="4" style="stroke:#181818;stroke-width:1.5;"/><line style="stroke:#181818;stroke-width:1.0;" x1="132" x2="174" y1="814.8" y2="814.8"/><line style="stroke:#181818;stroke-width:1.0;" x1="174" x2="174" y1="814.8" y2="827.8"/><line style="stroke:#181818;stroke-width:1.0;" x1="137" x2="174" y1="827.8" y2="827.8"/><polygon fill="#181818" points="147,823.8,137,827.8,147,831.8,143,827.8" style="stroke:#181818;stroke-width:1.0;"/><text fill="#000000" font-family="NanumGothic" font-size="13" lengthAdjust="spacing" textLength="44" x="139" y="809.81">Reboot</text><path d="M74,840.8 L74,864.8 L170,864.8 L170,850.8 L160,840.8 L74,840.8 " fill="#7D5393" style="stroke:#000000;stroke-width:0.5;"/><path d="M160,840.8 L160,850.8 L170,850.8 L160,840.8 " fill="#7D5393" style="stroke:#000000;stroke-width:0.5;"/><text fill="#FFFFFF" font-family="NanumGothic" font-size="13" lengthAdjust="spacing" textLength="75" x="80" y="857.76">Rebooting...</text><polygon fill="#181818" points="494,894.7,504,898.7,494,902.7,498,898.7" style="stroke:#181818;stroke-width:1.0;"/><line style="stroke:#181818;stroke-width:1.0;" x1="132" x2="500" y1="898.7" y2="898.7"/><text fill="#000000" font-family="NanumGothic" font-size="13" lengthAdjust="spacing" textLength="274" x="139" y="893.71">FirmwareStatusNotificationRequest(Installed)</text><polygon fill="#181818" points="138,923.65,128,927.65,138,931.65,134,927.65" style="stroke:#181818;stroke-width:1.0;"/><line style="stroke:#181818;stroke-width:1.0;stroke-dasharray:2.0,2.0;" x1="132" x2="510" y1="927.65" y2="927.65"/><text fill="#000000" font-family="NanumGothic" font-size="13" lengthAdjust="spacing" textLength="233" x="144" y="922.66">FirmwareStatusNotificationResponse()</text><path d="M64,942.65 L130,942.65 L130,949.6 L120,959.6 L64,959.6 L64,942.65 " fill="#EEEEEE" style="stroke:#000000;stroke-width:1.5;"/><rect fill="none" height="51.9" style="stroke:#000000;stroke-width:1.5;" width="116" x="64" y="942.65"/><text fill="#000000" font-family="NanumGothic" font-size="13" font-weight="bold" lengthAdjust="spacing" textLength="21" x="79" y="955.61">opt</text><path d="M74,964.6 L74,988.6 L170,988.6 L170,974.6 L160,964.6 L74,964.6 " fill="#7D5393" style="stroke:#000000;stroke-width:0.5;"/><path d="M160,964.6 L160,974.6 L170,974.6 L160,964.6 " fill="#7D5393" style="stroke:#000000;stroke-width:0.5;"/><text fill="#FFFFFF" font-family="NanumGothic" font-size="13" lengthAdjust="spacing" textLength="75" x="80" y="981.56">Rebooting...</text><!--SRC=[xLHDKy903BttLqHESg0_m1czw3Z3GGymZkVGfdJ7ibjsKz1_RxPV5Cg73ZXwy09jaxoyl7tPAwMZh8W977za5ER58Wk272shIEMe6GRtATgvqdEOCh8oUW3eeFbOVzkfc3vDgonv20B_2wExtPeRUCbZP7fKTh56InDQ5kJuUXXWn6ebaLwNJQ02tWx3o3UHI1_PvKOx4kYOJc4q44sn3nJksR1AL5JcD4Ih2Dp2Wrdhp60iCCCUntBuVTCVQ_0TlgOFtH22fEuH1De8X5cHxOaANVvjHHY60UaOVDrbLQBufqNglkyCUrI7LrHSQc0ii4NjF8pq03QYYrOktLQbnB9gdZAOP0_Uc44vdolLxnI3qh1EKP9jBFqv9SavAQ2J98c38rajrBiebcR6UDQInlX63l8C8-hIDBdmIEfC-LiMoWgR6ScS972ECSkwPozGPnpuk0ASDCI6Ve13vz4DbLO0EDCC0BsTsJVEdgsf6FlqOoO1Q2VpRW1eXPQ7ospAk3sIlt6Tr7o-U9jis6zlom4ROi82qt6XB5jByj-Hl-h8MhZVlR75DsS9y0a0]--></g></svg>