<?xml version="1.0" encoding="us-ascii" standalone="no"?><svg xmlns="http://www.w3.org/2000/svg" xmlns:xlink="http://www.w3.org/1999/xlink" contentStyleType="text/css" height="416px" preserveAspectRatio="none" style="width:726px;height:416px;background:#FFFFFF;" version="1.1" viewBox="0 0 726 416" width="726px" zoomAndPan="magnify"><defs/><g><rect fill="#FFFFFF" height="28.95" style="stroke:#181818;stroke-width:1.0;" width="10" x="41.5" y="67.05"/><rect fill="#FFFFFF" height="28.95" style="stroke:#181818;stroke-width:1.0;" width="10" x="41.5" y="148.9"/><rect fill="#FFFFFF" height="28.95" style="stroke:#181818;stroke-width:1.0;" width="10" x="41.5" y="237.75"/><rect fill="#FFFFFF" height="28.95" style="stroke:#181818;stroke-width:1.0;" width="10" x="41.5" y="326.6"/><rect fill="#FFFFFF" height="28.95" style="stroke:#181818;stroke-width:1.0;" width="10" x="422.5" y="67.05"/><rect fill="#FFFFFF" height="28.95" style="stroke:#181818;stroke-width:1.0;" width="10" x="422.5" y="148.9"/><rect fill="#FFFFFF" height="28.95" style="stroke:#181818;stroke-width:1.0;" width="10" x="422.5" y="237.75"/><rect fill="#FFFFFF" height="64.9" style="stroke:#181818;stroke-width:1.0;" width="10" x="422.5" y="326.6"/><rect fill="none" height="74.85" style="stroke:#000000;stroke-width:1.5;" width="487.5" x="10" y="111"/><rect fill="none" height="74.85" style="stroke:#000000;stroke-width:1.5;" width="487.5" x="10" y="199.85"/><rect fill="none" height="74.85" style="stroke:#000000;stroke-width:1.5;" width="487.5" x="10" y="288.7"/><line style="stroke:#181818;stroke-width:0.5;stroke-dasharray:5.0,5.0;" x1="46" x2="46" y1="36.1" y2="409.5"/><line style="stroke:#181818;stroke-width:0.5;stroke-dasharray:5.0,5.0;" x1="427.5" x2="427.5" y1="36.1" y2="409.5"/><rect fill="#7D5393" height="30.1" rx="2.5" ry="2.5" style="stroke:#181818;stroke-width:0.5;" width="53" x="20" y="5"/><text fill="#FFFFFF" font-family="NanumGothic" font-size="14" lengthAdjust="spacing" textLength="39" x="27" y="24.88">CSMS</text><rect fill="#7D5393" height="30.1" rx="2.5" ry="2.5" style="stroke:#181818;stroke-width:0.5;" width="120" x="367.5" y="5"/><text fill="#FFFFFF" font-family="NanumGothic" font-size="14" lengthAdjust="spacing" textLength="106" x="374.5" y="24.88">Charging Station</text><rect fill="#FFFFFF" height="28.95" style="stroke:#181818;stroke-width:1.0;" width="10" x="41.5" y="67.05"/><rect fill="#FFFFFF" height="28.95" style="stroke:#181818;stroke-width:1.0;" width="10" x="41.5" y="148.9"/><rect fill="#FFFFFF" height="28.95" style="stroke:#181818;stroke-width:1.0;" width="10" x="41.5" y="237.75"/><rect fill="#FFFFFF" height="28.95" style="stroke:#181818;stroke-width:1.0;" width="10" x="41.5" y="326.6"/><rect fill="#FFFFFF" height="28.95" style="stroke:#181818;stroke-width:1.0;" width="10" x="422.5" y="67.05"/><rect fill="#FFFFFF" height="28.95" style="stroke:#181818;stroke-width:1.0;" width="10" x="422.5" y="148.9"/><rect fill="#FFFFFF" height="28.95" style="stroke:#181818;stroke-width:1.0;" width="10" x="422.5" y="237.75"/><rect fill="#FFFFFF" height="64.9" style="stroke:#181818;stroke-width:1.0;" width="10" x="422.5" y="326.6"/><polygon fill="#181818" points="62.5,63.05,52.5,67.05,62.5,71.05,58.5,67.05" style="stroke:#181818;stroke-width:1.0;"/><line style="stroke:#181818;stroke-width:1.0;" x1="56.5" x2="421.5" y1="67.05" y2="67.05"/><text fill="#000000" font-family="NanumGothic" font-size="13" lengthAdjust="spacing" textLength="170" x="68.5" y="62.06">BootNotificationRequest(...)</text><polygon fill="#181818" points="415.5,92,425.5,96,415.5,100,419.5,96" style="stroke:#181818;stroke-width:1.0;"/><line style="stroke:#181818;stroke-width:1.0;stroke-dasharray:2.0,2.0;" x1="46.5" x2="421.5" y1="96" y2="96"/><text fill="#000000" font-family="NanumGothic" font-size="13" lengthAdjust="spacing" textLength="347" x="53.5" y="91.01">BootNotificationResponse(status  Pending, interval  X,...)</text><path d="M10,111 L76,111 L76,117.95 L66,127.95 L10,127.95 L10,111 " fill="#EEEEEE" style="stroke:#000000;stroke-width:1.5;"/><rect fill="none" height="74.85" style="stroke:#000000;stroke-width:1.5;" width="487.5" x="10" y="111"/><text fill="#000000" font-family="NanumGothic" font-size="13" font-weight="bold" lengthAdjust="spacing" textLength="21" x="25" y="123.96">opt</text><polygon fill="#181818" points="410.5,144.9,420.5,148.9,410.5,152.9,414.5,148.9" style="stroke:#181818;stroke-width:1.0;"/><line style="stroke:#181818;stroke-width:1.0;" x1="51.5" x2="416.5" y1="148.9" y2="148.9"/><text fill="#000000" font-family="NanumGothic" font-size="13" lengthAdjust="spacing" textLength="148" x="58.5" y="143.91">GetVariablesRequest(...)</text><polygon fill="#181818" points="57.5,173.85,47.5,177.85,57.5,181.85,53.5,177.85" style="stroke:#181818;stroke-width:1.0;"/><line style="stroke:#181818;stroke-width:1.0;stroke-dasharray:2.0,2.0;" x1="51.5" x2="426.5" y1="177.85" y2="177.85"/><text fill="#000000" font-family="NanumGothic" font-size="13" lengthAdjust="spacing" textLength="157" x="63.5" y="172.86">GetVariablesResponse(...)</text><path d="M10,199.85 L76,199.85 L76,206.8 L66,216.8 L10,216.8 L10,199.85 " fill="#EEEEEE" style="stroke:#000000;stroke-width:1.5;"/><rect fill="none" height="74.85" style="stroke:#000000;stroke-width:1.5;" width="487.5" x="10" y="199.85"/><text fill="#000000" font-family="NanumGothic" font-size="13" font-weight="bold" lengthAdjust="spacing" textLength="21" x="25" y="212.81">opt</text><polygon fill="#181818" points="410.5,233.75,420.5,237.75,410.5,241.75,414.5,237.75" style="stroke:#181818;stroke-width:1.0;"/><line style="stroke:#181818;stroke-width:1.0;" x1="51.5" x2="416.5" y1="237.75" y2="237.75"/><text fill="#000000" font-family="NanumGothic" font-size="13" lengthAdjust="spacing" textLength="145" x="58.5" y="232.76">SetVariablesRequest(...)</text><polygon fill="#181818" points="57.5,262.7,47.5,266.7,57.5,270.7,53.5,266.7" style="stroke:#181818;stroke-width:1.0;"/><line style="stroke:#181818;stroke-width:1.0;stroke-dasharray:2.0,2.0;" x1="51.5" x2="426.5" y1="266.7" y2="266.7"/><text fill="#000000" font-family="NanumGothic" font-size="13" lengthAdjust="spacing" textLength="154" x="63.5" y="261.71">SetVariablesResponse(...)</text><path d="M10,288.7 L82,288.7 L82,295.65 L72,305.65 L10,305.65 L10,288.7 " fill="#EEEEEE" style="stroke:#000000;stroke-width:1.5;"/><rect fill="none" height="74.85" style="stroke:#000000;stroke-width:1.5;" width="487.5" x="10" y="288.7"/><text fill="#000000" font-family="NanumGothic" font-size="13" font-weight="bold" lengthAdjust="spacing" textLength="27" x="25" y="301.66">loop</text><text fill="#000000" font-family="NanumGothic" font-size="11" font-weight="bold" lengthAdjust="spacing" textLength="169" x="97" y="300.82">[with interval X while "Pending"]</text><polygon fill="#181818" points="62.5,322.6,52.5,326.6,62.5,330.6,58.5,326.6" style="stroke:#181818;stroke-width:1.0;"/><line style="stroke:#181818;stroke-width:1.0;" x1="56.5" x2="421.5" y1="326.6" y2="326.6"/><text fill="#000000" font-family="NanumGothic" font-size="13" lengthAdjust="spacing" textLength="170" x="68.5" y="321.61">BootNotificationRequest(...)</text><polygon fill="#181818" points="410.5,351.55,420.5,355.55,410.5,359.55,414.5,355.55" style="stroke:#181818;stroke-width:1.0;"/><line style="stroke:#181818;stroke-width:1.0;stroke-dasharray:2.0,2.0;" x1="46.5" x2="416.5" y1="355.55" y2="355.55"/><text fill="#000000" font-family="NanumGothic" font-size="13" lengthAdjust="spacing" textLength="347" x="53.5" y="350.56">BootNotificationResponse(status  Pending, interval  X,...)</text><ellipse cx="716" cy="390.75" fill="none" rx="4" ry="4" style="stroke:#181818;stroke-width:1.5;"/><polygon fill="#181818" points="699,387.5,709,391.5,699,395.5,703,391.5" style="stroke:#181818;stroke-width:1.0;"/><line style="stroke:#181818;stroke-width:1.0;" x1="427.5" x2="705" y1="391.5" y2="391.5"/><text fill="#000000" font-family="NanumGothic" font-size="13" lengthAdjust="spacing" textLength="265" x="434.5" y="386.51">Continue B01 - Cold Boot Charging Station</text><!--SRC=[jLCxJyCm4DxzApuo5Qc9OEt0q0vC84Gar8N194Txah53V6d5loSlqURHq0vThFZk_3tkBZTi4rEa12y_XgAi-39APJeNJZZJLX2iugSuWFQeFdgfhSutR3U8HGixsvIrmJQcL2-0yA66Mc3fd3mxuKzEwimhVHVaPHP5qQtIYV1E2mtm3ebAZwfEX1LcjsuCtcVEUfhvigBmm0lPj7mm1rkXVASDi9xNv2cTf3zErG9S9WfeP8oeU2Hvqpdh3qE-On3e0XtV-oq41atywsANeBNOCapuw2Oh0MKt_dKJNzjDVAQRXcF2N-t6E9TXpx8zZ7YD_POD8MYd7up9EMj3BxHyZJqzCSIX7_UE1LRE2jk2iBoxHrXUJLgJe_yVJ-t_Bm00]--></g></svg>