<?xml version="1.0" encoding="us-ascii" standalone="no"?><svg xmlns="http://www.w3.org/2000/svg" xmlns:xlink="http://www.w3.org/1999/xlink" contentStyleType="text/css" height="340px" preserveAspectRatio="none" style="width:656px;height:340px;background:#FFFFFF;" version="1.1" viewBox="0 0 656 340" width="656px" zoomAndPan="magnify"><defs/><g><rect fill="#FFFFFF" height="70.9" style="stroke:#181818;stroke-width:1.0;" width="10" x="30.5" y="91"/><rect fill="#FFFFFF" height="28.95" style="stroke:#181818;stroke-width:1.0;" width="10" x="30.5" y="190.85"/><rect fill="#FFFFFF" height="70.9" style="stroke:#181818;stroke-width:1.0;" width="10" x="306.5" y="91"/><rect fill="#FFFFFF" height="28.95" style="stroke:#181818;stroke-width:1.0;" width="10" x="306.5" y="190.85"/><rect fill="#FFFFFF" height="28.95" style="stroke:#181818;stroke-width:1.0;" width="10" x="306.5" y="279.7"/><rect fill="#FFFFFF" height="28.95" style="stroke:#181818;stroke-width:1.0;" width="10" x="608.5" y="279.7"/><rect fill="none" height="174.7" style="stroke:#000000;stroke-width:1.5;" width="418.5" x="10" y="53.1"/><rect fill="none" height="74.85" style="stroke:#000000;stroke-width:1.5;" width="408.5" x="241.5" y="241.8"/><line style="stroke:#181818;stroke-width:0.5;stroke-dasharray:5.0,5.0;" x1="35" x2="35" y1="36.1" y2="333.65"/><line style="stroke:#181818;stroke-width:0.5;stroke-dasharray:5.0,5.0;" x1="311.5" x2="311.5" y1="36.1" y2="333.65"/><line style="stroke:#181818;stroke-width:0.5;stroke-dasharray:5.0,5.0;" x1="613" x2="613" y1="36.1" y2="333.65"/><rect fill="#7D5393" height="30.1" rx="2.5" ry="2.5" style="stroke:#181818;stroke-width:0.5;" width="31" x="20" y="5"/><text fill="#FFFFFF" font-family="NanumGothic" font-size="14" lengthAdjust="spacing" textLength="17" x="27" y="24.88">EV</text><rect fill="#7D5393" height="30.1" rx="2.5" ry="2.5" style="stroke:#181818;stroke-width:0.5;" width="120" x="251.5" y="5"/><text fill="#FFFFFF" font-family="NanumGothic" font-size="14" lengthAdjust="spacing" textLength="106" x="258.5" y="24.88">Charging Station</text><rect fill="#7D5393" height="30.1" rx="2.5" ry="2.5" style="stroke:#181818;stroke-width:0.5;" width="53" x="587" y="5"/><text fill="#FFFFFF" font-family="NanumGothic" font-size="14" lengthAdjust="spacing" textLength="39" x="594" y="24.88">CSMS</text><rect fill="#FFFFFF" height="70.9" style="stroke:#181818;stroke-width:1.0;" width="10" x="30.5" y="91"/><rect fill="#FFFFFF" height="28.95" style="stroke:#181818;stroke-width:1.0;" width="10" x="30.5" y="190.85"/><rect fill="#FFFFFF" height="70.9" style="stroke:#181818;stroke-width:1.0;" width="10" x="306.5" y="91"/><rect fill="#FFFFFF" height="28.95" style="stroke:#181818;stroke-width:1.0;" width="10" x="306.5" y="190.85"/><rect fill="#FFFFFF" height="28.95" style="stroke:#181818;stroke-width:1.0;" width="10" x="306.5" y="279.7"/><rect fill="#FFFFFF" height="28.95" style="stroke:#181818;stroke-width:1.0;" width="10" x="608.5" y="279.7"/><path d="M10,53.1 L95,53.1 L95,60.05 L85,70.05 L10,70.05 L10,53.1 " fill="#EEEEEE" style="stroke:#000000;stroke-width:1.5;"/><rect fill="none" height="174.7" style="stroke:#000000;stroke-width:1.5;" width="418.5" x="10" y="53.1"/><text fill="#000000" font-family="NanumGothic" font-size="13" font-weight="bold" lengthAdjust="spacing" textLength="40" x="25" y="66.06">15118</text><polygon fill="#181818" points="294.5,87,304.5,91,294.5,95,298.5,91" style="stroke:#181818;stroke-width:1.0;"/><line style="stroke:#181818;stroke-width:1.0;" x1="40.5" x2="300.5" y1="91" y2="91"/><text fill="#000000" font-family="NanumGothic" font-size="13" lengthAdjust="spacing" textLength="252" x="47.5" y="86.01">PowerDeliveryReq(ChargeProgress=Stop)</text><line style="stroke:#181818;stroke-width:1.0;" x1="316.5" x2="358.5" y1="119.95" y2="119.95"/><line style="stroke:#181818;stroke-width:1.0;" x1="358.5" x2="358.5" y1="119.95" y2="132.95"/><line style="stroke:#181818;stroke-width:1.0;" x1="317.5" x2="358.5" y1="132.95" y2="132.95"/><polygon fill="#181818" points="327.5,128.95,317.5,132.95,327.5,136.95,323.5,132.95" style="stroke:#181818;stroke-width:1.0;"/><text fill="#000000" font-family="NanumGothic" font-size="13" lengthAdjust="spacing" textLength="93" x="323.5" y="114.96">open contactor</text><polygon fill="#181818" points="46.5,157.9,36.5,161.9,46.5,165.9,42.5,161.9" style="stroke:#181818;stroke-width:1.0;"/><line style="stroke:#181818;stroke-width:1.0;stroke-dasharray:2.0,2.0;" x1="40.5" x2="310.5" y1="161.9" y2="161.9"/><text fill="#000000" font-family="NanumGothic" font-size="13" lengthAdjust="spacing" textLength="116" x="52.5" y="156.91">PowerDeliveryRes()</text><polygon fill="#181818" points="294.5,186.85,304.5,190.85,294.5,194.85,298.5,190.85" style="stroke:#181818;stroke-width:1.0;"/><line style="stroke:#181818;stroke-width:1.0;" x1="40.5" x2="300.5" y1="190.85" y2="190.85"/><text fill="#000000" font-family="NanumGothic" font-size="13" lengthAdjust="spacing" textLength="106" x="47.5" y="185.86">SessionStopReq()</text><polygon fill="#181818" points="46.5,215.8,36.5,219.8,46.5,223.8,42.5,219.8" style="stroke:#181818;stroke-width:1.0;"/><line style="stroke:#181818;stroke-width:1.0;stroke-dasharray:2.0,2.0;" x1="40.5" x2="310.5" y1="219.8" y2="219.8"/><text fill="#000000" font-family="NanumGothic" font-size="13" lengthAdjust="spacing" textLength="104" x="52.5" y="214.81">SessionStopRes()</text><path d="M241.5,241.8 L321.5,241.8 L321.5,248.75 L311.5,258.75 L241.5,258.75 L241.5,241.8 " fill="#EEEEEE" style="stroke:#000000;stroke-width:1.5;"/><rect fill="none" height="74.85" style="stroke:#000000;stroke-width:1.5;" width="408.5" x="241.5" y="241.8"/><text fill="#000000" font-family="NanumGothic" font-size="13" font-weight="bold" lengthAdjust="spacing" textLength="35" x="256.5" y="254.76">OCPP</text><polygon fill="#181818" points="596.5,275.7,606.5,279.7,596.5,283.7,600.5,279.7" style="stroke:#181818;stroke-width:1.0;"/><line style="stroke:#181818;stroke-width:1.0;" x1="316.5" x2="602.5" y1="279.7" y2="279.7"/><text fill="#000000" font-family="NanumGothic" font-size="13" lengthAdjust="spacing" textLength="278" x="323.5" y="274.71">TransactionEventRequest(eventType = Ended)</text><polygon fill="#181818" points="322.5,304.65,312.5,308.65,322.5,312.65,318.5,308.65" style="stroke:#181818;stroke-width:1.0;"/><line style="stroke:#181818;stroke-width:1.0;stroke-dasharray:2.0,2.0;" x1="316.5" x2="612.5" y1="308.65" y2="308.65"/><text fill="#000000" font-family="NanumGothic" font-size="13" lengthAdjust="spacing" textLength="171" x="328.5" y="303.66">TransactionEventResponse()</text><!--SRC=[fP8zRuCm48PtViKr4nbQYQ5I5IbTKiOgg8xOBJXHI-JisWSH_xusJIGmf5BL2T_7U_S-DW-AghQh4HmFBJwPxjmcYP6MLQMC98PDNcv0EiZBUVhmAMsZg071afMciUcMlEOYXNWNFrt-a2IDrPs1x3dBNXBmu-7nDTRleD0Nj6_OgXxjy85VwTY1XTMDHUVsWhNPUhciMFMICTYSHB4VNujIgrkrGO9A4_j1sgwgl2ml5_vS6ipKEBSpYLSCtI4N7iyV0c3W_YVarUviw9_D8jMtPpiUYkBEPVh7tS79Id9XaAQyHsAFqA7Z54Dm6Wp27dAgiTx-HZ8jZVyCZDyHPt5XovNEQ78OKowNJ8jXJU3y1W00]--></g></svg>