<?xml version="1.0" encoding="us-ascii" standalone="no"?><svg xmlns="http://www.w3.org/2000/svg" xmlns:xlink="http://www.w3.org/1999/xlink" contentStyleType="text/css" height="689px" preserveAspectRatio="none" style="width:626px;height:689px;background:#FFFFFF;" version="1.1" viewBox="0 0 626 689" width="626px" zoomAndPan="magnify"><defs/><g><rect fill="#FFFFFF" height="28.95" style="stroke:#181818;stroke-width:1.0;" width="10" x="51.5" y="181.9"/><rect fill="#FFFFFF" height="28.95" style="stroke:#181818;stroke-width:1.0;" width="10" x="51.5" y="287.7"/><rect fill="#FFFFFF" height="28.95" style="stroke:#181818;stroke-width:1.0;" width="10" x="51.5" y="449.45"/><rect fill="#FFFFFF" height="28.95" style="stroke:#181818;stroke-width:1.0;" width="10" x="51.5" y="522"/><rect fill="#FFFFFF" height="28.95" style="stroke:#181818;stroke-width:1.0;" width="10" x="51.5" y="628.15"/><rect fill="#FFFFFF" height="28.95" style="stroke:#181818;stroke-width:1.0;" width="10" x="535.5" y="181.9"/><rect fill="#FFFFFF" height="28.95" style="stroke:#181818;stroke-width:1.0;" width="10" x="535.5" y="287.7"/><rect fill="#FFFFFF" height="28.95" style="stroke:#181818;stroke-width:1.0;" width="10" x="535.5" y="449.45"/><rect fill="#FFFFFF" height="28.95" style="stroke:#181818;stroke-width:1.0;" width="10" x="535.5" y="522"/><rect fill="#FFFFFF" height="28.95" style="stroke:#181818;stroke-width:1.0;" width="10" x="535.5" y="628.15"/><rect fill="none" height="58.9" style="stroke:#000000;stroke-width:1.5;" width="149" x="470.5" y="95.05"/><rect fill="none" height="147.75" style="stroke:#000000;stroke-width:1.5;" width="609.5" x="10" y="225.85"/><rect fill="none" height="74.85" style="stroke:#000000;stroke-width:1.5;" width="590.5" x="20" y="249.8"/><rect fill="none" height="178.35" style="stroke:#000000;stroke-width:1.5;" width="610.5" x="10" y="387.6"/><rect fill="none" height="147.4" style="stroke:#000000;stroke-width:1.5;" width="590.5" x="20" y="411.55"/><rect fill="none" height="85.15" style="stroke:#000000;stroke-width:1.5;" width="590.5" x="20" y="579.95"/><line style="stroke:#181818;stroke-width:0.5;stroke-dasharray:5.0,5.0;" x1="56" x2="56" y1="36.1" y2="682.1"/><line style="stroke:#181818;stroke-width:0.5;stroke-dasharray:5.0,5.0;" x1="540.5" x2="540.5" y1="36.1" y2="682.1"/><rect fill="#7D5393" height="30.1" rx="2.5" ry="2.5" style="stroke:#181818;stroke-width:0.5;" width="53" x="30" y="5"/><text fill="#FFFFFF" font-family="NanumGothic" font-size="14" lengthAdjust="spacing" textLength="39" x="37" y="24.88">CSMS</text><rect fill="#7D5393" height="30.1" rx="2.5" ry="2.5" style="stroke:#181818;stroke-width:0.5;" width="120" x="480.5" y="5"/><text fill="#FFFFFF" font-family="NanumGothic" font-size="14" lengthAdjust="spacing" textLength="106" x="487.5" y="24.88">Charging Station</text><rect fill="#FFFFFF" height="28.95" style="stroke:#181818;stroke-width:1.0;" width="10" x="51.5" y="181.9"/><rect fill="#FFFFFF" height="28.95" style="stroke:#181818;stroke-width:1.0;" width="10" x="51.5" y="287.7"/><rect fill="#FFFFFF" height="28.95" style="stroke:#181818;stroke-width:1.0;" width="10" x="51.5" y="449.45"/><rect fill="#FFFFFF" height="28.95" style="stroke:#181818;stroke-width:1.0;" width="10" x="51.5" y="522"/><rect fill="#FFFFFF" height="28.95" style="stroke:#181818;stroke-width:1.0;" width="10" x="51.5" y="628.15"/><rect fill="#FFFFFF" height="28.95" style="stroke:#181818;stroke-width:1.0;" width="10" x="535.5" y="181.9"/><rect fill="#FFFFFF" height="28.95" style="stroke:#181818;stroke-width:1.0;" width="10" x="535.5" y="287.7"/><rect fill="#FFFFFF" height="28.95" style="stroke:#181818;stroke-width:1.0;" width="10" x="535.5" y="449.45"/><rect fill="#FFFFFF" height="28.95" style="stroke:#181818;stroke-width:1.0;" width="10" x="535.5" y="522"/><rect fill="#FFFFFF" height="28.95" style="stroke:#181818;stroke-width:1.0;" width="10" x="535.5" y="628.15"/><line style="stroke:#181818;stroke-width:1.0;" x1="540.5" x2="582.5" y1="67.05" y2="67.05"/><line style="stroke:#181818;stroke-width:1.0;" x1="582.5" x2="582.5" y1="67.05" y2="80.05"/><line style="stroke:#181818;stroke-width:1.0;" x1="541.5" x2="582.5" y1="80.05" y2="80.05"/><polygon fill="#181818" points="551.5,76.05,541.5,80.05,551.5,84.05,547.5,80.05" style="stroke:#181818;stroke-width:1.0;"/><text fill="#000000" font-family="NanumGothic" font-size="13" lengthAdjust="spacing" textLength="59" x="547.5" y="62.06">Power up</text><path d="M470.5,95.05 L536.5,95.05 L536.5,102 L526.5,112 L470.5,112 L470.5,95.05 " fill="#EEEEEE" style="stroke:#000000;stroke-width:1.5;"/><rect fill="none" height="58.9" style="stroke:#000000;stroke-width:1.5;" width="149" x="470.5" y="95.05"/><text fill="#000000" font-family="NanumGothic" font-size="13" font-weight="bold" lengthAdjust="spacing" textLength="21" x="485.5" y="108.01">opt</text><line style="stroke:#181818;stroke-width:1.0;" x1="540.5" x2="582.5" y1="132.95" y2="132.95"/><line style="stroke:#181818;stroke-width:1.0;" x1="582.5" x2="582.5" y1="132.95" y2="145.95"/><line style="stroke:#181818;stroke-width:1.0;" x1="541.5" x2="582.5" y1="145.95" y2="145.95"/><polygon fill="#181818" points="551.5,141.95,541.5,145.95,551.5,149.95,547.5,145.95" style="stroke:#181818;stroke-width:1.0;"/><text fill="#000000" font-family="NanumGothic" font-size="13" lengthAdjust="spacing" textLength="60" x="547.5" y="127.96">Self check</text><polygon fill="#181818" points="72.5,177.9,62.5,181.9,72.5,185.9,68.5,181.9" style="stroke:#181818;stroke-width:1.0;"/><line style="stroke:#181818;stroke-width:1.0;" x1="66.5" x2="534.5" y1="181.9" y2="181.9"/><text fill="#000000" font-family="NanumGothic" font-size="13" lengthAdjust="spacing" textLength="303" x="78.5" y="176.91">BootNotificationRequest(reason, chargingStation)</text><polygon fill="#181818" points="528.5,206.85,538.5,210.85,528.5,214.85,532.5,210.85" style="stroke:#181818;stroke-width:1.0;"/><line style="stroke:#181818;stroke-width:1.0;stroke-dasharray:2.0,2.0;" x1="56.5" x2="534.5" y1="210.85" y2="210.85"/><text fill="#000000" font-family="NanumGothic" font-size="13" lengthAdjust="spacing" textLength="410" x="63.5" y="205.86">BootNotificationResponse(status = Accepted, currentTime, interval)</text><path d="M10,225.85 L76,225.85 L76,232.8 L66,242.8 L10,242.8 L10,225.85 " fill="#EEEEEE" style="stroke:#000000;stroke-width:1.5;"/><rect fill="none" height="147.75" style="stroke:#000000;stroke-width:1.5;" width="609.5" x="10" y="225.85"/><text fill="#000000" font-family="NanumGothic" font-size="13" font-weight="bold" lengthAdjust="spacing" textLength="21" x="25" y="238.81">opt</text><path d="M20,249.8 L92,249.8 L92,256.75 L82,266.75 L20,266.75 L20,249.8 " fill="#EEEEEE" style="stroke:#000000;stroke-width:1.5;"/><rect fill="none" height="74.85" style="stroke:#000000;stroke-width:1.5;" width="590.5" x="20" y="249.8"/><text fill="#000000" font-family="NanumGothic" font-size="13" font-weight="bold" lengthAdjust="spacing" textLength="27" x="35" y="262.76">loop</text><text fill="#000000" font-family="NanumGothic" font-size="11" font-weight="bold" lengthAdjust="spacing" textLength="100" x="107" y="261.92">[for all Connectors]</text><polygon fill="#181818" points="72.5,283.7,62.5,287.7,72.5,291.7,68.5,287.7" style="stroke:#181818;stroke-width:1.0;"/><line style="stroke:#181818;stroke-width:1.0;" x1="66.5" x2="534.5" y1="287.7" y2="287.7"/><text fill="#000000" font-family="NanumGothic" font-size="13" lengthAdjust="spacing" textLength="351" x="78.5" y="282.71">StatusNotificationRequest(connectorStatus = Unavailable)</text><polygon fill="#181818" points="528.5,312.65,538.5,316.65,528.5,320.65,532.5,316.65" style="stroke:#181818;stroke-width:1.0;"/><line style="stroke:#181818;stroke-width:1.0;stroke-dasharray:2.0,2.0;" x1="56.5" x2="534.5" y1="316.65" y2="316.65"/><text fill="#000000" font-family="NanumGothic" font-size="13" lengthAdjust="spacing" textLength="176" x="63.5" y="311.66">StatusNotificationResponse()</text><line style="stroke:#181818;stroke-width:1.0;" x1="540.5" x2="582.5" y1="352.6" y2="352.6"/><line style="stroke:#181818;stroke-width:1.0;" x1="582.5" x2="582.5" y1="352.6" y2="365.6"/><line style="stroke:#181818;stroke-width:1.0;" x1="541.5" x2="582.5" y1="365.6" y2="365.6"/><polygon fill="#181818" points="551.5,361.6,541.5,365.6,551.5,369.6,547.5,365.6" style="stroke:#181818;stroke-width:1.0;"/><text fill="#000000" font-family="NanumGothic" font-size="13" lengthAdjust="spacing" textLength="60" x="547.5" y="347.61">Self check</text><path d="M10,387.6 L82,387.6 L82,394.55 L72,404.55 L10,404.55 L10,387.6 " fill="#EEEEEE" style="stroke:#000000;stroke-width:1.5;"/><rect fill="none" height="178.35" style="stroke:#000000;stroke-width:1.5;" width="610.5" x="10" y="387.6"/><text fill="#000000" font-family="NanumGothic" font-size="13" font-weight="bold" lengthAdjust="spacing" textLength="27" x="25" y="400.56">loop</text><text fill="#000000" font-family="NanumGothic" font-size="11" font-weight="bold" lengthAdjust="spacing" textLength="100" x="97" y="399.72">[for all Connectors]</text><path d="M20,411.55 L80,411.55 L80,418.5 L70,428.5 L20,428.5 L20,411.55 " fill="#EEEEEE" style="stroke:#000000;stroke-width:1.5;"/><rect fill="none" height="147.4" style="stroke:#000000;stroke-width:1.5;" width="590.5" x="20" y="411.55"/><text fill="#000000" font-family="NanumGothic" font-size="13" font-weight="bold" lengthAdjust="spacing" textLength="15" x="35" y="424.51">alt</text><text fill="#000000" font-family="NanumGothic" font-size="11" font-weight="bold" lengthAdjust="spacing" textLength="361" x="95" y="423.67">[Connector was set to Unavailable/Reserved/Faulted prior to (re)boot]</text><polygon fill="#181818" points="72.5,445.45,62.5,449.45,72.5,453.45,68.5,449.45" style="stroke:#181818;stroke-width:1.0;"/><line style="stroke:#181818;stroke-width:1.0;" x1="66.5" x2="534.5" y1="449.45" y2="449.45"/><text fill="#000000" font-family="NanumGothic" font-size="13" lengthAdjust="spacing" textLength="460" x="78.5" y="444.46">StatusNotificationRequest(connectorStatus = Unavailable/Reserved/Faulted)</text><polygon fill="#181818" points="528.5,474.4,538.5,478.4,528.5,482.4,532.5,478.4" style="stroke:#181818;stroke-width:1.0;"/><line style="stroke:#181818;stroke-width:1.0;stroke-dasharray:2.0,2.0;" x1="56.5" x2="534.5" y1="478.4" y2="478.4"/><text fill="#000000" font-family="NanumGothic" font-size="13" lengthAdjust="spacing" textLength="176" x="63.5" y="473.41">StatusNotificationResponse()</text><line style="stroke:#000000;stroke-width:1.0;stroke-dasharray:2.0,2.0;" x1="20" x2="610.5" y1="487.4" y2="487.4"/><text fill="#000000" font-family="NanumGothic" font-size="11" font-weight="bold" lengthAdjust="spacing" textLength="28" x="25" y="497.52">[else]</text><polygon fill="#181818" points="72.5,518,62.5,522,72.5,526,68.5,522" style="stroke:#181818;stroke-width:1.0;"/><line style="stroke:#181818;stroke-width:1.0;" x1="66.5" x2="534.5" y1="522" y2="522"/><text fill="#000000" font-family="NanumGothic" font-size="13" lengthAdjust="spacing" textLength="332" x="78.5" y="517.01">StatusNotificationRequest(Connectortatus = Available)</text><polygon fill="#181818" points="528.5,546.95,538.5,550.95,528.5,554.95,532.5,550.95" style="stroke:#181818;stroke-width:1.0;"/><line style="stroke:#181818;stroke-width:1.0;stroke-dasharray:2.0,2.0;" x1="56.5" x2="534.5" y1="550.95" y2="550.95"/><text fill="#000000" font-family="NanumGothic" font-size="13" lengthAdjust="spacing" textLength="176" x="63.5" y="545.96">StatusNotificationResponse()</text><path d="M20,579.95 L92,579.95 L92,586.9 L82,596.9 L20,596.9 L20,579.95 " fill="#EEEEEE" style="stroke:#000000;stroke-width:1.5;"/><rect fill="none" height="85.15" style="stroke:#000000;stroke-width:1.5;" width="590.5" x="20" y="579.95"/><text fill="#000000" font-family="NanumGothic" font-size="13" font-weight="bold" lengthAdjust="spacing" textLength="27" x="35" y="592.91">loop</text><text fill="#000000" font-family="NanumGothic" font-size="11" font-weight="bold" lengthAdjust="spacing" textLength="225" x="107" y="592.07">[while powered up and no other messages,</text><text fill="#000000" font-family="NanumGothic" font-size="11" font-weight="bold" lengthAdjust="spacing" textLength="340" x="113" y="604.72">with frequency based on Interval from BootNotificationResponse]</text><polygon fill="#181818" points="72.5,624.15,62.5,628.15,72.5,632.15,68.5,628.15" style="stroke:#181818;stroke-width:1.0;"/><line style="stroke:#181818;stroke-width:1.0;" x1="66.5" x2="534.5" y1="628.15" y2="628.15"/><text fill="#000000" font-family="NanumGothic" font-size="13" lengthAdjust="spacing" textLength="119" x="78.5" y="623.16">HeartbeatRequest()</text><polygon fill="#181818" points="528.5,653.1,538.5,657.1,528.5,661.1,532.5,657.1" style="stroke:#181818;stroke-width:1.0;"/><line style="stroke:#181818;stroke-width:1.0;stroke-dasharray:2.0,2.0;" x1="56.5" x2="534.5" y1="657.1" y2="657.1"/><text fill="#000000" font-family="NanumGothic" font-size="13" lengthAdjust="spacing" textLength="201" x="63.5" y="652.11">HeartbeatResponse(currentTime)</text><!--SRC=[rPJ1JYCn38RlUGel9oeLk2FjIhj820uWn2mtBcx6xKIaIKWyhNXxd32bPJfJ8IGENAAHxTX_FdlyopXjsveWyOkbqz0khL818njj0Zg6eulgfZe2J90_Ugu6uyAu1LICRBnx2-kCdKsfdW5E_lHZpk7Ehob26vJoWK41VEPIHNOEkY7zfCZLmuL4ypdyyvvlFPkvqSLpJyyj9JwEXCcxgUJuS76YKBDP8TFUOxQE34Fb4qw6jEsNJC6xHCT98je4l-6lrXIOQYdVnaYE_vibJS4ufhX2Er4rZShOTHKXGasWMUy3p7q4j1Okl7EasSSadc6W1KvL10tXqPiCrKRpWyCL6eipIvEITLJXHsVHM5IC0XkIqI5xAtK0Hz-Tom6KcVZQ98s3HCjR0wnbtXCniDz5SoRAfOTKdrrYQwN54AAHQ8cIaPlCP3I-fILxTNz0ZsoYSdmLo7iltd-hdpMWst43M3V64eIy2cLcsW3eQd0UF3Uo79UK4YueJU7HIQpX1kOnKt3w1MQOv8eWk-xMX_ZySdGBZVqN1VOLoOwV4VA6SNxUWQVjKHndk9EwGxUp-tAPWmpx13ExLm00]--></g></svg>