<?xml version="1.0" encoding="us-ascii" standalone="no"?><svg xmlns="http://www.w3.org/2000/svg" xmlns:xlink="http://www.w3.org/1999/xlink" contentStyleType="text/css" height="954px" preserveAspectRatio="none" style="width:923px;height:954px;background:#FFFFFF;" version="1.1" viewBox="0 0 923 954" width="923px" zoomAndPan="magnify"><defs/><g><rect fill="#FFFFFF" height="765.15" style="stroke:#181818;stroke-width:1.0;" width="10" x="30.5" y="172.9"/><rect fill="#FFFFFF" height="496.65" style="stroke:#181818;stroke-width:1.0;" width="10" x="196.5" y="102"/><rect fill="#FFFFFF" height="180.6" style="stroke:#181818;stroke-width:1.0;" width="10" x="196.5" y="713.5"/><rect fill="#FFFFFF" height="175.6" style="stroke:#181818;stroke-width:1.0;" width="10" x="556.5" y="172.9"/><rect fill="#FFFFFF" height="39.425" style="stroke:#181818;stroke-width:1.0;" width="10" x="556.5" y="559.225"/><rect fill="#FFFFFF" height="180.6" style="stroke:#181818;stroke-width:1.0;" width="10" x="556.5" y="713.5"/><rect fill="#FFFFFF" height="87.8" style="stroke:#181818;stroke-width:1.0;" width="10" x="885.5" y="231.75"/><rect fill="#FFFFFF" height="87.8" style="stroke:#181818;stroke-width:1.0;" width="10" x="885.5" y="777.35"/><rect fill="none" height="250.15" style="stroke:#000000;stroke-width:1.5;" width="774.5" x="10" y="363.5"/><rect fill="none" height="95.8" style="stroke:#000000;stroke-width:1.5;" width="643" x="131.5" y="510.85"/><line style="stroke:#181818;stroke-width:0.5;stroke-dasharray:5.0,5.0;" x1="35" x2="35" y1="36.1" y2="947.05"/><line style="stroke:#181818;stroke-width:0.5;stroke-dasharray:5.0,5.0;" x1="201.5" x2="201.5" y1="36.1" y2="947.05"/><line style="stroke:#181818;stroke-width:0.5;stroke-dasharray:5.0,5.0;" x1="561" x2="561" y1="36.1" y2="947.05"/><line style="stroke:#181818;stroke-width:0.5;stroke-dasharray:5.0,5.0;" x1="890" x2="890" y1="36.1" y2="947.05"/><rect fill="#7D5393" height="30.1" rx="2.5" ry="2.5" style="stroke:#181818;stroke-width:0.5;" width="31" x="20" y="5"/><text fill="#FFFFFF" font-family="NanumGothic" font-size="14" lengthAdjust="spacing" textLength="17" x="27" y="24.88">EV</text><rect fill="#7D5393" height="30.1" rx="2.5" ry="2.5" style="stroke:#181818;stroke-width:0.5;" width="120" x="141.5" y="5"/><text fill="#FFFFFF" font-family="NanumGothic" font-size="14" lengthAdjust="spacing" textLength="106" x="148.5" y="24.88">Charging Station</text><rect fill="#7D5393" height="30.1" rx="2.5" ry="2.5" style="stroke:#181818;stroke-width:0.5;" width="113" x="505" y="5"/><text fill="#FFFFFF" font-family="NanumGothic" font-size="14" lengthAdjust="spacing" textLength="99" x="512" y="24.88">Local Controller</text><rect fill="#7D5393" height="30.1" rx="2.5" ry="2.5" style="stroke:#181818;stroke-width:0.5;" width="53" x="864" y="5"/><text fill="#FFFFFF" font-family="NanumGothic" font-size="14" lengthAdjust="spacing" textLength="39" x="871" y="24.88">CSMS</text><rect fill="#FFFFFF" height="765.15" style="stroke:#181818;stroke-width:1.0;" width="10" x="30.5" y="172.9"/><rect fill="#FFFFFF" height="496.65" style="stroke:#181818;stroke-width:1.0;" width="10" x="196.5" y="102"/><rect fill="#FFFFFF" height="180.6" style="stroke:#181818;stroke-width:1.0;" width="10" x="196.5" y="713.5"/><rect fill="#FFFFFF" height="175.6" style="stroke:#181818;stroke-width:1.0;" width="10" x="556.5" y="172.9"/><rect fill="#FFFFFF" height="39.425" style="stroke:#181818;stroke-width:1.0;" width="10" x="556.5" y="559.225"/><rect fill="#FFFFFF" height="180.6" style="stroke:#181818;stroke-width:1.0;" width="10" x="556.5" y="713.5"/><rect fill="#FFFFFF" height="87.8" style="stroke:#181818;stroke-width:1.0;" width="10" x="885.5" y="231.75"/><rect fill="#FFFFFF" height="87.8" style="stroke:#181818;stroke-width:1.0;" width="10" x="885.5" y="777.35"/><path d="M17,51.1 L17,75.1 L909,75.1 L909,61.1 L899,51.1 L17,51.1 " fill="#7D5393" style="stroke:#000000;stroke-width:0.5;"/><path d="M899,51.1 L899,61.1 L909,61.1 L899,51.1 " fill="#7D5393" style="stroke:#000000;stroke-width:0.5;"/><text fill="#FFFFFF" font-family="NanumGothic" font-size="13" lengthAdjust="spacing" textLength="336" x="290.5" y="68.06">User authorization successful and transaction is started</text><polygon fill="#181818" points="46.5,98,36.5,102,46.5,106,42.5,102" style="stroke:#181818;stroke-width:1.0;"/><line style="stroke:#181818;stroke-width:1.0;" x1="40.5" x2="195.5" y1="102" y2="102"/><text fill="#000000" font-family="NanumGothic" font-size="13" lengthAdjust="spacing" textLength="132" x="52.5" y="97.01">set max current(limit)</text><line style="stroke:#181818;stroke-width:1.0;" x1="206.5" x2="248.5" y1="130.95" y2="130.95"/><line style="stroke:#181818;stroke-width:1.0;" x1="248.5" x2="248.5" y1="130.95" y2="143.95"/><line style="stroke:#181818;stroke-width:1.0;" x1="207.5" x2="248.5" y1="143.95" y2="143.95"/><polygon fill="#181818" points="217.5,139.95,207.5,143.95,217.5,147.95,213.5,143.95" style="stroke:#181818;stroke-width:1.0;"/><text fill="#000000" font-family="NanumGothic" font-size="13" lengthAdjust="spacing" textLength="102" x="213.5" y="125.96">switch power on</text><polygon fill="#181818" points="184.5,168.9,194.5,172.9,184.5,176.9,188.5,172.9" style="stroke:#181818;stroke-width:1.0;"/><line style="stroke:#181818;stroke-width:1.0;" x1="40.5" x2="190.5" y1="172.9" y2="172.9"/><text fill="#000000" font-family="NanumGothic" font-size="13" lengthAdjust="spacing" textLength="85" x="47.5" y="167.91">start charging</text><polygon fill="#181818" points="544.5,227.75,554.5,231.75,544.5,235.75,548.5,231.75" style="stroke:#181818;stroke-width:1.0;"/><line style="stroke:#181818;stroke-width:1.0;" x1="206.5" x2="550.5" y1="231.75" y2="231.75"/><text fill="#000000" font-family="NanumGothic" font-size="13" lengthAdjust="spacing" textLength="291" x="213.5" y="196.86">TransactionEventRequest(eventType = Updated,</text><text fill="#000000" font-family="NanumGothic" font-size="13" lengthAdjust="spacing" textLength="149" x="229.5" y="211.81">transactionId = AB1234,</text><text fill="#000000" font-family="NanumGothic" font-size="13" lengthAdjust="spacing" textLength="182" x="229.5" y="226.76">chargingState = Charging, ...)</text><polygon fill="#181818" points="873.5,286.6,883.5,290.6,873.5,294.6,877.5,290.6" style="stroke:#181818;stroke-width:1.0;"/><line style="stroke:#181818;stroke-width:1.0;" x1="566.5" x2="879.5" y1="290.6" y2="290.6"/><text fill="#000000" font-family="NanumGothic" font-size="13" lengthAdjust="spacing" textLength="291" x="573.5" y="255.71">TransactionEventRequest(eventType = Updated,</text><text fill="#000000" font-family="NanumGothic" font-size="13" lengthAdjust="spacing" textLength="149" x="589.5" y="270.66">transactionId = AB1234,</text><text fill="#000000" font-family="NanumGothic" font-size="13" lengthAdjust="spacing" textLength="182" x="589.5" y="285.61">chargingState = Charging, ...)</text><polygon fill="#181818" points="577.5,315.55,567.5,319.55,577.5,323.55,573.5,319.55" style="stroke:#181818;stroke-width:1.0;"/><line style="stroke:#181818;stroke-width:1.0;stroke-dasharray:2.0,2.0;" x1="571.5" x2="889.5" y1="319.55" y2="319.55"/><text fill="#000000" font-family="NanumGothic" font-size="13" lengthAdjust="spacing" textLength="183" x="583.5" y="314.56">TransactionEventResponse(...)</text><polygon fill="#181818" points="217.5,344.5,207.5,348.5,217.5,352.5,213.5,348.5" style="stroke:#181818;stroke-width:1.0;"/><line style="stroke:#181818;stroke-width:1.0;stroke-dasharray:2.0,2.0;" x1="211.5" x2="560.5" y1="348.5" y2="348.5"/><text fill="#000000" font-family="NanumGothic" font-size="13" lengthAdjust="spacing" textLength="183" x="223.5" y="343.51">TransactionEventResponse(...)</text><path d="M10,363.5 L82,363.5 L82,370.45 L72,380.45 L10,380.45 L10,363.5 " fill="#EEEEEE" style="stroke:#000000;stroke-width:1.5;"/><rect fill="none" height="250.15" style="stroke:#000000;stroke-width:1.5;" width="774.5" x="10" y="363.5"/><text fill="#000000" font-family="NanumGothic" font-size="13" font-weight="bold" lengthAdjust="spacing" textLength="27" x="25" y="376.46">loop</text><text fill="#000000" font-family="NanumGothic" font-size="11" font-weight="bold" lengthAdjust="spacing" textLength="229" x="97" y="375.62">[loop Change according to charging profile]</text><line style="stroke:#000000;stroke-width:1.0;stroke-dasharray:2.0,2.0;" x1="10" x2="784.5" y1="381.45" y2="381.45"/><text fill="#000000" font-family="NanumGothic" font-size="11" font-weight="bold" lengthAdjust="spacing" textLength="227" x="15" y="391.57">[for each interval period in charging profile]</text><line style="stroke:#181818;stroke-width:1.0;" x1="206.5" x2="248.5" y1="434.975" y2="434.975"/><line style="stroke:#181818;stroke-width:1.0;" x1="248.5" x2="248.5" y1="434.975" y2="447.975"/><line style="stroke:#181818;stroke-width:1.0;" x1="207.5" x2="248.5" y1="447.975" y2="447.975"/><polygon fill="#181818" points="217.5,443.975,207.5,447.975,217.5,451.975,213.5,447.975" style="stroke:#181818;stroke-width:1.0;"/><text fill="#000000" font-family="NanumGothic" font-size="13" lengthAdjust="spacing" textLength="224" x="213.5" y="429.985">get limit from charging profile():limit</text><path d="M449,400.1 L449,469.1 L749,469.1 L749,410.1 L739,400.1 L449,400.1 " fill="#7D5393" style="stroke:#000000;stroke-width:0.5;"/><path d="M739,400.1 L739,410.1 L749,410.1 L739,400.1 " fill="#7D5393" style="stroke:#000000;stroke-width:0.5;"/><text fill="#FFFFFF" font-family="NanumGothic" font-size="13" lengthAdjust="spacing" textLength="279" x="455" y="417.06">Charging Station implements TxDefaultProfile</text><text fill="#FFFFFF" font-family="NanumGothic" font-size="13" lengthAdjust="spacing" textLength="121" x="455" y="432.01">via the Control Pilot</text><text fill="#FFFFFF" font-family="NanumGothic" font-size="13" lengthAdjust="spacing" textLength="211" x="455" y="446.96">signal whenever maximum current</text><text fill="#FFFFFF" font-family="NanumGothic" font-size="13" lengthAdjust="spacing" textLength="100" x="455" y="461.91">needs changing.</text><polygon fill="#181818" points="51.5,491.85,41.5,495.85,51.5,499.85,47.5,495.85" style="stroke:#181818;stroke-width:1.0;"/><line style="stroke:#181818;stroke-width:1.0;" x1="45.5" x2="195.5" y1="495.85" y2="495.85"/><text fill="#000000" font-family="NanumGothic" font-size="13" lengthAdjust="spacing" textLength="132" x="57.5" y="490.86">set max current(limit)</text><path d="M131.5,510.85 L197.5,510.85 L197.5,517.8 L187.5,527.8 L131.5,527.8 L131.5,510.85 " fill="#EEEEEE" style="stroke:#000000;stroke-width:1.5;"/><rect fill="none" height="95.8" style="stroke:#000000;stroke-width:1.5;" width="643" x="131.5" y="510.85"/><text fill="#000000" font-family="NanumGothic" font-size="13" font-weight="bold" lengthAdjust="spacing" textLength="21" x="146.5" y="523.81">opt</text><text fill="#000000" font-family="NanumGothic" font-size="11" font-weight="bold" lengthAdjust="spacing" textLength="161" x="212.5" y="522.97">[Change of limits by controller]</text><polygon fill="#181818" points="217.5,555.225,207.5,559.225,217.5,563.225,213.5,559.225" style="stroke:#181818;stroke-width:1.0;"/><line style="stroke:#181818;stroke-width:1.0;" x1="211.5" x2="555.5" y1="559.225" y2="559.225"/><text fill="#000000" font-family="NanumGothic" font-size="13" lengthAdjust="spacing" textLength="331" x="223.5" y="554.235">SetChargingProfileRequest(evseId, csChargingProfiles)</text><path d="M571,532.8 L571,571.8 L764,571.8 L764,542.8 L754,532.8 L571,532.8 " fill="#7D5393" style="stroke:#000000;stroke-width:0.5;"/><path d="M754,532.8 L754,542.8 L764,542.8 L754,532.8 " fill="#7D5393" style="stroke:#000000;stroke-width:0.5;"/><text fill="#FFFFFF" font-family="NanumGothic" font-size="13" lengthAdjust="spacing" textLength="161" x="577" y="549.76">Local Controller decides to</text><text fill="#FFFFFF" font-family="NanumGothic" font-size="13" lengthAdjust="spacing" textLength="172" x="577" y="564.71">change the charging profile.</text><polygon fill="#181818" points="549.5,594.65,559.5,598.65,549.5,602.65,553.5,598.65" style="stroke:#181818;stroke-width:1.0;"/><line style="stroke:#181818;stroke-width:1.0;stroke-dasharray:2.0,2.0;" x1="201.5" x2="555.5" y1="598.65" y2="598.65"/><text fill="#000000" font-family="NanumGothic" font-size="13" lengthAdjust="spacing" textLength="238" x="208.5" y="593.66">SetChargingProfileResponse(Accepted)</text><path d="M17,625.65 L17,649.65 L909,649.65 L909,635.65 L899,625.65 L17,625.65 " fill="#7D5393" style="stroke:#000000;stroke-width:0.5;"/><path d="M899,625.65 L899,635.65 L909,635.65 L899,625.65 " fill="#7D5393" style="stroke:#000000;stroke-width:0.5;"/><text fill="#FFFFFF" font-family="NanumGothic" font-size="13" lengthAdjust="spacing" textLength="177" x="370" y="642.61">User authorization successful</text><polygon fill="#181818" points="51.5,672.55,41.5,676.55,51.5,680.55,47.5,676.55" style="stroke:#181818;stroke-width:1.0;"/><line style="stroke:#181818;stroke-width:1.0;stroke-dasharray:2.0,2.0;" x1="45.5" x2="200.5" y1="676.55" y2="676.55"/><text fill="#000000" font-family="NanumGothic" font-size="13" lengthAdjust="spacing" textLength="90" x="57.5" y="671.56">end charging()</text><line style="stroke:#181818;stroke-width:1.0;" x1="201.5" x2="248.5" y1="700.5" y2="700.5"/><line style="stroke:#181818;stroke-width:1.0;" x1="248.5" x2="248.5" y1="700.5" y2="713.5"/><line style="stroke:#181818;stroke-width:1.0;" x1="207.5" x2="248.5" y1="713.5" y2="713.5"/><polygon fill="#181818" points="217.5,709.5,207.5,713.5,217.5,717.5,213.5,713.5" style="stroke:#181818;stroke-width:1.0;"/><text fill="#000000" font-family="NanumGothic" font-size="13" lengthAdjust="spacing" textLength="104" x="213.5" y="695.51">switch power off</text><polygon fill="#181818" points="544.5,773.35,554.5,777.35,544.5,781.35,548.5,777.35" style="stroke:#181818;stroke-width:1.0;"/><line style="stroke:#181818;stroke-width:1.0;" x1="206.5" x2="550.5" y1="777.35" y2="777.35"/><text fill="#000000" font-family="NanumGothic" font-size="13" lengthAdjust="spacing" textLength="291" x="213.5" y="742.46">TransactionEventRequest(eventType = Updated,</text><text fill="#000000" font-family="NanumGothic" font-size="13" lengthAdjust="spacing" textLength="149" x="229.5" y="757.41">transactionId = AB1234,</text><text fill="#000000" font-family="NanumGothic" font-size="13" lengthAdjust="spacing" textLength="208" x="229.5" y="772.36">chargingState = EVConnected, ...)</text><polygon fill="#181818" points="873.5,832.2,883.5,836.2,873.5,840.2,877.5,836.2" style="stroke:#181818;stroke-width:1.0;"/><line style="stroke:#181818;stroke-width:1.0;" x1="566.5" x2="879.5" y1="836.2" y2="836.2"/><text fill="#000000" font-family="NanumGothic" font-size="13" lengthAdjust="spacing" textLength="291" x="573.5" y="801.31">TransactionEventRequest(eventType = Updated,</text><text fill="#000000" font-family="NanumGothic" font-size="13" lengthAdjust="spacing" textLength="149" x="589.5" y="816.26">transactionId = AB1234,</text><text fill="#000000" font-family="NanumGothic" font-size="13" lengthAdjust="spacing" textLength="208" x="589.5" y="831.21">chargingState = EVConnected, ...)</text><polygon fill="#181818" points="577.5,861.15,567.5,865.15,577.5,869.15,573.5,865.15" style="stroke:#181818;stroke-width:1.0;"/><line style="stroke:#181818;stroke-width:1.0;stroke-dasharray:2.0,2.0;" x1="571.5" x2="889.5" y1="865.15" y2="865.15"/><text fill="#000000" font-family="NanumGothic" font-size="13" lengthAdjust="spacing" textLength="183" x="583.5" y="860.16">TransactionEventResponse(...)</text><polygon fill="#181818" points="212.5,890.1,202.5,894.1,212.5,898.1,208.5,894.1" style="stroke:#181818;stroke-width:1.0;"/><line style="stroke:#181818;stroke-width:1.0;stroke-dasharray:2.0,2.0;" x1="206.5" x2="560.5" y1="894.1" y2="894.1"/><text fill="#000000" font-family="NanumGothic" font-size="13" lengthAdjust="spacing" textLength="183" x="218.5" y="889.11">TransactionEventResponse(...)</text><path d="M17,907.1 L17,931.1 L909,931.1 L909,917.1 L899,907.1 L17,907.1 " fill="#7D5393" style="stroke:#000000;stroke-width:0.5;"/><path d="M899,907.1 L899,917.1 L909,917.1 L899,907.1 " fill="#7D5393" style="stroke:#000000;stroke-width:0.5;"/><text fill="#FFFFFF" font-family="NanumGothic" font-size="13" lengthAdjust="spacing" textLength="137" x="390" y="924.06">Transaction is stopped</text><!--SRC=[rLOxRzim4DxrAwwPRC0nqCTae0NIr4E05WXgnrCNbZfP12YI9Iaxxg_laP8icLRS84lJHH3l-Tt7kvFU2CLbdICuVv0uDtKbiymmwmKNXYaFLylD5J07oysf-BPaTYlK5bQUUQ5LDEg4hUpKuwlcJCAjLjvgAT56ZoZiPKcErRTL4vTUianfZw1tQ0dCh941F3WwizgNsehVCIkucdDqhgWbC9M3jqmvngDAE2gKKc2U8Qb2n2nBKCFr9qgm08SUAlO8lBOMbPz8KGa_pKAa7ICaQR5ZSH8H1TqBpqimUa-mWzDoCsuNK09lnNrIkeRZUyhT6834PW40wvwFvOuA-uw_QdH-Wk6mFXY4Z_1WSigGp-278eyXXNSvgMy-lttt_aEdvOEqmRc3COFvV3uaBDvYWYXMJuf_WImBYU5wZAPpACvevN0I7NFyMr5ZT_hic6SNAxKs41yKL6qH6EVQvc7yl3vM2SRgGaZCK3g4GbkWa2K8vT7kQFGCMg5pEfzx03odURSq4N4AeB2wEeiocIwYbgB5KRLYMuP37xnR5Y0g8x4Y3Xoi7xzWmMhfxuzO07Q2WI-nsnPmBwHkGZcnLLJBlaI5OHNGX8gghhefZJOACNS1dWf9voJhXtsqqWlZJWxQ-8vtNJG4EFXv0DxVKCWwrjWfWolqdQmjj-znXtVKrjmb1cuQep_T7B7YKxvRC8Db2pboaQEZVcajU5DHO3czo7aq6N8smjhOr8oLr_Ru3UraGuFRL7EXsHDrkcKZhh2yN_8zkBJqspO85XqVa-bBbdfHFFsDUFMxUxcXX0fv3F3QrlSvkFzaWL_ev_4kNgV_BDgOuJ_B7m00]--></g></svg>