<?xml version="1.0" encoding="us-ascii" standalone="no"?><svg xmlns="http://www.w3.org/2000/svg" xmlns:xlink="http://www.w3.org/1999/xlink" contentStyleType="text/css" height="570px" preserveAspectRatio="none" style="width:684px;height:570px;background:#FFFFFF;" version="1.1" viewBox="0 0 684 570" width="684px" zoomAndPan="magnify"><defs/><g><rect fill="#FFFFFF" height="178.7" style="stroke:#181818;stroke-width:1.0;" width="10" x="42.5" y="149"/><rect fill="#FFFFFF" height="397.35" style="stroke:#181818;stroke-width:1.0;" width="10" x="203.5" y="149"/><rect fill="#FFFFFF" height="28.95" style="stroke:#181818;stroke-width:1.0;" width="10" x="626.5" y="177.95"/><rect fill="#FFFFFF" height="28.95" style="stroke:#181818;stroke-width:1.0;" width="10" x="626.5" y="502.4"/><rect fill="none" height="324.45" style="stroke:#000000;stroke-width:1.5;" width="668" x="10" y="221.9"/><rect fill="none" height="74.85" style="stroke:#000000;stroke-width:1.5;" width="258.5" x="20" y="245.85"/><rect fill="none" height="204.65" style="stroke:#000000;stroke-width:1.5;" width="539.5" x="128.5" y="334.7"/><rect fill="none" height="58.9" style="stroke:#000000;stroke-width:1.5;" width="262" x="138.5" y="400.6"/><line style="stroke:#181818;stroke-width:0.5;stroke-dasharray:5.0,5.0;" x1="47" x2="47" y1="83.1" y2="563.35"/><line style="stroke:#181818;stroke-width:0.5;stroke-dasharray:5.0,5.0;" x1="208.5" x2="208.5" y1="83.1" y2="563.35"/><line style="stroke:#181818;stroke-width:0.5;stroke-dasharray:5.0,5.0;" x1="631" x2="631" y1="83.1" y2="563.35"/><text fill="#000000" font-family="NanumGothic" font-size="14" lengthAdjust="spacing" textLength="29" x="30" y="79.88">User</text><ellipse cx="47.5" cy="14.5" fill="#E2E2F0" rx="8" ry="8" style="stroke:#7D5393;stroke-width:1.5;"/><path d="M47.5,22.5 L47.5,49.5 M34.5,30.5 L60.5,30.5 M47.5,49.5 L34.5,64.5 M47.5,49.5 L60.5,64.5 " fill="none" style="stroke:#7D5393;stroke-width:1.5;"/><rect fill="#7D5393" height="30.1" rx="2.5" ry="2.5" style="stroke:#181818;stroke-width:0.5;" width="120" x="148.5" y="52"/><text fill="#FFFFFF" font-family="NanumGothic" font-size="14" lengthAdjust="spacing" textLength="106" x="155.5" y="71.88">Charging Station</text><rect fill="#7D5393" height="30.1" rx="2.5" ry="2.5" style="stroke:#181818;stroke-width:0.5;" width="53" x="605" y="52"/><text fill="#FFFFFF" font-family="NanumGothic" font-size="14" lengthAdjust="spacing" textLength="39" x="612" y="71.88">CSMS</text><rect fill="#FFFFFF" height="178.7" style="stroke:#181818;stroke-width:1.0;" width="10" x="42.5" y="149"/><rect fill="#FFFFFF" height="397.35" style="stroke:#181818;stroke-width:1.0;" width="10" x="203.5" y="149"/><rect fill="#FFFFFF" height="28.95" style="stroke:#181818;stroke-width:1.0;" width="10" x="626.5" y="177.95"/><rect fill="#FFFFFF" height="28.95" style="stroke:#181818;stroke-width:1.0;" width="10" x="626.5" y="502.4"/><path d="M82,98.1 L82,122.1 L335,122.1 L335,108.1 L325,98.1 L82,98.1 " fill="#7D5393" style="stroke:#000000;stroke-width:0.5;"/><path d="M325,98.1 L325,108.1 L335,108.1 L325,98.1 " fill="#7D5393" style="stroke:#000000;stroke-width:0.5;"/><text fill="#FFFFFF" font-family="NanumGothic" font-size="13" lengthAdjust="spacing" textLength="232" x="88" y="115.06">one or more transactions are ongoing</text><polygon fill="#181818" points="191.5,145,201.5,149,191.5,153,195.5,149" style="stroke:#181818;stroke-width:1.0;"/><line style="stroke:#181818;stroke-width:1.0;" x1="52.5" x2="197.5" y1="149" y2="149"/><text fill="#000000" font-family="NanumGothic" font-size="13" lengthAdjust="spacing" textLength="98" x="59.5" y="144.01">Present IdToken</text><polygon fill="#181818" points="614.5,173.95,624.5,177.95,614.5,181.95,618.5,177.95" style="stroke:#181818;stroke-width:1.0;"/><line style="stroke:#181818;stroke-width:1.0;" x1="213.5" x2="620.5" y1="177.95" y2="177.95"/><text fill="#000000" font-family="NanumGothic" font-size="13" lengthAdjust="spacing" textLength="130" x="220.5" y="172.96">AuthorizeRequest(...)</text><polygon fill="#181818" points="224.5,202.9,214.5,206.9,224.5,210.9,220.5,206.9" style="stroke:#181818;stroke-width:1.0;"/><line style="stroke:#181818;stroke-width:1.0;stroke-dasharray:2.0,2.0;" x1="218.5" x2="630.5" y1="206.9" y2="206.9"/><text fill="#000000" font-family="NanumGothic" font-size="13" lengthAdjust="spacing" textLength="314" x="230.5" y="201.91">AuthorizeResponse(GroupId = MasterPassGroupId)</text><path d="M10,221.9 L70,221.9 L70,228.85 L60,238.85 L10,238.85 L10,221.9 " fill="#EEEEEE" style="stroke:#000000;stroke-width:1.5;"/><rect fill="none" height="324.45" style="stroke:#000000;stroke-width:1.5;" width="668" x="10" y="221.9"/><text fill="#000000" font-family="NanumGothic" font-size="13" font-weight="bold" lengthAdjust="spacing" textLength="15" x="25" y="234.86">alt</text><text fill="#000000" font-family="NanumGothic" font-size="11" font-weight="bold" lengthAdjust="spacing" textLength="87" x="85" y="234.02">[if idToken valid]</text><path d="M20,245.85 L80,245.85 L80,252.8 L70,262.8 L20,262.8 L20,245.85 " fill="#EEEEEE" style="stroke:#000000;stroke-width:1.5;"/><rect fill="none" height="74.85" style="stroke:#000000;stroke-width:1.5;" width="258.5" x="20" y="245.85"/><text fill="#000000" font-family="NanumGothic" font-size="13" font-weight="bold" lengthAdjust="spacing" textLength="15" x="35" y="258.81">alt</text><text fill="#000000" font-family="NanumGothic" font-size="11" font-weight="bold" lengthAdjust="spacing" textLength="141" x="95" y="257.97">[if Master Pass UI available]</text><polygon fill="#181818" points="63.5,279.75,53.5,283.75,63.5,287.75,59.5,283.75" style="stroke:#181818;stroke-width:1.0;"/><line style="stroke:#181818;stroke-width:1.0;stroke-dasharray:2.0,2.0;" x1="57.5" x2="202.5" y1="283.75" y2="283.75"/><text fill="#000000" font-family="NanumGothic" font-size="13" lengthAdjust="spacing" textLength="127" x="69.5" y="278.76">show Master Pass UI</text><polygon fill="#181818" points="191.5,308.7,201.5,312.7,191.5,316.7,195.5,312.7" style="stroke:#181818;stroke-width:1.0;"/><line style="stroke:#181818;stroke-width:1.0;" x1="52.5" x2="197.5" y1="312.7" y2="312.7"/><text fill="#000000" font-family="NanumGothic" font-size="13" lengthAdjust="spacing" textLength="122" x="59.5" y="307.71">select transaction(s)</text><path d="M128.5,334.7 L200.5,334.7 L200.5,341.65 L190.5,351.65 L128.5,351.65 L128.5,334.7 " fill="#EEEEEE" style="stroke:#000000;stroke-width:1.5;"/><rect fill="none" height="204.65" style="stroke:#000000;stroke-width:1.5;" width="539.5" x="128.5" y="334.7"/><text fill="#000000" font-family="NanumGothic" font-size="13" font-weight="bold" lengthAdjust="spacing" textLength="27" x="143.5" y="347.66">loop</text><text fill="#000000" font-family="NanumGothic" font-size="11" font-weight="bold" lengthAdjust="spacing" textLength="157" x="215.5" y="346.82">[for all (selected) transactions]</text><line style="stroke:#181818;stroke-width:1.0;" x1="213.5" x2="255.5" y1="372.6" y2="372.6"/><line style="stroke:#181818;stroke-width:1.0;" x1="255.5" x2="255.5" y1="372.6" y2="385.6"/><line style="stroke:#181818;stroke-width:1.0;" x1="214.5" x2="255.5" y1="385.6" y2="385.6"/><polygon fill="#181818" points="224.5,381.6,214.5,385.6,224.5,389.6,220.5,385.6" style="stroke:#181818;stroke-width:1.0;"/><text fill="#000000" font-family="NanumGothic" font-size="13" lengthAdjust="spacing" textLength="106" x="220.5" y="367.61">stop energy offer</text><path d="M138.5,400.6 L198.5,400.6 L198.5,407.55 L188.5,417.55 L138.5,417.55 L138.5,400.6 " fill="#EEEEEE" style="stroke:#000000;stroke-width:1.5;"/><rect fill="none" height="58.9" style="stroke:#000000;stroke-width:1.5;" width="262" x="138.5" y="400.6"/><text fill="#000000" font-family="NanumGothic" font-size="13" font-weight="bold" lengthAdjust="spacing" textLength="15" x="153.5" y="413.56">alt</text><text fill="#000000" font-family="NanumGothic" font-size="11" font-weight="bold" lengthAdjust="spacing" textLength="182" x="213.5" y="412.72">[if cable not permanently attached]</text><line style="stroke:#181818;stroke-width:1.0;" x1="213.5" x2="255.5" y1="438.5" y2="438.5"/><line style="stroke:#181818;stroke-width:1.0;" x1="255.5" x2="255.5" y1="438.5" y2="451.5"/><line style="stroke:#181818;stroke-width:1.0;" x1="214.5" x2="255.5" y1="451.5" y2="451.5"/><polygon fill="#181818" points="224.5,447.5,214.5,451.5,224.5,455.5,220.5,451.5" style="stroke:#181818;stroke-width:1.0;"/><text fill="#000000" font-family="NanumGothic" font-size="13" lengthAdjust="spacing" textLength="105" x="220.5" y="433.51">unlock connector</text><polygon fill="#181818" points="614.5,498.4,624.5,502.4,614.5,506.4,618.5,502.4" style="stroke:#181818;stroke-width:1.0;"/><line style="stroke:#181818;stroke-width:1.0;" x1="213.5" x2="620.5" y1="502.4" y2="502.4"/><text fill="#000000" font-family="NanumGothic" font-size="13" lengthAdjust="spacing" textLength="277" x="220.5" y="482.46">TransactionEventRequest(eventType = Ended,</text><text fill="#000000" font-family="NanumGothic" font-size="13" lengthAdjust="spacing" textLength="370" x="244.5" y="497.41">chargingState = EVConnected, stopReason = MasterPass,...)</text><polygon fill="#181818" points="224.5,527.35,214.5,531.35,224.5,535.35,220.5,531.35" style="stroke:#181818;stroke-width:1.0;"/><line style="stroke:#181818;stroke-width:1.0;stroke-dasharray:2.0,2.0;" x1="218.5" x2="630.5" y1="531.35" y2="531.35"/><text fill="#000000" font-family="NanumGothic" font-size="13" lengthAdjust="spacing" textLength="183" x="230.5" y="526.36">TransactionEventResponse(...)</text><!--SRC=[ZLF1Rjim3BthAzYS4g3D1mJOWA8eXXmA54swqowin2H25TAJP0_Pru-IqzHr4c0-63P5Fhv7Fjrujg5r12aV0isRTX-CGPibmkGrKPm09YWVfi6OlVKDSeR9mmxZrlCMLXcp5wvf7y5ZR5InUbhrMVfX34ica8xYMHM0i1v5s4iao14vAHyzIO0Q4DwAPXjY1mN4cC8ExhwFWHRm72cHzbwwjRmJ5rc-G-rRzPp-nWJCA52nbVG2xjkya-Z_qWlzRYdbwNm-dms0ghBoXhjBV0RbgL4zDFqHfMsM3hx14wPCyHbJEiPcnj486KC6lm7Vou4EWtSwhcEuHu020QzBm0vzmBT0cW5m9advbIai8EtapwZMr9AhOqqKoERXPgPffYMw4NqFMDSnQoY8DB3HZM88CEtBoSs-xFOooqlTiu8HKzmUG3QRliDf2BOeBhw0Xk8UMTSV3e0vezsHgvd_rwRb8FOTh31JkGsrj2YyIhGwf7_Mdy8UEwNmOHSgF-j3GxhmHtRaRdznNs47WFNqvqFVMNEgv1V2f8s6HhcjxglYl_gaChpgmdDoHpEUuCR6kx3QyPqf2Vy0]--></g></svg>