<?xml version="1.0" encoding="us-ascii" standalone="no"?><svg xmlns="http://www.w3.org/2000/svg" xmlns:xlink="http://www.w3.org/1999/xlink" contentStyleType="text/css" height="847px" preserveAspectRatio="none" style="width:907px;height:847px;background:#FFFFFF;" version="1.1" viewBox="0 0 907 847" width="907px" zoomAndPan="magnify"><defs/><g><rect fill="#FFFFFF" height="57.9" style="stroke:#181818;stroke-width:1.0;" width="10" x="106" y="172.95"/><rect fill="#FFFFFF" height="28.95" style="stroke:#181818;stroke-width:1.0;" width="10" x="106" y="333.65"/><rect fill="#FFFFFF" height="57.9" style="stroke:#181818;stroke-width:1.0;" width="10" x="106" y="519.05"/><rect fill="#FFFFFF" height="28.95" style="stroke:#181818;stroke-width:1.0;" width="10" x="106" y="655.8"/><rect fill="#FFFFFF" height="28.95" style="stroke:#181818;stroke-width:1.0;" width="10" x="106" y="779.6"/><rect fill="#FFFFFF" height="160.7" style="stroke:#181818;stroke-width:1.0;" width="10" x="604" y="201.9"/><rect fill="#FFFFFF" height="33.95" style="stroke:#181818;stroke-width:1.0;" width="10" x="604" y="406.55"/><rect fill="#FFFFFF" height="136.75" style="stroke:#181818;stroke-width:1.0;" width="10" x="604" y="548"/><rect fill="#FFFFFF" height="86.85" style="stroke:#181818;stroke-width:1.0;" width="10" x="604" y="721.7"/><rect fill="none" height="723.45" style="stroke:#000000;stroke-width:1.5;" width="885" x="10" y="100.1"/><rect fill="none" height="74.85" style="stroke:#000000;stroke-width:1.5;" width="604.5" x="74.5" y="295.75"/><rect fill="none" height="74.85" style="stroke:#000000;stroke-width:1.5;" width="604.5" x="74.5" y="741.7"/><line style="stroke:#181818;stroke-width:0.5;stroke-dasharray:5.0,5.0;" x1="37" x2="37" y1="83.1" y2="840.55"/><line style="stroke:#181818;stroke-width:0.5;stroke-dasharray:5.0,5.0;" x1="110.5" x2="110.5" y1="83.1" y2="840.55"/><line style="stroke:#181818;stroke-width:0.5;stroke-dasharray:5.0,5.0;" x1="609" x2="609" y1="83.1" y2="840.55"/><text fill="#000000" font-family="NanumGothic" font-size="14" lengthAdjust="spacing" textLength="28" x="20" y="79.88">CSO</text><ellipse cx="37" cy="14.5" fill="#E2E2F0" rx="8" ry="8" style="stroke:#7D5393;stroke-width:1.5;"/><path d="M37,22.5 L37,49.5 M24,30.5 L50,30.5 M37,49.5 L24,64.5 M37,49.5 L50,64.5 " fill="none" style="stroke:#7D5393;stroke-width:1.5;"/><rect fill="#7D5393" height="30.1" rx="2.5" ry="2.5" style="stroke:#181818;stroke-width:0.5;" width="53" x="84.5" y="52"/><text fill="#FFFFFF" font-family="NanumGothic" font-size="14" lengthAdjust="spacing" textLength="39" x="91.5" y="71.88">CSMS</text><rect fill="#7D5393" height="30.1" rx="2.5" ry="2.5" style="stroke:#181818;stroke-width:0.5;" width="120" x="549" y="52"/><text fill="#FFFFFF" font-family="NanumGothic" font-size="14" lengthAdjust="spacing" textLength="106" x="556" y="71.88">Charging Station</text><rect fill="#FFFFFF" height="57.9" style="stroke:#181818;stroke-width:1.0;" width="10" x="106" y="172.95"/><rect fill="#FFFFFF" height="28.95" style="stroke:#181818;stroke-width:1.0;" width="10" x="106" y="333.65"/><rect fill="#FFFFFF" height="57.9" style="stroke:#181818;stroke-width:1.0;" width="10" x="106" y="519.05"/><rect fill="#FFFFFF" height="28.95" style="stroke:#181818;stroke-width:1.0;" width="10" x="106" y="655.8"/><rect fill="#FFFFFF" height="28.95" style="stroke:#181818;stroke-width:1.0;" width="10" x="106" y="779.6"/><rect fill="#FFFFFF" height="160.7" style="stroke:#181818;stroke-width:1.0;" width="10" x="604" y="201.9"/><rect fill="#FFFFFF" height="33.95" style="stroke:#181818;stroke-width:1.0;" width="10" x="604" y="406.55"/><rect fill="#FFFFFF" height="136.75" style="stroke:#181818;stroke-width:1.0;" width="10" x="604" y="548"/><rect fill="#FFFFFF" height="86.85" style="stroke:#181818;stroke-width:1.0;" width="10" x="604" y="721.7"/><path d="M10,100.1 L70,100.1 L70,107.05 L60,117.05 L10,117.05 L10,100.1 " fill="#EEEEEE" style="stroke:#000000;stroke-width:1.5;"/><rect fill="none" height="723.45" style="stroke:#000000;stroke-width:1.5;" width="885" x="10" y="100.1"/><text fill="#000000" font-family="NanumGothic" font-size="13" font-weight="bold" lengthAdjust="spacing" textLength="15" x="25" y="113.06">alt</text><text fill="#000000" font-family="NanumGothic" font-size="11" font-weight="bold" lengthAdjust="spacing" textLength="127" x="85" y="112.22">[Reset Charging Station]</text><path d="M329,122.05 L329,146.05 L604,146.05 L604,132.05 L594,122.05 L329,122.05 " fill="#7D5393" style="stroke:#000000;stroke-width:0.5;"/><path d="M594,122.05 L594,132.05 L604,132.05 L594,122.05 " fill="#7D5393" style="stroke:#000000;stroke-width:0.5;"/><text fill="#FFFFFF" font-family="NanumGothic" font-size="13" lengthAdjust="spacing" textLength="254" x="335" y="139.01">Transactions active on one or more EVSEs</text><polygon fill="#181818" points="94,168.95,104,172.95,94,176.95,98,172.95" style="stroke:#181818;stroke-width:1.0;"/><line style="stroke:#181818;stroke-width:1.0;" x1="37" x2="100" y1="172.95" y2="172.95"/><text fill="#000000" font-family="NanumGothic" font-size="13" lengthAdjust="spacing" textLength="50" x="44" y="167.96">reset CS</text><polygon fill="#181818" points="592,197.9,602,201.9,592,205.9,596,201.9" style="stroke:#181818;stroke-width:1.0;"/><line style="stroke:#181818;stroke-width:1.0;" x1="116" x2="598" y1="201.9" y2="201.9"/><text fill="#000000" font-family="NanumGothic" font-size="13" lengthAdjust="spacing" textLength="156" x="123" y="196.91">ResetRequest(Immediate)</text><polygon fill="#181818" points="122,226.85,112,230.85,122,234.85,118,230.85" style="stroke:#181818;stroke-width:1.0;"/><line style="stroke:#181818;stroke-width:1.0;stroke-dasharray:2.0,2.0;" x1="116" x2="603" y1="230.85" y2="230.85"/><text fill="#000000" font-family="NanumGothic" font-size="13" lengthAdjust="spacing" textLength="157" x="128" y="225.86">ResetResponse(Accepted)</text><path d="M518,243.85 L518,282.85 L700,282.85 L700,253.85 L690,243.85 L518,243.85 " fill="#7D5393" style="stroke:#000000;stroke-width:0.5;"/><path d="M690,243.85 L690,253.85 L700,253.85 L690,243.85 " fill="#7D5393" style="stroke:#000000;stroke-width:0.5;"/><text fill="#FFFFFF" font-family="NanumGothic" font-size="13" lengthAdjust="spacing" textLength="160" x="524" y="260.81">Terminate all transactions,</text><text fill="#FFFFFF" font-family="NanumGothic" font-size="13" lengthAdjust="spacing" textLength="161" x="524" y="275.76">regardless of TxStopPoint.</text><path d="M74.5,295.75 L146.5,295.75 L146.5,302.7 L136.5,312.7 L74.5,312.7 L74.5,295.75 " fill="#EEEEEE" style="stroke:#000000;stroke-width:1.5;"/><rect fill="none" height="74.85" style="stroke:#000000;stroke-width:1.5;" width="604.5" x="74.5" y="295.75"/><text fill="#000000" font-family="NanumGothic" font-size="13" font-weight="bold" lengthAdjust="spacing" textLength="27" x="89.5" y="308.71">loop</text><text fill="#000000" font-family="NanumGothic" font-size="11" font-weight="bold" lengthAdjust="spacing" textLength="150" x="161.5" y="307.87">[for all stopped transactions]</text><polygon fill="#181818" points="127,329.65,117,333.65,127,337.65,123,333.65" style="stroke:#181818;stroke-width:1.0;"/><line style="stroke:#181818;stroke-width:1.0;" x1="121" x2="603" y1="333.65" y2="333.65"/><text fill="#000000" font-family="NanumGothic" font-size="13" lengthAdjust="spacing" textLength="469" x="133" y="328.66">TransactionEventRequest(eventType  Ended, stopReason  ImmediateReset,...)</text><polygon fill="#181818" points="597,358.6,607,362.6,597,366.6,601,362.6" style="stroke:#181818;stroke-width:1.0;"/><line style="stroke:#181818;stroke-width:1.0;stroke-dasharray:2.0,2.0;" x1="111" x2="603" y1="362.6" y2="362.6"/><text fill="#000000" font-family="NanumGothic" font-size="13" lengthAdjust="spacing" textLength="183" x="118" y="357.61">TransactionEventResponse(...)</text><line style="stroke:#181818;stroke-width:1.0;" x1="609" x2="656" y1="393.55" y2="393.55"/><line style="stroke:#181818;stroke-width:1.0;" x1="656" x2="656" y1="393.55" y2="406.55"/><line style="stroke:#181818;stroke-width:1.0;" x1="615" x2="656" y1="406.55" y2="406.55"/><polygon fill="#181818" points="625,402.55,615,406.55,625,410.55,621,406.55" style="stroke:#181818;stroke-width:1.0;"/><text fill="#000000" font-family="NanumGothic" font-size="13" lengthAdjust="spacing" textLength="148" x="621" y="388.56">reboot Charging Station</text><ellipse cx="897.5" cy="439.75" fill="none" rx="4" ry="4" style="stroke:#181818;stroke-width:1.5;"/><polygon fill="#181818" points="880.5,436.5,890.5,440.5,880.5,444.5,884.5,440.5" style="stroke:#181818;stroke-width:1.0;"/><line style="stroke:#181818;stroke-width:1.0;" x1="609" x2="886.5" y1="440.5" y2="440.5"/><text fill="#000000" font-family="NanumGothic" font-size="13" lengthAdjust="spacing" textLength="265" x="616" y="435.51">Continue B01 - Cold Boot Charging Station</text><line style="stroke:#000000;stroke-width:1.0;stroke-dasharray:2.0,2.0;" x1="10" x2="895" y1="449.5" y2="449.5"/><text fill="#000000" font-family="NanumGothic" font-size="11" font-weight="bold" lengthAdjust="spacing" textLength="64" x="15" y="459.62">[Reset EVSE]</text><path d="M421,468.15 L421,492.15 L604,492.15 L604,478.15 L594,468.15 L421,468.15 " fill="#7D5393" style="stroke:#000000;stroke-width:0.5;"/><path d="M594,468.15 L594,478.15 L604,478.15 L594,468.15 " fill="#7D5393" style="stroke:#000000;stroke-width:0.5;"/><text fill="#FFFFFF" font-family="NanumGothic" font-size="13" lengthAdjust="spacing" textLength="162" x="427" y="485.11">Transaction active on EVSE</text><polygon fill="#181818" points="94,515.05,104,519.05,94,523.05,98,519.05" style="stroke:#181818;stroke-width:1.0;"/><line style="stroke:#181818;stroke-width:1.0;" x1="37" x2="100" y1="519.05" y2="519.05"/><text fill="#000000" font-family="NanumGothic" font-size="13" lengthAdjust="spacing" textLength="50" x="44" y="514.06">reset CS</text><polygon fill="#181818" points="592,544,602,548,592,552,596,548" style="stroke:#181818;stroke-width:1.0;"/><line style="stroke:#181818;stroke-width:1.0;" x1="116" x2="598" y1="548" y2="548"/><text fill="#000000" font-family="NanumGothic" font-size="13" lengthAdjust="spacing" textLength="201" x="123" y="543.01">ResetRequest(Immediate, evseId)</text><polygon fill="#181818" points="122,572.95,112,576.95,122,580.95,118,576.95" style="stroke:#181818;stroke-width:1.0;"/><line style="stroke:#181818;stroke-width:1.0;stroke-dasharray:2.0,2.0;" x1="116" x2="603" y1="576.95" y2="576.95"/><text fill="#000000" font-family="NanumGothic" font-size="13" lengthAdjust="spacing" textLength="163" x="128" y="571.96">ResetResponse(Scheduled)</text><path d="M518,589.95 L518,628.95 L700,628.95 L700,599.95 L690,589.95 L518,589.95 " fill="#7D5393" style="stroke:#000000;stroke-width:0.5;"/><path d="M690,589.95 L690,599.95 L700,599.95 L690,589.95 " fill="#7D5393" style="stroke:#000000;stroke-width:0.5;"/><text fill="#FFFFFF" font-family="NanumGothic" font-size="13" lengthAdjust="spacing" textLength="137" x="524" y="606.91">Terminate transaction,</text><text fill="#FFFFFF" font-family="NanumGothic" font-size="13" lengthAdjust="spacing" textLength="161" x="524" y="621.86">regardless of TxStopPoint.</text><polygon fill="#181818" points="127,651.8,117,655.8,127,659.8,123,655.8" style="stroke:#181818;stroke-width:1.0;"/><line style="stroke:#181818;stroke-width:1.0;" x1="121" x2="603" y1="655.8" y2="655.8"/><text fill="#000000" font-family="NanumGothic" font-size="13" lengthAdjust="spacing" textLength="469" x="133" y="650.81">TransactionEventRequest(eventType  Ended, stopReason  ImmediateReset,...)</text><polygon fill="#181818" points="597,680.75,607,684.75,597,688.75,601,684.75" style="stroke:#181818;stroke-width:1.0;"/><line style="stroke:#181818;stroke-width:1.0;stroke-dasharray:2.0,2.0;" x1="111" x2="603" y1="684.75" y2="684.75"/><text fill="#000000" font-family="NanumGothic" font-size="13" lengthAdjust="spacing" textLength="183" x="118" y="679.76">TransactionEventResponse(...)</text><line style="stroke:#181818;stroke-width:1.0;" x1="609" x2="656" y1="708.7" y2="708.7"/><line style="stroke:#181818;stroke-width:1.0;" x1="656" x2="656" y1="708.7" y2="721.7"/><line style="stroke:#181818;stroke-width:1.0;" x1="615" x2="656" y1="721.7" y2="721.7"/><polygon fill="#181818" points="625,717.7,615,721.7,625,725.7,621,721.7" style="stroke:#181818;stroke-width:1.0;"/><text fill="#000000" font-family="NanumGothic" font-size="13" lengthAdjust="spacing" textLength="64" x="621" y="703.71">reset EVSE</text><path d="M74.5,741.7 L146.5,741.7 L146.5,748.65 L136.5,758.65 L74.5,758.65 L74.5,741.7 " fill="#EEEEEE" style="stroke:#000000;stroke-width:1.5;"/><rect fill="none" height="74.85" style="stroke:#000000;stroke-width:1.5;" width="604.5" x="74.5" y="741.7"/><text fill="#000000" font-family="NanumGothic" font-size="13" font-weight="bold" lengthAdjust="spacing" textLength="27" x="89.5" y="754.66">loop</text><text fill="#000000" font-family="NanumGothic" font-size="11" font-weight="bold" lengthAdjust="spacing" textLength="140" x="161.5" y="753.82">[for all connectors of EVSE]</text><polygon fill="#181818" points="127,775.6,117,779.6,127,783.6,123,779.6" style="stroke:#181818;stroke-width:1.0;"/><line style="stroke:#181818;stroke-width:1.0;" x1="121" x2="603" y1="779.6" y2="779.6"/><text fill="#000000" font-family="NanumGothic" font-size="13" lengthAdjust="spacing" textLength="345" x="133" y="774.61">StatusNotificationRequest(Available, evseId, connectorId)</text><polygon fill="#181818" points="597,804.55,607,808.55,597,812.55,601,808.55" style="stroke:#181818;stroke-width:1.0;"/><line style="stroke:#181818;stroke-width:1.0;stroke-dasharray:2.0,2.0;" x1="111" x2="603" y1="808.55" y2="808.55"/><text fill="#000000" font-family="NanumGothic" font-size="13" lengthAdjust="spacing" textLength="176" x="118" y="803.56">StatusNotificationResponse()</text><!--SRC=[lLLDRzim3BtxLt0zjO1ZTDSS2hH53Zra6-9WjnrKYqa5o98coKRxxql9IkROZh5q7q42GIJrI3xnAP-4gcJ34Pn_arYOffPPnYglBLmzbb-lW3cWDJFCUb49mvGFZdMPFEjou7fXTY_K7ahFlD2g2ql6PAC4qiC67NeOncSPWD8UGUBEWzwDpW9zjfOfHqNIta5OMmIjw4kBXLfRXDNtSkKe61MFU06N-e35NInw2RPBNv8z8Z3A6Tk9WUioHfxcNdOrR_1dWyvVFzKrSa7dRaumXht2q0IBOn49pnbg1A_lgmgDHnxmE8wgYhJe5kqq9sXheK8yan9yZw4y-YtkcUKIdGkiRbzBhyqtBPGl1Yn9hGtiYCU0uoZA83_1Yt0JNHsQwjtEgaLrv0l3Pljc462bEF8yec-GEJeDHpOZ9tbH53SfqOY8c3rUqTGTZTCdUdkGGtR7rX73HD7aNKvKOF5PwudHld1AxlIF9JngvOLg41vkFyE2jfB3mndqcVfHEaoA2yguK6GzZQNJXu61Vwch7B1r-CJ_bhxAwWLv8_zOO3qnNAYj_wAPCxH_H2jZdSpCs6-hepU5Ss0d3r6bbSBmjnGfJgTd20s6ndtHNkn45Nq7IkzR9YHxbiVnod-1TxCs-UIS9t4gLQAnGvjzLwP83cyD_Tu1]--></g></svg>