<?xml version="1.0" encoding="us-ascii" standalone="no"?><svg xmlns="http://www.w3.org/2000/svg" xmlns:xlink="http://www.w3.org/1999/xlink" contentStyleType="text/css" height="619px" preserveAspectRatio="none" style="width:568px;height:619px;background:#FFFFFF;" version="1.1" viewBox="0 0 568 619" width="568px" zoomAndPan="magnify"><defs/><g><rect fill="#FFFFFF" height="438.3" style="stroke:#181818;stroke-width:1.0;" width="10" x="154.5" y="149"/><rect fill="#FFFFFF" height="28.95" style="stroke:#181818;stroke-width:1.0;" width="10" x="507.5" y="443.55"/><rect fill="#FFFFFF" height="28.95" style="stroke:#181818;stroke-width:1.0;" width="10" x="507.5" y="558.35"/><rect fill="none" height="431.3" style="stroke:#000000;stroke-width:1.5;" width="483" x="79.5" y="164"/><rect fill="none" height="58.9" style="stroke:#000000;stroke-width:1.5;" width="262" x="89.5" y="229.9"/><line style="stroke:#181818;stroke-width:0.5;stroke-dasharray:5.0,5.0;" x1="37" x2="37" y1="83.1" y2="612.3"/><line style="stroke:#181818;stroke-width:0.5;stroke-dasharray:5.0,5.0;" x1="159.5" x2="159.5" y1="83.1" y2="612.3"/><line style="stroke:#181818;stroke-width:0.5;stroke-dasharray:5.0,5.0;" x1="512" x2="512" y1="83.1" y2="612.3"/><text fill="#000000" font-family="NanumGothic" font-size="14" lengthAdjust="spacing" textLength="59" x="5" y="79.88">EV Driver</text><ellipse cx="37.5" cy="14.5" fill="#E2E2F0" rx="8" ry="8" style="stroke:#7D5393;stroke-width:1.5;"/><path d="M37.5,22.5 L37.5,49.5 M24.5,30.5 L50.5,30.5 M37.5,49.5 L24.5,64.5 M37.5,49.5 L50.5,64.5 " fill="none" style="stroke:#7D5393;stroke-width:1.5;"/><rect fill="#7D5393" height="30.1" rx="2.5" ry="2.5" style="stroke:#181818;stroke-width:0.5;" width="120" x="99.5" y="52"/><text fill="#FFFFFF" font-family="NanumGothic" font-size="14" lengthAdjust="spacing" textLength="106" x="106.5" y="71.88">Charging Station</text><rect fill="#7D5393" height="30.1" rx="2.5" ry="2.5" style="stroke:#181818;stroke-width:0.5;" width="53" x="486" y="52"/><text fill="#FFFFFF" font-family="NanumGothic" font-size="14" lengthAdjust="spacing" textLength="39" x="493" y="71.88">CSMS</text><rect fill="#FFFFFF" height="438.3" style="stroke:#181818;stroke-width:1.0;" width="10" x="154.5" y="149"/><rect fill="#FFFFFF" height="28.95" style="stroke:#181818;stroke-width:1.0;" width="10" x="507.5" y="443.55"/><rect fill="#FFFFFF" height="28.95" style="stroke:#181818;stroke-width:1.0;" width="10" x="507.5" y="558.35"/><path d="M118,98.1 L118,122.1 L552,122.1 L552,108.1 L542,98.1 L118,98.1 " fill="#7D5393" style="stroke:#000000;stroke-width:0.5;"/><path d="M542,98.1 L542,108.1 L552,108.1 L542,98.1 " fill="#7D5393" style="stroke:#000000;stroke-width:0.5;"/><text fill="#FFFFFF" font-family="NanumGothic" font-size="13" lengthAdjust="spacing" textLength="343" x="159.25" y="115.06">Charging Station is Offline and a transaction is ongoing.</text><polygon fill="#181818" points="142.5,145,152.5,149,142.5,153,146.5,149" style="stroke:#181818;stroke-width:1.0;"/><line style="stroke:#181818;stroke-width:1.0;" x1="37.5" x2="148.5" y1="149" y2="149"/><text fill="#000000" font-family="NanumGothic" font-size="13" lengthAdjust="spacing" textLength="98" x="44.5" y="144.01">present idToken</text><path d="M79.5,164 L139.5,164 L139.5,170.95 L129.5,180.95 L79.5,180.95 L79.5,164 " fill="#EEEEEE" style="stroke:#000000;stroke-width:1.5;"/><rect fill="none" height="431.3" style="stroke:#000000;stroke-width:1.5;" width="483" x="79.5" y="164"/><text fill="#000000" font-family="NanumGothic" font-size="13" font-weight="bold" lengthAdjust="spacing" textLength="15" x="94.5" y="176.96">alt</text><text fill="#000000" font-family="NanumGothic" font-size="11" font-weight="bold" lengthAdjust="spacing" textLength="252" x="154.5" y="176.12">[if idToken matches or groupId can be validated]</text><line style="stroke:#181818;stroke-width:1.0;" x1="164.5" x2="206.5" y1="201.9" y2="201.9"/><line style="stroke:#181818;stroke-width:1.0;" x1="206.5" x2="206.5" y1="201.9" y2="214.9"/><line style="stroke:#181818;stroke-width:1.0;" x1="165.5" x2="206.5" y1="214.9" y2="214.9"/><polygon fill="#181818" points="175.5,210.9,165.5,214.9,175.5,218.9,171.5,214.9" style="stroke:#181818;stroke-width:1.0;"/><text fill="#000000" font-family="NanumGothic" font-size="13" lengthAdjust="spacing" textLength="106" x="171.5" y="196.91">stop energy offer</text><path d="M89.5,229.9 L149.5,229.9 L149.5,236.85 L139.5,246.85 L89.5,246.85 L89.5,229.9 " fill="#EEEEEE" style="stroke:#000000;stroke-width:1.5;"/><rect fill="none" height="58.9" style="stroke:#000000;stroke-width:1.5;" width="262" x="89.5" y="229.9"/><text fill="#000000" font-family="NanumGothic" font-size="13" font-weight="bold" lengthAdjust="spacing" textLength="15" x="104.5" y="242.86">alt</text><text fill="#000000" font-family="NanumGothic" font-size="11" font-weight="bold" lengthAdjust="spacing" textLength="182" x="164.5" y="242.02">[if cable not permanently attached]</text><line style="stroke:#181818;stroke-width:1.0;" x1="164.5" x2="206.5" y1="267.8" y2="267.8"/><line style="stroke:#181818;stroke-width:1.0;" x1="206.5" x2="206.5" y1="267.8" y2="280.8"/><line style="stroke:#181818;stroke-width:1.0;" x1="165.5" x2="206.5" y1="280.8" y2="280.8"/><polygon fill="#181818" points="175.5,276.8,165.5,280.8,175.5,284.8,171.5,280.8" style="stroke:#181818;stroke-width:1.0;"/><text fill="#000000" font-family="NanumGothic" font-size="13" lengthAdjust="spacing" textLength="105" x="171.5" y="262.81">unlock connector</text><line style="stroke:#181818;stroke-width:1.0;" x1="164.5" x2="206.5" y1="331.7" y2="331.7"/><line style="stroke:#181818;stroke-width:1.0;" x1="206.5" x2="206.5" y1="331.7" y2="344.7"/><line style="stroke:#181818;stroke-width:1.0;" x1="165.5" x2="206.5" y1="344.7" y2="344.7"/><polygon fill="#181818" points="175.5,340.7,165.5,344.7,175.5,348.7,171.5,344.7" style="stroke:#181818;stroke-width:1.0;"/><text fill="#000000" font-family="NanumGothic" font-size="13" lengthAdjust="spacing" textLength="313" x="171.5" y="311.76">Store TransactionEventRequest(eventType = Ended,</text><text fill="#000000" font-family="NanumGothic" font-size="13" lengthAdjust="spacing" textLength="86" x="171.5" y="326.71">offline = true)</text><path d="M118,357.7 L118,381.7 L552,381.7 L552,367.7 L542,357.7 L118,357.7 " fill="#7D5393" style="stroke:#000000;stroke-width:0.5;"/><path d="M542,357.7 L542,367.7 L552,367.7 L542,357.7 " fill="#7D5393" style="stroke:#000000;stroke-width:0.5;"/><text fill="#FFFFFF" font-family="NanumGothic" font-size="13" lengthAdjust="spacing" textLength="330" x="165.75" y="374.66">Connection loss can be minutes, but can also be days.</text><path d="M118,392.65 L118,416.65 L552,416.65 L552,402.65 L542,392.65 L118,392.65 " fill="#7D5393" style="stroke:#000000;stroke-width:0.5;"/><path d="M542,392.65 L542,402.65 L552,402.65 L542,392.65 " fill="#7D5393" style="stroke:#000000;stroke-width:0.5;"/><text fill="#FFFFFF" font-family="NanumGothic" font-size="13" lengthAdjust="spacing" textLength="129" x="266.25" y="409.61">Connection restored.</text><polygon fill="#181818" points="495.5,439.55,505.5,443.55,495.5,447.55,499.5,443.55" style="stroke:#181818;stroke-width:1.0;"/><line style="stroke:#181818;stroke-width:1.0;" x1="164.5" x2="501.5" y1="443.55" y2="443.55"/><text fill="#000000" font-family="NanumGothic" font-size="13" lengthAdjust="spacing" textLength="119" x="171.5" y="438.56">HeartbeatRequest()</text><polygon fill="#181818" points="175.5,468.5,165.5,472.5,175.5,476.5,171.5,472.5" style="stroke:#181818;stroke-width:1.0;"/><line style="stroke:#181818;stroke-width:1.0;stroke-dasharray:2.0,2.0;" x1="169.5" x2="511.5" y1="472.5" y2="472.5"/><text fill="#000000" font-family="NanumGothic" font-size="13" lengthAdjust="spacing" textLength="128" x="181.5" y="467.51">HeartbeatResponse()</text><line style="stroke:#181818;stroke-width:1.0;" x1="164.5" x2="206.5" y1="501.45" y2="501.45"/><line style="stroke:#181818;stroke-width:1.0;" x1="206.5" x2="206.5" y1="501.45" y2="514.45"/><line style="stroke:#181818;stroke-width:1.0;" x1="165.5" x2="206.5" y1="514.45" y2="514.45"/><polygon fill="#181818" points="175.5,510.45,165.5,514.45,175.5,518.45,171.5,514.45" style="stroke:#181818;stroke-width:1.0;"/><text fill="#000000" font-family="NanumGothic" font-size="13" lengthAdjust="spacing" textLength="146" x="171.5" y="496.46">send queued message()</text><polygon fill="#181818" points="495.5,554.35,505.5,558.35,495.5,562.35,499.5,558.35" style="stroke:#181818;stroke-width:1.0;"/><line style="stroke:#181818;stroke-width:1.0;" x1="164.5" x2="501.5" y1="558.35" y2="558.35"/><text fill="#000000" font-family="NanumGothic" font-size="13" lengthAdjust="spacing" textLength="277" x="171.5" y="538.41">TransactionEventRequest(eventType = Ended,</text><text fill="#000000" font-family="NanumGothic" font-size="13" lengthAdjust="spacing" textLength="86" x="171.5" y="553.36">offline = true)</text><polygon fill="#181818" points="170.5,583.3,160.5,587.3,170.5,591.3,166.5,587.3" style="stroke:#181818;stroke-width:1.0;"/><line style="stroke:#181818;stroke-width:1.0;stroke-dasharray:2.0,2.0;" x1="164.5" x2="511.5" y1="587.3" y2="587.3"/><text fill="#000000" font-family="NanumGothic" font-size="13" lengthAdjust="spacing" textLength="171" x="176.5" y="582.31">TransactionEventResponse()</text><!--SRC=[fLFBJkim4DtxA-Ps1LBf1o31vb895WY9LgpOJED9i736nezA-Nl6ULnGMhX5M94IstFcd3ap-MEuibaJnDHPMldSMgMmIYx0Olq4Dy7iAIm08woVXeto69AfZ4TEiFZxWg4ntC0cOJAE-z3fS3oR8JRtco5AFfHYbmYSv9sZbaC0m9m2J8I7khQ62P0r8AI074NqUEcuSHA_KYIt9RzIatYuk9xpN88F54ca6RrrhyIbVBD7aJMlGw6Lg7eAX1PJzK926A09Blix3HKox0ZsQ8sM5FgJ_ad-CGanEG_459eEN5sBom8SsIhSMIfrWAVG8ejKsm6cX49U24wZo6nTzGgLOwRINm6AF-f4WMLj14Mm_J1xlHSjZ_IMAQOpAfjjvmckOCsQzB9WdjcDhRgIDcKw5pvv_jzraJKeBOgiYt6ojZMS4yKbx7Bgpz16LouqTd4rL3Ls_SSyCWYbHZrFSymXWL_2BSbexmZ_kL3g-vYVViAXVyF5CLi_uQDt7AbFeEamnIb3L2IBZ4mQMeeHcvBkE_bb_RwVFwZtaEoBicT_tg4dPNRV0G00]--></g></svg>