<?xml version="1.0" encoding="us-ascii" standalone="no"?><svg xmlns="http://www.w3.org/2000/svg" xmlns:xlink="http://www.w3.org/1999/xlink" contentStyleType="text/css" height="541px" preserveAspectRatio="none" style="width:590px;height:541px;background:#FFFFFF;" version="1.1" viewBox="0 0 590 541" width="590px" zoomAndPan="magnify"><defs/><g><rect fill="#FFFFFF" height="458.3" style="stroke:#181818;stroke-width:1.0;" width="10" x="91.5" y="67.05"/><rect fill="#FFFFFF" height="28.95" style="stroke:#181818;stroke-width:1.0;" width="10" x="552.5" y="67.05"/><rect fill="#FFFFFF" height="28.95" style="stroke:#181818;stroke-width:1.0;" width="10" x="552.5" y="124.95"/><rect fill="#FFFFFF" height="28.95" style="stroke:#181818;stroke-width:1.0;" width="10" x="552.5" y="259.75"/><rect fill="#FFFFFF" height="28.95" style="stroke:#181818;stroke-width:1.0;" width="10" x="552.5" y="394.55"/><rect fill="#FFFFFF" height="28.95" style="stroke:#181818;stroke-width:1.0;" width="10" x="552.5" y="487.4"/><line style="stroke:#181818;stroke-width:0.5;stroke-dasharray:5.0,5.0;" x1="96" x2="96" y1="36.1" y2="534.35"/><line style="stroke:#181818;stroke-width:0.5;stroke-dasharray:5.0,5.0;" x1="557" x2="557" y1="36.1" y2="534.35"/><rect fill="#7D5393" height="30.1" rx="2.5" ry="2.5" style="stroke:#181818;stroke-width:0.5;" width="113" x="40" y="5"/><text fill="#FFFFFF" font-family="NanumGothic" font-size="14" lengthAdjust="spacing" textLength="99" x="47" y="24.88">Local Controller</text><rect fill="#7D5393" height="30.1" rx="2.5" ry="2.5" style="stroke:#181818;stroke-width:0.5;" width="53" x="531" y="5"/><text fill="#FFFFFF" font-family="NanumGothic" font-size="14" lengthAdjust="spacing" textLength="39" x="538" y="24.88">CSMS</text><rect fill="#FFFFFF" height="458.3" style="stroke:#181818;stroke-width:1.0;" width="10" x="91.5" y="67.05"/><rect fill="#FFFFFF" height="28.95" style="stroke:#181818;stroke-width:1.0;" width="10" x="552.5" y="67.05"/><rect fill="#FFFFFF" height="28.95" style="stroke:#181818;stroke-width:1.0;" width="10" x="552.5" y="124.95"/><rect fill="#FFFFFF" height="28.95" style="stroke:#181818;stroke-width:1.0;" width="10" x="552.5" y="259.75"/><rect fill="#FFFFFF" height="28.95" style="stroke:#181818;stroke-width:1.0;" width="10" x="552.5" y="394.55"/><rect fill="#FFFFFF" height="28.95" style="stroke:#181818;stroke-width:1.0;" width="10" x="552.5" y="487.4"/><polygon fill="#181818" points="112.5,63.05,102.5,67.05,112.5,71.05,108.5,67.05" style="stroke:#181818;stroke-width:1.0;"/><line style="stroke:#181818;stroke-width:1.0;" x1="106.5" x2="551.5" y1="67.05" y2="67.05"/><text fill="#000000" font-family="NanumGothic" font-size="13" lengthAdjust="spacing" textLength="160" x="118.5" y="62.06">PublishFirmwareRequest()</text><polygon fill="#181818" points="545.5,92,555.5,96,545.5,100,549.5,96" style="stroke:#181818;stroke-width:1.0;"/><line style="stroke:#181818;stroke-width:1.0;" x1="101.5" x2="551.5" y1="96" y2="96"/><text fill="#000000" font-family="NanumGothic" font-size="13" lengthAdjust="spacing" textLength="169" x="108.5" y="91.01">PublishFirmwareResponse()</text><polygon fill="#181818" points="540.5,120.95,550.5,124.95,540.5,128.95,544.5,124.95" style="stroke:#181818;stroke-width:1.0;"/><line style="stroke:#181818;stroke-width:1.0;" x1="101.5" x2="546.5" y1="124.95" y2="124.95"/><text fill="#000000" font-family="NanumGothic" font-size="13" lengthAdjust="spacing" textLength="403" x="108.5" y="119.96">PublishFirmwareStatusNotificationRequest(status = Downloading)</text><polygon fill="#181818" points="112.5,149.9,102.5,153.9,112.5,157.9,108.5,153.9" style="stroke:#181818;stroke-width:1.0;"/><line style="stroke:#181818;stroke-width:1.0;" x1="106.5" x2="556.5" y1="153.9" y2="153.9"/><text fill="#000000" font-family="NanumGothic" font-size="13" lengthAdjust="spacing" textLength="277" x="118.5" y="148.91">PublishFirmwareStatusNotificationResponse()</text><ellipse cx="101" cy="195.1" fill="none" rx="4" ry="4" style="stroke:#181818;stroke-width:1.5;"/><line style="stroke:#181818;stroke-width:1.0;" x1="101.5" x2="143.5" y1="182.85" y2="182.85"/><line style="stroke:#181818;stroke-width:1.0;" x1="143.5" x2="143.5" y1="182.85" y2="195.85"/><line style="stroke:#181818;stroke-width:1.0;" x1="106.5" x2="143.5" y1="195.85" y2="195.85"/><polygon fill="#181818" points="116.5,191.85,106.5,195.85,116.5,199.85,112.5,195.85" style="stroke:#181818;stroke-width:1.0;"/><text fill="#000000" font-family="NanumGothic" font-size="13" lengthAdjust="spacing" textLength="121" x="108.5" y="177.86">Download firmware</text><path d="M16,208.85 L16,232.85 L177,232.85 L177,218.85 L167,208.85 L16,208.85 " fill="#7D5393" style="stroke:#000000;stroke-width:0.5;"/><path d="M167,208.85 L167,218.85 L177,218.85 L167,208.85 " fill="#7D5393" style="stroke:#000000;stroke-width:0.5;"/><text fill="#FFFFFF" font-family="NanumGothic" font-size="13" lengthAdjust="spacing" textLength="140" x="22" y="225.81">Downloading firmware</text><polygon fill="#181818" points="540.5,255.75,550.5,259.75,540.5,263.75,544.5,259.75" style="stroke:#181818;stroke-width:1.0;"/><line style="stroke:#181818;stroke-width:1.0;" x1="101.5" x2="546.5" y1="259.75" y2="259.75"/><text fill="#000000" font-family="NanumGothic" font-size="13" lengthAdjust="spacing" textLength="399" x="108.5" y="254.76">PublishFirmwareStatusNotificationRequest(status = Downloaded)</text><polygon fill="#181818" points="112.5,284.7,102.5,288.7,112.5,292.7,108.5,288.7" style="stroke:#181818;stroke-width:1.0;"/><line style="stroke:#181818;stroke-width:1.0;" x1="106.5" x2="556.5" y1="288.7" y2="288.7"/><text fill="#000000" font-family="NanumGothic" font-size="13" lengthAdjust="spacing" textLength="277" x="118.5" y="283.71">PublishFirmwareStatusNotificationResponse()</text><ellipse cx="101" cy="329.9" fill="none" rx="4" ry="4" style="stroke:#181818;stroke-width:1.5;"/><line style="stroke:#181818;stroke-width:1.0;" x1="101.5" x2="143.5" y1="317.65" y2="317.65"/><line style="stroke:#181818;stroke-width:1.0;" x1="143.5" x2="143.5" y1="317.65" y2="330.65"/><line style="stroke:#181818;stroke-width:1.0;" x1="106.5" x2="143.5" y1="330.65" y2="330.65"/><polygon fill="#181818" points="116.5,326.65,106.5,330.65,116.5,334.65,112.5,330.65" style="stroke:#181818;stroke-width:1.0;"/><text fill="#000000" font-family="NanumGothic" font-size="13" lengthAdjust="spacing" textLength="99" x="108.5" y="312.66">Verify checksum</text><path d="M19,343.65 L19,367.65 L173,367.65 L173,353.65 L163,343.65 L19,343.65 " fill="#7D5393" style="stroke:#000000;stroke-width:0.5;"/><path d="M163,343.65 L163,353.65 L173,353.65 L163,343.65 " fill="#7D5393" style="stroke:#000000;stroke-width:0.5;"/><text fill="#FFFFFF" font-family="NanumGothic" font-size="13" lengthAdjust="spacing" textLength="133" x="25" y="360.61">Verify MD5 checksum</text><polygon fill="#181818" points="540.5,390.55,550.5,394.55,540.5,398.55,544.5,394.55" style="stroke:#181818;stroke-width:1.0;"/><line style="stroke:#181818;stroke-width:1.0;" x1="101.5" x2="546.5" y1="394.55" y2="394.55"/><text fill="#000000" font-family="NanumGothic" font-size="13" lengthAdjust="spacing" textLength="432" x="108.5" y="389.56">PublishFirmwareStatusNotificationRequest(status = ChecksumVerified)</text><polygon fill="#181818" points="112.5,419.5,102.5,423.5,112.5,427.5,108.5,423.5" style="stroke:#181818;stroke-width:1.0;"/><line style="stroke:#181818;stroke-width:1.0;" x1="106.5" x2="556.5" y1="423.5" y2="423.5"/><text fill="#000000" font-family="NanumGothic" font-size="13" lengthAdjust="spacing" textLength="277" x="118.5" y="418.51">PublishFirmwareStatusNotificationResponse()</text><path d="M5,436.5 L5,460.5 L189,460.5 L189,446.5 L179,436.5 L5,436.5 " fill="#7D5393" style="stroke:#000000;stroke-width:0.5;"/><path d="M179,436.5 L179,446.5 L189,446.5 L179,436.5 " fill="#7D5393" style="stroke:#000000;stroke-width:0.5;"/><text fill="#FFFFFF" font-family="NanumGothic" font-size="13" lengthAdjust="spacing" textLength="163" x="11" y="453.46">Publish FW on publish URL</text><polygon fill="#181818" points="540.5,483.4,550.5,487.4,540.5,491.4,544.5,487.4" style="stroke:#181818;stroke-width:1.0;"/><line style="stroke:#181818;stroke-width:1.0;" x1="101.5" x2="546.5" y1="487.4" y2="487.4"/><text fill="#000000" font-family="NanumGothic" font-size="13" lengthAdjust="spacing" textLength="393" x="108.5" y="482.41">FirmwareStatusNotificationRequest(status = Published, location)</text><polygon fill="#181818" points="112.5,512.35,102.5,516.35,112.5,520.35,108.5,516.35" style="stroke:#181818;stroke-width:1.0;"/><line style="stroke:#181818;stroke-width:1.0;" x1="106.5" x2="556.5" y1="516.35" y2="516.35"/><text fill="#000000" font-family="NanumGothic" font-size="13" lengthAdjust="spacing" textLength="233" x="118.5" y="511.36">FirmwareStatusNotificationResponse()</text><!--SRC=[pL1DJm8n5BptLpmvIQBUl9Ze1S89Z66ZdclxLbxizgtzWF3ltLsAgmiX2md6IzDstioycGkooaIDuCFQu4qP2oD4ALqWHQMq0GPJLjB0Y6rmR0ow0KWFpMVxzvinocPPCrLVXAXFk7xeSkxWARuPyei9kM8b7SxnCw8FbqCXLQ2b3BXZymrib3jmRL83UvHzoTPZ9QtnH8qio13z8mVAISb0RBVx-WQ1UnZpoXgMckpxiBjgtnBssHopFEywRDU2F7a8ORcIu6N5w3OCFrEq3BGQQj9P-aBzd-fwGKVv6jG2rOUFnU6oql1iVDiIpjBLAAatXlHdZHtAdeHXyWfieKolv_cqJmD7H4y-gA_0y6QcV_gJOdy1]--></g></svg>