<?xml version="1.0" encoding="us-ascii" standalone="no"?><svg xmlns="http://www.w3.org/2000/svg" xmlns:xlink="http://www.w3.org/1999/xlink" contentStyleType="text/css" height="432px" preserveAspectRatio="none" style="width:845px;height:432px;background:#FFFFFF;" version="1.1" viewBox="0 0 845 432" width="845px" zoomAndPan="magnify"><defs/><g><rect fill="#FFFFFF" height="57.9" style="stroke:#181818;stroke-width:1.0;" width="10" x="101.5" y="114.05"/><rect fill="#FFFFFF" height="28.95" style="stroke:#181818;stroke-width:1.0;" width="10" x="101.5" y="224.85"/><rect fill="#FFFFFF" height="28.95" style="stroke:#181818;stroke-width:1.0;" width="10" x="101.5" y="342.65"/><rect fill="#FFFFFF" height="110.8" style="stroke:#181818;stroke-width:1.0;" width="10" x="631.5" y="143"/><rect fill="#FFFFFF" height="117.8" style="stroke:#181818;stroke-width:1.0;" width="10" x="631.5" y="289.75"/><rect fill="none" height="74.85" style="stroke:#000000;stroke-width:1.5;" width="636.5" x="70" y="186.95"/><rect fill="none" height="74.85" style="stroke:#000000;stroke-width:1.5;" width="636.5" x="70" y="304.75"/><line style="stroke:#181818;stroke-width:0.5;stroke-dasharray:5.0,5.0;" x1="37" x2="37" y1="83.1" y2="425.55"/><line style="stroke:#181818;stroke-width:0.5;stroke-dasharray:5.0,5.0;" x1="106" x2="106" y1="83.1" y2="425.55"/><line style="stroke:#181818;stroke-width:0.5;stroke-dasharray:5.0,5.0;" x1="636.5" x2="636.5" y1="83.1" y2="425.55"/><text fill="#000000" font-family="NanumGothic" font-size="14" lengthAdjust="spacing" textLength="59" x="5" y="79.88">EV Driver</text><ellipse cx="37.5" cy="14.5" fill="#E2E2F0" rx="8" ry="8" style="stroke:#7D5393;stroke-width:1.5;"/><path d="M37.5,22.5 L37.5,49.5 M24.5,30.5 L50.5,30.5 M37.5,49.5 L24.5,64.5 M37.5,49.5 L50.5,64.5 " fill="none" style="stroke:#7D5393;stroke-width:1.5;"/><rect fill="#7D5393" height="30.1" rx="2.5" ry="2.5" style="stroke:#181818;stroke-width:0.5;" width="53" x="80" y="52"/><text fill="#FFFFFF" font-family="NanumGothic" font-size="14" lengthAdjust="spacing" textLength="39" x="87" y="71.88">CSMS</text><rect fill="#7D5393" height="30.1" rx="2.5" ry="2.5" style="stroke:#181818;stroke-width:0.5;" width="120" x="576.5" y="52"/><text fill="#FFFFFF" font-family="NanumGothic" font-size="14" lengthAdjust="spacing" textLength="106" x="583.5" y="71.88">Charging Station</text><rect fill="#FFFFFF" height="57.9" style="stroke:#181818;stroke-width:1.0;" width="10" x="101.5" y="114.05"/><rect fill="#FFFFFF" height="28.95" style="stroke:#181818;stroke-width:1.0;" width="10" x="101.5" y="224.85"/><rect fill="#FFFFFF" height="28.95" style="stroke:#181818;stroke-width:1.0;" width="10" x="101.5" y="342.65"/><rect fill="#FFFFFF" height="110.8" style="stroke:#181818;stroke-width:1.0;" width="10" x="631.5" y="143"/><rect fill="#FFFFFF" height="117.8" style="stroke:#181818;stroke-width:1.0;" width="10" x="631.5" y="289.75"/><polygon fill="#181818" points="89.5,110.05,99.5,114.05,89.5,118.05,93.5,114.05" style="stroke:#181818;stroke-width:1.0;"/><line style="stroke:#181818;stroke-width:1.0;" x1="37.5" x2="95.5" y1="114.05" y2="114.05"/><text fill="#000000" font-family="NanumGothic" font-size="13" lengthAdjust="spacing" textLength="43" x="44.5" y="109.06">reserve</text><polygon fill="#181818" points="619.5,139,629.5,143,619.5,147,623.5,143" style="stroke:#181818;stroke-width:1.0;"/><line style="stroke:#181818;stroke-width:1.0;" x1="111.5" x2="625.5" y1="143" y2="143"/><text fill="#000000" font-family="NanumGothic" font-size="13" lengthAdjust="spacing" textLength="501" x="118.5" y="138.01">ReserveNowRequest(connectorId, idToken = TOKEN_A, groupIdToken = TOKEN_P)</text><polygon fill="#181818" points="117.5,167.95,107.5,171.95,117.5,175.95,113.5,171.95" style="stroke:#181818;stroke-width:1.0;"/><line style="stroke:#181818;stroke-width:1.0;stroke-dasharray:2.0,2.0;" x1="111.5" x2="630.5" y1="171.95" y2="171.95"/><text fill="#000000" font-family="NanumGothic" font-size="13" lengthAdjust="spacing" textLength="252" x="123.5" y="166.96">ReserveNowResponse(status = Accepted)</text><path d="M70,186.95 L136,186.95 L136,193.9 L126,203.9 L70,203.9 L70,186.95 " fill="#EEEEEE" style="stroke:#000000;stroke-width:1.5;"/><rect fill="none" height="74.85" style="stroke:#000000;stroke-width:1.5;" width="636.5" x="70" y="186.95"/><text fill="#000000" font-family="NanumGothic" font-size="13" font-weight="bold" lengthAdjust="spacing" textLength="21" x="85" y="199.91">opt</text><text fill="#000000" font-family="NanumGothic" font-size="11" font-weight="bold" lengthAdjust="spacing" textLength="274" x="151" y="199.07">[When a specific EVSE is reserved for this reservation]</text><polygon fill="#181818" points="122.5,220.85,112.5,224.85,122.5,228.85,118.5,224.85" style="stroke:#181818;stroke-width:1.0;"/><line style="stroke:#181818;stroke-width:1.0;" x1="116.5" x2="630.5" y1="224.85" y2="224.85"/><text fill="#000000" font-family="NanumGothic" font-size="13" lengthAdjust="spacing" textLength="295" x="128.5" y="219.86">StatusNotificationRequest(status = Reserved, ...)</text><polygon fill="#181818" points="624.5,249.8,634.5,253.8,624.5,257.8,628.5,253.8" style="stroke:#181818;stroke-width:1.0;"/><line style="stroke:#181818;stroke-width:1.0;stroke-dasharray:2.0,2.0;" x1="106.5" x2="630.5" y1="253.8" y2="253.8"/><text fill="#000000" font-family="NanumGothic" font-size="13" lengthAdjust="spacing" textLength="176" x="113.5" y="248.81">StatusNotificationResponse()</text><polygon fill="#181818" points="619.5,285.75,629.5,289.75,619.5,293.75,623.5,289.75" style="stroke:#181818;stroke-width:1.0;"/><line style="stroke:#181818;stroke-width:1.0;" x1="37.5" x2="625.5" y1="289.75" y2="289.75"/><text fill="#000000" font-family="NanumGothic" font-size="13" lengthAdjust="spacing" textLength="164" x="44.5" y="284.76">Present IdToken(TOKEN_B)</text><path d="M70,304.75 L130,304.75 L130,311.7 L120,321.7 L70,321.7 L70,304.75 " fill="#EEEEEE" style="stroke:#000000;stroke-width:1.5;"/><rect fill="none" height="74.85" style="stroke:#000000;stroke-width:1.5;" width="636.5" x="70" y="304.75"/><text fill="#000000" font-family="NanumGothic" font-size="13" font-weight="bold" lengthAdjust="spacing" textLength="15" x="85" y="317.71">alt</text><text fill="#000000" font-family="NanumGothic" font-size="11" font-weight="bold" lengthAdjust="spacing" textLength="419" x="145" y="316.87">[If TOKEN_B is NOT found in the Local Authorization List or Authorization Cache]</text><polygon fill="#181818" points="122.5,338.65,112.5,342.65,122.5,346.65,118.5,342.65" style="stroke:#181818;stroke-width:1.0;"/><line style="stroke:#181818;stroke-width:1.0;" x1="116.5" x2="630.5" y1="342.65" y2="342.65"/><text fill="#000000" font-family="NanumGothic" font-size="13" lengthAdjust="spacing" textLength="239" x="128.5" y="337.66">AuthorizeRequest(idToken = TOKEN_B)</text><polygon fill="#181818" points="619.5,367.6,629.5,371.6,619.5,375.6,623.5,371.6" style="stroke:#181818;stroke-width:1.0;"/><line style="stroke:#181818;stroke-width:1.0;stroke-dasharray:2.0,2.0;" x1="106.5" x2="625.5" y1="371.6" y2="371.6"/><text fill="#000000" font-family="NanumGothic" font-size="13" lengthAdjust="spacing" textLength="367" x="113.5" y="366.61">AuthorizeResponse(idTokenInfo(groupIdToken = TOKEN_P))</text><ellipse cx="835" cy="406.8" fill="none" rx="4" ry="4" style="stroke:#181818;stroke-width:1.5;"/><polygon fill="#181818" points="818,403.55,828,407.55,818,411.55,822,407.55" style="stroke:#181818;stroke-width:1.0;"/><line style="stroke:#181818;stroke-width:1.0;" x1="636.5" x2="824" y1="407.55" y2="407.55"/><text fill="#000000" font-family="NanumGothic" font-size="13" lengthAdjust="spacing" textLength="175" x="643.5" y="402.56">Continue regular transaction</text><!--SRC=[bPBFRi8m3CRlVGgF4qZG1q3Q960zeB62A6AdQOfIjutM9Lt-C6rFlwHf4GI6j4lLskxdpp_xZd5Qcnn1wUyQuyPyr554g1OI1iaU7YKxe1m0KP3i_KVK4AaPPGtX6WQBx3bhq-ubI5L4beoNa6cYcU2-h0jsiIZgPM7oq6fCGQ92UK3dWXs8HYyTkMTRTAumXQslJyNN5ZyDAZsaWdDqCoppCR1y9zwHmptiraz9-ZORGoc5QPP1V3CwwHYw308mERezxQuQmHKEbIqooWhFACL6OpwASWoc4Os6bygs9w0QfAnWr1BE4c2g1v13ORUWgsF4Um6uCDDxoTh6gT1EhitrH8wMEhkMInp78oiM-0BmdA-1lYRVZUoKmXdF8m5Hv7cm-x3RnWrjxwZRqz1lQNvhIwIsvKMtpxb3cQvtbgBXEJ1kKIAi12Krp8okX6G_dj-AAGqMzNbqGMY5jsZtvTX33Yzj_a- -9u8TravnoGin_EDehv5luLxw5gymXONWcd63zgPAKnDxO99mvVwt16yix1S0]--></g></svg>