<?xml version="1.0" encoding="us-ascii" standalone="no"?><svg xmlns="http://www.w3.org/2000/svg" xmlns:xlink="http://www.w3.org/1999/xlink" contentStyleType="text/css" height="671px" preserveAspectRatio="none" style="width:1161px;height:671px;background:#FFFFFF;" version="1.1" viewBox="0 0 1161 671" width="1161px" zoomAndPan="magnify"><defs/><g><rect fill="#FFFFFF" height="326.45" style="stroke:#181818;stroke-width:1.0;" width="10" x="30.5" y="67.05"/><rect fill="#FFFFFF" height="28.95" style="stroke:#181818;stroke-width:1.0;" width="10" x="477.5" y="67.05"/><rect fill="#FFFFFF" height="28.95" style="stroke:#181818;stroke-width:1.0;" width="10" x="477.5" y="124.95"/><rect fill="#FFFFFF" height="128.8" style="stroke:#181818;stroke-width:1.0;" width="10" x="477.5" y="206.8"/><rect fill="#FFFFFF" height="28.95" style="stroke:#181818;stroke-width:1.0;" width="10" x="477.5" y="364.55"/><rect fill="#FFFFFF" height="86.85" style="stroke:#181818;stroke-width:1.0;" width="10" x="477.5" y="437.1"/><rect fill="#FFFFFF" height="86.85" style="stroke:#181818;stroke-width:1.0;" width="10" x="477.5" y="552.9"/><rect fill="#FFFFFF" height="70.9" style="stroke:#181818;stroke-width:1.0;" width="10" x="936.5" y="235.75"/><rect fill="#FFFFFF" height="144.75" style="stroke:#181818;stroke-width:1.0;" width="10" x="936.5" y="466.05"/><rect fill="#FFFFFF" height="86.85" style="stroke:#181818;stroke-width:1.0;" width="10" x="1105.5" y="495"/><rect fill="none" height="478.85" style="stroke:#000000;stroke-width:1.5;" width="1144" x="10" y="168.9"/><line style="stroke:#181818;stroke-width:0.5;stroke-dasharray:5.0,5.0;" x1="35" x2="35" y1="36.1" y2="664.75"/><line style="stroke:#181818;stroke-width:0.5;stroke-dasharray:5.0,5.0;" x1="482.5" x2="482.5" y1="36.1" y2="664.75"/><line style="stroke:#181818;stroke-width:0.5;stroke-dasharray:5.0,5.0;" x1="941" x2="941" y1="36.1" y2="664.75"/><line style="stroke:#181818;stroke-width:0.5;stroke-dasharray:5.0,5.0;" x1="1110" x2="1110" y1="36.1" y2="664.75"/><rect fill="#7D5393" height="30.1" rx="2.5" ry="2.5" style="stroke:#181818;stroke-width:0.5;" width="31" x="20" y="5"/><text fill="#FFFFFF" font-family="NanumGothic" font-size="14" lengthAdjust="spacing" textLength="17" x="27" y="24.88">EV</text><rect fill="#7D5393" height="30.1" rx="2.5" ry="2.5" style="stroke:#181818;stroke-width:0.5;" width="120" x="422.5" y="5"/><text fill="#FFFFFF" font-family="NanumGothic" font-size="14" lengthAdjust="spacing" textLength="106" x="429.5" y="24.88">Charging Station</text><rect fill="#7D5393" height="30.1" rx="2.5" ry="2.5" style="stroke:#181818;stroke-width:0.5;" width="53" x="915" y="5"/><text fill="#FFFFFF" font-family="NanumGothic" font-size="14" lengthAdjust="spacing" textLength="39" x="922" y="24.88">CSMS</text><rect fill="#7D5393" height="30.1" rx="2.5" ry="2.5" style="stroke:#181818;stroke-width:0.5;" width="67" x="1077" y="5"/><text fill="#FFFFFF" font-family="NanumGothic" font-size="14" lengthAdjust="spacing" textLength="53" x="1084" y="24.88">(Sub)CA</text><rect fill="#FFFFFF" height="326.45" style="stroke:#181818;stroke-width:1.0;" width="10" x="30.5" y="67.05"/><rect fill="#FFFFFF" height="28.95" style="stroke:#181818;stroke-width:1.0;" width="10" x="477.5" y="67.05"/><rect fill="#FFFFFF" height="28.95" style="stroke:#181818;stroke-width:1.0;" width="10" x="477.5" y="124.95"/><rect fill="#FFFFFF" height="128.8" style="stroke:#181818;stroke-width:1.0;" width="10" x="477.5" y="206.8"/><rect fill="#FFFFFF" height="28.95" style="stroke:#181818;stroke-width:1.0;" width="10" x="477.5" y="364.55"/><rect fill="#FFFFFF" height="86.85" style="stroke:#181818;stroke-width:1.0;" width="10" x="477.5" y="437.1"/><rect fill="#FFFFFF" height="86.85" style="stroke:#181818;stroke-width:1.0;" width="10" x="477.5" y="552.9"/><rect fill="#FFFFFF" height="70.9" style="stroke:#181818;stroke-width:1.0;" width="10" x="936.5" y="235.75"/><rect fill="#FFFFFF" height="144.75" style="stroke:#181818;stroke-width:1.0;" width="10" x="936.5" y="466.05"/><rect fill="#FFFFFF" height="86.85" style="stroke:#181818;stroke-width:1.0;" width="10" x="1105.5" y="495"/><polygon fill="#181818" points="465.5,63.05,475.5,67.05,465.5,71.05,469.5,67.05" style="stroke:#181818;stroke-width:1.0;"/><line style="stroke:#181818;stroke-width:1.0;" x1="40.5" x2="471.5" y1="67.05" y2="67.05"/><text fill="#000000" font-family="NanumGothic" font-size="13" lengthAdjust="spacing" textLength="130" x="47.5" y="62.06">ServiceDiscoveryReq()</text><polygon fill="#181818" points="51.5,92,41.5,96,51.5,100,47.5,96" style="stroke:#181818;stroke-width:1.0;"/><line style="stroke:#181818;stroke-width:1.0;stroke-dasharray:2.0,2.0;" x1="45.5" x2="481.5" y1="96" y2="96"/><text fill="#000000" font-family="NanumGothic" font-size="13" lengthAdjust="spacing" textLength="413" x="57.5" y="91.01">ServiceDiscoveryRes(PaymentServiceList: Contract, ExternalPayment)</text><polygon fill="#181818" points="465.5,120.95,475.5,124.95,465.5,128.95,469.5,124.95" style="stroke:#181818;stroke-width:1.0;"/><line style="stroke:#181818;stroke-width:1.0;" x1="40.5" x2="471.5" y1="124.95" y2="124.95"/><text fill="#000000" font-family="NanumGothic" font-size="13" lengthAdjust="spacing" textLength="337" x="47.5" y="119.96">PaymentServiceSelectionReq(paymentOption: Contract)</text><polygon fill="#181818" points="51.5,149.9,41.5,153.9,51.5,157.9,47.5,153.9" style="stroke:#181818;stroke-width:1.0;"/><line style="stroke:#181818;stroke-width:1.0;stroke-dasharray:2.0,2.0;" x1="45.5" x2="481.5" y1="153.9" y2="153.9"/><text fill="#000000" font-family="NanumGothic" font-size="13" lengthAdjust="spacing" textLength="179" x="57.5" y="148.91">PaymentServiceSelectionRes()</text><path d="M10,168.9 L70,168.9 L70,175.85 L60,185.85 L10,185.85 L10,168.9 " fill="#EEEEEE" style="stroke:#000000;stroke-width:1.5;"/><rect fill="none" height="478.85" style="stroke:#000000;stroke-width:1.5;" width="1144" x="10" y="168.9"/><text fill="#000000" font-family="NanumGothic" font-size="13" font-weight="bold" lengthAdjust="spacing" textLength="15" x="25" y="181.86">alt</text><text fill="#000000" font-family="NanumGothic" font-size="11" font-weight="bold" lengthAdjust="spacing" textLength="148" x="85" y="181.02">[Cached certificate checking]</text><polygon fill="#181818" points="465.5,202.8,475.5,206.8,465.5,210.8,469.5,206.8" style="stroke:#181818;stroke-width:1.0;"/><line style="stroke:#181818;stroke-width:1.0;" x1="40.5" x2="471.5" y1="206.8" y2="206.8"/><text fill="#000000" font-family="NanumGothic" font-size="13" lengthAdjust="spacing" textLength="325" x="47.5" y="201.81">PaymentDetailsReq(ContractCertificateChain, EMAID)</text><polygon fill="#181818" points="924.5,231.75,934.5,235.75,924.5,239.75,928.5,235.75" style="stroke:#181818;stroke-width:1.0;"/><line style="stroke:#181818;stroke-width:1.0;" x1="487.5" x2="930.5" y1="235.75" y2="235.75"/><text fill="#000000" font-family="NanumGothic" font-size="13" lengthAdjust="spacing" textLength="430" x="494.5" y="230.76">AuthorizeRequest(idToken.EMAID, iso15118CertificateHashData[0..4])</text><line style="stroke:#181818;stroke-width:1.0;" x1="946.5" x2="988.5" y1="264.7" y2="264.7"/><line style="stroke:#181818;stroke-width:1.0;" x1="988.5" x2="988.5" y1="264.7" y2="277.7"/><line style="stroke:#181818;stroke-width:1.0;" x1="947.5" x2="988.5" y1="277.7" y2="277.7"/><polygon fill="#181818" points="957.5,273.7,947.5,277.7,957.5,281.7,953.5,277.7" style="stroke:#181818;stroke-width:1.0;"/><text fill="#000000" font-family="NanumGothic" font-size="13" lengthAdjust="spacing" textLength="145" x="953.5" y="259.71">check certificate cache()</text><polygon fill="#181818" points="498.5,302.65,488.5,306.65,498.5,310.65,494.5,306.65" style="stroke:#181818;stroke-width:1.0;"/><line style="stroke:#181818;stroke-width:1.0;stroke-dasharray:2.0,2.0;" x1="492.5" x2="940.5" y1="306.65" y2="306.65"/><text fill="#000000" font-family="NanumGothic" font-size="13" lengthAdjust="spacing" textLength="304" x="504.5" y="301.66">AuthorizeResponse(idTokenInfo, certificateStatus)</text><polygon fill="#181818" points="51.5,331.6,41.5,335.6,51.5,339.6,47.5,335.6" style="stroke:#181818;stroke-width:1.0;"/><line style="stroke:#181818;stroke-width:1.0;stroke-dasharray:2.0,2.0;" x1="45.5" x2="481.5" y1="335.6" y2="335.6"/><text fill="#000000" font-family="NanumGothic" font-size="13" lengthAdjust="spacing" textLength="209" x="57.5" y="330.61">PaymentDetailsRes(GenChallenge)</text><polygon fill="#181818" points="465.5,360.55,475.5,364.55,465.5,368.55,469.5,364.55" style="stroke:#181818;stroke-width:1.0;"/><line style="stroke:#181818;stroke-width:1.0;" x1="40.5" x2="471.5" y1="364.55" y2="364.55"/><text fill="#000000" font-family="NanumGothic" font-size="13" lengthAdjust="spacing" textLength="201" x="47.5" y="359.56">AuthorizationReq(GenChallenge)</text><polygon fill="#181818" points="46.5,389.5,36.5,393.5,46.5,397.5,42.5,393.5" style="stroke:#181818;stroke-width:1.0;"/><line style="stroke:#181818;stroke-width:1.0;stroke-dasharray:2.0,2.0;" x1="40.5" x2="481.5" y1="393.5" y2="393.5"/><text fill="#000000" font-family="NanumGothic" font-size="13" lengthAdjust="spacing" textLength="307" x="52.5" y="388.51">AuthorizationRes(EVSEProcessing, ResponseCode)</text><line style="stroke:#000000;stroke-width:1.0;stroke-dasharray:2.0,2.0;" x1="10" x2="1154" y1="402.5" y2="402.5"/><text fill="#000000" font-family="NanumGothic" font-size="11" font-weight="bold" lengthAdjust="spacing" textLength="159" x="15" y="412.62">[Real-time certificate checking]</text><polygon fill="#181818" points="465.5,433.1,475.5,437.1,465.5,441.1,469.5,437.1" style="stroke:#181818;stroke-width:1.0;"/><line style="stroke:#181818;stroke-width:1.0;" x1="35.5" x2="471.5" y1="437.1" y2="437.1"/><text fill="#000000" font-family="NanumGothic" font-size="13" lengthAdjust="spacing" textLength="325" x="42.5" y="432.11">PaymentDetailsReq(ContractCertificateChain, EMAID)</text><polygon fill="#181818" points="924.5,462.05,934.5,466.05,924.5,470.05,928.5,466.05" style="stroke:#181818;stroke-width:1.0;"/><line style="stroke:#181818;stroke-width:1.0;" x1="487.5" x2="930.5" y1="466.05" y2="466.05"/><text fill="#000000" font-family="NanumGothic" font-size="13" lengthAdjust="spacing" textLength="430" x="494.5" y="461.06">AuthorizeRequest(idToken.EMAID, iso15118CertificateHashData[0..4])</text><polygon fill="#181818" points="1093.5,491,1103.5,495,1093.5,499,1097.5,495" style="stroke:#181818;stroke-width:1.0;"/><line style="stroke:#181818;stroke-width:1.0;" x1="946.5" x2="1099.5" y1="495" y2="495"/><text fill="#000000" font-family="NanumGothic" font-size="13" lengthAdjust="spacing" textLength="94" x="953.5" y="490.01">OCSP request()</text><polygon fill="#181818" points="46.5,519.95,36.5,523.95,46.5,527.95,42.5,523.95" style="stroke:#181818;stroke-width:1.0;"/><line style="stroke:#181818;stroke-width:1.0;stroke-dasharray:2.0,2.0;" x1="40.5" x2="481.5" y1="523.95" y2="523.95"/><text fill="#000000" font-family="NanumGothic" font-size="13" lengthAdjust="spacing" textLength="209" x="52.5" y="518.96">PaymentDetailsRes(GenChallenge)</text><polygon fill="#181818" points="465.5,548.9,475.5,552.9,465.5,556.9,469.5,552.9" style="stroke:#181818;stroke-width:1.0;"/><line style="stroke:#181818;stroke-width:1.0;" x1="35.5" x2="471.5" y1="552.9" y2="552.9"/><text fill="#000000" font-family="NanumGothic" font-size="13" lengthAdjust="spacing" textLength="201" x="42.5" y="547.91">AuthorizationReq(GenChallenge)</text><polygon fill="#181818" points="957.5,577.85,947.5,581.85,957.5,585.85,953.5,581.85" style="stroke:#181818;stroke-width:1.0;"/><line style="stroke:#181818;stroke-width:1.0;stroke-dasharray:2.0,2.0;" x1="951.5" x2="1109.5" y1="581.85" y2="581.85"/><text fill="#000000" font-family="NanumGothic" font-size="13" lengthAdjust="spacing" textLength="103" x="963.5" y="576.86">OCSP response()</text><polygon fill="#181818" points="498.5,606.8,488.5,610.8,498.5,614.8,494.5,610.8" style="stroke:#181818;stroke-width:1.0;"/><line style="stroke:#181818;stroke-width:1.0;stroke-dasharray:2.0,2.0;" x1="492.5" x2="940.5" y1="610.8" y2="610.8"/><text fill="#000000" font-family="NanumGothic" font-size="13" lengthAdjust="spacing" textLength="304" x="504.5" y="605.81">AuthorizeResponse(idTokenInfo, certificateStatus)</text><polygon fill="#181818" points="46.5,635.75,36.5,639.75,46.5,643.75,42.5,639.75" style="stroke:#181818;stroke-width:1.0;"/><line style="stroke:#181818;stroke-width:1.0;stroke-dasharray:2.0,2.0;" x1="40.5" x2="481.5" y1="639.75" y2="639.75"/><text fill="#000000" font-family="NanumGothic" font-size="13" lengthAdjust="spacing" textLength="307" x="52.5" y="634.76">AuthorizationRes(EVSEProcessing, ResponseCode)</text><!--SRC=[vLLTQzim57tNhxZhamr9M623aOT2SCnMM6cOXr_67bJvDX5L94zN3ij-_IJ7JcAtJcafbB6d2DrpppdtG_4xgOMg2WHoEuMJijeenafkdHIovDh1HPfV02T8y-vrikPs9VKACiUTDBe6jPVDNIyZkyxsA7_eXgAikesJUHtrnsGEZAKvZ2_xZ3F8q6wbm8KaORPeTz_mLnGpBfpSSeV1vk7STyDw5p3s0cd-62T5IxxRe7PDwAiaDuF4Q6Sz_GZItmwjvgf1nQp0OTc1IheA6IeK8H0AAlUXctAFR7NZ5zGsg4BHUTTSEKYuM6C10lsixgG8E7yXxZsE0PolQu6EIqMXdDP_SkJnMLBxFbxFhnQnvnhs0V2WjCjwXMOmhzpQMFa7lKY5v29PV3Vtg2SrxGWacUd7wVJJYUuNJki5T_p7-ydamy-kSbZB8ET_ZnfrlTqEXARuvXsWZpNXn1gLHXEstgxqdHcTyeMKYeAJqscqNivFzT1ZYZwZzc2bKA-mJ_QmfGEZQrtpTX7xhCyQK-ErHqfHccVfqXg1H1u-WhP5YIcUiju9-hUEYj3dSpLsSeF_wQBM_vWpk4co9TX6e9DG0_wrTTf_1yQ77ZRbDQ-fv-bOuLkzoDVSSjG5-mi0]--></g></svg>