<?xml version="1.0" encoding="us-ascii" standalone="no"?><svg xmlns="http://www.w3.org/2000/svg" xmlns:xlink="http://www.w3.org/1999/xlink" contentStyleType="text/css" height="320px" preserveAspectRatio="none" style="width:1115px;height:320px;background:#FFFFFF;" version="1.1" viewBox="0 0 1115 320" width="1115px" zoomAndPan="magnify"><defs/><g><!--cluster Local group--><g id="cluster_Local group"><path d="M349.5,6 L424.5,6 A3.75,3.75 0 0 1 427,8.5 L434,28.1 L1105.5,28.1 A2.5,2.5 0 0 1 1108,30.6 L1108,310.5 A2.5,2.5 0 0 1 1105.5,313 L349.5,313 A2.5,2.5 0 0 1 347,310.5 L347,8.5 A2.5,2.5 0 0 1 349.5,6 " fill="none" style="stroke:#7D5393;stroke-width:1.5;"/><line style="stroke:#7D5393;stroke-width:1.5;" x1="347" x2="434" y1="28.1" y2="28.1"/><text fill="#000000" font-family="NanumGothic" font-size="14" font-weight="bold" lengthAdjust="spacing" textLength="74" x="351" y="20.88">Local group</text></g><!--entity LocalControllerCS00--><g id="elem_LocalControllerCS00"><polygon fill="#7D5393" points="378.5,139.9,388.5,129.9,517.5,129.9,517.5,182.1,507.5,192.1,378.5,192.1,378.5,139.9" style="stroke:#181818;stroke-width:1.5;"/><line style="stroke:#181818;stroke-width:1.5;" x1="507.5" x2="517.5" y1="139.9" y2="129.9"/><line style="stroke:#181818;stroke-width:1.5;" x1="378.5" x2="507.5" y1="139.9" y2="139.9"/><line style="stroke:#181818;stroke-width:1.5;" x1="507.5" x2="507.5" y1="139.9" y2="192.1"/><text fill="#FFFFFF" font-family="NanumGothic" font-size="14" lengthAdjust="spacing" textLength="99" x="393.5" y="162.78">Local Controller</text><text fill="#FFFFFF" font-family="NanumGothic" font-size="14" lengthAdjust="spacing" textLength="33" x="393.5" y="178.88">CS00</text></g><!--entity CS03--><g id="elem_CS03"><polygon fill="#7D5393" points="730,50.9,740,40.9,865,40.9,865,93.1,855,103.1,730,103.1,730,50.9" style="stroke:#181818;stroke-width:1.5;"/><line style="stroke:#181818;stroke-width:1.5;" x1="855" x2="865" y1="50.9" y2="40.9"/><line style="stroke:#181818;stroke-width:1.5;" x1="730" x2="855" y1="50.9" y2="50.9"/><line style="stroke:#181818;stroke-width:1.5;" x1="855" x2="855" y1="50.9" y2="103.1"/><text fill="#FFFFFF" font-family="NanumGothic" font-size="14" lengthAdjust="spacing" textLength="95" x="745" y="73.78">Charge Station</text><text fill="#FFFFFF" font-family="NanumGothic" font-size="14" lengthAdjust="spacing" textLength="33" x="745" y="89.88">CS03</text></g><!--entity CS02--><g id="elem_CS02"><polygon fill="#7D5393" points="730,147.9,740,137.9,865,137.9,865,190.1,855,200.1,730,200.1,730,147.9" style="stroke:#181818;stroke-width:1.5;"/><line style="stroke:#181818;stroke-width:1.5;" x1="855" x2="865" y1="147.9" y2="137.9"/><line style="stroke:#181818;stroke-width:1.5;" x1="730" x2="855" y1="147.9" y2="147.9"/><line style="stroke:#181818;stroke-width:1.5;" x1="855" x2="855" y1="147.9" y2="200.1"/><text fill="#FFFFFF" font-family="NanumGothic" font-size="14" lengthAdjust="spacing" textLength="95" x="745" y="170.78">Charge Station</text><text fill="#FFFFFF" font-family="NanumGothic" font-size="14" lengthAdjust="spacing" textLength="33" x="745" y="186.88">CS02</text></g><!--entity CS01--><g id="elem_CS01"><polygon fill="#7D5393" points="730,244.9,740,234.9,865,234.9,865,287.1,855,297.1,730,297.1,730,244.9" style="stroke:#181818;stroke-width:1.5;"/><line style="stroke:#181818;stroke-width:1.5;" x1="855" x2="865" y1="244.9" y2="234.9"/><line style="stroke:#181818;stroke-width:1.5;" x1="730" x2="855" y1="244.9" y2="244.9"/><line style="stroke:#181818;stroke-width:1.5;" x1="855" x2="855" y1="244.9" y2="297.1"/><text fill="#FFFFFF" font-family="NanumGothic" font-size="14" lengthAdjust="spacing" textLength="95" x="745" y="267.78">Charge Station</text><text fill="#FFFFFF" font-family="NanumGothic" font-size="14" lengthAdjust="spacing" textLength="33" x="745" y="283.88">CS01</text></g><!--entity EV2--><g id="elem_EV2"><ellipse cx="1077.5" cy="50.45" fill="#F1F1F1" rx="8" ry="8" style="stroke:#7D5393;stroke-width:1.5;"/><path d="M1077.5,58.45 L1077.5,85.45 M1064.5,66.45 L1090.5,66.45 M1077.5,85.45 L1064.5,100.45 M1077.5,85.45 L1090.5,100.45 " fill="none" style="stroke:#7D5393;stroke-width:1.5;"/><text fill="#000000" font-family="NanumGothic" font-size="14" lengthAdjust="spacing" textLength="25" x="1065" y="115.83">EV2</text></g><!--entity EV1--><g id="elem_EV1"><ellipse cx="1077.5" cy="163.45" fill="#F1F1F1" rx="8" ry="8" style="stroke:#7D5393;stroke-width:1.5;"/><path d="M1077.5,171.45 L1077.5,198.45 M1064.5,179.45 L1090.5,179.45 M1077.5,198.45 L1064.5,213.45 M1077.5,198.45 L1090.5,213.45 " fill="none" style="stroke:#7D5393;stroke-width:1.5;"/><text fill="#000000" font-family="NanumGothic" font-size="14" lengthAdjust="spacing" textLength="25" x="1065" y="228.83">EV1</text></g><g id="elem_GMN10"><path d="M363,227.1 L363,296.9 A0,0 0 0 0 363,296.9 L533,296.9 A0,0 0 0 0 533,296.9 L533,237.1 L523,227.1 L452,227.1 L448,192.4 L444,227.1 L363,227.1 A0,0 0 0 0 363,227.1 " fill="#7D5393" style="stroke:#000000;stroke-width:0.5;"/><path d="M523,227.1 L523,237.1 L533,237.1 L523,227.1 " fill="#7D5393" style="stroke:#000000;stroke-width:0.5;"/><text fill="#FFFFFF" font-family="NanumGothic" font-size="13" lengthAdjust="spacing" textLength="131" x="369" y="244.06">Local Controller limits</text><text fill="#FFFFFF" font-family="NanumGothic" font-size="13" lengthAdjust="spacing" textLength="128" x="369" y="259.01">power usage of total</text><text fill="#FFFFFF" font-family="NanumGothic" font-size="13" lengthAdjust="spacing" textLength="149" x="369" y="273.96">group to pre-configured</text><text fill="#FFFFFF" font-family="NanumGothic" font-size="13" lengthAdjust="spacing" textLength="117" x="369" y="288.91">maximum capacity.</text></g><!--entity CSMS--><g id="elem_CSMS"><polygon fill="#7D5393" points="16,147.95,26,137.95,95,137.95,95,174.05,85,184.05,16,184.05,16,147.95" style="stroke:#181818;stroke-width:1.5;"/><line style="stroke:#181818;stroke-width:1.5;" x1="85" x2="95" y1="147.95" y2="137.95"/><line style="stroke:#181818;stroke-width:1.5;" x1="16" x2="85" y1="147.95" y2="147.95"/><line style="stroke:#181818;stroke-width:1.5;" x1="85" x2="85" y1="147.95" y2="184.05"/><text fill="#FFFFFF" font-family="NanumGothic" font-size="14" lengthAdjust="spacing" textLength="39" x="31" y="170.83">CSMS</text></g><!--link CSMS to LocalControllerCS00--><g id="link_CSMS_LocalControllerCS00"><path d="M95.37,161 C161.35,161 290.07,161 372.27,161 " fill="none" id="CSMS-to-LocalControllerCS00" style="stroke:#181818;stroke-width:1.0;"/><polygon fill="#181818" points="378.27,161,369.27,157,373.27,161,369.27,165,378.27,161" style="stroke:#181818;stroke-width:1.0;"/><text fill="#000000" font-family="NanumGothic" font-size="13" lengthAdjust="spacing" textLength="204" x="126" y="157.96">OCPP ChargingStationMaxProfile</text></g><!--link LocalControllerCS00 to CS03--><g id="link_LocalControllerCS00_CS03"><path d="M517.65,143.42 C579.17,127.66 663.0278,106.1893 723.9478,90.5793 " fill="none" id="LocalControllerCS00-to-CS03" style="stroke:#181818;stroke-width:1.0;"/><polygon fill="#181818" points="729.76,89.09,720.0488,87.4492,724.9165,90.3311,722.0345,95.1988,729.76,89.09" style="stroke:#181818;stroke-width:1.0;"/><text fill="#000000" font-family="NanumGothic" font-size="13" lengthAdjust="spacing" textLength="135" x="564" y="95.26">OCPP charging profile</text></g><!--link LocalControllerCS00 to CS02--><g id="link_LocalControllerCS00_CS02"><path d="M517.65,162.58 C579.17,164 662.8416,165.9222 723.7616,167.3222 " fill="none" id="LocalControllerCS00-to-CS02" style="stroke:#181818;stroke-width:1.0;"/><polygon fill="#181818" points="729.76,167.46,720.8543,163.2543,724.7613,167.3451,720.6705,171.2522,729.76,167.46" style="stroke:#181818;stroke-width:1.0;"/><text fill="#000000" font-family="NanumGothic" font-size="13" lengthAdjust="spacing" textLength="135" x="564" y="160.78">OCPP charging profile</text></g><!--link LocalControllerCS00 to CS01--><g id="link_LocalControllerCS00_CS01"><path d="M517.65,181.74 C579.17,200.33 668.84,227.43 729.76,245.83 " fill="none" id="LocalControllerCS00-CS01" style="stroke:#181818;stroke-width:1.0;"/></g><!--link CS03 to EV2--><g id="link_CS03_EV2"><path d="M865.44,73.93 C931.31,75.82 1021.0325,78.4078 1056.5525,79.4278 " fill="none" id="CS03-to-EV2" style="stroke:#181818;stroke-width:1.0;stroke-dasharray:1.0,3.0;"/><polygon fill="#181818" points="1062.55,79.6,1053.6685,75.3433,1057.5521,79.4565,1053.4389,83.34,1062.55,79.6" style="stroke:#181818;stroke-width:1.0;"/><text fill="#000000" font-family="NanumGothic" font-size="13" lengthAdjust="spacing" textLength="116" x="896" y="56.78">Control Pilot signal</text><text fill="#000000" font-family="NanumGothic" font-size="13" lengthAdjust="spacing" textLength="81" x="923.5" y="71.73">or ISO 15118</text></g><!--link CS02 to EV1--><g id="link_CS02_EV1"><path d="M865.44,174.78 C931.31,180.47 1021.0523,188.2133 1056.5723,191.2833 " fill="none" id="CS02-to-EV1" style="stroke:#181818;stroke-width:1.0;stroke-dasharray:1.0,3.0;"/><polygon fill="#181818" points="1062.55,191.8,1053.9279,187.0399,1057.5686,191.3695,1053.239,195.0102,1062.55,191.8" style="stroke:#181818;stroke-width:1.0;"/><text fill="#000000" font-family="NanumGothic" font-size="13" lengthAdjust="spacing" textLength="116" x="896" y="159.41">Control Pilot signal</text><text fill="#000000" font-family="NanumGothic" font-size="13" lengthAdjust="spacing" textLength="81" x="923.5" y="174.36">or ISO 15118</text></g><!--link CS02 to CS03--><!--link CS01 to CS02--><!--SRC=[dLD1QiCm4Bph5TlS7QA4GkcX5zD3eI41Goz924AI7O6iDVAQ99J-lP9ijwK9BQqkDhCxixCZ-yOuQJkbGMBTeDEEzig8oejwtzBPwcdJrPOngqi2Gl2cEX0euxKaWuunXu4xoOjbCG7HGdnXh4Ihj8V9CqfXeVBODHDuPG1zTm_dwCYZjTflNLxCPecVIf-LYBCFNduGlj9Ga8Yp4sinJ9qjVkgQZrtpdxhusCNZI249mmgFBpqvFB-2V01vxuvq2AS1BAyk0E5ytncigGsrgTRWCG1TAuAX8458mgP2IYx6tdYTINIbgJglLQhLucJghWOf6Y4DdQS1rKubC-oDiNWJa2aykkpXcYkuXrM-NaCAmhXgI68fJckFfR6QiMkiKJ56Fah8GIBOx9c_4EV_8APxWRXMc9kWZK8YhNP1CrnEa1nui3OM2LfJkP1uF5iNBksfM06_vVoE9GUN4lmF4eED-5Ti3aOfxNPP_ttruXS5pju1]--></g></svg>