<?xml version="1.0" encoding="us-ascii" standalone="no"?><svg xmlns="http://www.w3.org/2000/svg" xmlns:xlink="http://www.w3.org/1999/xlink" contentStyleType="text/css" height="374px" preserveAspectRatio="none" style="width:913px;height:374px;background:#FFFFFF;" version="1.1" viewBox="0 0 913 374" width="913px" zoomAndPan="magnify"><defs/><g><rect fill="#FFFFFF" height="132.75" style="stroke:#181818;stroke-width:1.0;" width="10" x="453.5" y="209.75"/><rect fill="none" height="193.6" style="stroke:#000000;stroke-width:1.5;" width="528.5" x="10" y="53.1"/><rect fill="none" height="104.75" style="stroke:#000000;stroke-width:1.5;" width="508.5" x="20" y="77.05"/><rect fill="none" height="89.8" style="stroke:#000000;stroke-width:1.5;" width="518.5" x="388.5" y="260.7"/><line style="stroke:#181818;stroke-width:0.5;stroke-dasharray:5.0,5.0;" x1="45" x2="45" y1="36.1" y2="367.5"/><line style="stroke:#181818;stroke-width:0.5;stroke-dasharray:5.0,5.0;" x1="458.5" x2="458.5" y1="36.1" y2="367.5"/><line style="stroke:#181818;stroke-width:0.5;stroke-dasharray:5.0,5.0;" x1="870" x2="870" y1="36.1" y2="367.5"/><rect fill="#7D5393" height="30.1" rx="2.5" ry="2.5" style="stroke:#181818;stroke-width:0.5;" width="31" x="30" y="5"/><text fill="#FFFFFF" font-family="NanumGothic" font-size="14" lengthAdjust="spacing" textLength="17" x="37" y="24.88">EV</text><rect fill="#7D5393" height="30.1" rx="2.5" ry="2.5" style="stroke:#181818;stroke-width:0.5;" width="120" x="398.5" y="5"/><text fill="#FFFFFF" font-family="NanumGothic" font-size="14" lengthAdjust="spacing" textLength="106" x="405.5" y="24.88">Charging Station</text><rect fill="#7D5393" height="30.1" rx="2.5" ry="2.5" style="stroke:#181818;stroke-width:0.5;" width="53" x="844" y="5"/><text fill="#FFFFFF" font-family="NanumGothic" font-size="14" lengthAdjust="spacing" textLength="39" x="851" y="24.88">CSMS</text><rect fill="#FFFFFF" height="132.75" style="stroke:#181818;stroke-width:1.0;" width="10" x="453.5" y="209.75"/><path d="M10,53.1 L95,53.1 L95,60.05 L85,70.05 L10,70.05 L10,53.1 " fill="#EEEEEE" style="stroke:#000000;stroke-width:1.5;"/><rect fill="none" height="193.6" style="stroke:#000000;stroke-width:1.5;" width="528.5" x="10" y="53.1"/><text fill="#000000" font-family="NanumGothic" font-size="13" font-weight="bold" lengthAdjust="spacing" textLength="40" x="25" y="66.06">15118</text><path d="M20,77.05 L155,77.05 L155,84 L145,94 L20,94 L20,77.05 " fill="#EEEEEE" style="stroke:#000000;stroke-width:1.5;"/><rect fill="none" height="104.75" style="stroke:#000000;stroke-width:1.5;" width="508.5" x="20" y="77.05"/><text fill="#000000" font-family="NanumGothic" font-size="13" font-weight="bold" lengthAdjust="spacing" textLength="90" x="35" y="90.01">if AC Charging</text><polygon fill="#181818" points="446.5,110.95,456.5,114.95,446.5,118.95,450.5,114.95" style="stroke:#181818;stroke-width:1.0;"/><line style="stroke:#181818;stroke-width:1.0;" x1="45.5" x2="452.5" y1="114.95" y2="114.95"/><text fill="#000000" font-family="NanumGothic" font-size="13" lengthAdjust="spacing" textLength="127" x="52.5" y="109.96">ChargingStatusReq()</text><polygon fill="#181818" points="56.5,169.8,46.5,173.8,56.5,177.8,52.5,173.8" style="stroke:#181818;stroke-width:1.0;"/><line style="stroke:#181818;stroke-width:1.0;stroke-dasharray:2.0,2.0;" x1="50.5" x2="457.5" y1="173.8" y2="173.8"/><text fill="#000000" font-family="NanumGothic" font-size="13" lengthAdjust="spacing" textLength="287" x="62.5" y="138.91">ChargingStatusRes(MeterInfoRecord { MeterId,</text><text fill="#000000" font-family="NanumGothic" font-size="13" lengthAdjust="spacing" textLength="183" x="62.5" y="153.86">[MeterReading], MeterStatus,</text><text fill="#000000" font-family="NanumGothic" font-size="13" lengthAdjust="spacing" textLength="351" x="62.5" y="168.81">SignedMeterReading, timeStamp },ReceiptRequired: True)</text><polygon fill="#181818" points="441.5,205.75,451.5,209.75,441.5,213.75,445.5,209.75" style="stroke:#181818;stroke-width:1.0;"/><line style="stroke:#181818;stroke-width:1.0;" x1="45.5" x2="447.5" y1="209.75" y2="209.75"/><text fill="#000000" font-family="NanumGothic" font-size="13" lengthAdjust="spacing" textLength="389" x="52.5" y="204.76">MeteringReceiptReq(Signature to confirm ChargingStatus Data)</text><polygon fill="#181818" points="56.5,234.7,46.5,238.7,56.5,242.7,52.5,238.7" style="stroke:#181818;stroke-width:1.0;"/><line style="stroke:#181818;stroke-width:1.0;stroke-dasharray:2.0,2.0;" x1="50.5" x2="452.5" y1="238.7" y2="238.7"/><text fill="#000000" font-family="NanumGothic" font-size="13" lengthAdjust="spacing" textLength="131" x="62.5" y="233.71">MeteringReceiptRes()</text><path d="M388.5,260.7 L468.5,260.7 L468.5,267.65 L458.5,277.65 L388.5,277.65 L388.5,260.7 " fill="#EEEEEE" style="stroke:#000000;stroke-width:1.5;"/><rect fill="none" height="89.8" style="stroke:#000000;stroke-width:1.5;" width="518.5" x="388.5" y="260.7"/><text fill="#000000" font-family="NanumGothic" font-size="13" font-weight="bold" lengthAdjust="spacing" textLength="35" x="403.5" y="273.66">OCPP</text><polygon fill="#181818" points="858.5,309.55,868.5,313.55,858.5,317.55,862.5,313.55" style="stroke:#181818;stroke-width:1.0;"/><line style="stroke:#181818;stroke-width:1.0;" x1="463.5" x2="864.5" y1="313.55" y2="313.55"/><text fill="#000000" font-family="NanumGothic" font-size="13" lengthAdjust="spacing" textLength="379" x="470.5" y="293.61">TransactionEventRequest(eventType = Updated, transactionID,</text><text fill="#000000" font-family="NanumGothic" font-size="13" lengthAdjust="spacing" textLength="361" x="486.5" y="308.56">timestamp, chargingState = Charging, Signed metervalues)</text><polygon fill="#181818" points="469.5,338.5,459.5,342.5,469.5,346.5,465.5,342.5" style="stroke:#181818;stroke-width:1.0;"/><line style="stroke:#181818;stroke-width:1.0;stroke-dasharray:2.0,2.0;" x1="463.5" x2="869.5" y1="342.5" y2="342.5"/><text fill="#000000" font-family="NanumGothic" font-size="13" lengthAdjust="spacing" textLength="171" x="475.5" y="337.51">TransactionEventResponse()</text><!--SRC=[TL71Qi905BpdAruzHOW53uKYL2YQWmUf6EkbxM79FjE5P7Uxkn6azD_xTbUh9ZMdx33pPjwyEo7BkkK8rXrglDTjKoU9PiQ9KcWc7GpoxG2OXNnx3Sy-cQc4hA1mp0ab0-a47h6EebWMaKK_IL8PrMeOFup7Zmb0V8aTFC_-fX0Cv0kZQNVmv0fexHg_qc4I-1qcZ4YTRoSGlwxCfajqQ1PofzPOAiFX6oB2iwFaNRu5P8sCa_8ZYuGuuKmgH2MHNp8pSA91uZKQVZ8QZq8xIjeAWtm26zFYa2AZv3xvZJt3G0BEyjGxaRT1S0fA9NV2D9t5OCuSyyDPwSIUEUnT9hdTLC_IKhSXPJpIosor-ay-3OUDJMyCazQRAvdlKOQrqReK_MDpq0XFyAev9QEUtPcyc6VKfP_WkxE-kmpA2oSlF3bd44k7nYVUivei_D8-72K92_KAxIUpMacBgLTol5cOB-0N]--></g></svg>