<?xml version="1.0" encoding="us-ascii" standalone="no"?><svg xmlns="http://www.w3.org/2000/svg" xmlns:xlink="http://www.w3.org/1999/xlink" contentStyleType="text/css" height="435px" preserveAspectRatio="none" style="width:873px;height:435px;background:#FFFFFF;" version="1.1" viewBox="0 0 873 435" width="873px" zoomAndPan="magnify"><defs/><g><rect fill="#FFFFFF" height="28.95" style="stroke:#181818;stroke-width:1.0;" width="10" x="145.5" y="163.95"/><rect fill="#FFFFFF" height="116.75" style="stroke:#181818;stroke-width:1.0;" width="10" x="235.5" y="293.7"/><rect fill="#FFFFFF" height="129.75" style="stroke:#181818;stroke-width:1.0;" width="10" x="712.5" y="192.9"/><rect fill="#FFFFFF" height="28.95" style="stroke:#181818;stroke-width:1.0;" width="10" x="712.5" y="381.5"/><line style="stroke:#181818;stroke-width:0.5;stroke-dasharray:5.0,5.0;" x1="37" x2="37" y1="83.1" y2="428.45"/><line style="stroke:#181818;stroke-width:0.5;stroke-dasharray:5.0,5.0;" x1="150.5" x2="150.5" y1="83.1" y2="428.45"/><line style="stroke:#181818;stroke-width:0.5;stroke-dasharray:5.0,5.0;" x1="240.5" x2="240.5" y1="83.1" y2="428.45"/><line style="stroke:#181818;stroke-width:0.5;stroke-dasharray:5.0,5.0;" x1="717" x2="717" y1="83.1" y2="428.45"/><text fill="#000000" font-family="NanumGothic" font-size="14" lengthAdjust="spacing" textLength="59" x="5" y="79.88">EV Driver</text><ellipse cx="37.5" cy="14.5" fill="#E2E2F0" rx="8" ry="8" style="stroke:#7D5393;stroke-width:1.5;"/><path d="M37.5,22.5 L37.5,49.5 M24.5,30.5 L50.5,30.5 M37.5,49.5 L24.5,64.5 M37.5,49.5 L50.5,64.5 " fill="none" style="stroke:#7D5393;stroke-width:1.5;"/><rect fill="#7D5393" height="30.1" rx="2.5" ry="2.5" style="stroke:#181818;stroke-width:0.5;" width="40" x="130.5" y="52"/><text fill="#FFFFFF" font-family="NanumGothic" font-size="14" lengthAdjust="spacing" textLength="26" x="137.5" y="71.88">APP</text><rect fill="#7D5393" height="46.2" rx="2.5" ry="2.5" style="stroke:#181818;stroke-width:0.5;" width="120" x="180.5" y="35.9"/><text fill="#FFFFFF" font-family="NanumGothic" font-size="14" lengthAdjust="spacing" textLength="106" x="187.5" y="55.78">Charging Station</text><text fill="#FFFFFF" font-family="NanumGothic" font-size="14" lengthAdjust="spacing" textLength="46" x="217.5" y="71.88">CS-001</text><rect fill="#7D5393" height="30.1" rx="2.5" ry="2.5" style="stroke:#181818;stroke-width:0.5;" width="53" x="691" y="52"/><text fill="#FFFFFF" font-family="NanumGothic" font-size="14" lengthAdjust="spacing" textLength="39" x="698" y="71.88">CSMS</text><rect fill="#FFFFFF" height="28.95" style="stroke:#181818;stroke-width:1.0;" width="10" x="145.5" y="163.95"/><rect fill="#FFFFFF" height="116.75" style="stroke:#181818;stroke-width:1.0;" width="10" x="235.5" y="293.7"/><rect fill="#FFFFFF" height="129.75" style="stroke:#181818;stroke-width:1.0;" width="10" x="712.5" y="192.9"/><rect fill="#FFFFFF" height="28.95" style="stroke:#181818;stroke-width:1.0;" width="10" x="712.5" y="381.5"/><path d="M245,98.1 L245,137.1 L430,137.1 L430,108.1 L420,98.1 L245,98.1 " fill="#7D5393" style="stroke:#000000;stroke-width:0.5;"/><path d="M420,98.1 L420,108.1 L430,108.1 L420,98.1 " fill="#7D5393" style="stroke:#000000;stroke-width:0.5;"/><text fill="#FFFFFF" font-family="NanumGothic" font-size="13" lengthAdjust="spacing" textLength="164" x="251" y="115.06">Transaction already started</text><text fill="#FFFFFF" font-family="NanumGothic" font-size="13" lengthAdjust="spacing" textLength="94" x="251" y="130.01">at cable plug-in</text><polygon fill="#181818" points="133.5,159.95,143.5,163.95,133.5,167.95,137.5,163.95" style="stroke:#181818;stroke-width:1.0;"/><line style="stroke:#181818;stroke-width:1.0;" x1="37.5" x2="139.5" y1="163.95" y2="163.95"/><text fill="#000000" font-family="NanumGothic" font-size="13" lengthAdjust="spacing" textLength="89" x="44.5" y="158.96">Start Charging</text><polygon fill="#181818" points="700.5,188.9,710.5,192.9,700.5,196.9,704.5,192.9" style="stroke:#181818;stroke-width:1.0;"/><line style="stroke:#181818;stroke-width:1.0;" x1="150.5" x2="706.5" y1="192.9" y2="192.9"/><text fill="#000000" font-family="NanumGothic" font-size="13" lengthAdjust="spacing" textLength="148" x="157.5" y="187.91">Start Charging (CS-001)</text><line style="stroke:#181818;stroke-width:1.0;" x1="722.5" x2="764.5" y1="236.8" y2="236.8"/><line style="stroke:#181818;stroke-width:1.0;" x1="764.5" x2="764.5" y1="236.8" y2="249.8"/><line style="stroke:#181818;stroke-width:1.0;" x1="723.5" x2="764.5" y1="249.8" y2="249.8"/><polygon fill="#181818" points="733.5,245.8,723.5,249.8,733.5,253.8,729.5,249.8" style="stroke:#181818;stroke-width:1.0;"/><text fill="#000000" font-family="NanumGothic" font-size="13" lengthAdjust="spacing" textLength="133" x="729.5" y="216.86">determine unique id()</text><text fill="#000000" font-family="NanumGothic" font-size="13" lengthAdjust="spacing" textLength="83" x="745.5" y="231.81">result = 4444</text><polygon fill="#181818" points="256.5,289.7,246.5,293.7,256.5,297.7,252.5,293.7" style="stroke:#181818;stroke-width:1.0;"/><line style="stroke:#181818;stroke-width:1.0;" x1="250.5" x2="711.5" y1="293.7" y2="293.7"/><text fill="#000000" font-family="NanumGothic" font-size="13" lengthAdjust="spacing" textLength="264" x="262.5" y="273.76">RequestStartTransactionRequest(evseId = 1</text><text fill="#000000" font-family="NanumGothic" font-size="13" lengthAdjust="spacing" textLength="218" x="278.5" y="288.71">idToken(id = 4444, type = Central))</text><polygon fill="#181818" points="705.5,318.65,715.5,322.65,705.5,326.65,709.5,322.65" style="stroke:#181818;stroke-width:1.0;"/><line style="stroke:#181818;stroke-width:1.0;stroke-dasharray:2.0,2.0;" x1="245.5" x2="711.5" y1="322.65" y2="322.65"/><text fill="#000000" font-family="NanumGothic" font-size="13" lengthAdjust="spacing" textLength="272" x="252.5" y="317.66">RequestStartTransactionResponse(Accepted)</text><polygon fill="#181818" points="700.5,377.5,710.5,381.5,700.5,385.5,704.5,381.5" style="stroke:#181818;stroke-width:1.0;"/><line style="stroke:#181818;stroke-width:1.0;" x1="245.5" x2="706.5" y1="381.5" y2="381.5"/><text fill="#000000" font-family="NanumGothic" font-size="13" lengthAdjust="spacing" textLength="444" x="252.5" y="346.61">TransactionEventRequest(eventType = Updated, transactionId = AB1234,</text><text fill="#000000" font-family="NanumGothic" font-size="13" lengthAdjust="spacing" textLength="205" x="268.5" y="361.56">evse.id = 1, evse.connectorId = 1,</text><text fill="#000000" font-family="NanumGothic" font-size="13" lengthAdjust="spacing" textLength="154" x="268.5" y="376.51">meterValues, timestamp)</text><polygon fill="#181818" points="251.5,406.45,241.5,410.45,251.5,414.45,247.5,410.45" style="stroke:#181818;stroke-width:1.0;"/><line style="stroke:#181818;stroke-width:1.0;stroke-dasharray:2.0,2.0;" x1="245.5" x2="716.5" y1="410.45" y2="410.45"/><text fill="#000000" font-family="NanumGothic" font-size="13" lengthAdjust="spacing" textLength="183" x="257.5" y="405.46">TransactionEventResponse(...)</text><!--SRC=[TLB1Ri8m3BtdApnEhGGLR3jDsYJ6E72OX0RZn2LhF8YMkbcQ8l7tSze2RM4zH7LiFx_td3jDgIaLGk6F1XDRPaO8cVhSmM2-WJUd3-W680kOR-f0MEcyJhMLv64mNIwhxDJQRcAsbswdQGShBxtEQKkprMWydbJLfsIJwtMktbTr5Vy8GRb7S7gtzv1_NtK2h9saWXbp1D8ubEh8OXWG5MUbXrH-6GHhojr8aq1I4225E0c2qKkW_nIOEd-U45pG1yd3WpR1HoWCdFgL4DNIOg6mqtGEQYNXl600AFJeCaq89UdV4a6hA8OjSGeS5gNny0oF_BLQk_83oWToQ-4hIYqlcki83mKk50DD6cIjrlaFKgHLWpu4VxJ8mGp9EsdYk4MyPxVeNS3ehETV7eNDgS1ecgPeUIaTbnfZ-g0NZrf8ymFpkyZYO5tp_hIAiHJhk1HNagUla_i7rbSB3quabUh9i0xId0Z3MryqjtLX5lQoaOO7CQREU9xCR7nxdRUMSaswyI19aclvxRXdzny0]--></g></svg>