<?xml version="1.0" encoding="us-ascii" standalone="no"?><svg xmlns="http://www.w3.org/2000/svg" xmlns:xlink="http://www.w3.org/1999/xlink" contentStyleType="text/css" height="782px" preserveAspectRatio="none" style="width:1056px;height:782px;background:#FFFFFF;" version="1.1" viewBox="0 0 1056 782" width="1056px" zoomAndPan="magnify"><defs/><g><rect fill="#FFFFFF" height="28.95" style="stroke:#181818;stroke-width:1.0;" width="10" x="40.5" y="114.95"/><rect fill="#FFFFFF" height="28.95" style="stroke:#181818;stroke-width:1.0;" width="10" x="40.5" y="187.5"/><rect fill="#FFFFFF" height="317.5" style="stroke:#181818;stroke-width:1.0;" width="10" x="40.5" y="341.25"/><rect fill="#FFFFFF" height="28.95" style="stroke:#181818;stroke-width:1.0;" width="10" x="499.5" y="114.95"/><rect fill="#FFFFFF" height="28.95" style="stroke:#181818;stroke-width:1.0;" width="10" x="499.5" y="187.5"/><rect fill="#FFFFFF" height="28.95" style="stroke:#181818;stroke-width:1.0;" width="10" x="499.5" y="252.4"/><rect fill="#FFFFFF" height="31.95" style="stroke:#181818;stroke-width:1.0;" width="10" x="499.5" y="341.25"/><rect fill="#FFFFFF" height="189.7" style="stroke:#181818;stroke-width:1.0;" width="10" x="499.5" y="405.15"/><rect fill="#FFFFFF" height="31.95" style="stroke:#181818;stroke-width:1.0;" width="10" x="499.5" y="626.8"/><rect fill="#FFFFFF" height="28.95" style="stroke:#181818;stroke-width:1.0;" width="10" x="499.5" y="714.65"/><rect fill="#FFFFFF" height="28.95" style="stroke:#181818;stroke-width:1.0;" width="10" x="896.5" y="252.4"/><rect fill="#FFFFFF" height="128.8" style="stroke:#181818;stroke-width:1.0;" width="10" x="896.5" y="434.1"/><rect fill="#FFFFFF" height="28.95" style="stroke:#181818;stroke-width:1.0;" width="10" x="896.5" y="714.65"/><rect fill="none" height="236.25" style="stroke:#000000;stroke-width:1.5;" width="928" x="10" y="53.1"/><rect fill="none" height="147.4" style="stroke:#000000;stroke-width:1.5;" width="554.5" x="20" y="77.05"/><rect fill="none" height="455.25" style="stroke:#000000;stroke-width:1.5;" width="1030.5" x="20" y="303.35"/><rect fill="none" height="74.85" style="stroke:#000000;stroke-width:1.5;" width="503.5" x="434.5" y="676.75"/><line style="stroke:#181818;stroke-width:0.5;stroke-dasharray:5.0,5.0;" x1="45" x2="45" y1="36.1" y2="775.6"/><line style="stroke:#181818;stroke-width:0.5;stroke-dasharray:5.0,5.0;" x1="504.5" x2="504.5" y1="36.1" y2="775.6"/><line style="stroke:#181818;stroke-width:0.5;stroke-dasharray:5.0,5.0;" x1="901" x2="901" y1="36.1" y2="775.6"/><rect fill="#7D5393" height="30.1" rx="2.5" ry="2.5" style="stroke:#181818;stroke-width:0.5;" width="31" x="30" y="5"/><text fill="#FFFFFF" font-family="NanumGothic" font-size="14" lengthAdjust="spacing" textLength="17" x="37" y="24.88">EV</text><rect fill="#7D5393" height="30.1" rx="2.5" ry="2.5" style="stroke:#181818;stroke-width:0.5;" width="120" x="444.5" y="5"/><text fill="#FFFFFF" font-family="NanumGothic" font-size="14" lengthAdjust="spacing" textLength="106" x="451.5" y="24.88">Charging Station</text><rect fill="#7D5393" height="30.1" rx="2.5" ry="2.5" style="stroke:#181818;stroke-width:0.5;" width="53" x="875" y="5"/><text fill="#FFFFFF" font-family="NanumGothic" font-size="14" lengthAdjust="spacing" textLength="39" x="882" y="24.88">CSMS</text><rect fill="#FFFFFF" height="28.95" style="stroke:#181818;stroke-width:1.0;" width="10" x="40.5" y="114.95"/><rect fill="#FFFFFF" height="28.95" style="stroke:#181818;stroke-width:1.0;" width="10" x="40.5" y="187.5"/><rect fill="#FFFFFF" height="317.5" style="stroke:#181818;stroke-width:1.0;" width="10" x="40.5" y="341.25"/><rect fill="#FFFFFF" height="28.95" style="stroke:#181818;stroke-width:1.0;" width="10" x="499.5" y="114.95"/><rect fill="#FFFFFF" height="28.95" style="stroke:#181818;stroke-width:1.0;" width="10" x="499.5" y="187.5"/><rect fill="#FFFFFF" height="28.95" style="stroke:#181818;stroke-width:1.0;" width="10" x="499.5" y="252.4"/><rect fill="#FFFFFF" height="31.95" style="stroke:#181818;stroke-width:1.0;" width="10" x="499.5" y="341.25"/><rect fill="#FFFFFF" height="189.7" style="stroke:#181818;stroke-width:1.0;" width="10" x="499.5" y="405.15"/><rect fill="#FFFFFF" height="31.95" style="stroke:#181818;stroke-width:1.0;" width="10" x="499.5" y="626.8"/><rect fill="#FFFFFF" height="28.95" style="stroke:#181818;stroke-width:1.0;" width="10" x="499.5" y="714.65"/><rect fill="#FFFFFF" height="28.95" style="stroke:#181818;stroke-width:1.0;" width="10" x="896.5" y="252.4"/><rect fill="#FFFFFF" height="128.8" style="stroke:#181818;stroke-width:1.0;" width="10" x="896.5" y="434.1"/><rect fill="#FFFFFF" height="28.95" style="stroke:#181818;stroke-width:1.0;" width="10" x="896.5" y="714.65"/><path d="M10,53.1 L82,53.1 L82,60.05 L72,70.05 L10,70.05 L10,53.1 " fill="#EEEEEE" style="stroke:#000000;stroke-width:1.5;"/><rect fill="none" height="236.25" style="stroke:#000000;stroke-width:1.5;" width="928" x="10" y="53.1"/><text fill="#000000" font-family="NanumGothic" font-size="13" font-weight="bold" lengthAdjust="spacing" textLength="27" x="25" y="66.06">loop</text><text fill="#000000" font-family="NanumGothic" font-size="11" font-weight="bold" lengthAdjust="spacing" textLength="126" x="97" y="65.22">[Charging in progress...]</text><path d="M20,77.05 L80,77.05 L80,84 L70,94 L20,94 L20,77.05 " fill="#EEEEEE" style="stroke:#000000;stroke-width:1.5;"/><rect fill="none" height="147.4" style="stroke:#000000;stroke-width:1.5;" width="554.5" x="20" y="77.05"/><text fill="#000000" font-family="NanumGothic" font-size="13" font-weight="bold" lengthAdjust="spacing" textLength="15" x="35" y="90.01">alt</text><text fill="#000000" font-family="NanumGothic" font-size="11" font-weight="bold" lengthAdjust="spacing" textLength="84" x="95" y="89.17">[if AC Charging]</text><polygon fill="#181818" points="487.5,110.95,497.5,114.95,487.5,118.95,491.5,114.95" style="stroke:#181818;stroke-width:1.0;"/><line style="stroke:#181818;stroke-width:1.0;" x1="50.5" x2="493.5" y1="114.95" y2="114.95"/><text fill="#000000" font-family="NanumGothic" font-size="13" lengthAdjust="spacing" textLength="127" x="57.5" y="109.96">ChargingStatusReq()</text><polygon fill="#181818" points="56.5,139.9,46.5,143.9,56.5,147.9,52.5,143.9" style="stroke:#181818;stroke-width:1.0;"/><line style="stroke:#181818;stroke-width:1.0;stroke-dasharray:2.0,2.0;" x1="50.5" x2="503.5" y1="143.9" y2="143.9"/><text fill="#000000" font-family="NanumGothic" font-size="13" lengthAdjust="spacing" textLength="125" x="62.5" y="138.91">ChargingStatusRes()</text><line style="stroke:#000000;stroke-width:1.0;stroke-dasharray:2.0,2.0;" x1="20" x2="574.5" y1="152.9" y2="152.9"/><text fill="#000000" font-family="NanumGothic" font-size="11" font-weight="bold" lengthAdjust="spacing" textLength="84" x="25" y="163.02">[if DC Charging]</text><polygon fill="#181818" points="487.5,183.5,497.5,187.5,487.5,191.5,491.5,187.5" style="stroke:#181818;stroke-width:1.0;"/><line style="stroke:#181818;stroke-width:1.0;" x1="50.5" x2="493.5" y1="187.5" y2="187.5"/><text fill="#000000" font-family="NanumGothic" font-size="13" lengthAdjust="spacing" textLength="131" x="57.5" y="182.51">CurrentDemandReq()</text><polygon fill="#181818" points="56.5,212.45,46.5,216.45,56.5,220.45,52.5,216.45" style="stroke:#181818;stroke-width:1.0;"/><line style="stroke:#181818;stroke-width:1.0;stroke-dasharray:2.0,2.0;" x1="50.5" x2="503.5" y1="216.45" y2="216.45"/><text fill="#000000" font-family="NanumGothic" font-size="13" lengthAdjust="spacing" textLength="129" x="62.5" y="211.46">CurrentDemandRes()</text><polygon fill="#181818" points="884.5,248.4,894.5,252.4,884.5,256.4,888.5,252.4" style="stroke:#181818;stroke-width:1.0;"/><line style="stroke:#181818;stroke-width:1.0;" x1="509.5" x2="890.5" y1="252.4" y2="252.4"/><text fill="#000000" font-family="NanumGothic" font-size="13" lengthAdjust="spacing" textLength="308" x="516.5" y="247.41">TransactionEventRequest(eventType = Updated,...)</text><polygon fill="#181818" points="515.5,277.35,505.5,281.35,515.5,285.35,511.5,281.35" style="stroke:#181818;stroke-width:1.0;"/><line style="stroke:#181818;stroke-width:1.0;stroke-dasharray:2.0,2.0;" x1="509.5" x2="900.5" y1="281.35" y2="281.35"/><text fill="#000000" font-family="NanumGothic" font-size="13" lengthAdjust="spacing" textLength="183" x="521.5" y="276.36">TransactionEventResponse(...)</text><path d="M20,303.35 L228,303.35 L228,310.3 L218,320.3 L20,320.3 L20,303.35 " fill="#EEEEEE" style="stroke:#000000;stroke-width:1.5;"/><rect fill="none" height="455.25" style="stroke:#000000;stroke-width:1.5;" width="1030.5" x="20" y="303.35"/><text fill="#000000" font-family="NanumGothic" font-size="13" font-weight="bold" lengthAdjust="spacing" textLength="163" x="35" y="316.31">EV proposes new schedule</text><polygon fill="#181818" points="487.5,337.25,497.5,341.25,487.5,345.25,491.5,341.25" style="stroke:#181818;stroke-width:1.0;"/><line style="stroke:#181818;stroke-width:1.0;" x1="50.5" x2="493.5" y1="341.25" y2="341.25"/><text fill="#000000" font-family="NanumGothic" font-size="13" lengthAdjust="spacing" textLength="191" x="57.5" y="336.26">PowerDeliveryReq(Renegotiate)</text><polygon fill="#181818" points="61.5,369.2,51.5,373.2,61.5,377.2,57.5,373.2" style="stroke:#181818;stroke-width:1.0;"/><line style="stroke:#181818;stroke-width:1.0;stroke-dasharray:2.0,2.0;" x1="55.5" x2="503.5" y1="373.2" y2="373.2"/><text fill="#000000" font-family="NanumGothic" font-size="13" lengthAdjust="spacing" textLength="134" x="67.5" y="368.21">PowerDeliveryRes(OK)</text><path d="M514,354.25 L514,378.25 L713,378.25 L713,364.25 L703,354.25 L514,354.25 " fill="#7D5393" style="stroke:#000000;stroke-width:0.5;"/><path d="M703,354.25 L703,364.25 L713,364.25 L703,354.25 " fill="#7D5393" style="stroke:#000000;stroke-width:0.5;"/><text fill="#FFFFFF" font-family="NanumGothic" font-size="13" lengthAdjust="spacing" textLength="178" x="520" y="371.21">Power delivery may be halted</text><polygon fill="#181818" points="487.5,401.15,497.5,405.15,487.5,409.15,491.5,405.15" style="stroke:#181818;stroke-width:1.0;"/><line style="stroke:#181818;stroke-width:1.0;" x1="50.5" x2="493.5" y1="405.15" y2="405.15"/><text fill="#000000" font-family="NanumGothic" font-size="13" lengthAdjust="spacing" textLength="430" x="57.5" y="400.16">ChargeParameterDiscoveryReq(EnergyTransferMode, EVChargeParam)</text><polygon fill="#181818" points="884.5,430.1,894.5,434.1,884.5,438.1,888.5,434.1" style="stroke:#181818;stroke-width:1.0;"/><line style="stroke:#181818;stroke-width:1.0;" x1="509.5" x2="890.5" y1="434.1" y2="434.1"/><text fill="#000000" font-family="NanumGothic" font-size="13" lengthAdjust="spacing" textLength="339" x="516.5" y="429.11">NotifyEVChargingNeedsRequest(evseId, chargingNeeds)</text><polygon fill="#181818" points="520.5,459.05,510.5,463.05,520.5,467.05,516.5,463.05" style="stroke:#181818;stroke-width:1.0;"/><line style="stroke:#181818;stroke-width:1.0;stroke-dasharray:2.0,2.0;" x1="514.5" x2="895.5" y1="463.05" y2="463.05"/><text fill="#000000" font-family="NanumGothic" font-size="13" lengthAdjust="spacing" textLength="269" x="526.5" y="458.06">NotifyEVChargingNeedsResponse(Accepted)</text><line style="stroke:#181818;stroke-width:1.0;" x1="906.5" x2="948.5" y1="492" y2="492"/><line style="stroke:#181818;stroke-width:1.0;" x1="948.5" x2="948.5" y1="492" y2="505"/><line style="stroke:#181818;stroke-width:1.0;" x1="907.5" x2="948.5" y1="505" y2="505"/><polygon fill="#181818" points="917.5,501,907.5,505,917.5,509,913.5,505" style="stroke:#181818;stroke-width:1.0;"/><text fill="#000000" font-family="NanumGothic" font-size="13" lengthAdjust="spacing" textLength="125" x="913.5" y="487.01">calculate new profile</text><polygon fill="#181818" points="520.5,529.95,510.5,533.95,520.5,537.95,516.5,533.95" style="stroke:#181818;stroke-width:1.0;"/><line style="stroke:#181818;stroke-width:1.0;" x1="514.5" x2="895.5" y1="533.95" y2="533.95"/><text fill="#000000" font-family="NanumGothic" font-size="13" lengthAdjust="spacing" textLength="310" x="526.5" y="528.96">SetChargingProfileRequest(evseId, chargingProfile)</text><polygon fill="#181818" points="889.5,558.9,899.5,562.9,889.5,566.9,893.5,562.9" style="stroke:#181818;stroke-width:1.0;"/><line style="stroke:#181818;stroke-width:1.0;stroke-dasharray:2.0,2.0;" x1="509.5" x2="895.5" y1="562.9" y2="562.9"/><text fill="#000000" font-family="NanumGothic" font-size="13" lengthAdjust="spacing" textLength="238" x="516.5" y="557.91">SetChargingProfileResponse(Accepted)</text><polygon fill="#181818" points="61.5,590.85,51.5,594.85,61.5,598.85,57.5,594.85" style="stroke:#181818;stroke-width:1.0;"/><line style="stroke:#181818;stroke-width:1.0;stroke-dasharray:2.0,2.0;" x1="55.5" x2="503.5" y1="594.85" y2="594.85"/><text fill="#000000" font-family="NanumGothic" font-size="13" lengthAdjust="spacing" textLength="284" x="67.5" y="589.86">ChargeParameterDiscoveryRes(SAScheduleList)</text><path d="M514,575.9 L514,599.9 L882,599.9 L882,585.9 L872,575.9 L514,575.9 " fill="#7D5393" style="stroke:#000000;stroke-width:0.5;"/><path d="M872,575.9 L872,585.9 L882,585.9 L872,575.9 " fill="#7D5393" style="stroke:#000000;stroke-width:0.5;"/><text fill="#FFFFFF" font-family="NanumGothic" font-size="13" lengthAdjust="spacing" textLength="347" x="520" y="592.86">Charging Station supplies charging profile as SASchedule</text><polygon fill="#181818" points="487.5,622.8,497.5,626.8,487.5,630.8,491.5,626.8" style="stroke:#181818;stroke-width:1.0;"/><line style="stroke:#181818;stroke-width:1.0;" x1="50.5" x2="493.5" y1="626.8" y2="626.8"/><text fill="#000000" font-family="NanumGothic" font-size="13" lengthAdjust="spacing" textLength="398" x="57.5" y="621.81">PowerDeliveryReq(Start, ChargingProfile, EVPowerDeliveryParam)</text><polygon fill="#181818" points="56.5,654.75,46.5,658.75,56.5,662.75,52.5,658.75" style="stroke:#181818;stroke-width:1.0;"/><line style="stroke:#181818;stroke-width:1.0;stroke-dasharray:2.0,2.0;" x1="50.5" x2="503.5" y1="658.75" y2="658.75"/><text fill="#000000" font-family="NanumGothic" font-size="13" lengthAdjust="spacing" textLength="134" x="62.5" y="653.76">PowerDeliveryRes(OK)</text><path d="M514,639.8 L514,663.8 L686,663.8 L686,649.8 L676,639.8 L514,639.8 " fill="#7D5393" style="stroke:#000000;stroke-width:0.5;"/><path d="M676,639.8 L676,649.8 L686,649.8 L676,639.8 " fill="#7D5393" style="stroke:#000000;stroke-width:0.5;"/><text fill="#FFFFFF" font-family="NanumGothic" font-size="13" lengthAdjust="spacing" textLength="151" x="520" y="656.76">Power delivery continues</text><path d="M434.5,676.75 L500.5,676.75 L500.5,683.7 L490.5,693.7 L434.5,693.7 L434.5,676.75 " fill="#EEEEEE" style="stroke:#000000;stroke-width:1.5;"/><rect fill="none" height="74.85" style="stroke:#000000;stroke-width:1.5;" width="503.5" x="434.5" y="676.75"/><text fill="#000000" font-family="NanumGothic" font-size="13" font-weight="bold" lengthAdjust="spacing" textLength="21" x="449.5" y="689.71">opt</text><text fill="#000000" font-family="NanumGothic" font-size="11" font-weight="bold" lengthAdjust="spacing" textLength="185" x="515.5" y="688.87">[If EV provides a charging schedule]</text><polygon fill="#181818" points="884.5,710.65,894.5,714.65,884.5,718.65,888.5,714.65" style="stroke:#181818;stroke-width:1.0;"/><line style="stroke:#181818;stroke-width:1.0;" x1="509.5" x2="890.5" y1="714.65" y2="714.65"/><text fill="#000000" font-family="NanumGothic" font-size="13" lengthAdjust="spacing" textLength="373" x="516.5" y="709.66">NotifyEVChargingScheduleRequest(evseId, chargingSchedule)</text><polygon fill="#181818" points="515.5,739.6,505.5,743.6,515.5,747.6,511.5,743.6" style="stroke:#181818;stroke-width:1.0;"/><line style="stroke:#181818;stroke-width:1.0;stroke-dasharray:2.0,2.0;" x1="509.5" x2="900.5" y1="743.6" y2="743.6"/><text fill="#000000" font-family="NanumGothic" font-size="13" lengthAdjust="spacing" textLength="286" x="521.5" y="738.61">NotifyEVChargingScheduleResponse(Accepted)</text><!--SRC=[hLN1Rjim3BtxAxYUOY3D1mHOWQ39eTZQ1NMNksOpZW15qYGvXVz-b6pNiHqxJR53a8Ia-FZ8H-aRbwaeCWJhIe4BNHn556bc74-vPjB1tMPt1yp2PjSrFnwOoRdC8N7CSIL3K6EiRRqJoNDIHT6FA19AwOy3m2LeetA3rYuMYmY02GTy3wl7ZnWo0fK1zmzzd6N7KDXN_3kBGpXB7JynXxxyplz-fS7RCy8zGMrsm-ospfvXF_-PfOy0WCAYvxJ-9AV269HkZKSci_zEgPlygunavc4680zXnajuCqnQVrx9pOdWY4M1ritG_tahDS9t-AqpIfxDQUo-XWcqrXK41E4xC1hqRWXijP8MPpNA9AjpfqSAB7EZ2kr7HJBLog85YUzWqmDcXS1eT8fRzOvcZOAVq9H-YgyeCLUEK_eEtz3lgM6EZRA7O6U_ViGmpP6yKf7TyFpWmfX34ZfIPO4ZA-4Fme6s4BDgqE5454sl86wPOKTqL12tgMeuRoIQl0n3sQDvLXdEAStPYVXMxet2NgYJ-xBEHG4lY9bjPMRnAPj3UkwCRrFI240jfrMQegOMnMsIfhAKYRGG7iGBXLIpvm8xONse15rZsrRXOqHgTpmcYwg2I_a6TG_b7bsv22_EsCwILL8lmqzktUqAx3yeO0kj1QT5QrWtJVHlI8lsENKErf0ynisXro0loqxerzGvjPbmm_L3TyBLLKsLT5oIJ7gDKDh1qxw-iKuyeqQojfLd5zVeTi6oB_wcvsEwRFpnzClKTTQQksK9spekwFbAUuU2hzun__a7]--></g></svg>