<?xml version="1.0" encoding="us-ascii" standalone="no"?><svg xmlns="http://www.w3.org/2000/svg" xmlns:xlink="http://www.w3.org/1999/xlink" contentStyleType="text/css" height="1195px" preserveAspectRatio="none" style="width:682px;height:1195px;background:#FFFFFF;" version="1.1" viewBox="0 0 682 1195" width="682px" zoomAndPan="magnify"><defs/><g><rect fill="#FFFFFF" height="398.4" style="stroke:#181818;stroke-width:1.0;" width="10" x="117" y="67.05"/><rect fill="#FFFFFF" height="546.2" style="stroke:#181818;stroke-width:1.0;" width="10" x="117" y="633.1"/><rect fill="#FFFFFF" height="170.75" style="stroke:#181818;stroke-width:1.0;" width="10" x="122" y="933.65"/><rect fill="#FFFFFF" height="28.95" style="stroke:#181818;stroke-width:1.0;" width="10" x="635" y="67.05"/><rect fill="#FFFFFF" height="28.95" style="stroke:#181818;stroke-width:1.0;" width="10" x="635" y="201.85"/><rect fill="#FFFFFF" height="28.95" style="stroke:#181818;stroke-width:1.0;" width="10" x="635" y="336.65"/><rect fill="#FFFFFF" height="28.95" style="stroke:#181818;stroke-width:1.0;" width="10" x="635" y="436.5"/><rect fill="#FFFFFF" height="28.95" style="stroke:#181818;stroke-width:1.0;" width="10" x="635" y="633.1"/><rect fill="#FFFFFF" height="28.95" style="stroke:#181818;stroke-width:1.0;" width="10" x="635" y="774.9"/><rect fill="#FFFFFF" height="28.95" style="stroke:#181818;stroke-width:1.0;" width="10" x="635" y="933.65"/><rect fill="#FFFFFF" height="28.95" style="stroke:#181818;stroke-width:1.0;" width="10" x="635" y="1075.45"/><rect fill="none" height="151.75" style="stroke:#000000;stroke-width:1.5;" width="624.5" x="52" y="595.2"/><rect fill="none" height="151.75" style="stroke:#000000;stroke-width:1.5;" width="624.5" x="52" y="895.75"/><rect fill="none" height="51.9" style="stroke:#000000;stroke-width:1.5;" width="116" x="64" y="1119.4"/><line style="stroke:#181818;stroke-width:0.5;stroke-dasharray:5.0,5.0;" x1="122" x2="122" y1="36.1" y2="1188.3"/><line style="stroke:#181818;stroke-width:0.5;stroke-dasharray:5.0,5.0;" x1="639.5" x2="639.5" y1="36.1" y2="1188.3"/><rect fill="#7D5393" height="30.1" rx="2.5" ry="2.5" style="stroke:#181818;stroke-width:0.5;" width="120" x="62" y="5"/><text fill="#FFFFFF" font-family="NanumGothic" font-size="14" lengthAdjust="spacing" textLength="106" x="69" y="24.88">Charging Station</text><rect fill="#7D5393" height="30.1" rx="2.5" ry="2.5" style="stroke:#181818;stroke-width:0.5;" width="53" x="613.5" y="5"/><text fill="#FFFFFF" font-family="NanumGothic" font-size="14" lengthAdjust="spacing" textLength="39" x="620.5" y="24.88">CSMS</text><rect fill="#FFFFFF" height="398.4" style="stroke:#181818;stroke-width:1.0;" width="10" x="117" y="67.05"/><rect fill="#FFFFFF" height="546.2" style="stroke:#181818;stroke-width:1.0;" width="10" x="117" y="633.1"/><rect fill="#FFFFFF" height="170.75" style="stroke:#181818;stroke-width:1.0;" width="10" x="122" y="933.65"/><rect fill="#FFFFFF" height="28.95" style="stroke:#181818;stroke-width:1.0;" width="10" x="635" y="67.05"/><rect fill="#FFFFFF" height="28.95" style="stroke:#181818;stroke-width:1.0;" width="10" x="635" y="201.85"/><rect fill="#FFFFFF" height="28.95" style="stroke:#181818;stroke-width:1.0;" width="10" x="635" y="336.65"/><rect fill="#FFFFFF" height="28.95" style="stroke:#181818;stroke-width:1.0;" width="10" x="635" y="436.5"/><rect fill="#FFFFFF" height="28.95" style="stroke:#181818;stroke-width:1.0;" width="10" x="635" y="633.1"/><rect fill="#FFFFFF" height="28.95" style="stroke:#181818;stroke-width:1.0;" width="10" x="635" y="774.9"/><rect fill="#FFFFFF" height="28.95" style="stroke:#181818;stroke-width:1.0;" width="10" x="635" y="933.65"/><rect fill="#FFFFFF" height="28.95" style="stroke:#181818;stroke-width:1.0;" width="10" x="635" y="1075.45"/><polygon fill="#181818" points="138,63.05,128,67.05,138,71.05,134,67.05" style="stroke:#181818;stroke-width:1.0;"/><line style="stroke:#181818;stroke-width:1.0;" x1="132" x2="634" y1="67.05" y2="67.05"/><text fill="#000000" font-family="NanumGothic" font-size="13" lengthAdjust="spacing" textLength="258" x="144" y="62.06">UpdateFirmwareRequest(requestId = 123)</text><polygon fill="#181818" points="628,92,638,96,628,100,632,96" style="stroke:#181818;stroke-width:1.0;"/><line style="stroke:#181818;stroke-width:1.0;stroke-dasharray:2.0,2.0;" x1="127" x2="634" y1="96" y2="96"/><text fill="#000000" font-family="NanumGothic" font-size="13" lengthAdjust="spacing" textLength="169" x="134" y="91.01">UpdateFirmwareResponse()</text><ellipse cx="126.5" cy="137.2" fill="none" rx="4" ry="4" style="stroke:#181818;stroke-width:1.5;"/><line style="stroke:#181818;stroke-width:1.0;" x1="127" x2="169" y1="124.95" y2="124.95"/><line style="stroke:#181818;stroke-width:1.0;" x1="169" x2="169" y1="124.95" y2="137.95"/><line style="stroke:#181818;stroke-width:1.0;" x1="132" x2="169" y1="137.95" y2="137.95"/><polygon fill="#181818" points="142,133.95,132,137.95,142,141.95,138,137.95" style="stroke:#181818;stroke-width:1.0;"/><text fill="#000000" font-family="NanumGothic" font-size="13" lengthAdjust="spacing" textLength="98" x="134" y="119.96">Verify certificate</text><path d="M32,150.95 L32,174.95 L211,174.95 L211,160.95 L201,150.95 L32,150.95 " fill="#7D5393" style="stroke:#000000;stroke-width:0.5;"/><path d="M201,150.95 L201,160.95 L211,160.95 L201,150.95 " fill="#7D5393" style="stroke:#000000;stroke-width:0.5;"/><text fill="#FFFFFF" font-family="NanumGothic" font-size="13" lengthAdjust="spacing" textLength="158" x="38" y="167.91">Waiting for retrieveDate...</text><polygon fill="#181818" points="623,197.85,633,201.85,623,205.85,627,201.85" style="stroke:#181818;stroke-width:1.0;"/><line style="stroke:#181818;stroke-width:1.0;" x1="127" x2="629" y1="201.85" y2="201.85"/><text fill="#000000" font-family="NanumGothic" font-size="13" lengthAdjust="spacing" textLength="465" x="134" y="196.86">FirmwareStatusNotificationRequest(status = Downloading, requestId = 123)</text><polygon fill="#181818" points="138,226.8,128,230.8,138,234.8,134,230.8" style="stroke:#181818;stroke-width:1.0;"/><line style="stroke:#181818;stroke-width:1.0;stroke-dasharray:2.0,2.0;" x1="132" x2="639" y1="230.8" y2="230.8"/><text fill="#000000" font-family="NanumGothic" font-size="13" lengthAdjust="spacing" textLength="233" x="144" y="225.81">FirmwareStatusNotificationResponse()</text><ellipse cx="126.5" cy="272" fill="none" rx="4" ry="4" style="stroke:#181818;stroke-width:1.5;"/><line style="stroke:#181818;stroke-width:1.0;" x1="127" x2="169" y1="259.75" y2="259.75"/><line style="stroke:#181818;stroke-width:1.0;" x1="169" x2="169" y1="259.75" y2="272.75"/><line style="stroke:#181818;stroke-width:1.0;" x1="132" x2="169" y1="272.75" y2="272.75"/><polygon fill="#181818" points="142,268.75,132,272.75,142,276.75,138,272.75" style="stroke:#181818;stroke-width:1.0;"/><text fill="#000000" font-family="NanumGothic" font-size="13" lengthAdjust="spacing" textLength="121" x="134" y="254.76">Download firmware</text><path d="M35,285.75 L35,309.75 L208,309.75 L208,295.75 L198,285.75 L35,285.75 " fill="#7D5393" style="stroke:#000000;stroke-width:0.5;"/><path d="M198,285.75 L198,295.75 L208,295.75 L198,285.75 " fill="#7D5393" style="stroke:#000000;stroke-width:0.5;"/><text fill="#FFFFFF" font-family="NanumGothic" font-size="13" lengthAdjust="spacing" textLength="152" x="41" y="302.71">Downloading firmware...</text><polygon fill="#181818" points="623,332.65,633,336.65,623,340.65,627,336.65" style="stroke:#181818;stroke-width:1.0;"/><line style="stroke:#181818;stroke-width:1.0;" x1="127" x2="629" y1="336.65" y2="336.65"/><text fill="#000000" font-family="NanumGothic" font-size="13" lengthAdjust="spacing" textLength="461" x="134" y="331.66">FirmwareStatusNotificationRequest(status = Downloaded, requestId = 123)</text><polygon fill="#181818" points="138,361.6,128,365.6,138,369.6,134,365.6" style="stroke:#181818;stroke-width:1.0;"/><line style="stroke:#181818;stroke-width:1.0;stroke-dasharray:2.0,2.0;" x1="132" x2="639" y1="365.6" y2="365.6"/><text fill="#000000" font-family="NanumGothic" font-size="13" lengthAdjust="spacing" textLength="233" x="144" y="360.61">FirmwareStatusNotificationResponse()</text><ellipse cx="126.5" cy="406.8" fill="none" rx="4" ry="4" style="stroke:#181818;stroke-width:1.5;"/><line style="stroke:#181818;stroke-width:1.0;" x1="127" x2="169" y1="394.55" y2="394.55"/><line style="stroke:#181818;stroke-width:1.0;" x1="169" x2="169" y1="394.55" y2="407.55"/><line style="stroke:#181818;stroke-width:1.0;" x1="132" x2="169" y1="407.55" y2="407.55"/><polygon fill="#181818" points="142,403.55,132,407.55,142,411.55,138,407.55" style="stroke:#181818;stroke-width:1.0;"/><text fill="#000000" font-family="NanumGothic" font-size="13" lengthAdjust="spacing" textLength="96" x="134" y="389.56">Verify signature</text><polygon fill="#181818" points="623,432.5,633,436.5,623,440.5,627,436.5" style="stroke:#181818;stroke-width:1.0;"/><line style="stroke:#181818;stroke-width:1.0;" x1="127" x2="629" y1="436.5" y2="436.5"/><text fill="#000000" font-family="NanumGothic" font-size="13" lengthAdjust="spacing" textLength="489" x="134" y="431.51">FirmwareStatusNotificationRequest(status = SignatureVerified, requestId = 123)</text><polygon fill="#181818" points="133,461.45,123,465.45,133,469.45,129,465.45" style="stroke:#181818;stroke-width:1.0;"/><line style="stroke:#181818;stroke-width:1.0;stroke-dasharray:2.0,2.0;" x1="127" x2="639" y1="465.45" y2="465.45"/><text fill="#000000" font-family="NanumGothic" font-size="13" lengthAdjust="spacing" textLength="233" x="139" y="460.46">FirmwareStatusNotificationResponse()</text><path d="M5,478.45 L5,502.45 L239,502.45 L239,488.45 L229,478.45 L5,478.45 " fill="#7D5393" style="stroke:#000000;stroke-width:0.5;"/><path d="M229,478.45 L229,488.45 L239,488.45 L229,478.45 " fill="#7D5393" style="stroke:#000000;stroke-width:0.5;"/><text fill="#FFFFFF" font-family="NanumGothic" font-size="13" lengthAdjust="spacing" textLength="213" x="11" y="495.41">Waiting for transactions to finish...</text><path d="M127,513.4 L127,582.4 L375,582.4 L375,523.4 L365,513.4 L127,513.4 " fill="#7D5393" style="stroke:#000000;stroke-width:0.5;"/><path d="M365,513.4 L365,523.4 L375,523.4 L365,513.4 " fill="#7D5393" style="stroke:#000000;stroke-width:0.5;"/><text fill="#FFFFFF" font-family="NanumGothic" font-size="13" lengthAdjust="spacing" textLength="191" x="133" y="530.36">It is not fixed in what order the</text><text fill="#FFFFFF" font-family="NanumGothic" font-size="13" lengthAdjust="spacing" textLength="220" x="133" y="545.31">FirmwareStatusNotificationRequests</text><text fill="#FFFFFF" font-family="NanumGothic" font-size="13" lengthAdjust="spacing" textLength="227" x="133" y="560.26">are sent and in what order rebooting</text><text fill="#FFFFFF" font-family="NanumGothic" font-size="13" lengthAdjust="spacing" textLength="71" x="133" y="575.21">takes place.</text><path d="M52,595.2 L118,595.2 L118,602.15 L108,612.15 L52,612.15 L52,595.2 " fill="#EEEEEE" style="stroke:#000000;stroke-width:1.5;"/><rect fill="none" height="151.75" style="stroke:#000000;stroke-width:1.5;" width="624.5" x="52" y="595.2"/><text fill="#000000" font-family="NanumGothic" font-size="13" font-weight="bold" lengthAdjust="spacing" textLength="21" x="67" y="608.16">opt</text><text fill="#000000" font-family="NanumGothic" font-size="11" font-weight="bold" lengthAdjust="spacing" textLength="237" x="133" y="607.32">[if reboot required before installing firmware]</text><polygon fill="#181818" points="623,629.1,633,633.1,623,637.1,627,633.1" style="stroke:#181818;stroke-width:1.0;"/><line style="stroke:#181818;stroke-width:1.0;" x1="127" x2="629" y1="633.1" y2="633.1"/><text fill="#000000" font-family="NanumGothic" font-size="13" lengthAdjust="spacing" textLength="482" x="134" y="628.11">FirmwareStatusNotificationRequest(status = InstallRebooting, requestId = 123)</text><polygon fill="#181818" points="138,658.05,128,662.05,138,666.05,134,662.05" style="stroke:#181818;stroke-width:1.0;"/><line style="stroke:#181818;stroke-width:1.0;stroke-dasharray:2.0,2.0;" x1="132" x2="639" y1="662.05" y2="662.05"/><text fill="#000000" font-family="NanumGothic" font-size="13" lengthAdjust="spacing" textLength="233" x="144" y="657.06">FirmwareStatusNotificationResponse()</text><ellipse cx="126.5" cy="703.25" fill="none" rx="4" ry="4" style="stroke:#181818;stroke-width:1.5;"/><line style="stroke:#181818;stroke-width:1.0;" x1="127" x2="169" y1="691" y2="691"/><line style="stroke:#181818;stroke-width:1.0;" x1="169" x2="169" y1="691" y2="704"/><line style="stroke:#181818;stroke-width:1.0;" x1="132" x2="169" y1="704" y2="704"/><polygon fill="#181818" points="142,700,132,704,142,708,138,704" style="stroke:#181818;stroke-width:1.0;"/><text fill="#000000" font-family="NanumGothic" font-size="13" lengthAdjust="spacing" textLength="44" x="134" y="686.01">Reboot</text><path d="M74,717 L74,741 L170,741 L170,727 L160,717 L74,717 " fill="#7D5393" style="stroke:#000000;stroke-width:0.5;"/><path d="M160,717 L160,727 L170,727 L160,717 " fill="#7D5393" style="stroke:#000000;stroke-width:0.5;"/><text fill="#FFFFFF" font-family="NanumGothic" font-size="13" lengthAdjust="spacing" textLength="75" x="80" y="733.96">Rebooting...</text><polygon fill="#181818" points="623,770.9,633,774.9,623,778.9,627,774.9" style="stroke:#181818;stroke-width:1.0;"/><line style="stroke:#181818;stroke-width:1.0;" x1="127" x2="629" y1="774.9" y2="774.9"/><text fill="#000000" font-family="NanumGothic" font-size="13" lengthAdjust="spacing" textLength="438" x="134" y="769.91">FirmwareStatusNotificationRequest(status = Installing, requestId = 123)</text><polygon fill="#181818" points="138,799.85,128,803.85,138,807.85,134,803.85" style="stroke:#181818;stroke-width:1.0;"/><line style="stroke:#181818;stroke-width:1.0;stroke-dasharray:2.0,2.0;" x1="132" x2="639" y1="803.85" y2="803.85"/><text fill="#000000" font-family="NanumGothic" font-size="13" lengthAdjust="spacing" textLength="233" x="144" y="798.86">FirmwareStatusNotificationResponse()</text><ellipse cx="126.5" cy="845.05" fill="none" rx="4" ry="4" style="stroke:#181818;stroke-width:1.5;"/><line style="stroke:#181818;stroke-width:1.0;" x1="127" x2="169" y1="832.8" y2="832.8"/><line style="stroke:#181818;stroke-width:1.0;" x1="169" x2="169" y1="832.8" y2="845.8"/><line style="stroke:#181818;stroke-width:1.0;" x1="132" x2="169" y1="845.8" y2="845.8"/><polygon fill="#181818" points="142,841.8,132,845.8,142,849.8,138,845.8" style="stroke:#181818;stroke-width:1.0;"/><text fill="#000000" font-family="NanumGothic" font-size="13" lengthAdjust="spacing" textLength="94" x="134" y="827.81">Install firmware</text><path d="M78,858.8 L78,882.8 L165,882.8 L165,868.8 L155,858.8 L78,858.8 " fill="#7D5393" style="stroke:#000000;stroke-width:0.5;"/><path d="M155,858.8 L155,868.8 L165,868.8 L155,858.8 " fill="#7D5393" style="stroke:#000000;stroke-width:0.5;"/><text fill="#FFFFFF" font-family="NanumGothic" font-size="13" lengthAdjust="spacing" textLength="66" x="84" y="875.76">Installing...</text><path d="M52,895.75 L118,895.75 L118,902.7 L108,912.7 L52,912.7 L52,895.75 " fill="#EEEEEE" style="stroke:#000000;stroke-width:1.5;"/><rect fill="none" height="151.75" style="stroke:#000000;stroke-width:1.5;" width="624.5" x="52" y="895.75"/><text fill="#000000" font-family="NanumGothic" font-size="13" font-weight="bold" lengthAdjust="spacing" textLength="21" x="67" y="908.71">opt</text><text fill="#000000" font-family="NanumGothic" font-size="11" font-weight="bold" lengthAdjust="spacing" textLength="283" x="133" y="907.87">[if reboot required after installing to activate firmware]</text><polygon fill="#181818" points="623,929.65,633,933.65,623,937.65,627,933.65" style="stroke:#181818;stroke-width:1.0;"/><line style="stroke:#181818;stroke-width:1.0;" x1="132" x2="629" y1="933.65" y2="933.65"/><text fill="#000000" font-family="NanumGothic" font-size="13" lengthAdjust="spacing" textLength="482" x="139" y="928.66">FirmwareStatusNotificationRequest(status = InstallRebooting, requestId = 123)</text><polygon fill="#181818" points="143,958.6,133,962.6,143,966.6,139,962.6" style="stroke:#181818;stroke-width:1.0;"/><line style="stroke:#181818;stroke-width:1.0;stroke-dasharray:2.0,2.0;" x1="137" x2="639" y1="962.6" y2="962.6"/><text fill="#000000" font-family="NanumGothic" font-size="13" lengthAdjust="spacing" textLength="233" x="149" y="957.61">FirmwareStatusNotificationResponse()</text><ellipse cx="131.5" cy="1003.8" fill="none" rx="4" ry="4" style="stroke:#181818;stroke-width:1.5;"/><line style="stroke:#181818;stroke-width:1.0;" x1="132" x2="174" y1="991.55" y2="991.55"/><line style="stroke:#181818;stroke-width:1.0;" x1="174" x2="174" y1="991.55" y2="1004.55"/><line style="stroke:#181818;stroke-width:1.0;" x1="137" x2="174" y1="1004.55" y2="1004.55"/><polygon fill="#181818" points="147,1000.55,137,1004.55,147,1008.55,143,1004.55" style="stroke:#181818;stroke-width:1.0;"/><text fill="#000000" font-family="NanumGothic" font-size="13" lengthAdjust="spacing" textLength="44" x="139" y="986.56">Reboot</text><path d="M72,1017.55 L72,1041.55 L172,1041.55 L172,1027.55 L162,1017.55 L72,1017.55 " fill="#7D5393" style="stroke:#000000;stroke-width:0.5;"/><path d="M162,1017.55 L162,1027.55 L172,1027.55 L162,1017.55 " fill="#7D5393" style="stroke:#000000;stroke-width:0.5;"/><text fill="#FFFFFF" font-family="NanumGothic" font-size="13" lengthAdjust="spacing" textLength="75" x="78" y="1034.51">Rebooting...</text><polygon fill="#181818" points="623,1071.45,633,1075.45,623,1079.45,627,1075.45" style="stroke:#181818;stroke-width:1.0;"/><line style="stroke:#181818;stroke-width:1.0;" x1="132" x2="629" y1="1075.45" y2="1075.45"/><text fill="#000000" font-family="NanumGothic" font-size="13" lengthAdjust="spacing" textLength="434" x="139" y="1070.46">FirmwareStatusNotificationRequest(status = Installed, requestId = 123)</text><polygon fill="#181818" points="138,1100.4,128,1104.4,138,1108.4,134,1104.4" style="stroke:#181818;stroke-width:1.0;"/><line style="stroke:#181818;stroke-width:1.0;stroke-dasharray:2.0,2.0;" x1="132" x2="639" y1="1104.4" y2="1104.4"/><text fill="#000000" font-family="NanumGothic" font-size="13" lengthAdjust="spacing" textLength="233" x="144" y="1099.41">FirmwareStatusNotificationResponse()</text><path d="M64,1119.4 L130,1119.4 L130,1126.35 L120,1136.35 L64,1136.35 L64,1119.4 " fill="#EEEEEE" style="stroke:#000000;stroke-width:1.5;"/><rect fill="none" height="51.9" style="stroke:#000000;stroke-width:1.5;" width="116" x="64" y="1119.4"/><text fill="#000000" font-family="NanumGothic" font-size="13" font-weight="bold" lengthAdjust="spacing" textLength="21" x="79" y="1132.36">opt</text><path d="M74,1141.35 L74,1165.35 L170,1165.35 L170,1151.35 L160,1141.35 L74,1141.35 " fill="#7D5393" style="stroke:#000000;stroke-width:0.5;"/><path d="M160,1141.35 L160,1151.35 L170,1151.35 L160,1141.35 " fill="#7D5393" style="stroke:#000000;stroke-width:0.5;"/><text fill="#FFFFFF" font-family="NanumGothic" font-size="13" lengthAdjust="spacing" textLength="75" x="80" y="1158.31">Rebooting...</text><!--SRC=[xLLDRzD04BtlhtZqr4eq4d13eXSgf1pWq0WuRxtZU8IxQtOt2VttpFeZTMmthQWHEN19Ok_CcpTltcnUiStAZI64U5_IejhSbKfLsaVEkD8suknZeVsQxHghg2CxUmOTqBritmqoLfzNJPJyK2fzul9gcFCUNokZ8trYVxVJdcxevuP2FFVDzzBW0zwyVNUXT1PvAu4DtCFJW88QlC1bgYafuqAXSZRG-OKoT0W-nhXoOzxVo7D-ZuoavvmpoLRAEi5mM_8ZNi1tpJ49c3iFJz4pRUbQiXQBXI9ha7AdIhViEzxfO1E-kBQen7IIXVf4zBfsEriwRGJcDPuGiftBr62ELNoXTXr3v6sDuzBr6jfd_3tPo9oeQgtZ0g-jOFkPsbvrS3Ky_uFk-y_3TNxkHaMlRKWmKWFHYKqiX-BG93MMvtKHuV89l6K4XnGhsR_8W2rsXPPWRwH-B4XYdXGsI92S8v1SWjeEKJpTEfTOIrZKFoYWAdL6VPgk4Xvv6rdFWhsmkINfamHE9bUM_LKGg3cCi6oGRpg64pwGrXwRLF-eDWdmGfi0epMPQdHYKPeMKlWn-m3xLfDFW6u4ICEOPxcM-scTw9tI4dpcHVpGpk5cFM9PdKU1wJbM5dDFyhzxPtGlUlQTtRqdzfSWPllJpQwb-Gq0]--></g></svg>