<?xml version="1.0" encoding="us-ascii" standalone="no"?><svg xmlns="http://www.w3.org/2000/svg" xmlns:xlink="http://www.w3.org/1999/xlink" contentStyleType="text/css" height="399px" preserveAspectRatio="none" style="width:772px;height:399px;background:#FFFFFF;" version="1.1" viewBox="0 0 772 399" width="772px" zoomAndPan="magnify"><defs/><g><rect fill="#FFFFFF" height="28.95" style="stroke:#181818;stroke-width:1.0;" width="10" x="246.5" y="149"/><rect fill="#FFFFFF" height="28.95" style="stroke:#181818;stroke-width:1.0;" width="10" x="541.5" y="149"/><rect fill="none" height="140.35" style="stroke:#000000;stroke-width:1.5;" width="695.5" x="70" y="234.9"/><line style="stroke:#181818;stroke-width:0.5;stroke-dasharray:5.0,5.0;" x1="37" x2="37" y1="83.1" y2="392.25"/><line style="stroke:#181818;stroke-width:0.5;stroke-dasharray:5.0,5.0;" x1="95" x2="95" y1="83.1" y2="392.25"/><line style="stroke:#181818;stroke-width:0.5;stroke-dasharray:5.0,5.0;" x1="251.5" x2="251.5" y1="83.1" y2="392.25"/><line style="stroke:#181818;stroke-width:0.5;stroke-dasharray:5.0,5.0;" x1="546" x2="546" y1="83.1" y2="392.25"/><text fill="#000000" font-family="NanumGothic" font-size="14" lengthAdjust="spacing" textLength="59" x="5" y="79.88">EV Driver</text><ellipse cx="37.5" cy="14.5" fill="#E2E2F0" rx="8" ry="8" style="stroke:#7D5393;stroke-width:1.5;"/><path d="M37.5,22.5 L37.5,49.5 M24.5,30.5 L50.5,30.5 M37.5,49.5 L24.5,64.5 M37.5,49.5 L50.5,64.5 " fill="none" style="stroke:#7D5393;stroke-width:1.5;"/><rect fill="#7D5393" height="30.1" rx="2.5" ry="2.5" style="stroke:#181818;stroke-width:0.5;" width="31" x="80" y="52"/><text fill="#FFFFFF" font-family="NanumGothic" font-size="14" lengthAdjust="spacing" textLength="17" x="87" y="71.88">EV</text><rect fill="#7D5393" height="30.1" rx="2.5" ry="2.5" style="stroke:#181818;stroke-width:0.5;" width="120" x="191.5" y="52"/><text fill="#FFFFFF" font-family="NanumGothic" font-size="14" lengthAdjust="spacing" textLength="106" x="198.5" y="71.88">Charging Station</text><rect fill="#7D5393" height="30.1" rx="2.5" ry="2.5" style="stroke:#181818;stroke-width:0.5;" width="53" x="520" y="52"/><text fill="#FFFFFF" font-family="NanumGothic" font-size="14" lengthAdjust="spacing" textLength="39" x="527" y="71.88">CSMS</text><rect fill="#FFFFFF" height="28.95" style="stroke:#181818;stroke-width:1.0;" width="10" x="246.5" y="149"/><rect fill="#FFFFFF" height="28.95" style="stroke:#181818;stroke-width:1.0;" width="10" x="541.5" y="149"/><path d="M10,98.1 L10,122.1 L573,122.1 L573,108.1 L563,98.1 L10,98.1 " fill="#7D5393" style="stroke:#000000;stroke-width:0.5;"/><path d="M563,98.1 L563,108.1 L573,108.1 L563,98.1 " fill="#7D5393" style="stroke:#000000;stroke-width:0.5;"/><text fill="#FFFFFF" font-family="NanumGothic" font-size="13" lengthAdjust="spacing" textLength="336" x="119" y="115.06">User authorization successful and transaction is started</text><polygon fill="#181818" points="267.5,145,257.5,149,267.5,153,263.5,149" style="stroke:#181818;stroke-width:1.0;"/><line style="stroke:#181818;stroke-width:1.0;" x1="261.5" x2="540.5" y1="149" y2="149"/><text fill="#000000" font-family="NanumGothic" font-size="13" lengthAdjust="spacing" textLength="271" x="273.5" y="144.01">SetChargingProfileRequest(TxProfile, evseId)</text><polygon fill="#181818" points="534.5,173.95,544.5,177.95,534.5,181.95,538.5,177.95" style="stroke:#181818;stroke-width:1.0;"/><line style="stroke:#181818;stroke-width:1.0;stroke-dasharray:2.0,2.0;" x1="251.5" x2="540.5" y1="177.95" y2="177.95"/><text fill="#000000" font-family="NanumGothic" font-size="13" lengthAdjust="spacing" textLength="238" x="258.5" y="172.96">SetChargingProfileResponse(Accepted)</text><line style="stroke:#181818;stroke-width:1.0;" x1="251.5" x2="293.5" y1="206.9" y2="206.9"/><line style="stroke:#181818;stroke-width:1.0;" x1="293.5" x2="293.5" y1="206.9" y2="219.9"/><line style="stroke:#181818;stroke-width:1.0;" x1="252.5" x2="293.5" y1="219.9" y2="219.9"/><polygon fill="#181818" points="262.5,215.9,252.5,219.9,262.5,223.9,258.5,219.9" style="stroke:#181818;stroke-width:1.0;"/><text fill="#000000" font-family="NanumGothic" font-size="13" lengthAdjust="spacing" textLength="94" x="258.5" y="201.91">connection loss</text><path d="M70,234.9 L136,234.9 L136,241.85 L126,251.85 L70,251.85 L70,234.9 " fill="#EEEEEE" style="stroke:#000000;stroke-width:1.5;"/><rect fill="none" height="140.35" style="stroke:#000000;stroke-width:1.5;" width="695.5" x="70" y="234.9"/><text fill="#000000" font-family="NanumGothic" font-size="13" font-weight="bold" lengthAdjust="spacing" textLength="21" x="85" y="247.86">opt</text><text fill="#000000" font-family="NanumGothic" font-size="11" font-weight="bold" lengthAdjust="spacing" textLength="229" x="151" y="247.02">[loop Change according to charging profile]</text><line style="stroke:#000000;stroke-width:1.0;stroke-dasharray:2.0,2.0;" x1="70" x2="765.5" y1="252.85" y2="252.85"/><text fill="#000000" font-family="NanumGothic" font-size="11" font-weight="bold" lengthAdjust="spacing" textLength="227" x="75" y="262.97">[for each interval period in charging profile]</text><line style="stroke:#181818;stroke-width:1.0;" x1="251.5" x2="293.5" y1="306.375" y2="306.375"/><line style="stroke:#181818;stroke-width:1.0;" x1="293.5" x2="293.5" y1="306.375" y2="319.375"/><line style="stroke:#181818;stroke-width:1.0;" x1="252.5" x2="293.5" y1="319.375" y2="319.375"/><polygon fill="#181818" points="262.5,315.375,252.5,319.375,262.5,323.375,258.5,319.375" style="stroke:#181818;stroke-width:1.0;"/><text fill="#000000" font-family="NanumGothic" font-size="13" lengthAdjust="spacing" textLength="224" x="258.5" y="301.385">get limit from charging profile():limit</text><path d="M494,271.5 L494,340.5 L750,340.5 L750,281.5 L740,271.5 L494,271.5 " fill="#7D5393" style="stroke:#000000;stroke-width:0.5;"/><path d="M740,271.5 L740,281.5 L750,281.5 L740,271.5 " fill="#7D5393" style="stroke:#000000;stroke-width:0.5;"/><text fill="#FFFFFF" font-family="NanumGothic" font-size="13" lengthAdjust="spacing" textLength="235" x="500" y="288.46">Charging Station implements charging</text><text fill="#FFFFFF" font-family="NanumGothic" font-size="13" lengthAdjust="spacing" textLength="164" x="500" y="303.41">profile via the Control Pilot</text><text fill="#FFFFFF" font-family="NanumGothic" font-size="13" lengthAdjust="spacing" textLength="211" x="500" y="318.36">signal whenever maximum current</text><text fill="#FFFFFF" font-family="NanumGothic" font-size="13" lengthAdjust="spacing" textLength="100" x="500" y="333.31">needs changing.</text><polygon fill="#181818" points="106.5,363.25,96.5,367.25,106.5,371.25,102.5,367.25" style="stroke:#181818;stroke-width:1.0;"/><line style="stroke:#181818;stroke-width:1.0;" x1="100.5" x2="250.5" y1="367.25" y2="367.25"/><text fill="#000000" font-family="NanumGothic" font-size="13" lengthAdjust="spacing" textLength="132" x="112.5" y="362.26">set max current(limit)</text><!--SRC=[ZLBDZXCn3BxdASoUMcbt7w0790Gzx05fHQ7tAEFEMCh48VOC2q-Fa-bieLiaRea_v_jn_8vIY5E78FepucEUnkYS3ye5xlP7-5Hend87Nc1_N2uk-w8KAFkajUSC_bt-EFZIK-hXe5w9KsjQY-VQrOl3vyFIPGVd4Yi2czohxls207mJg_f91oxqgp61J26Wo6cAu5C7MdmI2r4X4ejcGjWvDAZoEbUPuE7zjQCT753NsdFX4qNyWjyd5DryVJaNxW5dmQTkMyT4ipUVry4kGCjo1SD3LJRajfnaJeAR3vOec-kjw_2VGdz2jwLkP0oS4Yx3YIpY76Ur4-VQcde47mANhlwUCeJr9_DYq64KX9FjXsaFG4cnp3v2naBSsVtj2u3_iTMZkQ2H54w5npSic-skeSRMTgDGFzJBXNpTDQ0nHnmngRoojCOp4ypaGGSR6ISj7E6P8YzKGdsoB3y6J5XtR_GlD4vcPYh5-5fFGkmQSQh4ZrQxxDNDfFlZ3iJ26TbAj6bHjdKZtMy0]--></g></svg>