<?xml version="1.0" encoding="us-ascii" standalone="no"?><svg xmlns="http://www.w3.org/2000/svg" xmlns:xlink="http://www.w3.org/1999/xlink" contentStyleType="text/css" height="582px" preserveAspectRatio="none" style="width:462px;height:582px;background:#FFFFFF;" version="1.1" viewBox="0 0 462 582" width="462px" zoomAndPan="magnify"><defs/><g><rect fill="#FFFFFF" height="28.95" style="stroke:#181818;stroke-width:1.0;" width="10" x="57.5" y="91"/><rect fill="#FFFFFF" height="28.95" style="stroke:#181818;stroke-width:1.0;" width="10" x="57.5" y="322.65"/><rect fill="#FFFFFF" height="28.95" style="stroke:#181818;stroke-width:1.0;" width="10" x="57.5" y="426.15"/><rect fill="#FFFFFF" height="28.95" style="stroke:#181818;stroke-width:1.0;" width="10" x="57.5" y="522"/><rect fill="#FFFFFF" height="305.5" style="stroke:#181818;stroke-width:1.0;" width="10" x="292.5" y="46.1"/><rect fill="none" height="74.85" style="stroke:#000000;stroke-width:1.5;" width="341.5" x="26" y="53.1"/><rect fill="none" height="209.3" style="stroke:#000000;stroke-width:1.5;" width="439" x="16" y="260.8"/><rect fill="none" height="74.85" style="stroke:#000000;stroke-width:1.5;" width="341.5" x="26" y="284.75"/><rect fill="none" height="74.85" style="stroke:#000000;stroke-width:1.5;" width="419" x="26" y="388.25"/><rect fill="none" height="74.85" style="stroke:#000000;stroke-width:1.5;" width="341.5" x="26" y="484.1"/><line style="stroke:#181818;stroke-width:0.5;stroke-dasharray:5.0,5.0;" x1="62" x2="62" y1="36.1" y2="575.95"/><line style="stroke:#181818;stroke-width:0.5;stroke-dasharray:5.0,5.0;" x1="297.5" x2="297.5" y1="36.1" y2="575.95"/><rect fill="#7D5393" height="30.1" rx="2.5" ry="2.5" style="stroke:#181818;stroke-width:0.5;" width="53" x="36" y="5"/><text fill="#FFFFFF" font-family="NanumGothic" font-size="14" lengthAdjust="spacing" textLength="39" x="43" y="24.88">CSMS</text><rect fill="#7D5393" height="30.1" rx="2.5" ry="2.5" style="stroke:#181818;stroke-width:0.5;" width="120" x="237.5" y="5"/><text fill="#FFFFFF" font-family="NanumGothic" font-size="14" lengthAdjust="spacing" textLength="106" x="244.5" y="24.88">Charging Station</text><rect fill="#FFFFFF" height="28.95" style="stroke:#181818;stroke-width:1.0;" width="10" x="57.5" y="91"/><rect fill="#FFFFFF" height="28.95" style="stroke:#181818;stroke-width:1.0;" width="10" x="57.5" y="322.65"/><rect fill="#FFFFFF" height="28.95" style="stroke:#181818;stroke-width:1.0;" width="10" x="57.5" y="426.15"/><rect fill="#FFFFFF" height="28.95" style="stroke:#181818;stroke-width:1.0;" width="10" x="57.5" y="522"/><rect fill="#FFFFFF" height="305.5" style="stroke:#181818;stroke-width:1.0;" width="10" x="292.5" y="46.1"/><path d="M26,53.1 L98,53.1 L98,60.05 L88,70.05 L26,70.05 L26,53.1 " fill="#EEEEEE" style="stroke:#000000;stroke-width:1.5;"/><rect fill="none" height="74.85" style="stroke:#000000;stroke-width:1.5;" width="341.5" x="26" y="53.1"/><text fill="#000000" font-family="NanumGothic" font-size="13" font-weight="bold" lengthAdjust="spacing" textLength="27" x="41" y="66.06">loop</text><text fill="#000000" font-family="NanumGothic" font-size="11" font-weight="bold" lengthAdjust="spacing" textLength="226" x="113" y="65.22">[while powered up and no other messages]</text><polygon fill="#181818" points="78.5,87,68.5,91,78.5,95,74.5,91" style="stroke:#181818;stroke-width:1.0;"/><line style="stroke:#181818;stroke-width:1.0;" x1="72.5" x2="291.5" y1="91" y2="91"/><text fill="#000000" font-family="NanumGothic" font-size="13" lengthAdjust="spacing" textLength="119" x="84.5" y="86.01">HeartbeatRequest()</text><polygon fill="#181818" points="280.5,115.95,290.5,119.95,280.5,123.95,284.5,119.95" style="stroke:#181818;stroke-width:1.0;"/><line style="stroke:#181818;stroke-width:1.0;stroke-dasharray:2.0,2.0;" x1="62.5" x2="286.5" y1="119.95" y2="119.95"/><text fill="#000000" font-family="NanumGothic" font-size="13" lengthAdjust="spacing" textLength="201" x="69.5" y="114.96">HeartbeatResponse(currentTime)</text><line style="stroke:#181818;stroke-width:1.0;" x1="302.5" x2="344.5" y1="155.9" y2="155.9"/><line style="stroke:#181818;stroke-width:1.0;" x1="344.5" x2="344.5" y1="155.9" y2="168.9"/><line style="stroke:#181818;stroke-width:1.0;" x1="303.5" x2="344.5" y1="168.9" y2="168.9"/><polygon fill="#181818" points="313.5,164.9,303.5,168.9,313.5,172.9,309.5,168.9" style="stroke:#181818;stroke-width:1.0;"/><text fill="#000000" font-family="NanumGothic" font-size="13" lengthAdjust="spacing" textLength="97" x="309.5" y="150.91">Connection loss</text><path d="M5,181.9 L5,205.9 L356,205.9 L356,191.9 L346,181.9 L5,181.9 " fill="#7D5393" style="stroke:#000000;stroke-width:0.5;"/><path d="M346,181.9 L346,191.9 L356,191.9 L346,181.9 " fill="#7D5393" style="stroke:#000000;stroke-width:0.5;"/><text fill="#FFFFFF" font-family="NanumGothic" font-size="13" lengthAdjust="spacing" textLength="330" x="11" y="198.86">Connection loss can be minutes, but can also be days.</text><line style="stroke:#181818;stroke-width:1.0;" x1="302.5" x2="344.5" y1="232.8" y2="232.8"/><line style="stroke:#181818;stroke-width:1.0;" x1="344.5" x2="344.5" y1="232.8" y2="245.8"/><line style="stroke:#181818;stroke-width:1.0;" x1="303.5" x2="344.5" y1="245.8" y2="245.8"/><polygon fill="#181818" points="313.5,241.8,303.5,245.8,313.5,249.8,309.5,245.8" style="stroke:#181818;stroke-width:1.0;"/><text fill="#000000" font-family="NanumGothic" font-size="13" lengthAdjust="spacing" textLength="125" x="309.5" y="227.81">Connection restored</text><path d="M16,260.8 L76,260.8 L76,267.75 L66,277.75 L16,277.75 L16,260.8 " fill="#EEEEEE" style="stroke:#000000;stroke-width:1.5;"/><rect fill="none" height="209.3" style="stroke:#000000;stroke-width:1.5;" width="439" x="16" y="260.8"/><text fill="#000000" font-family="NanumGothic" font-size="13" font-weight="bold" lengthAdjust="spacing" textLength="15" x="31" y="273.76">alt</text><text fill="#000000" font-family="NanumGothic" font-size="11" font-weight="bold" lengthAdjust="spacing" textLength="215" x="91" y="272.92">[Offline period exceeds offline threshold]</text><path d="M26,284.75 L98,284.75 L98,291.7 L88,301.7 L26,301.7 L26,284.75 " fill="#EEEEEE" style="stroke:#000000;stroke-width:1.5;"/><rect fill="none" height="74.85" style="stroke:#000000;stroke-width:1.5;" width="341.5" x="26" y="284.75"/><text fill="#000000" font-family="NanumGothic" font-size="13" font-weight="bold" lengthAdjust="spacing" textLength="27" x="41" y="297.71">loop</text><text fill="#000000" font-family="NanumGothic" font-size="11" font-weight="bold" lengthAdjust="spacing" textLength="100" x="113" y="296.87">[for all Connectors]</text><polygon fill="#181818" points="78.5,318.65,68.5,322.65,78.5,326.65,74.5,322.65" style="stroke:#181818;stroke-width:1.0;"/><line style="stroke:#181818;stroke-width:1.0;" x1="72.5" x2="291.5" y1="322.65" y2="322.65"/><text fill="#000000" font-family="NanumGothic" font-size="13" lengthAdjust="spacing" textLength="179" x="84.5" y="317.66">StatusNotificationRequest(...)</text><polygon fill="#181818" points="285.5,347.6,295.5,351.6,285.5,355.6,289.5,351.6" style="stroke:#181818;stroke-width:1.0;"/><line style="stroke:#181818;stroke-width:1.0;stroke-dasharray:2.0,2.0;" x1="62.5" x2="291.5" y1="351.6" y2="351.6"/><text fill="#000000" font-family="NanumGothic" font-size="13" lengthAdjust="spacing" textLength="176" x="69.5" y="346.61">StatusNotificationResponse()</text><line style="stroke:#000000;stroke-width:1.0;stroke-dasharray:2.0,2.0;" x1="16" x2="455" y1="367.6" y2="367.6"/><text fill="#000000" font-family="NanumGothic" font-size="11" font-weight="bold" lengthAdjust="spacing" textLength="189" x="21" y="377.72">[When status changed while offline]</text><path d="M26,388.25 L98,388.25 L98,395.2 L88,405.2 L26,405.2 L26,388.25 " fill="#EEEEEE" style="stroke:#000000;stroke-width:1.5;"/><rect fill="none" height="74.85" style="stroke:#000000;stroke-width:1.5;" width="419" x="26" y="388.25"/><text fill="#000000" font-family="NanumGothic" font-size="13" font-weight="bold" lengthAdjust="spacing" textLength="27" x="41" y="401.21">loop</text><text fill="#000000" font-family="NanumGothic" font-size="11" font-weight="bold" lengthAdjust="spacing" textLength="327" x="113" y="400.37">[for each Connector with status changed during offline period]</text><polygon fill="#181818" points="78.5,422.15,68.5,426.15,78.5,430.15,74.5,426.15" style="stroke:#181818;stroke-width:1.0;"/><line style="stroke:#181818;stroke-width:1.0;" x1="72.5" x2="296.5" y1="426.15" y2="426.15"/><text fill="#000000" font-family="NanumGothic" font-size="13" lengthAdjust="spacing" textLength="179" x="84.5" y="421.16">StatusNotificationRequest(...)</text><polygon fill="#181818" points="285.5,451.1,295.5,455.1,285.5,459.1,289.5,455.1" style="stroke:#181818;stroke-width:1.0;"/><line style="stroke:#181818;stroke-width:1.0;stroke-dasharray:2.0,2.0;" x1="62.5" x2="291.5" y1="455.1" y2="455.1"/><text fill="#000000" font-family="NanumGothic" font-size="13" lengthAdjust="spacing" textLength="176" x="69.5" y="450.11">StatusNotificationResponse()</text><path d="M26,484.1 L98,484.1 L98,491.05 L88,501.05 L26,501.05 L26,484.1 " fill="#EEEEEE" style="stroke:#000000;stroke-width:1.5;"/><rect fill="none" height="74.85" style="stroke:#000000;stroke-width:1.5;" width="341.5" x="26" y="484.1"/><text fill="#000000" font-family="NanumGothic" font-size="13" font-weight="bold" lengthAdjust="spacing" textLength="27" x="41" y="497.06">loop</text><text fill="#000000" font-family="NanumGothic" font-size="11" font-weight="bold" lengthAdjust="spacing" textLength="226" x="113" y="496.22">[while powered up and no other messages]</text><polygon fill="#181818" points="78.5,518,68.5,522,78.5,526,74.5,522" style="stroke:#181818;stroke-width:1.0;"/><line style="stroke:#181818;stroke-width:1.0;" x1="72.5" x2="296.5" y1="522" y2="522"/><text fill="#000000" font-family="NanumGothic" font-size="13" lengthAdjust="spacing" textLength="119" x="84.5" y="517.01">HeartbeatRequest()</text><polygon fill="#181818" points="285.5,546.95,295.5,550.95,285.5,554.95,289.5,550.95" style="stroke:#181818;stroke-width:1.0;"/><line style="stroke:#181818;stroke-width:1.0;stroke-dasharray:2.0,2.0;" x1="62.5" x2="291.5" y1="550.95" y2="550.95"/><text fill="#000000" font-family="NanumGothic" font-size="13" lengthAdjust="spacing" textLength="201" x="69.5" y="545.96">HeartbeatResponse(currentTime)</text><!--SRC=[rLF1Ri8m3BtdApnE88r-m0wxSDbbcpGcxHmIGo85kqiS67-_f1GnMeIqstPgPVkzlhvdttao8Lk498U0JPktGQbMH_76jve49elbyt82Ea5z6RISZXjF6rYA5izq7EkBVKqfRSJljE2u4vXRs3iV45hUOqGBkGLD5eY1nM64BQQaDvWK3E4mV-maFS0J5b4hrFA6dncJJ6Tb-lpLAhl2onFc5NJ9Su5FBLF2gSan8icxtsBbidZ9XcILkYPdoBnW8ZHTEt1AIX4N3jwL7wj4zoDBO0W1embM25jFMJ3TmofBLzCXSMrOVKXDLGIL-zUoOl6BY_4bfY3mkbu7JoKDZ9uju9T1j0cuBuihuuw3BJgxxDOSYv1m8kHOSxgHL2tazCBYrzvqlLDaJTFCEkmejrl9NUFh8poo3PCRraRsrsWn98GFXrIEelA3SPesPJcFgzgxyTE3mkZE9i3UYnjYROxrKlZ2uJ_lLcT7tVR_VAhV]--></g></svg>