<?xml version="1.0" encoding="us-ascii" standalone="no"?><svg xmlns="http://www.w3.org/2000/svg" xmlns:xlink="http://www.w3.org/1999/xlink" contentStyleType="text/css" height="457px" preserveAspectRatio="none" style="width:901px;height:457px;background:#FFFFFF;" version="1.1" viewBox="0 0 901 457" width="901px" zoomAndPan="magnify"><defs/><g><!--cluster CS10Folder--><g id="cluster_CS10Folder"><path d="M373.5,6 L521.5,6 A3.75,3.75 0 0 1 524,8.5 L531,28.1 L680.5,28.1 A2.5,2.5 0 0 1 683,30.6 L683,213.5 A2.5,2.5 0 0 1 680.5,216 L373.5,216 A2.5,2.5 0 0 1 371,213.5 L371,8.5 A2.5,2.5 0 0 1 373.5,6 " fill="none" style="stroke:#7D5393;stroke-width:1.5;"/><line style="stroke:#7D5393;stroke-width:1.5;" x1="371" x2="531" y1="28.1" y2="28.1"/><text fill="#000000" font-family="NanumGothic" font-size="14" font-weight="bold" lengthAdjust="spacing" textLength="147" x="375" y="20.88">Charging Station: CS10</text></g><!--cluster CS11Folder--><g id="cluster_CS11Folder"><path d="M373.5,240 L497.5,240 A3.75,3.75 0 0 1 500,242.5 L507,262.1 L680.5,262.1 A2.5,2.5 0 0 1 683,264.6 L683,447.5 A2.5,2.5 0 0 1 680.5,450 L373.5,450 A2.5,2.5 0 0 1 371,447.5 L371,242.5 A2.5,2.5 0 0 1 373.5,240 " fill="none" style="stroke:#7D5393;stroke-width:1.5;"/><line style="stroke:#7D5393;stroke-width:1.5;" x1="371" x2="507" y1="262.1" y2="262.1"/><text fill="#000000" font-family="NanumGothic" font-size="14" font-weight="bold" lengthAdjust="spacing" textLength="123" x="375" y="254.88">Charge Point: CS11</text></g><!--entity CS10--><g id="elem_CS10"><polygon fill="#7D5393" points="387,147.9,397,137.9,533,137.9,533,190.1,523,200.1,387,200.1,387,147.9" style="stroke:#181818;stroke-width:1.5;"/><line style="stroke:#181818;stroke-width:1.5;" x1="523" x2="533" y1="147.9" y2="137.9"/><line style="stroke:#181818;stroke-width:1.5;" x1="387" x2="523" y1="147.9" y2="147.9"/><line style="stroke:#181818;stroke-width:1.5;" x1="523" x2="523" y1="147.9" y2="200.1"/><text fill="#FFFFFF" font-family="NanumGothic" font-size="14" lengthAdjust="spacing" textLength="106" x="402" y="170.78">Charging Station</text><text fill="#FFFFFF" font-family="NanumGothic" font-size="14" lengthAdjust="spacing" textLength="33" x="402" y="186.88">CS10</text></g><!--entity CS10_C1--><g id="elem_CS10_C1"><polygon fill="#7D5393" points="594,50.9,604,40.9,667,40.9,667,93.1,657,103.1,594,103.1,594,50.9" style="stroke:#181818;stroke-width:1.5;"/><line style="stroke:#181818;stroke-width:1.5;" x1="657" x2="667" y1="50.9" y2="40.9"/><line style="stroke:#181818;stroke-width:1.5;" x1="594" x2="657" y1="50.9" y2="50.9"/><line style="stroke:#181818;stroke-width:1.5;" x1="657" x2="657" y1="50.9" y2="103.1"/><text fill="#FFFFFF" font-family="NanumGothic" font-size="14" lengthAdjust="spacing" textLength="33" x="609" y="73.78">EVSE</text><text fill="#FFFFFF" font-family="NanumGothic" font-size="14" lengthAdjust="spacing" textLength="8" x="609" y="89.88">1</text></g><!--entity CS10_C2--><g id="elem_CS10_C2"><polygon fill="#7D5393" points="594,147.9,604,137.9,667,137.9,667,190.1,657,200.1,594,200.1,594,147.9" style="stroke:#181818;stroke-width:1.5;"/><line style="stroke:#181818;stroke-width:1.5;" x1="657" x2="667" y1="147.9" y2="137.9"/><line style="stroke:#181818;stroke-width:1.5;" x1="594" x2="657" y1="147.9" y2="147.9"/><line style="stroke:#181818;stroke-width:1.5;" x1="657" x2="657" y1="147.9" y2="200.1"/><text fill="#FFFFFF" font-family="NanumGothic" font-size="14" lengthAdjust="spacing" textLength="33" x="609" y="170.78">EVSE</text><text fill="#FFFFFF" font-family="NanumGothic" font-size="14" lengthAdjust="spacing" textLength="8" x="609" y="186.88">2</text></g><!--entity CS11--><g id="elem_CS11"><polygon fill="#7D5393" points="387,284.9,397,274.9,533,274.9,533,327.1,523,337.1,387,337.1,387,284.9" style="stroke:#181818;stroke-width:1.5;"/><line style="stroke:#181818;stroke-width:1.5;" x1="523" x2="533" y1="284.9" y2="274.9"/><line style="stroke:#181818;stroke-width:1.5;" x1="387" x2="523" y1="284.9" y2="284.9"/><line style="stroke:#181818;stroke-width:1.5;" x1="523" x2="523" y1="284.9" y2="337.1"/><text fill="#FFFFFF" font-family="NanumGothic" font-size="14" lengthAdjust="spacing" textLength="106" x="402" y="307.78">Charging Station</text><text fill="#FFFFFF" font-family="NanumGothic" font-size="14" lengthAdjust="spacing" textLength="33" x="402" y="323.88">CS11</text></g><!--entity CS11_C2--><g id="elem_CS11_C2"><polygon fill="#7D5393" points="594,381.9,604,371.9,667,371.9,667,424.1,657,434.1,594,434.1,594,381.9" style="stroke:#181818;stroke-width:1.5;"/><line style="stroke:#181818;stroke-width:1.5;" x1="657" x2="667" y1="381.9" y2="371.9"/><line style="stroke:#181818;stroke-width:1.5;" x1="594" x2="657" y1="381.9" y2="381.9"/><line style="stroke:#181818;stroke-width:1.5;" x1="657" x2="657" y1="381.9" y2="434.1"/><text fill="#FFFFFF" font-family="NanumGothic" font-size="14" lengthAdjust="spacing" textLength="33" x="609" y="404.78">EVSE</text><text fill="#FFFFFF" font-family="NanumGothic" font-size="14" lengthAdjust="spacing" textLength="8" x="609" y="420.88">2</text></g><!--entity CS11_C1--><g id="elem_CS11_C1"><polygon fill="#7D5393" points="594,284.9,604,274.9,667,274.9,667,327.1,657,337.1,594,337.1,594,284.9" style="stroke:#181818;stroke-width:1.5;"/><line style="stroke:#181818;stroke-width:1.5;" x1="657" x2="667" y1="284.9" y2="274.9"/><line style="stroke:#181818;stroke-width:1.5;" x1="594" x2="657" y1="284.9" y2="284.9"/><line style="stroke:#181818;stroke-width:1.5;" x1="657" x2="657" y1="284.9" y2="337.1"/><text fill="#FFFFFF" font-family="NanumGothic" font-size="14" lengthAdjust="spacing" textLength="33" x="609" y="307.78">EVSE</text><text fill="#FFFFFF" font-family="NanumGothic" font-size="14" lengthAdjust="spacing" textLength="8" x="609" y="323.88">1</text></g><!--entity CSMS--><g id="elem_CSMS"><polygon fill="#7D5393" points="57.5,224.95,67.5,214.95,136.5,214.95,136.5,251.05,126.5,261.05,57.5,261.05,57.5,224.95" style="stroke:#181818;stroke-width:1.5;"/><line style="stroke:#181818;stroke-width:1.5;" x1="126.5" x2="136.5" y1="224.95" y2="214.95"/><line style="stroke:#181818;stroke-width:1.5;" x1="57.5" x2="126.5" y1="224.95" y2="224.95"/><line style="stroke:#181818;stroke-width:1.5;" x1="126.5" x2="126.5" y1="224.95" y2="261.05"/><text fill="#FFFFFF" font-family="NanumGothic" font-size="14" lengthAdjust="spacing" textLength="39" x="72.5" y="247.83">CSMS</text></g><!--entity EV1--><g id="elem_EV1"><ellipse cx="881.5" cy="34.45" fill="#F1F1F1" rx="8" ry="8" style="stroke:#7D5393;stroke-width:1.5;"/><path d="M881.5,42.45 L881.5,69.45 M868.5,50.45 L894.5,50.45 M881.5,69.45 L868.5,84.45 M881.5,69.45 L894.5,84.45 " fill="none" style="stroke:#7D5393;stroke-width:1.5;"/><text fill="#000000" font-family="NanumGothic" font-size="14" lengthAdjust="spacing" textLength="25" x="869" y="99.83">EV1</text></g><!--entity EV2--><g id="elem_EV2"><ellipse cx="881.5" cy="147.45" fill="#F1F1F1" rx="8" ry="8" style="stroke:#7D5393;stroke-width:1.5;"/><path d="M881.5,155.45 L881.5,182.45 M868.5,163.45 L894.5,163.45 M881.5,182.45 L868.5,197.45 M881.5,182.45 L894.5,197.45 " fill="none" style="stroke:#7D5393;stroke-width:1.5;"/><text fill="#000000" font-family="NanumGothic" font-size="14" lengthAdjust="spacing" textLength="25" x="869" y="212.83">EV2</text></g><g id="elem_GMN13"><path d="M6,140.05 L6,179.95 A0,0 0 0 0 6,179.95 L93,179.95 L97,214.54 L101,179.95 L188,179.95 A0,0 0 0 0 188,179.95 L188,150.05 L178,140.05 L6,140.05 A0,0 0 0 0 6,140.05 " fill="#7D5393" style="stroke:#000000;stroke-width:0.5;"/><path d="M178,140.05 L178,150.05 L188,150.05 L178,140.05 " fill="#7D5393" style="stroke:#000000;stroke-width:0.5;"/><text fill="#FFFFFF" font-family="NanumGothic" font-size="13" lengthAdjust="spacing" textLength="161" x="12" y="157.01">CSMS sets known physical</text><text fill="#FFFFFF" font-family="NanumGothic" font-size="13" lengthAdjust="spacing" textLength="141" x="12" y="171.96">grid connections limits.</text></g><!--link CSMS to CS10--><g id="link_CSMS_CS10"><path d="M136.98,230.55 C196.59,219.16 305.5167,198.3363 380.7067,183.9663 " fill="none" id="CSMS-to-CS10" style="stroke:#181818;stroke-width:1.0;"/><polygon fill="#181818" points="386.6,182.84,377.0091,180.6006,381.6889,183.7786,378.5109,188.4584,386.6,182.84" style="stroke:#181818;stroke-width:1.0;"/><text fill="#000000" font-family="NanumGothic" font-size="13" lengthAdjust="spacing" textLength="135" x="219" y="186.35">OCPP charging profile</text></g><!--link CSMS to CS11--><g id="link_CSMS_CS11"><path d="M136.98,245.34 C196.59,256.57 305.5136,277.0896 380.7036,291.2496 " fill="none" id="CSMS-to-CS11" style="stroke:#181818;stroke-width:1.0;"/><polygon fill="#181818" points="386.6,292.36,378.4958,286.7635,381.6864,291.4347,377.0152,294.6253,386.6,292.36" style="stroke:#181818;stroke-width:1.0;"/><text fill="#000000" font-family="NanumGothic" font-size="13" lengthAdjust="spacing" textLength="135" x="219" y="258.9">OCPP charging profile</text></g><!--link CS10 to CS10_C1--><g id="link_CS10_CS10_C1"><path d="M515.71,137.51 C541.27,122.79 570.98,105.69 593.64,92.64 " fill="none" id="CS10-CS10_C1" style="stroke:#181818;stroke-width:1.0;"/></g><!--link CS10 to CS10_C2--><g id="link_CS10_CS10_C2"><path d="M533.44,169 C554.31,169 576.17,169 593.75,169 " fill="none" id="CS10-CS10_C2" style="stroke:#181818;stroke-width:1.0;"/></g><!--link CS11 to CS11_C1--><g id="link_CS11_CS11_C1"><path d="M533.44,306 C554.31,306 576.17,306 593.75,306 " fill="none" id="CS11-CS11_C1" style="stroke:#181818;stroke-width:1.0;"/></g><!--link CS11 to CS11_C2--><g id="link_CS11_CS11_C2"><path d="M515.71,337.49 C541.27,352.21 570.98,369.31 593.64,382.36 " fill="none" id="CS11-CS11_C2" style="stroke:#181818;stroke-width:1.0;"/></g><!--link CS10_C1 to EV1--><g id="link_CS10_C1_EV1"><path d="M667.44,70.85 C723.47,69.05 823.1031,65.8427 860.7531,64.6327 " fill="none" id="CS10_C1-to-EV1" style="stroke:#181818;stroke-width:1.0;stroke-dasharray:1.0,3.0;"/><polygon fill="#181818" points="866.75,64.44,857.6262,60.7312,861.7526,64.6006,857.8831,68.727,866.75,64.44" style="stroke:#181818;stroke-width:1.0;"/><text fill="#000000" font-family="NanumGothic" font-size="13" lengthAdjust="spacing" textLength="116" x="700" y="47.49">Control Pilot signal</text><text fill="#000000" font-family="NanumGothic" font-size="13" lengthAdjust="spacing" textLength="81" x="727.5" y="62.44">or ISO 15118</text></g><!--link CS10_C2 to EV2--><g id="link_CS10_C2_EV2"><path d="M667.44,170.15 C723.47,171.95 823.1031,175.1573 860.7531,176.3673 " fill="none" id="CS10_C2-to-EV2" style="stroke:#181818;stroke-width:1.0;stroke-dasharray:1.0,3.0;"/><polygon fill="#181818" points="866.75,176.56,857.8831,172.273,861.7526,176.3994,857.6262,180.2688,866.75,176.56" style="stroke:#181818;stroke-width:1.0;"/><text fill="#000000" font-family="NanumGothic" font-size="13" lengthAdjust="spacing" textLength="116" x="700" y="153.32">Control Pilot signal</text><text fill="#000000" font-family="NanumGothic" font-size="13" lengthAdjust="spacing" textLength="81" x="727.5" y="168.27">or ISO 15118</text></g><!--SRC=[bP5HIyCm58NVyokkUzzO0eBimPSomGTPeU2Ban6Qj0kcDoMvGuRutqtQsitEWVObvPml9oStDmPBUr0QIjUq3ZNIJXbPUzdi0XsjNhI7nZ9cTKL03hofzmJAU5sISSWOkhXtbXLFnGnaWFJ3MEMiqZxAU-bhWpKK91E-YZvV3Y1VFlJO1mCOOYRy5d_mR0JNpyLwYtnqTXcVUEBC4-npqab3xWnIrsTCuN_hS-BPjJDvElDALvwwnZwo9EUJspjnFKbYa4IQB-au-1PSrGyNkWM2fW1lwDuHslqnc5BQQDNUgFYIYFtp1B2cCHGMJAE25CLOjtkkuiRvVJSVMC4cotCelo_RUbSPgoz8VfLaNKwFZkzngOaEv6SY7y29reCffTTVb2FIwZNsY7EADJA7v9s5t5X744oDqaBwjXWd-5XiWDzoVZUaY5zIn3zIlW00]--></g></svg>