<?xml version="1.0" encoding="us-ascii" standalone="no"?><svg xmlns="http://www.w3.org/2000/svg" xmlns:xlink="http://www.w3.org/1999/xlink" contentStyleType="text/css" height="540px" preserveAspectRatio="none" style="width:888px;height:540px;background:#FFFFFF;" version="1.1" viewBox="0 0 888 540" width="888px" zoomAndPan="magnify"><defs/><g><rect fill="#FFFFFF" height="287.25" style="stroke:#181818;stroke-width:1.0;" width="10" x="210.5" y="149"/><rect fill="#FFFFFF" height="57.9" style="stroke:#181818;stroke-width:1.0;" width="10" x="210.5" y="457.2"/><rect fill="#FFFFFF" height="28.95" style="stroke:#181818;stroke-width:1.0;" width="10" x="839.5" y="234.85"/><rect fill="#FFFFFF" height="28.95" style="stroke:#181818;stroke-width:1.0;" width="10" x="839.5" y="486.15"/><rect fill="none" height="150.45" style="stroke:#000000;stroke-width:1.5;" width="871" x="10" y="278.8"/><line style="stroke:#181818;stroke-width:0.5;stroke-dasharray:5.0,5.0;" x1="47" x2="47" y1="83.1" y2="533.1"/><line style="stroke:#181818;stroke-width:0.5;stroke-dasharray:5.0,5.0;" x1="215.5" x2="215.5" y1="83.1" y2="533.1"/><line style="stroke:#181818;stroke-width:0.5;stroke-dasharray:5.0,5.0;" x1="844" x2="844" y1="83.1" y2="533.1"/><text fill="#000000" font-family="NanumGothic" font-size="14" lengthAdjust="spacing" textLength="59" x="15" y="79.88">EV Driver</text><ellipse cx="47.5" cy="14.5" fill="#E2E2F0" rx="8" ry="8" style="stroke:#7D5393;stroke-width:1.5;"/><path d="M47.5,22.5 L47.5,49.5 M34.5,30.5 L60.5,30.5 M47.5,49.5 L34.5,64.5 M47.5,49.5 L60.5,64.5 " fill="none" style="stroke:#7D5393;stroke-width:1.5;"/><rect fill="#7D5393" height="30.1" rx="2.5" ry="2.5" style="stroke:#181818;stroke-width:0.5;" width="120" x="155.5" y="52"/><text fill="#FFFFFF" font-family="NanumGothic" font-size="14" lengthAdjust="spacing" textLength="106" x="162.5" y="71.88">Charging Station</text><rect fill="#7D5393" height="30.1" rx="2.5" ry="2.5" style="stroke:#181818;stroke-width:0.5;" width="53" x="818" y="52"/><text fill="#FFFFFF" font-family="NanumGothic" font-size="14" lengthAdjust="spacing" textLength="39" x="825" y="71.88">CSMS</text><rect fill="#FFFFFF" height="287.25" style="stroke:#181818;stroke-width:1.0;" width="10" x="210.5" y="149"/><rect fill="#FFFFFF" height="57.9" style="stroke:#181818;stroke-width:1.0;" width="10" x="210.5" y="457.2"/><rect fill="#FFFFFF" height="28.95" style="stroke:#181818;stroke-width:1.0;" width="10" x="839.5" y="234.85"/><rect fill="#FFFFFF" height="28.95" style="stroke:#181818;stroke-width:1.0;" width="10" x="839.5" y="486.15"/><path d="M20,98.1 L20,122.1 L871,122.1 L871,108.1 L861,98.1 L20,98.1 " fill="#7D5393" style="stroke:#000000;stroke-width:0.5;"/><path d="M861,98.1 L861,108.1 L871,108.1 L861,98.1 " fill="#7D5393" style="stroke:#000000;stroke-width:0.5;"/><text fill="#FFFFFF" font-family="NanumGothic" font-size="13" lengthAdjust="spacing" textLength="153" x="364.5" y="115.06">A transaction is ongoing.</text><polygon fill="#181818" points="198.5,145,208.5,149,198.5,153,202.5,149" style="stroke:#181818;stroke-width:1.0;"/><line style="stroke:#181818;stroke-width:1.0;" x1="47.5" x2="204.5" y1="149" y2="149"/><text fill="#000000" font-family="NanumGothic" font-size="13" lengthAdjust="spacing" textLength="144" x="54.5" y="144.01">unplug cable at car side</text><line style="stroke:#181818;stroke-width:1.0;" x1="220.5" x2="262.5" y1="177.95" y2="177.95"/><line style="stroke:#181818;stroke-width:1.0;" x1="262.5" x2="262.5" y1="177.95" y2="190.95"/><line style="stroke:#181818;stroke-width:1.0;" x1="221.5" x2="262.5" y1="190.95" y2="190.95"/><polygon fill="#181818" points="231.5,186.95,221.5,190.95,231.5,194.95,227.5,190.95" style="stroke:#181818;stroke-width:1.0;"/><text fill="#000000" font-family="NanumGothic" font-size="13" lengthAdjust="spacing" textLength="130" x="227.5" y="172.96">suspend energy offer</text><polygon fill="#181818" points="827.5,230.85,837.5,234.85,827.5,238.85,831.5,234.85" style="stroke:#181818;stroke-width:1.0;"/><line style="stroke:#181818;stroke-width:1.0;" x1="220.5" x2="833.5" y1="234.85" y2="234.85"/><text fill="#000000" font-family="NanumGothic" font-size="13" lengthAdjust="spacing" textLength="592" x="227.5" y="214.91">TransactionEventRequest(eventType = Ended, transactionId = AB1234, seqN = N + 1, timestamp,</text><text fill="#000000" font-family="NanumGothic" font-size="13" lengthAdjust="spacing" textLength="545" x="227.5" y="229.86">triggerReason = EVCommunicationLost, stoppedReason = EVDisconnected, meterValues)</text><polygon fill="#181818" points="231.5,259.8,221.5,263.8,231.5,267.8,227.5,263.8" style="stroke:#181818;stroke-width:1.0;"/><line style="stroke:#181818;stroke-width:1.0;stroke-dasharray:2.0,2.0;" x1="225.5" x2="843.5" y1="263.8" y2="263.8"/><text fill="#000000" font-family="NanumGothic" font-size="13" lengthAdjust="spacing" textLength="171" x="237.5" y="258.81">TransactionEventResponse()</text><path d="M10,278.8 L70,278.8 L70,285.75 L60,295.75 L10,295.75 L10,278.8 " fill="#EEEEEE" style="stroke:#000000;stroke-width:1.5;"/><rect fill="none" height="150.45" style="stroke:#000000;stroke-width:1.5;" width="871" x="10" y="278.8"/><text fill="#000000" font-family="NanumGothic" font-size="13" font-weight="bold" lengthAdjust="spacing" textLength="15" x="25" y="291.76">alt</text><text fill="#000000" font-family="NanumGothic" font-size="11" font-weight="bold" lengthAdjust="spacing" textLength="374" x="85" y="290.92">[if cable not permanently attached &amp; UnlockOnEVSideDisconnect = true]</text><line style="stroke:#181818;stroke-width:1.0;" x1="220.5" x2="262.5" y1="316.7" y2="316.7"/><line style="stroke:#181818;stroke-width:1.0;" x1="262.5" x2="262.5" y1="316.7" y2="329.7"/><line style="stroke:#181818;stroke-width:1.0;" x1="221.5" x2="262.5" y1="329.7" y2="329.7"/><polygon fill="#181818" points="231.5,325.7,221.5,329.7,231.5,333.7,227.5,329.7" style="stroke:#181818;stroke-width:1.0;"/><text fill="#000000" font-family="NanumGothic" font-size="13" lengthAdjust="spacing" textLength="105" x="227.5" y="311.71">unlock connector</text><line style="stroke:#000000;stroke-width:1.0;stroke-dasharray:2.0,2.0;" x1="10" x2="881" y1="338.7" y2="338.7"/><text fill="#000000" font-family="NanumGothic" font-size="11" font-weight="bold" lengthAdjust="spacing" textLength="377" x="15" y="348.82">[if cable not permanently attached &amp; UnlockOnEVSideDisconnect = false]</text><path d="M20,357.35 L20,381.35 L871,381.35 L871,367.35 L861,357.35 L20,357.35 " fill="#7D5393" style="stroke:#000000;stroke-width:0.5;"/><path d="M861,357.35 L861,367.35 L871,367.35 L861,357.35 " fill="#7D5393" style="stroke:#000000;stroke-width:0.5;"/><text fill="#FFFFFF" font-family="NanumGothic" font-size="13" lengthAdjust="spacing" textLength="181" x="350.5" y="374.31">User authorization successful.</text><line style="stroke:#181818;stroke-width:1.0;" x1="220.5" x2="262.5" y1="408.25" y2="408.25"/><line style="stroke:#181818;stroke-width:1.0;" x1="262.5" x2="262.5" y1="408.25" y2="421.25"/><line style="stroke:#181818;stroke-width:1.0;" x1="221.5" x2="262.5" y1="421.25" y2="421.25"/><polygon fill="#181818" points="231.5,417.25,221.5,421.25,231.5,425.25,227.5,421.25" style="stroke:#181818;stroke-width:1.0;"/><text fill="#000000" font-family="NanumGothic" font-size="13" lengthAdjust="spacing" textLength="105" x="227.5" y="403.26">unlock connector</text><polygon fill="#181818" points="198.5,453.2,208.5,457.2,198.5,461.2,202.5,457.2" style="stroke:#181818;stroke-width:1.0;"/><line style="stroke:#181818;stroke-width:1.0;" x1="47.5" x2="204.5" y1="457.2" y2="457.2"/><text fill="#000000" font-family="NanumGothic" font-size="13" lengthAdjust="spacing" textLength="79" x="54.5" y="452.21">Unplug cable</text><polygon fill="#181818" points="827.5,482.15,837.5,486.15,827.5,490.15,831.5,486.15" style="stroke:#181818;stroke-width:1.0;"/><line style="stroke:#181818;stroke-width:1.0;" x1="220.5" x2="833.5" y1="486.15" y2="486.15"/><text fill="#000000" font-family="NanumGothic" font-size="13" lengthAdjust="spacing" textLength="220" x="227.5" y="481.16">StatusNotificationRequest(Available)</text><polygon fill="#181818" points="226.5,511.1,216.5,515.1,226.5,519.1,222.5,515.1" style="stroke:#181818;stroke-width:1.0;"/><line style="stroke:#181818;stroke-width:1.0;stroke-dasharray:2.0,2.0;" x1="220.5" x2="843.5" y1="515.1" y2="515.1"/><text fill="#000000" font-family="NanumGothic" font-size="13" lengthAdjust="spacing" textLength="176" x="232.5" y="510.11">StatusNotificationResponse()</text><!--SRC=[fLF1RXCn4BtxAuOSK2lII0LEbK0ARGv84AIcsHCNOyzkBBnZrnv72b_Fx2PfmX8Y2fULFJllpPkPvnUEZ2yM8VF6uoIMrYkb3OS4era5TycjCOr0PvXLsukAEh4pBcfY6DskT6eSDR1WpIvGdxeFxc83nEBpOfib1wKeC48GtgS2u-qVW2bmqfH5ZP20on2e2K8xKKWMEg1IUn1SlH-MlO52qPS6ZFxc4JJB8K5s5hi6tLfBuQ5IDGYSfCqbnqu14gPc0w6kPIedaTB73G0y7DgOhP7u7XyBPhx0xlAmYGZlO4OMxVYuuuzMmjCFrw_Vl1r3niUvNEVm2guboxM2rsqS0tmbJgvfCDsZpb9NgAhRqBQ5dEcLV0gPXO13Z6YFakvSDe483NU5MsHCbVOYxF9eFlsEkYzSdHh5xvtb62ZZnQMoE63Hdi7Lkst8zY1YQZK9oczaEwpD2YsyX2NvOBv_eLcra5qTL8feJWN567-pfDApm0uRaaAVyN_hrrf8HC0Pqm8iiyHruLL8xiTMO2x6OCvryHD9ERZtNriX-yjuXoO- -oYMHu_YcG-XjtCNA7aUsDKxW-tjF5rhvplQPnZe5DiVBNIcvvy0]--></g></svg>