<?xml version="1.0" encoding="us-ascii" standalone="no"?><svg xmlns="http://www.w3.org/2000/svg" xmlns:xlink="http://www.w3.org/1999/xlink" contentStyleType="text/css" height="746px" preserveAspectRatio="none" style="width:981px;height:746px;background:#FFFFFF;" version="1.1" viewBox="0 0 981 746" width="981px" zoomAndPan="magnify"><defs/><g><rect fill="#FFFFFF" height="145.7" style="stroke:#181818;stroke-width:1.0;" width="10" x="135" y="114.05"/><rect fill="#FFFFFF" height="231.6" style="stroke:#181818;stroke-width:1.0;" width="10" x="135" y="490.3"/><rect fill="#FFFFFF" height="28.95" style="stroke:#181818;stroke-width:1.0;" width="10" x="603" y="143"/><rect fill="#FFFFFF" height="28.95" style="stroke:#181818;stroke-width:1.0;" width="10" x="603" y="230.8"/><rect fill="#FFFFFF" height="129.75" style="stroke:#181818;stroke-width:1.0;" width="10" x="603" y="389.5"/><rect fill="#FFFFFF" height="28.95" style="stroke:#181818;stroke-width:1.0;" width="10" x="603" y="692.95"/><rect fill="#FFFFFF" height="100.8" style="stroke:#181818;stroke-width:1.0;" width="10" x="889" y="288.7"/><rect fill="none" height="58.9" style="stroke:#000000;stroke-width:1.5;" width="268" x="70" y="534.25"/><line style="stroke:#181818;stroke-width:0.5;stroke-dasharray:5.0,5.0;" x1="37" x2="37" y1="83.1" y2="739.9"/><line style="stroke:#181818;stroke-width:0.5;stroke-dasharray:5.0,5.0;" x1="140" x2="140" y1="83.1" y2="739.9"/><line style="stroke:#181818;stroke-width:0.5;stroke-dasharray:5.0,5.0;" x1="607.5" x2="607.5" y1="83.1" y2="739.9"/><line style="stroke:#181818;stroke-width:0.5;stroke-dasharray:5.0,5.0;" x1="894" x2="894" y1="83.1" y2="739.9"/><text fill="#000000" font-family="NanumGothic" font-size="14" lengthAdjust="spacing" textLength="59" x="5" y="79.88">EV Driver</text><ellipse cx="37.5" cy="14.5" fill="#E2E2F0" rx="8" ry="8" style="stroke:#7D5393;stroke-width:1.5;"/><path d="M37.5,22.5 L37.5,49.5 M24.5,30.5 L50.5,30.5 M37.5,49.5 L24.5,64.5 M37.5,49.5 L50.5,64.5 " fill="none" style="stroke:#7D5393;stroke-width:1.5;"/><rect fill="#7D5393" height="46.2" rx="2.5" ry="2.5" style="stroke:#181818;stroke-width:0.5;" width="120" x="80" y="35.9"/><text fill="#FFFFFF" font-family="NanumGothic" font-size="14" lengthAdjust="spacing" textLength="106" x="87" y="55.78">Charging Station</text><text fill="#FFFFFF" font-family="NanumGothic" font-size="14" lengthAdjust="spacing" textLength="46" x="117" y="71.88">CS-001</text><rect fill="#7D5393" height="30.1" rx="2.5" ry="2.5" style="stroke:#181818;stroke-width:0.5;" width="53" x="581.5" y="52"/><text fill="#FFFFFF" font-family="NanumGothic" font-size="14" lengthAdjust="spacing" textLength="39" x="588.5" y="71.88">CSMS</text><rect fill="#7D5393" height="30.1" rx="2.5" ry="2.5" style="stroke:#181818;stroke-width:0.5;" width="120" x="834" y="52"/><text fill="#FFFFFF" font-family="NanumGothic" font-size="14" lengthAdjust="spacing" textLength="106" x="841" y="71.88">Payment System</text><rect fill="#FFFFFF" height="145.7" style="stroke:#181818;stroke-width:1.0;" width="10" x="135" y="114.05"/><rect fill="#FFFFFF" height="231.6" style="stroke:#181818;stroke-width:1.0;" width="10" x="135" y="490.3"/><rect fill="#FFFFFF" height="28.95" style="stroke:#181818;stroke-width:1.0;" width="10" x="603" y="143"/><rect fill="#FFFFFF" height="28.95" style="stroke:#181818;stroke-width:1.0;" width="10" x="603" y="230.8"/><rect fill="#FFFFFF" height="129.75" style="stroke:#181818;stroke-width:1.0;" width="10" x="603" y="389.5"/><rect fill="#FFFFFF" height="28.95" style="stroke:#181818;stroke-width:1.0;" width="10" x="603" y="692.95"/><rect fill="#FFFFFF" height="100.8" style="stroke:#181818;stroke-width:1.0;" width="10" x="889" y="288.7"/><polygon fill="#181818" points="123,110.05,133,114.05,123,118.05,127,114.05" style="stroke:#181818;stroke-width:1.0;"/><line style="stroke:#181818;stroke-width:1.0;" x1="37.5" x2="129" y1="114.05" y2="114.05"/><text fill="#000000" font-family="NanumGothic" font-size="13" lengthAdjust="spacing" textLength="73" x="44.5" y="109.06">Plugin cable</text><polygon fill="#181818" points="591,139,601,143,591,147,595,143" style="stroke:#181818;stroke-width:1.0;"/><line style="stroke:#181818;stroke-width:1.0;" x1="145" x2="597" y1="143" y2="143"/><text fill="#000000" font-family="NanumGothic" font-size="13" lengthAdjust="spacing" textLength="223" x="152" y="138.01">StatusNotificationRequest(Occupied)</text><polygon fill="#181818" points="156,167.95,146,171.95,156,175.95,152,171.95" style="stroke:#181818;stroke-width:1.0;"/><line style="stroke:#181818;stroke-width:1.0;stroke-dasharray:2.0,2.0;" x1="150" x2="607" y1="171.95" y2="171.95"/><text fill="#000000" font-family="NanumGothic" font-size="13" lengthAdjust="spacing" textLength="176" x="162" y="166.96">StatusNotificationResponse()</text><polygon fill="#181818" points="591,226.8,601,230.8,591,234.8,595,230.8" style="stroke:#181818;stroke-width:1.0;"/><line style="stroke:#181818;stroke-width:1.0;" x1="145" x2="597" y1="230.8" y2="230.8"/><text fill="#000000" font-family="NanumGothic" font-size="13" lengthAdjust="spacing" textLength="418" x="152" y="195.91">TransactionEventRequest(eventType = Started, transactionId  AB1234,</text><text fill="#000000" font-family="NanumGothic" font-size="13" lengthAdjust="spacing" textLength="134" x="160" y="210.86">timestamp, evse.id  1,</text><text fill="#000000" font-family="NanumGothic" font-size="13" lengthAdjust="spacing" textLength="207" x="160" y="225.81">evse.connectorId  1, meterValues)</text><polygon fill="#181818" points="151,255.75,141,259.75,151,263.75,147,259.75" style="stroke:#181818;stroke-width:1.0;"/><line style="stroke:#181818;stroke-width:1.0;stroke-dasharray:2.0,2.0;" x1="145" x2="607" y1="259.75" y2="259.75"/><text fill="#000000" font-family="NanumGothic" font-size="13" lengthAdjust="spacing" textLength="183" x="157" y="254.76">TransactionEventResponse(...)</text><polygon fill="#181818" points="877,284.7,887,288.7,877,292.7,881,288.7" style="stroke:#181818;stroke-width:1.0;"/><line style="stroke:#181818;stroke-width:1.0;" x1="37.5" x2="883" y1="288.7" y2="288.7"/><text fill="#000000" font-family="NanumGothic" font-size="13" lengthAdjust="spacing" textLength="51" x="44.5" y="283.71">use card</text><line style="stroke:#181818;stroke-width:1.0;" x1="899" x2="941" y1="332.6" y2="332.6"/><line style="stroke:#181818;stroke-width:1.0;" x1="941" x2="941" y1="332.6" y2="345.6"/><line style="stroke:#181818;stroke-width:1.0;" x1="900" x2="941" y1="345.6" y2="345.6"/><polygon fill="#181818" points="910,341.6,900,345.6,910,349.6,906,345.6" style="stroke:#181818;stroke-width:1.0;"/><text fill="#000000" font-family="NanumGothic" font-size="13" lengthAdjust="spacing" textLength="50" x="906" y="312.66">financial</text><text fill="#000000" font-family="NanumGothic" font-size="13" lengthAdjust="spacing" textLength="68" x="906" y="327.61">transaction</text><polygon fill="#181818" points="624,385.5,614,389.5,624,393.5,620,389.5" style="stroke:#181818;stroke-width:1.0;"/><line style="stroke:#181818;stroke-width:1.0;" x1="618" x2="893" y1="389.5" y2="389.5"/><text fill="#000000" font-family="NanumGothic" font-size="13" lengthAdjust="spacing" textLength="253" x="630" y="369.56">authorized(TransactionReference = 1234,</text><text fill="#000000" font-family="NanumGothic" font-size="13" lengthAdjust="spacing" textLength="146" x="638" y="384.51">CS = CS-001, EVSE = 1)</text><line style="stroke:#181818;stroke-width:1.0;" x1="613" x2="655" y1="433.4" y2="433.4"/><line style="stroke:#181818;stroke-width:1.0;" x1="655" x2="655" y1="433.4" y2="446.4"/><line style="stroke:#181818;stroke-width:1.0;" x1="614" x2="655" y1="446.4" y2="446.4"/><polygon fill="#181818" points="624,442.4,614,446.4,624,450.4,620,446.4" style="stroke:#181818;stroke-width:1.0;"/><text fill="#000000" font-family="NanumGothic" font-size="13" lengthAdjust="spacing" textLength="125" x="620" y="413.46">generate unique id()</text><text fill="#000000" font-family="NanumGothic" font-size="13" lengthAdjust="spacing" textLength="83" x="628" y="428.41">result = 4444</text><polygon fill="#181818" points="156,486.3,146,490.3,156,494.3,152,490.3" style="stroke:#181818;stroke-width:1.0;"/><line style="stroke:#181818;stroke-width:1.0;" x1="150" x2="602" y1="490.3" y2="490.3"/><text fill="#000000" font-family="NanumGothic" font-size="13" lengthAdjust="spacing" textLength="264" x="162" y="470.36">RequestStartTransactionRequest(evseId = 1</text><text fill="#000000" font-family="NanumGothic" font-size="13" lengthAdjust="spacing" textLength="213" x="178" y="485.31">idToken(id = 4444, type = Central)</text><polygon fill="#181818" points="596,515.25,606,519.25,596,523.25,600,519.25" style="stroke:#181818;stroke-width:1.0;"/><line style="stroke:#181818;stroke-width:1.0;stroke-dasharray:2.0,2.0;" x1="145" x2="602" y1="519.25" y2="519.25"/><text fill="#000000" font-family="NanumGothic" font-size="13" lengthAdjust="spacing" textLength="272" x="152" y="514.26">RequestStartTransactionResponse(Accepted)</text><path d="M70,534.25 L136,534.25 L136,541.2 L126,551.2 L70,551.2 L70,534.25 " fill="#EEEEEE" style="stroke:#000000;stroke-width:1.5;"/><rect fill="none" height="58.9" style="stroke:#000000;stroke-width:1.5;" width="268" x="70" y="534.25"/><text fill="#000000" font-family="NanumGothic" font-size="13" font-weight="bold" lengthAdjust="spacing" textLength="21" x="85" y="547.21">opt</text><text fill="#000000" font-family="NanumGothic" font-size="11" font-weight="bold" lengthAdjust="spacing" textLength="182" x="151" y="546.37">[if cable not permanently attached]</text><line style="stroke:#181818;stroke-width:1.0;" x1="145" x2="187" y1="572.15" y2="572.15"/><line style="stroke:#181818;stroke-width:1.0;" x1="187" x2="187" y1="572.15" y2="585.15"/><line style="stroke:#181818;stroke-width:1.0;" x1="146" x2="187" y1="585.15" y2="585.15"/><polygon fill="#181818" points="156,581.15,146,585.15,156,589.15,152,585.15" style="stroke:#181818;stroke-width:1.0;"/><text fill="#000000" font-family="NanumGothic" font-size="13" lengthAdjust="spacing" textLength="89" x="152" y="567.16">lock connector</text><line style="stroke:#181818;stroke-width:1.0;" x1="145" x2="187" y1="621.1" y2="621.1"/><line style="stroke:#181818;stroke-width:1.0;" x1="187" x2="187" y1="621.1" y2="634.1"/><line style="stroke:#181818;stroke-width:1.0;" x1="146" x2="187" y1="634.1" y2="634.1"/><polygon fill="#181818" points="156,630.1,146,634.1,156,638.1,152,634.1" style="stroke:#181818;stroke-width:1.0;"/><text fill="#000000" font-family="NanumGothic" font-size="13" lengthAdjust="spacing" textLength="108" x="152" y="616.11">Start energy offer</text><polygon fill="#181818" points="591,688.95,601,692.95,591,696.95,595,692.95" style="stroke:#181818;stroke-width:1.0;"/><line style="stroke:#181818;stroke-width:1.0;" x1="145" x2="597" y1="692.95" y2="692.95"/><text fill="#000000" font-family="NanumGothic" font-size="13" lengthAdjust="spacing" textLength="435" x="152" y="658.06">TransactionEventRequest(eventType = Updated, transactionId  AB1234,</text><text fill="#000000" font-family="NanumGothic" font-size="13" lengthAdjust="spacing" textLength="305" x="168" y="673.01">seqNo = 1, timestamp, chargingState = Charging,</text><text fill="#000000" font-family="NanumGothic" font-size="13" lengthAdjust="spacing" textLength="351" x="168" y="687.96">trigger = Authorized, idToken(id = 4444, type = Central))</text><polygon fill="#181818" points="151,717.9,141,721.9,151,725.9,147,721.9" style="stroke:#181818;stroke-width:1.0;"/><line style="stroke:#181818;stroke-width:1.0;stroke-dasharray:2.0,2.0;" x1="145" x2="607" y1="721.9" y2="721.9"/><text fill="#000000" font-family="NanumGothic" font-size="13" lengthAdjust="spacing" textLength="348" x="157" y="716.91">TransactionEventResponse(idTokenInfo.status  Accepted)</text><!--SRC=[hLJ1Rjim3BtxAxYS4i0ncgsd01cGPJdaiAweivnoKINQ4MfBhaG7yBv-akqqZkDiApOV35CKoKS-Fd-GYcUbGB1KPHWLPPu50UEa3OpME_Xgv17D29Y5zQunWe8PabmMJ16CLWTcKgbIY8cHr6glLl7qxcvMXvoShQyN6N-BcrlkuzBroAeStKTSMSAyljGUDIT1S083qy_zAdDup4fd0sVF6VfUv94HNe49UWTrAWTbNhTIsWTDCf6yzZtXQucMnjyvBmk9Oj99wz47_WtJ8J13oMoXbSNn913OptCB4y3MC6NzTQtMHpUA4oRqnhOg47mjGoX2eFFTZG1OVfbz_7GVmbu1aCnT5CkB4F1eCPBEFsjSjSsrKkZvtpIE70dDZcMkrZkwlWRRzXn5qNNRNRlFKfVfYoMOGsdHaMp46LPlIoxCWGG0YLHCSScolUhCR23on08hwQ2D_8bYtEdn2HCqg3Z20iwZNiNEREGGEld4Q- -zwFuIx-1qpwLJL6YykrJIKGzIZ2Tr7OEspCWbltTF9wvF2a2xC_MUNC0_hP95Hxj3MUS5LsAhNr2DfMYpkzNoc-RQGZ-mRF8UVRtrSXD6koHBph4WBxChWUY2G2QDja5fWW9DpfH3arN0Y1W_e0W0XeJKdqUc-GkyxNk0IWmBS43IXi2paLQW4qVzFmft0JyAmVwaN02Bhm_QqnDsPSmxfMjgMZjiWiZ8D7NwMS3oRNV3ls3sVwYzhR9HYOvi_IDqBTqazpU_WLy0]--></g></svg>