<?xml version="1.0" encoding="us-ascii" standalone="no"?><svg xmlns="http://www.w3.org/2000/svg" xmlns:xlink="http://www.w3.org/1999/xlink" contentStyleType="text/css" height="1111px" preserveAspectRatio="none" style="width:1095px;height:1111px;background:#FFFFFF;" version="1.1" viewBox="0 0 1095 1111" width="1095px" zoomAndPan="magnify"><defs/><g><rect fill="#FFFFFF" height="49.9" style="stroke:#181818;stroke-width:1.0;" width="10" x="90.5" y="93.1"/><rect fill="#FFFFFF" height="342.35" style="stroke:#181818;stroke-width:1.0;" width="10" x="216.5" y="592.2"/><rect fill="#FFFFFF" height="144.75" style="stroke:#181818;stroke-width:1.0;" width="10" x="351.5" y="114.05"/><rect fill="#FFFFFF" height="225.6" style="stroke:#181818;stroke-width:1.0;" width="10" x="351.5" y="287.75"/><rect fill="#FFFFFF" height="101.8" style="stroke:#181818;stroke-width:1.0;" width="10" x="351.5" y="707"/><rect fill="#FFFFFF" height="115.8" style="stroke:#181818;stroke-width:1.0;" width="10" x="351.5" y="970.5"/><rect fill="#FFFFFF" height="86.85" style="stroke:#181818;stroke-width:1.0;" width="10" x="941.5" y="171.95"/><rect fill="#FFFFFF" height="28.95" style="stroke:#181818;stroke-width:1.0;" width="10" x="941.5" y="316.7"/><rect fill="#FFFFFF" height="28.95" style="stroke:#181818;stroke-width:1.0;" width="10" x="941.5" y="484.4"/><rect fill="#FFFFFF" height="114.8" style="stroke:#181818;stroke-width:1.0;" width="10" x="941.5" y="621.15"/><rect fill="#FFFFFF" height="28.95" style="stroke:#181818;stroke-width:1.0;" width="10" x="941.5" y="779.85"/><rect fill="#FFFFFF" height="248.55" style="stroke:#181818;stroke-width:1.0;" width="10" x="941.5" y="837.75"/><rect fill="none" height="45.9" style="stroke:#000000;stroke-width:1.5;" width="373.5" x="53" y="360.65"/><rect fill="none" height="45.9" style="stroke:#000000;stroke-width:1.5;" width="243.5" x="53" y="896.65"/><line style="stroke:#181818;stroke-width:0.5;stroke-dasharray:5.0,5.0;" x1="95" x2="95" y1="83.1" y2="1104.3"/><line style="stroke:#181818;stroke-width:0.5;stroke-dasharray:5.0,5.0;" x1="221.5" x2="221.5" y1="83.1" y2="1104.3"/><line style="stroke:#181818;stroke-width:0.5;stroke-dasharray:5.0,5.0;" x1="356.5" x2="356.5" y1="83.1" y2="1104.3"/><line style="stroke:#181818;stroke-width:0.5;stroke-dasharray:5.0,5.0;" x1="946" x2="946" y1="83.1" y2="1104.3"/><text fill="#000000" font-family="NanumGothic" font-size="14" lengthAdjust="spacing" textLength="59" x="63" y="79.88">EV Driver</text><ellipse cx="95.5" cy="14.5" fill="#E2E2F0" rx="8" ry="8" style="stroke:#7D5393;stroke-width:1.5;"/><path d="M95.5,22.5 L95.5,49.5 M82.5,30.5 L108.5,30.5 M95.5,49.5 L82.5,64.5 M95.5,49.5 L108.5,64.5 " fill="none" style="stroke:#7D5393;stroke-width:1.5;"/><rect fill="#7D5393" height="30.1" rx="2.5" ry="2.5" style="stroke:#181818;stroke-width:0.5;" width="130" x="156.5" y="52"/><text fill="#FFFFFF" font-family="NanumGothic" font-size="14" lengthAdjust="spacing" textLength="116" x="163.5" y="71.88">Payment Terminal</text><rect fill="#7D5393" height="30.1" rx="2.5" ry="2.5" style="stroke:#181818;stroke-width:0.5;" width="120" x="296.5" y="52"/><text fill="#FFFFFF" font-family="NanumGothic" font-size="14" lengthAdjust="spacing" textLength="106" x="303.5" y="71.88">Charging Station</text><rect fill="#7D5393" height="30.1" rx="2.5" ry="2.5" style="stroke:#181818;stroke-width:0.5;" width="53" x="920" y="52"/><text fill="#FFFFFF" font-family="NanumGothic" font-size="14" lengthAdjust="spacing" textLength="39" x="927" y="71.88">CSMS</text><rect fill="#FFFFFF" height="49.9" style="stroke:#181818;stroke-width:1.0;" width="10" x="90.5" y="93.1"/><rect fill="#FFFFFF" height="342.35" style="stroke:#181818;stroke-width:1.0;" width="10" x="216.5" y="592.2"/><rect fill="#FFFFFF" height="144.75" style="stroke:#181818;stroke-width:1.0;" width="10" x="351.5" y="114.05"/><rect fill="#FFFFFF" height="225.6" style="stroke:#181818;stroke-width:1.0;" width="10" x="351.5" y="287.75"/><rect fill="#FFFFFF" height="101.8" style="stroke:#181818;stroke-width:1.0;" width="10" x="351.5" y="707"/><rect fill="#FFFFFF" height="115.8" style="stroke:#181818;stroke-width:1.0;" width="10" x="351.5" y="970.5"/><rect fill="#FFFFFF" height="86.85" style="stroke:#181818;stroke-width:1.0;" width="10" x="941.5" y="171.95"/><rect fill="#FFFFFF" height="28.95" style="stroke:#181818;stroke-width:1.0;" width="10" x="941.5" y="316.7"/><rect fill="#FFFFFF" height="28.95" style="stroke:#181818;stroke-width:1.0;" width="10" x="941.5" y="484.4"/><rect fill="#FFFFFF" height="114.8" style="stroke:#181818;stroke-width:1.0;" width="10" x="941.5" y="621.15"/><rect fill="#FFFFFF" height="28.95" style="stroke:#181818;stroke-width:1.0;" width="10" x="941.5" y="779.85"/><rect fill="#FFFFFF" height="248.55" style="stroke:#181818;stroke-width:1.0;" width="10" x="941.5" y="837.75"/><polygon fill="#181818" points="339.5,110.05,349.5,114.05,339.5,118.05,343.5,114.05" style="stroke:#181818;stroke-width:1.0;"/><line style="stroke:#181818;stroke-width:1.0;" x1="100.5" x2="345.5" y1="114.05" y2="114.05"/><text fill="#000000" font-family="NanumGothic" font-size="13" lengthAdjust="spacing" textLength="73" x="107.5" y="109.06">Plugin cable</text><polygon fill="#181818" points="929.5,167.95,939.5,171.95,929.5,175.95,933.5,171.95" style="stroke:#181818;stroke-width:1.0;"/><line style="stroke:#181818;stroke-width:1.0;" x1="361.5" x2="935.5" y1="171.95" y2="171.95"/><text fill="#000000" font-family="NanumGothic" font-size="13" lengthAdjust="spacing" textLength="223" x="368.5" y="166.96">StatusNotificationRequest(Occupied)</text><polygon fill="#181818" points="372.5,196.9,362.5,200.9,372.5,204.9,368.5,200.9" style="stroke:#181818;stroke-width:1.0;"/><line style="stroke:#181818;stroke-width:1.0;stroke-dasharray:2.0,2.0;" x1="366.5" x2="940.5" y1="200.9" y2="200.9"/><text fill="#000000" font-family="NanumGothic" font-size="13" lengthAdjust="spacing" textLength="176" x="378.5" y="195.91">StatusNotificationResponse()</text><polygon fill="#181818" points="929.5,225.85,939.5,229.85,929.5,233.85,933.5,229.85" style="stroke:#181818;stroke-width:1.0;"/><line style="stroke:#181818;stroke-width:1.0;" x1="361.5" x2="935.5" y1="229.85" y2="229.85"/><text fill="#000000" font-family="NanumGothic" font-size="13" lengthAdjust="spacing" textLength="295" x="368.5" y="224.86">TransactionEventRequest(eventType = Started, ...)</text><polygon fill="#181818" points="367.5,254.8,357.5,258.8,367.5,262.8,363.5,258.8" style="stroke:#181818;stroke-width:1.0;"/><line style="stroke:#181818;stroke-width:1.0;stroke-dasharray:2.0,2.0;" x1="361.5" x2="945.5" y1="258.8" y2="258.8"/><text fill="#000000" font-family="NanumGothic" font-size="13" lengthAdjust="spacing" textLength="183" x="373.5" y="253.81">TransactionEventResponse(...)</text><polygon fill="#181818" points="339.5,283.75,349.5,287.75,339.5,291.75,343.5,287.75" style="stroke:#181818;stroke-width:1.0;"/><line style="stroke:#181818;stroke-width:1.0;stroke-dasharray:2.0,2.0;" x1="95.5" x2="345.5" y1="287.75" y2="287.75"/><text fill="#000000" font-family="NanumGothic" font-size="13" lengthAdjust="spacing" textLength="175" x="102.5" y="282.76">present parking ticket(1234)</text><polygon fill="#181818" points="929.5,312.7,939.5,316.7,929.5,320.7,933.5,316.7" style="stroke:#181818;stroke-width:1.0;"/><line style="stroke:#181818;stroke-width:1.0;" x1="361.5" x2="935.5" y1="316.7" y2="316.7"/><text fill="#000000" font-family="NanumGothic" font-size="13" lengthAdjust="spacing" textLength="317" x="368.5" y="311.71">AuthorizeRequest(idToken(id = 1234, type = Local))</text><polygon fill="#181818" points="372.5,341.65,362.5,345.65,372.5,349.65,368.5,345.65" style="stroke:#181818;stroke-width:1.0;"/><line style="stroke:#181818;stroke-width:1.0;stroke-dasharray:2.0,2.0;" x1="366.5" x2="945.5" y1="345.65" y2="345.65"/><text fill="#000000" font-family="NanumGothic" font-size="13" lengthAdjust="spacing" textLength="139" x="378.5" y="340.66">AuthorizeResponse(...)</text><path d="M53,360.65 L119,360.65 L119,367.6 L109,377.6 L53,377.6 L53,360.65 " fill="#EEEEEE" style="stroke:#000000;stroke-width:1.5;"/><rect fill="none" height="45.9" style="stroke:#000000;stroke-width:1.5;" width="373.5" x="53" y="360.65"/><text fill="#000000" font-family="NanumGothic" font-size="13" font-weight="bold" lengthAdjust="spacing" textLength="21" x="68" y="373.61">opt</text><polygon fill="#181818" points="106.5,394.55,96.5,398.55,106.5,402.55,102.5,398.55" style="stroke:#181818;stroke-width:1.0;"/><line style="stroke:#181818;stroke-width:1.0;stroke-dasharray:2.0,2.0;" x1="100.5" x2="350.5" y1="398.55" y2="398.55"/><text fill="#000000" font-family="NanumGothic" font-size="13" lengthAdjust="spacing" textLength="69" x="112.5" y="393.56">notification</text><path d="M301,418.55 L301,442.55 L411,442.55 L411,428.55 L401,418.55 L301,418.55 " fill="#7D5393" style="stroke:#000000;stroke-width:0.5;"/><path d="M401,418.55 L401,428.55 L411,428.55 L401,418.55 " fill="#7D5393" style="stroke:#000000;stroke-width:0.5;"/><text fill="#FFFFFF" font-family="NanumGothic" font-size="13" lengthAdjust="spacing" textLength="89" x="307" y="435.51">Start Charging</text><polygon fill="#181818" points="929.5,480.4,939.5,484.4,929.5,488.4,933.5,484.4" style="stroke:#181818;stroke-width:1.0;"/><line style="stroke:#181818;stroke-width:1.0;" x1="361.5" x2="935.5" y1="484.4" y2="484.4"/><text fill="#000000" font-family="NanumGothic" font-size="13" lengthAdjust="spacing" textLength="444" x="368.5" y="464.46">TransactionEventRequest(eventType = Updated, transactionId = AB1234,</text><text fill="#000000" font-family="NanumGothic" font-size="13" lengthAdjust="spacing" textLength="519" x="376.5" y="479.41">chargingState = Charging, trigger = Authorized, idToken.id = 1234, meterValues, ...)</text><polygon fill="#181818" points="367.5,509.35,357.5,513.35,367.5,517.35,363.5,513.35" style="stroke:#181818;stroke-width:1.0;"/><line style="stroke:#181818;stroke-width:1.0;stroke-dasharray:2.0,2.0;" x1="361.5" x2="945.5" y1="513.35" y2="513.35"/><text fill="#000000" font-family="NanumGothic" font-size="13" lengthAdjust="spacing" textLength="368" x="373.5" y="508.36">TransactionEventResponse(idTokenInfo.status  Accepted, ...)</text><path d="M5,526.35 L5,550.35 L186,550.35 L186,536.35 L176,526.35 L5,526.35 " fill="#7D5393" style="stroke:#000000;stroke-width:0.5;"/><path d="M176,526.35 L176,536.35 L186,536.35 L176,526.35 " fill="#7D5393" style="stroke:#000000;stroke-width:0.5;"/><text fill="#FFFFFF" font-family="NanumGothic" font-size="13" lengthAdjust="spacing" textLength="160" x="11" y="543.31">User returns to pick up EV</text><polygon fill="#181818" points="204.5,588.2,214.5,592.2,204.5,596.2,208.5,592.2" style="stroke:#181818;stroke-width:1.0;"/><line style="stroke:#181818;stroke-width:1.0;stroke-dasharray:2.0,2.0;" x1="95.5" x2="210.5" y1="592.2" y2="592.2"/><text fill="#000000" font-family="NanumGothic" font-size="13" lengthAdjust="spacing" textLength="96" x="102.5" y="572.26">present parking</text><text fill="#000000" font-family="NanumGothic" font-size="13" lengthAdjust="spacing" textLength="75" x="110.5" y="587.21">ticket(1234)</text><polygon fill="#181818" points="929.5,617.15,939.5,621.15,929.5,625.15,933.5,621.15" style="stroke:#181818;stroke-width:1.0;"/><line style="stroke:#181818;stroke-width:1.0;" x1="226.5" x2="935.5" y1="621.15" y2="621.15"/><text fill="#000000" font-family="NanumGothic" font-size="13" lengthAdjust="spacing" textLength="154" x="233.5" y="616.16">stop charging(id = 1234)</text><line style="stroke:#181818;stroke-width:1.0;" x1="951.5" x2="993.5" y1="665.05" y2="665.05"/><line style="stroke:#181818;stroke-width:1.0;" x1="993.5" x2="993.5" y1="665.05" y2="678.05"/><line style="stroke:#181818;stroke-width:1.0;" x1="952.5" x2="993.5" y1="678.05" y2="678.05"/><polygon fill="#181818" points="962.5,674.05,952.5,678.05,962.5,682.05,958.5,678.05" style="stroke:#181818;stroke-width:1.0;"/><text fill="#000000" font-family="NanumGothic" font-size="13" lengthAdjust="spacing" textLength="87" x="958.5" y="645.11">Match ticketId</text><text fill="#000000" font-family="NanumGothic" font-size="13" lengthAdjust="spacing" textLength="122" x="966.5" y="660.06">with TransactionId()</text><polygon fill="#181818" points="372.5,703,362.5,707,372.5,711,368.5,707" style="stroke:#181818;stroke-width:1.0;"/><line style="stroke:#181818;stroke-width:1.0;" x1="366.5" x2="940.5" y1="707" y2="707"/><text fill="#000000" font-family="NanumGothic" font-size="13" lengthAdjust="spacing" textLength="351" x="378.5" y="702.01">RequestStopTransactionRequest(transactionId = AB1234)</text><polygon fill="#181818" points="934.5,731.95,944.5,735.95,934.5,739.95,938.5,735.95" style="stroke:#181818;stroke-width:1.0;"/><line style="stroke:#181818;stroke-width:1.0;stroke-dasharray:2.0,2.0;" x1="361.5" x2="940.5" y1="735.95" y2="735.95"/><text fill="#000000" font-family="NanumGothic" font-size="13" lengthAdjust="spacing" textLength="271" x="368.5" y="730.96">RequestStopTransactionResponse(Accepted)</text><polygon fill="#181818" points="929.5,775.85,939.5,779.85,929.5,783.85,933.5,779.85" style="stroke:#181818;stroke-width:1.0;"/><line style="stroke:#181818;stroke-width:1.0;" x1="361.5" x2="935.5" y1="779.85" y2="779.85"/><text fill="#000000" font-family="NanumGothic" font-size="13" lengthAdjust="spacing" textLength="444" x="368.5" y="759.91">TransactionEventRequest(eventType = Updated, transactionId = AB1234,</text><text fill="#000000" font-family="NanumGothic" font-size="13" lengthAdjust="spacing" textLength="553" x="376.5" y="774.86">chargingState = EVConnected, trigger = RemoteStop, idToken.id = 1234, meterValues, ...)</text><polygon fill="#181818" points="367.5,804.8,357.5,808.8,367.5,812.8,363.5,808.8" style="stroke:#181818;stroke-width:1.0;"/><line style="stroke:#181818;stroke-width:1.0;stroke-dasharray:2.0,2.0;" x1="361.5" x2="945.5" y1="808.8" y2="808.8"/><text fill="#000000" font-family="NanumGothic" font-size="13" lengthAdjust="spacing" textLength="183" x="373.5" y="803.81">TransactionEventResponse(...)</text><polygon fill="#181818" points="237.5,833.75,227.5,837.75,237.5,841.75,233.5,837.75" style="stroke:#181818;stroke-width:1.0;"/><polygon fill="#181818" points="929.5,833.75,939.5,837.75,929.5,841.75,933.5,837.75" style="stroke:#181818;stroke-width:1.0;"/><line style="stroke:#181818;stroke-width:1.0;stroke-dasharray:2.0,2.0;" x1="231.5" x2="935.5" y1="837.75" y2="837.75"/><text fill="#000000" font-family="NanumGothic" font-size="13" lengthAdjust="spacing" textLength="119" x="243.5" y="832.76">get cost(id = 1234)</text><polygon fill="#181818" points="204.5,877.65,214.5,881.65,204.5,885.65,208.5,881.65" style="stroke:#181818;stroke-width:1.0;"/><line style="stroke:#181818;stroke-width:1.0;" x1="95.5" x2="210.5" y1="881.65" y2="881.65"/><text fill="#000000" font-family="NanumGothic" font-size="13" lengthAdjust="spacing" textLength="93" x="102.5" y="861.71">pay for parking</text><text fill="#000000" font-family="NanumGothic" font-size="13" lengthAdjust="spacing" textLength="80" x="110.5" y="876.66">and charging</text><path d="M53,896.65 L119,896.65 L119,903.6 L109,913.6 L53,913.6 L53,896.65 " fill="#EEEEEE" style="stroke:#000000;stroke-width:1.5;"/><rect fill="none" height="45.9" style="stroke:#000000;stroke-width:1.5;" width="243.5" x="53" y="896.65"/><text fill="#000000" font-family="NanumGothic" font-size="13" font-weight="bold" lengthAdjust="spacing" textLength="21" x="68" y="909.61">opt</text><polygon fill="#181818" points="106.5,930.55,96.5,934.55,106.5,938.55,102.5,934.55" style="stroke:#181818;stroke-width:1.0;"/><line style="stroke:#181818;stroke-width:1.0;stroke-dasharray:2.0,2.0;" x1="100.5" x2="220.5" y1="934.55" y2="934.55"/><text fill="#000000" font-family="NanumGothic" font-size="13" lengthAdjust="spacing" textLength="69" x="112.5" y="929.56">notification</text><polygon fill="#181818" points="339.5,966.5,349.5,970.5,339.5,974.5,343.5,970.5" style="stroke:#181818;stroke-width:1.0;"/><line style="stroke:#181818;stroke-width:1.0;" x1="95.5" x2="345.5" y1="970.5" y2="970.5"/><text fill="#000000" font-family="NanumGothic" font-size="13" lengthAdjust="spacing" textLength="79" x="102.5" y="965.51">Unplug cable</text><polygon fill="#181818" points="929.5,995.45,939.5,999.45,929.5,1003.45,933.5,999.45" style="stroke:#181818;stroke-width:1.0;"/><line style="stroke:#181818;stroke-width:1.0;" x1="361.5" x2="935.5" y1="999.45" y2="999.45"/><text fill="#000000" font-family="NanumGothic" font-size="13" lengthAdjust="spacing" textLength="220" x="368.5" y="994.46">StatusNotificationRequest(Available)</text><polygon fill="#181818" points="372.5,1024.4,362.5,1028.4,372.5,1032.4,368.5,1028.4" style="stroke:#181818;stroke-width:1.0;"/><line style="stroke:#181818;stroke-width:1.0;stroke-dasharray:2.0,2.0;" x1="366.5" x2="940.5" y1="1028.4" y2="1028.4"/><text fill="#000000" font-family="NanumGothic" font-size="13" lengthAdjust="spacing" textLength="176" x="378.5" y="1023.41">StatusNotificationResponse()</text><polygon fill="#181818" points="929.5,1053.35,939.5,1057.35,929.5,1061.35,933.5,1057.35" style="stroke:#181818;stroke-width:1.0;"/><line style="stroke:#181818;stroke-width:1.0;" x1="361.5" x2="935.5" y1="1057.35" y2="1057.35"/><text fill="#000000" font-family="NanumGothic" font-size="13" lengthAdjust="spacing" textLength="535" x="368.5" y="1052.36">TransactionEventRequest(eventType = Ended, transactionId = AB1234, meterValues, ...)</text><polygon fill="#181818" points="367.5,1082.3,357.5,1086.3,367.5,1090.3,363.5,1086.3" style="stroke:#181818;stroke-width:1.0;"/><line style="stroke:#181818;stroke-width:1.0;stroke-dasharray:2.0,2.0;" x1="361.5" x2="945.5" y1="1086.3" y2="1086.3"/><text fill="#000000" font-family="NanumGothic" font-size="13" lengthAdjust="spacing" textLength="183" x="373.5" y="1081.31">TransactionEventResponse(...)</text><!--SRC=[nLRBZjem5DtdAsvP4Mc8rCTgL4QYKnP8dNOqF3Pj5wvp0OjWkuv3HR- -jec9SG8TDZCRY6zyN-USw_WDuxIeSeHIxmlCPBKjaeHGBHJqnWluhDWELGz82UF5OP58eZIZJ1AkeVT8zbiq3pDKMyP9uRRMHcyxzRXV4xLYV0LJJJGJt7buOssBFAOFqyCky-2gOpkYiQd8Fy3WBevq2uz5PTP0oQy26zyuOH8POF1zpV8S-KyJqyU_XOCjoR5TH3l2dIlurZLQbL-5Paj6tRid_5rXgVlVAAqampmD2dCzsbyOTBNJ5QoKWfVOJo_KC5E4bpQ9uEETuSPNW7Onsqi46rbfp6yWoxBqKWdjM7K1pZ709WOvVENQR8ZhoYCLbbPRHWmRAnYZY0tg_jjtxp-arp3fCHXLUYqK-uk-UPRFn0Qv-OSXsB0te2qKG_WYA2dIAsW9Ofy3mqKGKYS0hH9FHCO3SXFaUP8O2uAmGCNTrhGTxNQ_3O0NS81dg648SvaJ9mVTR9vOe4QV3b3zu00qo66TV4xhnLOhK_2mWSR4gX7F0iItg54jI64AgANtRD3F2h5EC-5BaPLkO016bA9iz1qpSq6s0Vp7QGUObsQjK5UAbw05IADEgAJP4d1m8l3eMBH4H1Ata7QhF3vIayZGi5jg8O-yDD8-0skZYGUYwRhERdYsfVnXUXs2FCdxQU0Oqr6hQ6eA29oyjhfbTDKW7wizbwcctrFTCN-lCHJZnRtW76djwEVY2RT68xQ75vkBgvKVg-nZmy4ADL3XJj5p4Wk_ortY9tjOcek6FzyjTiICZiVFdvOjgPy_BG62RkAPSKVfnRl2d4jpMxZ-hl3_B_reHrXXmwQlyd4t8kJv9TssrVOI-le7]--></g></svg>