<?xml version="1.0" encoding="us-ascii" standalone="no"?><svg xmlns="http://www.w3.org/2000/svg" xmlns:xlink="http://www.w3.org/1999/xlink" contentStyleType="text/css" height="389px" preserveAspectRatio="none" style="width:422px;height:389px;background:#FFFFFF;" version="1.1" viewBox="0 0 422 389" width="422px" zoomAndPan="magnify"><defs/><g><rect fill="#FFFFFF" height="297.55" style="stroke:#181818;stroke-width:1.0;" width="10" x="85" y="46.1"/><rect fill="#FFFFFF" height="28.95" style="stroke:#181818;stroke-width:1.0;" width="10" x="369" y="299.7"/><rect fill="none" height="89.85" style="stroke:#000000;stroke-width:1.5;" width="374" x="10" y="123"/><rect fill="none" height="58.9" style="stroke:#000000;stroke-width:1.5;" width="354" x="20" y="146.95"/><rect fill="none" height="74.85" style="stroke:#000000;stroke-width:1.5;" width="390.5" x="20" y="261.8"/><line style="stroke:#181818;stroke-width:0.5;stroke-dasharray:5.0,5.0;" x1="90" x2="90" y1="36.1" y2="382.6"/><line style="stroke:#181818;stroke-width:0.5;stroke-dasharray:5.0,5.0;" x1="373.5" x2="373.5" y1="36.1" y2="382.6"/><rect fill="#7D5393" height="30.1" rx="2.5" ry="2.5" style="stroke:#181818;stroke-width:0.5;" width="120" x="30" y="5"/><text fill="#FFFFFF" font-family="NanumGothic" font-size="14" lengthAdjust="spacing" textLength="106" x="37" y="24.88">Charging Station</text><rect fill="#7D5393" height="30.1" rx="2.5" ry="2.5" style="stroke:#181818;stroke-width:0.5;" width="53" x="347.5" y="5"/><text fill="#FFFFFF" font-family="NanumGothic" font-size="14" lengthAdjust="spacing" textLength="39" x="354.5" y="24.88">CSMS</text><rect fill="#FFFFFF" height="297.55" style="stroke:#181818;stroke-width:1.0;" width="10" x="85" y="46.1"/><rect fill="#FFFFFF" height="28.95" style="stroke:#181818;stroke-width:1.0;" width="10" x="369" y="299.7"/><path d="M49,51.1 L49,75.1 L414,75.1 L414,61.1 L404,51.1 L49,51.1 " fill="#7D5393" style="stroke:#000000;stroke-width:0.5;"/><path d="M404,51.1 L404,61.1 L414,61.1 L404,51.1 " fill="#7D5393" style="stroke:#000000;stroke-width:0.5;"/><text fill="#FFFFFF" font-family="NanumGothic" font-size="13" lengthAdjust="spacing" textLength="153" x="150.75" y="68.06">A transaction is ongoing.</text><path d="M49,86.05 L49,110.05 L414,110.05 L414,96.05 L404,86.05 L49,86.05 " fill="#7D5393" style="stroke:#000000;stroke-width:0.5;"/><path d="M404,86.05 L404,96.05 L414,96.05 L404,86.05 " fill="#7D5393" style="stroke:#000000;stroke-width:0.5;"/><text fill="#FFFFFF" font-family="NanumGothic" font-size="13" lengthAdjust="spacing" textLength="101" x="176.75" y="103.01">Connection loss.</text><path d="M10,123 L76,123 L76,129.95 L66,139.95 L10,139.95 L10,123 " fill="#EEEEEE" style="stroke:#000000;stroke-width:1.5;"/><rect fill="none" height="89.85" style="stroke:#000000;stroke-width:1.5;" width="374" x="10" y="123"/><text fill="#000000" font-family="NanumGothic" font-size="13" font-weight="bold" lengthAdjust="spacing" textLength="21" x="25" y="135.96">opt</text><path d="M20,146.95 L92,146.95 L92,153.9 L82,163.9 L20,163.9 L20,146.95 " fill="#EEEEEE" style="stroke:#000000;stroke-width:1.5;"/><rect fill="none" height="58.9" style="stroke:#000000;stroke-width:1.5;" width="354" x="20" y="146.95"/><text fill="#000000" font-family="NanumGothic" font-size="13" font-weight="bold" lengthAdjust="spacing" textLength="27" x="35" y="159.91">loop</text><text fill="#000000" font-family="NanumGothic" font-size="11" font-weight="bold" lengthAdjust="spacing" textLength="142" x="107" y="159.07">[while transaction running]</text><line style="stroke:#181818;stroke-width:1.0;" x1="95" x2="137" y1="184.85" y2="184.85"/><line style="stroke:#181818;stroke-width:1.0;" x1="137" x2="137" y1="184.85" y2="197.85"/><line style="stroke:#181818;stroke-width:1.0;" x1="96" x2="137" y1="197.85" y2="197.85"/><polygon fill="#181818" points="106,193.85,96,197.85,106,201.85,102,197.85" style="stroke:#181818;stroke-width:1.0;"/><text fill="#000000" font-family="NanumGothic" font-size="13" lengthAdjust="spacing" textLength="260" x="102" y="179.86">store TransactionEventRequest() messages</text><path d="M49,224.85 L49,248.85 L414,248.85 L414,234.85 L404,224.85 L49,224.85 " fill="#7D5393" style="stroke:#000000;stroke-width:0.5;"/><path d="M404,224.85 L404,234.85 L414,234.85 L404,224.85 " fill="#7D5393" style="stroke:#000000;stroke-width:0.5;"/><text fill="#FFFFFF" font-family="NanumGothic" font-size="13" lengthAdjust="spacing" textLength="129" x="162.75" y="241.81">Connection restored.</text><path d="M20,261.8 L92,261.8 L92,268.75 L82,278.75 L20,278.75 L20,261.8 " fill="#EEEEEE" style="stroke:#000000;stroke-width:1.5;"/><rect fill="none" height="74.85" style="stroke:#000000;stroke-width:1.5;" width="390.5" x="20" y="261.8"/><text fill="#000000" font-family="NanumGothic" font-size="13" font-weight="bold" lengthAdjust="spacing" textLength="27" x="35" y="274.76">loop</text><text fill="#000000" font-family="NanumGothic" font-size="11" font-weight="bold" lengthAdjust="spacing" textLength="268" x="107" y="273.92">[for all stored TransactionEventRequest() messages]</text><polygon fill="#181818" points="357,295.7,367,299.7,357,303.7,361,299.7" style="stroke:#181818;stroke-width:1.0;"/><line style="stroke:#181818;stroke-width:1.0;" x1="95" x2="363" y1="299.7" y2="299.7"/><text fill="#000000" font-family="NanumGothic" font-size="13" lengthAdjust="spacing" textLength="243" x="102" y="294.71">TransactionEventRequest(offline = true)</text><polygon fill="#181818" points="106,324.65,96,328.65,106,332.65,102,328.65" style="stroke:#181818;stroke-width:1.0;"/><line style="stroke:#181818;stroke-width:1.0;stroke-dasharray:2.0,2.0;" x1="100" x2="373" y1="328.65" y2="328.65"/><text fill="#000000" font-family="NanumGothic" font-size="13" lengthAdjust="spacing" textLength="171" x="112" y="323.66">TransactionEventResponse()</text><ellipse cx="412" cy="363.85" fill="none" rx="4" ry="4" style="stroke:#181818;stroke-width:1.5;"/><polygon fill="#181818" points="395,360.6,405,364.6,395,368.6,399,364.6" style="stroke:#181818;stroke-width:1.0;"/><line style="stroke:#181818;stroke-width:1.0;" x1="90" x2="401" y1="364.6" y2="364.6"/><text fill="#000000" font-family="NanumGothic" font-size="13" lengthAdjust="spacing" textLength="193" x="97" y="359.61">Resume regular communication</text><!--SRC=[bPB1JiCm44Jl_egbfrQY_O188A6A8nV2bOELR59Bpgxnsa7yFPi4r3GfKZabckoy7OzpvwZokKQGzENn47BdZGas9bUvO2d1vdYoiNNKGfbiSamRi0A_ue-sS9GlvJIbByROAhdU9boPY5Na7kFoo_ta17Y252t9G6029y3KiiuT358DWz_SG3ao4Ku8po9pCuUa0vuvmEV9URpO5pEHudG0bcpOFowbGYlaYF1s9ZptIEaLFp9AskwWGn7ReYXG4mmf_fa-uhYYdfzWpDvm1ElzbA2-BSAr4-d6uaytDurtXF2W9MNSAU9yi-D5m_Y4_RLkrb09J8BRWLFZ9MbiPYukVXoppixlK2WpTwWjjTdR21LtNIPNJPvl]--></g></svg>