<?xml version="1.0" encoding="us-ascii" standalone="no"?><svg xmlns="http://www.w3.org/2000/svg" xmlns:xlink="http://www.w3.org/1999/xlink" contentStyleType="text/css" height="1011px" preserveAspectRatio="none" style="width:949px;height:1011px;background:#FFFFFF;" version="1.1" viewBox="0 0 949 1011" width="949px" zoomAndPan="magnify"><defs/><g><rect fill="#FFFFFF" height="28.95" style="stroke:#181818;stroke-width:1.0;" width="10" x="203.5" y="187.9"/><rect fill="#FFFFFF" height="28.95" style="stroke:#181818;stroke-width:1.0;" width="10" x="203.5" y="275.4"/><rect fill="#FFFFFF" height="28.95" style="stroke:#181818;stroke-width:1.0;" width="10" x="203.5" y="452.1"/><rect fill="#FFFFFF" height="28.95" style="stroke:#181818;stroke-width:1.0;" width="10" x="203.5" y="539.6"/><rect fill="#FFFFFF" height="28.95" style="stroke:#181818;stroke-width:1.0;" width="10" x="203.5" y="633.45"/><rect fill="#FFFFFF" height="28.95" style="stroke:#181818;stroke-width:1.0;" width="10" x="203.5" y="730.25"/><rect fill="#FFFFFF" height="28.95" style="stroke:#181818;stroke-width:1.0;" width="10" x="203.5" y="817.75"/><rect fill="#FFFFFF" height="28.95" style="stroke:#181818;stroke-width:1.0;" width="10" x="203.5" y="950.5"/><rect fill="#FFFFFF" height="28.95" style="stroke:#181818;stroke-width:1.0;" width="10" x="900.5" y="187.9"/><rect fill="#FFFFFF" height="28.95" style="stroke:#181818;stroke-width:1.0;" width="10" x="900.5" y="275.4"/><rect fill="#FFFFFF" height="28.95" style="stroke:#181818;stroke-width:1.0;" width="10" x="900.5" y="452.1"/><rect fill="#FFFFFF" height="28.95" style="stroke:#181818;stroke-width:1.0;" width="10" x="900.5" y="539.6"/><rect fill="#FFFFFF" height="28.95" style="stroke:#181818;stroke-width:1.0;" width="10" x="900.5" y="633.45"/><rect fill="#FFFFFF" height="28.95" style="stroke:#181818;stroke-width:1.0;" width="10" x="900.5" y="730.25"/><rect fill="#FFFFFF" height="28.95" style="stroke:#181818;stroke-width:1.0;" width="10" x="900.5" y="817.75"/><rect fill="#FFFFFF" height="28.95" style="stroke:#181818;stroke-width:1.0;" width="10" x="900.5" y="950.5"/><rect fill="none" height="177.3" style="stroke:#000000;stroke-width:1.5;" width="803.5" x="138.5" y="135.05"/><rect fill="none" height="58.9" style="stroke:#000000;stroke-width:1.5;" width="462" x="138.5" y="326.35"/><rect fill="none" height="177.3" style="stroke:#000000;stroke-width:1.5;" width="803.5" x="138.5" y="399.25"/><rect fill="none" height="177.3" style="stroke:#000000;stroke-width:1.5;" width="803.5" x="138.5" y="677.4"/><rect fill="none" height="89.8" style="stroke:#000000;stroke-width:1.5;" width="803.5" x="138.5" y="897.65"/><line style="stroke:#181818;stroke-width:0.5;stroke-dasharray:5.0,5.0;" x1="37" x2="37" y1="83.1" y2="1004.45"/><line style="stroke:#181818;stroke-width:0.5;stroke-dasharray:5.0,5.0;" x1="208.5" x2="208.5" y1="83.1" y2="1004.45"/><line style="stroke:#181818;stroke-width:0.5;stroke-dasharray:5.0,5.0;" x1="905" x2="905" y1="83.1" y2="1004.45"/><text fill="#000000" font-family="NanumGothic" font-size="14" lengthAdjust="spacing" textLength="59" x="5" y="79.88">EV Driver</text><ellipse cx="37.5" cy="14.5" fill="#E2E2F0" rx="8" ry="8" style="stroke:#7D5393;stroke-width:1.5;"/><path d="M37.5,22.5 L37.5,49.5 M24.5,30.5 L50.5,30.5 M37.5,49.5 L24.5,64.5 M37.5,49.5 L50.5,64.5 " fill="none" style="stroke:#7D5393;stroke-width:1.5;"/><rect fill="#7D5393" height="30.1" rx="2.5" ry="2.5" style="stroke:#181818;stroke-width:0.5;" width="120" x="148.5" y="52"/><text fill="#FFFFFF" font-family="NanumGothic" font-size="14" lengthAdjust="spacing" textLength="106" x="155.5" y="71.88">Charging Station</text><rect fill="#7D5393" height="30.1" rx="2.5" ry="2.5" style="stroke:#181818;stroke-width:0.5;" width="53" x="879" y="52"/><text fill="#FFFFFF" font-family="NanumGothic" font-size="14" lengthAdjust="spacing" textLength="39" x="886" y="71.88">CSMS</text><rect fill="#FFFFFF" height="28.95" style="stroke:#181818;stroke-width:1.0;" width="10" x="203.5" y="187.9"/><rect fill="#FFFFFF" height="28.95" style="stroke:#181818;stroke-width:1.0;" width="10" x="203.5" y="275.4"/><rect fill="#FFFFFF" height="28.95" style="stroke:#181818;stroke-width:1.0;" width="10" x="203.5" y="452.1"/><rect fill="#FFFFFF" height="28.95" style="stroke:#181818;stroke-width:1.0;" width="10" x="203.5" y="539.6"/><rect fill="#FFFFFF" height="28.95" style="stroke:#181818;stroke-width:1.0;" width="10" x="203.5" y="633.45"/><rect fill="#FFFFFF" height="28.95" style="stroke:#181818;stroke-width:1.0;" width="10" x="203.5" y="730.25"/><rect fill="#FFFFFF" height="28.95" style="stroke:#181818;stroke-width:1.0;" width="10" x="203.5" y="817.75"/><rect fill="#FFFFFF" height="28.95" style="stroke:#181818;stroke-width:1.0;" width="10" x="203.5" y="950.5"/><rect fill="#FFFFFF" height="28.95" style="stroke:#181818;stroke-width:1.0;" width="10" x="900.5" y="187.9"/><rect fill="#FFFFFF" height="28.95" style="stroke:#181818;stroke-width:1.0;" width="10" x="900.5" y="275.4"/><rect fill="#FFFFFF" height="28.95" style="stroke:#181818;stroke-width:1.0;" width="10" x="900.5" y="452.1"/><rect fill="#FFFFFF" height="28.95" style="stroke:#181818;stroke-width:1.0;" width="10" x="900.5" y="539.6"/><rect fill="#FFFFFF" height="28.95" style="stroke:#181818;stroke-width:1.0;" width="10" x="900.5" y="633.45"/><rect fill="#FFFFFF" height="28.95" style="stroke:#181818;stroke-width:1.0;" width="10" x="900.5" y="730.25"/><rect fill="#FFFFFF" height="28.95" style="stroke:#181818;stroke-width:1.0;" width="10" x="900.5" y="817.75"/><rect fill="#FFFFFF" height="28.95" style="stroke:#181818;stroke-width:1.0;" width="10" x="900.5" y="950.5"/><path d="M10,98.1 L10,122.1 L932,122.1 L932,108.1 L922,98.1 L10,98.1 " fill="#7D5393" style="stroke:#000000;stroke-width:0.5;"/><path d="M922,98.1 L922,108.1 L932,108.1 L922,98.1 " fill="#7D5393" style="stroke:#000000;stroke-width:0.5;"/><text fill="#FFFFFF" font-family="NanumGothic" font-size="13" lengthAdjust="spacing" textLength="181" x="376" y="115.06">User authorization successful.</text><path d="M138.5,135.05 L198.5,135.05 L198.5,142 L188.5,152 L138.5,152 L138.5,135.05 " fill="#EEEEEE" style="stroke:#000000;stroke-width:1.5;"/><rect fill="none" height="177.3" style="stroke:#000000;stroke-width:1.5;" width="803.5" x="138.5" y="135.05"/><text fill="#000000" font-family="NanumGothic" font-size="13" font-weight="bold" lengthAdjust="spacing" textLength="15" x="153.5" y="148.01">alt</text><text fill="#000000" font-family="NanumGothic" font-size="11" font-weight="bold" lengthAdjust="spacing" textLength="330" x="213.5" y="147.17">[TxStopPoint = Authorized OR TxStopPoint = PowerPathClosed]</text><polygon fill="#181818" points="888.5,183.9,898.5,187.9,888.5,191.9,892.5,187.9" style="stroke:#181818;stroke-width:1.0;"/><line style="stroke:#181818;stroke-width:1.0;" x1="213.5" x2="894.5" y1="187.9" y2="187.9"/><text fill="#000000" font-family="NanumGothic" font-size="13" lengthAdjust="spacing" textLength="600" x="220.5" y="167.96">TransactionEventRequest(eventType = Ended, transactionId = AB1234, seqNo = N + 1, timestamp,</text><text fill="#000000" font-family="NanumGothic" font-size="13" lengthAdjust="spacing" textLength="555" x="220.5" y="182.91">triggerReason = StopAuthorized, stoppedReason = Local, idToken.id = 1234, meterValues)</text><polygon fill="#181818" points="219.5,212.85,209.5,216.85,219.5,220.85,215.5,216.85" style="stroke:#181818;stroke-width:1.0;"/><line style="stroke:#181818;stroke-width:1.0;stroke-dasharray:2.0,2.0;" x1="213.5" x2="904.5" y1="216.85" y2="216.85"/><text fill="#000000" font-family="NanumGothic" font-size="13" lengthAdjust="spacing" textLength="284" x="225.5" y="211.86">TransactionEventResponse(idTokenInfo.status)</text><line style="stroke:#000000;stroke-width:1.0;stroke-dasharray:2.0,2.0;" x1="138.5" x2="942" y1="225.85" y2="225.85"/><text fill="#000000" font-family="NanumGothic" font-size="11" font-weight="bold" lengthAdjust="spacing" textLength="539" x="143.5" y="235.97">[TxStopPoint = EVConnected OR TxStopPoint = ParkingBayOccupancy OR TxStopPoint = EnergyTransfer]</text><polygon fill="#181818" points="888.5,271.4,898.5,275.4,888.5,279.4,892.5,275.4" style="stroke:#181818;stroke-width:1.0;"/><line style="stroke:#181818;stroke-width:1.0;" x1="213.5" x2="894.5" y1="275.4" y2="275.4"/><text fill="#000000" font-family="NanumGothic" font-size="13" lengthAdjust="spacing" textLength="614" x="220.5" y="255.46">TransactionEventRequest(eventType = Updated, transactionId = AB1234, seqNo = N + 1, timestamp,</text><text fill="#000000" font-family="NanumGothic" font-size="13" lengthAdjust="spacing" textLength="322" x="220.5" y="270.41">triggerReason = StopAuthorized, idToken.id = 1234)</text><polygon fill="#181818" points="219.5,300.35,209.5,304.35,219.5,308.35,215.5,304.35" style="stroke:#181818;stroke-width:1.0;"/><line style="stroke:#181818;stroke-width:1.0;stroke-dasharray:2.0,2.0;" x1="213.5" x2="904.5" y1="304.35" y2="304.35"/><text fill="#000000" font-family="NanumGothic" font-size="13" lengthAdjust="spacing" textLength="284" x="225.5" y="299.36">TransactionEventResponse(idTokenInfo.status)</text><path d="M138.5,326.35 L204.5,326.35 L204.5,333.3 L194.5,343.3 L138.5,343.3 L138.5,326.35 " fill="#EEEEEE" style="stroke:#000000;stroke-width:1.5;"/><rect fill="none" height="58.9" style="stroke:#000000;stroke-width:1.5;" width="462" x="138.5" y="326.35"/><text fill="#000000" font-family="NanumGothic" font-size="13" font-weight="bold" lengthAdjust="spacing" textLength="21" x="153.5" y="339.31">opt</text><text fill="#000000" font-family="NanumGothic" font-size="11" font-weight="bold" lengthAdjust="spacing" textLength="376" x="219.5" y="338.47">[if cable not permanently attached &amp; (same identification or authorized)]</text><line style="stroke:#181818;stroke-width:1.0;" x1="208.5" x2="250.5" y1="364.25" y2="364.25"/><line style="stroke:#181818;stroke-width:1.0;" x1="250.5" x2="250.5" y1="364.25" y2="377.25"/><line style="stroke:#181818;stroke-width:1.0;" x1="209.5" x2="250.5" y1="377.25" y2="377.25"/><polygon fill="#181818" points="219.5,373.25,209.5,377.25,219.5,381.25,215.5,377.25" style="stroke:#181818;stroke-width:1.0;"/><text fill="#000000" font-family="NanumGothic" font-size="13" lengthAdjust="spacing" textLength="105" x="215.5" y="359.26">unlock connector</text><path d="M138.5,399.25 L198.5,399.25 L198.5,406.2 L188.5,416.2 L138.5,416.2 L138.5,399.25 " fill="#EEEEEE" style="stroke:#000000;stroke-width:1.5;"/><rect fill="none" height="177.3" style="stroke:#000000;stroke-width:1.5;" width="803.5" x="138.5" y="399.25"/><text fill="#000000" font-family="NanumGothic" font-size="13" font-weight="bold" lengthAdjust="spacing" textLength="15" x="153.5" y="412.21">alt</text><text fill="#000000" font-family="NanumGothic" font-size="11" font-weight="bold" lengthAdjust="spacing" textLength="161" x="213.5" y="411.37">[TxStopPoint = EnergyTransfer]</text><polygon fill="#181818" points="888.5,448.1,898.5,452.1,888.5,456.1,892.5,452.1" style="stroke:#181818;stroke-width:1.0;"/><line style="stroke:#181818;stroke-width:1.0;" x1="213.5" x2="894.5" y1="452.1" y2="452.1"/><text fill="#000000" font-family="NanumGothic" font-size="13" lengthAdjust="spacing" textLength="600" x="220.5" y="432.16">TransactionEventRequest(eventType = Ended, transactionId = AB1234, seqNo = N + 2, timestamp,</text><text fill="#000000" font-family="NanumGothic" font-size="13" lengthAdjust="spacing" textLength="673" x="220.5" y="447.11">triggerReason = ChargingStateChanged, chargingState = EVConnected, stoppedReason = Local, meterValues)</text><polygon fill="#181818" points="219.5,477.05,209.5,481.05,219.5,485.05,215.5,481.05" style="stroke:#181818;stroke-width:1.0;"/><line style="stroke:#181818;stroke-width:1.0;stroke-dasharray:2.0,2.0;" x1="213.5" x2="904.5" y1="481.05" y2="481.05"/><text fill="#000000" font-family="NanumGothic" font-size="13" lengthAdjust="spacing" textLength="171" x="225.5" y="476.06">TransactionEventResponse()</text><line style="stroke:#000000;stroke-width:1.0;stroke-dasharray:2.0,2.0;" x1="138.5" x2="942" y1="490.05" y2="490.05"/><text fill="#000000" font-family="NanumGothic" font-size="11" font-weight="bold" lengthAdjust="spacing" textLength="364" x="143.5" y="500.17">[TxStopPoint = EVConnected OR TxStopPoint = ParkingBayOccupancy]</text><polygon fill="#181818" points="888.5,535.6,898.5,539.6,888.5,543.6,892.5,539.6" style="stroke:#181818;stroke-width:1.0;"/><line style="stroke:#181818;stroke-width:1.0;" x1="213.5" x2="894.5" y1="539.6" y2="539.6"/><text fill="#000000" font-family="NanumGothic" font-size="13" lengthAdjust="spacing" textLength="614" x="220.5" y="519.66">TransactionEventRequest(eventType = Updated, transactionId = AB1234, seqNo = N + 1, timestamp,</text><text fill="#000000" font-family="NanumGothic" font-size="13" lengthAdjust="spacing" textLength="440" x="220.5" y="534.61">triggerReason = ChargingStateChanged, chargingState = EVConnected)</text><polygon fill="#181818" points="219.5,564.55,209.5,568.55,219.5,572.55,215.5,568.55" style="stroke:#181818;stroke-width:1.0;"/><line style="stroke:#181818;stroke-width:1.0;stroke-dasharray:2.0,2.0;" x1="213.5" x2="904.5" y1="568.55" y2="568.55"/><text fill="#000000" font-family="NanumGothic" font-size="13" lengthAdjust="spacing" textLength="171" x="225.5" y="563.56">TransactionEventResponse()</text><polygon fill="#181818" points="196.5,600.5,206.5,604.5,196.5,608.5,200.5,604.5" style="stroke:#181818;stroke-width:1.0;"/><line style="stroke:#181818;stroke-width:1.0;" x1="37.5" x2="202.5" y1="604.5" y2="604.5"/><text fill="#000000" font-family="NanumGothic" font-size="13" lengthAdjust="spacing" textLength="79" x="44.5" y="599.51">Unplug cable</text><polygon fill="#181818" points="888.5,629.45,898.5,633.45,888.5,637.45,892.5,633.45" style="stroke:#181818;stroke-width:1.0;"/><line style="stroke:#181818;stroke-width:1.0;" x1="213.5" x2="894.5" y1="633.45" y2="633.45"/><text fill="#000000" font-family="NanumGothic" font-size="13" lengthAdjust="spacing" textLength="220" x="220.5" y="628.46">StatusNotificationRequest(Available)</text><polygon fill="#181818" points="219.5,658.4,209.5,662.4,219.5,666.4,215.5,662.4" style="stroke:#181818;stroke-width:1.0;"/><line style="stroke:#181818;stroke-width:1.0;stroke-dasharray:2.0,2.0;" x1="213.5" x2="904.5" y1="662.4" y2="662.4"/><text fill="#000000" font-family="NanumGothic" font-size="13" lengthAdjust="spacing" textLength="176" x="225.5" y="657.41">StatusNotificationResponse()</text><path d="M138.5,677.4 L198.5,677.4 L198.5,684.35 L188.5,694.35 L138.5,694.35 L138.5,677.4 " fill="#EEEEEE" style="stroke:#000000;stroke-width:1.5;"/><rect fill="none" height="177.3" style="stroke:#000000;stroke-width:1.5;" width="803.5" x="138.5" y="677.4"/><text fill="#000000" font-family="NanumGothic" font-size="13" font-weight="bold" lengthAdjust="spacing" textLength="15" x="153.5" y="690.36">alt</text><text fill="#000000" font-family="NanumGothic" font-size="11" font-weight="bold" lengthAdjust="spacing" textLength="153" x="213.5" y="689.52">[TxStopPoint = EVConnected]</text><polygon fill="#181818" points="888.5,726.25,898.5,730.25,888.5,734.25,892.5,730.25" style="stroke:#181818;stroke-width:1.0;"/><line style="stroke:#181818;stroke-width:1.0;" x1="213.5" x2="894.5" y1="730.25" y2="730.25"/><text fill="#000000" font-family="NanumGothic" font-size="13" lengthAdjust="spacing" textLength="600" x="220.5" y="710.31">TransactionEventRequest(eventType = Ended, transactionId = AB1234, seqNo = N + 3, timestamp,</text><text fill="#000000" font-family="NanumGothic" font-size="13" lengthAdjust="spacing" textLength="394" x="220.5" y="725.26">triggerReason = EVCommunicationLost, stoppedReason = Local)</text><polygon fill="#181818" points="219.5,755.2,209.5,759.2,219.5,763.2,215.5,759.2" style="stroke:#181818;stroke-width:1.0;"/><line style="stroke:#181818;stroke-width:1.0;stroke-dasharray:2.0,2.0;" x1="213.5" x2="904.5" y1="759.2" y2="759.2"/><text fill="#000000" font-family="NanumGothic" font-size="13" lengthAdjust="spacing" textLength="171" x="225.5" y="754.21">TransactionEventResponse()</text><line style="stroke:#000000;stroke-width:1.0;stroke-dasharray:2.0,2.0;" x1="138.5" x2="942" y1="768.2" y2="768.2"/><text fill="#000000" font-family="NanumGothic" font-size="11" font-weight="bold" lengthAdjust="spacing" textLength="197" x="143.5" y="778.32">[TxStopPoint = ParkingBayOccupancy]</text><polygon fill="#181818" points="888.5,813.75,898.5,817.75,888.5,821.75,892.5,817.75" style="stroke:#181818;stroke-width:1.0;"/><line style="stroke:#181818;stroke-width:1.0;" x1="213.5" x2="894.5" y1="817.75" y2="817.75"/><text fill="#000000" font-family="NanumGothic" font-size="13" lengthAdjust="spacing" textLength="614" x="220.5" y="797.81">TransactionEventRequest(eventType = Updated, transactionId = AB1234, seqNo = N + 3, timestamp,</text><text fill="#000000" font-family="NanumGothic" font-size="13" lengthAdjust="spacing" textLength="245" x="220.5" y="812.76">triggerReason = EVCommunicationLost)</text><polygon fill="#181818" points="219.5,842.7,209.5,846.7,219.5,850.7,215.5,846.7" style="stroke:#181818;stroke-width:1.0;"/><line style="stroke:#181818;stroke-width:1.0;stroke-dasharray:2.0,2.0;" x1="213.5" x2="904.5" y1="846.7" y2="846.7"/><text fill="#000000" font-family="NanumGothic" font-size="13" lengthAdjust="spacing" textLength="171" x="225.5" y="841.71">TransactionEventResponse()</text><polygon fill="#181818" points="196.5,878.65,206.5,882.65,196.5,886.65,200.5,882.65" style="stroke:#181818;stroke-width:1.0;"/><line style="stroke:#181818;stroke-width:1.0;" x1="37.5" x2="202.5" y1="882.65" y2="882.65"/><text fill="#000000" font-family="NanumGothic" font-size="13" lengthAdjust="spacing" textLength="147" x="44.5" y="877.66">Drive out of parking bay</text><path d="M138.5,897.65 L198.5,897.65 L198.5,904.6 L188.5,914.6 L138.5,914.6 L138.5,897.65 " fill="#EEEEEE" style="stroke:#000000;stroke-width:1.5;"/><rect fill="none" height="89.8" style="stroke:#000000;stroke-width:1.5;" width="803.5" x="138.5" y="897.65"/><text fill="#000000" font-family="NanumGothic" font-size="13" font-weight="bold" lengthAdjust="spacing" textLength="15" x="153.5" y="910.61">alt</text><text fill="#000000" font-family="NanumGothic" font-size="11" font-weight="bold" lengthAdjust="spacing" textLength="197" x="213.5" y="909.77">[TxStopPoint = ParkingBayOccupancy]</text><polygon fill="#181818" points="888.5,946.5,898.5,950.5,888.5,954.5,892.5,950.5" style="stroke:#181818;stroke-width:1.0;"/><line style="stroke:#181818;stroke-width:1.0;" x1="213.5" x2="894.5" y1="950.5" y2="950.5"/><text fill="#000000" font-family="NanumGothic" font-size="13" lengthAdjust="spacing" textLength="600" x="220.5" y="930.56">TransactionEventRequest(eventType = Ended, transactionId = AB1234, seqNo = N + 3, timestamp,</text><text fill="#000000" font-family="NanumGothic" font-size="13" lengthAdjust="spacing" textLength="328" x="220.5" y="945.51">triggerReason = EVDeparted, stoppedReason = Local)</text><polygon fill="#181818" points="219.5,975.45,209.5,979.45,219.5,983.45,215.5,979.45" style="stroke:#181818;stroke-width:1.0;"/><line style="stroke:#181818;stroke-width:1.0;stroke-dasharray:2.0,2.0;" x1="213.5" x2="904.5" y1="979.45" y2="979.45"/><text fill="#000000" font-family="NanumGothic" font-size="13" lengthAdjust="spacing" textLength="171" x="225.5" y="974.46">TransactionEventResponse()</text><!--SRC=[rLTBJ-Cm4BxdLynoMBNQKWdO4n8hyUW1YGL47oSknfwcLXtRs4vtixz-nqaVD6r089wvDFPuPhxnDzz4_IOrLxb0yA5GsBLvffA4yM0SxFH6SERa3DqEC0-zKRL8B7D1SccP3h1pEc4kbJg5Vc116bqUNMpEzseU_T_zwXIz98as0S5Gt6M2JcK167hQPNcO62V_bP70vvoZz-DSTHFK0g8tuLK11d_xmTXh8od74HpFlL30rKtDTct-eBjcONAgZ4T1YMfuOVTN2U4GuZDmJ7kw4JBqPgZ33Txdw4CBus9GMAIGFIrGT22iZfwBYE9aR__WPmSytbyQMb_23zYZOpAZ02opdHZ_LWSdqnJT3J9FoOyWWbqLGEwqjYYMzWl3cUg050CpHTsLCLMLACE0RiGK0MnJNH7AZD7zrWbvQ2fPWF8NTcFbwsSFjro0jqPxRCq1dEknwL8z8I-J2boFlRvJ0uBAOusUtkZKQ8qyREMEkIcvdx3YYlES6eeNcuTw6brQbB37rA-lmE_G2aB_TWnlKDdUeEWHDZ-EFIsInDW0SWoStIcCUWIBBcEQKga2M0YCJuZ9xz3oB4Egb0noB7d5X5a974MxWQfQIRbMXa-1LrrYN0LZSmQyVXiyG-RxJpV1GpX82vt6uFpXxheS6YT1e-pVf74-GkIVKSJFvkyTHlBB9BpuycvJ6morLNbQwJj96bdeboFaqgp4lU3WUCQaYjxjP1rOSrysLxujpRBsUkMFrBrjNgoOUkTXSV1qiqLmMPRhUT4NneU6SV159i1d4FdBxlrhohWqWSa3c37OwlBXZXNRbF16tBos8ium_h5e_2v-IY4GJ_y1]--></g></svg>