<?xml version="1.0" encoding="us-ascii" standalone="no"?><svg xmlns="http://www.w3.org/2000/svg" xmlns:xlink="http://www.w3.org/1999/xlink" contentStyleType="text/css" height="439px" preserveAspectRatio="none" style="width:602px;height:439px;background:#FFFFFF;" version="1.1" viewBox="0 0 602 439" width="602px" zoomAndPan="magnify"><defs/><g><rect fill="#FFFFFF" height="255.2" style="stroke:#181818;stroke-width:1.0;" width="10" x="79" y="151.9"/><rect fill="#FFFFFF" height="28.95" style="stroke:#181818;stroke-width:1.0;" width="10" x="550" y="151.9"/><rect fill="#FFFFFF" height="116.45" style="stroke:#181818;stroke-width:1.0;" width="10" x="550" y="290.65"/><rect fill="none" height="177.3" style="stroke:#000000;stroke-width:1.5;" width="577.5" x="14" y="237.8"/><line style="stroke:#181818;stroke-width:0.5;stroke-dasharray:5.0,5.0;" x1="84" x2="84" y1="36.1" y2="432.1"/><line style="stroke:#181818;stroke-width:0.5;stroke-dasharray:5.0,5.0;" x1="554.5" x2="554.5" y1="36.1" y2="432.1"/><rect fill="#7D5393" height="30.1" rx="2.5" ry="2.5" style="stroke:#181818;stroke-width:0.5;" width="120" x="24" y="5"/><text fill="#FFFFFF" font-family="NanumGothic" font-size="14" lengthAdjust="spacing" textLength="106" x="31" y="24.88">Charging Station</text><rect fill="#7D5393" height="30.1" rx="2.5" ry="2.5" style="stroke:#181818;stroke-width:0.5;" width="53" x="528.5" y="5"/><text fill="#FFFFFF" font-family="NanumGothic" font-size="14" lengthAdjust="spacing" textLength="39" x="535.5" y="24.88">CSMS</text><rect fill="#FFFFFF" height="255.2" style="stroke:#181818;stroke-width:1.0;" width="10" x="79" y="151.9"/><rect fill="#FFFFFF" height="28.95" style="stroke:#181818;stroke-width:1.0;" width="10" x="550" y="151.9"/><rect fill="#FFFFFF" height="116.45" style="stroke:#181818;stroke-width:1.0;" width="10" x="550" y="290.65"/><path d="M5,51.1 L5,90.1 L164,90.1 L164,61.1 L154,51.1 L5,51.1 " fill="#7D5393" style="stroke:#000000;stroke-width:0.5;"/><path d="M154,51.1 L154,61.1 L164,61.1 L154,51.1 " fill="#7D5393" style="stroke:#000000;stroke-width:0.5;"/><text fill="#FFFFFF" font-family="NanumGothic" font-size="13" lengthAdjust="spacing" textLength="74" x="11" y="68.06">TxStopPoint</text><text fill="#FFFFFF" font-family="NanumGothic" font-size="13" lengthAdjust="spacing" textLength="138" x="11" y="83.01">contains "Authorized".</text><path d="M43,101 L43,125 L595,125 L595,111 L585,101 L43,101 " fill="#7D5393" style="stroke:#000000;stroke-width:0.5;"/><path d="M585,101 L585,111 L595,111 L585,101 " fill="#7D5393" style="stroke:#000000;stroke-width:0.5;"/><text fill="#FFFFFF" font-family="NanumGothic" font-size="13" lengthAdjust="spacing" textLength="285" x="172.25" y="117.96">User locally authorized by the Charging Station</text><polygon fill="#181818" points="538,147.9,548,151.9,538,155.9,542,151.9" style="stroke:#181818;stroke-width:1.0;"/><line style="stroke:#181818;stroke-width:1.0;" x1="89" x2="544" y1="151.9" y2="151.9"/><text fill="#000000" font-family="NanumGothic" font-size="13" lengthAdjust="spacing" textLength="174" x="96" y="146.91">TransactionEventRequest(...)</text><polygon fill="#181818" points="100,176.85,90,180.85,100,184.85,96,180.85" style="stroke:#181818;stroke-width:1.0;"/><line style="stroke:#181818;stroke-width:1.0;stroke-dasharray:2.0,2.0;" x1="94" x2="554" y1="180.85" y2="180.85"/><text fill="#000000" font-family="NanumGothic" font-size="13" lengthAdjust="spacing" textLength="383" x="106" y="175.86">TransactionEventResponse(idTokenInfo.status != Accepted, ...)</text><line style="stroke:#181818;stroke-width:1.0;" x1="89" x2="131" y1="209.8" y2="209.8"/><line style="stroke:#181818;stroke-width:1.0;" x1="131" x2="131" y1="209.8" y2="222.8"/><line style="stroke:#181818;stroke-width:1.0;" x1="90" x2="131" y1="222.8" y2="222.8"/><polygon fill="#181818" points="100,218.8,90,222.8,100,226.8,96,222.8" style="stroke:#181818;stroke-width:1.0;"/><text fill="#000000" font-family="NanumGothic" font-size="13" lengthAdjust="spacing" textLength="106" x="96" y="204.81">stop energy offer</text><path d="M14,237.8 L74,237.8 L74,244.75 L64,254.75 L14,254.75 L14,237.8 " fill="#EEEEEE" style="stroke:#000000;stroke-width:1.5;"/><rect fill="none" height="177.3" style="stroke:#000000;stroke-width:1.5;" width="577.5" x="14" y="237.8"/><text fill="#000000" font-family="NanumGothic" font-size="13" font-weight="bold" lengthAdjust="spacing" textLength="15" x="29" y="250.76">alt</text><text fill="#000000" font-family="NanumGothic" font-size="11" font-weight="bold" lengthAdjust="spacing" textLength="149" x="89" y="249.92">[If StopTxOnInvalidId is true]</text><polygon fill="#181818" points="538,286.65,548,290.65,538,294.65,542,290.65" style="stroke:#181818;stroke-width:1.0;"/><line style="stroke:#181818;stroke-width:1.0;" x1="89" x2="544" y1="290.65" y2="290.65"/><text fill="#000000" font-family="NanumGothic" font-size="13" lengthAdjust="spacing" textLength="277" x="96" y="270.71">TransactionEventRequest(eventType = Ended,</text><text fill="#000000" font-family="NanumGothic" font-size="13" lengthAdjust="spacing" textLength="410" x="128" y="285.66">triggerReason = Deauthorized, stoppedReason = DeAuthorized, ...)</text><polygon fill="#181818" points="100,315.6,90,319.6,100,323.6,96,319.6" style="stroke:#181818;stroke-width:1.0;"/><line style="stroke:#181818;stroke-width:1.0;stroke-dasharray:2.0,2.0;" x1="94" x2="549" y1="319.6" y2="319.6"/><text fill="#000000" font-family="NanumGothic" font-size="13" lengthAdjust="spacing" textLength="183" x="106" y="314.61">TransactionEventResponse(...)</text><line style="stroke:#000000;stroke-width:1.0;stroke-dasharray:2.0,2.0;" x1="14" x2="591.5" y1="328.6" y2="328.6"/><text fill="#000000" font-family="NanumGothic" font-size="11" font-weight="bold" lengthAdjust="spacing" textLength="152" x="19" y="338.72">[If StopTxOnInvalidId is false]</text><polygon fill="#181818" points="538,374.15,548,378.15,538,382.15,542,378.15" style="stroke:#181818;stroke-width:1.0;"/><line style="stroke:#181818;stroke-width:1.0;" x1="89" x2="544" y1="378.15" y2="378.15"/><text fill="#000000" font-family="NanumGothic" font-size="13" lengthAdjust="spacing" textLength="291" x="96" y="358.21">TransactionEventRequest(eventType = Updated,</text><text fill="#000000" font-family="NanumGothic" font-size="13" lengthAdjust="spacing" textLength="269" x="128" y="373.16">triggerReason = ChargingStateChanged, ...)</text><polygon fill="#181818" points="95,403.1,85,407.1,95,411.1,91,407.1" style="stroke:#181818;stroke-width:1.0;"/><line style="stroke:#181818;stroke-width:1.0;stroke-dasharray:2.0,2.0;" x1="89" x2="554" y1="407.1" y2="407.1"/><text fill="#000000" font-family="NanumGothic" font-size="13" lengthAdjust="spacing" textLength="183" x="101" y="402.11">TransactionEventResponse(...)</text><!--SRC=[hLFBJiCm4BpxAuQUYbJo0KX5ge133mZKXXiN4szI2xCszgOYV3rEU9L0EG0-MDw7PpnZ-y1ovLf3ID8vAa9xxvGAEegjRD0ic9nkT6miDrYB5kjv0ftmbdpDZNQiBzOlNNcX57iX-2t5Bxk0yd4jFbnvovAZohDeomcJHIiR7-qJcKcXY0rwa1-WPYzSm7NAHUShxLm7_Ow2smwo8Op5x62F475qCc0UeuoQawxwvFcMM5Rqq5AIQL4KXwhFRxNG5sqVXS64ViPHZ_cvxplu53mdcbfJ-ZlY9TU-IBcxJJYOOr5L58JC30E_eJ7HDpB6b2bx3cAAJGTVrnILqawmhD7VHlbucKctsbcpDB094blArkurg1_xJA8-ABj0cEESJJxt3UDrIBHDGt55EcMuESxeuy9cmo43cPtgOgSwY0T6ue5V-3n0aKkqru1Qv-f_E70TZ9OVFTYbe1nmywxs3-g0yJlvd1cztVmfr3C0]--></g></svg>