<?xml version="1.0" encoding="us-ascii" standalone="no"?><svg xmlns="http://www.w3.org/2000/svg" xmlns:xlink="http://www.w3.org/1999/xlink" contentStyleType="text/css" height="475px" preserveAspectRatio="none" style="width:752px;height:475px;background:#FFFFFF;" version="1.1" viewBox="0 0 752 475" width="752px" zoomAndPan="magnify"><defs/><g><rect fill="#FFFFFF" height="110.8" style="stroke:#181818;stroke-width:1.0;" width="10" x="32" y="163.95"/><rect fill="#FFFFFF" height="110.8" style="stroke:#181818;stroke-width:1.0;" width="10" x="290" y="163.95"/><rect fill="none" height="45.9" style="stroke:#000000;stroke-width:1.5;" width="321.5" x="10" y="236.85"/><line style="stroke:#181818;stroke-width:0.5;stroke-dasharray:5.0,5.0;" x1="37" x2="37" y1="83.1" y2="468.5"/><line style="stroke:#181818;stroke-width:0.5;stroke-dasharray:5.0,5.0;" x1="294.5" x2="294.5" y1="83.1" y2="468.5"/><line style="stroke:#181818;stroke-width:0.5;stroke-dasharray:5.0,5.0;" x1="632" x2="632" y1="83.1" y2="468.5"/><text fill="#000000" font-family="NanumGothic" font-size="14" lengthAdjust="spacing" textLength="28" x="20" y="79.88">CSO</text><ellipse cx="37" cy="14.5" fill="#E2E2F0" rx="8" ry="8" style="stroke:#7D5393;stroke-width:1.5;"/><path d="M37,22.5 L37,49.5 M24,30.5 L50,30.5 M37,49.5 L24,64.5 M37,49.5 L50,64.5 " fill="none" style="stroke:#7D5393;stroke-width:1.5;"/><rect fill="#7D5393" height="30.1" rx="2.5" ry="2.5" style="stroke:#181818;stroke-width:0.5;" width="53" x="268.5" y="52"/><text fill="#FFFFFF" font-family="NanumGothic" font-size="14" lengthAdjust="spacing" textLength="39" x="275.5" y="71.88">CSMS</text><rect fill="#7D5393" height="30.1" rx="2.5" ry="2.5" style="stroke:#181818;stroke-width:0.5;" width="120" x="572" y="52"/><text fill="#FFFFFF" font-family="NanumGothic" font-size="14" lengthAdjust="spacing" textLength="106" x="579" y="71.88">Charging Station</text><rect fill="#FFFFFF" height="110.8" style="stroke:#181818;stroke-width:1.0;" width="10" x="32" y="163.95"/><rect fill="#FFFFFF" height="110.8" style="stroke:#181818;stroke-width:1.0;" width="10" x="290" y="163.95"/><path d="M565,98.1 L565,137.1 L698,137.1 L698,108.1 L688,98.1 L565,98.1 " fill="#7D5393" style="stroke:#000000;stroke-width:0.5;"/><path d="M688,98.1 L688,108.1 L698,108.1 L688,98.1 " fill="#7D5393" style="stroke:#000000;stroke-width:0.5;"/><text fill="#FFFFFF" font-family="NanumGothic" font-size="13" lengthAdjust="spacing" textLength="112" x="571" y="115.06">A transaction with</text><text fill="#FFFFFF" font-family="NanumGothic" font-size="13" lengthAdjust="spacing" textLength="112" x="571" y="130.01">id=123 is ongoing</text><polygon fill="#181818" points="278,159.95,288,163.95,278,167.95,282,163.95" style="stroke:#181818;stroke-width:1.0;"/><line style="stroke:#181818;stroke-width:1.0;" x1="42" x2="284" y1="163.95" y2="163.95"/><text fill="#000000" font-family="NanumGothic" font-size="13" lengthAdjust="spacing" textLength="234" x="49" y="158.96">Set new messages(transactionId=123)</text><polygon fill="#181818" points="620,188.9,630,192.9,620,196.9,624,192.9" style="stroke:#181818;stroke-width:1.0;"/><line style="stroke:#181818;stroke-width:1.0;" x1="300" x2="626" y1="192.9" y2="192.9"/><text fill="#000000" font-family="NanumGothic" font-size="13" lengthAdjust="spacing" textLength="308" x="307" y="187.91">SetDisplayMessagesRequest(transactionId=123,...)</text><polygon fill="#181818" points="311,217.85,301,221.85,311,225.85,307,221.85" style="stroke:#181818;stroke-width:1.0;"/><line style="stroke:#181818;stroke-width:1.0;stroke-dasharray:2.0,2.0;" x1="305" x2="631" y1="221.85" y2="221.85"/><text fill="#000000" font-family="NanumGothic" font-size="13" lengthAdjust="spacing" textLength="245" x="317" y="216.86">SetDisplayMessagesResponse(Accepted)</text><path d="M10,236.85 L76,236.85 L76,243.8 L66,253.8 L10,253.8 L10,236.85 " fill="#EEEEEE" style="stroke:#000000;stroke-width:1.5;"/><rect fill="none" height="45.9" style="stroke:#000000;stroke-width:1.5;" width="321.5" x="10" y="236.85"/><text fill="#000000" font-family="NanumGothic" font-size="13" font-weight="bold" lengthAdjust="spacing" textLength="21" x="25" y="249.81">opt</text><polygon fill="#181818" points="48,270.75,38,274.75,48,278.75,44,274.75" style="stroke:#181818;stroke-width:1.0;"/><line style="stroke:#181818;stroke-width:1.0;stroke-dasharray:2.0,2.0;" x1="42" x2="294" y1="274.75" y2="274.75"/><text fill="#000000" font-family="NanumGothic" font-size="13" lengthAdjust="spacing" textLength="69" x="54" y="269.76">notification</text><path d="M551,294.75 L551,318.75 L712,318.75 L712,304.75 L702,294.75 L551,294.75 " fill="#7D5393" style="stroke:#000000;stroke-width:0.5;"/><path d="M702,294.75 L702,304.75 L712,304.75 L702,294.75 " fill="#7D5393" style="stroke:#000000;stroke-width:0.5;"/><text fill="#FFFFFF" font-family="NanumGothic" font-size="13" lengthAdjust="spacing" textLength="140" x="557" y="311.71">At configured moment</text><line style="stroke:#181818;stroke-width:1.0;" x1="632" x2="674" y1="345.65" y2="345.65"/><line style="stroke:#181818;stroke-width:1.0;" x1="674" x2="674" y1="345.65" y2="358.65"/><line style="stroke:#181818;stroke-width:1.0;" x1="633" x2="674" y1="358.65" y2="358.65"/><polygon fill="#181818" points="643,354.65,633,358.65,643,362.65,639,358.65" style="stroke:#181818;stroke-width:1.0;"/><text fill="#000000" font-family="NanumGothic" font-size="13" lengthAdjust="spacing" textLength="100" x="639" y="340.66">Display Message</text><path d="M571,371.65 L571,410.65 L693,410.65 L693,381.65 L683,371.65 L571,371.65 " fill="#7D5393" style="stroke:#000000;stroke-width:0.5;"/><path d="M683,371.65 L683,381.65 L693,381.65 L683,371.65 " fill="#7D5393" style="stroke:#000000;stroke-width:0.5;"/><text fill="#FFFFFF" font-family="NanumGothic" font-size="13" lengthAdjust="spacing" textLength="101" x="577" y="388.61">Transaction with</text><text fill="#FFFFFF" font-family="NanumGothic" font-size="13" lengthAdjust="spacing" textLength="77" x="577" y="403.56">id=123 ends</text><line style="stroke:#181818;stroke-width:1.0;" x1="632" x2="674" y1="437.5" y2="437.5"/><line style="stroke:#181818;stroke-width:1.0;" x1="674" x2="674" y1="437.5" y2="450.5"/><line style="stroke:#181818;stroke-width:1.0;" x1="633" x2="674" y1="450.5" y2="450.5"/><polygon fill="#181818" points="643,446.5,633,450.5,643,454.5,639,450.5" style="stroke:#181818;stroke-width:1.0;"/><text fill="#000000" font-family="NanumGothic" font-size="13" lengthAdjust="spacing" textLength="106" x="639" y="432.51">Remove Message</text><!--SRC=[bP71QiCm38RlVWgjfnRMmBPRO8EoNNO8XMOlO1mr5IIs5oijVVl9gLVIjDlOnSQI_V__9z-HDKrV8GG-DfZvlcsKqePT1xFNSZq37K1svNN7PCXhox5HbAbJb9FMJdSrsHfArapEdgwbOgefPHqZk3rsLos05N2dRP0CSeO3yKwAL3q_F3u11N2sTd9VeQqWoYWbyM3vCcJ90Kfai7Y05aFGDORvIErzK5b4FjfhYH39HWU1KN4Tv2w3vL7uZO9lzB58qXlyx37mjSDzbcKBaRgKWEKvvIsju9qDE5yPWvwnalVEiw2V0WrFrtb4fYsPxs5LUC4oAGYFZEcFSJCOPxTKznrMqBeMBO-7EsMuCPc40edbTx-F7pzNJCC_dJVOYitP-0i0]--></g></svg>