<?xml version="1.0" encoding="us-ascii" standalone="no"?><svg xmlns="http://www.w3.org/2000/svg" xmlns:xlink="http://www.w3.org/1999/xlink" contentStyleType="text/css" height="624px" preserveAspectRatio="none" style="width:504px;height:624px;background:#FFFFFF;" version="1.1" viewBox="0 0 504 624" width="504px" zoomAndPan="magnify"><defs/><g><rect fill="#FFFFFF" height="515.25" style="stroke:#181818;stroke-width:1.0;" width="10" x="150" y="93.1"/><rect fill="#FFFFFF" height="28.95" style="stroke:#181818;stroke-width:1.0;" width="10" x="452" y="439.6"/><rect fill="#FFFFFF" height="28.95" style="stroke:#181818;stroke-width:1.0;" width="10" x="452" y="563.4"/><rect fill="none" height="45.9" style="stroke:#000000;stroke-width:1.5;" width="215" x="10" y="170"/><rect fill="none" height="74.85" style="stroke:#000000;stroke-width:1.5;" width="408.5" x="85" y="525.5"/><line style="stroke:#181818;stroke-width:0.5;stroke-dasharray:5.0,5.0;" x1="52" x2="52" y1="83.1" y2="617.35"/><line style="stroke:#181818;stroke-width:0.5;stroke-dasharray:5.0,5.0;" x1="155" x2="155" y1="83.1" y2="617.35"/><line style="stroke:#181818;stroke-width:0.5;stroke-dasharray:5.0,5.0;" x1="456.5" x2="456.5" y1="83.1" y2="617.35"/><text fill="#000000" font-family="NanumGothic" font-size="14" lengthAdjust="spacing" textLength="59" x="20" y="79.88">EV Driver</text><ellipse cx="52.5" cy="14.5" fill="#E2E2F0" rx="8" ry="8" style="stroke:#7D5393;stroke-width:1.5;"/><path d="M52.5,22.5 L52.5,49.5 M39.5,30.5 L65.5,30.5 M52.5,49.5 L39.5,64.5 M52.5,49.5 L65.5,64.5 " fill="none" style="stroke:#7D5393;stroke-width:1.5;"/><rect fill="#7D5393" height="30.1" rx="2.5" ry="2.5" style="stroke:#181818;stroke-width:0.5;" width="120" x="95" y="52"/><text fill="#FFFFFF" font-family="NanumGothic" font-size="14" lengthAdjust="spacing" textLength="106" x="102" y="71.88">Charging Station</text><rect fill="#7D5393" height="30.1" rx="2.5" ry="2.5" style="stroke:#181818;stroke-width:0.5;" width="53" x="430.5" y="52"/><text fill="#FFFFFF" font-family="NanumGothic" font-size="14" lengthAdjust="spacing" textLength="39" x="437.5" y="71.88">CSMS</text><rect fill="#FFFFFF" height="515.25" style="stroke:#181818;stroke-width:1.0;" width="10" x="150" y="93.1"/><rect fill="#FFFFFF" height="28.95" style="stroke:#181818;stroke-width:1.0;" width="10" x="452" y="439.6"/><rect fill="#FFFFFF" height="28.95" style="stroke:#181818;stroke-width:1.0;" width="10" x="452" y="563.4"/><path d="M114,98.1 L114,122.1 L497,122.1 L497,108.1 L487,98.1 L114,98.1 " fill="#7D5393" style="stroke:#000000;stroke-width:0.5;"/><path d="M487,98.1 L487,108.1 L497,108.1 L487,98.1 " fill="#7D5393" style="stroke:#000000;stroke-width:0.5;"/><text fill="#FFFFFF" font-family="NanumGothic" font-size="13" lengthAdjust="spacing" textLength="161" x="220.75" y="115.06">Charging Station is Offline</text><path d="M25,133.05 L25,157.05 L483,157.05 L483,143.05 L473,133.05 L25,133.05 " fill="#7D5393" style="stroke:#000000;stroke-width:0.5;"/><path d="M473,133.05 L473,143.05 L483,143.05 L473,133.05 " fill="#7D5393" style="stroke:#000000;stroke-width:0.5;"/><text fill="#FFFFFF" font-family="NanumGothic" font-size="13" lengthAdjust="spacing" textLength="221" x="139.25" y="150.01">Offline user authorization successful</text><path d="M10,170 L76,170 L76,176.95 L66,186.95 L10,186.95 L10,170 " fill="#EEEEEE" style="stroke:#000000;stroke-width:1.5;"/><rect fill="none" height="45.9" style="stroke:#000000;stroke-width:1.5;" width="215" x="10" y="170"/><text fill="#000000" font-family="NanumGothic" font-size="13" font-weight="bold" lengthAdjust="spacing" textLength="21" x="25" y="182.96">opt</text><polygon fill="#181818" points="63.5,203.9,53.5,207.9,63.5,211.9,59.5,207.9" style="stroke:#181818;stroke-width:1.0;"/><line style="stroke:#181818;stroke-width:1.0;" x1="57.5" x2="149" y1="207.9" y2="207.9"/><text fill="#000000" font-family="NanumGothic" font-size="13" lengthAdjust="spacing" textLength="69" x="69.5" y="202.91">notification</text><line style="stroke:#181818;stroke-width:1.0;" x1="160" x2="202" y1="243.85" y2="243.85"/><line style="stroke:#181818;stroke-width:1.0;" x1="202" x2="202" y1="243.85" y2="256.85"/><line style="stroke:#181818;stroke-width:1.0;" x1="161" x2="202" y1="256.85" y2="256.85"/><polygon fill="#181818" points="171,252.85,161,256.85,171,260.85,167,256.85" style="stroke:#181818;stroke-width:1.0;"/><text fill="#000000" font-family="NanumGothic" font-size="13" lengthAdjust="spacing" textLength="89" x="167" y="238.86">lock connector</text><line style="stroke:#181818;stroke-width:1.0;" x1="160" x2="202" y1="285.8" y2="285.8"/><line style="stroke:#181818;stroke-width:1.0;" x1="202" x2="202" y1="285.8" y2="298.8"/><line style="stroke:#181818;stroke-width:1.0;" x1="161" x2="202" y1="298.8" y2="298.8"/><polygon fill="#181818" points="171,294.8,161,298.8,171,302.8,167,298.8" style="stroke:#181818;stroke-width:1.0;"/><text fill="#000000" font-family="NanumGothic" font-size="13" lengthAdjust="spacing" textLength="107" x="167" y="280.81">start energy offer</text><line style="stroke:#181818;stroke-width:1.0;" x1="160" x2="202" y1="327.75" y2="327.75"/><line style="stroke:#181818;stroke-width:1.0;" x1="202" x2="202" y1="327.75" y2="340.75"/><line style="stroke:#181818;stroke-width:1.0;" x1="161" x2="202" y1="340.75" y2="340.75"/><polygon fill="#181818" points="171,336.75,161,340.75,171,344.75,167,340.75" style="stroke:#181818;stroke-width:1.0;"/><text fill="#000000" font-family="NanumGothic" font-size="13" lengthAdjust="spacing" textLength="278" x="167" y="322.76">store TransactionEventRequest(offline = true)</text><path d="M114,353.75 L114,377.75 L497,377.75 L497,363.75 L487,353.75 L114,353.75 " fill="#7D5393" style="stroke:#000000;stroke-width:0.5;"/><path d="M487,353.75 L487,363.75 L497,363.75 L487,353.75 " fill="#7D5393" style="stroke:#000000;stroke-width:0.5;"/><text fill="#FFFFFF" font-family="NanumGothic" font-size="13" lengthAdjust="spacing" textLength="330" x="136.25" y="370.71">Connection loss can be minutes, but can also be days.</text><path d="M114,388.7 L114,412.7 L497,412.7 L497,398.7 L487,388.7 L114,388.7 " fill="#7D5393" style="stroke:#000000;stroke-width:0.5;"/><path d="M487,388.7 L487,398.7 L497,398.7 L487,388.7 " fill="#7D5393" style="stroke:#000000;stroke-width:0.5;"/><text fill="#FFFFFF" font-family="NanumGothic" font-size="13" lengthAdjust="spacing" textLength="129" x="236.75" y="405.66">Connection restored.</text><polygon fill="#181818" points="440,435.6,450,439.6,440,443.6,444,439.6" style="stroke:#181818;stroke-width:1.0;"/><line style="stroke:#181818;stroke-width:1.0;" x1="160" x2="446" y1="439.6" y2="439.6"/><text fill="#000000" font-family="NanumGothic" font-size="13" lengthAdjust="spacing" textLength="119" x="167" y="434.61">HeartbeatRequest()</text><polygon fill="#181818" points="171,464.55,161,468.55,171,472.55,167,468.55" style="stroke:#181818;stroke-width:1.0;"/><line style="stroke:#181818;stroke-width:1.0;stroke-dasharray:2.0,2.0;" x1="165" x2="456" y1="468.55" y2="468.55"/><text fill="#000000" font-family="NanumGothic" font-size="13" lengthAdjust="spacing" textLength="128" x="177" y="463.56">HeartbeatResponse()</text><line style="stroke:#181818;stroke-width:1.0;" x1="160" x2="202" y1="497.5" y2="497.5"/><line style="stroke:#181818;stroke-width:1.0;" x1="202" x2="202" y1="497.5" y2="510.5"/><line style="stroke:#181818;stroke-width:1.0;" x1="161" x2="202" y1="510.5" y2="510.5"/><polygon fill="#181818" points="171,506.5,161,510.5,171,514.5,167,510.5" style="stroke:#181818;stroke-width:1.0;"/><text fill="#000000" font-family="NanumGothic" font-size="13" lengthAdjust="spacing" textLength="146" x="167" y="492.51">send queued message()</text><path d="M85,525.5 L157,525.5 L157,532.45 L147,542.45 L85,542.45 L85,525.5 " fill="#EEEEEE" style="stroke:#000000;stroke-width:1.5;"/><rect fill="none" height="74.85" style="stroke:#000000;stroke-width:1.5;" width="408.5" x="85" y="525.5"/><text fill="#000000" font-family="NanumGothic" font-size="13" font-weight="bold" lengthAdjust="spacing" textLength="27" x="100" y="538.46">loop</text><text fill="#000000" font-family="NanumGothic" font-size="11" font-weight="bold" lengthAdjust="spacing" textLength="195" x="172" y="537.62">[for all queued transaction messages]</text><polygon fill="#181818" points="440,559.4,450,563.4,440,567.4,444,563.4" style="stroke:#181818;stroke-width:1.0;"/><line style="stroke:#181818;stroke-width:1.0;" x1="160" x2="446" y1="563.4" y2="563.4"/><text fill="#000000" font-family="NanumGothic" font-size="13" lengthAdjust="spacing" textLength="243" x="167" y="558.41">TransactionEventRequest(offline = true)</text><polygon fill="#181818" points="171,588.35,161,592.35,171,596.35,167,592.35" style="stroke:#181818;stroke-width:1.0;"/><line style="stroke:#181818;stroke-width:1.0;stroke-dasharray:2.0,2.0;" x1="165" x2="456" y1="592.35" y2="592.35"/><text fill="#000000" font-family="NanumGothic" font-size="13" lengthAdjust="spacing" textLength="183" x="177" y="587.36">TransactionEventResponse(...)</text><!--SRC=[ZLDDJyCm3BtdLvYTcBJr1qo22qpYWf0OsZrBtH6HnILs9erVJzAFKNL5wgLgRR_tx6VtpdhZOed0Sd5OrF7abD96AC1YkuVdOCyO5g0PjllsGzKwY3MsrbvWyVIfmz7w8-n4YoNVbFR1BZP2x5vtRLLwQRJiMGlUW3ob82N1SMRL8W76sc0PtghAMOyAVGcPGGru-Wck15qnH4vP7UMJWlrfgJWQWynLT0CggcKWswkk7w_CcrneAslQ4H9IgOdoKMW3ZimN6F8Ui_FpC2p9LK2FuNW1gYgSZQE0y16qv-mz-UqPlRpZTqIMU-eiUG094PTgpXhQlhEU8sOmsiC1uMHz5EGL7A8qCUsOSgBK5ouc5pH38M3JVpaac9ew0JVmWicY0-hhTCl1kJNNbv-mdh9fWEMQF6C2bpY6p_4xDvha8vPmIYUbZvbAEQ8QglIRQUVwjFmjfI_bwODhvvkxH81Htm3_3tvBsirV54Mc6fkGZ_mN]--></g></svg>