<?xml version="1.0" encoding="us-ascii" standalone="no"?><svg xmlns="http://www.w3.org/2000/svg" xmlns:xlink="http://www.w3.org/1999/xlink" contentStyleType="text/css" height="394px" preserveAspectRatio="none" style="width:767px;height:394px;background:#FFFFFF;" version="1.1" viewBox="0 0 767 394" width="767px" zoomAndPan="magnify"><defs/><g><rect fill="#FFFFFF" height="28.95" style="stroke:#181818;stroke-width:1.0;" width="10" x="385.5" y="91"/><rect fill="#FFFFFF" height="28.95" style="stroke:#181818;stroke-width:1.0;" width="10" x="719.5" y="91"/><rect fill="none" height="74.85" style="stroke:#000000;stroke-width:1.5;" width="440.5" x="320.5" y="53.1"/><line style="stroke:#181818;stroke-width:0.5;stroke-dasharray:5.0,5.0;" x1="176" x2="176" y1="36.1" y2="387.5"/><line style="stroke:#181818;stroke-width:0.5;stroke-dasharray:5.0,5.0;" x1="390.5" x2="390.5" y1="36.1" y2="387.5"/><line style="stroke:#181818;stroke-width:0.5;stroke-dasharray:5.0,5.0;" x1="724" x2="724" y1="36.1" y2="387.5"/><rect fill="#7D5393" height="30.1" rx="2.5" ry="2.5" style="stroke:#181818;stroke-width:0.5;" width="31" x="161" y="5"/><text fill="#FFFFFF" font-family="NanumGothic" font-size="14" lengthAdjust="spacing" textLength="17" x="168" y="24.88">EV</text><rect fill="#7D5393" height="30.1" rx="2.5" ry="2.5" style="stroke:#181818;stroke-width:0.5;" width="120" x="330.5" y="5"/><text fill="#FFFFFF" font-family="NanumGothic" font-size="14" lengthAdjust="spacing" textLength="106" x="337.5" y="24.88">Charging Station</text><rect fill="#7D5393" height="30.1" rx="2.5" ry="2.5" style="stroke:#181818;stroke-width:0.5;" width="53" x="698" y="5"/><text fill="#FFFFFF" font-family="NanumGothic" font-size="14" lengthAdjust="spacing" textLength="39" x="705" y="24.88">CSMS</text><rect fill="#FFFFFF" height="28.95" style="stroke:#181818;stroke-width:1.0;" width="10" x="385.5" y="91"/><rect fill="#FFFFFF" height="28.95" style="stroke:#181818;stroke-width:1.0;" width="10" x="719.5" y="91"/><path d="M320.5,53.1 L386.5,53.1 L386.5,60.05 L376.5,70.05 L320.5,70.05 L320.5,53.1 " fill="#EEEEEE" style="stroke:#000000;stroke-width:1.5;"/><rect fill="none" height="74.85" style="stroke:#000000;stroke-width:1.5;" width="440.5" x="320.5" y="53.1"/><text fill="#000000" font-family="NanumGothic" font-size="13" font-weight="bold" lengthAdjust="spacing" textLength="21" x="335.5" y="66.06">opt</text><text fill="#000000" font-family="NanumGothic" font-size="11" font-weight="bold" lengthAdjust="spacing" textLength="66" x="401.5" y="65.22">[for caching]</text><polygon fill="#181818" points="707.5,87,717.5,91,707.5,95,711.5,91" style="stroke:#181818;stroke-width:1.0;"/><line style="stroke:#181818;stroke-width:1.0;" x1="395.5" x2="713.5" y1="91" y2="91"/><text fill="#000000" font-family="NanumGothic" font-size="13" lengthAdjust="spacing" textLength="286" x="402.5" y="86.01">GetCertificateStatusRequest(ocspRequestData)</text><polygon fill="#181818" points="401.5,115.95,391.5,119.95,401.5,123.95,397.5,119.95" style="stroke:#181818;stroke-width:1.0;"/><line style="stroke:#181818;stroke-width:1.0;stroke-dasharray:2.0,2.0;" x1="395.5" x2="723.5" y1="119.95" y2="119.95"/><text fill="#000000" font-family="NanumGothic" font-size="13" lengthAdjust="spacing" textLength="300" x="407.5" y="114.96">GetCertificateStatusResponse(status, ocspResult)</text><path d="M35,139.95 L35,178.95 L318,178.95 L318,149.95 L308,139.95 L35,139.95 " fill="#7D5393" style="stroke:#000000;stroke-width:0.5;"/><path d="M308,139.95 L308,149.95 L318,149.95 L308,139.95 " fill="#7D5393" style="stroke:#000000;stroke-width:0.5;"/><text fill="#FFFFFF" font-family="NanumGothic" font-size="13" lengthAdjust="spacing" textLength="262" x="41" y="156.91">The TLS Start will include a list of all known</text><text fill="#FFFFFF" font-family="NanumGothic" font-size="13" lengthAdjust="spacing" textLength="194" x="41" y="171.86">V2G Root Certificates by the EV</text><polygon fill="#181818" points="378.5,201.8,388.5,205.8,378.5,209.8,382.5,205.8" style="stroke:#181818;stroke-width:1.0;"/><line style="stroke:#181818;stroke-width:1.0;" x1="176.5" x2="384.5" y1="205.8" y2="205.8"/><text fill="#000000" font-family="NanumGothic" font-size="13" lengthAdjust="spacing" textLength="190" x="183.5" y="200.81">startTLS(ListOfRootCertificates)</text><path d="M82,218.8 L82,242.8 L698,242.8 L698,228.8 L688,218.8 L82,218.8 " fill="#7D5393" style="stroke:#000000;stroke-width:0.5;"/><path d="M688,218.8 L688,228.8 L698,228.8 L688,218.8 " fill="#7D5393" style="stroke:#000000;stroke-width:0.5;"/><text fill="#FFFFFF" font-family="NanumGothic" font-size="13" lengthAdjust="spacing" textLength="595" x="88" y="235.76">The TLS response will include OCSP revocation status information on the CSO Sub-CA certificates.</text><polygon fill="#181818" points="187.5,265.7,177.5,269.7,187.5,273.7,183.5,269.7" style="stroke:#181818;stroke-width:1.0;"/><line style="stroke:#181818;stroke-width:1.0;" x1="181.5" x2="389.5" y1="269.7" y2="269.7"/><text fill="#000000" font-family="NanumGothic" font-size="13" lengthAdjust="spacing" textLength="114" x="193.5" y="264.71">StartTLSresponse()</text><path d="M5,282.7 L5,321.7 L348,321.7 L348,292.7 L338,282.7 L5,282.7 " fill="#7D5393" style="stroke:#000000;stroke-width:0.5;"/><path d="M338,282.7 L338,292.7 L348,292.7 L338,282.7 " fill="#7D5393" style="stroke:#000000;stroke-width:0.5;"/><text fill="#FFFFFF" font-family="NanumGothic" font-size="13" lengthAdjust="spacing" textLength="322" x="11" y="299.66">For readability reasons, some intermediate messages</text><text fill="#FFFFFF" font-family="NanumGothic" font-size="13" lengthAdjust="spacing" textLength="139" x="11" y="314.61">are not displayed here.</text><path d="M5,332.6 L5,371.6 L347,371.6 L347,342.6 L337,332.6 L5,332.6 " fill="#7D5393" style="stroke:#000000;stroke-width:0.5;"/><path d="M337,332.6 L337,342.6 L347,342.6 L337,332.6 " fill="#7D5393" style="stroke:#000000;stroke-width:0.5;"/><text fill="#FFFFFF" font-family="NanumGothic" font-size="13" lengthAdjust="spacing" textLength="321" x="11" y="349.56">The EV sends its Contact Certificate and MO Sub-CA</text><text fill="#FFFFFF" font-family="NanumGothic" font-size="13" lengthAdjust="spacing" textLength="217" x="11" y="364.51">certificates to the Charging Station.</text><!--SRC=[VLFBJiCm4BpxAnPEhKGvSEI0X4Bf1LH4KEwkisqj73juDqNzUzP9Wzm7I97Yx6DcTjQvijwuhaOWtZkyRRl6ATNgoDROLdk6wtbr3PfWNXs7YwsE6-itKB9c6tnVD0OFiPEEyhKSgkIWL6WPrY62qMOhBGfEks7sq9VUmmAvG45QMwCPKxgZT_pga7WI3BM7yvDcFHKSRTZkfF1CJfxgDK3_XbbYEgxzYvJQu0adr7_UmC1EdUD4NEC_r7aoaQElbV91FiCEO_8Nu6EByF5I9ayZmxTr3iRzQ72M6C8Qj4G_VVXEeDNT0jv3OCYa4gpsm88aa482FOTIymekZKc9IZWdBmA_N2Um76kQQpmVQXGS3yOSQruMvPkaTi4C2nrSaxJilHb2yYIfHRc4iblDYaSm6Vljxm1ANRWTy-f-i4eaZ0ecqpDNd-MMHTIrNbbdUP_E9AKtGA51KSCO6wnjsao3H7g3bAvAnCGCjQNMwJtMiCM8kQ8BonEJIGfaHfPx7ZpBplFTW9Rkrt5MQSgd1Gw36IU_LiRv0m00]--></g></svg>