<?xml version="1.0" encoding="us-ascii" standalone="no"?><svg xmlns="http://www.w3.org/2000/svg" xmlns:xlink="http://www.w3.org/1999/xlink" contentStyleType="text/css" height="409px" preserveAspectRatio="none" style="width:747px;height:409px;background:#FFFFFF;" version="1.1" viewBox="0 0 747 409" width="747px" zoomAndPan="magnify"><defs/><g><rect fill="#FFFFFF" height="30" style="stroke:#181818;stroke-width:1.0;" width="10" x="36" y="67.05"/><rect fill="#FFFFFF" height="145.8" style="stroke:#181818;stroke-width:1.0;" width="10" x="208" y="67.05"/><rect fill="#FFFFFF" height="28.95" style="stroke:#181818;stroke-width:1.0;" width="10" x="208" y="355.6"/><rect fill="#FFFFFF" height="28.95" style="stroke:#181818;stroke-width:1.0;" width="10" x="550" y="126"/><rect fill="#FFFFFF" height="200.65" style="stroke:#181818;stroke-width:1.0;" width="10" x="550" y="183.9"/><line style="stroke:#181818;stroke-width:0.5;stroke-dasharray:5.0,5.0;" x1="41" x2="41" y1="36.1" y2="402.55"/><line style="stroke:#181818;stroke-width:0.5;stroke-dasharray:5.0,5.0;" x1="212.5" x2="212.5" y1="36.1" y2="402.55"/><line style="stroke:#181818;stroke-width:0.5;stroke-dasharray:5.0,5.0;" x1="555" x2="555" y1="36.1" y2="402.55"/><rect fill="#7D5393" height="30.1" rx="2.5" ry="2.5" style="stroke:#181818;stroke-width:0.5;" width="72" x="5" y="5"/><text fill="#FFFFFF" font-family="NanumGothic" font-size="14" lengthAdjust="spacing" textLength="58" x="12" y="24.88">Operator</text><rect fill="#7D5393" height="30.1" rx="2.5" ry="2.5" style="stroke:#181818;stroke-width:0.5;" width="53" x="186.5" y="5"/><text fill="#FFFFFF" font-family="NanumGothic" font-size="14" lengthAdjust="spacing" textLength="39" x="193.5" y="24.88">CSMS</text><rect fill="#7D5393" height="30.1" rx="2.5" ry="2.5" style="stroke:#181818;stroke-width:0.5;" width="120" x="495" y="5"/><text fill="#FFFFFF" font-family="NanumGothic" font-size="14" lengthAdjust="spacing" textLength="106" x="502" y="24.88">Charging Station</text><rect fill="#FFFFFF" height="30" style="stroke:#181818;stroke-width:1.0;" width="10" x="36" y="67.05"/><rect fill="#FFFFFF" height="145.8" style="stroke:#181818;stroke-width:1.0;" width="10" x="208" y="67.05"/><rect fill="#FFFFFF" height="28.95" style="stroke:#181818;stroke-width:1.0;" width="10" x="208" y="355.6"/><rect fill="#FFFFFF" height="28.95" style="stroke:#181818;stroke-width:1.0;" width="10" x="550" y="126"/><rect fill="#FFFFFF" height="200.65" style="stroke:#181818;stroke-width:1.0;" width="10" x="550" y="183.9"/><polygon fill="#181818" points="196,63.05,206,67.05,196,71.05,200,67.05" style="stroke:#181818;stroke-width:1.0;"/><line style="stroke:#181818;stroke-width:1.0;" x1="46" x2="202" y1="67.05" y2="67.05"/><text fill="#000000" font-family="NanumGothic" font-size="13" lengthAdjust="spacing" textLength="148" x="53" y="62.06">Change Network Config</text><polygon fill="#181818" points="538,122,548,126,538,130,542,126" style="stroke:#181818;stroke-width:1.0;"/><line style="stroke:#181818;stroke-width:1.0;" x1="218" x2="544" y1="126" y2="126"/><text fill="#000000" font-family="NanumGothic" font-size="13" lengthAdjust="spacing" textLength="313" x="225" y="121.01">SetVariablesRequest(NetworkConfigurationPriority)</text><polygon fill="#181818" points="229,150.95,219,154.95,229,158.95,225,154.95" style="stroke:#181818;stroke-width:1.0;"/><line style="stroke:#181818;stroke-width:1.0;stroke-dasharray:2.0,2.0;" x1="223" x2="554" y1="154.95" y2="154.95"/><text fill="#000000" font-family="NanumGothic" font-size="13" lengthAdjust="spacing" textLength="285" x="235" y="149.96">SetVariablesResponse(status: RebootRequired)</text><polygon fill="#181818" points="538,179.9,548,183.9,538,187.9,542,183.9" style="stroke:#181818;stroke-width:1.0;"/><line style="stroke:#181818;stroke-width:1.0;" x1="218" x2="544" y1="183.9" y2="183.9"/><text fill="#000000" font-family="NanumGothic" font-size="13" lengthAdjust="spacing" textLength="131" x="225" y="178.91">ResetRequest(OnIdle)</text><polygon fill="#181818" points="224,208.85,214,212.85,224,216.85,220,212.85" style="stroke:#181818;stroke-width:1.0;"/><line style="stroke:#181818;stroke-width:1.0;stroke-dasharray:2.0,2.0;" x1="218" x2="549" y1="212.85" y2="212.85"/><text fill="#000000" font-family="NanumGothic" font-size="13" lengthAdjust="spacing" textLength="157" x="230" y="207.86">ResetResponse(Accepted)</text><line style="stroke:#181818;stroke-width:1.0;" x1="560" x2="602" y1="241.8" y2="241.8"/><line style="stroke:#181818;stroke-width:1.0;" x1="602" x2="602" y1="241.8" y2="254.8"/><line style="stroke:#181818;stroke-width:1.0;" x1="561" x2="602" y1="254.8" y2="254.8"/><polygon fill="#181818" points="571,250.8,561,254.8,571,258.8,567,254.8" style="stroke:#181818;stroke-width:1.0;"/><text fill="#000000" font-family="NanumGothic" font-size="13" lengthAdjust="spacing" textLength="44" x="567" y="236.81">Reboot</text><line style="stroke:#181818;stroke-width:1.0;" x1="560" x2="602" y1="313.65" y2="313.65"/><line style="stroke:#181818;stroke-width:1.0;" x1="602" x2="602" y1="313.65" y2="326.65"/><line style="stroke:#181818;stroke-width:1.0;" x1="561" x2="602" y1="326.65" y2="326.65"/><polygon fill="#181818" points="571,322.65,561,326.65,571,330.65,567,326.65" style="stroke:#181818;stroke-width:1.0;"/><text fill="#000000" font-family="NanumGothic" font-size="13" lengthAdjust="spacing" textLength="128" x="567" y="278.76">Connect using (new)</text><text fill="#000000" font-family="NanumGothic" font-size="13" lengthAdjust="spacing" textLength="161" x="575" y="293.71">NetworkConnectionProfile</text><text fill="#000000" font-family="NanumGothic" font-size="13" lengthAdjust="spacing" textLength="163" x="575" y="308.66">with higher security profile</text><polygon fill="#181818" points="229,351.6,219,355.6,229,359.6,225,355.6" style="stroke:#181818;stroke-width:1.0;"/><line style="stroke:#181818;stroke-width:1.0;" x1="223" x2="549" y1="355.6" y2="355.6"/><text fill="#000000" font-family="NanumGothic" font-size="13" lengthAdjust="spacing" textLength="170" x="235" y="350.61">BootNotificationRequest(...)</text><polygon fill="#181818" points="543,380.55,553,384.55,543,388.55,547,384.55" style="stroke:#181818;stroke-width:1.0;"/><line style="stroke:#181818;stroke-width:1.0;stroke-dasharray:2.0,2.0;" x1="213" x2="549" y1="384.55" y2="384.55"/><text fill="#000000" font-family="NanumGothic" font-size="13" lengthAdjust="spacing" textLength="179" x="220" y="379.56">BootNotificationResponse(...)</text><!--SRC=[dL8zJyCm4DtzAuvEpT3yW0v8q8c15ZKI4ulhN9CJmJRscQh_djf9sYOf2B4bzvxUnvtlIAicb0YUZmtcDdmqGbZfc1HPgHbc6ujEid4pa1xwdo5bLJmN2OuV8wYMhY9TGS6IoUYMrWsxcH2zB2pkayOoKdI5i4O-6FSEAwFtL0cfcBuauoN7UPAiHObJYeXGKXxQBg50VfMEvAv1lyNFW9xddMDh65nYlZWoZlYONTcDAum6i3XN6RfuQxJ7kJ_HWb_25dV6S3GdXsLsNM1gyLEFaofoNs2Zdye6_nUr4-eoFYY5biUfqfud4ZTJnMf_uqAyi4R547nyBNEDXmpUDC3b7X5Enp1xQZ211-8QQgfgTE1HXNWai2tXjd6g-NZAjJPCUr89wLUNvtasVb7jqczbdgfqUqioavtzSjbl]--></g></svg>