<?xml version="1.0" encoding="us-ascii" standalone="no"?><svg xmlns="http://www.w3.org/2000/svg" xmlns:xlink="http://www.w3.org/1999/xlink" contentStyleType="text/css" height="287px" preserveAspectRatio="none" style="width:738px;height:287px;background:#FFFFFF;" version="1.1" viewBox="0 0 738 287" width="738px" zoomAndPan="magnify"><defs/><g><!--entity CSMS--><g id="elem_CSMS"><polygon fill="#7D5393" points="54.5,121.05,64.5,111.05,133.5,111.05,133.5,147.15,123.5,157.15,54.5,157.15,54.5,121.05" style="stroke:#181818;stroke-width:1.5;"/><line style="stroke:#181818;stroke-width:1.5;" x1="123.5" x2="133.5" y1="121.05" y2="111.05"/><line style="stroke:#181818;stroke-width:1.5;" x1="54.5" x2="123.5" y1="121.05" y2="121.05"/><line style="stroke:#181818;stroke-width:1.5;" x1="123.5" x2="123.5" y1="121.05" y2="157.15"/><text fill="#FFFFFF" font-family="NanumGothic" font-size="14" lengthAdjust="spacing" textLength="39" x="69.5" y="143.93">CSMS</text></g><!--entity CS10--><g id="elem_CS10"><polygon fill="#7D5393" points="379,16,389,6,514,6,514,58.2,504,68.2,379,68.2,379,16" style="stroke:#181818;stroke-width:1.5;"/><line style="stroke:#181818;stroke-width:1.5;" x1="504" x2="514" y1="16" y2="6"/><line style="stroke:#181818;stroke-width:1.5;" x1="379" x2="504" y1="16" y2="16"/><line style="stroke:#181818;stroke-width:1.5;" x1="504" x2="504" y1="16" y2="68.2"/><text fill="#FFFFFF" font-family="NanumGothic" font-size="14" lengthAdjust="spacing" textLength="95" x="394" y="38.88">Charge Station</text><text fill="#FFFFFF" font-family="NanumGothic" font-size="14" lengthAdjust="spacing" textLength="33" x="394" y="54.98">CS10</text></g><!--entity CS11--><g id="elem_CS11"><polygon fill="#7D5393" points="379,113,389,103,514,103,514,155.2,504,165.2,379,165.2,379,113" style="stroke:#181818;stroke-width:1.5;"/><line style="stroke:#181818;stroke-width:1.5;" x1="504" x2="514" y1="113" y2="103"/><line style="stroke:#181818;stroke-width:1.5;" x1="379" x2="504" y1="113" y2="113"/><line style="stroke:#181818;stroke-width:1.5;" x1="504" x2="504" y1="113" y2="165.2"/><text fill="#FFFFFF" font-family="NanumGothic" font-size="14" lengthAdjust="spacing" textLength="95" x="394" y="135.88">Charge Station</text><text fill="#FFFFFF" font-family="NanumGothic" font-size="14" lengthAdjust="spacing" textLength="33" x="394" y="151.98">CS11</text></g><!--entity CS12--><g id="elem_CS12"><polygon fill="#7D5393" points="379,218,389,208,514,208,514,260.2,504,270.2,379,270.2,379,218" style="stroke:#181818;stroke-width:1.5;"/><line style="stroke:#181818;stroke-width:1.5;" x1="504" x2="514" y1="218" y2="208"/><line style="stroke:#181818;stroke-width:1.5;" x1="379" x2="504" y1="218" y2="218"/><line style="stroke:#181818;stroke-width:1.5;" x1="504" x2="504" y1="218" y2="270.2"/><text fill="#FFFFFF" font-family="NanumGothic" font-size="14" lengthAdjust="spacing" textLength="95" x="394" y="240.88">Charge Station</text><text fill="#FFFFFF" font-family="NanumGothic" font-size="14" lengthAdjust="spacing" textLength="33" x="394" y="256.98">CS12</text></g><!--entity EV1--><g id="elem_EV1"><ellipse cx="718.5" cy="100.55" fill="#F1F1F1" rx="8" ry="8" style="stroke:#7D5393;stroke-width:1.5;"/><path d="M718.5,108.55 L718.5,135.55 M705.5,116.55 L731.5,116.55 M718.5,135.55 L705.5,150.55 M718.5,135.55 L731.5,150.55 " fill="none" style="stroke:#7D5393;stroke-width:1.5;"/><text fill="#000000" font-family="NanumGothic" font-size="14" lengthAdjust="spacing" textLength="25" x="706" y="165.93">EV1</text></g><!--entity EV2--><g id="elem_EV2"><ellipse cx="718.5" cy="213.55" fill="#F1F1F1" rx="8" ry="8" style="stroke:#7D5393;stroke-width:1.5;"/><path d="M718.5,221.55 L718.5,248.55 M705.5,229.55 L731.5,229.55 M718.5,248.55 L705.5,263.55 M718.5,248.55 L731.5,263.55 " fill="none" style="stroke:#7D5393;stroke-width:1.5;"/><text fill="#000000" font-family="NanumGothic" font-size="14" lengthAdjust="spacing" textLength="25" x="706" y="278.93">EV2</text></g><g id="elem_GMN8"><path d="M6,21.67 L6,76.52 A0,0 0 0 0 6,76.52 L90,76.52 L94,110.86 L98,76.52 L182,76.52 A0,0 0 0 0 182,76.52 L182,31.67 L172,21.67 L6,21.67 A0,0 0 0 0 6,21.67 " fill="#7D5393" style="stroke:#000000;stroke-width:0.5;"/><path d="M172,21.67 L172,31.67 L182,31.67 L172,21.67 " fill="#7D5393" style="stroke:#000000;stroke-width:0.5;"/><text fill="#FFFFFF" font-family="NanumGothic" font-size="13" lengthAdjust="spacing" textLength="150" x="12" y="38.63">CSMS receives a capacity</text><text fill="#FFFFFF" font-family="NanumGothic" font-size="13" lengthAdjust="spacing" textLength="155" x="12" y="53.58">forecast from an external</text><text fill="#FFFFFF" font-family="NanumGothic" font-size="13" lengthAdjust="spacing" textLength="102" x="12" y="68.53">party (e.g. DSO).</text></g><!--link CSMS to CS10--><g id="link_CSMS_CS10"><path d="M133.85,123.35 C192.93,107 306.15,75.66 378.64,55.6 " fill="none" id="CSMS-CS10" style="stroke:#181818;stroke-width:1.0;"/></g><!--link CSMS to CS11--><g id="link_CSMS_CS11"><path d="M133.85,134.1 C192.93,134.1 300.15,134.1 372.64,134.1 " fill="none" id="CSMS-to-CS11" style="stroke:#181818;stroke-width:1.0;"/><polygon fill="#181818" points="378.64,134.1,369.64,130.1,373.64,134.1,369.64,138.1,378.64,134.1" style="stroke:#181818;stroke-width:1.0;"/><text fill="#000000" font-family="NanumGothic" font-size="13" lengthAdjust="spacing" textLength="135" x="213" y="131.06">OCPP charging profile</text></g><!--link CSMS to CS12--><g id="link_CSMS_CS12"><path d="M133.85,145.74 C192.93,163.44 300.4022,195.6386 372.8922,217.3486 " fill="none" id="CSMS-to-CS12" style="stroke:#181818;stroke-width:1.0;"/><polygon fill="#181818" points="378.64,219.07,371.166,212.6561,373.8502,217.6355,368.8708,220.3197,378.64,219.07" style="stroke:#181818;stroke-width:1.0;"/><text fill="#000000" font-family="NanumGothic" font-size="13" lengthAdjust="spacing" textLength="135" x="213" y="168.02">OCPP charging profile</text></g><!--link CS11 to EV1--><g id="link_CS11_EV1"><path d="M514.24,133.11 C577.96,132.17 663.2007,130.9089 697.6307,130.3989 " fill="none" id="CS11-to-EV1" style="stroke:#181818;stroke-width:1.0;stroke-dasharray:1.0,3.0;"/><polygon fill="#181818" points="703.63,130.31,694.5717,126.4437,698.6305,130.3841,694.6902,134.4429,703.63,130.31" style="stroke:#181818;stroke-width:1.0;"/><text fill="#000000" font-family="NanumGothic" font-size="13" lengthAdjust="spacing" textLength="116" x="545" y="112.73">Control Pilot signal</text><text fill="#000000" font-family="NanumGothic" font-size="13" lengthAdjust="spacing" textLength="81" x="568.5" y="127.68">or ISO 15118</text></g><!--link CS12 to EV2--><g id="link_CS12_EV2"><path d="M514.24,240.09 C577.96,241.03 663.2007,242.2911 697.6307,242.8011 " fill="none" id="CS12-to-EV2" style="stroke:#181818;stroke-width:1.0;stroke-dasharray:1.0,3.0;"/><polygon fill="#181818" points="703.63,242.89,694.6902,238.7571,698.6305,242.8159,694.5717,246.7563,703.63,242.89" style="stroke:#181818;stroke-width:1.0;"/><text fill="#000000" font-family="NanumGothic" font-size="13" lengthAdjust="spacing" textLength="116" x="545" y="222.58">Control Pilot signal</text><text fill="#000000" font-family="NanumGothic" font-size="13" lengthAdjust="spacing" textLength="81" x="568.5" y="237.53">or ISO 15118</text></g><!--SRC=[ZP11ImCn48Nl-HNFdlJGfLaGn8ENrOC7QM71YvKIajbj89jPibEr_zxijbMX53nDUFEznxnS-MZ3pX4iTpr7Yh9nthJ9T9j1ze6AVjS5fG8r0c4atsu5pYUouZag5JbxPrNzKizW1eoF7t5hKakenOpeEbQrNXmXlRZCw1EZBpFbYIcLCbOuOVRqUZ3c-IkLHwaSRnBA3NfmSxWIqq1kGlw31XXOqnlhPPzN3MVT388cSGSJGLz2APgGTxr9iiSr5Ms1ntfvKoYA3cE-KbFatF5dd1zg_X4UfbAunx9QhM37LZwsw1CtFj0PMLuarPGpeM-EHSYzPqikdXqLHqaSiFA11ODlyyq0rZ5_o7EzXBxL-avDyUS1vRy3lW40]--></g></svg>