<?xml version="1.0" encoding="us-ascii" standalone="no"?><svg xmlns="http://www.w3.org/2000/svg" xmlns:xlink="http://www.w3.org/1999/xlink" contentStyleType="text/css" height="932px" preserveAspectRatio="none" style="width:876px;height:932px;background:#FFFFFF;" version="1.1" viewBox="0 0 876 932" width="876px" zoomAndPan="magnify"><defs/><g><rect fill="#FFFFFF" height="125.8" style="stroke:#181818;stroke-width:1.0;" width="10" x="72.5" y="102"/><rect fill="#FFFFFF" height="110.8" style="stroke:#181818;stroke-width:1.0;" width="10" x="182.5" y="102"/><rect fill="#FFFFFF" height="28.95" style="stroke:#181818;stroke-width:1.0;" width="10" x="182.5" y="272.7"/><rect fill="#FFFFFF" height="28.95" style="stroke:#181818;stroke-width:1.0;" width="10" x="182.5" y="402.45"/><rect fill="#FFFFFF" height="28.95" style="stroke:#181818;stroke-width:1.0;" width="10" x="182.5" y="513.25"/><rect fill="#FFFFFF" height="28.95" style="stroke:#181818;stroke-width:1.0;" width="10" x="182.5" y="586.1"/><rect fill="#FFFFFF" height="28.95" style="stroke:#181818;stroke-width:1.0;" width="10" x="182.5" y="784.1"/><rect fill="#FFFFFF" height="28.95" style="stroke:#181818;stroke-width:1.0;" width="10" x="182.5" y="871.6"/><rect fill="#FFFFFF" height="28.95" style="stroke:#181818;stroke-width:1.0;" width="10" x="708.5" y="130.95"/><rect fill="#FFFFFF" height="28.95" style="stroke:#181818;stroke-width:1.0;" width="10" x="708.5" y="272.7"/><rect fill="#FFFFFF" height="28.95" style="stroke:#181818;stroke-width:1.0;" width="10" x="708.5" y="402.45"/><rect fill="#FFFFFF" height="28.95" style="stroke:#181818;stroke-width:1.0;" width="10" x="708.5" y="513.25"/><rect fill="#FFFFFF" height="28.95" style="stroke:#181818;stroke-width:1.0;" width="10" x="708.5" y="586.1"/><rect fill="#FFFFFF" height="28.95" style="stroke:#181818;stroke-width:1.0;" width="10" x="708.5" y="784.1"/><rect fill="#FFFFFF" height="28.95" style="stroke:#181818;stroke-width:1.0;" width="10" x="708.5" y="871.6"/><rect fill="none" height="45.9" style="stroke:#000000;stroke-width:1.5;" width="214" x="10" y="174.9"/><rect fill="none" height="74.85" style="stroke:#000000;stroke-width:1.5;" width="632.5" x="151" y="234.8"/><rect fill="none" height="462.15" style="stroke:#000000;stroke-width:1.5;" width="859.5" x="10" y="446.4"/><rect fill="none" height="69.2" style="stroke:#000000;stroke-width:1.5;" width="216" x="643.5" y="630.05"/><line style="stroke:#181818;stroke-width:0.5;stroke-dasharray:5.0,5.0;" x1="77" x2="77" y1="36.1" y2="925.55"/><line style="stroke:#181818;stroke-width:0.5;stroke-dasharray:5.0,5.0;" x1="187" x2="187" y1="36.1" y2="925.55"/><line style="stroke:#181818;stroke-width:0.5;stroke-dasharray:5.0,5.0;" x1="713.5" x2="713.5" y1="36.1" y2="925.55"/><rect fill="#7D5393" height="30.1" rx="2.5" ry="2.5" style="stroke:#181818;stroke-width:0.5;" width="115" x="20" y="5"/><text fill="#FFFFFF" font-family="NanumGothic" font-size="14" lengthAdjust="spacing" textLength="101" x="27" y="24.88">External Trigger</text><rect fill="#7D5393" height="30.1" rx="2.5" ry="2.5" style="stroke:#181818;stroke-width:0.5;" width="53" x="161" y="5"/><text fill="#FFFFFF" font-family="NanumGothic" font-size="14" lengthAdjust="spacing" textLength="39" x="168" y="24.88">CSMS</text><rect fill="#7D5393" height="30.1" rx="2.5" ry="2.5" style="stroke:#181818;stroke-width:0.5;" width="120" x="653.5" y="5"/><text fill="#FFFFFF" font-family="NanumGothic" font-size="14" lengthAdjust="spacing" textLength="106" x="660.5" y="24.88">Charging Station</text><rect fill="#FFFFFF" height="125.8" style="stroke:#181818;stroke-width:1.0;" width="10" x="72.5" y="102"/><rect fill="#FFFFFF" height="110.8" style="stroke:#181818;stroke-width:1.0;" width="10" x="182.5" y="102"/><rect fill="#FFFFFF" height="28.95" style="stroke:#181818;stroke-width:1.0;" width="10" x="182.5" y="272.7"/><rect fill="#FFFFFF" height="28.95" style="stroke:#181818;stroke-width:1.0;" width="10" x="182.5" y="402.45"/><rect fill="#FFFFFF" height="28.95" style="stroke:#181818;stroke-width:1.0;" width="10" x="182.5" y="513.25"/><rect fill="#FFFFFF" height="28.95" style="stroke:#181818;stroke-width:1.0;" width="10" x="182.5" y="586.1"/><rect fill="#FFFFFF" height="28.95" style="stroke:#181818;stroke-width:1.0;" width="10" x="182.5" y="784.1"/><rect fill="#FFFFFF" height="28.95" style="stroke:#181818;stroke-width:1.0;" width="10" x="182.5" y="871.6"/><rect fill="#FFFFFF" height="28.95" style="stroke:#181818;stroke-width:1.0;" width="10" x="708.5" y="130.95"/><rect fill="#FFFFFF" height="28.95" style="stroke:#181818;stroke-width:1.0;" width="10" x="708.5" y="272.7"/><rect fill="#FFFFFF" height="28.95" style="stroke:#181818;stroke-width:1.0;" width="10" x="708.5" y="402.45"/><rect fill="#FFFFFF" height="28.95" style="stroke:#181818;stroke-width:1.0;" width="10" x="708.5" y="513.25"/><rect fill="#FFFFFF" height="28.95" style="stroke:#181818;stroke-width:1.0;" width="10" x="708.5" y="586.1"/><rect fill="#FFFFFF" height="28.95" style="stroke:#181818;stroke-width:1.0;" width="10" x="708.5" y="784.1"/><rect fill="#FFFFFF" height="28.95" style="stroke:#181818;stroke-width:1.0;" width="10" x="708.5" y="871.6"/><path d="M528,51.1 L528,75.1 L708,75.1 L708,61.1 L698,51.1 L528,51.1 " fill="#7D5393" style="stroke:#000000;stroke-width:0.5;"/><path d="M698,51.1 L698,61.1 L708,61.1 L698,51.1 " fill="#7D5393" style="stroke:#000000;stroke-width:0.5;"/><text fill="#FFFFFF" font-family="NanumGothic" font-size="13" lengthAdjust="spacing" textLength="159" x="534" y="68.06">TxStartPoint = Authorized</text><polygon fill="#181818" points="170.5,98,180.5,102,170.5,106,174.5,102" style="stroke:#181818;stroke-width:1.0;"/><line style="stroke:#181818;stroke-width:1.0;" x1="82.5" x2="176.5" y1="102" y2="102"/><text fill="#000000" font-family="NanumGothic" font-size="13" lengthAdjust="spacing" textLength="86" x="89.5" y="97.01">remote start()</text><polygon fill="#181818" points="696.5,126.95,706.5,130.95,696.5,134.95,700.5,130.95" style="stroke:#181818;stroke-width:1.0;"/><line style="stroke:#181818;stroke-width:1.0;" x1="192.5" x2="702.5" y1="130.95" y2="130.95"/><text fill="#000000" font-family="NanumGothic" font-size="13" lengthAdjust="spacing" textLength="440" x="199.5" y="125.96">RequestStartTransactionRequest(idToken = ABCD, remoteStartId = 123)</text><polygon fill="#181818" points="203.5,155.9,193.5,159.9,203.5,163.9,199.5,159.9" style="stroke:#181818;stroke-width:1.0;"/><line style="stroke:#181818;stroke-width:1.0;" x1="197.5" x2="712.5" y1="159.9" y2="159.9"/><text fill="#000000" font-family="NanumGothic" font-size="13" lengthAdjust="spacing" textLength="326" x="209.5" y="154.91">RequestStartTransactionResponse(status = Accepted)</text><path d="M10,174.9 L76,174.9 L76,181.85 L66,191.85 L10,191.85 L10,174.9 " fill="#EEEEEE" style="stroke:#000000;stroke-width:1.5;"/><rect fill="none" height="45.9" style="stroke:#000000;stroke-width:1.5;" width="214" x="10" y="174.9"/><text fill="#000000" font-family="NanumGothic" font-size="13" font-weight="bold" lengthAdjust="spacing" textLength="21" x="25" y="187.86">opt</text><polygon fill="#181818" points="93.5,208.8,83.5,212.8,93.5,216.8,89.5,212.8" style="stroke:#181818;stroke-width:1.0;"/><line style="stroke:#181818;stroke-width:1.0;" x1="87.5" x2="186.5" y1="212.8" y2="212.8"/><text fill="#000000" font-family="NanumGothic" font-size="13" lengthAdjust="spacing" textLength="69" x="99.5" y="207.81">notification</text><path d="M151,234.8 L217,234.8 L217,241.75 L207,251.75 L151,251.75 L151,234.8 " fill="#EEEEEE" style="stroke:#000000;stroke-width:1.5;"/><rect fill="none" height="74.85" style="stroke:#000000;stroke-width:1.5;" width="632.5" x="151" y="234.8"/><text fill="#000000" font-family="NanumGothic" font-size="13" font-weight="bold" lengthAdjust="spacing" textLength="21" x="166" y="247.76">opt</text><text fill="#000000" font-family="NanumGothic" font-size="11" font-weight="bold" lengthAdjust="spacing" textLength="157" x="232" y="246.92">[AuthorizeRemoteStart = true]</text><polygon fill="#181818" points="203.5,268.7,193.5,272.7,203.5,276.7,199.5,272.7" style="stroke:#181818;stroke-width:1.0;"/><line style="stroke:#181818;stroke-width:1.0;" x1="197.5" x2="707.5" y1="272.7" y2="272.7"/><text fill="#000000" font-family="NanumGothic" font-size="13" lengthAdjust="spacing" textLength="218" x="209.5" y="267.71">AuthorizeRequest(idToken = ABCD)</text><polygon fill="#181818" points="701.5,297.65,711.5,301.65,701.5,305.65,705.5,301.65" style="stroke:#181818;stroke-width:1.0;"/><line style="stroke:#181818;stroke-width:1.0;stroke-dasharray:2.0,2.0;" x1="187.5" x2="707.5" y1="301.65" y2="301.65"/><text fill="#000000" font-family="NanumGothic" font-size="13" lengthAdjust="spacing" textLength="199" x="194.5" y="296.66">AuthorizeResponse(idTokenInfo)</text><path d="M253,321.65 L253,345.65 L708,345.65 L708,331.65 L698,321.65 L253,321.65 " fill="#7D5393" style="stroke:#000000;stroke-width:0.5;"/><path d="M698,321.65 L698,331.65 L708,331.65 L698,321.65 " fill="#7D5393" style="stroke:#000000;stroke-width:0.5;"/><text fill="#FFFFFF" font-family="NanumGothic" font-size="13" lengthAdjust="spacing" textLength="434" x="259" y="338.61">Using triggerReason = RemoteStart instead of Authorized! (F02.FR.21)</text><polygon fill="#181818" points="203.5,398.45,193.5,402.45,203.5,406.45,199.5,402.45" style="stroke:#181818;stroke-width:1.0;"/><line style="stroke:#181818;stroke-width:1.0;" x1="197.5" x2="707.5" y1="402.45" y2="402.45"/><text fill="#000000" font-family="NanumGothic" font-size="13" lengthAdjust="spacing" textLength="436" x="209.5" y="367.56">TransactionEventRequest(eventType = Started, transactionId = AB1234,</text><text fill="#000000" font-family="NanumGothic" font-size="13" lengthAdjust="spacing" textLength="188" x="209.5" y="382.51">idToken = ABCD, meterValues,</text><text fill="#000000" font-family="NanumGothic" font-size="13" lengthAdjust="spacing" textLength="336" x="209.5" y="397.46">triggerReason = RemoteStart, remoteStartId = 123, ...)</text><polygon fill="#181818" points="701.5,427.4,711.5,431.4,701.5,435.4,705.5,431.4" style="stroke:#181818;stroke-width:1.0;"/><line style="stroke:#181818;stroke-width:1.0;stroke-dasharray:2.0,2.0;" x1="187.5" x2="707.5" y1="431.4" y2="431.4"/><text fill="#000000" font-family="NanumGothic" font-size="13" lengthAdjust="spacing" textLength="183" x="194.5" y="426.41">TransactionEventResponse(...)</text><path d="M10,446.4 L70,446.4 L70,453.35 L60,463.35 L10,463.35 L10,446.4 " fill="#EEEEEE" style="stroke:#000000;stroke-width:1.5;"/><rect fill="none" height="462.15" style="stroke:#000000;stroke-width:1.5;" width="859.5" x="10" y="446.4"/><text fill="#000000" font-family="NanumGothic" font-size="13" font-weight="bold" lengthAdjust="spacing" textLength="15" x="25" y="459.36">alt</text><text fill="#000000" font-family="NanumGothic" font-size="11" font-weight="bold" lengthAdjust="spacing" textLength="149" x="85" y="458.52">[within ConnectionTimeOut]</text><polygon fill="#181818" points="701.5,480.3,711.5,484.3,701.5,488.3,705.5,484.3" style="stroke:#181818;stroke-width:1.0;"/><line style="stroke:#181818;stroke-width:1.0;" x1="77.5" x2="707.5" y1="484.3" y2="484.3"/><text fill="#000000" font-family="NanumGothic" font-size="13" lengthAdjust="spacing" textLength="73" x="84.5" y="479.31">Plugin cable</text><polygon fill="#181818" points="203.5,509.25,193.5,513.25,203.5,517.25,199.5,513.25" style="stroke:#181818;stroke-width:1.0;"/><line style="stroke:#181818;stroke-width:1.0;" x1="197.5" x2="707.5" y1="513.25" y2="513.25"/><text fill="#000000" font-family="NanumGothic" font-size="13" lengthAdjust="spacing" textLength="223" x="209.5" y="508.26">StatusNotificationRequest(Occupied)</text><polygon fill="#181818" points="701.5,538.2,711.5,542.2,701.5,546.2,705.5,542.2" style="stroke:#181818;stroke-width:1.0;"/><line style="stroke:#181818;stroke-width:1.0;stroke-dasharray:2.0,2.0;" x1="187.5" x2="707.5" y1="542.2" y2="542.2"/><text fill="#000000" font-family="NanumGothic" font-size="13" lengthAdjust="spacing" textLength="176" x="194.5" y="537.21">StatusNotificationResponse()</text><polygon fill="#181818" points="203.5,582.1,193.5,586.1,203.5,590.1,199.5,586.1" style="stroke:#181818;stroke-width:1.0;"/><line style="stroke:#181818;stroke-width:1.0;" x1="197.5" x2="707.5" y1="586.1" y2="586.1"/><text fill="#000000" font-family="NanumGothic" font-size="13" lengthAdjust="spacing" textLength="482" x="209.5" y="566.16">TransactionEventRequest(eventType = Updated, chargingState = EVConnected,</text><text fill="#000000" font-family="NanumGothic" font-size="13" lengthAdjust="spacing" textLength="431" x="209.5" y="581.11">evse.id = 1, evse.connectorId = 1, triggerReason = CablePluggedIn, ...)</text><polygon fill="#181818" points="701.5,611.05,711.5,615.05,701.5,619.05,705.5,615.05" style="stroke:#181818;stroke-width:1.0;"/><line style="stroke:#181818;stroke-width:1.0;stroke-dasharray:2.0,2.0;" x1="187.5" x2="707.5" y1="615.05" y2="615.05"/><text fill="#000000" font-family="NanumGothic" font-size="13" lengthAdjust="spacing" textLength="183" x="194.5" y="610.06">TransactionEventResponse(...)</text><path d="M643.5,630.05 L709.5,630.05 L709.5,637 L699.5,647 L643.5,647 L643.5,630.05 " fill="#EEEEEE" style="stroke:#000000;stroke-width:1.5;"/><rect fill="none" height="69.2" style="stroke:#000000;stroke-width:1.5;" width="216" x="643.5" y="630.05"/><text fill="#000000" font-family="NanumGothic" font-size="13" font-weight="bold" lengthAdjust="spacing" textLength="21" x="658.5" y="643.01">opt</text><text fill="#000000" font-family="NanumGothic" font-size="11" font-weight="bold" lengthAdjust="spacing" textLength="130" x="724.5" y="642.17">[if cable not permanently</text><text fill="#000000" font-family="NanumGothic" font-size="11" font-weight="bold" lengthAdjust="spacing" textLength="49" x="724.5" y="654.82">attached]</text><line style="stroke:#181818;stroke-width:1.0;" x1="713.5" x2="755.5" y1="678.25" y2="678.25"/><line style="stroke:#181818;stroke-width:1.0;" x1="755.5" x2="755.5" y1="678.25" y2="691.25"/><line style="stroke:#181818;stroke-width:1.0;" x1="714.5" x2="755.5" y1="691.25" y2="691.25"/><polygon fill="#181818" points="724.5,687.25,714.5,691.25,724.5,695.25,720.5,691.25" style="stroke:#181818;stroke-width:1.0;"/><text fill="#000000" font-family="NanumGothic" font-size="13" lengthAdjust="spacing" textLength="89" x="720.5" y="673.26">lock connector</text><line style="stroke:#181818;stroke-width:1.0;" x1="713.5" x2="755.5" y1="727.2" y2="727.2"/><line style="stroke:#181818;stroke-width:1.0;" x1="755.5" x2="755.5" y1="727.2" y2="740.2"/><line style="stroke:#181818;stroke-width:1.0;" x1="714.5" x2="755.5" y1="740.2" y2="740.2"/><polygon fill="#181818" points="724.5,736.2,714.5,740.2,724.5,744.2,720.5,740.2" style="stroke:#181818;stroke-width:1.0;"/><text fill="#000000" font-family="NanumGothic" font-size="13" lengthAdjust="spacing" textLength="107" x="720.5" y="722.21">start energy offer</text><polygon fill="#181818" points="203.5,780.1,193.5,784.1,203.5,788.1,199.5,784.1" style="stroke:#181818;stroke-width:1.0;"/><line style="stroke:#181818;stroke-width:1.0;" x1="197.5" x2="707.5" y1="784.1" y2="784.1"/><text fill="#000000" font-family="NanumGothic" font-size="13" lengthAdjust="spacing" textLength="456" x="209.5" y="764.16">TransactionEventRequest(eventType = Updated, chargingState = Charging,</text><text fill="#000000" font-family="NanumGothic" font-size="13" lengthAdjust="spacing" textLength="269" x="209.5" y="779.11">triggerReason = ChargingStateChanged, ...)</text><polygon fill="#181818" points="701.5,809.05,711.5,813.05,701.5,817.05,705.5,813.05" style="stroke:#181818;stroke-width:1.0;"/><line style="stroke:#181818;stroke-width:1.0;stroke-dasharray:2.0,2.0;" x1="187.5" x2="707.5" y1="813.05" y2="813.05"/><text fill="#000000" font-family="NanumGothic" font-size="13" lengthAdjust="spacing" textLength="183" x="194.5" y="808.06">TransactionEventResponse(...)</text><line style="stroke:#000000;stroke-width:1.0;stroke-dasharray:2.0,2.0;" x1="10" x2="869.5" y1="822.05" y2="822.05"/><text fill="#000000" font-family="NanumGothic" font-size="11" font-weight="bold" lengthAdjust="spacing" textLength="170" x="15" y="832.17">[not within ConnectionTimeOut]</text><polygon fill="#181818" points="203.5,867.6,193.5,871.6,203.5,875.6,199.5,871.6" style="stroke:#181818;stroke-width:1.0;"/><line style="stroke:#181818;stroke-width:1.0;" x1="197.5" x2="707.5" y1="871.6" y2="871.6"/><text fill="#000000" font-family="NanumGothic" font-size="13" lengthAdjust="spacing" textLength="446" x="209.5" y="851.66">TransactionEventRequest(eventType = Ended, stoppedReason = Timeout,</text><text fill="#000000" font-family="NanumGothic" font-size="13" lengthAdjust="spacing" textLength="236" x="209.5" y="866.61">triggerReason = EVConnectTimeout...)</text><polygon fill="#181818" points="701.5,896.55,711.5,900.55,701.5,904.55,705.5,900.55" style="stroke:#181818;stroke-width:1.0;"/><line style="stroke:#181818;stroke-width:1.0;stroke-dasharray:2.0,2.0;" x1="187.5" x2="707.5" y1="900.55" y2="900.55"/><text fill="#000000" font-family="NanumGothic" font-size="13" lengthAdjust="spacing" textLength="183" x="194.5" y="895.56">TransactionEventResponse(...)</text><!--SRC=[pLNFRzem5Bxdht1x8XABrcudf4vg6PKuRAs0zjIBPp-2rM1djiFA_lhv6GTIawITrccx8FpyVdxVzvmJ8LbHSI36RWl8ocfT94b9jHLCb5HQSZfvig0bBSX2Ypm7VKge8RKns9v7ZETVvjuB_qHNAwfp8NCojzGA9NTkmHXiIIAL1LB0qXArFBebPF7a_cjxguHBUK4kAxjIMlm4de3a18EJ96gGlFlaknaH3MlCRZ3384qeis93dI6UQ7_XXqZmroTvtis8pE1x1SRwZXQQIeE1IWRpGF25UWI9RLwDFmz3UUyzvSvwTlwXqSGH4f7XC4PdMLCgQM3WvhELmRACGMc1fmc7xZggj0xOUiW8Yn5YAfQ2rGGqCo4w3lPczXXAp7vWQNP0mBLdTGLOkMlEHbWReAcBxPogUUL9h2Tiux5HA40OAatbKgKjGp-tHAKHaPTaV6Tm4UmEf1bGet2g9Zn26WkKO_X1v2TaSFt-FBkUPUTdQKFndH2wXJa8PB81QMii0G-BRGckhgy8VEWQsZjxXLvUEOr-7Beq3p9MyneSq_UqSDbs3ZtJj6f_IB8iIwDbwrc7JlgEHmmi-lmzJCMq9hImv8UmAo79M4a9FkT2hE6cmXrfUrZYPcwBofq9ezyAIFhKFVTR-hMnNJKrDunLfS2rVIk1jzKA6ANzOZxMVjzCv9M2koivzO9ZZKnuCRaFkECbyRA2ZO5CUCqCYJ-mdOlIqs2DbJT6y9687FXK1fsz5PRzQllDjyBTuWCfbZl1u3gJ4lIQIfUvs3v8QYrbA_TvGp3QS8_RAnHx97k4N9X_ZbuNwp-CBW1qldKFpnBVxx_9Tfsvflg8nwQ_EyWSi_mpDbzS3IZCZiAUD-IFqPn8ZYWOgyeI-1uhhA0gsmNbVh62ttyCejFhBm00]--></g></svg>