<?xml version="1.0" encoding="us-ascii" standalone="no"?><svg xmlns="http://www.w3.org/2000/svg" xmlns:xlink="http://www.w3.org/1999/xlink" contentStyleType="text/css" height="565px" preserveAspectRatio="none" style="width:893px;height:565px;background:#FFFFFF;" version="1.1" viewBox="0 0 893 565" width="893px" zoomAndPan="magnify"><defs/><g><rect fill="#FFFFFF" height="130.75" style="stroke:#181818;stroke-width:1.0;" width="10" x="135" y="114.05"/><rect fill="#FFFFFF" height="28.95" style="stroke:#181818;stroke-width:1.0;" width="10" x="135" y="323.65"/><rect fill="#FFFFFF" height="28.95" style="stroke:#181818;stroke-width:1.0;" width="10" x="135" y="511.35"/><rect fill="#FFFFFF" height="28.95" style="stroke:#181818;stroke-width:1.0;" width="10" x="855" y="143"/><rect fill="#FFFFFF" height="28.95" style="stroke:#181818;stroke-width:1.0;" width="10" x="855" y="215.85"/><rect fill="#FFFFFF" height="28.95" style="stroke:#181818;stroke-width:1.0;" width="10" x="855" y="323.65"/><rect fill="#FFFFFF" height="28.95" style="stroke:#181818;stroke-width:1.0;" width="10" x="855" y="511.35"/><rect fill="none" height="58.9" style="stroke:#000000;stroke-width:1.5;" width="262" x="70" y="367.6"/><line style="stroke:#181818;stroke-width:0.5;stroke-dasharray:5.0,5.0;" x1="37" x2="37" y1="83.1" y2="558.3"/><line style="stroke:#181818;stroke-width:0.5;stroke-dasharray:5.0,5.0;" x1="140" x2="140" y1="83.1" y2="558.3"/><line style="stroke:#181818;stroke-width:0.5;stroke-dasharray:5.0,5.0;" x1="859.5" x2="859.5" y1="83.1" y2="558.3"/><text fill="#000000" font-family="NanumGothic" font-size="14" lengthAdjust="spacing" textLength="59" x="5" y="79.88">EV Driver</text><ellipse cx="37.5" cy="14.5" fill="#E2E2F0" rx="8" ry="8" style="stroke:#7D5393;stroke-width:1.5;"/><path d="M37.5,22.5 L37.5,49.5 M24.5,30.5 L50.5,30.5 M37.5,49.5 L24.5,64.5 M37.5,49.5 L50.5,64.5 " fill="none" style="stroke:#7D5393;stroke-width:1.5;"/><rect fill="#7D5393" height="30.1" rx="2.5" ry="2.5" style="stroke:#181818;stroke-width:0.5;" width="120" x="80" y="52"/><text fill="#FFFFFF" font-family="NanumGothic" font-size="14" lengthAdjust="spacing" textLength="106" x="87" y="71.88">Charging Station</text><rect fill="#7D5393" height="30.1" rx="2.5" ry="2.5" style="stroke:#181818;stroke-width:0.5;" width="53" x="833.5" y="52"/><text fill="#FFFFFF" font-family="NanumGothic" font-size="14" lengthAdjust="spacing" textLength="39" x="840.5" y="71.88">CSMS</text><rect fill="#FFFFFF" height="130.75" style="stroke:#181818;stroke-width:1.0;" width="10" x="135" y="114.05"/><rect fill="#FFFFFF" height="28.95" style="stroke:#181818;stroke-width:1.0;" width="10" x="135" y="323.65"/><rect fill="#FFFFFF" height="28.95" style="stroke:#181818;stroke-width:1.0;" width="10" x="135" y="511.35"/><rect fill="#FFFFFF" height="28.95" style="stroke:#181818;stroke-width:1.0;" width="10" x="855" y="143"/><rect fill="#FFFFFF" height="28.95" style="stroke:#181818;stroke-width:1.0;" width="10" x="855" y="215.85"/><rect fill="#FFFFFF" height="28.95" style="stroke:#181818;stroke-width:1.0;" width="10" x="855" y="323.65"/><rect fill="#FFFFFF" height="28.95" style="stroke:#181818;stroke-width:1.0;" width="10" x="855" y="511.35"/><polygon fill="#181818" points="123,110.05,133,114.05,123,118.05,127,114.05" style="stroke:#181818;stroke-width:1.0;"/><line style="stroke:#181818;stroke-width:1.0;" x1="37.5" x2="129" y1="114.05" y2="114.05"/><text fill="#000000" font-family="NanumGothic" font-size="13" lengthAdjust="spacing" textLength="73" x="44.5" y="109.06">plugin cable</text><polygon fill="#181818" points="843,139,853,143,843,147,847,143" style="stroke:#181818;stroke-width:1.0;"/><line style="stroke:#181818;stroke-width:1.0;" x1="145" x2="849" y1="143" y2="143"/><text fill="#000000" font-family="NanumGothic" font-size="13" lengthAdjust="spacing" textLength="223" x="152" y="138.01">StatusNotificationRequest(Occupied)</text><polygon fill="#181818" points="156,167.95,146,171.95,156,175.95,152,171.95" style="stroke:#181818;stroke-width:1.0;"/><line style="stroke:#181818;stroke-width:1.0;stroke-dasharray:2.0,2.0;" x1="150" x2="859" y1="171.95" y2="171.95"/><text fill="#000000" font-family="NanumGothic" font-size="13" lengthAdjust="spacing" textLength="176" x="162" y="166.96">StatusNotificationResponse()</text><polygon fill="#181818" points="843,211.85,853,215.85,843,219.85,847,215.85" style="stroke:#181818;stroke-width:1.0;"/><line style="stroke:#181818;stroke-width:1.0;" x1="145" x2="849" y1="215.85" y2="215.85"/><text fill="#000000" font-family="NanumGothic" font-size="13" lengthAdjust="spacing" textLength="679" x="152" y="195.91">TransactionEventRequest(eventType = Started, triggerReason = CablePluggedIn, chargingState = EVConnected,</text><text fill="#000000" font-family="NanumGothic" font-size="13" lengthAdjust="spacing" textLength="536" x="152" y="210.86">transactionId = AB1234, timestamp, evse.id = 1, evse.connectorId = 1, meterValues, ...)</text><polygon fill="#181818" points="151,240.8,141,244.8,151,248.8,147,244.8" style="stroke:#181818;stroke-width:1.0;"/><line style="stroke:#181818;stroke-width:1.0;stroke-dasharray:2.0,2.0;" x1="145" x2="859" y1="244.8" y2="244.8"/><text fill="#000000" font-family="NanumGothic" font-size="13" lengthAdjust="spacing" textLength="183" x="157" y="239.81">TransactionEventResponse(...)</text><path d="M10,257.8 L10,281.8 L886,281.8 L886,267.8 L876,257.8 L10,257.8 " fill="#7D5393" style="stroke:#000000;stroke-width:0.5;"/><path d="M876,257.8 L876,267.8 L886,267.8 L876,257.8 " fill="#7D5393" style="stroke:#000000;stroke-width:0.5;"/><text fill="#FFFFFF" font-family="NanumGothic" font-size="13" lengthAdjust="spacing" textLength="181" x="353.25" y="274.76">User authorization successful.</text><polygon fill="#181818" points="843,319.65,853,323.65,843,327.65,847,323.65" style="stroke:#181818;stroke-width:1.0;"/><line style="stroke:#181818;stroke-width:1.0;" x1="145" x2="849" y1="323.65" y2="323.65"/><text fill="#000000" font-family="NanumGothic" font-size="13" lengthAdjust="spacing" textLength="564" x="152" y="303.71">TransactionEventRequest(eventType = Updated, transactionId = AB1234, idToken.id = 1234,</text><text fill="#000000" font-family="NanumGothic" font-size="13" lengthAdjust="spacing" textLength="351" x="152" y="318.66">timestamp, triggerReason = Authorized, meterValues, ...)</text><polygon fill="#181818" points="151,348.6,141,352.6,151,356.6,147,352.6" style="stroke:#181818;stroke-width:1.0;"/><line style="stroke:#181818;stroke-width:1.0;stroke-dasharray:2.0,2.0;" x1="145" x2="859" y1="352.6" y2="352.6"/><text fill="#000000" font-family="NanumGothic" font-size="13" lengthAdjust="spacing" textLength="183" x="157" y="347.61">TransactionEventResponse(...)</text><path d="M70,367.6 L130,367.6 L130,374.55 L120,384.55 L70,384.55 L70,367.6 " fill="#EEEEEE" style="stroke:#000000;stroke-width:1.5;"/><rect fill="none" height="58.9" style="stroke:#000000;stroke-width:1.5;" width="262" x="70" y="367.6"/><text fill="#000000" font-family="NanumGothic" font-size="13" font-weight="bold" lengthAdjust="spacing" textLength="15" x="85" y="380.56">alt</text><text fill="#000000" font-family="NanumGothic" font-size="11" font-weight="bold" lengthAdjust="spacing" textLength="182" x="145" y="379.72">[if cable not permanently attached]</text><line style="stroke:#181818;stroke-width:1.0;" x1="140" x2="182" y1="405.5" y2="405.5"/><line style="stroke:#181818;stroke-width:1.0;" x1="182" x2="182" y1="405.5" y2="418.5"/><line style="stroke:#181818;stroke-width:1.0;" x1="141" x2="182" y1="418.5" y2="418.5"/><polygon fill="#181818" points="151,414.5,141,418.5,151,422.5,147,418.5" style="stroke:#181818;stroke-width:1.0;"/><text fill="#000000" font-family="NanumGothic" font-size="13" lengthAdjust="spacing" textLength="89" x="147" y="400.51">lock connector</text><line style="stroke:#181818;stroke-width:1.0;" x1="140" x2="182" y1="454.45" y2="454.45"/><line style="stroke:#181818;stroke-width:1.0;" x1="182" x2="182" y1="454.45" y2="467.45"/><line style="stroke:#181818;stroke-width:1.0;" x1="141" x2="182" y1="467.45" y2="467.45"/><polygon fill="#181818" points="151,463.45,141,467.45,151,471.45,147,467.45" style="stroke:#181818;stroke-width:1.0;"/><text fill="#000000" font-family="NanumGothic" font-size="13" lengthAdjust="spacing" textLength="107" x="147" y="449.46">start energy offer</text><polygon fill="#181818" points="843,507.35,853,511.35,843,515.35,847,511.35" style="stroke:#181818;stroke-width:1.0;"/><line style="stroke:#181818;stroke-width:1.0;" x1="145" x2="849" y1="511.35" y2="511.35"/><text fill="#000000" font-family="NanumGothic" font-size="13" lengthAdjust="spacing" textLength="444" x="152" y="491.41">TransactionEventRequest(eventType = Updated, transactionId = AB1234,</text><text fill="#000000" font-family="NanumGothic" font-size="13" lengthAdjust="spacing" textLength="591" x="152" y="506.36">timestamp, chargingState = Charging, triggerReason = ChargingStateChanged, meterValues, ...)</text><polygon fill="#181818" points="151,536.3,141,540.3,151,544.3,147,540.3" style="stroke:#181818;stroke-width:1.0;"/><line style="stroke:#181818;stroke-width:1.0;stroke-dasharray:2.0,2.0;" x1="145" x2="859" y1="540.3" y2="540.3"/><text fill="#000000" font-family="NanumGothic" font-size="13" lengthAdjust="spacing" textLength="183" x="157" y="535.31">TransactionEventResponse(...)</text><!--SRC=[pLHDRzim3BtxLt0vjO1heDjE1JgWpNB8OHzeqfnwuIJQ4IfJcYG7o7xz97-iWUfj68OLknWcHJu-loVwbMAXEqdWmr5JPRjM5mMAO1miLZjuxzI1t0BGmset18L55vHG5Zd0Ohb7roXkO1CmACDzwPGSSrd7viDcg8elHJ71miMxlEyAhEvY30A_Q4gir043FOCliaGF5S6lUbAT_sY2gfNep-xeQqS-d7qIehEAvFa9RCydFU5YZimScBU6FPsT5v9od9zn0jWwP9_A3QyEn67YH2dO7Yt1THhc0iaIWbDDG-wEq4UKQrWcBJv7NHgIQov1dCn9ZQlTqZ2Jw9i17ZWyJLlBM71pU_dwpTi8hDeu55jR0XqyLIeTNew1632CMu_PbWAv7Uf8j8Igglv0j-UVEwhMm-J2dSQvpsnYrgJBCjsQScW2kFSnYrtO6wU-3OhxJWZolkvqLH1BIDr_xSkzbJZwCY-hablpI3pAsQUI2KzYvuRUZAGJwEzK_iKAl83yg0EeUjZ6f2POSYronDH7m11Gx4b6B-Oapbbf8nxXnorB_inRa_Vvj1T0JAuvWgdh-3_wvvPc1kORDusVsTNJoXXmyz-R_1q0]--></g></svg>