<?xml version="1.0" encoding="us-ascii" standalone="no"?><svg xmlns="http://www.w3.org/2000/svg" xmlns:xlink="http://www.w3.org/1999/xlink" contentStyleType="text/css" height="886px" preserveAspectRatio="none" style="width:812px;height:886px;background:#FFFFFF;" version="1.1" viewBox="0 0 812 886" width="812px" zoomAndPan="magnify"><defs/><g><rect fill="#FFFFFF" height="57.9" style="stroke:#181818;stroke-width:1.0;" width="10" x="120" y="172.95"/><rect fill="#FFFFFF" height="28.95" style="stroke:#181818;stroke-width:1.0;" width="10" x="120" y="307.7"/><rect fill="#FFFFFF" height="57.9" style="stroke:#181818;stroke-width:1.0;" width="10" x="120" y="465.15"/><rect fill="#FFFFFF" height="28.95" style="stroke:#181818;stroke-width:1.0;" width="10" x="120" y="599.9"/><rect fill="#FFFFFF" height="28.95" style="stroke:#181818;stroke-width:1.0;" width="10" x="120" y="811.55"/><rect fill="#FFFFFF" height="219.65" style="stroke:#181818;stroke-width:1.0;" width="10" x="509" y="201.9"/><rect fill="#FFFFFF" height="376.4" style="stroke:#181818;stroke-width:1.0;" width="10" x="509" y="494.1"/><rect fill="none" height="727.45" style="stroke:#000000;stroke-width:1.5;" width="790" x="10" y="135.05"/><rect fill="none" height="105.8" style="stroke:#000000;stroke-width:1.5;" width="515.5" x="78.5" y="245.85"/><rect fill="none" height="74.85" style="stroke:#000000;stroke-width:1.5;" width="495.5" x="88.5" y="269.8"/><rect fill="none" height="105.8" style="stroke:#000000;stroke-width:1.5;" width="515.5" x="78.5" y="538.05"/><rect fill="none" height="74.85" style="stroke:#000000;stroke-width:1.5;" width="495.5" x="88.5" y="562"/><rect fill="none" height="105.8" style="stroke:#000000;stroke-width:1.5;" width="515.5" x="78.5" y="749.7"/><rect fill="none" height="74.85" style="stroke:#000000;stroke-width:1.5;" width="495.5" x="88.5" y="773.65"/><line style="stroke:#181818;stroke-width:0.5;stroke-dasharray:5.0,5.0;" x1="37" x2="37" y1="83.1" y2="879.5"/><line style="stroke:#181818;stroke-width:0.5;stroke-dasharray:5.0,5.0;" x1="124.5" x2="124.5" y1="83.1" y2="879.5"/><line style="stroke:#181818;stroke-width:0.5;stroke-dasharray:5.0,5.0;" x1="514" x2="514" y1="83.1" y2="879.5"/><text fill="#000000" font-family="NanumGothic" font-size="14" lengthAdjust="spacing" textLength="28" x="20" y="79.88">CSO</text><ellipse cx="37" cy="14.5" fill="#E2E2F0" rx="8" ry="8" style="stroke:#7D5393;stroke-width:1.5;"/><path d="M37,22.5 L37,49.5 M24,30.5 L50,30.5 M37,49.5 L24,64.5 M37,49.5 L50,64.5 " fill="none" style="stroke:#7D5393;stroke-width:1.5;"/><rect fill="#7D5393" height="30.1" rx="2.5" ry="2.5" style="stroke:#181818;stroke-width:0.5;" width="53" x="98.5" y="52"/><text fill="#FFFFFF" font-family="NanumGothic" font-size="14" lengthAdjust="spacing" textLength="39" x="105.5" y="71.88">CSMS</text><rect fill="#7D5393" height="30.1" rx="2.5" ry="2.5" style="stroke:#181818;stroke-width:0.5;" width="120" x="454" y="52"/><text fill="#FFFFFF" font-family="NanumGothic" font-size="14" lengthAdjust="spacing" textLength="106" x="461" y="71.88">Charging Station</text><rect fill="#FFFFFF" height="57.9" style="stroke:#181818;stroke-width:1.0;" width="10" x="120" y="172.95"/><rect fill="#FFFFFF" height="28.95" style="stroke:#181818;stroke-width:1.0;" width="10" x="120" y="307.7"/><rect fill="#FFFFFF" height="57.9" style="stroke:#181818;stroke-width:1.0;" width="10" x="120" y="465.15"/><rect fill="#FFFFFF" height="28.95" style="stroke:#181818;stroke-width:1.0;" width="10" x="120" y="599.9"/><rect fill="#FFFFFF" height="28.95" style="stroke:#181818;stroke-width:1.0;" width="10" x="120" y="811.55"/><rect fill="#FFFFFF" height="219.65" style="stroke:#181818;stroke-width:1.0;" width="10" x="509" y="201.9"/><rect fill="#FFFFFF" height="376.4" style="stroke:#181818;stroke-width:1.0;" width="10" x="509" y="494.1"/><path d="M348,98.1 L348,122.1 L509,122.1 L509,108.1 L499,98.1 L348,98.1 " fill="#7D5393" style="stroke:#000000;stroke-width:0.5;"/><path d="M499,98.1 L499,108.1 L509,108.1 L499,98.1 " fill="#7D5393" style="stroke:#000000;stroke-width:0.5;"/><text fill="#FFFFFF" font-family="NanumGothic" font-size="13" lengthAdjust="spacing" textLength="140" x="354" y="115.06">No transaction is active</text><path d="M10,135.05 L70,135.05 L70,142 L60,152 L10,152 L10,135.05 " fill="#EEEEEE" style="stroke:#000000;stroke-width:1.5;"/><rect fill="none" height="727.45" style="stroke:#000000;stroke-width:1.5;" width="790" x="10" y="135.05"/><text fill="#000000" font-family="NanumGothic" font-size="13" font-weight="bold" lengthAdjust="spacing" textLength="15" x="25" y="148.01">alt</text><text fill="#000000" font-family="NanumGothic" font-size="11" font-weight="bold" lengthAdjust="spacing" textLength="127" x="85" y="147.17">[Reset Charging Station]</text><polygon fill="#181818" points="108,168.95,118,172.95,108,176.95,112,172.95" style="stroke:#181818;stroke-width:1.0;"/><line style="stroke:#181818;stroke-width:1.0;" x1="37" x2="114" y1="172.95" y2="172.95"/><text fill="#000000" font-family="NanumGothic" font-size="13" lengthAdjust="spacing" textLength="50" x="44" y="167.96">reset CS</text><polygon fill="#181818" points="497,197.9,507,201.9,497,205.9,501,201.9" style="stroke:#181818;stroke-width:1.0;"/><line style="stroke:#181818;stroke-width:1.0;" x1="130" x2="503" y1="201.9" y2="201.9"/><text fill="#000000" font-family="NanumGothic" font-size="13" lengthAdjust="spacing" textLength="206" x="137" y="196.91">ResetRequest(OnIdle | Immediate)</text><polygon fill="#181818" points="136,226.85,126,230.85,136,234.85,132,230.85" style="stroke:#181818;stroke-width:1.0;"/><line style="stroke:#181818;stroke-width:1.0;stroke-dasharray:2.0,2.0;" x1="130" x2="508" y1="230.85" y2="230.85"/><text fill="#000000" font-family="NanumGothic" font-size="13" lengthAdjust="spacing" textLength="138" x="142" y="225.86">ResetResponse(status)</text><path d="M78.5,245.85 L144.5,245.85 L144.5,252.8 L134.5,262.8 L78.5,262.8 L78.5,245.85 " fill="#EEEEEE" style="stroke:#000000;stroke-width:1.5;"/><rect fill="none" height="105.8" style="stroke:#000000;stroke-width:1.5;" width="515.5" x="78.5" y="245.85"/><text fill="#000000" font-family="NanumGothic" font-size="13" font-weight="bold" lengthAdjust="spacing" textLength="21" x="93.5" y="258.81">opt</text><text fill="#000000" font-family="NanumGothic" font-size="11" font-weight="bold" lengthAdjust="spacing" textLength="261" x="159.5" y="257.97">[Report all connectors as Unavailable during reset]</text><path d="M88.5,269.8 L160.5,269.8 L160.5,276.75 L150.5,286.75 L88.5,286.75 L88.5,269.8 " fill="#EEEEEE" style="stroke:#000000;stroke-width:1.5;"/><rect fill="none" height="74.85" style="stroke:#000000;stroke-width:1.5;" width="495.5" x="88.5" y="269.8"/><text fill="#000000" font-family="NanumGothic" font-size="13" font-weight="bold" lengthAdjust="spacing" textLength="27" x="103.5" y="282.76">loop</text><text fill="#000000" font-family="NanumGothic" font-size="11" font-weight="bold" lengthAdjust="spacing" textLength="160" x="175.5" y="281.92">[for all connectors of all EVSEs]</text><polygon fill="#181818" points="141,303.7,131,307.7,141,311.7,137,307.7" style="stroke:#181818;stroke-width:1.0;"/><line style="stroke:#181818;stroke-width:1.0;" x1="135" x2="508" y1="307.7" y2="307.7"/><text fill="#000000" font-family="NanumGothic" font-size="13" lengthAdjust="spacing" textLength="255" x="147" y="302.71">StatusNotificationRequest(Unavailable, ...)</text><polygon fill="#181818" points="497,332.65,507,336.65,497,340.65,501,336.65" style="stroke:#181818;stroke-width:1.0;"/><line style="stroke:#181818;stroke-width:1.0;stroke-dasharray:2.0,2.0;" x1="125" x2="503" y1="336.65" y2="336.65"/><text fill="#000000" font-family="NanumGothic" font-size="13" lengthAdjust="spacing" textLength="176" x="132" y="331.66">StatusNotificationResponse()</text><line style="stroke:#181818;stroke-width:1.0;" x1="519" x2="561" y1="379.6" y2="379.6"/><line style="stroke:#181818;stroke-width:1.0;" x1="561" x2="561" y1="379.6" y2="392.6"/><line style="stroke:#181818;stroke-width:1.0;" x1="520" x2="561" y1="392.6" y2="392.6"/><polygon fill="#181818" points="530,388.6,520,392.6,530,396.6,526,392.6" style="stroke:#181818;stroke-width:1.0;"/><text fill="#000000" font-family="NanumGothic" font-size="13" lengthAdjust="spacing" textLength="148" x="526" y="374.61">reboot Charging Station</text><ellipse cx="802.5" cy="420.8" fill="none" rx="4" ry="4" style="stroke:#181818;stroke-width:1.5;"/><polygon fill="#181818" points="785.5,417.55,795.5,421.55,785.5,425.55,789.5,421.55" style="stroke:#181818;stroke-width:1.0;"/><line style="stroke:#181818;stroke-width:1.0;" x1="514" x2="791.5" y1="421.55" y2="421.55"/><text fill="#000000" font-family="NanumGothic" font-size="13" lengthAdjust="spacing" textLength="265" x="521" y="416.56">Continue B01 - Cold Boot Charging Station</text><line style="stroke:#000000;stroke-width:1.0;stroke-dasharray:2.0,2.0;" x1="10" x2="800" y1="430.55" y2="430.55"/><text fill="#000000" font-family="NanumGothic" font-size="11" font-weight="bold" lengthAdjust="spacing" textLength="64" x="15" y="440.67">[Reset EVSE]</text><polygon fill="#181818" points="108,461.15,118,465.15,108,469.15,112,465.15" style="stroke:#181818;stroke-width:1.0;"/><line style="stroke:#181818;stroke-width:1.0;" x1="37" x2="114" y1="465.15" y2="465.15"/><text fill="#000000" font-family="NanumGothic" font-size="13" lengthAdjust="spacing" textLength="64" x="44" y="460.16">reset EVSE</text><polygon fill="#181818" points="497,490.1,507,494.1,497,498.1,501,494.1" style="stroke:#181818;stroke-width:1.0;"/><line style="stroke:#181818;stroke-width:1.0;" x1="130" x2="503" y1="494.1" y2="494.1"/><text fill="#000000" font-family="NanumGothic" font-size="13" lengthAdjust="spacing" textLength="251" x="137" y="489.11">ResetRequest(OnIdle | Immediate, evseId)</text><polygon fill="#181818" points="136,519.05,126,523.05,136,527.05,132,523.05" style="stroke:#181818;stroke-width:1.0;"/><line style="stroke:#181818;stroke-width:1.0;stroke-dasharray:2.0,2.0;" x1="130" x2="508" y1="523.05" y2="523.05"/><text fill="#000000" font-family="NanumGothic" font-size="13" lengthAdjust="spacing" textLength="138" x="142" y="518.06">ResetResponse(status)</text><path d="M78.5,538.05 L144.5,538.05 L144.5,545 L134.5,555 L78.5,555 L78.5,538.05 " fill="#EEEEEE" style="stroke:#000000;stroke-width:1.5;"/><rect fill="none" height="105.8" style="stroke:#000000;stroke-width:1.5;" width="515.5" x="78.5" y="538.05"/><text fill="#000000" font-family="NanumGothic" font-size="13" font-weight="bold" lengthAdjust="spacing" textLength="21" x="93.5" y="551.01">opt</text><text fill="#000000" font-family="NanumGothic" font-size="11" font-weight="bold" lengthAdjust="spacing" textLength="288" x="159.5" y="550.17">[Report connectors of EVSE as Unavailable during reset]</text><path d="M88.5,562 L160.5,562 L160.5,568.95 L150.5,578.95 L88.5,578.95 L88.5,562 " fill="#EEEEEE" style="stroke:#000000;stroke-width:1.5;"/><rect fill="none" height="74.85" style="stroke:#000000;stroke-width:1.5;" width="495.5" x="88.5" y="562"/><text fill="#000000" font-family="NanumGothic" font-size="13" font-weight="bold" lengthAdjust="spacing" textLength="27" x="103.5" y="574.96">loop</text><text fill="#000000" font-family="NanumGothic" font-size="11" font-weight="bold" lengthAdjust="spacing" textLength="140" x="175.5" y="574.12">[for all connectors of EVSE]</text><polygon fill="#181818" points="497,595.9,507,599.9,497,603.9,501,599.9" style="stroke:#181818;stroke-width:1.0;"/><line style="stroke:#181818;stroke-width:1.0;" x1="130" x2="503" y1="599.9" y2="599.9"/><text fill="#000000" font-family="NanumGothic" font-size="13" lengthAdjust="spacing" textLength="360" x="137" y="594.91">StatusNotificationRequest(Unavailable, evseId, connectorId)</text><polygon fill="#181818" points="136,624.85,126,628.85,136,632.85,132,628.85" style="stroke:#181818;stroke-width:1.0;"/><line style="stroke:#181818;stroke-width:1.0;stroke-dasharray:2.0,2.0;" x1="130" x2="508" y1="628.85" y2="628.85"/><text fill="#000000" font-family="NanumGothic" font-size="13" lengthAdjust="spacing" textLength="176" x="142" y="623.86">StatusNotificationResponse()</text><path d="M423,655.85 L423,694.85 L605,694.85 L605,665.85 L595,655.85 L423,655.85 " fill="#7D5393" style="stroke:#000000;stroke-width:0.5;"/><path d="M595,655.85 L595,665.85 L605,665.85 L595,655.85 " fill="#7D5393" style="stroke:#000000;stroke-width:0.5;"/><text fill="#FFFFFF" font-family="NanumGothic" font-size="13" lengthAdjust="spacing" textLength="161" x="429" y="672.81">reset EVSE without reboot</text><text fill="#FFFFFF" font-family="NanumGothic" font-size="13" lengthAdjust="spacing" textLength="120" x="429" y="687.76">of Charging Station</text><line style="stroke:#181818;stroke-width:1.0;" x1="519" x2="561" y1="721.7" y2="721.7"/><line style="stroke:#181818;stroke-width:1.0;" x1="561" x2="561" y1="721.7" y2="734.7"/><line style="stroke:#181818;stroke-width:1.0;" x1="520" x2="561" y1="734.7" y2="734.7"/><polygon fill="#181818" points="530,730.7,520,734.7,530,738.7,526,734.7" style="stroke:#181818;stroke-width:1.0;"/><text fill="#000000" font-family="NanumGothic" font-size="13" lengthAdjust="spacing" textLength="64" x="526" y="716.71">reset EVSE</text><path d="M78.5,749.7 L144.5,749.7 L144.5,756.65 L134.5,766.65 L78.5,766.65 L78.5,749.7 " fill="#EEEEEE" style="stroke:#000000;stroke-width:1.5;"/><rect fill="none" height="105.8" style="stroke:#000000;stroke-width:1.5;" width="515.5" x="78.5" y="749.7"/><text fill="#000000" font-family="NanumGothic" font-size="13" font-weight="bold" lengthAdjust="spacing" textLength="21" x="93.5" y="762.66">opt</text><text fill="#000000" font-family="NanumGothic" font-size="11" font-weight="bold" lengthAdjust="spacing" textLength="209" x="159.5" y="761.82">[Report connectors of EVSE as Available]</text><path d="M88.5,773.65 L160.5,773.65 L160.5,780.6 L150.5,790.6 L88.5,790.6 L88.5,773.65 " fill="#EEEEEE" style="stroke:#000000;stroke-width:1.5;"/><rect fill="none" height="74.85" style="stroke:#000000;stroke-width:1.5;" width="495.5" x="88.5" y="773.65"/><text fill="#000000" font-family="NanumGothic" font-size="13" font-weight="bold" lengthAdjust="spacing" textLength="27" x="103.5" y="786.61">loop</text><text fill="#000000" font-family="NanumGothic" font-size="11" font-weight="bold" lengthAdjust="spacing" textLength="140" x="175.5" y="785.77">[for all connectors of EVSE]</text><polygon fill="#181818" points="141,807.55,131,811.55,141,815.55,137,811.55" style="stroke:#181818;stroke-width:1.0;"/><line style="stroke:#181818;stroke-width:1.0;" x1="135" x2="508" y1="811.55" y2="811.55"/><text fill="#000000" font-family="NanumGothic" font-size="13" lengthAdjust="spacing" textLength="360" x="147" y="806.56">StatusNotificationRequest(Unavailable, evseId, connectorId)</text><polygon fill="#181818" points="497,836.5,507,840.5,497,844.5,501,840.5" style="stroke:#181818;stroke-width:1.0;"/><line style="stroke:#181818;stroke-width:1.0;stroke-dasharray:2.0,2.0;" x1="125" x2="503" y1="840.5" y2="840.5"/><text fill="#000000" font-family="NanumGothic" font-size="13" lengthAdjust="spacing" textLength="176" x="132" y="835.51">StatusNotificationResponse()</text><!--SRC=[lLGzRzim4DtrArup9O1jjAk70esHmOCJ84AxTM2aSqA0vgdaoKM1_lYI51tRCWCuID954kxptRkd-wHjO_gMuEMFeLdNRqnLgKROuM9Htrr0UOHtrIadkj6TiX8TgpfxLlN8zQJSexQFg4M9PZk4PMEsLPLb8HXQ2tXzuWLk6UAKzG57C41xnAyjLMHRnDm0qGZkoPDWt37a1y2OVatevd13L1tigOeAhHFk5BYgK-GnXFbG-fv-zUJbyiukMqFuY-LcGwqE1QwEYesdmzY4wJEQNDXtR3rT-k3lVQpMqWauxkA87Jk1CWODMqjnCJvI-jsghT96FGHWRU_Y_6dGa0SOvWxhiC9HNY0xMcv-r3S-1HQGxe3M2TejYrxh9lbsT1oqdc0scrtbKYS3fFg9uHB5fGQPbbt5CIdH5YHG3S-gZ7xSnz43Sq4cnNJ-EL-m5MrxmlNdBvXYmQR5TR72CS2H2iXuoWgDV9TLcJtlfii9QEjfsVvlVHvhB4xr5ercLlRoELCz1NaET4ps3GPkNfRhYyIyXrpJsUCjkSBDmu4ay5lB4_UIjPky1uVoG83xWtZkp_0iktCs-6t7v6jMziQBykgLVU25YOz_]--></g></svg>