<?xml version="1.0" encoding="us-ascii" standalone="no"?><svg xmlns="http://www.w3.org/2000/svg" xmlns:xlink="http://www.w3.org/1999/xlink" contentStyleType="text/css" height="937px" preserveAspectRatio="none" style="width:878px;height:937px;background:#FFFFFF;" version="1.1" viewBox="0 0 878 937" width="878px" zoomAndPan="magnify"><defs/><g><rect fill="#FFFFFF" height="114.8" style="stroke:#181818;stroke-width:1.0;" width="10" x="215.5" y="149"/><rect fill="#FFFFFF" height="114.8" style="stroke:#181818;stroke-width:1.0;" width="10" x="215.5" y="316.7"/><rect fill="#FFFFFF" height="77.85" style="stroke:#181818;stroke-width:1.0;" width="10" x="215.5" y="553"/><rect fill="#FFFFFF" height="57.9" style="stroke:#181818;stroke-width:1.0;" width="10" x="215.5" y="659.8"/><rect fill="#FFFFFF" height="135.75" style="stroke:#181818;stroke-width:1.0;" width="10" x="215.5" y="769.3"/><rect fill="#FFFFFF" height="28.95" style="stroke:#181818;stroke-width:1.0;" width="10" x="829.5" y="234.85"/><rect fill="#FFFFFF" height="28.95" style="stroke:#181818;stroke-width:1.0;" width="10" x="829.5" y="402.55"/><rect fill="#FFFFFF" height="28.95" style="stroke:#181818;stroke-width:1.0;" width="10" x="829.5" y="601.9"/><rect fill="#FFFFFF" height="28.95" style="stroke:#181818;stroke-width:1.0;" width="10" x="829.5" y="688.75"/><rect fill="#FFFFFF" height="28.95" style="stroke:#181818;stroke-width:1.0;" width="10" x="829.5" y="818.2"/><rect fill="#FFFFFF" height="28.95" style="stroke:#181818;stroke-width:1.0;" width="10" x="829.5" y="876.1"/><rect fill="none" height="634.25" style="stroke:#000000;stroke-width:1.5;" width="861" x="10" y="278.8"/><line style="stroke:#181818;stroke-width:0.5;stroke-dasharray:5.0,5.0;" x1="52" x2="52" y1="83.1" y2="930.05"/><line style="stroke:#181818;stroke-width:0.5;stroke-dasharray:5.0,5.0;" x1="220.5" x2="220.5" y1="83.1" y2="930.05"/><line style="stroke:#181818;stroke-width:0.5;stroke-dasharray:5.0,5.0;" x1="834" x2="834" y1="83.1" y2="930.05"/><text fill="#000000" font-family="NanumGothic" font-size="14" lengthAdjust="spacing" textLength="59" x="20" y="79.88">EV Driver</text><ellipse cx="52.5" cy="14.5" fill="#E2E2F0" rx="8" ry="8" style="stroke:#7D5393;stroke-width:1.5;"/><path d="M52.5,22.5 L52.5,49.5 M39.5,30.5 L65.5,30.5 M52.5,49.5 L39.5,64.5 M52.5,49.5 L65.5,64.5 " fill="none" style="stroke:#7D5393;stroke-width:1.5;"/><rect fill="#7D5393" height="30.1" rx="2.5" ry="2.5" style="stroke:#181818;stroke-width:0.5;" width="120" x="160.5" y="52"/><text fill="#FFFFFF" font-family="NanumGothic" font-size="14" lengthAdjust="spacing" textLength="106" x="167.5" y="71.88">Charging Station</text><rect fill="#7D5393" height="30.1" rx="2.5" ry="2.5" style="stroke:#181818;stroke-width:0.5;" width="53" x="808" y="52"/><text fill="#FFFFFF" font-family="NanumGothic" font-size="14" lengthAdjust="spacing" textLength="39" x="815" y="71.88">CSMS</text><rect fill="#FFFFFF" height="114.8" style="stroke:#181818;stroke-width:1.0;" width="10" x="215.5" y="149"/><rect fill="#FFFFFF" height="114.8" style="stroke:#181818;stroke-width:1.0;" width="10" x="215.5" y="316.7"/><rect fill="#FFFFFF" height="77.85" style="stroke:#181818;stroke-width:1.0;" width="10" x="215.5" y="553"/><rect fill="#FFFFFF" height="57.9" style="stroke:#181818;stroke-width:1.0;" width="10" x="215.5" y="659.8"/><rect fill="#FFFFFF" height="135.75" style="stroke:#181818;stroke-width:1.0;" width="10" x="215.5" y="769.3"/><rect fill="#FFFFFF" height="28.95" style="stroke:#181818;stroke-width:1.0;" width="10" x="829.5" y="234.85"/><rect fill="#FFFFFF" height="28.95" style="stroke:#181818;stroke-width:1.0;" width="10" x="829.5" y="402.55"/><rect fill="#FFFFFF" height="28.95" style="stroke:#181818;stroke-width:1.0;" width="10" x="829.5" y="601.9"/><rect fill="#FFFFFF" height="28.95" style="stroke:#181818;stroke-width:1.0;" width="10" x="829.5" y="688.75"/><rect fill="#FFFFFF" height="28.95" style="stroke:#181818;stroke-width:1.0;" width="10" x="829.5" y="818.2"/><rect fill="#FFFFFF" height="28.95" style="stroke:#181818;stroke-width:1.0;" width="10" x="829.5" y="876.1"/><path d="M25,98.1 L25,122.1 L861,122.1 L861,108.1 L851,98.1 L25,98.1 " fill="#7D5393" style="stroke:#000000;stroke-width:0.5;"/><path d="M851,98.1 L851,108.1 L861,108.1 L851,98.1 " fill="#7D5393" style="stroke:#000000;stroke-width:0.5;"/><text fill="#FFFFFF" font-family="NanumGothic" font-size="13" lengthAdjust="spacing" textLength="153" x="362" y="115.06">A transaction is ongoing.</text><polygon fill="#181818" points="203.5,145,213.5,149,203.5,153,207.5,149" style="stroke:#181818;stroke-width:1.0;"/><line style="stroke:#181818;stroke-width:1.0;" x1="52.5" x2="209.5" y1="149" y2="149"/><text fill="#000000" font-family="NanumGothic" font-size="13" lengthAdjust="spacing" textLength="144" x="59.5" y="144.01">unplug cable at car side</text><line style="stroke:#181818;stroke-width:1.0;" x1="225.5" x2="267.5" y1="177.95" y2="177.95"/><line style="stroke:#181818;stroke-width:1.0;" x1="267.5" x2="267.5" y1="177.95" y2="190.95"/><line style="stroke:#181818;stroke-width:1.0;" x1="226.5" x2="267.5" y1="190.95" y2="190.95"/><polygon fill="#181818" points="236.5,186.95,226.5,190.95,236.5,194.95,232.5,190.95" style="stroke:#181818;stroke-width:1.0;"/><text fill="#000000" font-family="NanumGothic" font-size="13" lengthAdjust="spacing" textLength="130" x="232.5" y="172.96">suspend energy offer</text><polygon fill="#181818" points="817.5,230.85,827.5,234.85,817.5,238.85,821.5,234.85" style="stroke:#181818;stroke-width:1.0;"/><line style="stroke:#181818;stroke-width:1.0;" x1="225.5" x2="823.5" y1="234.85" y2="234.85"/><text fill="#000000" font-family="NanumGothic" font-size="13" lengthAdjust="spacing" textLength="541" x="232.5" y="214.91">TransactionEventRequest(eventType = Updated, transactionId = AB1234, seqNo = N + 1,</text><text fill="#000000" font-family="NanumGothic" font-size="13" lengthAdjust="spacing" textLength="585" x="232.5" y="229.86">timestamp, chargingState = SuspendedEV, triggerReason  EVCommunicationLost, meterValues)</text><polygon fill="#181818" points="231.5,259.8,221.5,263.8,231.5,267.8,227.5,263.8" style="stroke:#181818;stroke-width:1.0;"/><line style="stroke:#181818;stroke-width:1.0;stroke-dasharray:2.0,2.0;" x1="225.5" x2="833.5" y1="263.8" y2="263.8"/><text fill="#000000" font-family="NanumGothic" font-size="13" lengthAdjust="spacing" textLength="171" x="237.5" y="258.81">TransactionEventResponse()</text><path d="M10,278.8 L70,278.8 L70,285.75 L60,295.75 L10,295.75 L10,278.8 " fill="#EEEEEE" style="stroke:#000000;stroke-width:1.5;"/><rect fill="none" height="634.25" style="stroke:#000000;stroke-width:1.5;" width="861" x="10" y="278.8"/><text fill="#000000" font-family="NanumGothic" font-size="13" font-weight="bold" lengthAdjust="spacing" textLength="15" x="25" y="291.76">alt</text><text fill="#000000" font-family="NanumGothic" font-size="11" font-weight="bold" lengthAdjust="spacing" textLength="118" x="85" y="290.92">[if Cable is plugged in]</text><polygon fill="#181818" points="203.5,312.7,213.5,316.7,203.5,320.7,207.5,316.7" style="stroke:#181818;stroke-width:1.0;"/><line style="stroke:#181818;stroke-width:1.0;" x1="52.5" x2="209.5" y1="316.7" y2="316.7"/><text fill="#000000" font-family="NanumGothic" font-size="13" lengthAdjust="spacing" textLength="73" x="59.5" y="311.71">plugin cable</text><line style="stroke:#181818;stroke-width:1.0;" x1="225.5" x2="267.5" y1="345.65" y2="345.65"/><line style="stroke:#181818;stroke-width:1.0;" x1="267.5" x2="267.5" y1="345.65" y2="358.65"/><line style="stroke:#181818;stroke-width:1.0;" x1="226.5" x2="267.5" y1="358.65" y2="358.65"/><polygon fill="#181818" points="236.5,354.65,226.5,358.65,236.5,362.65,232.5,358.65" style="stroke:#181818;stroke-width:1.0;"/><text fill="#000000" font-family="NanumGothic" font-size="13" lengthAdjust="spacing" textLength="124" x="232.5" y="340.66">resume energy offer</text><polygon fill="#181818" points="817.5,398.55,827.5,402.55,817.5,406.55,821.5,402.55" style="stroke:#181818;stroke-width:1.0;"/><line style="stroke:#181818;stroke-width:1.0;" x1="225.5" x2="823.5" y1="402.55" y2="402.55"/><text fill="#000000" font-family="NanumGothic" font-size="13" lengthAdjust="spacing" textLength="541" x="232.5" y="382.61">TransactionEventRequest(eventType = Updated, transactionId = AB1234, seqNo = N + 2,</text><text fill="#000000" font-family="NanumGothic" font-size="13" lengthAdjust="spacing" textLength="524" x="232.5" y="397.56">timestamp, chargingState = Charging, triggerReason = CablePluggedIn, meterValues)</text><polygon fill="#181818" points="231.5,427.5,221.5,431.5,231.5,435.5,227.5,431.5" style="stroke:#181818;stroke-width:1.0;"/><line style="stroke:#181818;stroke-width:1.0;stroke-dasharray:2.0,2.0;" x1="225.5" x2="833.5" y1="431.5" y2="431.5"/><text fill="#000000" font-family="NanumGothic" font-size="13" lengthAdjust="spacing" textLength="171" x="237.5" y="426.51">TransactionEventResponse()</text><path d="M225,444.5 L225,468.5 L677,468.5 L677,454.5 L667,444.5 L225,444.5 " fill="#7D5393" style="stroke:#000000;stroke-width:0.5;"/><path d="M667,444.5 L667,454.5 L677,454.5 L667,444.5 " fill="#7D5393" style="stroke:#000000;stroke-width:0.5;"/><text fill="#FFFFFF" font-family="NanumGothic" font-size="13" lengthAdjust="spacing" textLength="431" x="231" y="461.46">Continue with E02 - Start Transaction - Cable Plugin First from Ref #1.</text><line style="stroke:#000000;stroke-width:1.0;stroke-dasharray:2.0,2.0;" x1="10" x2="871" y1="475.45" y2="475.45"/><text fill="#000000" font-family="NanumGothic" font-size="11" font-weight="bold" lengthAdjust="spacing" textLength="185" x="15" y="485.57">[if cable not permanently attached.]</text><path d="M25,494.1 L25,518.1 L861,518.1 L861,504.1 L851,494.1 L25,494.1 " fill="#7D5393" style="stroke:#000000;stroke-width:0.5;"/><path d="M851,494.1 L851,504.1 L861,504.1 L851,494.1 " fill="#7D5393" style="stroke:#000000;stroke-width:0.5;"/><text fill="#FFFFFF" font-family="NanumGothic" font-size="13" lengthAdjust="spacing" textLength="181" x="348" y="511.06">User authorization successful.</text><line style="stroke:#181818;stroke-width:1.0;" x1="220.5" x2="267.5" y1="540" y2="540"/><line style="stroke:#181818;stroke-width:1.0;" x1="267.5" x2="267.5" y1="540" y2="553"/><line style="stroke:#181818;stroke-width:1.0;" x1="226.5" x2="267.5" y1="553" y2="553"/><polygon fill="#181818" points="236.5,549,226.5,553,236.5,557,232.5,553" style="stroke:#181818;stroke-width:1.0;"/><text fill="#000000" font-family="NanumGothic" font-size="13" lengthAdjust="spacing" textLength="105" x="232.5" y="535.01">unlock connector</text><polygon fill="#181818" points="817.5,597.9,827.5,601.9,817.5,605.9,821.5,601.9" style="stroke:#181818;stroke-width:1.0;"/><line style="stroke:#181818;stroke-width:1.0;" x1="225.5" x2="823.5" y1="601.9" y2="601.9"/><text fill="#000000" font-family="NanumGothic" font-size="13" lengthAdjust="spacing" textLength="527" x="232.5" y="581.96">TransactionEventRequest(eventType = Ended, transactionId = AB1234, seqNo = N + 2,</text><text fill="#000000" font-family="NanumGothic" font-size="13" lengthAdjust="spacing" textLength="359" x="232.5" y="596.91">timestamp, triggerReason = StopAuthorized, meterValues)</text><polygon fill="#181818" points="231.5,626.85,221.5,630.85,231.5,634.85,227.5,630.85" style="stroke:#181818;stroke-width:1.0;"/><line style="stroke:#181818;stroke-width:1.0;stroke-dasharray:2.0,2.0;" x1="225.5" x2="833.5" y1="630.85" y2="630.85"/><text fill="#000000" font-family="NanumGothic" font-size="13" lengthAdjust="spacing" textLength="171" x="237.5" y="625.86">TransactionEventResponse()</text><polygon fill="#181818" points="203.5,655.8,213.5,659.8,203.5,663.8,207.5,659.8" style="stroke:#181818;stroke-width:1.0;"/><line style="stroke:#181818;stroke-width:1.0;" x1="52.5" x2="209.5" y1="659.8" y2="659.8"/><text fill="#000000" font-family="NanumGothic" font-size="13" lengthAdjust="spacing" textLength="78" x="59.5" y="654.81">unplug cable</text><polygon fill="#181818" points="817.5,684.75,827.5,688.75,817.5,692.75,821.5,688.75" style="stroke:#181818;stroke-width:1.0;"/><line style="stroke:#181818;stroke-width:1.0;" x1="225.5" x2="823.5" y1="688.75" y2="688.75"/><text fill="#000000" font-family="NanumGothic" font-size="13" lengthAdjust="spacing" textLength="220" x="232.5" y="683.76">StatusNotificationRequest(Available)</text><polygon fill="#181818" points="231.5,713.7,221.5,717.7,231.5,721.7,227.5,717.7" style="stroke:#181818;stroke-width:1.0;"/><line style="stroke:#181818;stroke-width:1.0;stroke-dasharray:2.0,2.0;" x1="225.5" x2="833.5" y1="717.7" y2="717.7"/><text fill="#000000" font-family="NanumGothic" font-size="13" lengthAdjust="spacing" textLength="176" x="237.5" y="712.71">StatusNotificationResponse()</text><line style="stroke:#000000;stroke-width:1.0;stroke-dasharray:2.0,2.0;" x1="10" x2="871" y1="726.7" y2="726.7"/><text fill="#000000" font-family="NanumGothic" font-size="11" font-weight="bold" lengthAdjust="spacing" textLength="161" x="15" y="736.82">[if cable permanently attached]</text><line style="stroke:#181818;stroke-width:1.0;" x1="220.5" x2="267.5" y1="756.3" y2="756.3"/><line style="stroke:#181818;stroke-width:1.0;" x1="267.5" x2="267.5" y1="756.3" y2="769.3"/><line style="stroke:#181818;stroke-width:1.0;" x1="226.5" x2="267.5" y1="769.3" y2="769.3"/><polygon fill="#181818" points="236.5,765.3,226.5,769.3,236.5,773.3,232.5,769.3" style="stroke:#181818;stroke-width:1.0;"/><text fill="#000000" font-family="NanumGothic" font-size="13" lengthAdjust="spacing" textLength="58" x="232.5" y="751.31">timeout()</text><polygon fill="#181818" points="817.5,814.2,827.5,818.2,817.5,822.2,821.5,818.2" style="stroke:#181818;stroke-width:1.0;"/><line style="stroke:#181818;stroke-width:1.0;" x1="225.5" x2="823.5" y1="818.2" y2="818.2"/><text fill="#000000" font-family="NanumGothic" font-size="13" lengthAdjust="spacing" textLength="446" x="232.5" y="798.26">TransactionEventRequest(eventType = Ended, stoppedReason = Timeout,</text><text fill="#000000" font-family="NanumGothic" font-size="13" lengthAdjust="spacing" textLength="400" x="232.5" y="813.21">transactionId = AB1234, seqNo = N + 2,timestamp, meterValues)</text><polygon fill="#181818" points="236.5,843.15,226.5,847.15,236.5,851.15,232.5,847.15" style="stroke:#181818;stroke-width:1.0;"/><line style="stroke:#181818;stroke-width:1.0;stroke-dasharray:2.0,2.0;" x1="230.5" x2="833.5" y1="847.15" y2="847.15"/><text fill="#000000" font-family="NanumGothic" font-size="13" lengthAdjust="spacing" textLength="171" x="242.5" y="842.16">TransactionEventResponse()</text><polygon fill="#181818" points="817.5,872.1,827.5,876.1,817.5,880.1,821.5,876.1" style="stroke:#181818;stroke-width:1.0;"/><line style="stroke:#181818;stroke-width:1.0;" x1="225.5" x2="823.5" y1="876.1" y2="876.1"/><text fill="#000000" font-family="NanumGothic" font-size="13" lengthAdjust="spacing" textLength="220" x="232.5" y="871.11">StatusNotificationRequest(Available)</text><polygon fill="#181818" points="231.5,901.05,221.5,905.05,231.5,909.05,227.5,905.05" style="stroke:#181818;stroke-width:1.0;"/><line style="stroke:#181818;stroke-width:1.0;stroke-dasharray:2.0,2.0;" x1="225.5" x2="833.5" y1="905.05" y2="905.05"/><text fill="#000000" font-family="NanumGothic" font-size="13" lengthAdjust="spacing" textLength="176" x="237.5" y="900.06">StatusNotificationResponse()</text><!--SRC=[pLLDRzD04BtxLppAfHLkH0kdIaKA9KYLeAgQD2SkYprsLjYxxdu4XL_Fh3Sfhd7JD18LbyYUtPbvyzxpv9LKMULpWdMhYaQDhwia4PdJ1WUJEJuPkIHp064ncSUNf176oKmsGZaSN2o4AQKgCNN2IQtQgvlWEjRBc7wTnblya2HAEuBcklSDqdW2ZE6CK9RHS1582wrApML72QaS8J59Daau_j1lUmQlcigNoCJtYY0SFnXOcLCOK2u5D-uZJNg1mRBMsoOW84McN44N1RCocCbpd06O_HbZiYJbRkZEatM755vcguPmZjicPq1vsftvCkU3ySUJqtVlKrYwkzByVeKtE4c1Ryh9cgk8kacHTPg7QjC8aVB9F5IKPKdcXeHbNCppXQvhhsJM0lsYhKjHaoCp5nNZEkhGqqeKVd4ynCJVWzb6Aqk7HqbEZvBSFMeRYCf15hXeTMATWsebvP0g0ROg76vA5HNcku_h2koYh27hQ-e9EvowblOVY7kQXh9RvTq0wcjx7ZcyZlnTgfwkNO9Que6zj0MsgFlmSDsc_SePwi8ngmCf34JpmCeJVagtmEJjAOx3JZ6k2uHZqIJNKVVFqbY7mkWQDrJWzSc8Qzql1wei1L_5xvz3QCZKGl4mrOhtWHFPWlBH1jxm4W9kBSU5TmjjvAze0EkpZAmjVFMWuOukywhIsGzaMYaActOFupxBVPEm2FRsNjzXKwURyPgDKFO571QLsEAvfzP4zuzWNxP3mDihxMIntfmRhiTB8QjG-fdp3rNScu67PXyo-exk3D9hxmwFNiYMbltKK7xlhrdilp7YJgRjsFM5xFZVEkN9RSpRAlaD]--></g></svg>