<?xml version="1.0" encoding="us-ascii" standalone="no"?><svg xmlns="http://www.w3.org/2000/svg" xmlns:xlink="http://www.w3.org/1999/xlink" contentStyleType="text/css" height="741px" preserveAspectRatio="none" style="width:924px;height:741px;background:#FFFFFF;" version="1.1" viewBox="0 0 924 741" width="924px" zoomAndPan="magnify"><defs/><g><rect fill="#FFFFFF" height="125.8" style="stroke:#181818;stroke-width:1.0;" width="10" x="72.5" y="102"/><rect fill="#FFFFFF" height="110.8" style="stroke:#181818;stroke-width:1.0;" width="10" x="182.5" y="102"/><rect fill="#FFFFFF" height="28.95" style="stroke:#181818;stroke-width:1.0;" width="10" x="182.5" y="272.7"/><rect fill="#FFFFFF" height="28.95" style="stroke:#181818;stroke-width:1.0;" width="10" x="182.5" y="366.55"/><rect fill="#FFFFFF" height="28.95" style="stroke:#181818;stroke-width:1.0;" width="10" x="182.5" y="489.3"/><rect fill="#FFFFFF" height="28.95" style="stroke:#181818;stroke-width:1.0;" width="10" x="182.5" y="687.3"/><rect fill="#FFFFFF" height="594.3" style="stroke:#181818;stroke-width:1.0;" width="10" x="767.5" y="130.95"/><rect fill="#FFFFFF" height="198" style="stroke:#181818;stroke-width:1.0;" width="10" x="772.5" y="518.25"/><rect fill="none" height="45.9" style="stroke:#000000;stroke-width:1.5;" width="214" x="10" y="174.9"/><rect fill="none" height="74.85" style="stroke:#000000;stroke-width:1.5;" width="691.5" x="151" y="234.8"/><rect fill="none" height="69.2" style="stroke:#000000;stroke-width:1.5;" width="216" x="702.5" y="533.25"/><line style="stroke:#181818;stroke-width:0.5;stroke-dasharray:5.0,5.0;" x1="77" x2="77" y1="36.1" y2="734.25"/><line style="stroke:#181818;stroke-width:0.5;stroke-dasharray:5.0,5.0;" x1="187" x2="187" y1="36.1" y2="734.25"/><line style="stroke:#181818;stroke-width:0.5;stroke-dasharray:5.0,5.0;" x1="772.5" x2="772.5" y1="36.1" y2="734.25"/><rect fill="#7D5393" height="30.1" rx="2.5" ry="2.5" style="stroke:#181818;stroke-width:0.5;" width="115" x="20" y="5"/><text fill="#FFFFFF" font-family="NanumGothic" font-size="14" lengthAdjust="spacing" textLength="101" x="27" y="24.88">External Trigger</text><rect fill="#7D5393" height="30.1" rx="2.5" ry="2.5" style="stroke:#181818;stroke-width:0.5;" width="53" x="161" y="5"/><text fill="#FFFFFF" font-family="NanumGothic" font-size="14" lengthAdjust="spacing" textLength="39" x="168" y="24.88">CSMS</text><rect fill="#7D5393" height="30.1" rx="2.5" ry="2.5" style="stroke:#181818;stroke-width:0.5;" width="120" x="712.5" y="5"/><text fill="#FFFFFF" font-family="NanumGothic" font-size="14" lengthAdjust="spacing" textLength="106" x="719.5" y="24.88">Charging Station</text><rect fill="#FFFFFF" height="125.8" style="stroke:#181818;stroke-width:1.0;" width="10" x="72.5" y="102"/><rect fill="#FFFFFF" height="110.8" style="stroke:#181818;stroke-width:1.0;" width="10" x="182.5" y="102"/><rect fill="#FFFFFF" height="28.95" style="stroke:#181818;stroke-width:1.0;" width="10" x="182.5" y="272.7"/><rect fill="#FFFFFF" height="28.95" style="stroke:#181818;stroke-width:1.0;" width="10" x="182.5" y="366.55"/><rect fill="#FFFFFF" height="28.95" style="stroke:#181818;stroke-width:1.0;" width="10" x="182.5" y="489.3"/><rect fill="#FFFFFF" height="28.95" style="stroke:#181818;stroke-width:1.0;" width="10" x="182.5" y="687.3"/><rect fill="#FFFFFF" height="594.3" style="stroke:#181818;stroke-width:1.0;" width="10" x="767.5" y="130.95"/><rect fill="#FFFFFF" height="198" style="stroke:#181818;stroke-width:1.0;" width="10" x="772.5" y="518.25"/><path d="M572,51.1 L572,75.1 L767,75.1 L767,61.1 L757,51.1 L572,51.1 " fill="#7D5393" style="stroke:#000000;stroke-width:0.5;"/><path d="M757,51.1 L757,61.1 L767,61.1 L757,51.1 " fill="#7D5393" style="stroke:#000000;stroke-width:0.5;"/><text fill="#FFFFFF" font-family="NanumGothic" font-size="13" lengthAdjust="spacing" textLength="174" x="578" y="68.06">TxStartPoint = EVConnected</text><polygon fill="#181818" points="170.5,98,180.5,102,170.5,106,174.5,102" style="stroke:#181818;stroke-width:1.0;"/><line style="stroke:#181818;stroke-width:1.0;" x1="82.5" x2="176.5" y1="102" y2="102"/><text fill="#000000" font-family="NanumGothic" font-size="13" lengthAdjust="spacing" textLength="86" x="89.5" y="97.01">remote start()</text><polygon fill="#181818" points="755.5,126.95,765.5,130.95,755.5,134.95,759.5,130.95" style="stroke:#181818;stroke-width:1.0;"/><line style="stroke:#181818;stroke-width:1.0;" x1="192.5" x2="761.5" y1="130.95" y2="130.95"/><text fill="#000000" font-family="NanumGothic" font-size="13" lengthAdjust="spacing" textLength="440" x="199.5" y="125.96">RequestStartTransactionRequest(idToken = ABCD, remoteStartId = 123)</text><polygon fill="#181818" points="203.5,155.9,193.5,159.9,203.5,163.9,199.5,159.9" style="stroke:#181818;stroke-width:1.0;"/><line style="stroke:#181818;stroke-width:1.0;stroke-dasharray:2.0,2.0;" x1="197.5" x2="766.5" y1="159.9" y2="159.9"/><text fill="#000000" font-family="NanumGothic" font-size="13" lengthAdjust="spacing" textLength="326" x="209.5" y="154.91">RequestStartTransactionResponse(status = Accepted)</text><path d="M10,174.9 L76,174.9 L76,181.85 L66,191.85 L10,191.85 L10,174.9 " fill="#EEEEEE" style="stroke:#000000;stroke-width:1.5;"/><rect fill="none" height="45.9" style="stroke:#000000;stroke-width:1.5;" width="214" x="10" y="174.9"/><text fill="#000000" font-family="NanumGothic" font-size="13" font-weight="bold" lengthAdjust="spacing" textLength="21" x="25" y="187.86">opt</text><polygon fill="#181818" points="93.5,208.8,83.5,212.8,93.5,216.8,89.5,212.8" style="stroke:#181818;stroke-width:1.0;"/><line style="stroke:#181818;stroke-width:1.0;" x1="87.5" x2="186.5" y1="212.8" y2="212.8"/><text fill="#000000" font-family="NanumGothic" font-size="13" lengthAdjust="spacing" textLength="69" x="99.5" y="207.81">notification</text><path d="M151,234.8 L217,234.8 L217,241.75 L207,251.75 L151,251.75 L151,234.8 " fill="#EEEEEE" style="stroke:#000000;stroke-width:1.5;"/><rect fill="none" height="74.85" style="stroke:#000000;stroke-width:1.5;" width="691.5" x="151" y="234.8"/><text fill="#000000" font-family="NanumGothic" font-size="13" font-weight="bold" lengthAdjust="spacing" textLength="21" x="166" y="247.76">opt</text><text fill="#000000" font-family="NanumGothic" font-size="11" font-weight="bold" lengthAdjust="spacing" textLength="157" x="232" y="246.92">[AuthorizeRemoteStart = true]</text><polygon fill="#181818" points="203.5,268.7,193.5,272.7,203.5,276.7,199.5,272.7" style="stroke:#181818;stroke-width:1.0;"/><line style="stroke:#181818;stroke-width:1.0;" x1="197.5" x2="766.5" y1="272.7" y2="272.7"/><text fill="#000000" font-family="NanumGothic" font-size="13" lengthAdjust="spacing" textLength="218" x="209.5" y="267.71">AuthorizeRequest(idToken = ABCD)</text><polygon fill="#181818" points="755.5,297.65,765.5,301.65,755.5,305.65,759.5,301.65" style="stroke:#181818;stroke-width:1.0;"/><line style="stroke:#181818;stroke-width:1.0;stroke-dasharray:2.0,2.0;" x1="187.5" x2="761.5" y1="301.65" y2="301.65"/><text fill="#000000" font-family="NanumGothic" font-size="13" lengthAdjust="spacing" textLength="199" x="194.5" y="296.66">AuthorizeResponse(idTokenInfo)</text><polygon fill="#181818" points="755.5,333.6,765.5,337.6,755.5,341.6,759.5,337.6" style="stroke:#181818;stroke-width:1.0;"/><line style="stroke:#181818;stroke-width:1.0;" x1="77.5" x2="761.5" y1="337.6" y2="337.6"/><text fill="#000000" font-family="NanumGothic" font-size="13" lengthAdjust="spacing" textLength="73" x="84.5" y="332.61">Plugin cable</text><polygon fill="#181818" points="203.5,362.55,193.5,366.55,203.5,370.55,199.5,366.55" style="stroke:#181818;stroke-width:1.0;"/><line style="stroke:#181818;stroke-width:1.0;" x1="197.5" x2="766.5" y1="366.55" y2="366.55"/><text fill="#000000" font-family="NanumGothic" font-size="13" lengthAdjust="spacing" textLength="223" x="209.5" y="361.56">StatusNotificationRequest(Occupied)</text><polygon fill="#181818" points="755.5,391.5,765.5,395.5,755.5,399.5,759.5,395.5" style="stroke:#181818;stroke-width:1.0;"/><line style="stroke:#181818;stroke-width:1.0;stroke-dasharray:2.0,2.0;" x1="187.5" x2="761.5" y1="395.5" y2="395.5"/><text fill="#000000" font-family="NanumGothic" font-size="13" lengthAdjust="spacing" textLength="176" x="194.5" y="390.51">StatusNotificationResponse()</text><path d="M279,408.5 L279,432.5 L762,432.5 L762,418.5 L752,408.5 L279,408.5 " fill="#7D5393" style="stroke:#000000;stroke-width:0.5;"/><path d="M752,408.5 L752,418.5 L762,418.5 L752,408.5 " fill="#7D5393" style="stroke:#000000;stroke-width:0.5;"/><text fill="#FFFFFF" font-family="NanumGothic" font-size="13" lengthAdjust="spacing" textLength="462" x="285" y="425.46">Using triggerReason = RemoteStart instead of CablePluggedIn! (F02.FR.21)</text><polygon fill="#181818" points="203.5,485.3,193.5,489.3,203.5,493.3,199.5,489.3" style="stroke:#181818;stroke-width:1.0;"/><line style="stroke:#181818;stroke-width:1.0;" x1="197.5" x2="766.5" y1="489.3" y2="489.3"/><text fill="#000000" font-family="NanumGothic" font-size="13" lengthAdjust="spacing" textLength="544" x="209.5" y="454.41">TransactionEventRequest(eventType = Started, transactionId = AB1234, idToken = ABCD,</text><text fill="#000000" font-family="NanumGothic" font-size="13" lengthAdjust="spacing" textLength="480" x="209.5" y="469.36">chargingState = EVConnected, evse.id = 1, evse.connectorId = 1, meterValues,</text><text fill="#000000" font-family="NanumGothic" font-size="13" lengthAdjust="spacing" textLength="336" x="209.5" y="484.31">triggerReason = RemoteStart, remoteStartId = 123, ...)</text><polygon fill="#181818" points="760.5,514.25,770.5,518.25,760.5,522.25,764.5,518.25" style="stroke:#181818;stroke-width:1.0;"/><line style="stroke:#181818;stroke-width:1.0;stroke-dasharray:2.0,2.0;" x1="187.5" x2="766.5" y1="518.25" y2="518.25"/><text fill="#000000" font-family="NanumGothic" font-size="13" lengthAdjust="spacing" textLength="183" x="194.5" y="513.26">TransactionEventResponse(...)</text><path d="M702.5,533.25 L768.5,533.25 L768.5,540.2 L758.5,550.2 L702.5,550.2 L702.5,533.25 " fill="#EEEEEE" style="stroke:#000000;stroke-width:1.5;"/><rect fill="none" height="69.2" style="stroke:#000000;stroke-width:1.5;" width="216" x="702.5" y="533.25"/><text fill="#000000" font-family="NanumGothic" font-size="13" font-weight="bold" lengthAdjust="spacing" textLength="21" x="717.5" y="546.21">opt</text><text fill="#000000" font-family="NanumGothic" font-size="11" font-weight="bold" lengthAdjust="spacing" textLength="130" x="783.5" y="545.37">[if cable not permanently</text><text fill="#000000" font-family="NanumGothic" font-size="11" font-weight="bold" lengthAdjust="spacing" textLength="49" x="783.5" y="558.02">attached]</text><line style="stroke:#181818;stroke-width:1.0;" x1="782.5" x2="824.5" y1="581.45" y2="581.45"/><line style="stroke:#181818;stroke-width:1.0;" x1="824.5" x2="824.5" y1="581.45" y2="594.45"/><line style="stroke:#181818;stroke-width:1.0;" x1="783.5" x2="824.5" y1="594.45" y2="594.45"/><polygon fill="#181818" points="793.5,590.45,783.5,594.45,793.5,598.45,789.5,594.45" style="stroke:#181818;stroke-width:1.0;"/><text fill="#000000" font-family="NanumGothic" font-size="13" lengthAdjust="spacing" textLength="89" x="789.5" y="576.46">lock connector</text><line style="stroke:#181818;stroke-width:1.0;" x1="782.5" x2="824.5" y1="630.4" y2="630.4"/><line style="stroke:#181818;stroke-width:1.0;" x1="824.5" x2="824.5" y1="630.4" y2="643.4"/><line style="stroke:#181818;stroke-width:1.0;" x1="783.5" x2="824.5" y1="643.4" y2="643.4"/><polygon fill="#181818" points="793.5,639.4,783.5,643.4,793.5,647.4,789.5,643.4" style="stroke:#181818;stroke-width:1.0;"/><text fill="#000000" font-family="NanumGothic" font-size="13" lengthAdjust="spacing" textLength="107" x="789.5" y="625.41">start energy offer</text><polygon fill="#181818" points="203.5,683.3,193.5,687.3,203.5,691.3,199.5,687.3" style="stroke:#181818;stroke-width:1.0;"/><line style="stroke:#181818;stroke-width:1.0;" x1="197.5" x2="771.5" y1="687.3" y2="687.3"/><text fill="#000000" font-family="NanumGothic" font-size="13" lengthAdjust="spacing" textLength="456" x="209.5" y="667.36">TransactionEventRequest(eventType = Updated, chargingState = Charging,</text><text fill="#000000" font-family="NanumGothic" font-size="13" lengthAdjust="spacing" textLength="269" x="209.5" y="682.31">triggerReason = ChargingStateChanged, ...)</text><polygon fill="#181818" points="755.5,712.25,765.5,716.25,755.5,720.25,759.5,716.25" style="stroke:#181818;stroke-width:1.0;"/><line style="stroke:#181818;stroke-width:1.0;stroke-dasharray:2.0,2.0;" x1="187.5" x2="761.5" y1="716.25" y2="716.25"/><text fill="#000000" font-family="NanumGothic" font-size="13" lengthAdjust="spacing" textLength="183" x="194.5" y="711.26">TransactionEventResponse(...)</text><!--SRC=[jLInRjim4Dtv5PTC5g08ZTl9G0euhWDuQ1lOJgOiB7MIYSYaIb96tAylIL6EJCj9YwAB81vvx-wzn-C55wngSWHjzXLcTREj2AcfCfpncWe3b_CNWqhG2jQAboMgIw0Qkc287MVCLbzN_fJxYROsL9LSbB0or70fscCX66A426aGAYmCoE9a5s3zOl-LkPVSGjx0_74cXK1cC2SeSd3PX4GTmjLdtyu456uTl7OGeuHGPlYEsa1CwR3XMH3tzI37xKnWYJyRrCQtj5PKQ9SeHGYFUBwMpoXidzFRsPSqbFUd5xcDNey_zfeuaI8AmDM1nzcwkfP2uyWID8rsTHd3segJ429h0rR0Zaj4UUAaumLddT0v7ejWrIMzMAoOXvysPYCL_uNBLwAs2QCQT9LZEXsRNjgGRedDZGpfQ0nvqaCBQWIuXIXaSeRPu9M9aU-hngw1qHyL3hZJqLbvyR_rvEnuVMUigRbpO_223TKS0Wkq4X8pUMzu7hGRFzDIN2BLqcdSDuiBRP3cFjtHT9HBp1VY0aPt7yRPtJ8RNoUzKJkhWXtLruivtw4mdGhe5kjzZRQshufvQfiw7FQZCRsrm_4fXNY409u4wzN4uqSW1TnfpBYVhh1WxQPKYn3TelNwaLQscnRm3KK6XpQ5BCl-miHJ9OA57YPsyVo3u6QC5-q5TFf3ZMfBXKMiza-26aFPnZw4mwCMDrL9zWm7RTef-9Cy_tW22bJbtjwJmWt_Fzw2XpgdthpOsGut7NAfNnJjGfGEudywqrz7tlm6]--></g></svg>