<?xml version="1.0" encoding="us-ascii" standalone="no"?><svg xmlns="http://www.w3.org/2000/svg" xmlns:xlink="http://www.w3.org/1999/xlink" contentStyleType="text/css" height="844px" preserveAspectRatio="none" style="width:954px;height:844px;background:#FFFFFF;" version="1.1" viewBox="0 0 954 844" width="954px" zoomAndPan="magnify"><defs/><g><rect fill="#FFFFFF" height="28.95" style="stroke:#181818;stroke-width:1.0;" width="10" x="40.5" y="114.95"/><rect fill="#FFFFFF" height="28.95" style="stroke:#181818;stroke-width:1.0;" width="10" x="40.5" y="187.5"/><rect fill="#FFFFFF" height="28.95" style="stroke:#181818;stroke-width:1.0;" width="10" x="40.5" y="423.1"/><rect fill="#FFFFFF" height="28.95" style="stroke:#181818;stroke-width:1.0;" width="10" x="40.5" y="495.65"/><rect fill="#FFFFFF" height="159.75" style="stroke:#181818;stroke-width:1.0;" width="10" x="40.5" y="560.55"/><rect fill="#FFFFFF" height="28.95" style="stroke:#181818;stroke-width:1.0;" width="10" x="499.5" y="114.95"/><rect fill="#FFFFFF" height="28.95" style="stroke:#181818;stroke-width:1.0;" width="10" x="499.5" y="187.5"/><rect fill="#FFFFFF" height="28.95" style="stroke:#181818;stroke-width:1.0;" width="10" x="499.5" y="252.4"/><rect fill="#FFFFFF" height="28.95" style="stroke:#181818;stroke-width:1.0;" width="10" x="499.5" y="341.25"/><rect fill="#FFFFFF" height="28.95" style="stroke:#181818;stroke-width:1.0;" width="10" x="499.5" y="423.1"/><rect fill="#FFFFFF" height="28.95" style="stroke:#181818;stroke-width:1.0;" width="10" x="499.5" y="495.65"/><rect fill="#FFFFFF" height="31.95" style="stroke:#181818;stroke-width:1.0;" width="10" x="499.5" y="560.55"/><rect fill="#FFFFFF" height="31.95" style="stroke:#181818;stroke-width:1.0;" width="10" x="499.5" y="624.45"/><rect fill="#FFFFFF" height="31.95" style="stroke:#181818;stroke-width:1.0;" width="10" x="499.5" y="688.35"/><rect fill="#FFFFFF" height="28.95" style="stroke:#181818;stroke-width:1.0;" width="10" x="499.5" y="776.2"/><rect fill="#FFFFFF" height="28.95" style="stroke:#181818;stroke-width:1.0;" width="10" x="896.5" y="252.4"/><rect fill="#FFFFFF" height="28.95" style="stroke:#181818;stroke-width:1.0;" width="10" x="896.5" y="341.25"/><rect fill="#FFFFFF" height="28.95" style="stroke:#181818;stroke-width:1.0;" width="10" x="896.5" y="776.2"/><rect fill="none" height="236.25" style="stroke:#000000;stroke-width:1.5;" width="928" x="10" y="53.1"/><rect fill="none" height="147.4" style="stroke:#000000;stroke-width:1.5;" width="554.5" x="20" y="77.05"/><rect fill="none" height="516.8" style="stroke:#000000;stroke-width:1.5;" width="938" x="10" y="303.35"/><rect fill="none" height="147.4" style="stroke:#000000;stroke-width:1.5;" width="554.5" x="20" y="385.2"/><rect fill="none" height="74.85" style="stroke:#000000;stroke-width:1.5;" width="503.5" x="434.5" y="738.3"/><line style="stroke:#181818;stroke-width:0.5;stroke-dasharray:5.0,5.0;" x1="45" x2="45" y1="36.1" y2="837.15"/><line style="stroke:#181818;stroke-width:0.5;stroke-dasharray:5.0,5.0;" x1="504.5" x2="504.5" y1="36.1" y2="837.15"/><line style="stroke:#181818;stroke-width:0.5;stroke-dasharray:5.0,5.0;" x1="901" x2="901" y1="36.1" y2="837.15"/><rect fill="#7D5393" height="30.1" rx="2.5" ry="2.5" style="stroke:#181818;stroke-width:0.5;" width="31" x="30" y="5"/><text fill="#FFFFFF" font-family="NanumGothic" font-size="14" lengthAdjust="spacing" textLength="17" x="37" y="24.88">EV</text><rect fill="#7D5393" height="30.1" rx="2.5" ry="2.5" style="stroke:#181818;stroke-width:0.5;" width="120" x="444.5" y="5"/><text fill="#FFFFFF" font-family="NanumGothic" font-size="14" lengthAdjust="spacing" textLength="106" x="451.5" y="24.88">Charging Station</text><rect fill="#7D5393" height="30.1" rx="2.5" ry="2.5" style="stroke:#181818;stroke-width:0.5;" width="53" x="875" y="5"/><text fill="#FFFFFF" font-family="NanumGothic" font-size="14" lengthAdjust="spacing" textLength="39" x="882" y="24.88">CSMS</text><rect fill="#FFFFFF" height="28.95" style="stroke:#181818;stroke-width:1.0;" width="10" x="40.5" y="114.95"/><rect fill="#FFFFFF" height="28.95" style="stroke:#181818;stroke-width:1.0;" width="10" x="40.5" y="187.5"/><rect fill="#FFFFFF" height="28.95" style="stroke:#181818;stroke-width:1.0;" width="10" x="40.5" y="423.1"/><rect fill="#FFFFFF" height="28.95" style="stroke:#181818;stroke-width:1.0;" width="10" x="40.5" y="495.65"/><rect fill="#FFFFFF" height="159.75" style="stroke:#181818;stroke-width:1.0;" width="10" x="40.5" y="560.55"/><rect fill="#FFFFFF" height="28.95" style="stroke:#181818;stroke-width:1.0;" width="10" x="499.5" y="114.95"/><rect fill="#FFFFFF" height="28.95" style="stroke:#181818;stroke-width:1.0;" width="10" x="499.5" y="187.5"/><rect fill="#FFFFFF" height="28.95" style="stroke:#181818;stroke-width:1.0;" width="10" x="499.5" y="252.4"/><rect fill="#FFFFFF" height="28.95" style="stroke:#181818;stroke-width:1.0;" width="10" x="499.5" y="341.25"/><rect fill="#FFFFFF" height="28.95" style="stroke:#181818;stroke-width:1.0;" width="10" x="499.5" y="423.1"/><rect fill="#FFFFFF" height="28.95" style="stroke:#181818;stroke-width:1.0;" width="10" x="499.5" y="495.65"/><rect fill="#FFFFFF" height="31.95" style="stroke:#181818;stroke-width:1.0;" width="10" x="499.5" y="560.55"/><rect fill="#FFFFFF" height="31.95" style="stroke:#181818;stroke-width:1.0;" width="10" x="499.5" y="624.45"/><rect fill="#FFFFFF" height="31.95" style="stroke:#181818;stroke-width:1.0;" width="10" x="499.5" y="688.35"/><rect fill="#FFFFFF" height="28.95" style="stroke:#181818;stroke-width:1.0;" width="10" x="499.5" y="776.2"/><rect fill="#FFFFFF" height="28.95" style="stroke:#181818;stroke-width:1.0;" width="10" x="896.5" y="252.4"/><rect fill="#FFFFFF" height="28.95" style="stroke:#181818;stroke-width:1.0;" width="10" x="896.5" y="341.25"/><rect fill="#FFFFFF" height="28.95" style="stroke:#181818;stroke-width:1.0;" width="10" x="896.5" y="776.2"/><path d="M10,53.1 L82,53.1 L82,60.05 L72,70.05 L10,70.05 L10,53.1 " fill="#EEEEEE" style="stroke:#000000;stroke-width:1.5;"/><rect fill="none" height="236.25" style="stroke:#000000;stroke-width:1.5;" width="928" x="10" y="53.1"/><text fill="#000000" font-family="NanumGothic" font-size="13" font-weight="bold" lengthAdjust="spacing" textLength="27" x="25" y="66.06">loop</text><text fill="#000000" font-family="NanumGothic" font-size="11" font-weight="bold" lengthAdjust="spacing" textLength="126" x="97" y="65.22">[Charging in progress...]</text><path d="M20,77.05 L80,77.05 L80,84 L70,94 L20,94 L20,77.05 " fill="#EEEEEE" style="stroke:#000000;stroke-width:1.5;"/><rect fill="none" height="147.4" style="stroke:#000000;stroke-width:1.5;" width="554.5" x="20" y="77.05"/><text fill="#000000" font-family="NanumGothic" font-size="13" font-weight="bold" lengthAdjust="spacing" textLength="15" x="35" y="90.01">alt</text><text fill="#000000" font-family="NanumGothic" font-size="11" font-weight="bold" lengthAdjust="spacing" textLength="84" x="95" y="89.17">[if AC Charging]</text><polygon fill="#181818" points="487.5,110.95,497.5,114.95,487.5,118.95,491.5,114.95" style="stroke:#181818;stroke-width:1.0;"/><line style="stroke:#181818;stroke-width:1.0;" x1="50.5" x2="493.5" y1="114.95" y2="114.95"/><text fill="#000000" font-family="NanumGothic" font-size="13" lengthAdjust="spacing" textLength="127" x="57.5" y="109.96">ChargingStatusReq()</text><polygon fill="#181818" points="56.5,139.9,46.5,143.9,56.5,147.9,52.5,143.9" style="stroke:#181818;stroke-width:1.0;"/><line style="stroke:#181818;stroke-width:1.0;stroke-dasharray:2.0,2.0;" x1="50.5" x2="503.5" y1="143.9" y2="143.9"/><text fill="#000000" font-family="NanumGothic" font-size="13" lengthAdjust="spacing" textLength="125" x="62.5" y="138.91">ChargingStatusRes()</text><line style="stroke:#000000;stroke-width:1.0;stroke-dasharray:2.0,2.0;" x1="20" x2="574.5" y1="152.9" y2="152.9"/><text fill="#000000" font-family="NanumGothic" font-size="11" font-weight="bold" lengthAdjust="spacing" textLength="84" x="25" y="163.02">[if DC Charging]</text><polygon fill="#181818" points="487.5,183.5,497.5,187.5,487.5,191.5,491.5,187.5" style="stroke:#181818;stroke-width:1.0;"/><line style="stroke:#181818;stroke-width:1.0;" x1="50.5" x2="493.5" y1="187.5" y2="187.5"/><text fill="#000000" font-family="NanumGothic" font-size="13" lengthAdjust="spacing" textLength="131" x="57.5" y="182.51">CurrentDemandReq()</text><polygon fill="#181818" points="56.5,212.45,46.5,216.45,56.5,220.45,52.5,216.45" style="stroke:#181818;stroke-width:1.0;"/><line style="stroke:#181818;stroke-width:1.0;stroke-dasharray:2.0,2.0;" x1="50.5" x2="503.5" y1="216.45" y2="216.45"/><text fill="#000000" font-family="NanumGothic" font-size="13" lengthAdjust="spacing" textLength="129" x="62.5" y="211.46">CurrentDemandRes()</text><polygon fill="#181818" points="884.5,248.4,894.5,252.4,884.5,256.4,888.5,252.4" style="stroke:#181818;stroke-width:1.0;"/><line style="stroke:#181818;stroke-width:1.0;" x1="509.5" x2="890.5" y1="252.4" y2="252.4"/><text fill="#000000" font-family="NanumGothic" font-size="13" lengthAdjust="spacing" textLength="308" x="516.5" y="247.41">TransactionEventRequest(eventType = Updated,...)</text><polygon fill="#181818" points="515.5,277.35,505.5,281.35,515.5,285.35,511.5,281.35" style="stroke:#181818;stroke-width:1.0;"/><line style="stroke:#181818;stroke-width:1.0;stroke-dasharray:2.0,2.0;" x1="509.5" x2="900.5" y1="281.35" y2="281.35"/><text fill="#000000" font-family="NanumGothic" font-size="13" lengthAdjust="spacing" textLength="183" x="521.5" y="276.36">TransactionEventResponse(...)</text><path d="M10,303.35 L206,303.35 L206,310.3 L196,320.3 L10,320.3 L10,303.35 " fill="#EEEEEE" style="stroke:#000000;stroke-width:1.5;"/><rect fill="none" height="516.8" style="stroke:#000000;stroke-width:1.5;" width="938" x="10" y="303.35"/><text fill="#000000" font-family="NanumGothic" font-size="13" font-weight="bold" lengthAdjust="spacing" textLength="151" x="25" y="316.31">CSMS sets new schedule</text><polygon fill="#181818" points="520.5,337.25,510.5,341.25,520.5,345.25,516.5,341.25" style="stroke:#181818;stroke-width:1.0;"/><line style="stroke:#181818;stroke-width:1.0;" x1="514.5" x2="895.5" y1="341.25" y2="341.25"/><text fill="#000000" font-family="NanumGothic" font-size="13" lengthAdjust="spacing" textLength="310" x="526.5" y="336.26">SetChargingProfileRequest(evseId, chargingProfile)</text><polygon fill="#181818" points="889.5,366.2,899.5,370.2,889.5,374.2,893.5,370.2" style="stroke:#181818;stroke-width:1.0;"/><line style="stroke:#181818;stroke-width:1.0;stroke-dasharray:2.0,2.0;" x1="504.5" x2="895.5" y1="370.2" y2="370.2"/><text fill="#000000" font-family="NanumGothic" font-size="13" lengthAdjust="spacing" textLength="238" x="511.5" y="365.21">SetChargingProfileResponse(Accepted)</text><path d="M20,385.2 L80,385.2 L80,392.15 L70,402.15 L20,402.15 L20,385.2 " fill="#EEEEEE" style="stroke:#000000;stroke-width:1.5;"/><rect fill="none" height="147.4" style="stroke:#000000;stroke-width:1.5;" width="554.5" x="20" y="385.2"/><text fill="#000000" font-family="NanumGothic" font-size="13" font-weight="bold" lengthAdjust="spacing" textLength="15" x="35" y="398.16">alt</text><text fill="#000000" font-family="NanumGothic" font-size="11" font-weight="bold" lengthAdjust="spacing" textLength="84" x="95" y="397.32">[if AC Charging]</text><polygon fill="#181818" points="487.5,419.1,497.5,423.1,487.5,427.1,491.5,423.1" style="stroke:#181818;stroke-width:1.0;"/><line style="stroke:#181818;stroke-width:1.0;" x1="50.5" x2="493.5" y1="423.1" y2="423.1"/><text fill="#000000" font-family="NanumGothic" font-size="13" lengthAdjust="spacing" textLength="127" x="57.5" y="418.11">ChargingStatusReq()</text><polygon fill="#181818" points="56.5,448.05,46.5,452.05,56.5,456.05,52.5,452.05" style="stroke:#181818;stroke-width:1.0;"/><line style="stroke:#181818;stroke-width:1.0;stroke-dasharray:2.0,2.0;" x1="50.5" x2="503.5" y1="452.05" y2="452.05"/><text fill="#000000" font-family="NanumGothic" font-size="13" lengthAdjust="spacing" textLength="211" x="62.5" y="447.06">ChargingStatusRes(ReNegotiation)</text><line style="stroke:#000000;stroke-width:1.0;stroke-dasharray:2.0,2.0;" x1="20" x2="574.5" y1="461.05" y2="461.05"/><text fill="#000000" font-family="NanumGothic" font-size="11" font-weight="bold" lengthAdjust="spacing" textLength="84" x="25" y="471.17">[if DC Charging]</text><polygon fill="#181818" points="487.5,491.65,497.5,495.65,487.5,499.65,491.5,495.65" style="stroke:#181818;stroke-width:1.0;"/><line style="stroke:#181818;stroke-width:1.0;" x1="50.5" x2="493.5" y1="495.65" y2="495.65"/><text fill="#000000" font-family="NanumGothic" font-size="13" lengthAdjust="spacing" textLength="131" x="57.5" y="490.66">CurrentDemandReq()</text><polygon fill="#181818" points="56.5,520.6,46.5,524.6,56.5,528.6,52.5,524.6" style="stroke:#181818;stroke-width:1.0;"/><line style="stroke:#181818;stroke-width:1.0;stroke-dasharray:2.0,2.0;" x1="50.5" x2="503.5" y1="524.6" y2="524.6"/><text fill="#000000" font-family="NanumGothic" font-size="13" lengthAdjust="spacing" textLength="215" x="62.5" y="519.61">CurrentDemandRes(ReNegotiation)</text><polygon fill="#181818" points="487.5,556.55,497.5,560.55,487.5,564.55,491.5,560.55" style="stroke:#181818;stroke-width:1.0;"/><line style="stroke:#181818;stroke-width:1.0;" x1="50.5" x2="493.5" y1="560.55" y2="560.55"/><text fill="#000000" font-family="NanumGothic" font-size="13" lengthAdjust="spacing" textLength="192" x="57.5" y="555.56">PowerDeliveryReq(ReNegotiate)</text><polygon fill="#181818" points="61.5,588.5,51.5,592.5,61.5,596.5,57.5,592.5" style="stroke:#181818;stroke-width:1.0;"/><line style="stroke:#181818;stroke-width:1.0;stroke-dasharray:2.0,2.0;" x1="55.5" x2="503.5" y1="592.5" y2="592.5"/><text fill="#000000" font-family="NanumGothic" font-size="13" lengthAdjust="spacing" textLength="134" x="67.5" y="587.51">PowerDeliveryRes(OK)</text><path d="M514,573.55 L514,597.55 L713,597.55 L713,583.55 L703,573.55 L514,573.55 " fill="#7D5393" style="stroke:#000000;stroke-width:0.5;"/><path d="M703,573.55 L703,583.55 L713,583.55 L703,573.55 " fill="#7D5393" style="stroke:#000000;stroke-width:0.5;"/><text fill="#FFFFFF" font-family="NanumGothic" font-size="13" lengthAdjust="spacing" textLength="178" x="520" y="590.51">Power delivery may be halted</text><polygon fill="#181818" points="487.5,620.45,497.5,624.45,487.5,628.45,491.5,624.45" style="stroke:#181818;stroke-width:1.0;"/><line style="stroke:#181818;stroke-width:1.0;" x1="50.5" x2="493.5" y1="624.45" y2="624.45"/><text fill="#000000" font-family="NanumGothic" font-size="13" lengthAdjust="spacing" textLength="430" x="57.5" y="619.46">ChargeParameterDiscoveryReq(EnergyTransferMode, EVChargeParam)</text><polygon fill="#181818" points="61.5,652.4,51.5,656.4,61.5,660.4,57.5,656.4" style="stroke:#181818;stroke-width:1.0;"/><line style="stroke:#181818;stroke-width:1.0;stroke-dasharray:2.0,2.0;" x1="55.5" x2="503.5" y1="656.4" y2="656.4"/><text fill="#000000" font-family="NanumGothic" font-size="13" lengthAdjust="spacing" textLength="284" x="67.5" y="651.41">ChargeParameterDiscoveryRes(SAScheduleList)</text><path d="M514,637.45 L514,661.45 L882,661.45 L882,647.45 L872,637.45 L514,637.45 " fill="#7D5393" style="stroke:#000000;stroke-width:0.5;"/><path d="M872,637.45 L872,647.45 L882,647.45 L872,637.45 " fill="#7D5393" style="stroke:#000000;stroke-width:0.5;"/><text fill="#FFFFFF" font-family="NanumGothic" font-size="13" lengthAdjust="spacing" textLength="347" x="520" y="654.41">Charging Station supplies charging profile as SASchedule</text><polygon fill="#181818" points="487.5,684.35,497.5,688.35,487.5,692.35,491.5,688.35" style="stroke:#181818;stroke-width:1.0;"/><line style="stroke:#181818;stroke-width:1.0;" x1="50.5" x2="493.5" y1="688.35" y2="688.35"/><text fill="#000000" font-family="NanumGothic" font-size="13" lengthAdjust="spacing" textLength="398" x="57.5" y="683.36">PowerDeliveryReq(Start, ChargingProfile, EVPowerDeliveryParam)</text><polygon fill="#181818" points="56.5,716.3,46.5,720.3,56.5,724.3,52.5,720.3" style="stroke:#181818;stroke-width:1.0;"/><line style="stroke:#181818;stroke-width:1.0;stroke-dasharray:2.0,2.0;" x1="50.5" x2="503.5" y1="720.3" y2="720.3"/><text fill="#000000" font-family="NanumGothic" font-size="13" lengthAdjust="spacing" textLength="134" x="62.5" y="715.31">PowerDeliveryRes(OK)</text><path d="M514,701.35 L514,725.35 L686,725.35 L686,711.35 L676,701.35 L514,701.35 " fill="#7D5393" style="stroke:#000000;stroke-width:0.5;"/><path d="M676,701.35 L676,711.35 L686,711.35 L676,701.35 " fill="#7D5393" style="stroke:#000000;stroke-width:0.5;"/><text fill="#FFFFFF" font-family="NanumGothic" font-size="13" lengthAdjust="spacing" textLength="151" x="520" y="718.31">Power delivery continues</text><path d="M434.5,738.3 L500.5,738.3 L500.5,745.25 L490.5,755.25 L434.5,755.25 L434.5,738.3 " fill="#EEEEEE" style="stroke:#000000;stroke-width:1.5;"/><rect fill="none" height="74.85" style="stroke:#000000;stroke-width:1.5;" width="503.5" x="434.5" y="738.3"/><text fill="#000000" font-family="NanumGothic" font-size="13" font-weight="bold" lengthAdjust="spacing" textLength="21" x="449.5" y="751.26">opt</text><text fill="#000000" font-family="NanumGothic" font-size="11" font-weight="bold" lengthAdjust="spacing" textLength="185" x="515.5" y="750.42">[If EV provides a charging schedule]</text><polygon fill="#181818" points="884.5,772.2,894.5,776.2,884.5,780.2,888.5,776.2" style="stroke:#181818;stroke-width:1.0;"/><line style="stroke:#181818;stroke-width:1.0;" x1="509.5" x2="890.5" y1="776.2" y2="776.2"/><text fill="#000000" font-family="NanumGothic" font-size="13" lengthAdjust="spacing" textLength="373" x="516.5" y="771.21">NotifyEVChargingScheduleRequest(evseId, chargingSchedule)</text><polygon fill="#181818" points="515.5,801.15,505.5,805.15,515.5,809.15,511.5,805.15" style="stroke:#181818;stroke-width:1.0;"/><line style="stroke:#181818;stroke-width:1.0;stroke-dasharray:2.0,2.0;" x1="509.5" x2="900.5" y1="805.15" y2="805.15"/><text fill="#000000" font-family="NanumGothic" font-size="13" lengthAdjust="spacing" textLength="286" x="521.5" y="800.16">NotifyEVChargingScheduleResponse(Accepted)</text><!--SRC=[tLLDRzim3BtdLt0z9K2Q7r1W1O8cXs9h5zHTxfh5E08SIHFb5FxtesJdmtRYDbaFmqw9IOgFxuaYloYTveL485_cEB759XyCh71UfSeAxU5clhm1GJ1VDiqFQ-4ofJD8lF3Aw1YqCzQsredaAQcY-CzWa1jZzmT0QR3EP0w99fF9043a7jGAfW_x63O2bm6tzssSkuQXe1VyFHp5S95wjHKUG_cDxtQbqTiomYr3pPVTx5HdbzZEVsHf8m1WJXWupJx8gN0EjP_XHcZvwPIQoQzbf6M0wO3Snpk-WrSdD8NpHi-t3CSi2YG_nF3nMbg4h_3JIaukntpjeOOUj8ChDX34tyYeerqNcApHXCCQfPVLiJCWHPQPCuMj40azWSOte7IDiiXnNyg9IXBqEzl2cPNAyI02uQCSGzfqNop2YHkkr3y5NSimJLEqhFh5MlppB_C5dp4pNiMu_- -PVWAzwisUORCmR-XccAijkZAmEG0sEpD2zP4wHwc5GCCVtqO0_Nt8NctOxbIszf5YpC97gZIm4INyGbXpRwAiICOJFKoZ0HV2YGrwhaXHQdQavnfTLiOXiaBtP2IEEStHYT6LvC-3qZ2P9lKy-Qx8Nw59UoK35TRc2ca_OiAE3NCWRE43tCVqwdG6UvmVGsl41A4QeN-brybckM1cSPU-spkfqLvf7iaj7OpryBWASh1gMoLPHt5GycZszop0Ptuvgx9kdH1Gdpgt0tR-KV_CQ3hhkTot3y_NSM8Xl2DlTobKkiKz-GS0]--></g></svg>