<?xml version="1.0" encoding="us-ascii" standalone="no"?><svg xmlns="http://www.w3.org/2000/svg" xmlns:xlink="http://www.w3.org/1999/xlink" contentStyleType="text/css" height="604px" preserveAspectRatio="none" style="width:1020px;height:604px;background:#FFFFFF;" version="1.1" viewBox="0 0 1020 604" width="1020px" zoomAndPan="magnify"><defs/><g><rect fill="#FFFFFF" height="206.65" style="stroke:#181818;stroke-width:1.0;" width="10" x="284.5" y="114.05"/><rect fill="#FFFFFF" height="222.6" style="stroke:#181818;stroke-width:1.0;" width="10" x="284.5" y="349.65"/><rect fill="#FFFFFF" height="28.95" style="stroke:#181818;stroke-width:1.0;" width="10" x="965.5" y="166.95"/><rect fill="#FFFFFF" height="28.95" style="stroke:#181818;stroke-width:1.0;" width="10" x="965.5" y="291.75"/><rect fill="#FFFFFF" height="28.95" style="stroke:#181818;stroke-width:1.0;" width="10" x="965.5" y="425.5"/><rect fill="#FFFFFF" height="28.95" style="stroke:#181818;stroke-width:1.0;" width="10" x="965.5" y="490.4"/><rect fill="none" height="74.85" style="stroke:#000000;stroke-width:1.5;" width="787.5" x="219.5" y="129.05"/><rect fill="none" height="45.9" style="stroke:#000000;stroke-width:1.5;" width="349.5" x="10" y="217.9"/><rect fill="none" height="97.8" style="stroke:#000000;stroke-width:1.5;" width="795" x="219.5" y="364.65"/><rect fill="none" height="45.9" style="stroke:#000000;stroke-width:1.5;" width="270.5" x="89" y="534.35"/><line style="stroke:#181818;stroke-width:0.5;stroke-dasharray:5.0,5.0;" x1="54" x2="54" y1="83.1" y2="597.25"/><line style="stroke:#181818;stroke-width:0.5;stroke-dasharray:5.0,5.0;" x1="133" x2="133" y1="83.1" y2="597.25"/><line style="stroke:#181818;stroke-width:0.5;stroke-dasharray:5.0,5.0;" x1="289.5" x2="289.5" y1="83.1" y2="597.25"/><line style="stroke:#181818;stroke-width:0.5;stroke-dasharray:5.0,5.0;" x1="970" x2="970" y1="83.1" y2="597.25"/><text fill="#000000" font-family="NanumGothic" font-size="14" lengthAdjust="spacing" textLength="63" x="20" y="79.88">EVDriver1</text><ellipse cx="54.5" cy="14.5" fill="#E2E2F0" rx="8" ry="8" style="stroke:#7D5393;stroke-width:1.5;"/><path d="M54.5,22.5 L54.5,49.5 M41.5,30.5 L67.5,30.5 M54.5,49.5 L41.5,64.5 M54.5,49.5 L67.5,64.5 " fill="none" style="stroke:#7D5393;stroke-width:1.5;"/><text fill="#000000" font-family="NanumGothic" font-size="14" lengthAdjust="spacing" textLength="63" x="99" y="79.88">EVDriver2</text><ellipse cx="133.5" cy="14.5" fill="#E2E2F0" rx="8" ry="8" style="stroke:#7D5393;stroke-width:1.5;"/><path d="M133.5,22.5 L133.5,49.5 M120.5,30.5 L146.5,30.5 M133.5,49.5 L120.5,64.5 M133.5,49.5 L146.5,64.5 " fill="none" style="stroke:#7D5393;stroke-width:1.5;"/><rect fill="#7D5393" height="30.1" rx="2.5" ry="2.5" style="stroke:#181818;stroke-width:0.5;" width="120" x="229.5" y="52"/><text fill="#FFFFFF" font-family="NanumGothic" font-size="14" lengthAdjust="spacing" textLength="106" x="236.5" y="71.88">Charging Station</text><rect fill="#7D5393" height="30.1" rx="2.5" ry="2.5" style="stroke:#181818;stroke-width:0.5;" width="53" x="944" y="52"/><text fill="#FFFFFF" font-family="NanumGothic" font-size="14" lengthAdjust="spacing" textLength="39" x="951" y="71.88">CSMS</text><rect fill="#FFFFFF" height="206.65" style="stroke:#181818;stroke-width:1.0;" width="10" x="284.5" y="114.05"/><rect fill="#FFFFFF" height="222.6" style="stroke:#181818;stroke-width:1.0;" width="10" x="284.5" y="349.65"/><rect fill="#FFFFFF" height="28.95" style="stroke:#181818;stroke-width:1.0;" width="10" x="965.5" y="166.95"/><rect fill="#FFFFFF" height="28.95" style="stroke:#181818;stroke-width:1.0;" width="10" x="965.5" y="291.75"/><rect fill="#FFFFFF" height="28.95" style="stroke:#181818;stroke-width:1.0;" width="10" x="965.5" y="425.5"/><rect fill="#FFFFFF" height="28.95" style="stroke:#181818;stroke-width:1.0;" width="10" x="965.5" y="490.4"/><polygon fill="#181818" points="272.5,110.05,282.5,114.05,272.5,118.05,276.5,114.05" style="stroke:#181818;stroke-width:1.0;"/><line style="stroke:#181818;stroke-width:1.0;" x1="54.5" x2="278.5" y1="114.05" y2="114.05"/><text fill="#000000" font-family="NanumGothic" font-size="13" lengthAdjust="spacing" textLength="132" x="61.5" y="109.06">present IdToken(001)</text><path d="M219.5,129.05 L285.5,129.05 L285.5,136 L275.5,146 L219.5,146 L219.5,129.05 " fill="#EEEEEE" style="stroke:#000000;stroke-width:1.5;"/><rect fill="none" height="74.85" style="stroke:#000000;stroke-width:1.5;" width="787.5" x="219.5" y="129.05"/><text fill="#000000" font-family="NanumGothic" font-size="13" font-weight="bold" lengthAdjust="spacing" textLength="21" x="234.5" y="142.01">opt</text><text fill="#000000" font-family="NanumGothic" font-size="11" font-weight="bold" lengthAdjust="spacing" textLength="417" x="300.5" y="141.17">[if IdToken is not present in the Local Authorization List or Authorization Cache.]</text><polygon fill="#181818" points="953.5,162.95,963.5,166.95,953.5,170.95,957.5,166.95" style="stroke:#181818;stroke-width:1.0;"/><line style="stroke:#181818;stroke-width:1.0;" x1="294.5" x2="959.5" y1="166.95" y2="166.95"/><text fill="#000000" font-family="NanumGothic" font-size="13" lengthAdjust="spacing" textLength="207" x="301.5" y="161.96">AuthorizeRequest(IdToken = 001)</text><polygon fill="#181818" points="305.5,191.9,295.5,195.9,305.5,199.9,301.5,195.9" style="stroke:#181818;stroke-width:1.0;"/><line style="stroke:#181818;stroke-width:1.0;stroke-dasharray:2.0,2.0;" x1="299.5" x2="969.5" y1="195.9" y2="195.9"/><text fill="#000000" font-family="NanumGothic" font-size="13" lengthAdjust="spacing" textLength="298" x="311.5" y="190.91">AuthorizeResponse(groupIdToken = 123, status)</text><path d="M10,217.9 L76,217.9 L76,224.85 L66,234.85 L10,234.85 L10,217.9 " fill="#EEEEEE" style="stroke:#000000;stroke-width:1.5;"/><rect fill="none" height="45.9" style="stroke:#000000;stroke-width:1.5;" width="349.5" x="10" y="217.9"/><text fill="#000000" font-family="NanumGothic" font-size="13" font-weight="bold" lengthAdjust="spacing" textLength="21" x="25" y="230.86">opt</text><polygon fill="#181818" points="65.5,251.8,55.5,255.8,65.5,259.8,61.5,255.8" style="stroke:#181818;stroke-width:1.0;"/><line style="stroke:#181818;stroke-width:1.0;stroke-dasharray:2.0,2.0;" x1="59.5" x2="283.5" y1="255.8" y2="255.8"/><text fill="#000000" font-family="NanumGothic" font-size="13" lengthAdjust="spacing" textLength="69" x="71.5" y="250.81">notification</text><polygon fill="#181818" points="953.5,287.75,963.5,291.75,953.5,295.75,957.5,291.75" style="stroke:#181818;stroke-width:1.0;"/><line style="stroke:#181818;stroke-width:1.0;" x1="294.5" x2="959.5" y1="291.75" y2="291.75"/><text fill="#000000" font-family="NanumGothic" font-size="13" lengthAdjust="spacing" textLength="481" x="301.5" y="286.76">TransactionEventRequest(eventType = Started, triggerReason = Authorized, ...)</text><polygon fill="#181818" points="300.5,316.7,290.5,320.7,300.5,324.7,296.5,320.7" style="stroke:#181818;stroke-width:1.0;"/><line style="stroke:#181818;stroke-width:1.0;stroke-dasharray:2.0,2.0;" x1="294.5" x2="969.5" y1="320.7" y2="320.7"/><text fill="#000000" font-family="NanumGothic" font-size="13" lengthAdjust="spacing" textLength="183" x="306.5" y="315.71">TransactionEventResponse(...)</text><polygon fill="#181818" points="272.5,345.65,282.5,349.65,272.5,353.65,276.5,349.65" style="stroke:#181818;stroke-width:1.0;"/><line style="stroke:#181818;stroke-width:1.0;" x1="133.5" x2="278.5" y1="349.65" y2="349.65"/><text fill="#000000" font-family="NanumGothic" font-size="13" lengthAdjust="spacing" textLength="132" x="140.5" y="344.66">present IdToken(002)</text><path d="M219.5,364.65 L285.5,364.65 L285.5,371.6 L275.5,381.6 L219.5,381.6 L219.5,364.65 " fill="#EEEEEE" style="stroke:#000000;stroke-width:1.5;"/><rect fill="none" height="97.8" style="stroke:#000000;stroke-width:1.5;" width="795" x="219.5" y="364.65"/><text fill="#000000" font-family="NanumGothic" font-size="13" font-weight="bold" lengthAdjust="spacing" textLength="21" x="234.5" y="377.61">opt</text><text fill="#000000" font-family="NanumGothic" font-size="11" font-weight="bold" lengthAdjust="spacing" textLength="602" x="300.5" y="376.77">[if the IdToken used for stopping the transaction is different from the IdToken that started the transaction AND NOT</text><text fill="#000000" font-family="NanumGothic" font-size="11" font-weight="bold" lengthAdjust="spacing" textLength="706" x="303.5" y="389.42">(The GroupIdTokens used to start and stop the transaction are present in either the Local Authorization List or Authorization Cache AND</text><text fill="#000000" font-family="NanumGothic" font-size="11" font-weight="bold" lengthAdjust="spacing" textLength="102" x="303.5" y="402.07">they are the same).]</text><polygon fill="#181818" points="953.5,421.5,963.5,425.5,953.5,429.5,957.5,425.5" style="stroke:#181818;stroke-width:1.0;"/><line style="stroke:#181818;stroke-width:1.0;" x1="294.5" x2="959.5" y1="425.5" y2="425.5"/><text fill="#000000" font-family="NanumGothic" font-size="13" lengthAdjust="spacing" textLength="207" x="301.5" y="420.51">AuthorizeRequest(IdToken = 002)</text><polygon fill="#181818" points="305.5,450.45,295.5,454.45,305.5,458.45,301.5,454.45" style="stroke:#181818;stroke-width:1.0;"/><line style="stroke:#181818;stroke-width:1.0;stroke-dasharray:2.0,2.0;" x1="299.5" x2="969.5" y1="454.45" y2="454.45"/><text fill="#000000" font-family="NanumGothic" font-size="13" lengthAdjust="spacing" textLength="298" x="311.5" y="449.46">AuthorizeResponse(groupIdToken = 123, status)</text><polygon fill="#181818" points="953.5,486.4,963.5,490.4,953.5,494.4,957.5,490.4" style="stroke:#181818;stroke-width:1.0;"/><line style="stroke:#181818;stroke-width:1.0;" x1="294.5" x2="959.5" y1="490.4" y2="490.4"/><text fill="#000000" font-family="NanumGothic" font-size="13" lengthAdjust="spacing" textLength="652" x="301.5" y="485.41">TransactionEventRequest(eventType = Ended, triggerReason = StopAuthorized, stoppedReason = Local, ...)</text><polygon fill="#181818" points="305.5,515.35,295.5,519.35,305.5,523.35,301.5,519.35" style="stroke:#181818;stroke-width:1.0;"/><line style="stroke:#181818;stroke-width:1.0;stroke-dasharray:2.0,2.0;" x1="299.5" x2="969.5" y1="519.35" y2="519.35"/><text fill="#000000" font-family="NanumGothic" font-size="13" lengthAdjust="spacing" textLength="183" x="311.5" y="514.36">TransactionEventResponse(...)</text><path d="M89,534.35 L155,534.35 L155,541.3 L145,551.3 L89,551.3 L89,534.35 " fill="#EEEEEE" style="stroke:#000000;stroke-width:1.5;"/><rect fill="none" height="45.9" style="stroke:#000000;stroke-width:1.5;" width="270.5" x="89" y="534.35"/><text fill="#000000" font-family="NanumGothic" font-size="13" font-weight="bold" lengthAdjust="spacing" textLength="21" x="104" y="547.31">opt</text><polygon fill="#181818" points="144.5,568.25,134.5,572.25,144.5,576.25,140.5,572.25" style="stroke:#181818;stroke-width:1.0;"/><line style="stroke:#181818;stroke-width:1.0;stroke-dasharray:2.0,2.0;" x1="138.5" x2="288.5" y1="572.25" y2="572.25"/><text fill="#000000" font-family="NanumGothic" font-size="13" lengthAdjust="spacing" textLength="69" x="150.5" y="567.26">notification</text><!--SRC=[nLF1JkCm4BtdAsPxAX94DDmgBHA22gt4WaGZJboiU9ACQ6slFQdK_NfibwH9MhI85UAKs3Fpvitpcn-aYbKZ4HnlLvYQPhrA4b6mjZ1PFDrOsg2TJK0uw4xZS3O8PuaHbgaW8nJ3vBeMjY9LmP85arOnjxryknjLB7ylTrd-9qcwjd1sEIwSWx7eq5Vzahb-GJKzFv-T17wq4Om7VH9j6AXiiu4SACqT22dW6k5E5s85LmtNsjBVM0btv1ZyqCFRQr7Kc2OmRXIfUlRpBXyVyK-3ZgTjwvyGgGBioSPn8NxXxDYmFJ1dj78uhQnkp1vobbsS-eSKtBW0BN48Zaf62OuHzlqwfUT15IgfsAaMozwTCBT2kT17gyN6gzWEYk6GRmrwNhx8CifJO4jLXVOHXTE1S3UHZwLfsd-wgCRxMXosVPCamemdxv_7dkYC-q63PHymMB1H-ooDGmcbzuvZRKnOXH3bFVzWGqbbYJOqAgrU3-gv5XmUDIXuK7frVmFt3_cpWcdkGxSzFxXTPzQxOX1AHWe76C9YVmMGV8Bzp2O4DiznXxOHD40uiSQJDFdqZcJViIF_PVQ5aiUillJIz-qUtO2oYqUjltOBeZl_iVpPQFc72etixiM2Lm00]--></g></svg>