<?xml version="1.0" encoding="us-ascii" standalone="no"?><svg xmlns="http://www.w3.org/2000/svg" xmlns:xlink="http://www.w3.org/1999/xlink" contentStyleType="text/css" height="892px" preserveAspectRatio="none" style="width:949px;height:892px;background:#FFFFFF;" version="1.1" viewBox="0 0 949 892" width="949px" zoomAndPan="magnify"><defs/><g><rect fill="#FFFFFF" height="28.95" style="stroke:#181818;stroke-width:1.0;" width="10" x="203.5" y="163.95"/><rect fill="#FFFFFF" height="28.95" style="stroke:#181818;stroke-width:1.0;" width="10" x="203.5" y="333.65"/><rect fill="#FFFFFF" height="28.95" style="stroke:#181818;stroke-width:1.0;" width="10" x="203.5" y="421.15"/><rect fill="#FFFFFF" height="28.95" style="stroke:#181818;stroke-width:1.0;" width="10" x="203.5" y="515"/><rect fill="#FFFFFF" height="28.95" style="stroke:#181818;stroke-width:1.0;" width="10" x="203.5" y="611.8"/><rect fill="#FFFFFF" height="28.95" style="stroke:#181818;stroke-width:1.0;" width="10" x="203.5" y="699.3"/><rect fill="#FFFFFF" height="28.95" style="stroke:#181818;stroke-width:1.0;" width="10" x="203.5" y="832.05"/><rect fill="#FFFFFF" height="28.95" style="stroke:#181818;stroke-width:1.0;" width="10" x="900.5" y="163.95"/><rect fill="#FFFFFF" height="28.95" style="stroke:#181818;stroke-width:1.0;" width="10" x="900.5" y="333.65"/><rect fill="#FFFFFF" height="28.95" style="stroke:#181818;stroke-width:1.0;" width="10" x="900.5" y="421.15"/><rect fill="#FFFFFF" height="28.95" style="stroke:#181818;stroke-width:1.0;" width="10" x="900.5" y="515"/><rect fill="#FFFFFF" height="28.95" style="stroke:#181818;stroke-width:1.0;" width="10" x="900.5" y="611.8"/><rect fill="#FFFFFF" height="28.95" style="stroke:#181818;stroke-width:1.0;" width="10" x="900.5" y="699.3"/><rect fill="#FFFFFF" height="28.95" style="stroke:#181818;stroke-width:1.0;" width="10" x="900.5" y="832.05"/><rect fill="none" height="58.9" style="stroke:#000000;stroke-width:1.5;" width="462" x="138.5" y="207.9"/><rect fill="none" height="177.3" style="stroke:#000000;stroke-width:1.5;" width="803.5" x="138.5" y="280.8"/><rect fill="none" height="177.3" style="stroke:#000000;stroke-width:1.5;" width="803.5" x="138.5" y="558.95"/><rect fill="none" height="89.8" style="stroke:#000000;stroke-width:1.5;" width="803.5" x="138.5" y="779.2"/><line style="stroke:#181818;stroke-width:0.5;stroke-dasharray:5.0,5.0;" x1="37" x2="37" y1="83.1" y2="886"/><line style="stroke:#181818;stroke-width:0.5;stroke-dasharray:5.0,5.0;" x1="208.5" x2="208.5" y1="83.1" y2="886"/><line style="stroke:#181818;stroke-width:0.5;stroke-dasharray:5.0,5.0;" x1="905" x2="905" y1="83.1" y2="886"/><text fill="#000000" font-family="NanumGothic" font-size="14" lengthAdjust="spacing" textLength="59" x="5" y="79.88">EV Driver</text><ellipse cx="37.5" cy="14.5" fill="#E2E2F0" rx="8" ry="8" style="stroke:#7D5393;stroke-width:1.5;"/><path d="M37.5,22.5 L37.5,49.5 M24.5,30.5 L50.5,30.5 M37.5,49.5 L24.5,64.5 M37.5,49.5 L50.5,64.5 " fill="none" style="stroke:#7D5393;stroke-width:1.5;"/><rect fill="#7D5393" height="30.1" rx="2.5" ry="2.5" style="stroke:#181818;stroke-width:0.5;" width="120" x="148.5" y="52"/><text fill="#FFFFFF" font-family="NanumGothic" font-size="14" lengthAdjust="spacing" textLength="106" x="155.5" y="71.88">Charging Station</text><rect fill="#7D5393" height="30.1" rx="2.5" ry="2.5" style="stroke:#181818;stroke-width:0.5;" width="53" x="879" y="52"/><text fill="#FFFFFF" font-family="NanumGothic" font-size="14" lengthAdjust="spacing" textLength="39" x="886" y="71.88">CSMS</text><rect fill="#FFFFFF" height="28.95" style="stroke:#181818;stroke-width:1.0;" width="10" x="203.5" y="163.95"/><rect fill="#FFFFFF" height="28.95" style="stroke:#181818;stroke-width:1.0;" width="10" x="203.5" y="333.65"/><rect fill="#FFFFFF" height="28.95" style="stroke:#181818;stroke-width:1.0;" width="10" x="203.5" y="421.15"/><rect fill="#FFFFFF" height="28.95" style="stroke:#181818;stroke-width:1.0;" width="10" x="203.5" y="515"/><rect fill="#FFFFFF" height="28.95" style="stroke:#181818;stroke-width:1.0;" width="10" x="203.5" y="611.8"/><rect fill="#FFFFFF" height="28.95" style="stroke:#181818;stroke-width:1.0;" width="10" x="203.5" y="699.3"/><rect fill="#FFFFFF" height="28.95" style="stroke:#181818;stroke-width:1.0;" width="10" x="203.5" y="832.05"/><rect fill="#FFFFFF" height="28.95" style="stroke:#181818;stroke-width:1.0;" width="10" x="900.5" y="163.95"/><rect fill="#FFFFFF" height="28.95" style="stroke:#181818;stroke-width:1.0;" width="10" x="900.5" y="333.65"/><rect fill="#FFFFFF" height="28.95" style="stroke:#181818;stroke-width:1.0;" width="10" x="900.5" y="421.15"/><rect fill="#FFFFFF" height="28.95" style="stroke:#181818;stroke-width:1.0;" width="10" x="900.5" y="515"/><rect fill="#FFFFFF" height="28.95" style="stroke:#181818;stroke-width:1.0;" width="10" x="900.5" y="611.8"/><rect fill="#FFFFFF" height="28.95" style="stroke:#181818;stroke-width:1.0;" width="10" x="900.5" y="699.3"/><rect fill="#FFFFFF" height="28.95" style="stroke:#181818;stroke-width:1.0;" width="10" x="900.5" y="832.05"/><path d="M10,98.1 L10,122.1 L932,122.1 L932,108.1 L922,98.1 L10,98.1 " fill="#7D5393" style="stroke:#000000;stroke-width:0.5;"/><path d="M922,98.1 L922,108.1 L932,108.1 L922,98.1 " fill="#7D5393" style="stroke:#000000;stroke-width:0.5;"/><text fill="#FFFFFF" font-family="NanumGothic" font-size="13" lengthAdjust="spacing" textLength="181" x="376" y="115.06">User authorization successful.</text><polygon fill="#181818" points="888.5,159.95,898.5,163.95,888.5,167.95,892.5,163.95" style="stroke:#181818;stroke-width:1.0;"/><line style="stroke:#181818;stroke-width:1.0;" x1="213.5" x2="894.5" y1="163.95" y2="163.95"/><text fill="#000000" font-family="NanumGothic" font-size="13" lengthAdjust="spacing" textLength="614" x="220.5" y="144.01">TransactionEventRequest(eventType = Updated, transactionId = AB1234, seqNo = N + 1, timestamp,</text><text fill="#000000" font-family="NanumGothic" font-size="13" lengthAdjust="spacing" textLength="322" x="220.5" y="158.96">triggerReason = StopAuthorized, idToken.id = 1234)</text><polygon fill="#181818" points="219.5,188.9,209.5,192.9,219.5,196.9,215.5,192.9" style="stroke:#181818;stroke-width:1.0;"/><line style="stroke:#181818;stroke-width:1.0;stroke-dasharray:2.0,2.0;" x1="213.5" x2="904.5" y1="192.9" y2="192.9"/><text fill="#000000" font-family="NanumGothic" font-size="13" lengthAdjust="spacing" textLength="284" x="225.5" y="187.91">TransactionEventResponse(idTokenInfo.status)</text><path d="M138.5,207.9 L204.5,207.9 L204.5,214.85 L194.5,224.85 L138.5,224.85 L138.5,207.9 " fill="#EEEEEE" style="stroke:#000000;stroke-width:1.5;"/><rect fill="none" height="58.9" style="stroke:#000000;stroke-width:1.5;" width="462" x="138.5" y="207.9"/><text fill="#000000" font-family="NanumGothic" font-size="13" font-weight="bold" lengthAdjust="spacing" textLength="21" x="153.5" y="220.86">opt</text><text fill="#000000" font-family="NanumGothic" font-size="11" font-weight="bold" lengthAdjust="spacing" textLength="376" x="219.5" y="220.02">[if cable not permanently attached &amp; (same identification or authorized)]</text><line style="stroke:#181818;stroke-width:1.0;" x1="208.5" x2="250.5" y1="245.8" y2="245.8"/><line style="stroke:#181818;stroke-width:1.0;" x1="250.5" x2="250.5" y1="245.8" y2="258.8"/><line style="stroke:#181818;stroke-width:1.0;" x1="209.5" x2="250.5" y1="258.8" y2="258.8"/><polygon fill="#181818" points="219.5,254.8,209.5,258.8,219.5,262.8,215.5,258.8" style="stroke:#181818;stroke-width:1.0;"/><text fill="#000000" font-family="NanumGothic" font-size="13" lengthAdjust="spacing" textLength="105" x="215.5" y="240.81">unlock connector</text><path d="M138.5,280.8 L198.5,280.8 L198.5,287.75 L188.5,297.75 L138.5,297.75 L138.5,280.8 " fill="#EEEEEE" style="stroke:#000000;stroke-width:1.5;"/><rect fill="none" height="177.3" style="stroke:#000000;stroke-width:1.5;" width="803.5" x="138.5" y="280.8"/><text fill="#000000" font-family="NanumGothic" font-size="13" font-weight="bold" lengthAdjust="spacing" textLength="15" x="153.5" y="293.76">alt</text><text fill="#000000" font-family="NanumGothic" font-size="11" font-weight="bold" lengthAdjust="spacing" textLength="353" x="213.5" y="292.92">[TxStopPoint = Authorized OR PowerPathClosed OR EnergyTransfer]</text><polygon fill="#181818" points="888.5,329.65,898.5,333.65,888.5,337.65,892.5,333.65" style="stroke:#181818;stroke-width:1.0;"/><line style="stroke:#181818;stroke-width:1.0;" x1="213.5" x2="894.5" y1="333.65" y2="333.65"/><text fill="#000000" font-family="NanumGothic" font-size="13" lengthAdjust="spacing" textLength="600" x="220.5" y="313.71">TransactionEventRequest(eventType = Ended, transactionId = AB1234, seqNo = N + 2, timestamp,</text><text fill="#000000" font-family="NanumGothic" font-size="13" lengthAdjust="spacing" textLength="673" x="220.5" y="328.66">triggerReason = ChargingStateChanged, chargingState = EVConnected, stoppedReason = Local, meterValues)</text><polygon fill="#181818" points="219.5,358.6,209.5,362.6,219.5,366.6,215.5,362.6" style="stroke:#181818;stroke-width:1.0;"/><line style="stroke:#181818;stroke-width:1.0;stroke-dasharray:2.0,2.0;" x1="213.5" x2="904.5" y1="362.6" y2="362.6"/><text fill="#000000" font-family="NanumGothic" font-size="13" lengthAdjust="spacing" textLength="171" x="225.5" y="357.61">TransactionEventResponse()</text><line style="stroke:#000000;stroke-width:1.0;stroke-dasharray:2.0,2.0;" x1="138.5" x2="942" y1="371.6" y2="371.6"/><text fill="#000000" font-family="NanumGothic" font-size="11" font-weight="bold" lengthAdjust="spacing" textLength="364" x="143.5" y="381.72">[TxStopPoint = EVConnected OR TxStopPoint = ParkingBayOccupancy]</text><polygon fill="#181818" points="888.5,417.15,898.5,421.15,888.5,425.15,892.5,421.15" style="stroke:#181818;stroke-width:1.0;"/><line style="stroke:#181818;stroke-width:1.0;" x1="213.5" x2="894.5" y1="421.15" y2="421.15"/><text fill="#000000" font-family="NanumGothic" font-size="13" lengthAdjust="spacing" textLength="614" x="220.5" y="401.21">TransactionEventRequest(eventType = Updated, transactionId = AB1234, seqNo = N + 2, timestamp,</text><text fill="#000000" font-family="NanumGothic" font-size="13" lengthAdjust="spacing" textLength="524" x="220.5" y="416.16">triggerReason = ChargingStateChanged, chargingState = EVConnected, meterValues)</text><polygon fill="#181818" points="219.5,446.1,209.5,450.1,219.5,454.1,215.5,450.1" style="stroke:#181818;stroke-width:1.0;"/><line style="stroke:#181818;stroke-width:1.0;stroke-dasharray:2.0,2.0;" x1="213.5" x2="904.5" y1="450.1" y2="450.1"/><text fill="#000000" font-family="NanumGothic" font-size="13" lengthAdjust="spacing" textLength="171" x="225.5" y="445.11">TransactionEventResponse()</text><polygon fill="#181818" points="196.5,482.05,206.5,486.05,196.5,490.05,200.5,486.05" style="stroke:#181818;stroke-width:1.0;"/><line style="stroke:#181818;stroke-width:1.0;" x1="37.5" x2="202.5" y1="486.05" y2="486.05"/><text fill="#000000" font-family="NanumGothic" font-size="13" lengthAdjust="spacing" textLength="79" x="44.5" y="481.06">Unplug cable</text><polygon fill="#181818" points="888.5,511,898.5,515,888.5,519,892.5,515" style="stroke:#181818;stroke-width:1.0;"/><line style="stroke:#181818;stroke-width:1.0;" x1="213.5" x2="894.5" y1="515" y2="515"/><text fill="#000000" font-family="NanumGothic" font-size="13" lengthAdjust="spacing" textLength="220" x="220.5" y="510.01">StatusNotificationRequest(Available)</text><polygon fill="#181818" points="219.5,539.95,209.5,543.95,219.5,547.95,215.5,543.95" style="stroke:#181818;stroke-width:1.0;"/><line style="stroke:#181818;stroke-width:1.0;stroke-dasharray:2.0,2.0;" x1="213.5" x2="904.5" y1="543.95" y2="543.95"/><text fill="#000000" font-family="NanumGothic" font-size="13" lengthAdjust="spacing" textLength="176" x="225.5" y="538.96">StatusNotificationResponse()</text><path d="M138.5,558.95 L198.5,558.95 L198.5,565.9 L188.5,575.9 L138.5,575.9 L138.5,558.95 " fill="#EEEEEE" style="stroke:#000000;stroke-width:1.5;"/><rect fill="none" height="177.3" style="stroke:#000000;stroke-width:1.5;" width="803.5" x="138.5" y="558.95"/><text fill="#000000" font-family="NanumGothic" font-size="13" font-weight="bold" lengthAdjust="spacing" textLength="15" x="153.5" y="571.91">alt</text><text fill="#000000" font-family="NanumGothic" font-size="11" font-weight="bold" lengthAdjust="spacing" textLength="153" x="213.5" y="571.07">[TxStopPoint = EVConnected]</text><polygon fill="#181818" points="888.5,607.8,898.5,611.8,888.5,615.8,892.5,611.8" style="stroke:#181818;stroke-width:1.0;"/><line style="stroke:#181818;stroke-width:1.0;" x1="213.5" x2="894.5" y1="611.8" y2="611.8"/><text fill="#000000" font-family="NanumGothic" font-size="13" lengthAdjust="spacing" textLength="600" x="220.5" y="591.86">TransactionEventRequest(eventType = Ended, transactionId = AB1234, seqNo = N + 3, timestamp,</text><text fill="#000000" font-family="NanumGothic" font-size="13" lengthAdjust="spacing" textLength="394" x="220.5" y="606.81">triggerReason = EVCommunicationLost, stoppedReason = Local)</text><polygon fill="#181818" points="219.5,636.75,209.5,640.75,219.5,644.75,215.5,640.75" style="stroke:#181818;stroke-width:1.0;"/><line style="stroke:#181818;stroke-width:1.0;stroke-dasharray:2.0,2.0;" x1="213.5" x2="904.5" y1="640.75" y2="640.75"/><text fill="#000000" font-family="NanumGothic" font-size="13" lengthAdjust="spacing" textLength="171" x="225.5" y="635.76">TransactionEventResponse()</text><line style="stroke:#000000;stroke-width:1.0;stroke-dasharray:2.0,2.0;" x1="138.5" x2="942" y1="649.75" y2="649.75"/><text fill="#000000" font-family="NanumGothic" font-size="11" font-weight="bold" lengthAdjust="spacing" textLength="197" x="143.5" y="659.87">[TxStopPoint = ParkingBayOccupancy]</text><polygon fill="#181818" points="888.5,695.3,898.5,699.3,888.5,703.3,892.5,699.3" style="stroke:#181818;stroke-width:1.0;"/><line style="stroke:#181818;stroke-width:1.0;" x1="213.5" x2="894.5" y1="699.3" y2="699.3"/><text fill="#000000" font-family="NanumGothic" font-size="13" lengthAdjust="spacing" textLength="614" x="220.5" y="679.36">TransactionEventRequest(eventType = Updated, transactionId = AB1234, seqNo = N + 3, timestamp,</text><text fill="#000000" font-family="NanumGothic" font-size="13" lengthAdjust="spacing" textLength="245" x="220.5" y="694.31">triggerReason = EVCommunicationLost)</text><polygon fill="#181818" points="219.5,724.25,209.5,728.25,219.5,732.25,215.5,728.25" style="stroke:#181818;stroke-width:1.0;"/><line style="stroke:#181818;stroke-width:1.0;stroke-dasharray:2.0,2.0;" x1="213.5" x2="904.5" y1="728.25" y2="728.25"/><text fill="#000000" font-family="NanumGothic" font-size="13" lengthAdjust="spacing" textLength="171" x="225.5" y="723.26">TransactionEventResponse()</text><polygon fill="#181818" points="196.5,760.2,206.5,764.2,196.5,768.2,200.5,764.2" style="stroke:#181818;stroke-width:1.0;"/><line style="stroke:#181818;stroke-width:1.0;" x1="37.5" x2="202.5" y1="764.2" y2="764.2"/><text fill="#000000" font-family="NanumGothic" font-size="13" lengthAdjust="spacing" textLength="147" x="44.5" y="759.21">Drive out of parking bay</text><path d="M138.5,779.2 L198.5,779.2 L198.5,786.15 L188.5,796.15 L138.5,796.15 L138.5,779.2 " fill="#EEEEEE" style="stroke:#000000;stroke-width:1.5;"/><rect fill="none" height="89.8" style="stroke:#000000;stroke-width:1.5;" width="803.5" x="138.5" y="779.2"/><text fill="#000000" font-family="NanumGothic" font-size="13" font-weight="bold" lengthAdjust="spacing" textLength="15" x="153.5" y="792.16">alt</text><text fill="#000000" font-family="NanumGothic" font-size="11" font-weight="bold" lengthAdjust="spacing" textLength="224" x="213.5" y="791.32">[TxStopPoint = ParkingBayOccupancyoend]</text><polygon fill="#181818" points="888.5,828.05,898.5,832.05,888.5,836.05,892.5,832.05" style="stroke:#181818;stroke-width:1.0;"/><line style="stroke:#181818;stroke-width:1.0;" x1="213.5" x2="894.5" y1="832.05" y2="832.05"/><text fill="#000000" font-family="NanumGothic" font-size="13" lengthAdjust="spacing" textLength="600" x="220.5" y="812.11">TransactionEventRequest(eventType = Ended, transactionId = AB1234, seqNo = N + 3, timestamp,</text><text fill="#000000" font-family="NanumGothic" font-size="13" lengthAdjust="spacing" textLength="328" x="220.5" y="827.06">triggerReason = EVDeparted, stoppedReason = Local)</text><polygon fill="#181818" points="219.5,857,209.5,861,219.5,865,215.5,861" style="stroke:#181818;stroke-width:1.0;"/><line style="stroke:#181818;stroke-width:1.0;stroke-dasharray:2.0,2.0;" x1="213.5" x2="904.5" y1="861" y2="861"/><text fill="#000000" font-family="NanumGothic" font-size="13" lengthAdjust="spacing" textLength="171" x="225.5" y="856.01">TransactionEventResponse()</text><!--SRC=[rLPDJnin4BtlhvZcK14rH09wGg9IW1oGA4GavCJ5U2SR2wzj_95s- -ixtWtvt8I0AD1B57liUPxtPbxoHIWkGuhWV26nRK8kauHnhoqqkaCujsA2jW7CGNTOBHB3h1TS6AOyDCx6p6P2PT3tp0kjogDFczEzbHlzd_tg57r94gKzWgQyCu1M5G6uTRJBWXzhA_wKcS05pj6vKP3j15KAyNQIhE31_eyonJ4032nJZkgXxUu4bR_1nu3Exs5S30g3S0At9cKUqnRu-U6Bb0ATquF3e-yjSFXufMbz1T_WW8w9d5AmtBG0xfIt8ilGtY1p17r2H6ZJcJuw9XNfG3-WQekOCUPhHdx5X23NY9e7IcxY9-p7QfRF7TUKvOnM3lUcQ1TgfDlqHXzSCqbn8-1Yg8JKneCO0MVt4YExOD3cJ164B81vp_WOK_WAUuxbIBLHG8m4htZNSxamRPA2TSAibXAKrFm1k5OAOzz5NQa5fOV1xyXbJmjg6n9ZbXckRw2dVw7jCJy-azfLMrs5DYjAPaRKflNeqxROhJ6wAjsrBGwNswAkCHQVWxHGMKpE5tSZvl2iOY867TLlC9sbkDISoHRawD4EcQG7HvOtghiOAjK5U4LBHOWjBRGSZ30e7Qw8jr1Lb6evs6FsWHAUikAQyq0kmOktKEz5O_rlzFjOeIeNtI9TEMbFjbixdBVAo91LTh35P_kbqrpfkHSy2TAPC27ZxRTmlJgOMUqlSRbrTrcGxPsTu-ZvpekFo_EWfaLVQkStUCD_OWUVOU9VntjpZSKjXByNmS-ESHa27Jpe4PYAVBXdHTqar6YZ8y8dd8fpZFyiD_vGVe1MErdkNm00]--></g></svg>