<?xml version="1.0" encoding="us-ascii" standalone="no"?><svg xmlns="http://www.w3.org/2000/svg" xmlns:xlink="http://www.w3.org/1999/xlink" contentStyleType="text/css" height="689px" preserveAspectRatio="none" style="width:617px;height:689px;background:#FFFFFF;" version="1.1" viewBox="0 0 617 689" width="617px" zoomAndPan="magnify"><defs/><g><rect fill="#FFFFFF" height="28.95" style="stroke:#181818;stroke-width:1.0;" width="10" x="51.5" y="181.9"/><rect fill="#FFFFFF" height="28.95" style="stroke:#181818;stroke-width:1.0;" width="10" x="51.5" y="287.7"/><rect fill="#FFFFFF" height="28.95" style="stroke:#181818;stroke-width:1.0;" width="10" x="51.5" y="449.45"/><rect fill="#FFFFFF" height="28.95" style="stroke:#181818;stroke-width:1.0;" width="10" x="51.5" y="522"/><rect fill="#FFFFFF" height="28.95" style="stroke:#181818;stroke-width:1.0;" width="10" x="51.5" y="628.15"/><rect fill="#FFFFFF" height="28.95" style="stroke:#181818;stroke-width:1.0;" width="10" x="526.5" y="181.9"/><rect fill="#FFFFFF" height="28.95" style="stroke:#181818;stroke-width:1.0;" width="10" x="526.5" y="287.7"/><rect fill="#FFFFFF" height="28.95" style="stroke:#181818;stroke-width:1.0;" width="10" x="526.5" y="449.45"/><rect fill="#FFFFFF" height="28.95" style="stroke:#181818;stroke-width:1.0;" width="10" x="526.5" y="522"/><rect fill="#FFFFFF" height="28.95" style="stroke:#181818;stroke-width:1.0;" width="10" x="526.5" y="628.15"/><rect fill="none" height="58.9" style="stroke:#000000;stroke-width:1.5;" width="149" x="461.5" y="95.05"/><rect fill="none" height="147.75" style="stroke:#000000;stroke-width:1.5;" width="600.5" x="10" y="225.85"/><rect fill="none" height="74.85" style="stroke:#000000;stroke-width:1.5;" width="581.5" x="20" y="249.8"/><rect fill="none" height="178.35" style="stroke:#000000;stroke-width:1.5;" width="601.5" x="10" y="387.6"/><rect fill="none" height="147.4" style="stroke:#000000;stroke-width:1.5;" width="581.5" x="20" y="411.55"/><rect fill="none" height="85.15" style="stroke:#000000;stroke-width:1.5;" width="581.5" x="20" y="579.95"/><line style="stroke:#181818;stroke-width:0.5;stroke-dasharray:5.0,5.0;" x1="56" x2="56" y1="36.1" y2="682.1"/><line style="stroke:#181818;stroke-width:0.5;stroke-dasharray:5.0,5.0;" x1="531.5" x2="531.5" y1="36.1" y2="682.1"/><rect fill="#7D5393" height="30.1" rx="2.5" ry="2.5" style="stroke:#181818;stroke-width:0.5;" width="53" x="30" y="5"/><text fill="#FFFFFF" font-family="NanumGothic" font-size="14" lengthAdjust="spacing" textLength="39" x="37" y="24.88">CSMS</text><rect fill="#7D5393" height="30.1" rx="2.5" ry="2.5" style="stroke:#181818;stroke-width:0.5;" width="120" x="471.5" y="5"/><text fill="#FFFFFF" font-family="NanumGothic" font-size="14" lengthAdjust="spacing" textLength="106" x="478.5" y="24.88">Charging Station</text><rect fill="#FFFFFF" height="28.95" style="stroke:#181818;stroke-width:1.0;" width="10" x="51.5" y="181.9"/><rect fill="#FFFFFF" height="28.95" style="stroke:#181818;stroke-width:1.0;" width="10" x="51.5" y="287.7"/><rect fill="#FFFFFF" height="28.95" style="stroke:#181818;stroke-width:1.0;" width="10" x="51.5" y="449.45"/><rect fill="#FFFFFF" height="28.95" style="stroke:#181818;stroke-width:1.0;" width="10" x="51.5" y="522"/><rect fill="#FFFFFF" height="28.95" style="stroke:#181818;stroke-width:1.0;" width="10" x="51.5" y="628.15"/><rect fill="#FFFFFF" height="28.95" style="stroke:#181818;stroke-width:1.0;" width="10" x="526.5" y="181.9"/><rect fill="#FFFFFF" height="28.95" style="stroke:#181818;stroke-width:1.0;" width="10" x="526.5" y="287.7"/><rect fill="#FFFFFF" height="28.95" style="stroke:#181818;stroke-width:1.0;" width="10" x="526.5" y="449.45"/><rect fill="#FFFFFF" height="28.95" style="stroke:#181818;stroke-width:1.0;" width="10" x="526.5" y="522"/><rect fill="#FFFFFF" height="28.95" style="stroke:#181818;stroke-width:1.0;" width="10" x="526.5" y="628.15"/><line style="stroke:#181818;stroke-width:1.0;" x1="531.5" x2="573.5" y1="67.05" y2="67.05"/><line style="stroke:#181818;stroke-width:1.0;" x1="573.5" x2="573.5" y1="67.05" y2="80.05"/><line style="stroke:#181818;stroke-width:1.0;" x1="532.5" x2="573.5" y1="80.05" y2="80.05"/><polygon fill="#181818" points="542.5,76.05,532.5,80.05,542.5,84.05,538.5,80.05" style="stroke:#181818;stroke-width:1.0;"/><text fill="#000000" font-family="NanumGothic" font-size="13" lengthAdjust="spacing" textLength="59" x="538.5" y="62.06">Power up</text><path d="M461.5,95.05 L527.5,95.05 L527.5,102 L517.5,112 L461.5,112 L461.5,95.05 " fill="#EEEEEE" style="stroke:#000000;stroke-width:1.5;"/><rect fill="none" height="58.9" style="stroke:#000000;stroke-width:1.5;" width="149" x="461.5" y="95.05"/><text fill="#000000" font-family="NanumGothic" font-size="13" font-weight="bold" lengthAdjust="spacing" textLength="21" x="476.5" y="108.01">opt</text><line style="stroke:#181818;stroke-width:1.0;" x1="531.5" x2="573.5" y1="132.95" y2="132.95"/><line style="stroke:#181818;stroke-width:1.0;" x1="573.5" x2="573.5" y1="132.95" y2="145.95"/><line style="stroke:#181818;stroke-width:1.0;" x1="532.5" x2="573.5" y1="145.95" y2="145.95"/><polygon fill="#181818" points="542.5,141.95,532.5,145.95,542.5,149.95,538.5,145.95" style="stroke:#181818;stroke-width:1.0;"/><text fill="#000000" font-family="NanumGothic" font-size="13" lengthAdjust="spacing" textLength="60" x="538.5" y="127.96">Self check</text><polygon fill="#181818" points="72.5,177.9,62.5,181.9,72.5,185.9,68.5,181.9" style="stroke:#181818;stroke-width:1.0;"/><line style="stroke:#181818;stroke-width:1.0;" x1="66.5" x2="525.5" y1="181.9" y2="181.9"/><text fill="#000000" font-family="NanumGothic" font-size="13" lengthAdjust="spacing" textLength="303" x="78.5" y="176.91">BootNotificationRequest(reason, chargingStation)</text><polygon fill="#181818" points="519.5,206.85,529.5,210.85,519.5,214.85,523.5,210.85" style="stroke:#181818;stroke-width:1.0;"/><line style="stroke:#181818;stroke-width:1.0;stroke-dasharray:2.0,2.0;" x1="56.5" x2="525.5" y1="210.85" y2="210.85"/><text fill="#000000" font-family="NanumGothic" font-size="13" lengthAdjust="spacing" textLength="401" x="63.5" y="205.86">BootNotificationResponse(status  Accepted, currentTime, interval)</text><path d="M10,225.85 L76,225.85 L76,232.8 L66,242.8 L10,242.8 L10,225.85 " fill="#EEEEEE" style="stroke:#000000;stroke-width:1.5;"/><rect fill="none" height="147.75" style="stroke:#000000;stroke-width:1.5;" width="600.5" x="10" y="225.85"/><text fill="#000000" font-family="NanumGothic" font-size="13" font-weight="bold" lengthAdjust="spacing" textLength="21" x="25" y="238.81">opt</text><path d="M20,249.8 L92,249.8 L92,256.75 L82,266.75 L20,266.75 L20,249.8 " fill="#EEEEEE" style="stroke:#000000;stroke-width:1.5;"/><rect fill="none" height="74.85" style="stroke:#000000;stroke-width:1.5;" width="581.5" x="20" y="249.8"/><text fill="#000000" font-family="NanumGothic" font-size="13" font-weight="bold" lengthAdjust="spacing" textLength="27" x="35" y="262.76">loop</text><text fill="#000000" font-family="NanumGothic" font-size="11" font-weight="bold" lengthAdjust="spacing" textLength="100" x="107" y="261.92">[for all Connectors]</text><polygon fill="#181818" points="72.5,283.7,62.5,287.7,72.5,291.7,68.5,287.7" style="stroke:#181818;stroke-width:1.0;"/><line style="stroke:#181818;stroke-width:1.0;" x1="66.5" x2="525.5" y1="287.7" y2="287.7"/><text fill="#000000" font-family="NanumGothic" font-size="13" lengthAdjust="spacing" textLength="351" x="78.5" y="282.71">StatusNotificationRequest(connectorStatus = Unavailable)</text><polygon fill="#181818" points="519.5,312.65,529.5,316.65,519.5,320.65,523.5,316.65" style="stroke:#181818;stroke-width:1.0;"/><line style="stroke:#181818;stroke-width:1.0;stroke-dasharray:2.0,2.0;" x1="56.5" x2="525.5" y1="316.65" y2="316.65"/><text fill="#000000" font-family="NanumGothic" font-size="13" lengthAdjust="spacing" textLength="176" x="63.5" y="311.66">StatusNotificationResponse()</text><line style="stroke:#181818;stroke-width:1.0;" x1="531.5" x2="573.5" y1="352.6" y2="352.6"/><line style="stroke:#181818;stroke-width:1.0;" x1="573.5" x2="573.5" y1="352.6" y2="365.6"/><line style="stroke:#181818;stroke-width:1.0;" x1="532.5" x2="573.5" y1="365.6" y2="365.6"/><polygon fill="#181818" points="542.5,361.6,532.5,365.6,542.5,369.6,538.5,365.6" style="stroke:#181818;stroke-width:1.0;"/><text fill="#000000" font-family="NanumGothic" font-size="13" lengthAdjust="spacing" textLength="60" x="538.5" y="347.61">Self check</text><path d="M10,387.6 L82,387.6 L82,394.55 L72,404.55 L10,404.55 L10,387.6 " fill="#EEEEEE" style="stroke:#000000;stroke-width:1.5;"/><rect fill="none" height="178.35" style="stroke:#000000;stroke-width:1.5;" width="601.5" x="10" y="387.6"/><text fill="#000000" font-family="NanumGothic" font-size="13" font-weight="bold" lengthAdjust="spacing" textLength="27" x="25" y="400.56">loop</text><text fill="#000000" font-family="NanumGothic" font-size="11" font-weight="bold" lengthAdjust="spacing" textLength="100" x="97" y="399.72">[for all Connectors]</text><path d="M20,411.55 L80,411.55 L80,418.5 L70,428.5 L20,428.5 L20,411.55 " fill="#EEEEEE" style="stroke:#000000;stroke-width:1.5;"/><rect fill="none" height="147.4" style="stroke:#000000;stroke-width:1.5;" width="581.5" x="20" y="411.55"/><text fill="#000000" font-family="NanumGothic" font-size="13" font-weight="bold" lengthAdjust="spacing" textLength="15" x="35" y="424.51">alt</text><text fill="#000000" font-family="NanumGothic" font-size="11" font-weight="bold" lengthAdjust="spacing" textLength="361" x="95" y="423.67">[Connector was set to Unavailable/Reserved/Faulted prior to (re)boot]</text><polygon fill="#181818" points="72.5,445.45,62.5,449.45,72.5,453.45,68.5,449.45" style="stroke:#181818;stroke-width:1.0;"/><line style="stroke:#181818;stroke-width:1.0;" x1="66.5" x2="525.5" y1="449.45" y2="449.45"/><text fill="#000000" font-family="NanumGothic" font-size="13" lengthAdjust="spacing" textLength="451" x="78.5" y="444.46">StatusNotificationRequest(connectorStatus  Unavailable/Reserved/Faulted)</text><polygon fill="#181818" points="519.5,474.4,529.5,478.4,519.5,482.4,523.5,478.4" style="stroke:#181818;stroke-width:1.0;"/><line style="stroke:#181818;stroke-width:1.0;stroke-dasharray:2.0,2.0;" x1="56.5" x2="525.5" y1="478.4" y2="478.4"/><text fill="#000000" font-family="NanumGothic" font-size="13" lengthAdjust="spacing" textLength="176" x="63.5" y="473.41">StatusNotificationResponse()</text><line style="stroke:#000000;stroke-width:1.0;stroke-dasharray:2.0,2.0;" x1="20" x2="601.5" y1="487.4" y2="487.4"/><text fill="#000000" font-family="NanumGothic" font-size="11" font-weight="bold" lengthAdjust="spacing" textLength="28" x="25" y="497.52">[else]</text><polygon fill="#181818" points="72.5,518,62.5,522,72.5,526,68.5,522" style="stroke:#181818;stroke-width:1.0;"/><line style="stroke:#181818;stroke-width:1.0;" x1="66.5" x2="525.5" y1="522" y2="522"/><text fill="#000000" font-family="NanumGothic" font-size="13" lengthAdjust="spacing" textLength="332" x="78.5" y="517.01">StatusNotificationRequest(Connectortatus = Available)</text><polygon fill="#181818" points="519.5,546.95,529.5,550.95,519.5,554.95,523.5,550.95" style="stroke:#181818;stroke-width:1.0;"/><line style="stroke:#181818;stroke-width:1.0;stroke-dasharray:2.0,2.0;" x1="56.5" x2="525.5" y1="550.95" y2="550.95"/><text fill="#000000" font-family="NanumGothic" font-size="13" lengthAdjust="spacing" textLength="176" x="63.5" y="545.96">StatusNotificationResponse()</text><path d="M20,579.95 L92,579.95 L92,586.9 L82,596.9 L20,596.9 L20,579.95 " fill="#EEEEEE" style="stroke:#000000;stroke-width:1.5;"/><rect fill="none" height="85.15" style="stroke:#000000;stroke-width:1.5;" width="581.5" x="20" y="579.95"/><text fill="#000000" font-family="NanumGothic" font-size="13" font-weight="bold" lengthAdjust="spacing" textLength="27" x="35" y="592.91">loop</text><text fill="#000000" font-family="NanumGothic" font-size="11" font-weight="bold" lengthAdjust="spacing" textLength="225" x="107" y="592.07">[while powered up and no other messages,</text><text fill="#000000" font-family="NanumGothic" font-size="11" font-weight="bold" lengthAdjust="spacing" textLength="340" x="113" y="604.72">with frequency based on Interval from BootNotificationResponse]</text><polygon fill="#181818" points="72.5,624.15,62.5,628.15,72.5,632.15,68.5,628.15" style="stroke:#181818;stroke-width:1.0;"/><line style="stroke:#181818;stroke-width:1.0;" x1="66.5" x2="525.5" y1="628.15" y2="628.15"/><text fill="#000000" font-family="NanumGothic" font-size="13" lengthAdjust="spacing" textLength="119" x="78.5" y="623.16">HeartbeatRequest()</text><polygon fill="#181818" points="519.5,653.1,529.5,657.1,519.5,661.1,523.5,657.1" style="stroke:#181818;stroke-width:1.0;"/><line style="stroke:#181818;stroke-width:1.0;stroke-dasharray:2.0,2.0;" x1="56.5" x2="525.5" y1="657.1" y2="657.1"/><text fill="#000000" font-family="NanumGothic" font-size="13" lengthAdjust="spacing" textLength="201" x="63.5" y="652.11">HeartbeatResponse(currentTime)</text><!--SRC=[rPJ1JYCn38RlUGel9ogLvOwqI2mIsZs04BFSkBWPjnDjceJ4qugtnqcdj4ndAeIuS8b6iHF_-VoFVnYdRLiJ97wnz3EqIwjKmCX6cu2EuUIwkgrE01FaZrwemRWmRW4L8nllDcdTPhUdL6y3pYxxEHTmxzSKeGrA-S2W03vog28x1zsG_g_8rSE5HFC5_FQUxpoRkT4bya3FBIK-ZOJ9kwdSyUxWHA5ciqAcWyVi0Xc6oYkS3MaxB9c2TubEasIq2U1AQmfCjLHlOoJ7_yoIfc0SKroXdQYQHbNiXueEWIRChFS1vZu2MWlNtZdIx6EIo33FmgOgUeRewEqDcnJu1OyELsWipYnDogsZ2jy7YyQYOfJNa8oEsARK4HpzS2u7K2pnEIEDWqJBkmrOYzqJCR3VHtCkogM7L9_VO6kbnH2YaMp94iTDPkAChsh9qRBVe4KsKLa-o-Ej5Lk7NdqlV-xS1h1kZ2K8UH2APTe0w6fm7ZmtCXgNb18kA4tXoKckuGRcCLDm-WLccEI88FlRJG-9-UNe31hxBGhiFoGJVaR8MyRvUKUUTa1ndE7UrHswlT6Nonnbs2UOsRq2]--></g></svg>