<?xml version="1.0" encoding="us-ascii" standalone="no"?><svg xmlns="http://www.w3.org/2000/svg" xmlns:xlink="http://www.w3.org/1999/xlink" contentStyleType="text/css" height="847px" preserveAspectRatio="none" style="width:925px;height:847px;background:#FFFFFF;" version="1.1" viewBox="0 0 925 847" width="925px" zoomAndPan="magnify"><defs/><g><rect fill="#FFFFFF" height="57.9" style="stroke:#181818;stroke-width:1.0;" width="10" x="106" y="172.95"/><rect fill="#FFFFFF" height="28.95" style="stroke:#181818;stroke-width:1.0;" width="10" x="106" y="333.65"/><rect fill="#FFFFFF" height="57.9" style="stroke:#181818;stroke-width:1.0;" width="10" x="106" y="519.05"/><rect fill="#FFFFFF" height="28.95" style="stroke:#181818;stroke-width:1.0;" width="10" x="106" y="655.8"/><rect fill="#FFFFFF" height="28.95" style="stroke:#181818;stroke-width:1.0;" width="10" x="106" y="779.6"/><rect fill="#FFFFFF" height="160.7" style="stroke:#181818;stroke-width:1.0;" width="10" x="622" y="201.9"/><rect fill="#FFFFFF" height="33.95" style="stroke:#181818;stroke-width:1.0;" width="10" x="622" y="406.55"/><rect fill="#FFFFFF" height="136.75" style="stroke:#181818;stroke-width:1.0;" width="10" x="622" y="548"/><rect fill="#FFFFFF" height="86.85" style="stroke:#181818;stroke-width:1.0;" width="10" x="622" y="721.7"/><rect fill="none" height="723.45" style="stroke:#000000;stroke-width:1.5;" width="903" x="10" y="100.1"/><rect fill="none" height="74.85" style="stroke:#000000;stroke-width:1.5;" width="622.5" x="74.5" y="295.75"/><rect fill="none" height="74.85" style="stroke:#000000;stroke-width:1.5;" width="622.5" x="74.5" y="741.7"/><line style="stroke:#181818;stroke-width:0.5;stroke-dasharray:5.0,5.0;" x1="37" x2="37" y1="83.1" y2="840.55"/><line style="stroke:#181818;stroke-width:0.5;stroke-dasharray:5.0,5.0;" x1="110.5" x2="110.5" y1="83.1" y2="840.55"/><line style="stroke:#181818;stroke-width:0.5;stroke-dasharray:5.0,5.0;" x1="627" x2="627" y1="83.1" y2="840.55"/><text fill="#000000" font-family="NanumGothic" font-size="14" lengthAdjust="spacing" textLength="28" x="20" y="79.88">CSO</text><ellipse cx="37" cy="14.5" fill="#E2E2F0" rx="8" ry="8" style="stroke:#7D5393;stroke-width:1.5;"/><path d="M37,22.5 L37,49.5 M24,30.5 L50,30.5 M37,49.5 L24,64.5 M37,49.5 L50,64.5 " fill="none" style="stroke:#7D5393;stroke-width:1.5;"/><rect fill="#7D5393" height="30.1" rx="2.5" ry="2.5" style="stroke:#181818;stroke-width:0.5;" width="53" x="84.5" y="52"/><text fill="#FFFFFF" font-family="NanumGothic" font-size="14" lengthAdjust="spacing" textLength="39" x="91.5" y="71.88">CSMS</text><rect fill="#7D5393" height="30.1" rx="2.5" ry="2.5" style="stroke:#181818;stroke-width:0.5;" width="120" x="567" y="52"/><text fill="#FFFFFF" font-family="NanumGothic" font-size="14" lengthAdjust="spacing" textLength="106" x="574" y="71.88">Charging Station</text><rect fill="#FFFFFF" height="57.9" style="stroke:#181818;stroke-width:1.0;" width="10" x="106" y="172.95"/><rect fill="#FFFFFF" height="28.95" style="stroke:#181818;stroke-width:1.0;" width="10" x="106" y="333.65"/><rect fill="#FFFFFF" height="57.9" style="stroke:#181818;stroke-width:1.0;" width="10" x="106" y="519.05"/><rect fill="#FFFFFF" height="28.95" style="stroke:#181818;stroke-width:1.0;" width="10" x="106" y="655.8"/><rect fill="#FFFFFF" height="28.95" style="stroke:#181818;stroke-width:1.0;" width="10" x="106" y="779.6"/><rect fill="#FFFFFF" height="160.7" style="stroke:#181818;stroke-width:1.0;" width="10" x="622" y="201.9"/><rect fill="#FFFFFF" height="33.95" style="stroke:#181818;stroke-width:1.0;" width="10" x="622" y="406.55"/><rect fill="#FFFFFF" height="136.75" style="stroke:#181818;stroke-width:1.0;" width="10" x="622" y="548"/><rect fill="#FFFFFF" height="86.85" style="stroke:#181818;stroke-width:1.0;" width="10" x="622" y="721.7"/><path d="M10,100.1 L70,100.1 L70,107.05 L60,117.05 L10,117.05 L10,100.1 " fill="#EEEEEE" style="stroke:#000000;stroke-width:1.5;"/><rect fill="none" height="723.45" style="stroke:#000000;stroke-width:1.5;" width="903" x="10" y="100.1"/><text fill="#000000" font-family="NanumGothic" font-size="13" font-weight="bold" lengthAdjust="spacing" textLength="15" x="25" y="113.06">alt</text><text fill="#000000" font-family="NanumGothic" font-size="11" font-weight="bold" lengthAdjust="spacing" textLength="127" x="85" y="112.22">[Reset Charging Station]</text><path d="M347,122.05 L347,146.05 L622,146.05 L622,132.05 L612,122.05 L347,122.05 " fill="#7D5393" style="stroke:#000000;stroke-width:0.5;"/><path d="M612,122.05 L612,132.05 L622,132.05 L612,122.05 " fill="#7D5393" style="stroke:#000000;stroke-width:0.5;"/><text fill="#FFFFFF" font-family="NanumGothic" font-size="13" lengthAdjust="spacing" textLength="254" x="353" y="139.01">Transactions active on one or more EVSEs</text><polygon fill="#181818" points="94,168.95,104,172.95,94,176.95,98,172.95" style="stroke:#181818;stroke-width:1.0;"/><line style="stroke:#181818;stroke-width:1.0;" x1="37" x2="100" y1="172.95" y2="172.95"/><text fill="#000000" font-family="NanumGothic" font-size="13" lengthAdjust="spacing" textLength="50" x="44" y="167.96">reset CS</text><polygon fill="#181818" points="610,197.9,620,201.9,610,205.9,614,201.9" style="stroke:#181818;stroke-width:1.0;"/><line style="stroke:#181818;stroke-width:1.0;" x1="116" x2="616" y1="201.9" y2="201.9"/><text fill="#000000" font-family="NanumGothic" font-size="13" lengthAdjust="spacing" textLength="156" x="123" y="196.91">ResetRequest(Immediate)</text><polygon fill="#181818" points="122,226.85,112,230.85,122,234.85,118,230.85" style="stroke:#181818;stroke-width:1.0;"/><line style="stroke:#181818;stroke-width:1.0;stroke-dasharray:2.0,2.0;" x1="116" x2="621" y1="230.85" y2="230.85"/><text fill="#000000" font-family="NanumGothic" font-size="13" lengthAdjust="spacing" textLength="157" x="128" y="225.86">ResetResponse(Accepted)</text><path d="M536,243.85 L536,282.85 L718,282.85 L718,253.85 L708,243.85 L536,243.85 " fill="#7D5393" style="stroke:#000000;stroke-width:0.5;"/><path d="M708,243.85 L708,253.85 L718,253.85 L708,243.85 " fill="#7D5393" style="stroke:#000000;stroke-width:0.5;"/><text fill="#FFFFFF" font-family="NanumGothic" font-size="13" lengthAdjust="spacing" textLength="160" x="542" y="260.81">Terminate all transactions,</text><text fill="#FFFFFF" font-family="NanumGothic" font-size="13" lengthAdjust="spacing" textLength="161" x="542" y="275.76">regardless of TxStopPoint.</text><path d="M74.5,295.75 L146.5,295.75 L146.5,302.7 L136.5,312.7 L74.5,312.7 L74.5,295.75 " fill="#EEEEEE" style="stroke:#000000;stroke-width:1.5;"/><rect fill="none" height="74.85" style="stroke:#000000;stroke-width:1.5;" width="622.5" x="74.5" y="295.75"/><text fill="#000000" font-family="NanumGothic" font-size="13" font-weight="bold" lengthAdjust="spacing" textLength="27" x="89.5" y="308.71">loop</text><text fill="#000000" font-family="NanumGothic" font-size="11" font-weight="bold" lengthAdjust="spacing" textLength="150" x="161.5" y="307.87">[for all stopped transactions]</text><polygon fill="#181818" points="127,329.65,117,333.65,127,337.65,123,333.65" style="stroke:#181818;stroke-width:1.0;"/><line style="stroke:#181818;stroke-width:1.0;" x1="121" x2="621" y1="333.65" y2="333.65"/><text fill="#000000" font-family="NanumGothic" font-size="13" lengthAdjust="spacing" textLength="487" x="133" y="328.66">TransactionEventRequest(eventType = Ended, stopReason = ImmediateReset,...)</text><polygon fill="#181818" points="615,358.6,625,362.6,615,366.6,619,362.6" style="stroke:#181818;stroke-width:1.0;"/><line style="stroke:#181818;stroke-width:1.0;stroke-dasharray:2.0,2.0;" x1="111" x2="621" y1="362.6" y2="362.6"/><text fill="#000000" font-family="NanumGothic" font-size="13" lengthAdjust="spacing" textLength="183" x="118" y="357.61">TransactionEventResponse(...)</text><line style="stroke:#181818;stroke-width:1.0;" x1="627" x2="674" y1="393.55" y2="393.55"/><line style="stroke:#181818;stroke-width:1.0;" x1="674" x2="674" y1="393.55" y2="406.55"/><line style="stroke:#181818;stroke-width:1.0;" x1="633" x2="674" y1="406.55" y2="406.55"/><polygon fill="#181818" points="643,402.55,633,406.55,643,410.55,639,406.55" style="stroke:#181818;stroke-width:1.0;"/><text fill="#000000" font-family="NanumGothic" font-size="13" lengthAdjust="spacing" textLength="148" x="639" y="388.56">reboot Charging Station</text><ellipse cx="915.5" cy="439.75" fill="none" rx="4" ry="4" style="stroke:#181818;stroke-width:1.5;"/><polygon fill="#181818" points="898.5,436.5,908.5,440.5,898.5,444.5,902.5,440.5" style="stroke:#181818;stroke-width:1.0;"/><line style="stroke:#181818;stroke-width:1.0;" x1="627" x2="904.5" y1="440.5" y2="440.5"/><text fill="#000000" font-family="NanumGothic" font-size="13" lengthAdjust="spacing" textLength="265" x="634" y="435.51">Continue B01 - Cold Boot Charging Station</text><line style="stroke:#000000;stroke-width:1.0;stroke-dasharray:2.0,2.0;" x1="10" x2="913" y1="449.5" y2="449.5"/><text fill="#000000" font-family="NanumGothic" font-size="11" font-weight="bold" lengthAdjust="spacing" textLength="64" x="15" y="459.62">[Reset EVSE]</text><path d="M439,468.15 L439,492.15 L622,492.15 L622,478.15 L612,468.15 L439,468.15 " fill="#7D5393" style="stroke:#000000;stroke-width:0.5;"/><path d="M612,468.15 L612,478.15 L622,478.15 L612,468.15 " fill="#7D5393" style="stroke:#000000;stroke-width:0.5;"/><text fill="#FFFFFF" font-family="NanumGothic" font-size="13" lengthAdjust="spacing" textLength="162" x="445" y="485.11">Transaction active on EVSE</text><polygon fill="#181818" points="94,515.05,104,519.05,94,523.05,98,519.05" style="stroke:#181818;stroke-width:1.0;"/><line style="stroke:#181818;stroke-width:1.0;" x1="37" x2="100" y1="519.05" y2="519.05"/><text fill="#000000" font-family="NanumGothic" font-size="13" lengthAdjust="spacing" textLength="50" x="44" y="514.06">reset CS</text><polygon fill="#181818" points="610,544,620,548,610,552,614,548" style="stroke:#181818;stroke-width:1.0;"/><line style="stroke:#181818;stroke-width:1.0;" x1="116" x2="616" y1="548" y2="548"/><text fill="#000000" font-family="NanumGothic" font-size="13" lengthAdjust="spacing" textLength="201" x="123" y="543.01">ResetRequest(Immediate, evseId)</text><polygon fill="#181818" points="122,572.95,112,576.95,122,580.95,118,576.95" style="stroke:#181818;stroke-width:1.0;"/><line style="stroke:#181818;stroke-width:1.0;stroke-dasharray:2.0,2.0;" x1="116" x2="621" y1="576.95" y2="576.95"/><text fill="#000000" font-family="NanumGothic" font-size="13" lengthAdjust="spacing" textLength="163" x="128" y="571.96">ResetResponse(Scheduled)</text><path d="M536,589.95 L536,628.95 L718,628.95 L718,599.95 L708,589.95 L536,589.95 " fill="#7D5393" style="stroke:#000000;stroke-width:0.5;"/><path d="M708,589.95 L708,599.95 L718,599.95 L708,589.95 " fill="#7D5393" style="stroke:#000000;stroke-width:0.5;"/><text fill="#FFFFFF" font-family="NanumGothic" font-size="13" lengthAdjust="spacing" textLength="137" x="542" y="606.91">Terminate transaction,</text><text fill="#FFFFFF" font-family="NanumGothic" font-size="13" lengthAdjust="spacing" textLength="161" x="542" y="621.86">regardless of TxStopPoint.</text><polygon fill="#181818" points="127,651.8,117,655.8,127,659.8,123,655.8" style="stroke:#181818;stroke-width:1.0;"/><line style="stroke:#181818;stroke-width:1.0;" x1="121" x2="621" y1="655.8" y2="655.8"/><text fill="#000000" font-family="NanumGothic" font-size="13" lengthAdjust="spacing" textLength="487" x="133" y="650.81">TransactionEventRequest(eventType = Ended, stopReason = ImmediateReset,...)</text><polygon fill="#181818" points="615,680.75,625,684.75,615,688.75,619,684.75" style="stroke:#181818;stroke-width:1.0;"/><line style="stroke:#181818;stroke-width:1.0;stroke-dasharray:2.0,2.0;" x1="111" x2="621" y1="684.75" y2="684.75"/><text fill="#000000" font-family="NanumGothic" font-size="13" lengthAdjust="spacing" textLength="183" x="118" y="679.76">TransactionEventResponse(...)</text><line style="stroke:#181818;stroke-width:1.0;" x1="627" x2="674" y1="708.7" y2="708.7"/><line style="stroke:#181818;stroke-width:1.0;" x1="674" x2="674" y1="708.7" y2="721.7"/><line style="stroke:#181818;stroke-width:1.0;" x1="633" x2="674" y1="721.7" y2="721.7"/><polygon fill="#181818" points="643,717.7,633,721.7,643,725.7,639,721.7" style="stroke:#181818;stroke-width:1.0;"/><text fill="#000000" font-family="NanumGothic" font-size="13" lengthAdjust="spacing" textLength="64" x="639" y="703.71">reset EVSE</text><path d="M74.5,741.7 L146.5,741.7 L146.5,748.65 L136.5,758.65 L74.5,758.65 L74.5,741.7 " fill="#EEEEEE" style="stroke:#000000;stroke-width:1.5;"/><rect fill="none" height="74.85" style="stroke:#000000;stroke-width:1.5;" width="622.5" x="74.5" y="741.7"/><text fill="#000000" font-family="NanumGothic" font-size="13" font-weight="bold" lengthAdjust="spacing" textLength="27" x="89.5" y="754.66">loop</text><text fill="#000000" font-family="NanumGothic" font-size="11" font-weight="bold" lengthAdjust="spacing" textLength="140" x="161.5" y="753.82">[for all connectors of EVSE]</text><polygon fill="#181818" points="127,775.6,117,779.6,127,783.6,123,779.6" style="stroke:#181818;stroke-width:1.0;"/><line style="stroke:#181818;stroke-width:1.0;" x1="121" x2="621" y1="779.6" y2="779.6"/><text fill="#000000" font-family="NanumGothic" font-size="13" lengthAdjust="spacing" textLength="345" x="133" y="774.61">StatusNotificationRequest(Available, evseId, connectorId)</text><polygon fill="#181818" points="615,804.55,625,808.55,615,812.55,619,808.55" style="stroke:#181818;stroke-width:1.0;"/><line style="stroke:#181818;stroke-width:1.0;stroke-dasharray:2.0,2.0;" x1="111" x2="621" y1="808.55" y2="808.55"/><text fill="#000000" font-family="NanumGothic" font-size="13" lengthAdjust="spacing" textLength="176" x="118" y="803.56">StatusNotificationResponse()</text><!--SRC=[lLN1Rjim3BtxAxYUMi0njck05cYB77h8DaJ1RZke5fCAa2LFaetrxqV9IkROZh5iQuC4WaZgaNpYKpv8NQf683Z_gh2ecqfb6I-ziN3roBvS0NT0QrPpwsKfQwvzSAnPygpPmFN2xLxgFJ3FlJIw2ql6PAC4oiC67NeOncSPW3OUGU7EWzcDpW9zjfPhHqNIta5OMmIZwKkBXSfOXDKtjd8KZ5f4l81BVS3YBXQz1DkbPsIF29nondPYu9h5oDFSowxc3VveqFdhfwf28UdSpGd6i5SOcc1nB2BXkPeQmUlxiiJQemXu0aTLHLfCYtQQ4xILr26UAmM-nr0U_HRtt0g5pWLMjp-PD_LN8xKl1YmfOshO4Oy1nr5KZU84By9DT7LegdSxgnRraIyCc-rhZN0BAorGv15-WzpHyLiuyXbPoOkYk4cfHbJ4_F6IfcvfN40Yk0Svv7Ti7N5C94tUvaG55f-DcHZk2-VapdnVmgFHNke6uU7Z9rZGLWbuE8C-KpygXqbpGHiNogodidJwC3BmbihA0Lk7J-9_AOoLBoWQzSyIwydXGdMzashE4FytQXahPMRA_bWVlJcS0pjvZ4gZDOQ_faXoEZr3QJ0qxhFnSYVBw3kGUjzogVYpEWvO_XkycxR9H-SyYLEf4eqTskpBCaLoU6tezmi0]--></g></svg>