<?xml version="1.0" encoding="us-ascii" standalone="no"?><svg xmlns="http://www.w3.org/2000/svg" xmlns:xlink="http://www.w3.org/1999/xlink" contentStyleType="text/css" height="428px" preserveAspectRatio="none" style="width:460px;height:428px;background:#FFFFFF;" version="1.1" viewBox="0 0 460 428" width="460px" zoomAndPan="magnify"><defs/><g><rect fill="#FFFFFF" height="336.25" style="stroke:#181818;stroke-width:1.0;" width="10" x="60" y="67.05"/><rect fill="#FFFFFF" height="58.85" style="stroke:#181818;stroke-width:1.0;" width="10" x="423" y="67.05"/><rect fill="#FFFFFF" height="43.9" style="stroke:#181818;stroke-width:1.0;" width="10" x="423" y="184.75"/><rect fill="#FFFFFF" height="28.95" style="stroke:#181818;stroke-width:1.0;" width="10" x="423" y="257.6"/><rect fill="#FFFFFF" height="28.95" style="stroke:#181818;stroke-width:1.0;" width="10" x="423" y="345.4"/><line style="stroke:#181818;stroke-width:0.5;stroke-dasharray:5.0,5.0;" x1="65" x2="65" y1="36.1" y2="421.3"/><line style="stroke:#181818;stroke-width:0.5;stroke-dasharray:5.0,5.0;" x1="427.5" x2="427.5" y1="36.1" y2="421.3"/><rect fill="#7D5393" height="30.1" rx="2.5" ry="2.5" style="stroke:#181818;stroke-width:0.5;" width="120" x="5" y="5"/><text fill="#FFFFFF" font-family="NanumGothic" font-size="14" lengthAdjust="spacing" textLength="106" x="12" y="24.88">Charging Station</text><rect fill="#7D5393" height="30.1" rx="2.5" ry="2.5" style="stroke:#181818;stroke-width:0.5;" width="53" x="401.5" y="5"/><text fill="#FFFFFF" font-family="NanumGothic" font-size="14" lengthAdjust="spacing" textLength="39" x="408.5" y="24.88">CSMS</text><rect fill="#FFFFFF" height="336.25" style="stroke:#181818;stroke-width:1.0;" width="10" x="60" y="67.05"/><rect fill="#FFFFFF" height="58.85" style="stroke:#181818;stroke-width:1.0;" width="10" x="423" y="67.05"/><rect fill="#FFFFFF" height="43.9" style="stroke:#181818;stroke-width:1.0;" width="10" x="423" y="184.75"/><rect fill="#FFFFFF" height="28.95" style="stroke:#181818;stroke-width:1.0;" width="10" x="423" y="257.6"/><rect fill="#FFFFFF" height="28.95" style="stroke:#181818;stroke-width:1.0;" width="10" x="423" y="345.4"/><polygon fill="#181818" points="411,63.05,421,67.05,411,71.05,415,67.05" style="stroke:#181818;stroke-width:1.0;"/><line style="stroke:#181818;stroke-width:1.0;" x1="70" x2="417" y1="67.05" y2="67.05"/><text fill="#000000" font-family="NanumGothic" font-size="13" lengthAdjust="spacing" textLength="69" x="77" y="62.06">Client Hello</text><polygon fill="#181818" points="81,121.9,71,125.9,81,129.9,77,125.9" style="stroke:#181818;stroke-width:1.0;"/><line style="stroke:#181818;stroke-width:1.0;stroke-dasharray:2.0,2.0;" x1="75" x2="427" y1="125.9" y2="125.9"/><text fill="#000000" font-family="NanumGothic" font-size="13" lengthAdjust="spacing" textLength="71" x="87" y="91.01">Server Hello</text><text fill="#000000" font-family="NanumGothic" font-size="13" lengthAdjust="spacing" textLength="103" x="95" y="105.96">Server Certificate</text><text fill="#000000" font-family="NanumGothic" font-size="13" lengthAdjust="spacing" textLength="107" x="95" y="120.91">Server Hello Done</text><polygon fill="#181818" points="411,180.75,421,184.75,411,188.75,415,184.75" style="stroke:#181818;stroke-width:1.0;"/><line style="stroke:#181818;stroke-width:1.0;" x1="70" x2="417" y1="184.75" y2="184.75"/><text fill="#000000" font-family="NanumGothic" font-size="13" lengthAdjust="spacing" textLength="114" x="77" y="149.86">ClientKeyExchange</text><text fill="#000000" font-family="NanumGothic" font-size="13" lengthAdjust="spacing" textLength="125" x="85" y="164.81">[ChangeCipherSpec]</text><text fill="#000000" font-family="NanumGothic" font-size="13" lengthAdjust="spacing" textLength="50" x="85" y="179.76">Finished</text><polygon fill="#181818" points="81,224.65,71,228.65,81,232.65,77,228.65" style="stroke:#181818;stroke-width:1.0;"/><line style="stroke:#181818;stroke-width:1.0;stroke-dasharray:2.0,2.0;" x1="75" x2="427" y1="228.65" y2="228.65"/><text fill="#000000" font-family="NanumGothic" font-size="13" lengthAdjust="spacing" textLength="125" x="87" y="208.71">[ChangeCipherSpec]</text><text fill="#000000" font-family="NanumGothic" font-size="13" lengthAdjust="spacing" textLength="50" x="95" y="223.66">Finished</text><polygon fill="#181818" points="411,253.6,421,257.6,411,261.6,415,257.6" style="stroke:#181818;stroke-width:1.0;"/><line style="stroke:#181818;stroke-width:1.0;" x1="70" x2="417" y1="257.6" y2="257.6"/><text fill="#000000" font-family="NanumGothic" font-size="13" lengthAdjust="spacing" textLength="334" x="77" y="252.61">HTTP GET / ProtectedData (Encrypted Communication)</text><polygon fill="#181818" points="81,282.55,71,286.55,81,290.55,77,286.55" style="stroke:#181818;stroke-width:1.0;"/><line style="stroke:#181818;stroke-width:1.0;stroke-dasharray:2.0,2.0;" x1="75" x2="427" y1="286.55" y2="286.55"/><text fill="#000000" font-family="NanumGothic" font-size="13" lengthAdjust="spacing" textLength="212" x="87" y="281.56">HTTP/401 Authentication Required</text><polygon fill="#181818" points="411,341.4,421,345.4,411,349.4,415,345.4" style="stroke:#181818;stroke-width:1.0;"/><line style="stroke:#181818;stroke-width:1.0;" x1="70" x2="417" y1="345.4" y2="345.4"/><text fill="#000000" font-family="NanumGothic" font-size="13" lengthAdjust="spacing" textLength="159" x="77" y="310.51">HTTP GET / ProtectedData</text><text fill="#000000" font-family="NanumGothic" font-size="13" lengthAdjust="spacing" textLength="117" x="85" y="325.46">Authorization Basic</text><text fill="#000000" font-family="NanumGothic" font-size="13" lengthAdjust="spacing" textLength="125" x="85" y="340.41">Username/Password</text><polygon fill="#181818" points="81,370.35,71,374.35,81,378.35,77,374.35" style="stroke:#181818;stroke-width:1.0;"/><line style="stroke:#181818;stroke-width:1.0;stroke-dasharray:2.0,2.0;" x1="75" x2="427" y1="374.35" y2="374.35"/><text fill="#000000" font-family="NanumGothic" font-size="13" lengthAdjust="spacing" textLength="159" x="87" y="369.36">HTTP 200 / ProtectedData</text><polygon fill="#181818" points="416,399.3,426,403.3,416,407.3,420,403.3" style="stroke:#181818;stroke-width:1.0;"/><line style="stroke:#181818;stroke-width:1.0;" x1="65" x2="422" y1="403.3" y2="403.3"/><text fill="#000000" font-family="NanumGothic" font-size="13" lengthAdjust="spacing" textLength="100" x="72" y="398.31">Application Data</text><!--SRC=[bP0nJyCm48Lt_ugZ4mob1J5rG2ffeH92gaYPACF9EPgJ7DlOJg7yUfoa1PggWYoHy_pUk-zymbggCYFmOQFet9Q54iAY2opPeWxGIt9qAzOhI0C6Dhe7w64dRhLM8dr86rSy2D7oGl-wlXX1efYYVqPA6O4oy1e37LJ_N3HjyGlzgcFVDmA0bDoQN5C8I_qj91JfNbbMBR_anZSnceJ8g3td63LikUzfC_sGEUfLK_gSrEU4RKukjIHVQlcMDVkSCkYoo1zT7MXdYyKSxgOB6C3ScK0oK3R1W70wrT9jRFo5n1H5gQldYT6p_tDMtOEhuGMCov375zasm2EzbUmwOS9nq6hnQe1n_DcaRj2phFKdJqvZGOCvUlzkNDOD7Yw7m_Qy3j1ZQzLkvuFeVkWB]--></g></svg>