<?xml version="1.0" encoding="us-ascii" standalone="no"?><svg xmlns="http://www.w3.org/2000/svg" xmlns:xlink="http://www.w3.org/1999/xlink" contentStyleType="text/css" height="604px" preserveAspectRatio="none" style="width:388px;height:604px;background:#FFFFFF;" version="1.1" viewBox="0 0 388 604" width="388px" zoomAndPan="magnify"><defs/><g><rect fill="none" height="58.9" style="stroke:#000000;stroke-width:1.5;" width="251" x="114.5" y="164"/><rect fill="none" height="58.9" style="stroke:#000000;stroke-width:1.5;" width="268" x="114.5" y="236.9"/><rect fill="none" height="235.3" style="stroke:#000000;stroke-width:1.5;" width="300" x="10" y="344.75"/><rect fill="none" height="45.9" style="stroke:#000000;stroke-width:1.5;" width="234.5" x="20" y="410.65"/><rect fill="none" height="45.9" style="stroke:#000000;stroke-width:1.5;" width="234.5" x="20" y="527.15"/><line style="stroke:#181818;stroke-width:0.5;stroke-dasharray:5.0,5.0;" x1="62" x2="62" y1="83.1" y2="597.05"/><line style="stroke:#181818;stroke-width:0.5;stroke-dasharray:5.0,5.0;" x1="184.5" x2="184.5" y1="83.1" y2="597.05"/><text fill="#000000" font-family="NanumGothic" font-size="14" lengthAdjust="spacing" textLength="59" x="30" y="79.88">EV Driver</text><ellipse cx="62.5" cy="14.5" fill="#E2E2F0" rx="8" ry="8" style="stroke:#7D5393;stroke-width:1.5;"/><path d="M62.5,22.5 L62.5,49.5 M49.5,30.5 L75.5,30.5 M62.5,49.5 L49.5,64.5 M62.5,49.5 L75.5,64.5 " fill="none" style="stroke:#7D5393;stroke-width:1.5;"/><rect fill="#7D5393" height="30.1" rx="2.5" ry="2.5" style="stroke:#181818;stroke-width:0.5;" width="120" x="124.5" y="52"/><text fill="#FFFFFF" font-family="NanumGothic" font-size="14" lengthAdjust="spacing" textLength="106" x="131.5" y="71.88">Charging Station</text><path d="M17,98.1 L17,122.1 L229,122.1 L229,108.1 L219,98.1 L17,98.1 " fill="#7D5393" style="stroke:#000000;stroke-width:0.5;"/><path d="M219,98.1 L219,108.1 L229,108.1 L219,98.1 " fill="#7D5393" style="stroke:#000000;stroke-width:0.5;"/><text fill="#FFFFFF" font-family="NanumGothic" font-size="13" lengthAdjust="spacing" textLength="191" x="23" y="115.06">The Charging Station is Offline.</text><polygon fill="#181818" points="172.5,145,182.5,149,172.5,153,176.5,149" style="stroke:#181818;stroke-width:1.0;"/><line style="stroke:#181818;stroke-width:1.0;" x1="62.5" x2="178.5" y1="149" y2="149"/><text fill="#000000" font-family="NanumGothic" font-size="13" lengthAdjust="spacing" textLength="98" x="69.5" y="144.01">present IdToken</text><path d="M114.5,164 L180.5,164 L180.5,170.95 L170.5,180.95 L114.5,180.95 L114.5,164 " fill="#EEEEEE" style="stroke:#000000;stroke-width:1.5;"/><rect fill="none" height="58.9" style="stroke:#000000;stroke-width:1.5;" width="251" x="114.5" y="164"/><text fill="#000000" font-family="NanumGothic" font-size="13" font-weight="bold" lengthAdjust="spacing" textLength="21" x="129.5" y="176.96">opt</text><text fill="#000000" font-family="NanumGothic" font-size="11" font-weight="bold" lengthAdjust="spacing" textLength="60" x="195.5" y="176.12">[If enabled]</text><line style="stroke:#181818;stroke-width:1.0;" x1="184.5" x2="226.5" y1="201.9" y2="201.9"/><line style="stroke:#181818;stroke-width:1.0;" x1="226.5" x2="226.5" y1="201.9" y2="214.9"/><line style="stroke:#181818;stroke-width:1.0;" x1="185.5" x2="226.5" y1="214.9" y2="214.9"/><polygon fill="#181818" points="195.5,210.9,185.5,214.9,195.5,218.9,191.5,214.9" style="stroke:#181818;stroke-width:1.0;"/><text fill="#000000" font-family="NanumGothic" font-size="13" lengthAdjust="spacing" textLength="162" x="191.5" y="196.91">check Authorization Cache</text><path d="M114.5,236.9 L180.5,236.9 L180.5,243.85 L170.5,253.85 L114.5,253.85 L114.5,236.9 " fill="#EEEEEE" style="stroke:#000000;stroke-width:1.5;"/><rect fill="none" height="58.9" style="stroke:#000000;stroke-width:1.5;" width="268" x="114.5" y="236.9"/><text fill="#000000" font-family="NanumGothic" font-size="13" font-weight="bold" lengthAdjust="spacing" textLength="21" x="129.5" y="249.86">opt</text><text fill="#000000" font-family="NanumGothic" font-size="11" font-weight="bold" lengthAdjust="spacing" textLength="143" x="195.5" y="249.02">[If implemented &amp; enabled]</text><line style="stroke:#181818;stroke-width:1.0;" x1="184.5" x2="226.5" y1="274.8" y2="274.8"/><line style="stroke:#181818;stroke-width:1.0;" x1="226.5" x2="226.5" y1="274.8" y2="287.8"/><line style="stroke:#181818;stroke-width:1.0;" x1="185.5" x2="226.5" y1="287.8" y2="287.8"/><polygon fill="#181818" points="195.5,283.8,185.5,287.8,195.5,291.8,191.5,287.8" style="stroke:#181818;stroke-width:1.0;"/><text fill="#000000" font-family="NanumGothic" font-size="13" lengthAdjust="spacing" textLength="179" x="191.5" y="269.81">check Local Authorization List</text><path d="M119,307.8 L119,331.8 L250,331.8 L250,317.8 L240,307.8 L119,307.8 " fill="#7D5393" style="stroke:#000000;stroke-width:0.5;"/><path d="M240,307.8 L240,317.8 L250,317.8 L240,307.8 " fill="#7D5393" style="stroke:#000000;stroke-width:0.5;"/><text fill="#FFFFFF" font-family="NanumGothic" font-size="13" lengthAdjust="spacing" textLength="110" x="125" y="324.76">IdToken unknown</text><path d="M10,344.75 L70,344.75 L70,351.7 L60,361.7 L10,361.7 L10,344.75 " fill="#EEEEEE" style="stroke:#000000;stroke-width:1.5;"/><rect fill="none" height="235.3" style="stroke:#000000;stroke-width:1.5;" width="300" x="10" y="344.75"/><text fill="#000000" font-family="NanumGothic" font-size="13" font-weight="bold" lengthAdjust="spacing" textLength="15" x="25" y="357.71">alt</text><text fill="#000000" font-family="NanumGothic" font-size="11" font-weight="bold" lengthAdjust="spacing" textLength="220" x="85" y="356.87">[OfflineTxForUnknownIdEnabled() = True]</text><line style="stroke:#181818;stroke-width:1.0;" x1="184.5" x2="226.5" y1="382.65" y2="382.65"/><line style="stroke:#181818;stroke-width:1.0;" x1="226.5" x2="226.5" y1="382.65" y2="395.65"/><line style="stroke:#181818;stroke-width:1.0;" x1="185.5" x2="226.5" y1="395.65" y2="395.65"/><polygon fill="#181818" points="195.5,391.65,185.5,395.65,195.5,399.65,191.5,395.65" style="stroke:#181818;stroke-width:1.0;"/><text fill="#000000" font-family="NanumGothic" font-size="13" lengthAdjust="spacing" textLength="97" x="191.5" y="377.66">accept identifier</text><path d="M20,410.65 L86,410.65 L86,417.6 L76,427.6 L20,427.6 L20,410.65 " fill="#EEEEEE" style="stroke:#000000;stroke-width:1.5;"/><rect fill="none" height="45.9" style="stroke:#000000;stroke-width:1.5;" width="234.5" x="20" y="410.65"/><text fill="#000000" font-family="NanumGothic" font-size="13" font-weight="bold" lengthAdjust="spacing" textLength="21" x="35" y="423.61">opt</text><polygon fill="#181818" points="73.5,444.55,63.5,448.55,73.5,452.55,69.5,448.55" style="stroke:#181818;stroke-width:1.0;"/><line style="stroke:#181818;stroke-width:1.0;" x1="67.5" x2="183.5" y1="448.55" y2="448.55"/><text fill="#000000" font-family="NanumGothic" font-size="13" lengthAdjust="spacing" textLength="69" x="79.5" y="443.56">notification</text><line style="stroke:#000000;stroke-width:1.0;stroke-dasharray:2.0,2.0;" x1="10" x2="310" y1="464.55" y2="464.55"/><text fill="#000000" font-family="NanumGothic" font-size="11" font-weight="bold" lengthAdjust="spacing" textLength="223" x="15" y="474.67">[OfflineTxForUnknownIdEnabled() = False]</text><line style="stroke:#181818;stroke-width:1.0;" x1="184.5" x2="226.5" y1="499.15" y2="499.15"/><line style="stroke:#181818;stroke-width:1.0;" x1="226.5" x2="226.5" y1="499.15" y2="512.15"/><line style="stroke:#181818;stroke-width:1.0;" x1="185.5" x2="226.5" y1="512.15" y2="512.15"/><polygon fill="#181818" points="195.5,508.15,185.5,512.15,195.5,516.15,191.5,512.15" style="stroke:#181818;stroke-width:1.0;"/><text fill="#000000" font-family="NanumGothic" font-size="13" lengthAdjust="spacing" textLength="91" x="191.5" y="494.16">reject identifier</text><path d="M20,527.15 L86,527.15 L86,534.1 L76,544.1 L20,544.1 L20,527.15 " fill="#EEEEEE" style="stroke:#000000;stroke-width:1.5;"/><rect fill="none" height="45.9" style="stroke:#000000;stroke-width:1.5;" width="234.5" x="20" y="527.15"/><text fill="#000000" font-family="NanumGothic" font-size="13" font-weight="bold" lengthAdjust="spacing" textLength="21" x="35" y="540.11">opt</text><polygon fill="#181818" points="73.5,561.05,63.5,565.05,73.5,569.05,69.5,565.05" style="stroke:#181818;stroke-width:1.0;"/><line style="stroke:#181818;stroke-width:1.0;" x1="67.5" x2="183.5" y1="565.05" y2="565.05"/><text fill="#000000" font-family="NanumGothic" font-size="13" lengthAdjust="spacing" textLength="69" x="79.5" y="560.06">notification</text><!--SRC=[hL9DImCn4BtdLumzY8Bs1nGKf6wXKF3WslkOp7R7pIOXc_NhrplhTgji2otY8O4PthptvYLdxBHj3K6JFYnDGrjRfL0d7s6IhU4-yYl52M03sRelLC2OM7D0bs0oBp5ks6tWCM5YxxwXGtFRKyhvHE1bUCTojGS2o4k2CHzm0mz5OTdHL94pq54fDT30zUsOQ0OXKaDYRcboNv78-o150UJmsP8HfT78GHPTagxWhasbZ_pPu-OetSx6ZfFhOAaMDJ9m_YU5bTTeHpehRb8lyvFSVbxR_Q1rbVDlxbSyQDEGMlw-yF6fHonDrXkyk8GRo6DB9pf5hKdsPIEBSi7o2G0a0BaFpW-lC-li25uFZhkLo3PqtDm21NQYkqWlfF_BdPml]--></g></svg>