<?xml version="1.0" encoding="us-ascii" standalone="no"?><svg xmlns="http://www.w3.org/2000/svg" xmlns:xlink="http://www.w3.org/1999/xlink" contentStyleType="text/css" height="740px" preserveAspectRatio="none" style="width:991px;height:740px;background:#FFFFFF;" version="1.1" viewBox="0 0 991 740" width="991px" zoomAndPan="magnify"><defs/><g><rect fill="#FFFFFF" height="110.8" style="stroke:#181818;stroke-width:1.0;" width="10" x="78.5" y="114.05"/><rect fill="#FFFFFF" height="167.75" style="stroke:#181818;stroke-width:1.0;" width="10" x="78.5" y="431.5"/><rect fill="#FFFFFF" height="110.8" style="stroke:#181818;stroke-width:1.0;" width="10" x="188.5" y="114.05"/><rect fill="#FFFFFF" height="28.95" style="stroke:#181818;stroke-width:1.0;" width="10" x="188.5" y="284.75"/><rect fill="#FFFFFF" height="28.95" style="stroke:#181818;stroke-width:1.0;" width="10" x="188.5" y="349.65"/><rect fill="#FFFFFF" height="28.95" style="stroke:#181818;stroke-width:1.0;" width="10" x="188.5" y="650.15"/><rect fill="#FFFFFF" height="170.7" style="stroke:#181818;stroke-width:1.0;" width="10" x="705.5" y="143"/><rect fill="#FFFFFF" height="28.95" style="stroke:#181818;stroke-width:1.0;" width="10" x="705.5" y="349.65"/><rect fill="#FFFFFF" height="247.6" style="stroke:#181818;stroke-width:1.0;" width="10" x="705.5" y="431.5"/><rect fill="none" height="45.9" style="stroke:#000000;stroke-width:1.5;" width="210" x="20" y="186.95"/><rect fill="none" height="74.85" style="stroke:#000000;stroke-width:1.5;" width="623.5" x="157" y="246.85"/><rect fill="none" height="322.45" style="stroke:#000000;stroke-width:1.5;" width="968.5" x="10" y="393.6"/><rect fill="none" height="58.9" style="stroke:#000000;stroke-width:1.5;" width="268" x="640.5" y="446.5"/><rect fill="none" height="45.9" style="stroke:#000000;stroke-width:1.5;" width="760.5" x="20" y="561.35"/><line style="stroke:#181818;stroke-width:0.5;stroke-dasharray:5.0,5.0;" x1="83" x2="83" y1="83.1" y2="733.05"/><line style="stroke:#181818;stroke-width:0.5;stroke-dasharray:5.0,5.0;" x1="193" x2="193" y1="83.1" y2="733.05"/><line style="stroke:#181818;stroke-width:0.5;stroke-dasharray:5.0,5.0;" x1="710.5" x2="710.5" y1="83.1" y2="733.05"/><text fill="#000000" font-family="NanumGothic" font-size="14" lengthAdjust="spacing" textLength="101" x="30" y="79.88">External Trigger</text><ellipse cx="83.5" cy="14.5" fill="#E2E2F0" rx="8" ry="8" style="stroke:#7D5393;stroke-width:1.5;"/><path d="M83.5,22.5 L83.5,49.5 M70.5,30.5 L96.5,30.5 M83.5,49.5 L70.5,64.5 M83.5,49.5 L96.5,64.5 " fill="none" style="stroke:#7D5393;stroke-width:1.5;"/><rect fill="#7D5393" height="30.1" rx="2.5" ry="2.5" style="stroke:#181818;stroke-width:0.5;" width="53" x="167" y="52"/><text fill="#FFFFFF" font-family="NanumGothic" font-size="14" lengthAdjust="spacing" textLength="39" x="174" y="71.88">CSMS</text><rect fill="#7D5393" height="30.1" rx="2.5" ry="2.5" style="stroke:#181818;stroke-width:0.5;" width="120" x="650.5" y="52"/><text fill="#FFFFFF" font-family="NanumGothic" font-size="14" lengthAdjust="spacing" textLength="106" x="657.5" y="71.88">Charging Station</text><rect fill="#FFFFFF" height="110.8" style="stroke:#181818;stroke-width:1.0;" width="10" x="78.5" y="114.05"/><rect fill="#FFFFFF" height="167.75" style="stroke:#181818;stroke-width:1.0;" width="10" x="78.5" y="431.5"/><rect fill="#FFFFFF" height="110.8" style="stroke:#181818;stroke-width:1.0;" width="10" x="188.5" y="114.05"/><rect fill="#FFFFFF" height="28.95" style="stroke:#181818;stroke-width:1.0;" width="10" x="188.5" y="284.75"/><rect fill="#FFFFFF" height="28.95" style="stroke:#181818;stroke-width:1.0;" width="10" x="188.5" y="349.65"/><rect fill="#FFFFFF" height="28.95" style="stroke:#181818;stroke-width:1.0;" width="10" x="188.5" y="650.15"/><rect fill="#FFFFFF" height="170.7" style="stroke:#181818;stroke-width:1.0;" width="10" x="705.5" y="143"/><rect fill="#FFFFFF" height="28.95" style="stroke:#181818;stroke-width:1.0;" width="10" x="705.5" y="349.65"/><rect fill="#FFFFFF" height="247.6" style="stroke:#181818;stroke-width:1.0;" width="10" x="705.5" y="431.5"/><polygon fill="#181818" points="176.5,110.05,186.5,114.05,176.5,118.05,180.5,114.05" style="stroke:#181818;stroke-width:1.0;"/><line style="stroke:#181818;stroke-width:1.0;" x1="88.5" x2="182.5" y1="114.05" y2="114.05"/><text fill="#000000" font-family="NanumGothic" font-size="13" lengthAdjust="spacing" textLength="86" x="95.5" y="109.06">remote start()</text><polygon fill="#181818" points="693.5,139,703.5,143,693.5,147,697.5,143" style="stroke:#181818;stroke-width:1.0;"/><line style="stroke:#181818;stroke-width:1.0;" x1="198.5" x2="699.5" y1="143" y2="143"/><text fill="#000000" font-family="NanumGothic" font-size="13" lengthAdjust="spacing" textLength="488" x="205.5" y="138.01">RequestStartTransactionRequest(idToken, chargingProfile, remoteStartId = 123)</text><polygon fill="#181818" points="209.5,167.95,199.5,171.95,209.5,175.95,205.5,171.95" style="stroke:#181818;stroke-width:1.0;"/><line style="stroke:#181818;stroke-width:1.0;stroke-dasharray:2.0,2.0;" x1="203.5" x2="704.5" y1="171.95" y2="171.95"/><text fill="#000000" font-family="NanumGothic" font-size="13" lengthAdjust="spacing" textLength="326" x="215.5" y="166.96">RequestStartTransactionResponse(status = Accepted)</text><path d="M20,186.95 L86,186.95 L86,193.9 L76,203.9 L20,203.9 L20,186.95 " fill="#EEEEEE" style="stroke:#000000;stroke-width:1.5;"/><rect fill="none" height="45.9" style="stroke:#000000;stroke-width:1.5;" width="210" x="20" y="186.95"/><text fill="#000000" font-family="NanumGothic" font-size="13" font-weight="bold" lengthAdjust="spacing" textLength="21" x="35" y="199.91">opt</text><polygon fill="#181818" points="94.5,220.85,84.5,224.85,94.5,228.85,90.5,224.85" style="stroke:#181818;stroke-width:1.0;"/><line style="stroke:#181818;stroke-width:1.0;stroke-dasharray:2.0,2.0;" x1="88.5" x2="192.5" y1="224.85" y2="224.85"/><text fill="#000000" font-family="NanumGothic" font-size="13" lengthAdjust="spacing" textLength="69" x="100.5" y="219.86">notification</text><path d="M157,246.85 L223,246.85 L223,253.8 L213,263.8 L157,263.8 L157,246.85 " fill="#EEEEEE" style="stroke:#000000;stroke-width:1.5;"/><rect fill="none" height="74.85" style="stroke:#000000;stroke-width:1.5;" width="623.5" x="157" y="246.85"/><text fill="#000000" font-family="NanumGothic" font-size="13" font-weight="bold" lengthAdjust="spacing" textLength="21" x="172" y="259.81">opt</text><text fill="#000000" font-family="NanumGothic" font-size="11" font-weight="bold" lengthAdjust="spacing" textLength="157" x="238" y="258.97">[AuthorizeRemoteStart = true]</text><polygon fill="#181818" points="209.5,280.75,199.5,284.75,209.5,288.75,205.5,284.75" style="stroke:#181818;stroke-width:1.0;"/><line style="stroke:#181818;stroke-width:1.0;" x1="203.5" x2="704.5" y1="284.75" y2="284.75"/><text fill="#000000" font-family="NanumGothic" font-size="13" lengthAdjust="spacing" textLength="166" x="215.5" y="279.76">AuthorizeRequest(idToken)</text><polygon fill="#181818" points="698.5,309.7,708.5,313.7,698.5,317.7,702.5,313.7" style="stroke:#181818;stroke-width:1.0;"/><line style="stroke:#181818;stroke-width:1.0;stroke-dasharray:2.0,2.0;" x1="193.5" x2="704.5" y1="313.7" y2="313.7"/><text fill="#000000" font-family="NanumGothic" font-size="13" lengthAdjust="spacing" textLength="199" x="200.5" y="308.71">AuthorizeResponse(idTokenInfo)</text><polygon fill="#181818" points="209.5,345.65,199.5,349.65,209.5,353.65,205.5,349.65" style="stroke:#181818;stroke-width:1.0;"/><line style="stroke:#181818;stroke-width:1.0;" x1="203.5" x2="704.5" y1="349.65" y2="349.65"/><text fill="#000000" font-family="NanumGothic" font-size="13" lengthAdjust="spacing" textLength="223" x="215.5" y="344.66">StatusNotificationRequest(Occupied)</text><polygon fill="#181818" points="698.5,374.6,708.5,378.6,698.5,382.6,702.5,378.6" style="stroke:#181818;stroke-width:1.0;"/><line style="stroke:#181818;stroke-width:1.0;stroke-dasharray:2.0,2.0;" x1="193.5" x2="704.5" y1="378.6" y2="378.6"/><text fill="#000000" font-family="NanumGothic" font-size="13" lengthAdjust="spacing" textLength="176" x="200.5" y="373.61">StatusNotificationResponse()</text><path d="M10,393.6 L70,393.6 L70,400.55 L60,410.55 L10,410.55 L10,393.6 " fill="#EEEEEE" style="stroke:#000000;stroke-width:1.5;"/><rect fill="none" height="322.45" style="stroke:#000000;stroke-width:1.5;" width="968.5" x="10" y="393.6"/><text fill="#000000" font-family="NanumGothic" font-size="13" font-weight="bold" lengthAdjust="spacing" textLength="15" x="25" y="406.56">alt</text><text fill="#000000" font-family="NanumGothic" font-size="11" font-weight="bold" lengthAdjust="spacing" textLength="149" x="85" y="405.72">[within ConnectionTimeOut]</text><polygon fill="#181818" points="693.5,427.5,703.5,431.5,693.5,435.5,697.5,431.5" style="stroke:#181818;stroke-width:1.0;"/><line style="stroke:#181818;stroke-width:1.0;" x1="88.5" x2="699.5" y1="431.5" y2="431.5"/><text fill="#000000" font-family="NanumGothic" font-size="13" lengthAdjust="spacing" textLength="73" x="95.5" y="426.51">Plugin cable</text><path d="M640.5,446.5 L706.5,446.5 L706.5,453.45 L696.5,463.45 L640.5,463.45 L640.5,446.5 " fill="#EEEEEE" style="stroke:#000000;stroke-width:1.5;"/><rect fill="none" height="58.9" style="stroke:#000000;stroke-width:1.5;" width="268" x="640.5" y="446.5"/><text fill="#000000" font-family="NanumGothic" font-size="13" font-weight="bold" lengthAdjust="spacing" textLength="21" x="655.5" y="459.46">opt</text><text fill="#000000" font-family="NanumGothic" font-size="11" font-weight="bold" lengthAdjust="spacing" textLength="182" x="721.5" y="458.62">[if cable not permanently attached]</text><line style="stroke:#181818;stroke-width:1.0;" x1="715.5" x2="757.5" y1="484.4" y2="484.4"/><line style="stroke:#181818;stroke-width:1.0;" x1="757.5" x2="757.5" y1="484.4" y2="497.4"/><line style="stroke:#181818;stroke-width:1.0;" x1="716.5" x2="757.5" y1="497.4" y2="497.4"/><polygon fill="#181818" points="726.5,493.4,716.5,497.4,726.5,501.4,722.5,497.4" style="stroke:#181818;stroke-width:1.0;"/><text fill="#000000" font-family="NanumGothic" font-size="13" lengthAdjust="spacing" textLength="89" x="722.5" y="479.41">lock connector</text><line style="stroke:#181818;stroke-width:1.0;" x1="715.5" x2="757.5" y1="533.35" y2="533.35"/><line style="stroke:#181818;stroke-width:1.0;" x1="757.5" x2="757.5" y1="533.35" y2="546.35"/><line style="stroke:#181818;stroke-width:1.0;" x1="716.5" x2="757.5" y1="546.35" y2="546.35"/><polygon fill="#181818" points="726.5,542.35,716.5,546.35,726.5,550.35,722.5,546.35" style="stroke:#181818;stroke-width:1.0;"/><text fill="#000000" font-family="NanumGothic" font-size="13" lengthAdjust="spacing" textLength="107" x="722.5" y="528.36">start energy offer</text><path d="M20,561.35 L86,561.35 L86,568.3 L76,578.3 L20,578.3 L20,561.35 " fill="#EEEEEE" style="stroke:#000000;stroke-width:1.5;"/><rect fill="none" height="45.9" style="stroke:#000000;stroke-width:1.5;" width="760.5" x="20" y="561.35"/><text fill="#000000" font-family="NanumGothic" font-size="13" font-weight="bold" lengthAdjust="spacing" textLength="21" x="35" y="574.31">opt</text><polygon fill="#181818" points="94.5,595.25,84.5,599.25,94.5,603.25,90.5,599.25" style="stroke:#181818;stroke-width:1.0;"/><line style="stroke:#181818;stroke-width:1.0;stroke-dasharray:2.0,2.0;" x1="88.5" x2="704.5" y1="599.25" y2="599.25"/><text fill="#000000" font-family="NanumGothic" font-size="13" lengthAdjust="spacing" textLength="69" x="100.5" y="594.26">notification</text><polygon fill="#181818" points="209.5,646.15,199.5,650.15,209.5,654.15,205.5,650.15" style="stroke:#181818;stroke-width:1.0;"/><line style="stroke:#181818;stroke-width:1.0;" x1="203.5" x2="704.5" y1="650.15" y2="650.15"/><text fill="#000000" font-family="NanumGothic" font-size="13" lengthAdjust="spacing" textLength="283" x="215.5" y="630.21">TransactionEventRequest(eventType = Started,</text><text fill="#000000" font-family="NanumGothic" font-size="13" lengthAdjust="spacing" textLength="306" x="231.5" y="645.16">chargingState = Charging, remoteStartId  123, ...)</text><polygon fill="#181818" points="698.5,675.1,708.5,679.1,698.5,683.1,702.5,679.1" style="stroke:#181818;stroke-width:1.0;"/><line style="stroke:#181818;stroke-width:1.0;stroke-dasharray:2.0,2.0;" x1="193.5" x2="704.5" y1="679.1" y2="679.1"/><text fill="#000000" font-family="NanumGothic" font-size="13" lengthAdjust="spacing" textLength="183" x="200.5" y="674.11">TransactionEventResponse(...)</text><ellipse cx="981" cy="707.3" fill="none" rx="4" ry="4" style="stroke:#181818;stroke-width:1.5;"/><polygon fill="#181818" points="964,704.05,974,708.05,964,712.05,968,708.05" style="stroke:#181818;stroke-width:1.0;"/><line style="stroke:#181818;stroke-width:1.0;" x1="710.5" x2="970" y1="708.05" y2="708.05"/><text fill="#000000" font-family="NanumGothic" font-size="13" lengthAdjust="spacing" textLength="247" x="717.5" y="703.06">Continue regular smart charging session</text><!--SRC=[bLJ1Rjim3BthAxYS4Y0DqEqMO0EAeeSUrXQDZzj1asb7g29v4jKj-_f9ijpPYfDjEHWnPJw-HpxgdTH2-Hh1qL7XflC7nHWNP2mixduIMiqLL5QsBTe5S0T3CCTOnor98Jkk2HQtky-xz5NyKnpjkMsbRc57dAJH_MSvc6EC5UXmzIb1RS7YmL1a6J2NgyXGll8GAEcy7IG6B3uJoBJG5fxnkqT7kuXNMQvTJ3GwXvUohimBwZM8dFXaJICLhZEHb7TVmqUuVlzXHET4K160gpT5PncupcY7oo2Ll0iLReJ0Zh1UCMOwOW2zg01KYDzgGxAHeYyDKEEq6vD8sJZKTSA76qzxO-KlVFwZDB0Wwp7MBlKCSaPfanQkGb8nb962axcCO78VCiwzRipgRwBAzYTHPodlKeSVHaqRk3yAuJiPMpujTc7EPnNDLSdILgnKSq4BuuhWXwIzr71hjCPabqeUyD57LyojJidbIVdm3e9_KpYUIsc6ySXA6W3H9RBfKI1u3Zgq1wvHape29-9YZtNuRjuj9ITbn0k8Nf29fTFG_YqtNGSX0Mrx1DCqWNhFRxxwpCf0iJCNT-GYjsIf-1ijyzrhQCfWAemlrR73i4rfgx1UmnSTKyG8BnuF-ELr4s-RDMmsc__SgbDAsO4PweBjJZTkLh_v2jjeIvBQOs3TUiKjk4ESpw0E73ethELl]--></g></svg>