<?xml version="1.0" encoding="us-ascii" standalone="no"?><svg xmlns="http://www.w3.org/2000/svg" xmlns:xlink="http://www.w3.org/1999/xlink" contentStyleType="text/css" height="336px" preserveAspectRatio="none" style="width:621px;height:336px;background:#FFFFFF;" version="1.1" viewBox="0 0 621 336" width="621px" zoomAndPan="magnify"><defs/><g><rect fill="#FFFFFF" height="28.95" style="stroke:#181818;stroke-width:1.0;" width="10" x="36" y="67.05"/><rect fill="#FFFFFF" height="144.75" style="stroke:#181818;stroke-width:1.0;" width="10" x="208" y="67.05"/><rect fill="#FFFFFF" height="28.95" style="stroke:#181818;stroke-width:1.0;" width="10" x="279" y="282.7"/><rect fill="#FFFFFF" height="28.95" style="stroke:#181818;stroke-width:1.0;" width="10" x="550" y="124.95"/><rect fill="#FFFFFF" height="128.8" style="stroke:#181818;stroke-width:1.0;" width="10" x="550" y="182.85"/><line style="stroke:#181818;stroke-width:0.5;stroke-dasharray:5.0,5.0;" x1="41" x2="41" y1="36.1" y2="329.65"/><line style="stroke:#181818;stroke-width:0.5;stroke-dasharray:5.0,5.0;" x1="212.5" x2="212.5" y1="36.1" y2="329.65"/><line style="stroke:#181818;stroke-width:0.5;stroke-dasharray:5.0,5.0;" x1="283.5" x2="283.5" y1="36.1" y2="329.65"/><line style="stroke:#181818;stroke-width:0.5;stroke-dasharray:5.0,5.0;" x1="555" x2="555" y1="36.1" y2="329.65"/><rect fill="#7D5393" height="30.1" rx="2.5" ry="2.5" style="stroke:#181818;stroke-width:0.5;" width="72" x="5" y="5"/><text fill="#FFFFFF" font-family="NanumGothic" font-size="14" lengthAdjust="spacing" textLength="58" x="12" y="24.88">Operator</text><rect fill="#7D5393" height="30.1" rx="2.5" ry="2.5" style="stroke:#181818;stroke-width:0.5;" width="61" x="182.5" y="5"/><text fill="#FFFFFF" font-family="NanumGothic" font-size="14" lengthAdjust="spacing" textLength="47" x="189.5" y="24.88">CSMS1</text><rect fill="#7D5393" height="30.1" rx="2.5" ry="2.5" style="stroke:#181818;stroke-width:0.5;" width="61" x="253.5" y="5"/><text fill="#FFFFFF" font-family="NanumGothic" font-size="14" lengthAdjust="spacing" textLength="47" x="260.5" y="24.88">CSMS2</text><rect fill="#7D5393" height="30.1" rx="2.5" ry="2.5" style="stroke:#181818;stroke-width:0.5;" width="120" x="495" y="5"/><text fill="#FFFFFF" font-family="NanumGothic" font-size="14" lengthAdjust="spacing" textLength="106" x="502" y="24.88">Charging Station</text><rect fill="#FFFFFF" height="28.95" style="stroke:#181818;stroke-width:1.0;" width="10" x="36" y="67.05"/><rect fill="#FFFFFF" height="144.75" style="stroke:#181818;stroke-width:1.0;" width="10" x="208" y="67.05"/><rect fill="#FFFFFF" height="28.95" style="stroke:#181818;stroke-width:1.0;" width="10" x="279" y="282.7"/><rect fill="#FFFFFF" height="28.95" style="stroke:#181818;stroke-width:1.0;" width="10" x="550" y="124.95"/><rect fill="#FFFFFF" height="128.8" style="stroke:#181818;stroke-width:1.0;" width="10" x="550" y="182.85"/><polygon fill="#181818" points="196,63.05,206,67.05,196,71.05,200,67.05" style="stroke:#181818;stroke-width:1.0;"/><line style="stroke:#181818;stroke-width:1.0;" x1="46" x2="202" y1="67.05" y2="67.05"/><text fill="#000000" font-family="NanumGothic" font-size="13" lengthAdjust="spacing" textLength="148" x="53" y="62.06">Change Network Config</text><polygon fill="#181818" points="538,120.95,548,124.95,538,128.95,542,124.95" style="stroke:#181818;stroke-width:1.0;"/><line style="stroke:#181818;stroke-width:1.0;" x1="218" x2="544" y1="124.95" y2="124.95"/><text fill="#000000" font-family="NanumGothic" font-size="13" lengthAdjust="spacing" textLength="313" x="225" y="119.96">SetVariablesRequest(NetworkConfigurationPriority)</text><polygon fill="#181818" points="229,149.9,219,153.9,229,157.9,225,153.9" style="stroke:#181818;stroke-width:1.0;"/><line style="stroke:#181818;stroke-width:1.0;stroke-dasharray:2.0,2.0;" x1="223" x2="554" y1="153.9" y2="153.9"/><text fill="#000000" font-family="NanumGothic" font-size="13" lengthAdjust="spacing" textLength="285" x="235" y="148.91">SetVariablesResponse(status: RebootRequired)</text><polygon fill="#181818" points="538,178.85,548,182.85,538,186.85,542,182.85" style="stroke:#181818;stroke-width:1.0;"/><line style="stroke:#181818;stroke-width:1.0;" x1="218" x2="544" y1="182.85" y2="182.85"/><text fill="#000000" font-family="NanumGothic" font-size="13" lengthAdjust="spacing" textLength="131" x="225" y="177.86">ResetRequest(OnIdle)</text><polygon fill="#181818" points="224,207.8,214,211.8,224,215.8,220,211.8" style="stroke:#181818;stroke-width:1.0;"/><line style="stroke:#181818;stroke-width:1.0;stroke-dasharray:2.0,2.0;" x1="218" x2="549" y1="211.8" y2="211.8"/><text fill="#000000" font-family="NanumGothic" font-size="13" lengthAdjust="spacing" textLength="157" x="230" y="206.81">ResetResponse(Accepted)</text><line style="stroke:#181818;stroke-width:1.0;" x1="560" x2="602" y1="240.75" y2="240.75"/><line style="stroke:#181818;stroke-width:1.0;" x1="602" x2="602" y1="240.75" y2="253.75"/><line style="stroke:#181818;stroke-width:1.0;" x1="561" x2="602" y1="253.75" y2="253.75"/><polygon fill="#181818" points="571,249.75,561,253.75,571,257.75,567,253.75" style="stroke:#181818;stroke-width:1.0;"/><text fill="#000000" font-family="NanumGothic" font-size="13" lengthAdjust="spacing" textLength="44" x="567" y="235.76">Reboot</text><polygon fill="#181818" points="300,278.7,290,282.7,300,286.7,296,282.7" style="stroke:#181818;stroke-width:1.0;"/><line style="stroke:#181818;stroke-width:1.0;" x1="294" x2="549" y1="282.7" y2="282.7"/><text fill="#000000" font-family="NanumGothic" font-size="13" lengthAdjust="spacing" textLength="170" x="306" y="277.71">BootNotificationRequest(...)</text><polygon fill="#181818" points="543,307.65,553,311.65,543,315.65,547,311.65" style="stroke:#181818;stroke-width:1.0;"/><line style="stroke:#181818;stroke-width:1.0;stroke-dasharray:2.0,2.0;" x1="284" x2="549" y1="311.65" y2="311.65"/><text fill="#000000" font-family="NanumGothic" font-size="13" lengthAdjust="spacing" textLength="179" x="291" y="306.66">BootNotificationResponse(...)</text><!--SRC=[dP8_RuCm4CLtVufhfZ20L4Q6I6sc3asg87MfEZXm8QTIczf7gtpx0ZRvOz8EcO2xntk_PxWZLTHjYM3vK6FIj9-r48qqJ0KrKZ7CrWqQoThCG5eO7oubo_mvln_smzrqcHwNQR3SIrEHgY1doQILq_cXdmanfaAyS0bPhr4LmWhvHviFM6greqh8WkbRCfuuZnD79eOBn6zxAajKxvtXACt0pKI9KvlnlKK8bq6E_2eDoMsDTeDVBLgUUon7rPf1-M986-93TCOK5Wq649yANyROHYkBSzlfMfl11hTQSvzE1ilelC8quyycdItoM66jdieQRuJrJfxoeIYmuP3BVu_Gv2fNt-wwjl-bCdZizYlDjADYM8qbaYI9Bd-1r1r0wcZ3fAcFhp0O1VJfVyVy2m00]--></g></svg>