<?xml version="1.0" encoding="us-ascii" standalone="no"?><svg xmlns="http://www.w3.org/2000/svg" xmlns:xlink="http://www.w3.org/1999/xlink" contentStyleType="text/css" height="456px" preserveAspectRatio="none" style="width:849px;height:456px;background:#FFFFFF;" version="1.1" viewBox="0 0 849 456" width="849px" zoomAndPan="magnify"><defs/><g><!--cluster ProvisioningService--><g id="cluster_ProvisioningService"><rect fill="none" height="119.2" rx="2.5" ry="2.5" style="stroke:#181818;stroke-width:1.0;" width="118" x="7" y="331.5"/><text fill="#000000" font-family="NanumGothic" font-size="14" font-weight="bold" lengthAdjust="spacing" textLength="75" x="28.5" y="346.38">Provisioning</text><text fill="#000000" font-family="NanumGothic" font-size="14" font-weight="bold" lengthAdjust="spacing" textLength="46" x="43" y="362.48">Service</text></g><!--cluster EVSE--><g id="cluster_EVSE"><rect fill="none" height="103.2" rx="2.5" ry="2.5" style="stroke:#181818;stroke-width:1.0;" width="118" x="349" y="347.5"/><text fill="#000000" font-family="NanumGothic" font-size="14" font-weight="bold" lengthAdjust="spacing" textLength="33" x="391.5" y="362.38">EVSE</text></g><!--cluster Vehicle--><g id="cluster_Vehicle"><rect fill="none" height="103.2" rx="2.5" ry="2.5" style="stroke:#181818;stroke-width:1.0;" width="239" x="499" y="347.5"/><text fill="#000000" font-family="NanumGothic" font-size="14" font-weight="bold" lengthAdjust="spacing" textLength="46" x="595.5" y="362.38">Vehicle</text></g><!--entity LeafProvCertificate--><g id="elem_LeafProvCertificate"><rect fill="#7D5393" height="52.2" rx="2.5" ry="2.5" style="stroke:#000000;stroke-width:0.5;" width="86" x="23" y="382.5"/><text fill="#FFFFFF" font-family="NanumGothic" font-size="14" lengthAdjust="spacing" textLength="60" x="33" y="405.38">Leaf Prov</text><text fill="#FFFFFF" font-family="NanumGothic" font-size="14" lengthAdjust="spacing" textLength="66" x="33" y="421.48">Certificate</text></g><!--entity EVSELeafCertificate--><g id="elem_EVSELeafCertificate"><rect fill="#7D5393" height="52.2" rx="2.5" ry="2.5" style="stroke:#000000;stroke-width:0.5;" width="86" x="365" y="382.5"/><text fill="#FFFFFF" font-family="NanumGothic" font-size="14" lengthAdjust="spacing" textLength="65" x="375" y="405.38">EVSE Leaf</text><text fill="#FFFFFF" font-family="NanumGothic" font-size="14" lengthAdjust="spacing" textLength="66" x="375" y="421.48">Certificate</text></g><!--entity OEMProvCertificate--><g id="elem_OEMProvCertificate"><rect fill="#7D5393" height="52.2" rx="2.5" ry="2.5" style="stroke:#000000;stroke-width:0.5;" width="86" x="515" y="382.5"/><text fill="#FFFFFF" font-family="NanumGothic" font-size="14" lengthAdjust="spacing" textLength="65" x="525" y="405.38">OEM Prov</text><text fill="#FFFFFF" font-family="NanumGothic" font-size="14" lengthAdjust="spacing" textLength="66" x="525" y="421.48">Certificate</text></g><!--entity ContractCertificate--><g id="elem_ContractCertificate"><rect fill="#7D5393" height="52.2" rx="2.5" ry="2.5" style="stroke:#000000;stroke-width:0.5;" width="86" x="636" y="382.5"/><text fill="#FFFFFF" font-family="NanumGothic" font-size="14" lengthAdjust="spacing" textLength="55" x="646" y="405.38">Contract</text><text fill="#FFFFFF" font-family="NanumGothic" font-size="14" lengthAdjust="spacing" textLength="66" x="646" y="421.48">Certificate</text></g><!--entity V2GRoot--><g id="elem_V2GRoot"><rect fill="#7D5393" height="36.1" rx="2.5" ry="2.5" style="stroke:#000000;stroke-width:0.5;" width="82" x="377" y="7"/><text fill="#FFFFFF" font-family="NanumGothic" font-size="14" lengthAdjust="spacing" textLength="62" x="387" y="29.88">V2G Root</text></g><!--entity OEMRootCA--><g id="elem_OEMRootCA"><rect fill="#7D5393" height="36.1" rx="2.5" ry="2.5" style="stroke:#000000;stroke-width:0.5;" width="110" x="503" y="7"/><text fill="#FFFFFF" font-family="NanumGothic" font-size="14" lengthAdjust="spacing" textLength="90" x="513" y="29.88">OEM Root CA</text></g><!--entity MORootCA--><g id="elem_MORootCA"><rect fill="#7D5393" height="36.1" rx="2.5" ry="2.5" style="stroke:#000000;stroke-width:0.5;" width="102" x="651" y="7"/><text fill="#FFFFFF" font-family="NanumGothic" font-size="14" lengthAdjust="spacing" textLength="82" x="661" y="29.88">MO Root CA</text></g><!--entity ProvSubCA1--><g id="elem_ProvSubCA1"><rect fill="#7D5393" height="36.1" rx="2.5" ry="2.5" style="stroke:#000000;stroke-width:0.5;" width="112" x="10" y="112.15"/><text fill="#FFFFFF" font-family="NanumGothic" font-size="14" lengthAdjust="spacing" textLength="92" x="20" y="135.03">Prov Sub-CA 1</text></g><!--entity OCSPSignerCertificate--><g id="elem_OCSPSignerCertificate"><rect fill="#7D5393" height="52.2" rx="2.5" ry="2.5" style="stroke:#000000;stroke-width:0.5;" width="100" x="157" y="104.1"/><text fill="#FFFFFF" font-family="NanumGothic" font-size="14" lengthAdjust="spacing" textLength="80" x="167" y="126.98">OCSP Signer</text><text fill="#FFFFFF" font-family="NanumGothic" font-size="14" lengthAdjust="spacing" textLength="66" x="167" y="143.08">Certificate</text></g><!--entity CSOSubCA1--><g id="elem_CSOSubCA1"><rect fill="#7D5393" height="36.1" rx="2.5" ry="2.5" style="stroke:#000000;stroke-width:0.5;" width="112" x="352" y="112.15"/><text fill="#FFFFFF" font-family="NanumGothic" font-size="14" lengthAdjust="spacing" textLength="92" x="362" y="135.03">CSO Sub-CA 1</text></g><!--entity OEMSubCA1--><g id="elem_OEMSubCA1"><rect fill="#7D5393" height="36.1" rx="2.5" ry="2.5" style="stroke:#000000;stroke-width:0.5;" width="117" x="499.5" y="112.15"/><text fill="#FFFFFF" font-family="NanumGothic" font-size="14" lengthAdjust="spacing" textLength="97" x="509.5" y="135.03">OEM Sub-CA 1</text></g><!--entity MOSubCA1--><g id="elem_MOSubCA1"><rect fill="#7D5393" height="36.1" rx="2.5" ry="2.5" style="stroke:#000000;stroke-width:0.5;" width="109" x="651.5" y="112.15"/><text fill="#FFFFFF" font-family="NanumGothic" font-size="14" lengthAdjust="spacing" textLength="89" x="661.5" y="135.03">MO Sub-CA 1</text></g><!--entity ProvSubCA2--><g id="elem_ProvSubCA2"><rect fill="#7D5393" height="36.1" rx="2.5" ry="2.5" style="stroke:#000000;stroke-width:0.5;" width="112" x="10" y="225.35"/><text fill="#FFFFFF" font-family="NanumGothic" font-size="14" lengthAdjust="spacing" textLength="92" x="20" y="248.23">Prov Sub-CA 2</text></g><!--entity OCSPSignerCertificate2--><g id="elem_OCSPSignerCertificate2"><rect fill="#7D5393" height="52.2" rx="2.5" ry="2.5" style="stroke:#000000;stroke-width:0.5;" width="100" x="157" y="217.3"/><text fill="#FFFFFF" font-family="NanumGothic" font-size="14" lengthAdjust="spacing" textLength="80" x="167" y="240.18">OCSP Signer</text><text fill="#FFFFFF" font-family="NanumGothic" font-size="14" lengthAdjust="spacing" textLength="66" x="167" y="256.28">Certificate</text></g><!--entity CSOSubCA2--><g id="elem_CSOSubCA2"><rect fill="#7D5393" height="36.1" rx="2.5" ry="2.5" style="stroke:#000000;stroke-width:0.5;" width="112" x="352" y="225.35"/><text fill="#FFFFFF" font-family="NanumGothic" font-size="14" lengthAdjust="spacing" textLength="92" x="362" y="248.23">CSO Sub-CA 2</text></g><!--entity OEMSubCA2--><g id="elem_OEMSubCA2"><rect fill="#7D5393" height="36.1" rx="2.5" ry="2.5" style="stroke:#000000;stroke-width:0.5;" width="117" x="499.5" y="225.35"/><text fill="#FFFFFF" font-family="NanumGothic" font-size="14" lengthAdjust="spacing" textLength="97" x="509.5" y="248.23">OEM Sub-CA 2</text></g><!--entity MOSubCA2--><g id="elem_MOSubCA2"><rect fill="#7D5393" height="36.1" rx="2.5" ry="2.5" style="stroke:#000000;stroke-width:0.5;" width="109" x="651.5" y="225.35"/><text fill="#FFFFFF" font-family="NanumGothic" font-size="14" lengthAdjust="spacing" textLength="89" x="661.5" y="248.23">MO Sub-CA 2</text></g><!--entity SalesTariff--><g id="elem_SalesTariff"><rect fill="#7D5393" height="36.1" rx="2.5" ry="2.5" style="stroke:#000000;stroke-width:0.5;" width="87" x="756.5" y="390.55"/><text fill="#FFFFFF" font-family="NanumGothic" font-size="14" lengthAdjust="spacing" textLength="67" x="766.5" y="413.43">SalesTariff</text></g><!--link V2GRoot to OEMRootCA--><!--link OEMRootCA to MORootCA--><!--link ProvSubCA1 to OCSPSignerCertificate--><!--link V2GRoot to ProvSubCA1--><g id="link_V2GRoot_ProvSubCA1"><path d="M376.65,36.81 C321.99,51.22 222.8,78 139,104.1 C131.45,106.45 129.1869,107.1373 121.4269,109.7473 " fill="none" id="V2GRoot-to-ProvSubCA1" style="stroke:#181818;stroke-width:1.0;"/><polygon fill="#181818" points="115.74,111.66,125.5456,112.5822,120.4791,110.066,122.9953,104.9996,115.74,111.66" style="stroke:#181818;stroke-width:1.0;"/></g><!--link V2GRoot to OCSPSignerCertificate--><g id="link_V2GRoot_OCSPSignerCertificate"><path d="M382.21,43.55 C347.87,60.33 301.1107,83.1956 262.6207,102.0056 " fill="none" id="V2GRoot-to-OCSPSignerCertificate" style="stroke:#181818;stroke-width:1.0;"/><polygon fill="#181818" points="257.23,104.64,267.0724,104.2822,261.7223,102.4446,263.5598,97.0945,257.23,104.64" style="stroke:#181818;stroke-width:1.0;"/></g><!--link V2GRoot to CSOSubCA1--><g id="link_V2GRoot_CSOSubCA1"><path d="M416.3,43.55 C414.45,62.63 412.089,87.008 410.249,105.988 " fill="none" id="V2GRoot-to-CSOSubCA1" style="stroke:#181818;stroke-width:1.0;"/><polygon fill="#181818" points="409.67,111.96,414.5198,103.388,410.1525,106.9833,406.5571,102.616,409.67,111.96" style="stroke:#181818;stroke-width:1.0;"/></g><!--link V2GRoot to OEMSubCA1--><g id="link_V2GRoot_OEMSubCA1"><path d="M441.75,43.55 C467.65,62.63 504.0096,89.4209 529.7696,108.4009 " fill="none" id="V2GRoot-to-OEMSubCA1" style="stroke:#181818;stroke-width:1.0;stroke-dasharray:7.0,7.0;"/><polygon fill="#181818" points="534.6,111.96,529.7271,103.4011,530.5746,108.9941,524.9816,109.8417,534.6,111.96" style="stroke:#181818;stroke-width:1.0;"/></g><!--link V2GRoot to MOSubCA1--><g id="link_V2GRoot_MOSubCA1"><path d="M459.26,40.83 C511.52,59.55 595.8013,89.737 651.4513,109.667 " fill="none" id="V2GRoot-to-MOSubCA1" style="stroke:#181818;stroke-width:1.0;stroke-dasharray:7.0,7.0;"/><polygon fill="#181818" points="657.1,111.69,649.9756,104.8898,652.3928,110.0042,647.2783,112.4213,657.1,111.69" style="stroke:#181818;stroke-width:1.0;"/></g><!--link OEMRootCA to OEMSubCA1--><g id="link_OEMRootCA_OEMSubCA1"><path d="M558,43.55 C558,62.63 558,86.98 558,105.96 " fill="none" id="OEMRootCA-to-OEMSubCA1" style="stroke:#181818;stroke-width:1.0;"/><polygon fill="#181818" points="558,111.96,562,102.96,558,106.96,554,102.96,558,111.96" style="stroke:#181818;stroke-width:1.0;"/></g><!--link MORootCA to MOSubCA1--><g id="link_MORootCA_MOSubCA1"><path d="M702.68,43.55 C703.42,62.63 704.3694,86.9844 705.0994,105.9644 " fill="none" id="MORootCA-to-MOSubCA1" style="stroke:#181818;stroke-width:1.0;"/><polygon fill="#181818" points="705.33,111.96,708.9811,102.8129,705.1378,106.9637,700.9871,103.1204,705.33,111.96" style="stroke:#181818;stroke-width:1.0;"/></g><!--link OCSPSignerCertificate to CSOSubCA1--><g id="link_OCSPSignerCertificate_CSOSubCA1"><path d="M257.46,130.2 C286.18,130.2 316.23,130.2 345.85,130.2 " fill="none" id="OCSPSignerCertificate-to-CSOSubCA1" style="stroke:#181818;stroke-width:1.0;"/><polygon fill="#181818" points="351.85,130.2,342.85,126.2,346.85,130.2,342.85,134.2,351.85,130.2" style="stroke:#181818;stroke-width:1.0;"/><text fill="#000000" font-family="NanumGothic" font-size="13" lengthAdjust="spacing" textLength="32" x="288.5" y="94.16">Signs</text><text fill="#000000" font-family="NanumGothic" font-size="13" lengthAdjust="spacing" textLength="34" x="287.5" y="109.11">OCSP</text><text fill="#000000" font-family="NanumGothic" font-size="13" lengthAdjust="spacing" textLength="58" x="275.5" y="124.06">Response</text></g><!--link ProvSubCA1 to ProvSubCA2--><g id="link_ProvSubCA1_ProvSubCA2"><path d="M66,148.58 C66,169.47 66,198.31 66,219.15 " fill="none" id="ProvSubCA1-to-ProvSubCA2" style="stroke:#181818;stroke-width:1.0;"/><polygon fill="#181818" points="66,225.15,70,216.15,66,220.15,62,216.15,66,225.15" style="stroke:#181818;stroke-width:1.0;"/></g><!--link CSOSubCA1 to OCSPSignerCertificate2--><g id="link_CSOSubCA1_OCSPSignerCertificate2"><path d="M376.59,148.58 C343.47,166.9 296.19,193.0553 258.36,213.9853 " fill="none" id="CSOSubCA1-to-OCSPSignerCertificate2" style="stroke:#181818;stroke-width:1.0;"/><polygon fill="#181818" points="253.11,216.89,262.9215,216.033,257.485,214.4694,259.0486,209.033,253.11,216.89" style="stroke:#181818;stroke-width:1.0;"/></g><!--link OCSPSignerCertificate2 to CSOSubCA2--><g id="link_OCSPSignerCertificate2_CSOSubCA2"><path d="M257.46,243.4 C286.18,243.4 316.23,243.4 345.85,243.4 " fill="none" id="OCSPSignerCertificate2-to-CSOSubCA2" style="stroke:#181818;stroke-width:1.0;"/><polygon fill="#181818" points="351.85,243.4,342.85,239.4,346.85,243.4,342.85,247.4,351.85,243.4" style="stroke:#181818;stroke-width:1.0;"/><text fill="#000000" font-family="NanumGothic" font-size="13" lengthAdjust="spacing" textLength="32" x="288.5" y="207.36">Signs</text><text fill="#000000" font-family="NanumGothic" font-size="13" lengthAdjust="spacing" textLength="34" x="287.5" y="222.31">OCSP</text><text fill="#000000" font-family="NanumGothic" font-size="13" lengthAdjust="spacing" textLength="58" x="275.5" y="237.26">Resposne</text></g><!--link CSOSubCA1 to CSOSubCA2--><g id="link_CSOSubCA1_CSOSubCA2"><path d="M408,148.58 C408,169.47 408,198.31 408,219.15 " fill="none" id="CSOSubCA1-to-CSOSubCA2" style="stroke:#181818;stroke-width:1.0;"/><polygon fill="#181818" points="408,225.15,412,216.15,408,220.15,404,216.15,408,225.15" style="stroke:#181818;stroke-width:1.0;"/></g><!--link OEMSubCA1 to OEMSubCA2--><g id="link_OEMSubCA1_OEMSubCA2"><path d="M558,148.58 C558,169.47 558,198.31 558,219.15 " fill="none" id="OEMSubCA1-to-OEMSubCA2" style="stroke:#181818;stroke-width:1.0;"/><polygon fill="#181818" points="558,225.15,562,216.15,558,220.15,554,216.15,558,225.15" style="stroke:#181818;stroke-width:1.0;"/></g><!--link MOSubCA1 to MOSubCA2--><g id="link_MOSubCA1_MOSubCA2"><path d="M706,148.58 C706,169.47 706,198.31 706,219.15 " fill="none" id="MOSubCA1-to-MOSubCA2" style="stroke:#181818;stroke-width:1.0;"/><polygon fill="#181818" points="706,225.15,710,216.15,706,220.15,702,216.15,706,225.15" style="stroke:#181818;stroke-width:1.0;"/></g><!--link ProvSubCA2 to LeafProvCertificate--><g id="link_ProvSubCA2_LeafProvCertificate"><path d="M66,261.87 C66,290.81 66,342.84 66,376.28 " fill="none" id="ProvSubCA2-to-LeafProvCertificate" style="stroke:#181818;stroke-width:1.0;"/><polygon fill="#181818" points="66,382.28,70,373.28,66,377.28,62,373.28,66,382.28" style="stroke:#181818;stroke-width:1.0;"/></g><!--link CSOSubCA2 to EVSELeafCertificate--><g id="link_CSOSubCA2_EVSELeafCertificate"><path d="M408,261.87 C408,290.81 408,342.84 408,376.28 " fill="none" id="CSOSubCA2-to-EVSELeafCertificate" style="stroke:#181818;stroke-width:1.0;"/><polygon fill="#181818" points="408,382.28,412,373.28,408,377.28,404,373.28,408,382.28" style="stroke:#181818;stroke-width:1.0;"/></g><!--link OEMSubCA2 to OEMProvCertificate--><g id="link_OEMSubCA2_OEMProvCertificate"><path d="M558,261.87 C558,290.81 558,342.84 558,376.28 " fill="none" id="OEMSubCA2-to-OEMProvCertificate" style="stroke:#181818;stroke-width:1.0;"/><polygon fill="#181818" points="558,382.28,562,373.28,558,377.28,554,373.28,558,382.28" style="stroke:#181818;stroke-width:1.0;"/></g><!--link MOSubCA2 to ContractCertificate--><g id="link_MOSubCA2_ContractCertificate"><path d="M703.11,261.87 C698.32,290.81 689.6989,342.9204 684.1689,376.3604 " fill="none" id="MOSubCA2-to-ContractCertificate" style="stroke:#181818;stroke-width:1.0;"/><polygon fill="#181818" points="683.19,382.28,688.6048,374.0532,684.0058,377.347,680.712,372.748,683.19,382.28" style="stroke:#181818;stroke-width:1.0;"/></g><!--link MOSubCA2 to SalesTariff--><g id="link_MOSubCA2_SalesTariff"><path d="M716.06,261.87 C734.15,293.28 768.9753,353.7408 787.0153,385.0608 " fill="none" id="MOSubCA2-to-SalesTariff" style="stroke:#181818;stroke-width:1.0;"/><polygon fill="#181818" points="790.01,390.26,788.9841,380.4647,787.5144,385.9273,782.0518,384.4576,790.01,390.26" style="stroke:#181818;stroke-width:1.0;"/><text fill="#000000" font-family="NanumGothic" font-size="13" lengthAdjust="spacing" textLength="32" x="745.58" y="312.46">Signs</text></g><!--SRC=[dLEnReCm4Dtz5Mvs8iLZXqW8HLsAY4ALfNIWv48iKHE14wcg-k-r3JPdS9Pk-DwxU_UCtnCNLNCx0UtbTmFhw-sh8QIiGKYwEh8NUcXRkQ9bJzL1VriiswK6eqbiO7NMnoIsX3Jpy3GROOllk_PEyzjdbCHqOoYweWf9l74YIRwdEQy5T8L8e9FypAjImg2em053YErCyimVhWgpsSg0nr05dv7EHgHsGiW2yosm_rjW0G_Cyy027fZdWIqzCEo14T919KjHDp3uu3rl1HTr8NBexhm2vySYOvt-44h7wQzGdWrdQKr36i7_vXUhxexv3iyoPzsrdAKXZJoSTOGBhnflDNqruSqKCb_CTIMja5rPoMMNHMOxZ7rvsK3_LdRyV3PiT2PaJ0wDEbvVvFk5dquWFY8K6VUru4oncTAn71HCmgGRRN6sS3dSYHbJRcnrlTwYhE3g511aAC9iOlsOEkA7zg1O_jc4g2-4fXRY0Fsr5JtuzuADgYVkcXzxPM5fXhLPIBiNC1UOuacSOyy_q_vHVGhZjBK1Gk5nOWCbb0adowpiOaYAPuJUjCz0xtYy1F87]--></g></svg>