<?xml version="1.0" encoding="us-ascii" standalone="no"?><svg xmlns="http://www.w3.org/2000/svg" xmlns:xlink="http://www.w3.org/1999/xlink" contentStyleType="text/css" height="383px" preserveAspectRatio="none" style="width:556px;height:383px;background:#FFFFFF;" version="1.1" viewBox="0 0 556 383" width="556px" zoomAndPan="magnify"><defs/><g><rect fill="#FFFFFF" height="28.95" style="stroke:#181818;stroke-width:1.0;" width="10" x="85" y="143.9"/><rect fill="#FFFFFF" height="85.85" style="stroke:#181818;stroke-width:1.0;" width="10" x="85" y="216.45"/><rect fill="none" height="235.25" style="stroke:#000000;stroke-width:1.5;" width="535" x="10" y="82.05"/><rect fill="none" height="204.3" style="stroke:#000000;stroke-width:1.5;" width="435.5" x="20" y="106"/><line style="stroke:#181818;stroke-width:0.5;stroke-dasharray:5.0,5.0;" x1="90" x2="90" y1="36.1" y2="376.25"/><line style="stroke:#181818;stroke-width:0.5;stroke-dasharray:5.0,5.0;" x1="418.5" x2="418.5" y1="36.1" y2="376.25"/><rect fill="#7D5393" height="30.1" rx="2.5" ry="2.5" style="stroke:#181818;stroke-width:0.5;" width="120" x="30" y="5"/><text fill="#FFFFFF" font-family="NanumGothic" font-size="14" lengthAdjust="spacing" textLength="106" x="37" y="24.88">Charging Station</text><rect fill="#7D5393" height="30.1" rx="2.5" ry="2.5" style="stroke:#181818;stroke-width:0.5;" width="53" x="392.5" y="5"/><text fill="#FFFFFF" font-family="NanumGothic" font-size="14" lengthAdjust="spacing" textLength="39" x="399.5" y="24.88">CSMS</text><rect fill="#FFFFFF" height="28.95" style="stroke:#181818;stroke-width:1.0;" width="10" x="85" y="143.9"/><rect fill="#FFFFFF" height="85.85" style="stroke:#181818;stroke-width:1.0;" width="10" x="85" y="216.45"/><polygon fill="#181818" points="407,63.05,417,67.05,407,71.05,411,67.05" style="stroke:#181818;stroke-width:1.0;"/><line style="stroke:#181818;stroke-width:1.0;" x1="90" x2="413" y1="67.05" y2="67.05"/><text fill="#000000" font-family="NanumGothic" font-size="13" lengthAdjust="spacing" textLength="231" x="97" y="62.06">transaction related message request()</text><path d="M10,82.05 L82,82.05 L82,89 L72,99 L10,99 L10,82.05 " fill="#EEEEEE" style="stroke:#000000;stroke-width:1.5;"/><rect fill="none" height="235.25" style="stroke:#000000;stroke-width:1.5;" width="535" x="10" y="82.05"/><text fill="#000000" font-family="NanumGothic" font-size="13" font-weight="bold" lengthAdjust="spacing" textLength="27" x="25" y="95.01">loop</text><text fill="#000000" font-family="NanumGothic" font-size="11" font-weight="bold" lengthAdjust="spacing" textLength="443" x="97" y="94.17">[while number of messages sent has not reached MessageAttemptsTransactionEvent]</text><path d="M20,106 L80,106 L80,112.95 L70,122.95 L20,122.95 L20,106 " fill="#EEEEEE" style="stroke:#000000;stroke-width:1.5;"/><rect fill="none" height="204.3" style="stroke:#000000;stroke-width:1.5;" width="435.5" x="20" y="106"/><text fill="#000000" font-family="NanumGothic" font-size="13" font-weight="bold" lengthAdjust="spacing" textLength="15" x="35" y="118.96">alt</text><text fill="#000000" font-family="NanumGothic" font-size="11" font-weight="bold" lengthAdjust="spacing" textLength="176" x="95" y="118.12">[if message delivered successfully]</text><polygon fill="#181818" points="106,139.9,96,143.9,106,147.9,102,143.9" style="stroke:#181818;stroke-width:1.0;"/><line style="stroke:#181818;stroke-width:1.0;stroke-dasharray:2.0,2.0;" x1="100" x2="418" y1="143.9" y2="143.9"/><text fill="#000000" font-family="NanumGothic" font-size="13" lengthAdjust="spacing" textLength="240" x="112" y="138.91">transaction related message response()</text><ellipse cx="546.5" cy="172.1" fill="none" rx="4" ry="4" style="stroke:#181818;stroke-width:1.5;"/><polygon fill="#181818" points="529.5,168.85,539.5,172.85,529.5,176.85,533.5,172.85" style="stroke:#181818;stroke-width:1.0;"/><line style="stroke:#181818;stroke-width:1.0;" x1="90" x2="535.5" y1="172.85" y2="172.85"/><text fill="#000000" font-family="NanumGothic" font-size="13" lengthAdjust="spacing" textLength="223" x="97" y="167.86">Continue processing next message()</text><line style="stroke:#000000;stroke-width:1.0;stroke-dasharray:2.0,2.0;" x1="20" x2="455.5" y1="181.85" y2="181.85"/><text fill="#000000" font-family="NanumGothic" font-size="11" font-weight="bold" lengthAdjust="spacing" textLength="133" x="25" y="191.97">[if message not accepted]</text><polygon fill="#181818" points="106,212.45,96,216.45,106,220.45,102,216.45" style="stroke:#181818;stroke-width:1.0;"/><line style="stroke:#181818;stroke-width:1.0;stroke-dasharray:2.0,2.0;" x1="100" x2="418" y1="216.45" y2="216.45"/><text fill="#000000" font-family="NanumGothic" font-size="13" lengthAdjust="spacing" textLength="196" x="112" y="211.46">failure to process the message()</text><line style="stroke:#181818;stroke-width:1.0;" x1="95" x2="137" y1="260.35" y2="260.35"/><line style="stroke:#181818;stroke-width:1.0;" x1="137" x2="137" y1="260.35" y2="273.35"/><line style="stroke:#181818;stroke-width:1.0;" x1="96" x2="137" y1="273.35" y2="273.35"/><polygon fill="#181818" points="106,269.35,96,273.35,106,277.35,102,273.35" style="stroke:#181818;stroke-width:1.0;"/><text fill="#000000" font-family="NanumGothic" font-size="13" lengthAdjust="spacing" textLength="165" x="102" y="240.41">wait number of attempts x</text><text fill="#000000" font-family="NanumGothic" font-size="13" lengthAdjust="spacing" textLength="305" x="102" y="255.36">MessageAttemptIntervalTransactionEvent seconds</text><polygon fill="#181818" points="407,298.3,417,302.3,407,306.3,411,302.3" style="stroke:#181818;stroke-width:1.0;"/><line style="stroke:#181818;stroke-width:1.0;" x1="90" x2="413" y1="302.3" y2="302.3"/><text fill="#000000" font-family="NanumGothic" font-size="13" lengthAdjust="spacing" textLength="108" x="97" y="297.31">resend message()</text><line style="stroke:#181818;stroke-width:1.0;" x1="90" x2="132" y1="345.25" y2="345.25"/><line style="stroke:#181818;stroke-width:1.0;" x1="132" x2="132" y1="345.25" y2="358.25"/><line style="stroke:#181818;stroke-width:1.0;" x1="91" x2="132" y1="358.25" y2="358.25"/><polygon fill="#181818" points="101,354.25,91,358.25,101,362.25,97,358.25" style="stroke:#181818;stroke-width:1.0;"/><text fill="#000000" font-family="NanumGothic" font-size="13" lengthAdjust="spacing" textLength="113" x="97" y="340.26">dispose message()</text><!--SRC=[bLAnJiD03DtlAqmd6E03EY2XYe6XKnbXC3ctEUdYE-vyQVltE6aARKfRY1GfiP_zthDzuxZonH9asNfwYANnnaHCuYeNaGKcinhJol4A5eBY0ay0C-o3GsnKiPWlTYZzC6Q4XVl7FZ45ISWPgpwOoAEGXOPonXNf_sUXBBTtnlWG8gnhvmcuD1-K82ptk0oPbB9MCWwYLLZLscM-opw9K1Cbl_uGFRUADm3e1Tnt6x3aNKj9ItEfAWqkY_TRnK6l5UuxqSS-hkdFCN0cDT0rwL2j0au6jwCucL1uXodC0elZGX1Jw3HrIs3Qo9vaw6tfR7S0yfaEZNPJGdKOLUmLUx14vqiYaB1N05BJYFq2Dy0PTxzmzSyQdHpi68VrmMR8l_7nObzOABNen_lLewW2stnPGt-3kYTY-w-9iZNTQ_xYopezWtmuioy0]--></g></svg>