<?xml version="1.0" encoding="us-ascii" standalone="no"?><svg xmlns="http://www.w3.org/2000/svg" xmlns:xlink="http://www.w3.org/1999/xlink" contentStyleType="text/css" height="470px" preserveAspectRatio="none" style="width:708px;height:470px;background:#FFFFFF;" version="1.1" viewBox="0 0 708 470" width="708px" zoomAndPan="magnify"><defs/><g><rect fill="#FFFFFF" height="126.8" style="stroke:#181818;stroke-width:1.0;" width="10" x="92" y="46.1"/><rect fill="#FFFFFF" height="152.8" style="stroke:#181818;stroke-width:1.0;" width="10" x="92" y="301.7"/><rect fill="#FFFFFF" height="228.65" style="stroke:#181818;stroke-width:1.0;" width="10" x="413" y="143.95"/><rect fill="#FFFFFF" height="70.9" style="stroke:#181818;stroke-width:1.0;" width="10" x="596" y="201.85"/><rect fill="none" height="58.9" style="stroke:#000000;stroke-width:1.5;" width="244" x="27" y="387.6"/><line style="stroke:#181818;stroke-width:0.5;stroke-dasharray:5.0,5.0;" x1="97" x2="97" y1="36.1" y2="463.5"/><line style="stroke:#181818;stroke-width:0.5;stroke-dasharray:5.0,5.0;" x1="417.5" x2="417.5" y1="36.1" y2="463.5"/><line style="stroke:#181818;stroke-width:0.5;stroke-dasharray:5.0,5.0;" x1="600.5" x2="600.5" y1="36.1" y2="463.5"/><rect fill="#7D5393" height="30.1" rx="2.5" ry="2.5" style="stroke:#181818;stroke-width:0.5;" width="120" x="37" y="5"/><text fill="#FFFFFF" font-family="NanumGothic" font-size="14" lengthAdjust="spacing" textLength="106" x="44" y="24.88">Charging Station</text><rect fill="#7D5393" height="30.1" rx="2.5" ry="2.5" style="stroke:#181818;stroke-width:0.5;" width="53" x="391.5" y="5"/><text fill="#FFFFFF" font-family="NanumGothic" font-size="14" lengthAdjust="spacing" textLength="39" x="398.5" y="24.88">CSMS</text><rect fill="#7D5393" height="30.1" rx="2.5" ry="2.5" style="stroke:#181818;stroke-width:0.5;" width="187" x="507.5" y="5"/><text fill="#FFFFFF" font-family="NanumGothic" font-size="14" lengthAdjust="spacing" textLength="173" x="514.5" y="24.88">Certificate Authority Server</text><rect fill="#FFFFFF" height="126.8" style="stroke:#181818;stroke-width:1.0;" width="10" x="92" y="46.1"/><rect fill="#FFFFFF" height="152.8" style="stroke:#181818;stroke-width:1.0;" width="10" x="92" y="301.7"/><rect fill="#FFFFFF" height="228.65" style="stroke:#181818;stroke-width:1.0;" width="10" x="413" y="143.95"/><rect fill="#FFFFFF" height="70.9" style="stroke:#181818;stroke-width:1.0;" width="10" x="596" y="201.85"/><path d="M5,51.1 L5,75.1 L190,75.1 L190,61.1 L180,51.1 L5,51.1 " fill="#7D5393" style="stroke:#000000;stroke-width:0.5;"/><path d="M180,51.1 L180,61.1 L190,61.1 L180,51.1 " fill="#7D5393" style="stroke:#000000;stroke-width:0.5;"/><text fill="#FFFFFF" font-family="NanumGothic" font-size="13" lengthAdjust="spacing" textLength="164" x="11" y="68.06">CS certificate is almost due</text><line style="stroke:#181818;stroke-width:1.0;" x1="102" x2="144" y1="102" y2="102"/><line style="stroke:#181818;stroke-width:1.0;" x1="144" x2="144" y1="102" y2="115"/><line style="stroke:#181818;stroke-width:1.0;" x1="103" x2="144" y1="115" y2="115"/><polygon fill="#181818" points="113,111,103,115,113,119,109,115" style="stroke:#181818;stroke-width:1.0;"/><text fill="#000000" font-family="NanumGothic" font-size="13" lengthAdjust="spacing" textLength="229" x="109" y="97.01">generate new public / private key pair</text><polygon fill="#181818" points="401,139.95,411,143.95,401,147.95,405,143.95" style="stroke:#181818;stroke-width:1.0;"/><line style="stroke:#181818;stroke-width:1.0;" x1="102" x2="407" y1="143.95" y2="143.95"/><text fill="#000000" font-family="NanumGothic" font-size="13" lengthAdjust="spacing" textLength="164" x="109" y="138.96">SignCertificateRequest(csr)</text><polygon fill="#181818" points="108,168.9,98,172.9,108,176.9,104,172.9" style="stroke:#181818;stroke-width:1.0;"/><line style="stroke:#181818;stroke-width:1.0;stroke-dasharray:2.0,2.0;" x1="102" x2="412" y1="172.9" y2="172.9"/><text fill="#000000" font-family="NanumGothic" font-size="13" lengthAdjust="spacing" textLength="212" x="114" y="167.91">SignCertificateResponse(Accepted)</text><polygon fill="#181818" points="584,197.85,594,201.85,584,205.85,588,201.85" style="stroke:#181818;stroke-width:1.0;"/><line style="stroke:#181818;stroke-width:1.0;" x1="423" x2="590" y1="201.85" y2="201.85"/><text fill="#000000" font-family="NanumGothic" font-size="13" lengthAdjust="spacing" textLength="77" x="430" y="196.86">forward CSR</text><line style="stroke:#181818;stroke-width:1.0;" x1="606" x2="648" y1="230.8" y2="230.8"/><line style="stroke:#181818;stroke-width:1.0;" x1="648" x2="648" y1="230.8" y2="243.8"/><line style="stroke:#181818;stroke-width:1.0;" x1="607" x2="648" y1="243.8" y2="243.8"/><polygon fill="#181818" points="617,239.8,607,243.8,617,247.8,613,243.8" style="stroke:#181818;stroke-width:1.0;"/><text fill="#000000" font-family="NanumGothic" font-size="13" lengthAdjust="spacing" textLength="88" x="613" y="225.81">sign certificate</text><polygon fill="#181818" points="434,268.75,424,272.75,434,276.75,430,272.75" style="stroke:#181818;stroke-width:1.0;"/><line style="stroke:#181818;stroke-width:1.0;stroke-dasharray:2.0,2.0;" x1="428" x2="600" y1="272.75" y2="272.75"/><text fill="#000000" font-family="NanumGothic" font-size="13" lengthAdjust="spacing" textLength="149" x="440" y="267.76">return Signed Certificate</text><polygon fill="#181818" points="113,297.7,103,301.7,113,305.7,109,301.7" style="stroke:#181818;stroke-width:1.0;"/><line style="stroke:#181818;stroke-width:1.0;" x1="107" x2="412" y1="301.7" y2="301.7"/><text fill="#000000" font-family="NanumGothic" font-size="13" lengthAdjust="spacing" textLength="221" x="119" y="296.71">CertificateSignedRequest(certificate)</text><line style="stroke:#181818;stroke-width:1.0;" x1="102" x2="144" y1="330.65" y2="330.65"/><line style="stroke:#181818;stroke-width:1.0;" x1="144" x2="144" y1="330.65" y2="343.65"/><line style="stroke:#181818;stroke-width:1.0;" x1="103" x2="144" y1="343.65" y2="343.65"/><polygon fill="#181818" points="113,339.65,103,343.65,113,347.65,109,343.65" style="stroke:#181818;stroke-width:1.0;"/><text fill="#000000" font-family="NanumGothic" font-size="13" lengthAdjust="spacing" textLength="204" x="109" y="325.66">Verify validity of signed certificate</text><polygon fill="#181818" points="406,368.6,416,372.6,406,376.6,410,372.6" style="stroke:#181818;stroke-width:1.0;"/><line style="stroke:#181818;stroke-width:1.0;stroke-dasharray:2.0,2.0;" x1="102" x2="412" y1="372.6" y2="372.6"/><text fill="#000000" font-family="NanumGothic" font-size="13" lengthAdjust="spacing" textLength="287" x="109" y="367.61">CertificateSignedResponse (Accepted/Rejected)</text><path d="M27,387.6 L93,387.6 L93,394.55 L83,404.55 L27,404.55 L27,387.6 " fill="#EEEEEE" style="stroke:#000000;stroke-width:1.5;"/><rect fill="none" height="58.9" style="stroke:#000000;stroke-width:1.5;" width="244" x="27" y="387.6"/><text fill="#000000" font-family="NanumGothic" font-size="13" font-weight="bold" lengthAdjust="spacing" textLength="21" x="42" y="400.56">opt</text><text fill="#000000" font-family="NanumGothic" font-size="11" font-weight="bold" lengthAdjust="spacing" textLength="52" x="108" y="399.72">[key valid]</text><line style="stroke:#181818;stroke-width:1.0;" x1="102" x2="144" y1="425.5" y2="425.5"/><line style="stroke:#181818;stroke-width:1.0;" x1="144" x2="144" y1="425.5" y2="438.5"/><line style="stroke:#181818;stroke-width:1.0;" x1="103" x2="144" y1="438.5" y2="438.5"/><polygon fill="#181818" points="113,434.5,103,438.5,113,442.5,109,438.5" style="stroke:#181818;stroke-width:1.0;"/><text fill="#000000" font-family="NanumGothic" font-size="13" lengthAdjust="spacing" textLength="150" x="109" y="420.51">Switch to new certificate</text><!--SRC=[ZL8zRy8m4DtzAwvCC51s1gIeSnSiTNUTIxWssCO-W_BlQoSqTGEjMApaFjwzz-wUoEWkrWY1-mwVNJnsGZZbcJGvPHWMBmVbMp8jI5PCrYn01VWENcEp3lagnwhqCKjX-cb8AqQe8X-i9-v1eZ-Z7rigAOJIJETSCXzZR0hQL7kJWJGCT85E0LHtj86XZYZGr92RXPWrmdetnzf2YmPz1Z5u0HVVEzAm0UT7Kf_OWrFaxsCboLkGr9f2wXvF4GClTV2hGbnsH-GNrlTOt804Pqt0PQKrEiPw9MhyqwahxYuRkeN6-eloTHgvB-PdgzCpLOKqiFJmcfrKUUJepS0B4rPHM1AfP35yhgbe6c4cQtuIA_6FgWUszuQUcXxEggCwNvTj1cM9yczjSwX9vnsIe_KmUR_PumVgcoKC6xMEXniP2EJ3V82pl13h0x0TJgxacIvNV040]--></g></svg>