<?xml version="1.0" encoding="us-ascii" standalone="no"?><svg xmlns="http://www.w3.org/2000/svg" xmlns:xlink="http://www.w3.org/1999/xlink" contentStyleType="text/css" height="937px" preserveAspectRatio="none" style="width:895px;height:937px;background:#FFFFFF;" version="1.1" viewBox="0 0 895 937" width="895px" zoomAndPan="magnify"><defs/><g><rect fill="#FFFFFF" height="114.8" style="stroke:#181818;stroke-width:1.0;" width="10" x="223.5" y="149"/><rect fill="#FFFFFF" height="114.8" style="stroke:#181818;stroke-width:1.0;" width="10" x="223.5" y="316.7"/><rect fill="#FFFFFF" height="77.85" style="stroke:#181818;stroke-width:1.0;" width="10" x="223.5" y="553"/><rect fill="#FFFFFF" height="57.9" style="stroke:#181818;stroke-width:1.0;" width="10" x="223.5" y="659.8"/><rect fill="#FFFFFF" height="135.75" style="stroke:#181818;stroke-width:1.0;" width="10" x="223.5" y="769.3"/><rect fill="#FFFFFF" height="28.95" style="stroke:#181818;stroke-width:1.0;" width="10" x="846.5" y="234.85"/><rect fill="#FFFFFF" height="28.95" style="stroke:#181818;stroke-width:1.0;" width="10" x="846.5" y="402.55"/><rect fill="#FFFFFF" height="28.95" style="stroke:#181818;stroke-width:1.0;" width="10" x="846.5" y="601.9"/><rect fill="#FFFFFF" height="28.95" style="stroke:#181818;stroke-width:1.0;" width="10" x="846.5" y="688.75"/><rect fill="#FFFFFF" height="28.95" style="stroke:#181818;stroke-width:1.0;" width="10" x="846.5" y="818.2"/><rect fill="#FFFFFF" height="28.95" style="stroke:#181818;stroke-width:1.0;" width="10" x="846.5" y="876.1"/><rect fill="none" height="634.25" style="stroke:#000000;stroke-width:1.5;" width="878" x="10" y="278.8"/><line style="stroke:#181818;stroke-width:0.5;stroke-dasharray:5.0,5.0;" x1="52" x2="52" y1="83.1" y2="930.05"/><line style="stroke:#181818;stroke-width:0.5;stroke-dasharray:5.0,5.0;" x1="228.5" x2="228.5" y1="83.1" y2="930.05"/><line style="stroke:#181818;stroke-width:0.5;stroke-dasharray:5.0,5.0;" x1="851" x2="851" y1="83.1" y2="930.05"/><text fill="#000000" font-family="NanumGothic" font-size="14" lengthAdjust="spacing" textLength="59" x="20" y="79.88">EV Driver</text><ellipse cx="52.5" cy="14.5" fill="#E2E2F0" rx="8" ry="8" style="stroke:#7D5393;stroke-width:1.5;"/><path d="M52.5,22.5 L52.5,49.5 M39.5,30.5 L65.5,30.5 M52.5,49.5 L39.5,64.5 M52.5,49.5 L65.5,64.5 " fill="none" style="stroke:#7D5393;stroke-width:1.5;"/><rect fill="#7D5393" height="30.1" rx="2.5" ry="2.5" style="stroke:#181818;stroke-width:0.5;" width="120" x="168.5" y="52"/><text fill="#FFFFFF" font-family="NanumGothic" font-size="14" lengthAdjust="spacing" textLength="106" x="175.5" y="71.88">Charging Station</text><rect fill="#7D5393" height="30.1" rx="2.5" ry="2.5" style="stroke:#181818;stroke-width:0.5;" width="53" x="825" y="52"/><text fill="#FFFFFF" font-family="NanumGothic" font-size="14" lengthAdjust="spacing" textLength="39" x="832" y="71.88">CSMS</text><rect fill="#FFFFFF" height="114.8" style="stroke:#181818;stroke-width:1.0;" width="10" x="223.5" y="149"/><rect fill="#FFFFFF" height="114.8" style="stroke:#181818;stroke-width:1.0;" width="10" x="223.5" y="316.7"/><rect fill="#FFFFFF" height="77.85" style="stroke:#181818;stroke-width:1.0;" width="10" x="223.5" y="553"/><rect fill="#FFFFFF" height="57.9" style="stroke:#181818;stroke-width:1.0;" width="10" x="223.5" y="659.8"/><rect fill="#FFFFFF" height="135.75" style="stroke:#181818;stroke-width:1.0;" width="10" x="223.5" y="769.3"/><rect fill="#FFFFFF" height="28.95" style="stroke:#181818;stroke-width:1.0;" width="10" x="846.5" y="234.85"/><rect fill="#FFFFFF" height="28.95" style="stroke:#181818;stroke-width:1.0;" width="10" x="846.5" y="402.55"/><rect fill="#FFFFFF" height="28.95" style="stroke:#181818;stroke-width:1.0;" width="10" x="846.5" y="601.9"/><rect fill="#FFFFFF" height="28.95" style="stroke:#181818;stroke-width:1.0;" width="10" x="846.5" y="688.75"/><rect fill="#FFFFFF" height="28.95" style="stroke:#181818;stroke-width:1.0;" width="10" x="846.5" y="818.2"/><rect fill="#FFFFFF" height="28.95" style="stroke:#181818;stroke-width:1.0;" width="10" x="846.5" y="876.1"/><path d="M25,98.1 L25,122.1 L878,122.1 L878,108.1 L868,98.1 L25,98.1 " fill="#7D5393" style="stroke:#000000;stroke-width:0.5;"/><path d="M868,98.1 L868,108.1 L878,108.1 L868,98.1 " fill="#7D5393" style="stroke:#000000;stroke-width:0.5;"/><text fill="#FFFFFF" font-family="NanumGothic" font-size="13" lengthAdjust="spacing" textLength="88" x="403" y="115.06">&#53944;&#47004;&#51117;&#49496; &#51652;&#54665;&#51473;</text><polygon fill="#181818" points="211.5,145,221.5,149,211.5,153,215.5,149" style="stroke:#181818;stroke-width:1.0;"/><line style="stroke:#181818;stroke-width:1.0;" x1="52.5" x2="217.5" y1="149" y2="149"/><text fill="#000000" font-family="NanumGothic" font-size="13" lengthAdjust="spacing" textLength="152" x="59.5" y="144.01">&#52264;&#50640;&#49436; &#52992;&#51060;&#48660;&#51012; &#50616;&#54540;&#47084;&#44536;&#54632;</text><line style="stroke:#181818;stroke-width:1.0;" x1="233.5" x2="275.5" y1="177.95" y2="177.95"/><line style="stroke:#181818;stroke-width:1.0;" x1="275.5" x2="275.5" y1="177.95" y2="190.95"/><line style="stroke:#181818;stroke-width:1.0;" x1="234.5" x2="275.5" y1="190.95" y2="190.95"/><polygon fill="#181818" points="244.5,186.95,234.5,190.95,244.5,194.95,240.5,190.95" style="stroke:#181818;stroke-width:1.0;"/><text fill="#000000" font-family="NanumGothic" font-size="13" lengthAdjust="spacing" textLength="153" x="240.5" y="172.96">&#50640;&#45320;&#51648; &#51228;&#44277; &#51473;&#45800;(suspend)</text><polygon fill="#181818" points="834.5,230.85,844.5,234.85,834.5,238.85,838.5,234.85" style="stroke:#181818;stroke-width:1.0;"/><line style="stroke:#181818;stroke-width:1.0;" x1="233.5" x2="840.5" y1="234.85" y2="234.85"/><text fill="#000000" font-family="NanumGothic" font-size="13" lengthAdjust="spacing" textLength="541" x="240.5" y="214.91">TransactionEventRequest(eventType = Updated, transactionId = AB1234, seqNo = N + 1,</text><text fill="#000000" font-family="NanumGothic" font-size="13" lengthAdjust="spacing" textLength="594" x="240.5" y="229.86">timestamp, chargingState = SuspendedEV, triggerReason = EVCommunicationLost, meterValues)</text><polygon fill="#181818" points="239.5,259.8,229.5,263.8,239.5,267.8,235.5,263.8" style="stroke:#181818;stroke-width:1.0;"/><line style="stroke:#181818;stroke-width:1.0;stroke-dasharray:2.0,2.0;" x1="233.5" x2="850.5" y1="263.8" y2="263.8"/><text fill="#000000" font-family="NanumGothic" font-size="13" lengthAdjust="spacing" textLength="171" x="245.5" y="258.81">TransactionEventResponse()</text><path d="M10,278.8 L70,278.8 L70,285.75 L60,295.75 L10,295.75 L10,278.8 " fill="#EEEEEE" style="stroke:#000000;stroke-width:1.5;"/><rect fill="none" height="634.25" style="stroke:#000000;stroke-width:1.5;" width="878" x="10" y="278.8"/><text fill="#000000" font-family="NanumGothic" font-size="13" font-weight="bold" lengthAdjust="spacing" textLength="15" x="25" y="291.76">alt</text><text fill="#000000" font-family="NanumGothic" font-size="11" font-weight="bold" lengthAdjust="spacing" textLength="104" x="85" y="290.92">[&#52992;&#51060;&#48660;&#51060; &#50672;&#44208;&#46108; &#44221;&#50864;]</text><polygon fill="#181818" points="211.5,312.7,221.5,316.7,211.5,320.7,215.5,316.7" style="stroke:#181818;stroke-width:1.0;"/><line style="stroke:#181818;stroke-width:1.0;" x1="52.5" x2="217.5" y1="316.7" y2="316.7"/><text fill="#000000" font-family="NanumGothic" font-size="13" lengthAdjust="spacing" textLength="64" x="59.5" y="311.71">&#52992;&#51060;&#48660; &#50672;&#44208;</text><line style="stroke:#181818;stroke-width:1.0;" x1="233.5" x2="275.5" y1="345.65" y2="345.65"/><line style="stroke:#181818;stroke-width:1.0;" x1="275.5" x2="275.5" y1="345.65" y2="358.65"/><line style="stroke:#181818;stroke-width:1.0;" x1="234.5" x2="275.5" y1="358.65" y2="358.65"/><polygon fill="#181818" points="244.5,354.65,234.5,358.65,244.5,362.65,240.5,358.65" style="stroke:#181818;stroke-width:1.0;"/><text fill="#000000" font-family="NanumGothic" font-size="13" lengthAdjust="spacing" textLength="92" x="240.5" y="340.66">&#50640;&#45320;&#51648; &#51116;&#44277; &#51116;&#44060;</text><polygon fill="#181818" points="834.5,398.55,844.5,402.55,834.5,406.55,838.5,402.55" style="stroke:#181818;stroke-width:1.0;"/><line style="stroke:#181818;stroke-width:1.0;" x1="233.5" x2="840.5" y1="402.55" y2="402.55"/><text fill="#000000" font-family="NanumGothic" font-size="13" lengthAdjust="spacing" textLength="541" x="240.5" y="382.61">TransactionEventRequest(eventType = Updated, transactionId = AB1234, seqNo = N + 2,</text><text fill="#000000" font-family="NanumGothic" font-size="13" lengthAdjust="spacing" textLength="524" x="240.5" y="397.56">timestamp, chargingState = Charging, triggerReason = CablePluggedIn, meterValues)</text><polygon fill="#181818" points="239.5,427.5,229.5,431.5,239.5,435.5,235.5,431.5" style="stroke:#181818;stroke-width:1.0;"/><line style="stroke:#181818;stroke-width:1.0;stroke-dasharray:2.0,2.0;" x1="233.5" x2="850.5" y1="431.5" y2="431.5"/><text fill="#000000" font-family="NanumGothic" font-size="13" lengthAdjust="spacing" textLength="171" x="245.5" y="426.51">TransactionEventResponse()</text><path d="M233,444.5 L233,468.5 L616,468.5 L616,454.5 L606,444.5 L233,444.5 " fill="#7D5393" style="stroke:#000000;stroke-width:0.5;"/><path d="M606,444.5 L606,454.5 L616,454.5 L606,444.5 " fill="#7D5393" style="stroke:#000000;stroke-width:0.5;"/><text fill="#FFFFFF" font-family="NanumGothic" font-size="13" lengthAdjust="spacing" textLength="362" x="239" y="461.46">E02 - Start Transaction - Cable Plugin First &#51032; Ref #1&#47196; &#44228;&#49549;.</text><line style="stroke:#000000;stroke-width:1.0;stroke-dasharray:2.0,2.0;" x1="10" x2="888" y1="475.45" y2="475.45"/><text fill="#000000" font-family="NanumGothic" font-size="11" font-weight="bold" lengthAdjust="spacing" textLength="190" x="15" y="485.57">[&#52992;&#51060;&#48660;&#51060; &#50689;&#44396;&#51201;&#51004;&#47196; &#50672;&#44208;&#46104;&#51648; &#50506;&#51008; &#44221;&#50864;]</text><path d="M25,494.1 L25,518.1 L878,518.1 L878,504.1 L868,494.1 L25,494.1 " fill="#7D5393" style="stroke:#000000;stroke-width:0.5;"/><path d="M868,494.1 L868,504.1 L878,504.1 L868,494.1 " fill="#7D5393" style="stroke:#000000;stroke-width:0.5;"/><text fill="#FFFFFF" font-family="NanumGothic" font-size="13" lengthAdjust="spacing" textLength="92" x="401" y="511.06">&#49324;&#50857;&#51088; &#51064;&#51613; &#49457;&#44277;</text><line style="stroke:#181818;stroke-width:1.0;" x1="228.5" x2="275.5" y1="540" y2="540"/><line style="stroke:#181818;stroke-width:1.0;" x1="275.5" x2="275.5" y1="540" y2="553"/><line style="stroke:#181818;stroke-width:1.0;" x1="234.5" x2="275.5" y1="553" y2="553"/><polygon fill="#181818" points="244.5,549,234.5,553,244.5,557,240.5,553" style="stroke:#181818;stroke-width:1.0;"/><text fill="#000000" font-family="NanumGothic" font-size="13" lengthAdjust="spacing" textLength="92" x="240.5" y="535.01">&#52964;&#45349;&#53552; &#51104;&#44552; &#54644;&#51228;</text><polygon fill="#181818" points="834.5,597.9,844.5,601.9,834.5,605.9,838.5,601.9" style="stroke:#181818;stroke-width:1.0;"/><line style="stroke:#181818;stroke-width:1.0;" x1="233.5" x2="840.5" y1="601.9" y2="601.9"/><text fill="#000000" font-family="NanumGothic" font-size="13" lengthAdjust="spacing" textLength="527" x="240.5" y="581.96">TransactionEventRequest(eventType = Ended, transactionId = AB1234, seqNo = N + 2,</text><text fill="#000000" font-family="NanumGothic" font-size="13" lengthAdjust="spacing" textLength="359" x="240.5" y="596.91">timestamp, triggerReason = StopAuthorized, meterValues)</text><polygon fill="#181818" points="239.5,626.85,229.5,630.85,239.5,634.85,235.5,630.85" style="stroke:#181818;stroke-width:1.0;"/><line style="stroke:#181818;stroke-width:1.0;stroke-dasharray:2.0,2.0;" x1="233.5" x2="850.5" y1="630.85" y2="630.85"/><text fill="#000000" font-family="NanumGothic" font-size="13" lengthAdjust="spacing" textLength="171" x="245.5" y="625.86">TransactionEventResponse()</text><polygon fill="#181818" points="211.5,655.8,221.5,659.8,211.5,663.8,215.5,659.8" style="stroke:#181818;stroke-width:1.0;"/><line style="stroke:#181818;stroke-width:1.0;" x1="52.5" x2="217.5" y1="659.8" y2="659.8"/><text fill="#000000" font-family="NanumGothic" font-size="13" lengthAdjust="spacing" textLength="92" x="59.5" y="654.81">&#52992;&#51060;&#48660; &#50672;&#44208; &#54644;&#51228;</text><polygon fill="#181818" points="834.5,684.75,844.5,688.75,834.5,692.75,838.5,688.75" style="stroke:#181818;stroke-width:1.0;"/><line style="stroke:#181818;stroke-width:1.0;" x1="233.5" x2="840.5" y1="688.75" y2="688.75"/><text fill="#000000" font-family="NanumGothic" font-size="13" lengthAdjust="spacing" textLength="220" x="240.5" y="683.76">StatusNotificationRequest(Available)</text><polygon fill="#181818" points="239.5,713.7,229.5,717.7,239.5,721.7,235.5,717.7" style="stroke:#181818;stroke-width:1.0;"/><line style="stroke:#181818;stroke-width:1.0;stroke-dasharray:2.0,2.0;" x1="233.5" x2="850.5" y1="717.7" y2="717.7"/><text fill="#000000" font-family="NanumGothic" font-size="13" lengthAdjust="spacing" textLength="176" x="245.5" y="712.71">StatusNotificationResponse()</text><line style="stroke:#000000;stroke-width:1.0;stroke-dasharray:2.0,2.0;" x1="10" x2="888" y1="726.7" y2="726.7"/><text fill="#000000" font-family="NanumGothic" font-size="11" font-weight="bold" lengthAdjust="spacing" textLength="157" x="15" y="736.82">[&#52992;&#51060;&#48660;&#51060; &#50689;&#44396;&#51201;&#51004;&#47196; &#44208;&#54633;&#46108; &#44221;&#50864;]</text><line style="stroke:#181818;stroke-width:1.0;" x1="228.5" x2="275.5" y1="756.3" y2="756.3"/><line style="stroke:#181818;stroke-width:1.0;" x1="275.5" x2="275.5" y1="756.3" y2="769.3"/><line style="stroke:#181818;stroke-width:1.0;" x1="234.5" x2="275.5" y1="769.3" y2="769.3"/><polygon fill="#181818" points="244.5,765.3,234.5,769.3,244.5,773.3,240.5,769.3" style="stroke:#181818;stroke-width:1.0;"/><text fill="#000000" font-family="NanumGothic" font-size="13" lengthAdjust="spacing" textLength="48" x="240.5" y="751.31">&#53440;&#51076;&#50500;&#50883;</text><polygon fill="#181818" points="834.5,814.2,844.5,818.2,834.5,822.2,838.5,818.2" style="stroke:#181818;stroke-width:1.0;"/><line style="stroke:#181818;stroke-width:1.0;" x1="233.5" x2="840.5" y1="818.2" y2="818.2"/><text fill="#000000" font-family="NanumGothic" font-size="13" lengthAdjust="spacing" textLength="446" x="240.5" y="798.26">TransactionEventRequest(eventType = Ended, stoppedReason = Timeout,</text><text fill="#000000" font-family="NanumGothic" font-size="13" lengthAdjust="spacing" textLength="400" x="240.5" y="813.21">transactionId = AB1234, seqNo = N + 2,timestamp, meterValues)</text><polygon fill="#181818" points="244.5,843.15,234.5,847.15,244.5,851.15,240.5,847.15" style="stroke:#181818;stroke-width:1.0;"/><line style="stroke:#181818;stroke-width:1.0;stroke-dasharray:2.0,2.0;" x1="238.5" x2="850.5" y1="847.15" y2="847.15"/><text fill="#000000" font-family="NanumGothic" font-size="13" lengthAdjust="spacing" textLength="171" x="250.5" y="842.16">TransactionEventResponse()</text><polygon fill="#181818" points="834.5,872.1,844.5,876.1,834.5,880.1,838.5,876.1" style="stroke:#181818;stroke-width:1.0;"/><line style="stroke:#181818;stroke-width:1.0;" x1="233.5" x2="840.5" y1="876.1" y2="876.1"/><text fill="#000000" font-family="NanumGothic" font-size="13" lengthAdjust="spacing" textLength="220" x="240.5" y="871.11">StatusNotificationRequest(Available)</text><polygon fill="#181818" points="239.5,901.05,229.5,905.05,239.5,909.05,235.5,905.05" style="stroke:#181818;stroke-width:1.0;"/><line style="stroke:#181818;stroke-width:1.0;stroke-dasharray:2.0,2.0;" x1="233.5" x2="850.5" y1="905.05" y2="905.05"/><text fill="#000000" font-family="NanumGothic" font-size="13" lengthAdjust="spacing" textLength="176" x="245.5" y="900.06">StatusNotificationResponse()</text><!--SRC=[pPHTJnD158RlzrSSyGPY8O9UaM22M1CI9OPYhxnPkqEPPBkxxCmsmQiYgr7Kf2OK6cmh9YYGrAJo4Pk8VwWx-nyyi-t2KagXDH9lsix7EUUTypuzDwYHqXsD0EDBEXcnd8okA6gAcpOCn9FmmAPPOW-0oY2UR2uKIxKvJL5BDJWCJ2seTfeQQKXmbLFJ2Aw6cwszjeZ4uqJp5lvG5CFa14pCUr8WrZm1y5VhNgKaAj_5goA87TTVVoksFoh4q416AKeO0SFtsckEWwZjYesyS4iWZdEYVEZLrqJP1R5UzzVUUv-hZPzrlx0htqgpAcfe5wsqRNGkif7tt3TY9mTYgzGuE08KwBtR7MGEir3dKESi-Bnn09YpLOF9-gOHpnA3pv95Xp0-IEHYRiaYC05FBGt5QJ7WfvUdDJoOl3ywTkTk31XPd35nFGEtO3G6yCpWD8DPr8mLWrIakCoMQCeYMZmfCz9qcjYpH6MeQmBxFsLcCev1Ku7IHoRZCSWGJkoaggEmeKYl0kla9mntQilvbp7BD1WP758qSc77eqT10LNdKVCEiTsrndxDovUWiVzRRDOGakuCXC6jIBn_iTy0FJfUgGQEurUjT55uo-f_OFPOJARjQdSewBpNK-fpdJpH7TpKfeqscwDD2dm0wCjgW2vcdpribGc60KfTu63ETmX1ks-FmR0SDZQFbiQzu4aWtqGDU4XjXkoKYp1Bvk7cgFS5aJbmnUiF8vZcP88GdP4smehBZQEgs5eMfMCP519N31mlh8foxfIzBhCBGBoiYiqzKScZZBhuLWRX_a1UekMlYjolRS_zwhirP6shKNy3Vk4GnqqVCFT4OrmEYhvPR2SkmKrhqk4BfarVoBJNG5pJYIuCzZe-_hBnSiDXCoQdywqP6xPzCgjINVBROoiwPUox6PV_6R05Vc7lpFYz2h_-IavKN55mnQULQuAM8MqMqKxecqCmJOU7c5u9wGZCrmJhVmlFfRCRHvho1m00]--></g></svg>