<?xml version="1.0" encoding="us-ascii" standalone="no"?><svg xmlns="http://www.w3.org/2000/svg" xmlns:xlink="http://www.w3.org/1999/xlink" contentStyleType="text/css" height="847px" preserveAspectRatio="none" style="width:899px;height:847px;background:#FFFFFF;" version="1.1" viewBox="0 0 899 847" width="899px" zoomAndPan="magnify"><defs/><g><rect fill="#FFFFFF" height="57.9" style="stroke:#181818;stroke-width:1.0;" width="10" x="100" y="172.95"/><rect fill="#FFFFFF" height="28.95" style="stroke:#181818;stroke-width:1.0;" width="10" x="100" y="333.65"/><rect fill="#FFFFFF" height="57.9" style="stroke:#181818;stroke-width:1.0;" width="10" x="100" y="519.05"/><rect fill="#FFFFFF" height="28.95" style="stroke:#181818;stroke-width:1.0;" width="10" x="100" y="655.8001"/><rect fill="#FFFFFF" height="28.95" style="stroke:#181818;stroke-width:1.0;" width="10" x="100" y="779.6001"/><rect fill="#FFFFFF" height="160.7001" style="stroke:#181818;stroke-width:1.0;" width="10" x="616" y="201.9"/><rect fill="#FFFFFF" height="33.95" style="stroke:#181818;stroke-width:1.0;" width="10" x="616" y="406.5501"/><rect fill="#FFFFFF" height="136.7501" style="stroke:#181818;stroke-width:1.0;" width="10" x="616" y="548"/><rect fill="#FFFFFF" height="86.85" style="stroke:#181818;stroke-width:1.0;" width="10" x="616" y="721.7001"/><rect fill="none" height="723.4502" style="stroke:#000000;stroke-width:1.5;" width="877" x="10" y="100.0999"/><rect fill="none" height="74.85" style="stroke:#000000;stroke-width:1.5;" width="622.5" x="68.5" y="295.75"/><rect fill="none" height="74.85" style="stroke:#000000;stroke-width:1.5;" width="622.5" x="68.5" y="741.7001"/><line style="stroke:#181818;stroke-width:0.5;stroke-dasharray:5.0,5.0;" x1="37" x2="37" y1="83.0999" y2="840.5502"/><line style="stroke:#181818;stroke-width:0.5;stroke-dasharray:5.0,5.0;" x1="104.5" x2="104.5" y1="83.0999" y2="840.5502"/><line style="stroke:#181818;stroke-width:0.5;stroke-dasharray:5.0,5.0;" x1="621" x2="621" y1="83.0999" y2="840.5502"/><text fill="#000000" font-family="NanumGothic" font-size="14" lengthAdjust="spacing" textLength="28" x="20" y="79.8799">CSO</text><ellipse cx="37" cy="14.5" fill="#E2E2F0" rx="8" ry="8" style="stroke:#7D5393;stroke-width:1.5;"/><path d="M37,22.5 L37,49.5 M24,30.5 L50,30.5 M37,49.5 L24,64.5 M37,49.5 L50,64.5 " fill="none" style="stroke:#7D5393;stroke-width:1.5;"/><rect fill="#7D5393" height="30.0999" rx="2.5" ry="2.5" style="stroke:#181818;stroke-width:0.5;" width="53" x="78.5" y="52"/><text fill="#FFFFFF" font-family="NanumGothic" font-size="14" lengthAdjust="spacing" textLength="39" x="85.5" y="71.8799">CSMS</text><rect fill="#7D5393" height="30.0999" rx="2.5" ry="2.5" style="stroke:#181818;stroke-width:0.5;" width="120" x="561" y="52"/><text fill="#FFFFFF" font-family="NanumGothic" font-size="14" lengthAdjust="spacing" textLength="106" x="568" y="71.8799">Charging Station</text><rect fill="#FFFFFF" height="57.9" style="stroke:#181818;stroke-width:1.0;" width="10" x="100" y="172.95"/><rect fill="#FFFFFF" height="28.95" style="stroke:#181818;stroke-width:1.0;" width="10" x="100" y="333.65"/><rect fill="#FFFFFF" height="57.9" style="stroke:#181818;stroke-width:1.0;" width="10" x="100" y="519.05"/><rect fill="#FFFFFF" height="28.95" style="stroke:#181818;stroke-width:1.0;" width="10" x="100" y="655.8001"/><rect fill="#FFFFFF" height="28.95" style="stroke:#181818;stroke-width:1.0;" width="10" x="100" y="779.6001"/><rect fill="#FFFFFF" height="160.7001" style="stroke:#181818;stroke-width:1.0;" width="10" x="616" y="201.9"/><rect fill="#FFFFFF" height="33.95" style="stroke:#181818;stroke-width:1.0;" width="10" x="616" y="406.5501"/><rect fill="#FFFFFF" height="136.7501" style="stroke:#181818;stroke-width:1.0;" width="10" x="616" y="548"/><rect fill="#FFFFFF" height="86.85" style="stroke:#181818;stroke-width:1.0;" width="10" x="616" y="721.7001"/><path d="M10,100.0999 L70,100.0999 L70,107.0499 L60,117.0499 L10,117.0499 L10,100.0999 " fill="#EEEEEE" style="stroke:#000000;stroke-width:1.5;"/><rect fill="none" height="723.4502" style="stroke:#000000;stroke-width:1.5;" width="877" x="10" y="100.0999"/><text fill="#000000" font-family="NanumGothic" font-size="13" font-weight="bold" lengthAdjust="spacing" textLength="15" x="25" y="113.0599">alt</text><text fill="#000000" font-family="NanumGothic" font-size="11" font-weight="bold" lengthAdjust="spacing" textLength="61" x="85" y="112.2199">[&#52649;&#51204;&#44592; &#47532;&#49483;]</text><path d="M349,122.0499 L349,146.0499 L616,146.0499 L616,132.0499 L606,122.0499 L349,122.0499 " fill="#7D5393" style="stroke:#000000;stroke-width:0.5;"/><path d="M606,122.0499 L606,132.0499 L616,132.0499 L606,122.0499 " fill="#7D5393" style="stroke:#000000;stroke-width:0.5;"/><text fill="#FFFFFF" font-family="NanumGothic" font-size="13" lengthAdjust="spacing" textLength="246" x="355" y="139.01">&#54620; &#44060; &#51060;&#49345;&#51032; EVSE&#50640; &#45824;&#54644; &#53944;&#47004;&#51117;&#49496; &#54876;&#49457;&#54868;&#46120;</text><polygon fill="#181818" points="88,168.95,98,172.95,88,176.95,92,172.95" style="stroke:#181818;stroke-width:1.0;"/><line style="stroke:#181818;stroke-width:1.0;" x1="37" x2="94" y1="172.95" y2="172.95"/><text fill="#000000" font-family="NanumGothic" font-size="13" lengthAdjust="spacing" textLength="44" x="44" y="167.96">CS &#47532;&#49483;</text><polygon fill="#181818" points="604,197.9,614,201.9,604,205.9,608,201.9" style="stroke:#181818;stroke-width:1.0;"/><line style="stroke:#181818;stroke-width:1.0;" x1="110" x2="610" y1="201.9" y2="201.9"/><text fill="#000000" font-family="NanumGothic" font-size="13" lengthAdjust="spacing" textLength="156" x="117" y="196.91">ResetRequest(Immediate)</text><polygon fill="#181818" points="116,226.85,106,230.85,116,234.85,112,230.85" style="stroke:#181818;stroke-width:1.0;"/><line style="stroke:#181818;stroke-width:1.0;stroke-dasharray:2.0,2.0;" x1="110" x2="615" y1="230.85" y2="230.85"/><text fill="#000000" font-family="NanumGothic" font-size="13" lengthAdjust="spacing" textLength="157" x="122" y="225.86">ResetResponse(Accepted)</text><path d="M515,243.85 L515,282.85 L726,282.85 L726,253.85 L716,243.85 L515,243.85 " fill="#7D5393" style="stroke:#000000;stroke-width:0.5;"/><path d="M716,243.85 L716,253.85 L726,253.85 L716,243.85 " fill="#7D5393" style="stroke:#000000;stroke-width:0.5;"/><text fill="#FFFFFF" font-family="NanumGothic" font-size="13" lengthAdjust="spacing" textLength="88" x="521" y="260.81">&#47784;&#46304; &#53944;&#47004;&#51117;&#49496;&#51012;</text><text fill="#FFFFFF" font-family="NanumGothic" font-size="13" lengthAdjust="spacing" textLength="190" x="521" y="275.76">TxStopPoint&#44284; &#47924;&#44288;&#54616;&#44172; &#51333;&#47308;&#49884;&#53428;</text><path d="M68.5,295.75 L140.5,295.75 L140.5,302.7 L130.5,312.7 L68.5,312.7 L68.5,295.75 " fill="#EEEEEE" style="stroke:#000000;stroke-width:1.5;"/><rect fill="none" height="74.85" style="stroke:#000000;stroke-width:1.5;" width="622.5" x="68.5" y="295.75"/><text fill="#000000" font-family="NanumGothic" font-size="13" font-weight="bold" lengthAdjust="spacing" textLength="27" x="83.5" y="308.71">loop</text><text fill="#000000" font-family="NanumGothic" font-size="11" font-weight="bold" lengthAdjust="spacing" textLength="137" x="155.5" y="307.8699">[&#51333;&#47308;&#46108; &#47784;&#46304; &#53944;&#47004;&#51117;&#49496;&#50640; &#45824;&#54644;]</text><polygon fill="#181818" points="121,329.65,111,333.65,121,337.65,117,333.65" style="stroke:#181818;stroke-width:1.0;"/><line style="stroke:#181818;stroke-width:1.0;" x1="115" x2="615" y1="333.65" y2="333.65"/><text fill="#000000" font-family="NanumGothic" font-size="13" lengthAdjust="spacing" textLength="487" x="127" y="328.66">TransactionEventRequest(eventType = Ended, stopReason = ImmediateReset,...)</text><polygon fill="#181818" points="609,358.6001,619,362.6001,609,366.6001,613,362.6001" style="stroke:#181818;stroke-width:1.0;"/><line style="stroke:#181818;stroke-width:1.0;stroke-dasharray:2.0,2.0;" x1="105" x2="615" y1="362.6001" y2="362.6001"/><text fill="#000000" font-family="NanumGothic" font-size="13" lengthAdjust="spacing" textLength="183" x="112" y="357.6101">TransactionEventResponse(...)</text><line style="stroke:#181818;stroke-width:1.0;" x1="621" x2="668" y1="393.5501" y2="393.5501"/><line style="stroke:#181818;stroke-width:1.0;" x1="668" x2="668" y1="393.5501" y2="406.5501"/><line style="stroke:#181818;stroke-width:1.0;" x1="627" x2="668" y1="406.5501" y2="406.5501"/><polygon fill="#181818" points="637,402.5501,627,406.5501,637,410.5501,633,406.5501" style="stroke:#181818;stroke-width:1.0;"/><text fill="#000000" font-family="NanumGothic" font-size="13" lengthAdjust="spacing" textLength="76" x="633" y="388.5601">&#52649;&#51204;&#44592; &#51116;&#48512;&#54021;</text><ellipse cx="889.5" cy="439.7501" fill="none" rx="4" ry="4" style="stroke:#181818;stroke-width:1.5;"/><polygon fill="#181818" points="872.5,436.5001,882.5,440.5001,872.5,444.5001,876.5,440.5001" style="stroke:#181818;stroke-width:1.0;"/><line style="stroke:#181818;stroke-width:1.0;" x1="621" x2="878.5" y1="440.5001" y2="440.5001"/><text fill="#000000" font-family="NanumGothic" font-size="13" lengthAdjust="spacing" textLength="245" x="628" y="435.5101">B01 - Cold Boot Charging Station&#47196; &#44228;&#49549;</text><line style="stroke:#000000;stroke-width:1.0;stroke-dasharray:2.0,2.0;" x1="10" x2="887" y1="449.5001" y2="449.5001"/><text fill="#000000" font-family="NanumGothic" font-size="11" font-weight="bold" lengthAdjust="spacing" textLength="56" x="15" y="459.62">[EVSE &#47532;&#49483;]</text><path d="M405,468.15 L405,492.15 L616,492.15 L616,478.15 L606,468.15 L405,468.15 " fill="#7D5393" style="stroke:#000000;stroke-width:0.5;"/><path d="M606,468.15 L606,478.15 L616,478.15 L606,468.15 " fill="#7D5393" style="stroke:#000000;stroke-width:0.5;"/><text fill="#FFFFFF" font-family="NanumGothic" font-size="13" lengthAdjust="spacing" textLength="190" x="411" y="485.11">EVSE&#50640; &#54876;&#49457; &#49345;&#53468;&#51032; &#53944;&#47004;&#51117;&#49496; &#51316;&#51116;</text><polygon fill="#181818" points="88,515.05,98,519.05,88,523.05,92,519.05" style="stroke:#181818;stroke-width:1.0;"/><line style="stroke:#181818;stroke-width:1.0;" x1="37" x2="94" y1="519.05" y2="519.05"/><text fill="#000000" font-family="NanumGothic" font-size="13" lengthAdjust="spacing" textLength="44" x="44" y="514.06">CS &#47532;&#49483;</text><polygon fill="#181818" points="604,544,614,548,604,552,608,548" style="stroke:#181818;stroke-width:1.0;"/><line style="stroke:#181818;stroke-width:1.0;" x1="110" x2="610" y1="548" y2="548"/><text fill="#000000" font-family="NanumGothic" font-size="13" lengthAdjust="spacing" textLength="201" x="117" y="543.01">ResetRequest(Immediate, evseId)</text><polygon fill="#181818" points="116,572.95,106,576.95,116,580.95,112,576.95" style="stroke:#181818;stroke-width:1.0;"/><line style="stroke:#181818;stroke-width:1.0;stroke-dasharray:2.0,2.0;" x1="110" x2="615" y1="576.95" y2="576.95"/><text fill="#000000" font-family="NanumGothic" font-size="13" lengthAdjust="spacing" textLength="163" x="122" y="571.96">ResetResponse(Scheduled)</text><path d="M515,589.95 L515,628.95 L726,628.95 L726,599.95 L716,589.95 L515,589.95 " fill="#7D5393" style="stroke:#000000;stroke-width:0.5;"/><path d="M716,589.95 L716,599.95 L726,599.95 L716,589.95 " fill="#7D5393" style="stroke:#000000;stroke-width:0.5;"/><text fill="#FFFFFF" font-family="NanumGothic" font-size="13" lengthAdjust="spacing" textLength="88" x="521" y="606.9101">&#47784;&#46304; &#53944;&#47004;&#51117;&#49496;&#51012;</text><text fill="#FFFFFF" font-family="NanumGothic" font-size="13" lengthAdjust="spacing" textLength="190" x="521" y="621.8601">TxStopPoint&#44284; &#47924;&#44288;&#54616;&#44172; &#51333;&#47308;&#49884;&#53428;</text><polygon fill="#181818" points="121,651.8001,111,655.8001,121,659.8001,117,655.8001" style="stroke:#181818;stroke-width:1.0;"/><line style="stroke:#181818;stroke-width:1.0;" x1="115" x2="615" y1="655.8001" y2="655.8001"/><text fill="#000000" font-family="NanumGothic" font-size="13" lengthAdjust="spacing" textLength="487" x="127" y="650.8101">TransactionEventRequest(eventType = Ended, stopReason = ImmediateReset,...)</text><polygon fill="#181818" points="609,680.7501,619,684.7501,609,688.7501,613,684.7501" style="stroke:#181818;stroke-width:1.0;"/><line style="stroke:#181818;stroke-width:1.0;stroke-dasharray:2.0,2.0;" x1="105" x2="615" y1="684.7501" y2="684.7501"/><text fill="#000000" font-family="NanumGothic" font-size="13" lengthAdjust="spacing" textLength="183" x="112" y="679.7601">TransactionEventResponse(...)</text><line style="stroke:#181818;stroke-width:1.0;" x1="621" x2="668" y1="708.7001" y2="708.7001"/><line style="stroke:#181818;stroke-width:1.0;" x1="668" x2="668" y1="708.7001" y2="721.7001"/><line style="stroke:#181818;stroke-width:1.0;" x1="627" x2="668" y1="721.7001" y2="721.7001"/><polygon fill="#181818" points="637,717.7001,627,721.7001,637,725.7001,633,721.7001" style="stroke:#181818;stroke-width:1.0;"/><text fill="#000000" font-family="NanumGothic" font-size="13" lengthAdjust="spacing" textLength="58" x="633" y="703.7101">EVSE &#47532;&#49483;</text><path d="M68.5,741.7001 L140.5,741.7001 L140.5,748.6501 L130.5,758.6501 L68.5,758.6501 L68.5,741.7001 " fill="#EEEEEE" style="stroke:#000000;stroke-width:1.5;"/><rect fill="none" height="74.85" style="stroke:#000000;stroke-width:1.5;" width="622.5" x="68.5" y="741.7001"/><text fill="#000000" font-family="NanumGothic" font-size="13" font-weight="bold" lengthAdjust="spacing" textLength="27" x="83.5" y="754.6601">loop</text><text fill="#000000" font-family="NanumGothic" font-size="11" font-weight="bold" lengthAdjust="spacing" textLength="132" x="155.5" y="753.82">[EVSE&#51032; &#47784;&#46304; &#52964;&#45349;&#53552;&#50640; &#45824;&#54644;]</text><polygon fill="#181818" points="121,775.6001,111,779.6001,121,783.6001,117,779.6001" style="stroke:#181818;stroke-width:1.0;"/><line style="stroke:#181818;stroke-width:1.0;" x1="115" x2="615" y1="779.6001" y2="779.6001"/><text fill="#000000" font-family="NanumGothic" font-size="13" lengthAdjust="spacing" textLength="345" x="127" y="774.6101">StatusNotificationRequest(Available, evseId, connectorId)</text><polygon fill="#181818" points="609,804.5502,619,808.5502,609,812.5502,613,808.5502" style="stroke:#181818;stroke-width:1.0;"/><line style="stroke:#181818;stroke-width:1.0;stroke-dasharray:2.0,2.0;" x1="105" x2="615" y1="808.5502" y2="808.5502"/><text fill="#000000" font-family="NanumGothic" font-size="13" lengthAdjust="spacing" textLength="176" x="112" y="803.5601">StatusNotificationResponse()</text><!--SRC=[pLLBQzj04BxhLqnpIi0sxTMGG19yoC5jiKnlFQZIE178kwgrDiqjRUGU6XS2RQW3iadw8Yqkk8q8WVONMQl_qDLQTc99TX-qfGRPQ6Pt7jzyt_Y6INIhQI0uRDV2WjsiMugYwOmsO6bJlRC4cWFYLx6r1ZDrqzO8YnnbDVQKrOHhHsjicsGRLAOnavBniTWOsqG2Ym6_-C1FtD7b48Bt0zu-K1G0GXc2XJK6j9Qw1U8J7dam6dh0UpxVVynxNIZTKqlyrI44dRtmo8VmsMNGztZ_4szt8JpskFivF7uP79w9wqWCcI7A97g2_9fie2Y-9pK0YDxDbYRAaBt9asLL7fqjfmWLT91Ly64J7RQyLQ-ZOOfxApCnaer3qWJvQHLnFCUcnC7bTLr7cw4HnJCmLPL4YhQmaGbJyF4iU74o0mRlkT9LVQGoQj-b9c6ZysyG3FoHBv3hZhvqWBzk1syw_C0Bd_W9l2nAxTWV77gP2QP3a7aoEfqqMcren8awegJKGZB54AENwgwDi0ebOg2H4woaTWKrHrnVXId64gbSeL1OYLEbu97vvU2o9fSk80RzMiWavcbh2dU1L-Q4Cogu8Z_l3uABlR3J_bNUhD7xHTYuUGloi4aj0pOePP2KNt0gz7BkygVFbON5e-MWbDAL47wenOdonYe3eSTmtuiaEQD1VkgB5g-n2Vwg_7A0BGUtZ3ybGrNVGQDf_JSw_4UYcZE6tn5JMaWBUFYJyfbbwg9eScz9fWfYnkFWNzy6xhlG7IPMrbni8qFJkKsPMJDrwPkWkzxIJ4jxO4rvbmET4eBH7-YOX9dBQJwQMQbYFCVH5cwWBBIZhIIUxm00]--></g></svg>