<?xml version="1.0" encoding="us-ascii" standalone="no"?><svg xmlns="http://www.w3.org/2000/svg" xmlns:xlink="http://www.w3.org/1999/xlink" contentStyleType="text/css" height="306px" preserveAspectRatio="none" style="width:654px;height:306px;background:#FFFFFF;" version="1.1" viewBox="0 0 654 306" width="654px" zoomAndPan="magnify"><defs/><g><rect fill="#FFFFFF" height="28.95" style="stroke:#181818;stroke-width:1.0;" width="10" x="85" y="67.05"/><rect fill="#FFFFFF" height="28.95" style="stroke:#181818;stroke-width:1.0;" width="10" x="85" y="238.75"/><rect fill="#FFFFFF" height="28.95" style="stroke:#181818;stroke-width:1.0;" width="10" x="583" y="67.05"/><rect fill="#FFFFFF" height="28.95" style="stroke:#181818;stroke-width:1.0;" width="10" x="583" y="238.75"/><rect fill="none" height="171.7" style="stroke:#000000;stroke-width:1.5;" width="638.5" x="10" y="111"/><rect fill="none" height="51.9" style="stroke:#000000;stroke-width:1.5;" width="599.5" x="39" y="134.95"/><rect fill="none" height="74.85" style="stroke:#000000;stroke-width:1.5;" width="604.5" x="20" y="200.85"/><line style="stroke:#181818;stroke-width:0.5;stroke-dasharray:5.0,5.0;" x1="90" x2="90" y1="36.1" y2="299.7"/><line style="stroke:#181818;stroke-width:0.5;stroke-dasharray:5.0,5.0;" x1="587.5" x2="587.5" y1="36.1" y2="299.7"/><rect fill="#7D5393" height="30.1" rx="2.5" ry="2.5" style="stroke:#181818;stroke-width:0.5;" width="120" x="30" y="5"/><text fill="#FFFFFF" font-family="NanumGothic" font-size="14" lengthAdjust="spacing" textLength="106" x="37" y="24.88">Charging Station</text><rect fill="#7D5393" height="30.1" rx="2.5" ry="2.5" style="stroke:#181818;stroke-width:0.5;" width="53" x="561.5" y="5"/><text fill="#FFFFFF" font-family="NanumGothic" font-size="14" lengthAdjust="spacing" textLength="39" x="568.5" y="24.88">CSMS</text><rect fill="#FFFFFF" height="28.95" style="stroke:#181818;stroke-width:1.0;" width="10" x="85" y="67.05"/><rect fill="#FFFFFF" height="28.95" style="stroke:#181818;stroke-width:1.0;" width="10" x="85" y="238.75"/><rect fill="#FFFFFF" height="28.95" style="stroke:#181818;stroke-width:1.0;" width="10" x="583" y="67.05"/><rect fill="#FFFFFF" height="28.95" style="stroke:#181818;stroke-width:1.0;" width="10" x="583" y="238.75"/><polygon fill="#181818" points="106,63.05,96,67.05,106,71.05,102,67.05" style="stroke:#181818;stroke-width:1.0;"/><line style="stroke:#181818;stroke-width:1.0;" x1="100" x2="582" y1="67.05" y2="67.05"/><text fill="#000000" font-family="NanumGothic" font-size="13" lengthAdjust="spacing" textLength="248" x="112" y="62.06">ChangeAvailabilityRequest(EVSE.id, type)</text><polygon fill="#181818" points="576,92,586,96,576,100,580,96" style="stroke:#181818;stroke-width:1.0;"/><line style="stroke:#181818;stroke-width:1.0;stroke-dasharray:2.0,2.0;" x1="90" x2="582" y1="96" y2="96"/><text fill="#000000" font-family="NanumGothic" font-size="13" lengthAdjust="spacing" textLength="215" x="97" y="91.01">ChangeAvailabilityResponse(status)</text><path d="M10,111 L70,111 L70,117.95 L60,127.95 L10,127.95 L10,111 " fill="#EEEEEE" style="stroke:#000000;stroke-width:1.5;"/><rect fill="none" height="171.7" style="stroke:#000000;stroke-width:1.5;" width="638.5" x="10" y="111"/><text fill="#000000" font-family="NanumGothic" font-size="13" font-weight="bold" lengthAdjust="spacing" textLength="15" x="25" y="123.96">alt</text><text fill="#000000" font-family="NanumGothic" font-size="11" font-weight="bold" lengthAdjust="spacing" textLength="104" x="85" y="123.12">[&#44032;&#50857;&#49457;&#51060; &#48320;&#44221;&#46108; &#44221;&#50864;]</text><path d="M39,134.95 L99,134.95 L99,141.9 L89,151.9 L39,151.9 L39,134.95 " fill="#EEEEEE" style="stroke:#000000;stroke-width:1.5;"/><rect fill="none" height="51.9" style="stroke:#000000;stroke-width:1.5;" width="599.5" x="39" y="134.95"/><text fill="#000000" font-family="NanumGothic" font-size="13" font-weight="bold" lengthAdjust="spacing" textLength="15" x="54" y="147.91">alt</text><text fill="#000000" font-family="NanumGothic" font-size="11" font-weight="bold" lengthAdjust="spacing" textLength="124" x="114" y="147.07">[&#53944;&#47004;&#51117;&#49496;&#51060; &#51652;&#54665;&#51473;&#51064; &#44221;&#50864;]</text><path d="M49,156.9 L49,180.9 L628,180.9 L628,166.9 L618,156.9 L49,156.9 " fill="#7D5393" style="stroke:#000000;stroke-width:0.5;"/><path d="M618,156.9 L618,166.9 L628,166.9 L618,156.9 " fill="#7D5393" style="stroke:#000000;stroke-width:0.5;"/><text fill="#FFFFFF" font-family="NanumGothic" font-size="13" lengthAdjust="spacing" textLength="282" x="193.25" y="173.86">EVSE&#50640;&#49436; &#51652;&#54665;&#51473;&#51064; &#53944;&#47004;&#51117;&#49496;&#51060; &#51333;&#47308;&#46112; &#46412; &#44620;&#51648; &#45824;&#44592;</text><path d="M20,200.85 L92,200.85 L92,207.8 L82,217.8 L20,217.8 L20,200.85 " fill="#EEEEEE" style="stroke:#000000;stroke-width:1.5;"/><rect fill="none" height="74.85" style="stroke:#000000;stroke-width:1.5;" width="604.5" x="20" y="200.85"/><text fill="#000000" font-family="NanumGothic" font-size="13" font-weight="bold" lengthAdjust="spacing" textLength="27" x="35" y="213.81">loop</text><text fill="#000000" font-family="NanumGothic" font-size="11" font-weight="bold" lengthAdjust="spacing" textLength="165" x="107" y="212.97">[&#47749;&#49884;&#46108; EVSE&#51032; &#47784;&#46304; &#52964;&#45349;&#53552;&#50640; &#45824;&#54644;]</text><polygon fill="#181818" points="571,234.75,581,238.75,571,242.75,575,238.75" style="stroke:#181818;stroke-width:1.0;"/><line style="stroke:#181818;stroke-width:1.0;" x1="95" x2="577" y1="238.75" y2="238.75"/><text fill="#000000" font-family="NanumGothic" font-size="13" lengthAdjust="spacing" textLength="474" x="102" y="233.76">StatusNotificationRequest(evseId, connectorId, connectorStatus, [timestamp])</text><polygon fill="#181818" points="101,263.7,91,267.7,101,271.7,97,267.7" style="stroke:#181818;stroke-width:1.0;"/><line style="stroke:#181818;stroke-width:1.0;stroke-dasharray:2.0,2.0;" x1="95" x2="587" y1="267.7" y2="267.7"/><text fill="#000000" font-family="NanumGothic" font-size="13" lengthAdjust="spacing" textLength="176" x="107" y="262.71">StatusNotificationResponse()</text><!--SRC=[VP9FIm915C3lyobUdXJC3z0XYF3GeGujT8aEqphPm3gpkQFWpSDwg3mOOOceI1bM4DYVWn5z8MVy3itC9kLgBUpElB-_j- -z5SfShvGZ48YAHp9-gU0XvEEYe2xrCHEGs3p6nJnbUN045fIp1E00PiflNIp2sNOYBtr1o7nXTJqUisOKB4ysofXw-91wL5HsoKc912APtNEo6PfBWwZu98MmAsWP2n8b_95YHQ2O0bODLOSiHmK-Pm591jgv5AHGZinZVijn4FO4J4PLrNvGuRFgle5yhKvUFcMZ0_fGxH42C3xJix7iTLJlITLQnaqDm-dLgHfSgExunnE0SKtXPLACez9HBM0VqnLrtL1XPpxH0kMc9c_hij47sQp3vBskXbMGzUfa7D48oraYibUa3uzp7-HZJPrtp3zOKBUbDVVoiW_gOo33ksauqd2JPzfyitaMsZthjcDRkiC5FQAkjSq6Iye1sT9pTJbZn1MyE2T4SMdO5xIWlN71FqXPqf-Jc3VQTRELsPLRjdFBIljUX0ZrpzZZvcWofeNc_G80]--></g></svg>