<?xml version="1.0" encoding="us-ascii" standalone="no"?><svg xmlns="http://www.w3.org/2000/svg" xmlns:xlink="http://www.w3.org/1999/xlink" contentStyleType="text/css" height="1592px" preserveAspectRatio="none" style="width:947px;height:1592px;background:#FFFFFF;" version="1.1" viewBox="0 0 947 1592" width="947px" zoomAndPan="magnify"><defs/><g><rect fill="#FFFFFF" height="86.85" style="stroke:#181818;stroke-width:1.0;" width="10" x="40.5" y="175.85"/><rect fill="#FFFFFF" height="101.8" style="stroke:#181818;stroke-width:1.0;" width="10" x="40.5" y="315.6"/><rect fill="#FFFFFF" height="144.75" style="stroke:#181818;stroke-width:1.0;" width="10" x="40.5" y="453.35"/><rect fill="#FFFFFF" height="144.75" style="stroke:#181818;stroke-width:1.0;" width="10" x="40.5" y="730.85"/><rect fill="#FFFFFF" height="70.9" style="stroke:#181818;stroke-width:1.0;" width="10" x="40.5" y="904.55"/><rect fill="#FFFFFF" height="70.9" style="stroke:#181818;stroke-width:1.0;" width="10" x="40.5" y="1250.95"/><rect fill="#FFFFFF" height="28.95" style="stroke:#181818;stroke-width:1.0;" width="10" x="40.5" y="1350.8"/><rect fill="#FFFFFF" height="28.95" style="stroke:#181818;stroke-width:1.0;" width="10" x="381.5" y="175.85"/><rect fill="#FFFFFF" height="28.95" style="stroke:#181818;stroke-width:1.0;" width="10" x="381.5" y="233.75"/><rect fill="#FFFFFF" height="101.8" style="stroke:#181818;stroke-width:1.0;" width="10" x="381.5" y="315.6"/><rect fill="#FFFFFF" height="86.85" style="stroke:#181818;stroke-width:1.0;" width="10" x="381.5" y="453.35"/><rect fill="#FFFFFF" height="101.8" style="stroke:#181818;stroke-width:1.0;" width="10" x="381.5" y="569.15"/><rect fill="#FFFFFF" height="144.75" style="stroke:#181818;stroke-width:1.0;" width="10" x="381.5" y="730.85"/><rect fill="#FFFFFF" height="70.9" style="stroke:#181818;stroke-width:1.0;" width="10" x="381.5" y="904.55"/><rect fill="#FFFFFF" height="101.8" style="stroke:#181818;stroke-width:1.0;" width="10" x="381.5" y="1019.35"/><rect fill="#FFFFFF" height="70.9" style="stroke:#181818;stroke-width:1.0;" width="10" x="381.5" y="1250.95"/><rect fill="#FFFFFF" height="28.95" style="stroke:#181818;stroke-width:1.0;" width="10" x="381.5" y="1350.8"/><rect fill="#FFFFFF" height="28.95" style="stroke:#181818;stroke-width:1.0;" width="10" x="381.5" y="1423.65"/><rect fill="#FFFFFF" height="28.95" style="stroke:#181818;stroke-width:1.0;" width="10" x="381.5" y="1538.45"/><rect fill="#FFFFFF" height="28.95" style="stroke:#181818;stroke-width:1.0;" width="10" x="889.5" y="359.5"/><rect fill="#FFFFFF" height="28.95" style="stroke:#181818;stroke-width:1.0;" width="10" x="889.5" y="482.3"/><rect fill="#FFFFFF" height="28.95" style="stroke:#181818;stroke-width:1.0;" width="10" x="889.5" y="642"/><rect fill="#FFFFFF" height="28.95" style="stroke:#181818;stroke-width:1.0;" width="10" x="889.5" y="759.8"/><rect fill="#FFFFFF" height="28.95" style="stroke:#181818;stroke-width:1.0;" width="10" x="889.5" y="817.7"/><rect fill="#FFFFFF" height="28.95" style="stroke:#181818;stroke-width:1.0;" width="10" x="889.5" y="1019.35"/><rect fill="#FFFFFF" height="28.95" style="stroke:#181818;stroke-width:1.0;" width="10" x="889.5" y="1092.2"/><rect fill="#FFFFFF" height="28.95" style="stroke:#181818;stroke-width:1.0;" width="10" x="889.5" y="1423.65"/><rect fill="#FFFFFF" height="28.95" style="stroke:#181818;stroke-width:1.0;" width="10" x="889.5" y="1538.45"/><rect fill="none" height="541" style="stroke:#000000;stroke-width:1.5;" width="931" x="10" y="137.95"/><rect fill="none" height="147.7" style="stroke:#000000;stroke-width:1.5;" width="911" x="20" y="277.7"/><rect fill="none" height="436.2" style="stroke:#000000;stroke-width:1.5;" width="911" x="20" y="692.95"/><rect fill="none" height="247.55" style="stroke:#000000;stroke-width:1.5;" width="911" x="20" y="1213.05"/><line style="stroke:#181818;stroke-width:0.5;stroke-dasharray:5.0,5.0;" x1="45" x2="45" y1="36.1" y2="1585.4"/><line style="stroke:#181818;stroke-width:0.5;stroke-dasharray:5.0,5.0;" x1="386.5" x2="386.5" y1="36.1" y2="1585.4"/><line style="stroke:#181818;stroke-width:0.5;stroke-dasharray:5.0,5.0;" x1="894" x2="894" y1="36.1" y2="1585.4"/><rect fill="#7D5393" height="30.1" rx="2.5" ry="2.5" style="stroke:#181818;stroke-width:0.5;" width="31" x="30" y="5"/><text fill="#FFFFFF" font-family="NanumGothic" font-size="14" lengthAdjust="spacing" textLength="17" x="37" y="24.88">EV</text><rect fill="#7D5393" height="30.1" rx="2.5" ry="2.5" style="stroke:#181818;stroke-width:0.5;" width="120" x="326.5" y="5"/><text fill="#FFFFFF" font-family="NanumGothic" font-size="14" lengthAdjust="spacing" textLength="106" x="333.5" y="24.88">Charging Station</text><rect fill="#7D5393" height="30.1" rx="2.5" ry="2.5" style="stroke:#181818;stroke-width:0.5;" width="53" x="868" y="5"/><text fill="#FFFFFF" font-family="NanumGothic" font-size="14" lengthAdjust="spacing" textLength="39" x="875" y="24.88">CSMS</text><rect fill="#FFFFFF" height="86.85" style="stroke:#181818;stroke-width:1.0;" width="10" x="40.5" y="175.85"/><rect fill="#FFFFFF" height="101.8" style="stroke:#181818;stroke-width:1.0;" width="10" x="40.5" y="315.6"/><rect fill="#FFFFFF" height="144.75" style="stroke:#181818;stroke-width:1.0;" width="10" x="40.5" y="453.35"/><rect fill="#FFFFFF" height="144.75" style="stroke:#181818;stroke-width:1.0;" width="10" x="40.5" y="730.85"/><rect fill="#FFFFFF" height="70.9" style="stroke:#181818;stroke-width:1.0;" width="10" x="40.5" y="904.55"/><rect fill="#FFFFFF" height="70.9" style="stroke:#181818;stroke-width:1.0;" width="10" x="40.5" y="1250.95"/><rect fill="#FFFFFF" height="28.95" style="stroke:#181818;stroke-width:1.0;" width="10" x="40.5" y="1350.8"/><rect fill="#FFFFFF" height="28.95" style="stroke:#181818;stroke-width:1.0;" width="10" x="381.5" y="175.85"/><rect fill="#FFFFFF" height="28.95" style="stroke:#181818;stroke-width:1.0;" width="10" x="381.5" y="233.75"/><rect fill="#FFFFFF" height="101.8" style="stroke:#181818;stroke-width:1.0;" width="10" x="381.5" y="315.6"/><rect fill="#FFFFFF" height="86.85" style="stroke:#181818;stroke-width:1.0;" width="10" x="381.5" y="453.35"/><rect fill="#FFFFFF" height="101.8" style="stroke:#181818;stroke-width:1.0;" width="10" x="381.5" y="569.15"/><rect fill="#FFFFFF" height="144.75" style="stroke:#181818;stroke-width:1.0;" width="10" x="381.5" y="730.85"/><rect fill="#FFFFFF" height="70.9" style="stroke:#181818;stroke-width:1.0;" width="10" x="381.5" y="904.55"/><rect fill="#FFFFFF" height="101.8" style="stroke:#181818;stroke-width:1.0;" width="10" x="381.5" y="1019.35"/><rect fill="#FFFFFF" height="70.9" style="stroke:#181818;stroke-width:1.0;" width="10" x="381.5" y="1250.95"/><rect fill="#FFFFFF" height="28.95" style="stroke:#181818;stroke-width:1.0;" width="10" x="381.5" y="1350.8"/><rect fill="#FFFFFF" height="28.95" style="stroke:#181818;stroke-width:1.0;" width="10" x="381.5" y="1423.65"/><rect fill="#FFFFFF" height="28.95" style="stroke:#181818;stroke-width:1.0;" width="10" x="381.5" y="1538.45"/><rect fill="#FFFFFF" height="28.95" style="stroke:#181818;stroke-width:1.0;" width="10" x="889.5" y="359.5"/><rect fill="#FFFFFF" height="28.95" style="stroke:#181818;stroke-width:1.0;" width="10" x="889.5" y="482.3"/><rect fill="#FFFFFF" height="28.95" style="stroke:#181818;stroke-width:1.0;" width="10" x="889.5" y="642"/><rect fill="#FFFFFF" height="28.95" style="stroke:#181818;stroke-width:1.0;" width="10" x="889.5" y="759.8"/><rect fill="#FFFFFF" height="28.95" style="stroke:#181818;stroke-width:1.0;" width="10" x="889.5" y="817.7"/><rect fill="#FFFFFF" height="28.95" style="stroke:#181818;stroke-width:1.0;" width="10" x="889.5" y="1019.35"/><rect fill="#FFFFFF" height="28.95" style="stroke:#181818;stroke-width:1.0;" width="10" x="889.5" y="1092.2"/><rect fill="#FFFFFF" height="28.95" style="stroke:#181818;stroke-width:1.0;" width="10" x="889.5" y="1423.65"/><rect fill="#FFFFFF" height="28.95" style="stroke:#181818;stroke-width:1.0;" width="10" x="889.5" y="1538.45"/><path d="M206,51.1 L206,90.1 L567,90.1 L567,61.1 L557,51.1 L206,51.1 " fill="#7D5393" style="stroke:#000000;stroke-width:0.5;"/><path d="M557,51.1 L557,61.1 L567,61.1 L557,51.1 " fill="#7D5393" style="stroke:#000000;stroke-width:0.5;"/><text fill="#FFFFFF" font-family="NanumGothic" font-size="13" lengthAdjust="spacing" textLength="190" x="212" y="68.06">&#54540;&#47084;&#44536;-&#50532;-&#52264;&#51648; &#51060;&#50857;&#54616;&#50668; &#52649;&#51204; &#49884;&#51089;</text><text fill="#FFFFFF" font-family="NanumGothic" font-size="13" lengthAdjust="spacing" textLength="340" x="212" y="83.01">TxStartPoint = Authorized, TxStopPoint = EVConnected</text><path d="M50,101 L50,125 L199,125 L199,111 L189,101 L50,101 " fill="#7D5393" style="stroke:#000000;stroke-width:0.5;"/><path d="M189,101 L189,111 L199,111 L189,101 " fill="#7D5393" style="stroke:#000000;stroke-width:0.5;"/><text fill="#FFFFFF" font-family="NanumGothic" font-size="13" lengthAdjust="spacing" textLength="128" x="56" y="117.96">&#49324;&#50857;&#51088;&#44032; &#52992;&#51060;&#48660; &#50672;&#44208;&#54632;</text><path d="M10,137.95 L276,137.95 L276,144.9 L266,154.9 L10,154.9 L10,137.95 " fill="#EEEEEE" style="stroke:#000000;stroke-width:1.5;"/><rect fill="none" height="541" style="stroke:#000000;stroke-width:1.5;" width="931" x="10" y="137.95"/><text fill="#000000" font-family="NanumGothic" font-size="13" font-weight="bold" lengthAdjust="spacing" textLength="221" x="25" y="150.91">15118 Identification, Authentication</text><polygon fill="#181818" points="369.5,171.85,379.5,175.85,369.5,179.85,373.5,175.85" style="stroke:#181818;stroke-width:1.0;"/><line style="stroke:#181818;stroke-width:1.0;" x1="50.5" x2="375.5" y1="175.85" y2="175.85"/><text fill="#000000" font-family="NanumGothic" font-size="13" lengthAdjust="spacing" textLength="130" x="57.5" y="170.86">ServiceDiscoveryReq()</text><polygon fill="#181818" points="61.5,200.8,51.5,204.8,61.5,208.8,57.5,204.8" style="stroke:#181818;stroke-width:1.0;"/><line style="stroke:#181818;stroke-width:1.0;stroke-dasharray:2.0,2.0;" x1="55.5" x2="385.5" y1="204.8" y2="204.8"/><text fill="#000000" font-family="NanumGothic" font-size="13" lengthAdjust="spacing" textLength="128" x="67.5" y="199.81">ServiceDiscoveryRes()</text><polygon fill="#181818" points="369.5,229.75,379.5,233.75,369.5,237.75,373.5,233.75" style="stroke:#181818;stroke-width:1.0;"/><line style="stroke:#181818;stroke-width:1.0;" x1="50.5" x2="375.5" y1="233.75" y2="233.75"/><text fill="#000000" font-family="NanumGothic" font-size="13" lengthAdjust="spacing" textLength="181" x="57.5" y="228.76">PaymentServiceSelectionReq()</text><polygon fill="#181818" points="56.5,258.7,46.5,262.7,56.5,266.7,52.5,262.7" style="stroke:#181818;stroke-width:1.0;"/><line style="stroke:#181818;stroke-width:1.0;stroke-dasharray:2.0,2.0;" x1="50.5" x2="385.5" y1="262.7" y2="262.7"/><text fill="#000000" font-family="NanumGothic" font-size="13" lengthAdjust="spacing" textLength="179" x="62.5" y="257.71">PaymentServiceSelectionRes()</text><path d="M20,277.7 L86,277.7 L86,284.65 L76,294.65 L20,294.65 L20,277.7 " fill="#EEEEEE" style="stroke:#000000;stroke-width:1.5;"/><rect fill="none" height="147.7" style="stroke:#000000;stroke-width:1.5;" width="911" x="20" y="277.7"/><text fill="#000000" font-family="NanumGothic" font-size="13" font-weight="bold" lengthAdjust="spacing" textLength="21" x="35" y="290.66">opt</text><text fill="#000000" font-family="NanumGothic" font-size="11" font-weight="bold" lengthAdjust="spacing" textLength="214" x="101" y="289.82">[15118 Certificate Installation or Update]</text><polygon fill="#181818" points="369.5,311.6,379.5,315.6,369.5,319.6,373.5,315.6" style="stroke:#181818;stroke-width:1.0;"/><line style="stroke:#181818;stroke-width:1.0;" x1="50.5" x2="375.5" y1="315.6" y2="315.6"/><text fill="#000000" font-family="NanumGothic" font-size="13" lengthAdjust="spacing" textLength="139" x="57.5" y="310.61">CertificateUpdateReq()</text><polygon fill="#181818" points="877.5,355.5,887.5,359.5,877.5,363.5,881.5,359.5" style="stroke:#181818;stroke-width:1.0;"/><line style="stroke:#181818;stroke-width:1.0;" x1="391.5" x2="883.5" y1="359.5" y2="359.5"/><text fill="#000000" font-family="NanumGothic" font-size="13" lengthAdjust="spacing" textLength="422" x="398.5" y="339.56">Get15118EVCertificateRequest(15118SchemaVersion, install/update,</text><text fill="#000000" font-family="NanumGothic" font-size="13" lengthAdjust="spacing" textLength="71" x="422.5" y="354.51">exiRequest)</text><polygon fill="#181818" points="402.5,384.45,392.5,388.45,402.5,392.45,398.5,388.45" style="stroke:#181818;stroke-width:1.0;"/><line style="stroke:#181818;stroke-width:1.0;stroke-dasharray:2.0,2.0;" x1="396.5" x2="893.5" y1="388.45" y2="388.45"/><text fill="#000000" font-family="NanumGothic" font-size="13" lengthAdjust="spacing" textLength="328" x="408.5" y="383.46">Get15118EVCertificateResponse(status, exiResponse)</text><polygon fill="#181818" points="56.5,413.4,46.5,417.4,56.5,421.4,52.5,417.4" style="stroke:#181818;stroke-width:1.0;"/><line style="stroke:#181818;stroke-width:1.0;stroke-dasharray:2.0,2.0;" x1="50.5" x2="385.5" y1="417.4" y2="417.4"/><text fill="#000000" font-family="NanumGothic" font-size="13" lengthAdjust="spacing" textLength="137" x="62.5" y="412.41">CertificateUpdateRes()</text><polygon fill="#181818" points="369.5,449.35,379.5,453.35,369.5,457.35,373.5,453.35" style="stroke:#181818;stroke-width:1.0;"/><line style="stroke:#181818;stroke-width:1.0;" x1="50.5" x2="375.5" y1="453.35" y2="453.35"/><text fill="#000000" font-family="NanumGothic" font-size="13" lengthAdjust="spacing" textLength="126" x="57.5" y="448.36">PaymentDetailsReq()</text><polygon fill="#181818" points="877.5,478.3,887.5,482.3,877.5,486.3,881.5,482.3" style="stroke:#181818;stroke-width:1.0;"/><line style="stroke:#181818;stroke-width:1.0;" x1="391.5" x2="883.5" y1="482.3" y2="482.3"/><text fill="#000000" font-family="NanumGothic" font-size="13" lengthAdjust="spacing" textLength="351" x="398.5" y="477.31">AuthorizeRequest(idToken, iso15118CertificateHashData)</text><polygon fill="#181818" points="402.5,507.25,392.5,511.25,402.5,515.25,398.5,511.25" style="stroke:#181818;stroke-width:1.0;"/><line style="stroke:#181818;stroke-width:1.0;stroke-dasharray:2.0,2.0;" x1="396.5" x2="893.5" y1="511.25" y2="511.25"/><text fill="#000000" font-family="NanumGothic" font-size="13" lengthAdjust="spacing" textLength="304" x="408.5" y="506.26">AuthorizeResponse(idTokenInfo, certificateStatus)</text><polygon fill="#181818" points="61.5,536.2,51.5,540.2,61.5,544.2,57.5,540.2" style="stroke:#181818;stroke-width:1.0;"/><line style="stroke:#181818;stroke-width:1.0;stroke-dasharray:2.0,2.0;" x1="55.5" x2="385.5" y1="540.2" y2="540.2"/><text fill="#000000" font-family="NanumGothic" font-size="13" lengthAdjust="spacing" textLength="124" x="67.5" y="535.21">PaymentDetailsRes()</text><polygon fill="#181818" points="369.5,565.15,379.5,569.15,369.5,573.15,373.5,569.15" style="stroke:#181818;stroke-width:1.0;"/><line style="stroke:#181818;stroke-width:1.0;" x1="50.5" x2="375.5" y1="569.15" y2="569.15"/><text fill="#000000" font-family="NanumGothic" font-size="13" lengthAdjust="spacing" textLength="116" x="57.5" y="564.16">AuthorizationReq()</text><polygon fill="#181818" points="56.5,594.1,46.5,598.1,56.5,602.1,52.5,598.1" style="stroke:#181818;stroke-width:1.0;"/><line style="stroke:#181818;stroke-width:1.0;stroke-dasharray:2.0,2.0;" x1="50.5" x2="380.5" y1="598.1" y2="598.1"/><text fill="#000000" font-family="NanumGothic" font-size="13" lengthAdjust="spacing" textLength="307" x="62.5" y="593.11">AuthorizationRes(EVSEProcessing, ResponseCode)</text><polygon fill="#181818" points="877.5,638,887.5,642,877.5,646,881.5,642" style="stroke:#181818;stroke-width:1.0;"/><line style="stroke:#181818;stroke-width:1.0;" x1="391.5" x2="883.5" y1="642" y2="642"/><text fill="#000000" font-family="NanumGothic" font-size="13" lengthAdjust="spacing" textLength="283" x="398.5" y="622.06">TransactionEventRequest(eventType = Started,</text><text fill="#000000" font-family="NanumGothic" font-size="13" lengthAdjust="spacing" textLength="385" x="414.5" y="637.01">triggerReason = Authorized, chargingState = EVConnected, ...)</text><polygon fill="#181818" points="397.5,666.95,387.5,670.95,397.5,674.95,393.5,670.95" style="stroke:#181818;stroke-width:1.0;"/><line style="stroke:#181818;stroke-width:1.0;stroke-dasharray:2.0,2.0;" x1="391.5" x2="893.5" y1="670.95" y2="670.95"/><text fill="#000000" font-family="NanumGothic" font-size="13" lengthAdjust="spacing" textLength="183" x="403.5" y="665.96">TransactionEventResponse(...)</text><path d="M20,692.95 L362,692.95 L362,699.9 L352,709.9 L20,709.9 L20,692.95 " fill="#EEEEEE" style="stroke:#000000;stroke-width:1.5;"/><rect fill="none" height="436.2" style="stroke:#000000;stroke-width:1.5;" width="911" x="20" y="692.95"/><text fill="#000000" font-family="NanumGothic" font-size="13" font-weight="bold" lengthAdjust="spacing" textLength="297" x="35" y="705.91">seq 15118 Target Setting and charge Scheduling</text><polygon fill="#181818" points="369.5,726.85,379.5,730.85,369.5,734.85,373.5,730.85" style="stroke:#181818;stroke-width:1.0;"/><line style="stroke:#181818;stroke-width:1.0;" x1="50.5" x2="375.5" y1="730.85" y2="730.85"/><text fill="#000000" font-family="NanumGothic" font-size="13" lengthAdjust="spacing" textLength="196" x="57.5" y="725.86">ChargeParameterDiscoveryReq()</text><polygon fill="#181818" points="877.5,755.8,887.5,759.8,877.5,763.8,881.5,759.8" style="stroke:#181818;stroke-width:1.0;"/><line style="stroke:#181818;stroke-width:1.0;" x1="391.5" x2="883.5" y1="759.8" y2="759.8"/><text fill="#000000" font-family="NanumGothic" font-size="13" lengthAdjust="spacing" textLength="359" x="398.5" y="754.81">NotifyEVChargingNeedsRequest(chargingNeeds, evseId, ...)</text><polygon fill="#181818" points="402.5,784.75,392.5,788.75,402.5,792.75,398.5,788.75" style="stroke:#181818;stroke-width:1.0;"/><line style="stroke:#181818;stroke-width:1.0;stroke-dasharray:2.0,2.0;" x1="396.5" x2="893.5" y1="788.75" y2="788.75"/><text fill="#000000" font-family="NanumGothic" font-size="13" lengthAdjust="spacing" textLength="269" x="408.5" y="783.76">NotifyEVChargingNeedsResponse(Accepted)</text><polygon fill="#181818" points="402.5,813.7,392.5,817.7,402.5,821.7,398.5,817.7" style="stroke:#181818;stroke-width:1.0;"/><line style="stroke:#181818;stroke-width:1.0;" x1="396.5" x2="888.5" y1="817.7" y2="817.7"/><text fill="#000000" font-family="NanumGothic" font-size="13" lengthAdjust="spacing" textLength="310" x="408.5" y="812.71">SetChargingProfileRequest(evseId, chargingProfile)</text><polygon fill="#181818" points="882.5,842.65,892.5,846.65,882.5,850.65,886.5,846.65" style="stroke:#181818;stroke-width:1.0;"/><line style="stroke:#181818;stroke-width:1.0;stroke-dasharray:2.0,2.0;" x1="391.5" x2="888.5" y1="846.65" y2="846.65"/><text fill="#000000" font-family="NanumGothic" font-size="13" lengthAdjust="spacing" textLength="238" x="398.5" y="841.66">SetChargingProfileResponse(Accepted)</text><polygon fill="#181818" points="56.5,871.6,46.5,875.6,56.5,879.6,52.5,875.6" style="stroke:#181818;stroke-width:1.0;"/><line style="stroke:#181818;stroke-width:1.0;stroke-dasharray:2.0,2.0;" x1="50.5" x2="385.5" y1="875.6" y2="875.6"/><text fill="#000000" font-family="NanumGothic" font-size="13" lengthAdjust="spacing" textLength="284" x="62.5" y="870.61">ChargeParameterDiscoveryRes(SAScheduleList)</text><polygon fill="#181818" points="369.5,900.55,379.5,904.55,369.5,908.55,373.5,904.55" style="stroke:#181818;stroke-width:1.0;"/><line style="stroke:#181818;stroke-width:1.0;" x1="50.5" x2="375.5" y1="904.55" y2="904.55"/><text fill="#000000" font-family="NanumGothic" font-size="13" lengthAdjust="spacing" textLength="246" x="57.5" y="899.56">PowerDeliveryReq(ChargeProcess=Start)</text><line style="stroke:#181818;stroke-width:1.0;" x1="391.5" x2="433.5" y1="933.5" y2="933.5"/><line style="stroke:#181818;stroke-width:1.0;" x1="433.5" x2="433.5" y1="933.5" y2="946.5"/><line style="stroke:#181818;stroke-width:1.0;" x1="392.5" x2="433.5" y1="946.5" y2="946.5"/><polygon fill="#181818" points="402.5,942.5,392.5,946.5,402.5,950.5,398.5,946.5" style="stroke:#181818;stroke-width:1.0;"/><text fill="#000000" font-family="NanumGothic" font-size="13" lengthAdjust="spacing" textLength="98" x="398.5" y="928.51">Contactor Close</text><polygon fill="#181818" points="56.5,971.45,46.5,975.45,56.5,979.45,52.5,975.45" style="stroke:#181818;stroke-width:1.0;"/><line style="stroke:#181818;stroke-width:1.0;" x1="50.5" x2="385.5" y1="975.45" y2="975.45"/><text fill="#000000" font-family="NanumGothic" font-size="13" lengthAdjust="spacing" textLength="116" x="62.5" y="970.46">PowerDeliveryRes()</text><polygon fill="#181818" points="877.5,1015.35,887.5,1019.35,877.5,1023.35,881.5,1019.35" style="stroke:#181818;stroke-width:1.0;"/><line style="stroke:#181818;stroke-width:1.0;" x1="391.5" x2="883.5" y1="1019.35" y2="1019.35"/><text fill="#000000" font-family="NanumGothic" font-size="13" lengthAdjust="spacing" textLength="291" x="398.5" y="999.41">TransactionEventRequest(eventType = Updated,</text><text fill="#000000" font-family="NanumGothic" font-size="13" lengthAdjust="spacing" textLength="434" x="414.5" y="1014.36">triggerReason = ChargingStateChanged, chargingState = Charging, ...)</text><polygon fill="#181818" points="402.5,1044.3,392.5,1048.3,402.5,1052.3,398.5,1048.3" style="stroke:#181818;stroke-width:1.0;"/><line style="stroke:#181818;stroke-width:1.0;stroke-dasharray:2.0,2.0;" x1="396.5" x2="893.5" y1="1048.3" y2="1048.3"/><text fill="#000000" font-family="NanumGothic" font-size="13" lengthAdjust="spacing" textLength="183" x="408.5" y="1043.31">TransactionEventResponse(...)</text><polygon fill="#181818" points="877.5,1088.2,887.5,1092.2,877.5,1096.2,881.5,1092.2" style="stroke:#181818;stroke-width:1.0;"/><line style="stroke:#181818;stroke-width:1.0;" x1="391.5" x2="883.5" y1="1092.2" y2="1092.2"/><text fill="#000000" font-family="NanumGothic" font-size="13" lengthAdjust="spacing" textLength="320" x="398.5" y="1072.26">NotifyEVChargingScheduleRequest(timeBase, evseId,</text><text fill="#000000" font-family="NanumGothic" font-size="13" lengthAdjust="spacing" textLength="112" x="422.5" y="1087.21">chargingSchedule)</text><polygon fill="#181818" points="397.5,1117.15,387.5,1121.15,397.5,1125.15,393.5,1121.15" style="stroke:#181818;stroke-width:1.0;"/><line style="stroke:#181818;stroke-width:1.0;stroke-dasharray:2.0,2.0;" x1="391.5" x2="893.5" y1="1121.15" y2="1121.15"/><text fill="#000000" font-family="NanumGothic" font-size="13" lengthAdjust="spacing" textLength="267" x="403.5" y="1116.16">NotifyEVChargingScheduleResponse(status)</text><path d="M50,1141.15 L50,1165.15 L139,1165.15 L139,1151.15 L129,1141.15 L50,1141.15 " fill="#7D5393" style="stroke:#000000;stroke-width:0.5;"/><path d="M129,1141.15 L129,1151.15 L139,1151.15 L129,1141.15 " fill="#7D5393" style="stroke:#000000;stroke-width:0.5;"/><text fill="#FFFFFF" font-family="NanumGothic" font-size="13" lengthAdjust="spacing" textLength="68" x="56" y="1158.11">EV &#52649;&#51204;&#51473;...</text><path d="M50,1176.1 L50,1200.1 L187,1200.1 L187,1186.1 L177,1176.1 L50,1176.1 " fill="#7D5393" style="stroke:#000000;stroke-width:0.5;"/><path d="M177,1176.1 L177,1186.1 L187,1186.1 L177,1176.1 " fill="#7D5393" style="stroke:#000000;stroke-width:0.5;"/><text fill="#FFFFFF" font-family="NanumGothic" font-size="13" lengthAdjust="spacing" textLength="116" x="56" y="1193.06">&#49324;&#50857;&#51088;&#44032; &#52649;&#51204; &#51333;&#47308;&#54632;</text><path d="M20,1213.05 L194,1213.05 L194,1220 L184,1230 L20,1230 L20,1213.05 " fill="#EEEEEE" style="stroke:#000000;stroke-width:1.5;"/><rect fill="none" height="247.55" style="stroke:#000000;stroke-width:1.5;" width="911" x="20" y="1213.05"/><text fill="#000000" font-family="NanumGothic" font-size="13" font-weight="bold" lengthAdjust="spacing" textLength="129" x="35" y="1226.01">Stopping Transaction</text><polygon fill="#181818" points="369.5,1246.95,379.5,1250.95,369.5,1254.95,373.5,1250.95" style="stroke:#181818;stroke-width:1.0;"/><line style="stroke:#181818;stroke-width:1.0;" x1="50.5" x2="375.5" y1="1250.95" y2="1250.95"/><text fill="#000000" font-family="NanumGothic" font-size="13" lengthAdjust="spacing" textLength="245" x="57.5" y="1245.96">PowerDeliveryReq(ChargeProcess=Stop)</text><line style="stroke:#181818;stroke-width:1.0;" x1="391.5" x2="433.5" y1="1279.9" y2="1279.9"/><line style="stroke:#181818;stroke-width:1.0;" x1="433.5" x2="433.5" y1="1279.9" y2="1292.9"/><line style="stroke:#181818;stroke-width:1.0;" x1="392.5" x2="433.5" y1="1292.9" y2="1292.9"/><polygon fill="#181818" points="402.5,1288.9,392.5,1292.9,402.5,1296.9,398.5,1292.9" style="stroke:#181818;stroke-width:1.0;"/><text fill="#000000" font-family="NanumGothic" font-size="13" lengthAdjust="spacing" textLength="98" x="398.5" y="1274.91">Contactor Open</text><polygon fill="#181818" points="56.5,1317.85,46.5,1321.85,56.5,1325.85,52.5,1321.85" style="stroke:#181818;stroke-width:1.0;"/><line style="stroke:#181818;stroke-width:1.0;stroke-dasharray:2.0,2.0;" x1="50.5" x2="385.5" y1="1321.85" y2="1321.85"/><text fill="#000000" font-family="NanumGothic" font-size="13" lengthAdjust="spacing" textLength="116" x="62.5" y="1316.86">PowerDeliveryRes()</text><polygon fill="#181818" points="369.5,1346.8,379.5,1350.8,369.5,1354.8,373.5,1350.8" style="stroke:#181818;stroke-width:1.0;"/><line style="stroke:#181818;stroke-width:1.0;" x1="50.5" x2="375.5" y1="1350.8" y2="1350.8"/><text fill="#000000" font-family="NanumGothic" font-size="13" lengthAdjust="spacing" textLength="106" x="57.5" y="1345.81">SessionStopReq()</text><polygon fill="#181818" points="56.5,1375.75,46.5,1379.75,56.5,1383.75,52.5,1379.75" style="stroke:#181818;stroke-width:1.0;"/><line style="stroke:#181818;stroke-width:1.0;stroke-dasharray:2.0,2.0;" x1="50.5" x2="385.5" y1="1379.75" y2="1379.75"/><text fill="#000000" font-family="NanumGothic" font-size="13" lengthAdjust="spacing" textLength="104" x="62.5" y="1374.76">SessionStopRes()</text><polygon fill="#181818" points="877.5,1419.65,887.5,1423.65,877.5,1427.65,881.5,1423.65" style="stroke:#181818;stroke-width:1.0;"/><line style="stroke:#181818;stroke-width:1.0;" x1="391.5" x2="883.5" y1="1423.65" y2="1423.65"/><text fill="#000000" font-family="NanumGothic" font-size="13" lengthAdjust="spacing" textLength="291" x="398.5" y="1403.71">TransactionEventRequest(eventType = Updated,</text><text fill="#000000" font-family="NanumGothic" font-size="13" lengthAdjust="spacing" textLength="460" x="422.5" y="1418.66">triggerReason = ChargingStateChanged, chargingState = EVConnected, ...)</text><polygon fill="#181818" points="397.5,1448.6,387.5,1452.6,397.5,1456.6,393.5,1452.6" style="stroke:#181818;stroke-width:1.0;"/><line style="stroke:#181818;stroke-width:1.0;stroke-dasharray:2.0,2.0;" x1="391.5" x2="893.5" y1="1452.6" y2="1452.6"/><text fill="#000000" font-family="NanumGothic" font-size="13" lengthAdjust="spacing" textLength="183" x="403.5" y="1447.61">TransactionEventResponse(...)</text><path d="M50,1472.6 L50,1496.6 L227,1496.6 L227,1482.6 L217,1472.6 L50,1472.6 " fill="#7D5393" style="stroke:#000000;stroke-width:0.5;"/><path d="M217,1472.6 L217,1482.6 L227,1482.6 L217,1472.6 " fill="#7D5393" style="stroke:#000000;stroke-width:0.5;"/><text fill="#FFFFFF" font-family="NanumGothic" font-size="13" lengthAdjust="spacing" textLength="156" x="56" y="1489.56">&#49324;&#50857;&#51088;&#44032; &#52992;&#51060;&#48660; &#50672;&#44208; &#54644;&#51228;&#54632;</text><polygon fill="#181818" points="877.5,1534.45,887.5,1538.45,877.5,1542.45,881.5,1538.45" style="stroke:#181818;stroke-width:1.0;"/><line style="stroke:#181818;stroke-width:1.0;" x1="391.5" x2="883.5" y1="1538.45" y2="1538.45"/><text fill="#000000" font-family="NanumGothic" font-size="13" lengthAdjust="spacing" textLength="277" x="398.5" y="1518.51">TransactionEventRequest(eventType = Ended,</text><text fill="#000000" font-family="NanumGothic" font-size="13" lengthAdjust="spacing" textLength="395" x="414.5" y="1533.46">triggerReason = EVCommunicationLost, chargingState = Idle, ...)</text><polygon fill="#181818" points="397.5,1563.4,387.5,1567.4,397.5,1571.4,393.5,1567.4" style="stroke:#181818;stroke-width:1.0;"/><line style="stroke:#181818;stroke-width:1.0;stroke-dasharray:2.0,2.0;" x1="391.5" x2="893.5" y1="1567.4" y2="1567.4"/><text fill="#000000" font-family="NanumGothic" font-size="13" lengthAdjust="spacing" textLength="183" x="403.5" y="1562.41">TransactionEventResponse(...)</text><!--SRC=[nLTBZnD74BxxLtGuEP9tqHuYHKWWRRoZn18XAyRub4jhfjPkCUuUfdiSd1EAabCu18aLA2A000cGzh1223ZmYtPd_qDg-h4UpmlMNXAVFDNTzVYglghkhnWFeZG48jKyWiqudKQTJamJnG8MKwx81MzqWL19lD6ok3-XoPZnCV4LLKnmlSa9hQnqml_HDxlmJwV3XG8YPf1KJX5oSl_kyPE3e_SVDhBz5nlPuQlivHsI_VCs-_lroVx3xC41oTwzpfx-Jh8_7sMFx-69uMqydQXTmT3KPRATgeb8sAyGzlIIYDsAD-eBpY5G47Q0XoHtmpgJiF544R6Nnqf8zji1ciiU_tLqYBO_ta7pnn_ka-p1uT6RmvFzLuNJuqIaCTdwPclhMp88WIksnm8TIqzxaai25vit8XjNoZ5V8ZuaCnR03fD13ihyEjpgVetRQQ3OZA9tsgdJhp9ck5OIaGqquutgD4kjEOGsRGrkxjBv5CEnEds844bSg7Xx1lyQLLRSr12qkorYPHFHXyJc0SY0IqMZoDWL2RaHXoZ6xOrn5awRpIx2SaRQOww9-egk_ql4_Bu7fTt5ibnOH5ifIDNLAtumWIaTGI9rFJ4JoiLKUzNxcHizS9lPKoKd3Tcq9_XFWru9ji496GikeOlsL2fxneIH6Hl5J2oiD6Iv1b3PhUYnaBRa64FbuQSBT0SKPP4y1nQvV9ss59ST5Wx5JSXJ8eM6hn3Y3rHETgYYovom83Kdec33Wc-D3FYUw95WOS3NIIdJs1bePzefDclq0USfNPVz9KMowuryRpSH0KY9stl4GT4N8LJxGUSJ31icb4kg6uetmzXTyY3_6CvZm96W9mTE2iCbXMDW3Cbre1ALBO-Ie60AbeT9ZsnkRfuntLNdRDQjgbOQbFEkQM4caOHRjWaEyHGe705AvREQuiZICG39sqgOHYXjJh8Mm2vDw1GK9ESvcroEhWciw3dYQ3TS0mYbIr9G5683caaOh0HqWnMBzdOGG8mfR6AJLbixifMJOS7kiGWMrMKy3PQNwxsk8OR1fax_PxhSr8GR4ogx_hOj2RZAp1Gvs-HjwiVY5pG44NE5Otqm3B-ikRT-BLKgLt25Ed3KzoCXeU6OxedB_grovrYx0Pc1sDI0Yke1F_YuhXMvNJNqgBIEBzIYcegl24UPYQxc72oAJU4xAk6KxUw24vGEhDa15dQNRZchTTsQrmEomJnHiXVt4AgpF3Nio-RP7yVFxzQzC_BNJ9ntyq9krk2VYBya_NwAeVtolpxz6XzKChynvm6UvrkgeFH_xHN44MErTj5-S_clEiRAz6fzd9EJ_RVPqqVBt6a1_dDWztYu0BqCUGxcT9fo-yY_AgIg8Zu88x1GDm9GWdbLa5iWBWFyBm00]--></g></svg>