<?xml version="1.0" encoding="us-ascii" standalone="no"?><svg xmlns="http://www.w3.org/2000/svg" xmlns:xlink="http://www.w3.org/1999/xlink" contentStyleType="text/css" height="439px" preserveAspectRatio="none" style="width:613px;height:439px;background:#FFFFFF;" version="1.1" viewBox="0 0 613 439" width="613px" zoomAndPan="magnify"><defs/><g><rect fill="#FFFFFF" height="255.2" style="stroke:#181818;stroke-width:1.0;" width="10" x="90" y="151.9"/><rect fill="#FFFFFF" height="28.95" style="stroke:#181818;stroke-width:1.0;" width="10" x="561" y="151.9"/><rect fill="#FFFFFF" height="116.45" style="stroke:#181818;stroke-width:1.0;" width="10" x="561" y="290.65"/><rect fill="none" height="177.3" style="stroke:#000000;stroke-width:1.5;" width="577.5" x="25" y="237.8"/><line style="stroke:#181818;stroke-width:0.5;stroke-dasharray:5.0,5.0;" x1="95" x2="95" y1="36.1" y2="432.1"/><line style="stroke:#181818;stroke-width:0.5;stroke-dasharray:5.0,5.0;" x1="565.5" x2="565.5" y1="36.1" y2="432.1"/><rect fill="#7D5393" height="30.1" rx="2.5" ry="2.5" style="stroke:#181818;stroke-width:0.5;" width="120" x="35" y="5"/><text fill="#FFFFFF" font-family="NanumGothic" font-size="14" lengthAdjust="spacing" textLength="106" x="42" y="24.88">Charging Station</text><rect fill="#7D5393" height="30.1" rx="2.5" ry="2.5" style="stroke:#181818;stroke-width:0.5;" width="53" x="539.5" y="5"/><text fill="#FFFFFF" font-family="NanumGothic" font-size="14" lengthAdjust="spacing" textLength="39" x="546.5" y="24.88">CSMS</text><rect fill="#FFFFFF" height="255.2" style="stroke:#181818;stroke-width:1.0;" width="10" x="90" y="151.9"/><rect fill="#FFFFFF" height="28.95" style="stroke:#181818;stroke-width:1.0;" width="10" x="561" y="151.9"/><rect fill="#FFFFFF" height="116.45" style="stroke:#181818;stroke-width:1.0;" width="10" x="561" y="290.65"/><path d="M5,51.1 L5,90.1 L185,90.1 L185,61.1 L175,51.1 L5,51.1 " fill="#7D5393" style="stroke:#000000;stroke-width:0.5;"/><path d="M175,51.1 L175,61.1 L185,61.1 L175,51.1 " fill="#7D5393" style="stroke:#000000;stroke-width:0.5;"/><text fill="#FFFFFF" font-family="NanumGothic" font-size="13" lengthAdjust="spacing" textLength="86" x="11" y="68.06">TxStopPoint&#44032;</text><text fill="#FFFFFF" font-family="NanumGothic" font-size="13" lengthAdjust="spacing" textLength="159" x="11" y="83.01">"Authorized"&#47484; &#54252;&#54632;&#54633;&#45768;&#45796;.</text><path d="M54,101 L54,125 L606,125 L606,111 L596,101 L54,101 " fill="#7D5393" style="stroke:#000000;stroke-width:0.5;"/><path d="M596,101 L596,111 L606,111 L596,101 " fill="#7D5393" style="stroke:#000000;stroke-width:0.5;"/><text fill="#FFFFFF" font-family="NanumGothic" font-size="13" lengthAdjust="spacing" textLength="260" x="195.75" y="117.96">&#52649;&#51204;&#44592;&#50640;&#49436; &#47196;&#52972; &#51064;&#51613;&#51004;&#47196; &#49324;&#50857;&#51088;&#47484; &#51064;&#51613;&#54633;&#45768;&#45796;.</text><polygon fill="#181818" points="549,147.9,559,151.9,549,155.9,553,151.9" style="stroke:#181818;stroke-width:1.0;"/><line style="stroke:#181818;stroke-width:1.0;" x1="100" x2="555" y1="151.9" y2="151.9"/><text fill="#000000" font-family="NanumGothic" font-size="13" lengthAdjust="spacing" textLength="174" x="107" y="146.91">TransactionEventRequest(...)</text><polygon fill="#181818" points="111,176.85,101,180.85,111,184.85,107,180.85" style="stroke:#181818;stroke-width:1.0;"/><line style="stroke:#181818;stroke-width:1.0;stroke-dasharray:2.0,2.0;" x1="105" x2="565" y1="180.85" y2="180.85"/><text fill="#000000" font-family="NanumGothic" font-size="13" lengthAdjust="spacing" textLength="383" x="117" y="175.86">TransactionEventResponse(idTokenInfo.status != Accepted, ...)</text><line style="stroke:#181818;stroke-width:1.0;" x1="100" x2="142" y1="209.8" y2="209.8"/><line style="stroke:#181818;stroke-width:1.0;" x1="142" x2="142" y1="209.8" y2="222.8"/><line style="stroke:#181818;stroke-width:1.0;" x1="101" x2="142" y1="222.8" y2="222.8"/><polygon fill="#181818" points="111,218.8,101,222.8,111,226.8,107,222.8" style="stroke:#181818;stroke-width:1.0;"/><text fill="#000000" font-family="NanumGothic" font-size="13" lengthAdjust="spacing" textLength="92" x="107" y="204.81">&#50640;&#45320;&#51648; &#51204;&#45804; &#51473;&#45800;</text><path d="M25,237.8 L85,237.8 L85,244.75 L75,254.75 L25,254.75 L25,237.8 " fill="#EEEEEE" style="stroke:#000000;stroke-width:1.5;"/><rect fill="none" height="177.3" style="stroke:#000000;stroke-width:1.5;" width="577.5" x="25" y="237.8"/><text fill="#000000" font-family="NanumGothic" font-size="13" font-weight="bold" lengthAdjust="spacing" textLength="15" x="40" y="250.76">alt</text><text fill="#000000" font-family="NanumGothic" font-size="11" font-weight="bold" lengthAdjust="spacing" textLength="138" x="100" y="249.92">[StopTxOnInvalidId&#44032; true]</text><polygon fill="#181818" points="549,286.65,559,290.65,549,294.65,553,290.65" style="stroke:#181818;stroke-width:1.0;"/><line style="stroke:#181818;stroke-width:1.0;" x1="100" x2="555" y1="290.65" y2="290.65"/><text fill="#000000" font-family="NanumGothic" font-size="13" lengthAdjust="spacing" textLength="277" x="107" y="270.71">TransactionEventRequest(eventType = Ended,</text><text fill="#000000" font-family="NanumGothic" font-size="13" lengthAdjust="spacing" textLength="410" x="139" y="285.66">triggerReason = Deauthorized, stoppedReason = DeAuthorized, ...)</text><polygon fill="#181818" points="111,315.6,101,319.6,111,323.6,107,319.6" style="stroke:#181818;stroke-width:1.0;"/><line style="stroke:#181818;stroke-width:1.0;stroke-dasharray:2.0,2.0;" x1="105" x2="560" y1="319.6" y2="319.6"/><text fill="#000000" font-family="NanumGothic" font-size="13" lengthAdjust="spacing" textLength="183" x="117" y="314.61">TransactionEventResponse(...)</text><line style="stroke:#000000;stroke-width:1.0;stroke-dasharray:2.0,2.0;" x1="25" x2="602.5" y1="328.6" y2="328.6"/><text fill="#000000" font-family="NanumGothic" font-size="11" font-weight="bold" lengthAdjust="spacing" textLength="141" x="30" y="338.72">[StopTxOnInvalidId&#44032; false]</text><polygon fill="#181818" points="549,374.15,559,378.15,549,382.15,553,378.15" style="stroke:#181818;stroke-width:1.0;"/><line style="stroke:#181818;stroke-width:1.0;" x1="100" x2="555" y1="378.15" y2="378.15"/><text fill="#000000" font-family="NanumGothic" font-size="13" lengthAdjust="spacing" textLength="291" x="107" y="358.21">TransactionEventRequest(eventType = Updated,</text><text fill="#000000" font-family="NanumGothic" font-size="13" lengthAdjust="spacing" textLength="269" x="139" y="373.16">triggerReason = ChargingStateChanged, ...)</text><polygon fill="#181818" points="106,403.1,96,407.1,106,411.1,102,407.1" style="stroke:#181818;stroke-width:1.0;"/><line style="stroke:#181818;stroke-width:1.0;stroke-dasharray:2.0,2.0;" x1="100" x2="565" y1="407.1" y2="407.1"/><text fill="#000000" font-family="NanumGothic" font-size="13" lengthAdjust="spacing" textLength="183" x="112" y="402.11">TransactionEventResponse(...)</text><!--SRC=[hLFBJXin5DtxAovPKIdC1rGAKWGiM20GcUwwiSQNmUfWksDF15sXAWkaBA0BLAaA5PKe42aBLXKIV17Z_4El9q33DB2WzM8qz-5pV8wlvwHAia8WMBUNOMIAdOmnmtCd4scuSj1OskPvAbKA7SUTrAe1tC93yZvNsz5Pwqoww8SnfHs2xcB-row0UBVZjDdGKhcxgtrADDg5szQv_8IYKVwyXV7XQ7nyEJuUbls3idyMCLG20k8BkCq9CO3_DVIdlRlhA__roFS6KFuO-9iH-9DhVtxY1xSKW_yyyj-6_ljHO9jKPhBLE61XiM9v2t7EbUL9IAvqKRbD_5YWTVDH5BrX8T_bTCwwz3-5ogFmXOM0-RHl5hmrMbcSboBM7r2jgYqTMUekBCore9qaQ1oA9bJy0kj4CsJKAScjidVWB_Q1t2lxPDZPbx9_oHZF78JxYdVNYRVBCobM1TqRkBn0yljPZy9wpYSCGRnd45gmeWGT_Rs2- -LocQQORoAt1DU2PUIFuz6aaTN6e9YgjgUgbNw0cdw0LrXTGM5cSRRwBKwb_o7_dH7SlMZ0D0LIeD97gVyW3Q0-9qypjTcbHy5-0m00]--></g></svg>