<?xml version="1.0" encoding="us-ascii" standalone="no"?><svg xmlns="http://www.w3.org/2000/svg" xmlns:xlink="http://www.w3.org/1999/xlink" contentStyleType="text/css" height="460px" preserveAspectRatio="none" style="width:709px;height:460px;background:#FFFFFF;" version="1.1" viewBox="0 0 709 460" width="709px" zoomAndPan="magnify"><defs/><g><rect fill="#FFFFFF" height="110.8" style="stroke:#181818;stroke-width:1.0;" width="10" x="32" y="149"/><rect fill="#FFFFFF" height="110.8" style="stroke:#181818;stroke-width:1.0;" width="10" x="270" y="149"/><rect fill="none" height="45.9" style="stroke:#000000;stroke-width:1.5;" width="301.5" x="10" y="221.9"/><line style="stroke:#181818;stroke-width:0.5;stroke-dasharray:5.0,5.0;" x1="37" x2="37" y1="83.1" y2="453.55"/><line style="stroke:#181818;stroke-width:0.5;stroke-dasharray:5.0,5.0;" x1="274.5" x2="274.5" y1="83.1" y2="453.55"/><line style="stroke:#181818;stroke-width:0.5;stroke-dasharray:5.0,5.0;" x1="612" x2="612" y1="83.1" y2="453.55"/><text fill="#000000" font-family="NanumGothic" font-size="14" lengthAdjust="spacing" textLength="28" x="20" y="79.88">CSO</text><ellipse cx="37" cy="14.5" fill="#E2E2F0" rx="8" ry="8" style="stroke:#7D5393;stroke-width:1.5;"/><path d="M37,22.5 L37,49.5 M24,30.5 L50,30.5 M37,49.5 L24,64.5 M37,49.5 L50,64.5 " fill="none" style="stroke:#7D5393;stroke-width:1.5;"/><rect fill="#7D5393" height="30.1" rx="2.5" ry="2.5" style="stroke:#181818;stroke-width:0.5;" width="53" x="248.5" y="52"/><text fill="#FFFFFF" font-family="NanumGothic" font-size="14" lengthAdjust="spacing" textLength="39" x="255.5" y="71.88">CSMS</text><rect fill="#7D5393" height="30.1" rx="2.5" ry="2.5" style="stroke:#181818;stroke-width:0.5;" width="120" x="552" y="52"/><text fill="#FFFFFF" font-family="NanumGothic" font-size="14" lengthAdjust="spacing" textLength="106" x="559" y="71.88">Charging Station</text><rect fill="#FFFFFF" height="110.8" style="stroke:#181818;stroke-width:1.0;" width="10" x="32" y="149"/><rect fill="#FFFFFF" height="110.8" style="stroke:#181818;stroke-width:1.0;" width="10" x="270" y="149"/><path d="M521,98.1 L521,122.1 L702,122.1 L702,108.1 L692,98.1 L521,98.1 " fill="#7D5393" style="stroke:#000000;stroke-width:0.5;"/><path d="M692,98.1 L692,108.1 L702,108.1 L692,98.1 " fill="#7D5393" style="stroke:#000000;stroke-width:0.5;"/><text fill="#FFFFFF" font-family="NanumGothic" font-size="13" lengthAdjust="spacing" textLength="160" x="527" y="115.06">id=123&#51064; &#53944;&#47004;&#51117;&#49496;&#51060; &#51652;&#54665;&#51473;</text><polygon fill="#181818" points="258,145,268,149,258,153,262,149" style="stroke:#181818;stroke-width:1.0;"/><line style="stroke:#181818;stroke-width:1.0;" x1="42" x2="264" y1="149" y2="149"/><text fill="#000000" font-family="NanumGothic" font-size="13" lengthAdjust="spacing" textLength="214" x="49" y="144.01">&#49888;&#44508; &#47700;&#49884;&#51648;(transactionId=123) &#49444;&#51221;</text><polygon fill="#181818" points="600,173.95,610,177.95,600,181.95,604,177.95" style="stroke:#181818;stroke-width:1.0;"/><line style="stroke:#181818;stroke-width:1.0;" x1="280" x2="606" y1="177.95" y2="177.95"/><text fill="#000000" font-family="NanumGothic" font-size="13" lengthAdjust="spacing" textLength="308" x="287" y="172.96">SetDisplayMessagesRequest(transactionId=123,...)</text><polygon fill="#181818" points="291,202.9,281,206.9,291,210.9,287,206.9" style="stroke:#181818;stroke-width:1.0;"/><line style="stroke:#181818;stroke-width:1.0;stroke-dasharray:2.0,2.0;" x1="285" x2="611" y1="206.9" y2="206.9"/><text fill="#000000" font-family="NanumGothic" font-size="13" lengthAdjust="spacing" textLength="245" x="297" y="201.91">SetDisplayMessagesResponse(Accepted)</text><path d="M10,221.9 L76,221.9 L76,228.85 L66,238.85 L10,238.85 L10,221.9 " fill="#EEEEEE" style="stroke:#000000;stroke-width:1.5;"/><rect fill="none" height="45.9" style="stroke:#000000;stroke-width:1.5;" width="301.5" x="10" y="221.9"/><text fill="#000000" font-family="NanumGothic" font-size="13" font-weight="bold" lengthAdjust="spacing" textLength="21" x="25" y="234.86">opt</text><polygon fill="#181818" points="48,255.8,38,259.8,48,263.8,44,259.8" style="stroke:#181818;stroke-width:1.0;"/><line style="stroke:#181818;stroke-width:1.0;stroke-dasharray:2.0,2.0;" x1="42" x2="274" y1="259.8" y2="259.8"/><text fill="#000000" font-family="NanumGothic" font-size="13" lengthAdjust="spacing" textLength="24" x="54" y="254.81">&#50508;&#47548;</text><path d="M561,279.8 L561,303.8 L662,303.8 L662,289.8 L652,279.8 L561,279.8 " fill="#7D5393" style="stroke:#000000;stroke-width:0.5;"/><path d="M652,279.8 L652,289.8 L662,289.8 L652,279.8 " fill="#7D5393" style="stroke:#000000;stroke-width:0.5;"/><text fill="#FFFFFF" font-family="NanumGothic" font-size="13" lengthAdjust="spacing" textLength="80" x="567" y="296.76">&#49444;&#51221; &#46108; &#49884;&#51216;&#50640;</text><line style="stroke:#181818;stroke-width:1.0;" x1="612" x2="654" y1="330.7" y2="330.7"/><line style="stroke:#181818;stroke-width:1.0;" x1="654" x2="654" y1="330.7" y2="343.7"/><line style="stroke:#181818;stroke-width:1.0;" x1="613" x2="654" y1="343.7" y2="343.7"/><polygon fill="#181818" points="623,339.7,613,343.7,623,347.7,619,343.7" style="stroke:#181818;stroke-width:1.0;"/><text fill="#000000" font-family="NanumGothic" font-size="13" lengthAdjust="spacing" textLength="64" x="619" y="325.71">&#47700;&#49884;&#51648; &#54364;&#49884;</text><path d="M541,356.7 L541,395.7 L682,395.7 L682,366.7 L672,356.7 L541,356.7 " fill="#7D5393" style="stroke:#000000;stroke-width:0.5;"/><path d="M672,356.7 L672,366.7 L682,366.7 L672,356.7 " fill="#7D5393" style="stroke:#000000;stroke-width:0.5;"/><text fill="#FFFFFF" font-family="NanumGothic" font-size="13" lengthAdjust="spacing" textLength="120" x="547" y="373.66">id=123&#51064; &#53944;&#47004;&#51117;&#49496;&#51060;</text><text fill="#FFFFFF" font-family="NanumGothic" font-size="13" lengthAdjust="spacing" textLength="36" x="547" y="388.61">&#51333;&#47308;&#46120;</text><line style="stroke:#181818;stroke-width:1.0;" x1="612" x2="654" y1="422.55" y2="422.55"/><line style="stroke:#181818;stroke-width:1.0;" x1="654" x2="654" y1="422.55" y2="435.55"/><line style="stroke:#181818;stroke-width:1.0;" x1="613" x2="654" y1="435.55" y2="435.55"/><polygon fill="#181818" points="623,431.55,613,435.55,623,439.55,619,435.55" style="stroke:#181818;stroke-width:1.0;"/><text fill="#000000" font-family="NanumGothic" font-size="13" lengthAdjust="spacing" textLength="64" x="619" y="417.56">&#47700;&#49884;&#51648; &#51228;&#44144;</text><!--SRC=[dP7DIWCn58NtUOfhLotO0NLNK13Tk2W5vmd2JAY1CJDEqa9tBjg5jeifM7KnBOEArOMW8DY5JzIvVGUJQIdzmqKt-RatEVdEoGuNZbTp6KZLy9WLr2uzGgYZ_11o9tOb1rI2dab0GyKT7b2XJADippfbUwLrGSCg5rMm5LNS5zDZi-AiHeZm5GE_piAr5W1t3_Vs3x0_WidjA1t4EFZ0rYFslm67pSdz3Rvq2HCk60r2D1iKZpAG4W2sa_5F3Edx7RPZ75xdLKY5r7Qqz5ccMm1ilc3ICnvvdMeCusvXemqHCsQgot0bi9awvJBmQAFCfAHL9i_PLOr9jVxGhcLP1IsrB075EUmcBHduGhByiUEmG35Nt_S3fJEP0cLNAoN0NYTz_TLbbosvM2be9pgd_yEUXW5f58D9B8dm8LfCTvL-GoRpi67IZVLgozyrC4-jzBcJHczR4s0IZxy-oHy0]--></g></svg>