<?xml version="1.0" encoding="us-ascii" standalone="no"?><svg xmlns="http://www.w3.org/2000/svg" xmlns:xlink="http://www.w3.org/1999/xlink" contentStyleType="text/css" height="449px" preserveAspectRatio="none" style="width:786px;height:449px;background:#FFFFFF;" version="1.1" viewBox="0 0 786 449" width="786px" zoomAndPan="magnify"><defs/><g><rect fill="#FFFFFF" height="28.95" style="stroke:#181818;stroke-width:1.0;" width="10" x="232.5" y="96"/><rect fill="#FFFFFF" height="28.95" style="stroke:#181818;stroke-width:1.0;" width="10" x="232.5" y="212.8"/><rect fill="#FFFFFF" height="28.95" style="stroke:#181818;stroke-width:1.0;" width="10" x="232.5" y="306.65"/><rect fill="#FFFFFF" height="28.95" style="stroke:#181818;stroke-width:1.0;" width="10" x="232.5" y="388.5"/><rect fill="#FFFFFF" height="28.95" style="stroke:#181818;stroke-width:1.0;" width="10" x="566.5" y="212.8"/><rect fill="#FFFFFF" height="28.95" style="stroke:#181818;stroke-width:1.0;" width="10" x="566.5" y="388.5"/><rect fill="#FFFFFF" height="28.95" style="stroke:#181818;stroke-width:1.0;" width="10" x="748.5" y="96"/><rect fill="#FFFFFF" height="28.95" style="stroke:#181818;stroke-width:1.0;" width="10" x="748.5" y="306.65"/><rect fill="none" height="74.85" style="stroke:#000000;stroke-width:1.5;" width="473.5" x="171" y="174.9"/><rect fill="none" height="74.85" style="stroke:#000000;stroke-width:1.5;" width="473.5" x="171" y="350.6"/><line style="stroke:#181818;stroke-width:0.5;stroke-dasharray:5.0,5.0;" x1="88" x2="88" y1="36.1" y2="442.45"/><line style="stroke:#181818;stroke-width:0.5;stroke-dasharray:5.0,5.0;" x1="237" x2="237" y1="36.1" y2="442.45"/><line style="stroke:#181818;stroke-width:0.5;stroke-dasharray:5.0,5.0;" x1="571.5" x2="571.5" y1="36.1" y2="442.45"/><line style="stroke:#181818;stroke-width:0.5;stroke-dasharray:5.0,5.0;" x1="753" x2="753" y1="36.1" y2="442.45"/><rect fill="#7D5393" height="30.1" rx="2.5" ry="2.5" style="stroke:#181818;stroke-width:0.5;" width="166" x="5" y="5"/><text fill="#FFFFFF" font-family="NanumGothic" font-size="14" lengthAdjust="spacing" textLength="152" x="12" y="24.88">External Control System</text><rect fill="#7D5393" height="30.1" rx="2.5" ry="2.5" style="stroke:#181818;stroke-width:0.5;" width="113" x="181" y="5"/><text fill="#FFFFFF" font-family="NanumGothic" font-size="14" lengthAdjust="spacing" textLength="99" x="188" y="24.88">Local Controller</text><rect fill="#7D5393" height="30.1" rx="2.5" ry="2.5" style="stroke:#181818;stroke-width:0.5;" width="126" x="508.5" y="5"/><text fill="#FFFFFF" font-family="NanumGothic" font-size="14" lengthAdjust="spacing" textLength="112" x="515.5" y="24.88">Charging Stations</text><rect fill="#7D5393" height="30.1" rx="2.5" ry="2.5" style="stroke:#181818;stroke-width:0.5;" width="53" x="727" y="5"/><text fill="#FFFFFF" font-family="NanumGothic" font-size="14" lengthAdjust="spacing" textLength="39" x="734" y="24.88">CSMS</text><rect fill="#FFFFFF" height="28.95" style="stroke:#181818;stroke-width:1.0;" width="10" x="232.5" y="96"/><rect fill="#FFFFFF" height="28.95" style="stroke:#181818;stroke-width:1.0;" width="10" x="232.5" y="212.8"/><rect fill="#FFFFFF" height="28.95" style="stroke:#181818;stroke-width:1.0;" width="10" x="232.5" y="306.65"/><rect fill="#FFFFFF" height="28.95" style="stroke:#181818;stroke-width:1.0;" width="10" x="232.5" y="388.5"/><rect fill="#FFFFFF" height="28.95" style="stroke:#181818;stroke-width:1.0;" width="10" x="566.5" y="212.8"/><rect fill="#FFFFFF" height="28.95" style="stroke:#181818;stroke-width:1.0;" width="10" x="566.5" y="388.5"/><rect fill="#FFFFFF" height="28.95" style="stroke:#181818;stroke-width:1.0;" width="10" x="748.5" y="96"/><rect fill="#FFFFFF" height="28.95" style="stroke:#181818;stroke-width:1.0;" width="10" x="748.5" y="306.65"/><polygon fill="#181818" points="225.5,63.05,235.5,67.05,225.5,71.05,229.5,67.05" style="stroke:#181818;stroke-width:1.0;"/><line style="stroke:#181818;stroke-width:1.0;" x1="88" x2="231.5" y1="67.05" y2="67.05"/><text fill="#000000" font-family="NanumGothic" font-size="13" lengthAdjust="spacing" textLength="92" x="95" y="62.06">&#44536;&#47532;&#46300; &#51228;&#54620; &#49444;&#51221;</text><polygon fill="#181818" points="736.5,92,746.5,96,736.5,100,740.5,96" style="stroke:#181818;stroke-width:1.0;"/><line style="stroke:#181818;stroke-width:1.0;" x1="242.5" x2="742.5" y1="96" y2="96"/><text fill="#000000" font-family="NanumGothic" font-size="13" lengthAdjust="spacing" textLength="492" x="249.5" y="91.01">NotifyChargingLimitsRequest(chargingLimitSource, [chargingLimitGridCritical],...)</text><polygon fill="#181818" points="248.5,120.95,238.5,124.95,248.5,128.95,244.5,124.95" style="stroke:#181818;stroke-width:1.0;"/><line style="stroke:#181818;stroke-width:1.0;stroke-dasharray:2.0,2.0;" x1="242.5" x2="752.5" y1="124.95" y2="124.95"/><text fill="#000000" font-family="NanumGothic" font-size="13" lengthAdjust="spacing" textLength="195" x="254.5" y="119.96">NotifyChargingLimitsResponse()</text><path d="M167,137.95 L167,161.95 L308,161.95 L308,147.95 L298,137.95 L167,137.95 " fill="#7D5393" style="stroke:#000000;stroke-width:0.5;"/><path d="M298,137.95 L298,147.95 L308,147.95 L298,137.95 " fill="#7D5393" style="stroke:#000000;stroke-width:0.5;"/><text fill="#FFFFFF" font-family="NanumGothic" font-size="13" lengthAdjust="spacing" textLength="120" x="173" y="154.91">&#52649;&#51204; &#49828;&#52992;&#51572; &#45796;&#49884; &#44228;&#49328;</text><path d="M171,174.9 L243,174.9 L243,181.85 L233,191.85 L171,191.85 L171,174.9 " fill="#EEEEEE" style="stroke:#000000;stroke-width:1.5;"/><rect fill="none" height="74.85" style="stroke:#000000;stroke-width:1.5;" width="473.5" x="171" y="174.9"/><text fill="#000000" font-family="NanumGothic" font-size="13" font-weight="bold" lengthAdjust="spacing" textLength="27" x="186" y="187.86">loop</text><text fill="#000000" font-family="NanumGothic" font-size="11" font-weight="bold" lengthAdjust="spacing" textLength="135" x="258" y="187.02">[&#50689;&#54693; &#48155;&#45716; &#47784;&#46304; EVSE&#50640; &#45824;&#54644;]</text><polygon fill="#181818" points="554.5,208.8,564.5,212.8,554.5,216.8,558.5,212.8" style="stroke:#181818;stroke-width:1.0;"/><line style="stroke:#181818;stroke-width:1.0;" x1="242.5" x2="560.5" y1="212.8" y2="212.8"/><text fill="#000000" font-family="NanumGothic" font-size="13" lengthAdjust="spacing" textLength="310" x="249.5" y="207.81">SetChargingProfileRequest(evseId, chargingProfile)</text><polygon fill="#181818" points="248.5,237.75,238.5,241.75,248.5,245.75,244.5,241.75" style="stroke:#181818;stroke-width:1.0;"/><line style="stroke:#181818;stroke-width:1.0;stroke-dasharray:2.0,2.0;" x1="242.5" x2="570.5" y1="241.75" y2="241.75"/><text fill="#000000" font-family="NanumGothic" font-size="13" lengthAdjust="spacing" textLength="219" x="254.5" y="236.76">SetChargingProfileResponse(status)</text><polygon fill="#181818" points="225.5,273.7,235.5,277.7,225.5,281.7,229.5,277.7" style="stroke:#181818;stroke-width:1.0;"/><line style="stroke:#181818;stroke-width:1.0;" x1="88" x2="231.5" y1="277.7" y2="277.7"/><text fill="#000000" font-family="NanumGothic" font-size="13" lengthAdjust="spacing" textLength="92" x="95" y="272.71">&#44536;&#47532;&#46300; &#51228;&#54620; &#54644;&#51228;</text><polygon fill="#181818" points="736.5,302.65,746.5,306.65,736.5,310.65,740.5,306.65" style="stroke:#181818;stroke-width:1.0;"/><line style="stroke:#181818;stroke-width:1.0;" x1="242.5" x2="742.5" y1="306.65" y2="306.65"/><text fill="#000000" font-family="NanumGothic" font-size="13" lengthAdjust="spacing" textLength="329" x="249.5" y="301.66">ClearedChargingLimitRequest(chargingLimitSource,...)</text><polygon fill="#181818" points="248.5,331.6,238.5,335.6,248.5,339.6,244.5,335.6" style="stroke:#181818;stroke-width:1.0;"/><line style="stroke:#181818;stroke-width:1.0;stroke-dasharray:2.0,2.0;" x1="242.5" x2="752.5" y1="335.6" y2="335.6"/><text fill="#000000" font-family="NanumGothic" font-size="13" lengthAdjust="spacing" textLength="199" x="254.5" y="330.61">ClearedChargingLimitResponse()</text><path d="M171,350.6 L243,350.6 L243,357.55 L233,367.55 L171,367.55 L171,350.6 " fill="#EEEEEE" style="stroke:#000000;stroke-width:1.5;"/><rect fill="none" height="74.85" style="stroke:#000000;stroke-width:1.5;" width="473.5" x="171" y="350.6"/><text fill="#000000" font-family="NanumGothic" font-size="13" font-weight="bold" lengthAdjust="spacing" textLength="27" x="186" y="363.56">loop</text><text fill="#000000" font-family="NanumGothic" font-size="11" font-weight="bold" lengthAdjust="spacing" textLength="135" x="258" y="362.72">[&#50689;&#54693; &#48155;&#45716; &#47784;&#46304; EVSE&#50640; &#45824;&#54644;]</text><polygon fill="#181818" points="554.5,384.5,564.5,388.5,554.5,392.5,558.5,388.5" style="stroke:#181818;stroke-width:1.0;"/><line style="stroke:#181818;stroke-width:1.0;" x1="242.5" x2="560.5" y1="388.5" y2="388.5"/><text fill="#000000" font-family="NanumGothic" font-size="13" lengthAdjust="spacing" textLength="197" x="249.5" y="383.51">ClearChargingProfileRequest(...)</text><polygon fill="#181818" points="248.5,413.45,238.5,417.45,248.5,421.45,244.5,417.45" style="stroke:#181818;stroke-width:1.0;"/><line style="stroke:#181818;stroke-width:1.0;stroke-dasharray:2.0,2.0;" x1="242.5" x2="570.5" y1="417.45" y2="417.45"/><text fill="#000000" font-family="NanumGothic" font-size="13" lengthAdjust="spacing" textLength="231" x="254.5" y="412.46">ClearChargingProfileResponse(status)</text><!--SRC=[jLBBQjj05DtFLzna5OFZ3_2Y6s5Am2sbWcvA5eDqdGoCDUhCoDIx97YLP15md1JYXHTEQ4iNXeQsYtvHDFw7ZcIhjXJPaE1iD9TpN-SUdIqMU3po4PJkSgo5KPiJ4bAfcST26cZORdpMA0FAmH61beA3srKQszj05JGSDr_S5DwYagDCgr9mWUKxd4Cg3rXm0Awcceb0fIqPEWSBBUuRTrPb0q8i2TXzLTnIXuVVV-Ax7t5_26Oqd0xiqnkRqO2GGcNId4ogmrkXMQkRxMwoDjFgFNwAKEaTRnbrHIGzhCB77FfQCj-Hp1AbVBzQgzKgX7gQTQZ6HnhyJynkIBwmMtP5EISLMgLmfq9yNBbYAJLR4WWRYewzk5WAO7vzCwCUcDEn-NjaRkyXFXkRio4y_EoPamd1m8UadH0kH0Zco_7qwXRYoKryUWdnzwznVmID3sx3N5z0V7uq7TpRcMKwv_zh7LpK6VPEYXRZc0cE7OLxVXMyVBfY1wyyUIbLT93D5Q1olSi8pTLMjYzI2O4rgkUIHH9MnYVurQfeepL-TJXIYNxE7ElykY5BbgzzbYKtxAQKsGe_fSU_h7VArs_IFK3-0G00]--></g></svg>