<?xml version="1.0" encoding="us-ascii" standalone="no"?><svg xmlns="http://www.w3.org/2000/svg" xmlns:xlink="http://www.w3.org/1999/xlink" contentStyleType="text/css" height="582px" preserveAspectRatio="none" style="width:378px;height:582px;background:#FFFFFF;" version="1.1" viewBox="0 0 378 582" width="378px" zoomAndPan="magnify"><defs/><g><rect fill="#FFFFFF" height="28.95" style="stroke:#181818;stroke-width:1.0;" width="10" x="51.5" y="91"/><rect fill="#FFFFFF" height="28.95" style="stroke:#181818;stroke-width:1.0;" width="10" x="51.5" y="322.65"/><rect fill="#FFFFFF" height="28.95" style="stroke:#181818;stroke-width:1.0;" width="10" x="51.5" y="426.15"/><rect fill="#FFFFFF" height="28.95" style="stroke:#181818;stroke-width:1.0;" width="10" x="51.5" y="522"/><rect fill="#FFFFFF" height="305.5" style="stroke:#181818;stroke-width:1.0;" width="10" x="286.5" y="46.1"/><rect fill="none" height="74.85" style="stroke:#000000;stroke-width:1.5;" width="341.5" x="20" y="53.1"/><rect fill="none" height="209.3" style="stroke:#000000;stroke-width:1.5;" width="361.5" x="10" y="260.8"/><rect fill="none" height="74.85" style="stroke:#000000;stroke-width:1.5;" width="341.5" x="20" y="284.75"/><rect fill="none" height="74.85" style="stroke:#000000;stroke-width:1.5;" width="341.5" x="20" y="388.25"/><rect fill="none" height="74.85" style="stroke:#000000;stroke-width:1.5;" width="341.5" x="20" y="484.1"/><line style="stroke:#181818;stroke-width:0.5;stroke-dasharray:5.0,5.0;" x1="56" x2="56" y1="36.1" y2="575.95"/><line style="stroke:#181818;stroke-width:0.5;stroke-dasharray:5.0,5.0;" x1="291.5" x2="291.5" y1="36.1" y2="575.95"/><rect fill="#7D5393" height="30.1" rx="2.5" ry="2.5" style="stroke:#181818;stroke-width:0.5;" width="53" x="30" y="5"/><text fill="#FFFFFF" font-family="NanumGothic" font-size="14" lengthAdjust="spacing" textLength="39" x="37" y="24.88">CSMS</text><rect fill="#7D5393" height="30.1" rx="2.5" ry="2.5" style="stroke:#181818;stroke-width:0.5;" width="120" x="231.5" y="5"/><text fill="#FFFFFF" font-family="NanumGothic" font-size="14" lengthAdjust="spacing" textLength="106" x="238.5" y="24.88">Charging Station</text><rect fill="#FFFFFF" height="28.95" style="stroke:#181818;stroke-width:1.0;" width="10" x="51.5" y="91"/><rect fill="#FFFFFF" height="28.95" style="stroke:#181818;stroke-width:1.0;" width="10" x="51.5" y="322.65"/><rect fill="#FFFFFF" height="28.95" style="stroke:#181818;stroke-width:1.0;" width="10" x="51.5" y="426.15"/><rect fill="#FFFFFF" height="28.95" style="stroke:#181818;stroke-width:1.0;" width="10" x="51.5" y="522"/><rect fill="#FFFFFF" height="305.5" style="stroke:#181818;stroke-width:1.0;" width="10" x="286.5" y="46.1"/><path d="M20,53.1 L92,53.1 L92,60.05 L82,70.05 L20,70.05 L20,53.1 " fill="#EEEEEE" style="stroke:#000000;stroke-width:1.5;"/><rect fill="none" height="74.85" style="stroke:#000000;stroke-width:1.5;" width="341.5" x="20" y="53.1"/><text fill="#000000" font-family="NanumGothic" font-size="13" font-weight="bold" lengthAdjust="spacing" textLength="27" x="35" y="66.06">loop</text><text fill="#000000" font-family="NanumGothic" font-size="11" font-weight="bold" lengthAdjust="spacing" textLength="196" x="107" y="65.22">[&#51204;&#50896;&#51060; &#53020;&#51652; &#46041;&#50504; &#45796;&#47480; &#47700;&#49884;&#51648;&#44032; &#50630;&#45716; &#44221;&#50864;]</text><polygon fill="#181818" points="72.5,87,62.5,91,72.5,95,68.5,91" style="stroke:#181818;stroke-width:1.0;"/><line style="stroke:#181818;stroke-width:1.0;" x1="66.5" x2="285.5" y1="91" y2="91"/><text fill="#000000" font-family="NanumGothic" font-size="13" lengthAdjust="spacing" textLength="119" x="78.5" y="86.01">HeartbeatRequest()</text><polygon fill="#181818" points="274.5,115.95,284.5,119.95,274.5,123.95,278.5,119.95" style="stroke:#181818;stroke-width:1.0;"/><line style="stroke:#181818;stroke-width:1.0;stroke-dasharray:2.0,2.0;" x1="56.5" x2="280.5" y1="119.95" y2="119.95"/><text fill="#000000" font-family="NanumGothic" font-size="13" lengthAdjust="spacing" textLength="201" x="63.5" y="114.96">HeartbeatResponse(currentTime)</text><line style="stroke:#181818;stroke-width:1.0;" x1="296.5" x2="338.5" y1="155.9" y2="155.9"/><line style="stroke:#181818;stroke-width:1.0;" x1="338.5" x2="338.5" y1="155.9" y2="168.9"/><line style="stroke:#181818;stroke-width:1.0;" x1="297.5" x2="338.5" y1="168.9" y2="168.9"/><polygon fill="#181818" points="307.5,164.9,297.5,168.9,307.5,172.9,303.5,168.9" style="stroke:#181818;stroke-width:1.0;"/><text fill="#000000" font-family="NanumGothic" font-size="13" lengthAdjust="spacing" textLength="52" x="303.5" y="150.91">&#50672;&#44208; &#45130;&#44608;</text><path d="M15,181.9 L15,205.9 L331,205.9 L331,191.9 L321,181.9 L15,181.9 " fill="#7D5393" style="stroke:#000000;stroke-width:0.5;"/><path d="M321,181.9 L321,191.9 L331,191.9 L321,181.9 " fill="#7D5393" style="stroke:#000000;stroke-width:0.5;"/><text fill="#FFFFFF" font-family="NanumGothic" font-size="13" lengthAdjust="spacing" textLength="256" x="40.75" y="198.86">&#50672;&#44208; &#45130;&#44608;&#51008; &#47751; &#48516; &#46608;&#45716; &#47728;&#52832;&#51060; &#46112; &#49688; &#51080;&#49845;&#45768;&#45796;..</text><line style="stroke:#181818;stroke-width:1.0;" x1="296.5" x2="338.5" y1="232.8" y2="232.8"/><line style="stroke:#181818;stroke-width:1.0;" x1="338.5" x2="338.5" y1="232.8" y2="245.8"/><line style="stroke:#181818;stroke-width:1.0;" x1="297.5" x2="338.5" y1="245.8" y2="245.8"/><polygon fill="#181818" points="307.5,241.8,297.5,245.8,307.5,249.8,303.5,245.8" style="stroke:#181818;stroke-width:1.0;"/><text fill="#000000" font-family="NanumGothic" font-size="13" lengthAdjust="spacing" textLength="64" x="303.5" y="227.81">&#50672;&#44208; &#48373;&#44396;&#46120;</text><path d="M10,260.8 L70,260.8 L70,267.75 L60,277.75 L10,277.75 L10,260.8 " fill="#EEEEEE" style="stroke:#000000;stroke-width:1.5;"/><rect fill="none" height="209.3" style="stroke:#000000;stroke-width:1.5;" width="361.5" x="10" y="260.8"/><text fill="#000000" font-family="NanumGothic" font-size="13" font-weight="bold" lengthAdjust="spacing" textLength="15" x="25" y="273.76">alt</text><text fill="#000000" font-family="NanumGothic" font-size="11" font-weight="bold" lengthAdjust="spacing" textLength="281" x="85" y="272.92">[&#50724;&#54532;&#46972;&#51064; &#44592;&#44036;&#51060; &#50724;&#54532;&#46972;&#51064; &#51076;&#44228;&#51216;(threshold)&#47484; &#45336;&#44592;&#45716; &#44221;&#50864;]</text><path d="M20,284.75 L92,284.75 L92,291.7 L82,301.7 L20,301.7 L20,284.75 " fill="#EEEEEE" style="stroke:#000000;stroke-width:1.5;"/><rect fill="none" height="74.85" style="stroke:#000000;stroke-width:1.5;" width="341.5" x="20" y="284.75"/><text fill="#000000" font-family="NanumGothic" font-size="13" font-weight="bold" lengthAdjust="spacing" textLength="27" x="35" y="297.71">loop</text><text fill="#000000" font-family="NanumGothic" font-size="11" font-weight="bold" lengthAdjust="spacing" textLength="94" x="107" y="296.87">[&#47784;&#46304; &#52964;&#45349;&#53552;&#50640; &#45824;&#54644;]</text><polygon fill="#181818" points="72.5,318.65,62.5,322.65,72.5,326.65,68.5,322.65" style="stroke:#181818;stroke-width:1.0;"/><line style="stroke:#181818;stroke-width:1.0;" x1="66.5" x2="285.5" y1="322.65" y2="322.65"/><text fill="#000000" font-family="NanumGothic" font-size="13" lengthAdjust="spacing" textLength="179" x="78.5" y="317.66">StatusNotificationRequest(...)</text><polygon fill="#181818" points="279.5,347.6,289.5,351.6,279.5,355.6,283.5,351.6" style="stroke:#181818;stroke-width:1.0;"/><line style="stroke:#181818;stroke-width:1.0;stroke-dasharray:2.0,2.0;" x1="56.5" x2="285.5" y1="351.6" y2="351.6"/><text fill="#000000" font-family="NanumGothic" font-size="13" lengthAdjust="spacing" textLength="176" x="63.5" y="346.61">StatusNotificationResponse()</text><line style="stroke:#000000;stroke-width:1.0;stroke-dasharray:2.0,2.0;" x1="10" x2="371.5" y1="367.6" y2="367.6"/><text fill="#000000" font-family="NanumGothic" font-size="11" font-weight="bold" lengthAdjust="spacing" textLength="170" x="15" y="377.72">[&#50724;&#54532;&#46972;&#51064; &#44592;&#44036;&#46041;&#50504; &#49345;&#53468;&#44032; &#48320;&#44221;&#46112; &#46412;]</text><path d="M20,388.25 L92,388.25 L92,395.2 L82,405.2 L20,405.2 L20,388.25 " fill="#EEEEEE" style="stroke:#000000;stroke-width:1.5;"/><rect fill="none" height="74.85" style="stroke:#000000;stroke-width:1.5;" width="341.5" x="20" y="388.25"/><text fill="#000000" font-family="NanumGothic" font-size="13" font-weight="bold" lengthAdjust="spacing" textLength="27" x="35" y="401.21">loop</text><text fill="#000000" font-family="NanumGothic" font-size="11" font-weight="bold" lengthAdjust="spacing" textLength="236" x="107" y="400.37">[&#50724;&#54532;&#46972;&#51064; &#44592;&#44036;&#46041;&#50504; &#49345;&#53468;&#44032; &#48320;&#44221;&#46108; &#44033; &#52964;&#45349;&#53552;&#50640; &#45824;&#54644;]</text><polygon fill="#181818" points="72.5,422.15,62.5,426.15,72.5,430.15,68.5,426.15" style="stroke:#181818;stroke-width:1.0;"/><line style="stroke:#181818;stroke-width:1.0;" x1="66.5" x2="290.5" y1="426.15" y2="426.15"/><text fill="#000000" font-family="NanumGothic" font-size="13" lengthAdjust="spacing" textLength="179" x="78.5" y="421.16">StatusNotificationRequest(...)</text><polygon fill="#181818" points="279.5,451.1,289.5,455.1,279.5,459.1,283.5,455.1" style="stroke:#181818;stroke-width:1.0;"/><line style="stroke:#181818;stroke-width:1.0;stroke-dasharray:2.0,2.0;" x1="56.5" x2="285.5" y1="455.1" y2="455.1"/><text fill="#000000" font-family="NanumGothic" font-size="13" lengthAdjust="spacing" textLength="176" x="63.5" y="450.11">StatusNotificationResponse()</text><path d="M20,484.1 L92,484.1 L92,491.05 L82,501.05 L20,501.05 L20,484.1 " fill="#EEEEEE" style="stroke:#000000;stroke-width:1.5;"/><rect fill="none" height="74.85" style="stroke:#000000;stroke-width:1.5;" width="341.5" x="20" y="484.1"/><text fill="#000000" font-family="NanumGothic" font-size="13" font-weight="bold" lengthAdjust="spacing" textLength="27" x="35" y="497.06">loop</text><text fill="#000000" font-family="NanumGothic" font-size="11" font-weight="bold" lengthAdjust="spacing" textLength="216" x="107" y="496.22">[&#51204;&#50896;&#51060; &#53020;&#51652; &#49345;&#53468;&#50640;&#49436; &#45796;&#47480; &#47700;&#49884;&#51648;&#44032; &#50630;&#45716; &#46041;&#50504;]</text><polygon fill="#181818" points="72.5,518,62.5,522,72.5,526,68.5,522" style="stroke:#181818;stroke-width:1.0;"/><line style="stroke:#181818;stroke-width:1.0;" x1="66.5" x2="290.5" y1="522" y2="522"/><text fill="#000000" font-family="NanumGothic" font-size="13" lengthAdjust="spacing" textLength="119" x="78.5" y="517.01">HeartbeatRequest()</text><polygon fill="#181818" points="279.5,546.95,289.5,550.95,279.5,554.95,283.5,550.95" style="stroke:#181818;stroke-width:1.0;"/><line style="stroke:#181818;stroke-width:1.0;stroke-dasharray:2.0,2.0;" x1="56.5" x2="285.5" y1="550.95" y2="550.95"/><text fill="#000000" font-family="NanumGothic" font-size="13" lengthAdjust="spacing" textLength="201" x="63.5" y="545.96">HeartbeatResponse(currentTime)</text><!--SRC=[rLHDRzD04BtxLmmz9HBr3-30XGiNE13-W76MPYNNDlQw4ZT7NK6KLC8IYH8WgN98r0zni9e6fIBy8S_aFx3hf08xKQJUu6HhPj_ps_V6yuYxjXFL6OJYlSDCFpfs3CEt0i5jxbkkW8DdjHUr0x12q2-bLiCAZhXx13LX2UwvwsERugPc69Oj-8abs7R7yJmVQ2pfMqAZMw3ba2uauASlr6i1TYOuNG1UTQcZwd6Mna3z3zZkGdRpYxwc1fGPuV1fhl89F6TAvnjcYLViNSH2KQcgqt-4w9jek7h2eGOLUGhuqFVSa5NiA0YOArxpOwQvwgp8njowOUoIKsQcVfhTf83DTdON6uRhAGRlX0KvpUCjZw08e54CUFqHy8VoQP1eC_0gfRknzW-JCL1h07JUelOSEorbeMbgQQ0_yp1zitas_ux9fShF4K23oQehSRIaqGAoHPgbCa_ixpATosmcQPnKH2DWOSDpwbMSBW7bG24AkUN1u_KbVbQAVqvGJbSofNu2U1QlUhVgn9viTI4ANtg2l-LsthiFsJJDQexTIdfVrhluDg6lsSfPbsjRaUbXO4x8TjcscMuwRQvEXtgcSHOhNtHss3kxz-OXm25aQVE_j37tIVyuknV1-ghgFYI7-zR1sfb_RXty1W00]--></g></svg>