<?xml version="1.0" encoding="us-ascii" standalone="no"?><svg xmlns="http://www.w3.org/2000/svg" xmlns:xlink="http://www.w3.org/1999/xlink" contentStyleType="text/css" height="484px" preserveAspectRatio="none" style="width:711px;height:484px;background:#FFFFFF;" version="1.1" viewBox="0 0 711 484" width="711px" zoomAndPan="magnify"><defs/><g><rect fill="#FFFFFF" height="268.5501" style="stroke:#181818;stroke-width:1.0;" width="10" x="15.5" y="190.85"/><rect fill="#FFFFFF" height="28.95" style="stroke:#181818;stroke-width:1.0;" width="10" x="430.5" y="125.95"/><rect fill="#FFFFFF" height="28.95" style="stroke:#181818;stroke-width:1.0;" width="10" x="430.5" y="190.85"/><rect fill="#FFFFFF" height="28.95" style="stroke:#181818;stroke-width:1.0;" width="10" x="430.5" y="248.75"/><rect fill="#FFFFFF" height="152.7501" style="stroke:#181818;stroke-width:1.0;" width="10" x="430.5" y="306.65"/><rect fill="#FFFFFF" height="28.95" style="stroke:#181818;stroke-width:1.0;" width="10" x="663.5" y="125.95"/><rect fill="#FFFFFF" height="28.95" style="stroke:#181818;stroke-width:1.0;" width="10" x="663.5" y="394.5001"/><rect fill="none" height="109.8001" style="stroke:#000000;stroke-width:1.5;" width="455" x="250" y="53.0999"/><rect fill="none" height="109.8001" style="stroke:#000000;stroke-width:1.5;" width="506" x="199" y="321.65"/><line style="stroke:#181818;stroke-width:0.5;stroke-dasharray:5.0,5.0;" x1="20" x2="20" y1="36.0999" y2="477.4001"/><line style="stroke:#181818;stroke-width:0.5;stroke-dasharray:5.0,5.0;" x1="435.5" x2="435.5" y1="36.0999" y2="477.4001"/><line style="stroke:#181818;stroke-width:0.5;stroke-dasharray:5.0,5.0;" x1="668" x2="668" y1="36.0999" y2="477.4001"/><rect fill="#7D5393" height="30.0999" rx="2.5" ry="2.5" style="stroke:#181818;stroke-width:0.5;" width="31" x="5" y="5"/><text fill="#FFFFFF" font-family="NanumGothic" font-size="14" lengthAdjust="spacing" textLength="17" x="12" y="24.8799">EV</text><rect fill="#7D5393" height="30.0999" rx="2.5" ry="2.5" style="stroke:#181818;stroke-width:0.5;" width="120" x="375.5" y="5"/><text fill="#FFFFFF" font-family="NanumGothic" font-size="14" lengthAdjust="spacing" textLength="106" x="382.5" y="24.8799">Charging Station</text><rect fill="#7D5393" height="30.0999" rx="2.5" ry="2.5" style="stroke:#181818;stroke-width:0.5;" width="53" x="642" y="5"/><text fill="#FFFFFF" font-family="NanumGothic" font-size="14" lengthAdjust="spacing" textLength="39" x="649" y="24.8799">CSMS</text><rect fill="#FFFFFF" height="268.5501" style="stroke:#181818;stroke-width:1.0;" width="10" x="15.5" y="190.85"/><rect fill="#FFFFFF" height="28.95" style="stroke:#181818;stroke-width:1.0;" width="10" x="430.5" y="125.95"/><rect fill="#FFFFFF" height="28.95" style="stroke:#181818;stroke-width:1.0;" width="10" x="430.5" y="190.85"/><rect fill="#FFFFFF" height="28.95" style="stroke:#181818;stroke-width:1.0;" width="10" x="430.5" y="248.75"/><rect fill="#FFFFFF" height="152.7501" style="stroke:#181818;stroke-width:1.0;" width="10" x="430.5" y="306.65"/><rect fill="#FFFFFF" height="28.95" style="stroke:#181818;stroke-width:1.0;" width="10" x="663.5" y="125.95"/><rect fill="#FFFFFF" height="28.95" style="stroke:#181818;stroke-width:1.0;" width="10" x="663.5" y="394.5001"/><path d="M250,53.0999 L316,53.0999 L316,60.0499 L306,70.0499 L250,70.0499 L250,53.0999 " fill="#EEEEEE" style="stroke:#000000;stroke-width:1.5;"/><rect fill="none" height="109.8001" style="stroke:#000000;stroke-width:1.5;" width="455" x="250" y="53.0999"/><text fill="#000000" font-family="NanumGothic" font-size="13" font-weight="bold" lengthAdjust="spacing" textLength="21" x="265" y="66.0599">opt</text><text fill="#000000" font-family="NanumGothic" font-size="11" font-weight="bold" lengthAdjust="spacing" textLength="51" x="331" y="65.2199">[&#51064;&#51613; &#50864;&#49440;]</text><path d="M260,75.0499 L260,99.0499 L611,99.0499 L611,85.0499 L601,75.0499 L260,75.0499 " fill="#7D5393" style="stroke:#000000;stroke-width:0.5;"/><path d="M601,75.0499 L601,85.0499 L611,85.0499 L601,75.0499 " fill="#7D5393" style="stroke:#000000;stroke-width:0.5;"/><text fill="#FFFFFF" font-family="NanumGothic" font-size="13" lengthAdjust="spacing" textLength="330" x="266" y="92.01">EV&#47484; EVSE&#50640; &#50672;&#44208;&#54616;&#44592; &#51060;&#51204;&#50640; &#49324;&#50857;&#51088; &#51064;&#51613;&#51060; &#51652;&#54665;&#46112; &#49688; &#51080;&#51020;</text><polygon fill="#181818" points="651.5,121.95,661.5,125.95,651.5,129.95,655.5,125.95" style="stroke:#181818;stroke-width:1.0;"/><line style="stroke:#181818;stroke-width:1.0;" x1="440.5" x2="657.5" y1="125.95" y2="125.95"/><text fill="#000000" font-family="NanumGothic" font-size="13" lengthAdjust="spacing" textLength="166" x="447.5" y="120.96">AuthorizeRequest(idToken)</text><polygon fill="#181818" points="446.5,150.9,436.5,154.9,446.5,158.9,442.5,154.9" style="stroke:#181818;stroke-width:1.0;"/><line style="stroke:#181818;stroke-width:1.0;stroke-dasharray:2.0,2.0;" x1="440.5" x2="667.5" y1="154.9" y2="154.9"/><text fill="#000000" font-family="NanumGothic" font-size="13" lengthAdjust="spacing" textLength="199" x="452.5" y="149.91">AuthorizeResponse(idTokenInfo)</text><polygon fill="#181818" points="418.5,186.85,428.5,190.85,418.5,194.85,422.5,190.85" style="stroke:#181818;stroke-width:1.0;"/><line style="stroke:#181818;stroke-width:1.0;" x1="25.5" x2="424.5" y1="190.85" y2="190.85"/><text fill="#000000" font-family="NanumGothic" font-size="13" lengthAdjust="spacing" textLength="130" x="32.5" y="185.86">ServiceDiscoveryReq()</text><polygon fill="#181818" points="36.5,215.8,26.5,219.8,36.5,223.8,32.5,219.8" style="stroke:#181818;stroke-width:1.0;"/><line style="stroke:#181818;stroke-width:1.0;stroke-dasharray:2.0,2.0;" x1="30.5" x2="434.5" y1="219.8" y2="219.8"/><text fill="#000000" font-family="NanumGothic" font-size="13" lengthAdjust="spacing" textLength="352" x="42.5" y="214.81">ServiceDiscoveryRes(PaymentServiceList: ExternalPayment)</text><polygon fill="#181818" points="418.5,244.75,428.5,248.75,418.5,252.75,422.5,248.75" style="stroke:#181818;stroke-width:1.0;"/><line style="stroke:#181818;stroke-width:1.0;" x1="25.5" x2="424.5" y1="248.75" y2="248.75"/><text fill="#000000" font-family="NanumGothic" font-size="13" lengthAdjust="spacing" textLength="386" x="32.5" y="243.76">PaymentServiceSelectionReq(paymentOption: ExternalPayment)</text><polygon fill="#181818" points="36.5,273.7,26.5,277.7,36.5,281.7,32.5,277.7" style="stroke:#181818;stroke-width:1.0;"/><line style="stroke:#181818;stroke-width:1.0;stroke-dasharray:2.0,2.0;" x1="30.5" x2="434.5" y1="277.7" y2="277.7"/><text fill="#000000" font-family="NanumGothic" font-size="13" lengthAdjust="spacing" textLength="179" x="42.5" y="272.71">PaymentServiceSelectionRes()</text><polygon fill="#181818" points="418.5,302.65,428.5,306.65,418.5,310.65,422.5,306.65" style="stroke:#181818;stroke-width:1.0;"/><line style="stroke:#181818;stroke-width:1.0;" x1="25.5" x2="424.5" y1="306.65" y2="306.65"/><text fill="#000000" font-family="NanumGothic" font-size="13" lengthAdjust="spacing" textLength="116" x="32.5" y="301.66">AuthorizationReq()</text><path d="M199,321.65 L265,321.65 L265,328.6001 L255,338.6001 L199,338.6001 L199,321.65 " fill="#EEEEEE" style="stroke:#000000;stroke-width:1.5;"/><rect fill="none" height="109.8001" style="stroke:#000000;stroke-width:1.5;" width="506" x="199" y="321.65"/><text fill="#000000" font-family="NanumGothic" font-size="13" font-weight="bold" lengthAdjust="spacing" textLength="21" x="214" y="334.6101">opt</text><text fill="#000000" font-family="NanumGothic" font-size="11" font-weight="bold" lengthAdjust="spacing" textLength="107" x="280" y="333.77">[&#54540;&#47084;&#44536; &#50672;&#44208; &#51060;&#54980; &#51064;&#51613;]</text><path d="M209,343.6001 L209,367.6001 L662,367.6001 L662,353.6001 L652,343.6001 L209,343.6001 " fill="#7D5393" style="stroke:#000000;stroke-width:0.5;"/><path d="M652,343.6001 L652,353.6001 L662,353.6001 L652,343.6001 " fill="#7D5393" style="stroke:#000000;stroke-width:0.5;"/><text fill="#FFFFFF" font-family="NanumGothic" font-size="13" lengthAdjust="spacing" textLength="432" x="215" y="360.5601">&#54540;&#47084;&#44536; &#50672;&#44208; &#51060;&#54980; &#49324;&#50857;&#51088; &#51064;&#51613;&#51060; &#51652;&#54665;&#46112; &#49688; &#51080;&#51004;&#47728;, &#49884;&#53248;&#49828;&#51032; &#53440;&#51076;&#50500;&#50883;&#51008; 60&#52488;&#51076;</text><polygon fill="#181818" points="651.5,390.5001,661.5,394.5001,651.5,398.5001,655.5,394.5001" style="stroke:#181818;stroke-width:1.0;"/><line style="stroke:#181818;stroke-width:1.0;" x1="440.5" x2="657.5" y1="394.5001" y2="394.5001"/><text fill="#000000" font-family="NanumGothic" font-size="13" lengthAdjust="spacing" textLength="166" x="447.5" y="389.5101">AuthorizeRequest(idToken)</text><polygon fill="#181818" points="451.5,419.4501,441.5,423.4501,451.5,427.4501,447.5,423.4501" style="stroke:#181818;stroke-width:1.0;"/><line style="stroke:#181818;stroke-width:1.0;stroke-dasharray:2.0,2.0;" x1="445.5" x2="667.5" y1="423.4501" y2="423.4501"/><text fill="#000000" font-family="NanumGothic" font-size="13" lengthAdjust="spacing" textLength="199" x="457.5" y="418.4601">AuthorizeResponse(idTokenInfo)</text><polygon fill="#181818" points="31.5,455.4001,21.5,459.4001,31.5,463.4001,27.5,459.4001" style="stroke:#181818;stroke-width:1.0;"/><line style="stroke:#181818;stroke-width:1.0;stroke-dasharray:2.0,2.0;" x1="25.5" x2="434.5" y1="459.4001" y2="459.4001"/><text fill="#000000" font-family="NanumGothic" font-size="13" lengthAdjust="spacing" textLength="114" x="37.5" y="454.4101">AuthorizationRes()</text><!--SRC=[hLDDJzj04BtlhvXoIgI2UkB0eL9LVAW4eiALxojd2gkQjUlTH4rFKV4XRJdaK4e4ECs13o5ni2gavi0lIiR_eMl7eKs2qm_XWxsQDpFlZMVV8o5Thrv3KBhfuKfGt_CO2tYeXIi2BZKiMSuIS0MMCnr-lil37I5tmDPS2r_cIPDW4Pkfi3VjSPOvCEO76YWUq4KCT9nGr6S0qjS8VWF3kKvW7iiPdT-QjstHKGVeA1b-JzB3xd2Gc4Otr8_oy8ThEhwYNgTeRX2WooZz-d7KwGErkq2zDiK7fYFAMix8p7c63vQVvZBNu5bTx_gXU8_R-BQEIbT4xPN_1cNL575NYmOtakVL_eBoOI7_mdBMTZftYa45lbGueNWXN_iPJGqN4FqEPbHcACOi1-vZiZ5i21VNXNApdzmq8rMgxAxUhBYKYCtz84DWEVVrL9MNlBc7KXVGXb1w3Qnt6aF9lGAhiWLJbUcVxckZXsu6P6C4OsWh66VEiVtxOALagl9VuYThvXF9YqHbvaY_78o-NGz_38ghdbtoz2GgxlKVtL9Q_bS6ERqTNIMFWJwVfgqMVJgZk0lfVejw4Hr6TB9FSGjMdz1DsqGUraeFwvSxIvIjUMOjCyirbbYmwfy0]--></g></svg>