<?xml version="1.0" encoding="us-ascii" standalone="no"?><svg xmlns="http://www.w3.org/2000/svg" xmlns:xlink="http://www.w3.org/1999/xlink" contentStyleType="text/css" height="540px" preserveAspectRatio="none" style="width:896px;height:540px;background:#FFFFFF;" version="1.1" viewBox="0 0 896 540" width="896px" zoomAndPan="magnify"><defs/><g><rect fill="#FFFFFF" height="287.25" style="stroke:#181818;stroke-width:1.0;" width="10" x="218.5" y="149"/><rect fill="#FFFFFF" height="57.9" style="stroke:#181818;stroke-width:1.0;" width="10" x="218.5" y="457.2"/><rect fill="#FFFFFF" height="28.95" style="stroke:#181818;stroke-width:1.0;" width="10" x="847.5" y="234.85"/><rect fill="#FFFFFF" height="28.95" style="stroke:#181818;stroke-width:1.0;" width="10" x="847.5" y="486.15"/><rect fill="none" height="150.45" style="stroke:#000000;stroke-width:1.5;" width="879" x="10" y="278.8"/><line style="stroke:#181818;stroke-width:0.5;stroke-dasharray:5.0,5.0;" x1="47" x2="47" y1="83.1" y2="533.1"/><line style="stroke:#181818;stroke-width:0.5;stroke-dasharray:5.0,5.0;" x1="223.5" x2="223.5" y1="83.1" y2="533.1"/><line style="stroke:#181818;stroke-width:0.5;stroke-dasharray:5.0,5.0;" x1="852" x2="852" y1="83.1" y2="533.1"/><text fill="#000000" font-family="NanumGothic" font-size="14" lengthAdjust="spacing" textLength="59" x="15" y="79.88">EV Driver</text><ellipse cx="47.5" cy="14.5" fill="#E2E2F0" rx="8" ry="8" style="stroke:#7D5393;stroke-width:1.5;"/><path d="M47.5,22.5 L47.5,49.5 M34.5,30.5 L60.5,30.5 M47.5,49.5 L34.5,64.5 M47.5,49.5 L60.5,64.5 " fill="none" style="stroke:#7D5393;stroke-width:1.5;"/><rect fill="#7D5393" height="30.1" rx="2.5" ry="2.5" style="stroke:#181818;stroke-width:0.5;" width="120" x="163.5" y="52"/><text fill="#FFFFFF" font-family="NanumGothic" font-size="14" lengthAdjust="spacing" textLength="106" x="170.5" y="71.88">Charging Station</text><rect fill="#7D5393" height="30.1" rx="2.5" ry="2.5" style="stroke:#181818;stroke-width:0.5;" width="53" x="826" y="52"/><text fill="#FFFFFF" font-family="NanumGothic" font-size="14" lengthAdjust="spacing" textLength="39" x="833" y="71.88">CSMS</text><rect fill="#FFFFFF" height="287.25" style="stroke:#181818;stroke-width:1.0;" width="10" x="218.5" y="149"/><rect fill="#FFFFFF" height="57.9" style="stroke:#181818;stroke-width:1.0;" width="10" x="218.5" y="457.2"/><rect fill="#FFFFFF" height="28.95" style="stroke:#181818;stroke-width:1.0;" width="10" x="847.5" y="234.85"/><rect fill="#FFFFFF" height="28.95" style="stroke:#181818;stroke-width:1.0;" width="10" x="847.5" y="486.15"/><path d="M20,98.1 L20,122.1 L879,122.1 L879,108.1 L869,98.1 L20,98.1 " fill="#7D5393" style="stroke:#000000;stroke-width:0.5;"/><path d="M869,98.1 L869,108.1 L879,108.1 L869,98.1 " fill="#7D5393" style="stroke:#000000;stroke-width:0.5;"/><text fill="#FFFFFF" font-family="NanumGothic" font-size="13" lengthAdjust="spacing" textLength="88" x="401" y="115.06">&#53944;&#47004;&#51117;&#49496; &#51652;&#54665;&#51473;</text><polygon fill="#181818" points="206.5,145,216.5,149,206.5,153,210.5,149" style="stroke:#181818;stroke-width:1.0;"/><line style="stroke:#181818;stroke-width:1.0;" x1="47.5" x2="212.5" y1="149" y2="149"/><text fill="#000000" font-family="NanumGothic" font-size="13" lengthAdjust="spacing" textLength="152" x="54.5" y="144.01">&#52264;&#50640;&#49436; &#52992;&#51060;&#48660;&#51012; &#50616;&#54540;&#47084;&#44536;&#54632;</text><line style="stroke:#181818;stroke-width:1.0;" x1="228.5" x2="270.5" y1="177.95" y2="177.95"/><line style="stroke:#181818;stroke-width:1.0;" x1="270.5" x2="270.5" y1="177.95" y2="190.95"/><line style="stroke:#181818;stroke-width:1.0;" x1="229.5" x2="270.5" y1="190.95" y2="190.95"/><polygon fill="#181818" points="239.5,186.95,229.5,190.95,239.5,194.95,235.5,190.95" style="stroke:#181818;stroke-width:1.0;"/><text fill="#000000" font-family="NanumGothic" font-size="13" lengthAdjust="spacing" textLength="153" x="235.5" y="172.96">&#50640;&#45320;&#51648; &#51228;&#44277; &#51473;&#45800;(suspend)</text><polygon fill="#181818" points="835.5,230.85,845.5,234.85,835.5,238.85,839.5,234.85" style="stroke:#181818;stroke-width:1.0;"/><line style="stroke:#181818;stroke-width:1.0;" x1="228.5" x2="841.5" y1="234.85" y2="234.85"/><text fill="#000000" font-family="NanumGothic" font-size="13" lengthAdjust="spacing" textLength="592" x="235.5" y="214.91">TransactionEventRequest(eventType = Ended, transactionId = AB1234, seqN = N + 1, timestamp,</text><text fill="#000000" font-family="NanumGothic" font-size="13" lengthAdjust="spacing" textLength="545" x="235.5" y="229.86">triggerReason = EVCommunicationLost, stoppedReason = EVDisconnected, meterValues)</text><polygon fill="#181818" points="239.5,259.8,229.5,263.8,239.5,267.8,235.5,263.8" style="stroke:#181818;stroke-width:1.0;"/><line style="stroke:#181818;stroke-width:1.0;stroke-dasharray:2.0,2.0;" x1="233.5" x2="851.5" y1="263.8" y2="263.8"/><text fill="#000000" font-family="NanumGothic" font-size="13" lengthAdjust="spacing" textLength="171" x="245.5" y="258.81">TransactionEventResponse()</text><path d="M10,278.8 L70,278.8 L70,285.75 L60,295.75 L10,295.75 L10,278.8 " fill="#EEEEEE" style="stroke:#000000;stroke-width:1.5;"/><rect fill="none" height="150.45" style="stroke:#000000;stroke-width:1.5;" width="879" x="10" y="278.8"/><text fill="#000000" font-family="NanumGothic" font-size="13" font-weight="bold" lengthAdjust="spacing" textLength="15" x="25" y="291.76">alt</text><text fill="#000000" font-family="NanumGothic" font-size="11" font-weight="bold" lengthAdjust="spacing" textLength="359" x="85" y="290.92">[&#52992;&#51060;&#48660;&#51060; &#50689;&#44396;&#51201;&#51004;&#47196; &#50672;&#44208;&#46104;&#51648; &#50506;&#51020; &amp; UnlockOnEVSideDisconnect = true]</text><line style="stroke:#181818;stroke-width:1.0;" x1="228.5" x2="270.5" y1="316.7" y2="316.7"/><line style="stroke:#181818;stroke-width:1.0;" x1="270.5" x2="270.5" y1="316.7" y2="329.7"/><line style="stroke:#181818;stroke-width:1.0;" x1="229.5" x2="270.5" y1="329.7" y2="329.7"/><polygon fill="#181818" points="239.5,325.7,229.5,329.7,239.5,333.7,235.5,329.7" style="stroke:#181818;stroke-width:1.0;"/><text fill="#000000" font-family="NanumGothic" font-size="13" lengthAdjust="spacing" textLength="92" x="235.5" y="311.71">&#52964;&#45349;&#53552; &#51104;&#44552; &#54644;&#51228;</text><line style="stroke:#000000;stroke-width:1.0;stroke-dasharray:2.0,2.0;" x1="10" x2="889" y1="338.7" y2="338.7"/><text fill="#000000" font-family="NanumGothic" font-size="11" font-weight="bold" lengthAdjust="spacing" textLength="362" x="15" y="348.82">[&#52992;&#51060;&#48660;&#51060; &#50689;&#44396;&#51201;&#51004;&#47196; &#50672;&#44208;&#46104;&#51648; &#50506;&#51020; &amp; UnlockOnEVSideDisconnect = false]</text><path d="M20,357.35 L20,381.35 L879,381.35 L879,367.35 L869,357.35 L20,357.35 " fill="#7D5393" style="stroke:#000000;stroke-width:0.5;"/><path d="M869,357.35 L869,367.35 L879,367.35 L869,357.35 " fill="#7D5393" style="stroke:#000000;stroke-width:0.5;"/><text fill="#FFFFFF" font-family="NanumGothic" font-size="13" lengthAdjust="spacing" textLength="92" x="399" y="374.31">&#49324;&#50857;&#51088; &#51064;&#51613; &#49457;&#44277;</text><line style="stroke:#181818;stroke-width:1.0;" x1="228.5" x2="270.5" y1="408.25" y2="408.25"/><line style="stroke:#181818;stroke-width:1.0;" x1="270.5" x2="270.5" y1="408.25" y2="421.25"/><line style="stroke:#181818;stroke-width:1.0;" x1="229.5" x2="270.5" y1="421.25" y2="421.25"/><polygon fill="#181818" points="239.5,417.25,229.5,421.25,239.5,425.25,235.5,421.25" style="stroke:#181818;stroke-width:1.0;"/><text fill="#000000" font-family="NanumGothic" font-size="13" lengthAdjust="spacing" textLength="92" x="235.5" y="403.26">&#52964;&#45349;&#53552; &#51104;&#44552; &#54644;&#51228;</text><polygon fill="#181818" points="206.5,453.2,216.5,457.2,206.5,461.2,210.5,457.2" style="stroke:#181818;stroke-width:1.0;"/><line style="stroke:#181818;stroke-width:1.0;" x1="47.5" x2="212.5" y1="457.2" y2="457.2"/><text fill="#000000" font-family="NanumGothic" font-size="13" lengthAdjust="spacing" textLength="64" x="54.5" y="452.21">&#52992;&#51060;&#48660; &#48516;&#47532;</text><polygon fill="#181818" points="835.5,482.15,845.5,486.15,835.5,490.15,839.5,486.15" style="stroke:#181818;stroke-width:1.0;"/><line style="stroke:#181818;stroke-width:1.0;" x1="228.5" x2="841.5" y1="486.15" y2="486.15"/><text fill="#000000" font-family="NanumGothic" font-size="13" lengthAdjust="spacing" textLength="220" x="235.5" y="481.16">StatusNotificationRequest(Available)</text><polygon fill="#181818" points="234.5,511.1,224.5,515.1,234.5,519.1,230.5,515.1" style="stroke:#181818;stroke-width:1.0;"/><line style="stroke:#181818;stroke-width:1.0;stroke-dasharray:2.0,2.0;" x1="228.5" x2="851.5" y1="515.1" y2="515.1"/><text fill="#000000" font-family="NanumGothic" font-size="13" lengthAdjust="spacing" textLength="176" x="240.5" y="510.11">StatusNotificationResponse()</text><!--SRC=[hLD1QnD15BxlhtZc82ccGjLJGQ6sEGWQeQavUHbtN-FWxinsPpRGMoihrDf3XAO9aiG8jOqG8Mgg2_ONPMV_WxD9OsACmQANPUVDUz_tlVU-kKAPQViMWf3RDbvtVSSs369Axa4gMu0rZvRGIm4Ha2qC3uPBF4bDwX8c8RNwb7X5oegGbqHIpWQfe-15RAeY_o0_pD8_Xi6uHE0QzoT1PdW34E-7KREkcX_LYngeqo0-UgcENnl8B4Yg36DK0OjtfZcNGNNRgbfMGHtK-OvgzABmK3K2K4TXV7WGlUtqluLnfPtqIaj4QvWMRKm5PfDKor6mfqvtGBNg_Izde0L6hzffuGjNwroOZQBRMmQ03OymaV1pbYqXa-kuvQEGQKmE6zikmct8CWkj3CXnwZrBXrVkBjsuUIi30hTo-fY3Qx2aiwYZwudZPW0UC-dHOX6zTIH2ysgemYft79zHSw3aFXTI0qZkkcXD9ArHONB6q9G9iOCIlGAnjR25YLaDLfTyON7MM7xlJBYS2Kml61PEeH1RJcwe1wgssp_hgDQkgfz7x_Jwgjt-vsvKhWt6NDbNZGEu2e-OpSrd3rcsaASMZaNh7gJdexRFN-tl-t4Kl8-3BgXcgn_kGLpfwKqQQ0lypwesYSRKikOO7a0zxwWt7rIp3AeHgfC6gE2JjfM-6xl-7pjZrYyxc7Rz_3SrcWX4NuFef7F9rpFmVHBmHOvBkddXn97lLqg4skI9ZPTmsYoqFtfjJjy_0000]--></g></svg>