<?xml version="1.0" encoding="us-ascii" standalone="no"?><svg xmlns="http://www.w3.org/2000/svg" xmlns:xlink="http://www.w3.org/1999/xlink" contentStyleType="text/css" height="624px" preserveAspectRatio="none" style="width:497px;height:624px;background:#FFFFFF;" version="1.1" viewBox="0 0 497 624" width="497px" zoomAndPan="magnify"><defs/><g><rect fill="#FFFFFF" height="515.25" style="stroke:#181818;stroke-width:1.0;" width="10" x="150" y="93.1"/><rect fill="#FFFFFF" height="28.95" style="stroke:#181818;stroke-width:1.0;" width="10" x="445" y="439.6"/><rect fill="#FFFFFF" height="28.95" style="stroke:#181818;stroke-width:1.0;" width="10" x="445" y="563.4"/><rect fill="none" height="45.9" style="stroke:#000000;stroke-width:1.5;" width="215" x="10" y="170"/><rect fill="none" height="74.85" style="stroke:#000000;stroke-width:1.5;" width="401.5" x="85" y="525.5"/><line style="stroke:#181818;stroke-width:0.5;stroke-dasharray:5.0,5.0;" x1="52" x2="52" y1="83.1" y2="617.35"/><line style="stroke:#181818;stroke-width:0.5;stroke-dasharray:5.0,5.0;" x1="155" x2="155" y1="83.1" y2="617.35"/><line style="stroke:#181818;stroke-width:0.5;stroke-dasharray:5.0,5.0;" x1="449.5" x2="449.5" y1="83.1" y2="617.35"/><text fill="#000000" font-family="NanumGothic" font-size="14" lengthAdjust="spacing" textLength="59" x="20" y="79.88">EV Driver</text><ellipse cx="52.5" cy="14.5" fill="#E2E2F0" rx="8" ry="8" style="stroke:#7D5393;stroke-width:1.5;"/><path d="M52.5,22.5 L52.5,49.5 M39.5,30.5 L65.5,30.5 M52.5,49.5 L39.5,64.5 M52.5,49.5 L65.5,64.5 " fill="none" style="stroke:#7D5393;stroke-width:1.5;"/><rect fill="#7D5393" height="30.1" rx="2.5" ry="2.5" style="stroke:#181818;stroke-width:0.5;" width="120" x="95" y="52"/><text fill="#FFFFFF" font-family="NanumGothic" font-size="14" lengthAdjust="spacing" textLength="106" x="102" y="71.88">Charging Station</text><rect fill="#7D5393" height="30.1" rx="2.5" ry="2.5" style="stroke:#181818;stroke-width:0.5;" width="53" x="423.5" y="52"/><text fill="#FFFFFF" font-family="NanumGothic" font-size="14" lengthAdjust="spacing" textLength="39" x="430.5" y="71.88">CSMS</text><rect fill="#FFFFFF" height="515.25" style="stroke:#181818;stroke-width:1.0;" width="10" x="150" y="93.1"/><rect fill="#FFFFFF" height="28.95" style="stroke:#181818;stroke-width:1.0;" width="10" x="445" y="439.6"/><rect fill="#FFFFFF" height="28.95" style="stroke:#181818;stroke-width:1.0;" width="10" x="445" y="563.4"/><path d="M114,98.1 L114,122.1 L490,122.1 L490,108.1 L480,98.1 L114,98.1 " fill="#7D5393" style="stroke:#000000;stroke-width:0.5;"/><path d="M480,98.1 L480,108.1 L490,108.1 L480,98.1 " fill="#7D5393" style="stroke:#000000;stroke-width:0.5;"/><text fill="#FFFFFF" font-family="NanumGothic" font-size="13" lengthAdjust="spacing" textLength="164" x="215.75" y="115.06">&#52649;&#51204;&#44592;&#44032; &#50724;&#54532;&#46972;&#51064; &#49345;&#53468;&#51077;&#45768;&#45796;</text><path d="M25,133.05 L25,157.05 L476,157.05 L476,143.05 L466,133.05 L25,133.05 " fill="#7D5393" style="stroke:#000000;stroke-width:0.5;"/><path d="M466,133.05 L466,143.05 L476,143.05 L466,133.05 " fill="#7D5393" style="stroke:#000000;stroke-width:0.5;"/><text fill="#FFFFFF" font-family="NanumGothic" font-size="13" lengthAdjust="spacing" textLength="144" x="174.25" y="150.01">&#50724;&#54532;&#46972;&#51064; &#49324;&#50857;&#51088; &#51064;&#51613; &#49457;&#44277;</text><path d="M10,170 L76,170 L76,176.95 L66,186.95 L10,186.95 L10,170 " fill="#EEEEEE" style="stroke:#000000;stroke-width:1.5;"/><rect fill="none" height="45.9" style="stroke:#000000;stroke-width:1.5;" width="215" x="10" y="170"/><text fill="#000000" font-family="NanumGothic" font-size="13" font-weight="bold" lengthAdjust="spacing" textLength="21" x="25" y="182.96">opt</text><polygon fill="#181818" points="63.5,203.9,53.5,207.9,63.5,211.9,59.5,207.9" style="stroke:#181818;stroke-width:1.0;"/><line style="stroke:#181818;stroke-width:1.0;" x1="57.5" x2="149" y1="207.9" y2="207.9"/><text fill="#000000" font-family="NanumGothic" font-size="13" lengthAdjust="spacing" textLength="24" x="69.5" y="202.91">&#50508;&#47548;</text><line style="stroke:#181818;stroke-width:1.0;" x1="160" x2="202" y1="243.85" y2="243.85"/><line style="stroke:#181818;stroke-width:1.0;" x1="202" x2="202" y1="243.85" y2="256.85"/><line style="stroke:#181818;stroke-width:1.0;" x1="161" x2="202" y1="256.85" y2="256.85"/><polygon fill="#181818" points="171,252.85,161,256.85,171,260.85,167,256.85" style="stroke:#181818;stroke-width:1.0;"/><text fill="#000000" font-family="NanumGothic" font-size="13" lengthAdjust="spacing" textLength="64" x="167" y="238.86">&#52964;&#45349;&#53552; &#51104;&#44552;</text><line style="stroke:#181818;stroke-width:1.0;" x1="160" x2="202" y1="285.8" y2="285.8"/><line style="stroke:#181818;stroke-width:1.0;" x1="202" x2="202" y1="285.8" y2="298.8"/><line style="stroke:#181818;stroke-width:1.0;" x1="161" x2="202" y1="298.8" y2="298.8"/><polygon fill="#181818" points="171,294.8,161,298.8,171,302.8,167,298.8" style="stroke:#181818;stroke-width:1.0;"/><text fill="#000000" font-family="NanumGothic" font-size="13" lengthAdjust="spacing" textLength="92" x="167" y="280.81">&#50640;&#45320;&#51648; &#51228;&#44277; &#49884;&#51089;</text><line style="stroke:#181818;stroke-width:1.0;" x1="160" x2="202" y1="327.75" y2="327.75"/><line style="stroke:#181818;stroke-width:1.0;" x1="202" x2="202" y1="327.75" y2="340.75"/><line style="stroke:#181818;stroke-width:1.0;" x1="161" x2="202" y1="340.75" y2="340.75"/><polygon fill="#181818" points="171,336.75,161,340.75,171,344.75,167,340.75" style="stroke:#181818;stroke-width:1.0;"/><text fill="#000000" font-family="NanumGothic" font-size="13" lengthAdjust="spacing" textLength="271" x="167" y="322.76">TransactionEventRequest(offline = true) &#51200;&#51109;</text><path d="M114,353.75 L114,377.75 L490,377.75 L490,363.75 L480,353.75 L114,353.75 " fill="#7D5393" style="stroke:#000000;stroke-width:0.5;"/><path d="M480,353.75 L480,363.75 L490,363.75 L480,353.75 " fill="#7D5393" style="stroke:#000000;stroke-width:0.5;"/><text fill="#FFFFFF" font-family="NanumGothic" font-size="13" lengthAdjust="spacing" textLength="252" x="171.75" y="370.71">&#50672;&#44208; &#45130;&#44608;&#51008; &#47751; &#48516; &#46608;&#45716; &#47728;&#52832;&#51060; &#46112; &#49688; &#51080;&#49845;&#45768;&#45796;.</text><path d="M114,388.7 L114,412.7 L490,412.7 L490,398.7 L480,388.7 L114,388.7 " fill="#7D5393" style="stroke:#000000;stroke-width:0.5;"/><path d="M480,388.7 L480,398.7 L490,398.7 L480,388.7 " fill="#7D5393" style="stroke:#000000;stroke-width:0.5;"/><text fill="#FFFFFF" font-family="NanumGothic" font-size="13" lengthAdjust="spacing" textLength="64" x="265.75" y="405.66">&#50672;&#44208; &#48373;&#44396;&#46120;</text><polygon fill="#181818" points="433,435.6,443,439.6,433,443.6,437,439.6" style="stroke:#181818;stroke-width:1.0;"/><line style="stroke:#181818;stroke-width:1.0;" x1="160" x2="439" y1="439.6" y2="439.6"/><text fill="#000000" font-family="NanumGothic" font-size="13" lengthAdjust="spacing" textLength="119" x="167" y="434.61">HeartbeatRequest()</text><polygon fill="#181818" points="171,464.55,161,468.55,171,472.55,167,468.55" style="stroke:#181818;stroke-width:1.0;"/><line style="stroke:#181818;stroke-width:1.0;stroke-dasharray:2.0,2.0;" x1="165" x2="449" y1="468.55" y2="468.55"/><text fill="#000000" font-family="NanumGothic" font-size="13" lengthAdjust="spacing" textLength="128" x="177" y="463.56">HeartbeatResponse()</text><line style="stroke:#181818;stroke-width:1.0;" x1="160" x2="202" y1="497.5" y2="497.5"/><line style="stroke:#181818;stroke-width:1.0;" x1="202" x2="202" y1="497.5" y2="510.5"/><line style="stroke:#181818;stroke-width:1.0;" x1="161" x2="202" y1="510.5" y2="510.5"/><polygon fill="#181818" points="171,506.5,161,510.5,171,514.5,167,510.5" style="stroke:#181818;stroke-width:1.0;"/><text fill="#000000" font-family="NanumGothic" font-size="13" lengthAdjust="spacing" textLength="132" x="167" y="492.51">&#53328;&#50640; &#51200;&#51109;&#46108; &#47700;&#49884;&#51648; &#51204;&#49569;</text><path d="M85,525.5 L157,525.5 L157,532.45 L147,542.45 L85,542.45 L85,525.5 " fill="#EEEEEE" style="stroke:#000000;stroke-width:1.5;"/><rect fill="none" height="74.85" style="stroke:#000000;stroke-width:1.5;" width="401.5" x="85" y="525.5"/><text fill="#000000" font-family="NanumGothic" font-size="13" font-weight="bold" lengthAdjust="spacing" textLength="27" x="100" y="538.46">loop</text><text fill="#000000" font-family="NanumGothic" font-size="11" font-weight="bold" lengthAdjust="spacing" textLength="193" x="172" y="537.62">[&#53328;&#50640; &#51200;&#51109;&#46108; &#47784;&#46304; &#53944;&#47004;&#51117;&#49496; &#47700;&#49884;&#51648;&#50640; &#45824;&#54644;]</text><polygon fill="#181818" points="433,559.4,443,563.4,433,567.4,437,563.4" style="stroke:#181818;stroke-width:1.0;"/><line style="stroke:#181818;stroke-width:1.0;" x1="160" x2="439" y1="563.4" y2="563.4"/><text fill="#000000" font-family="NanumGothic" font-size="13" lengthAdjust="spacing" textLength="243" x="167" y="558.41">TransactionEventRequest(offline = true)</text><polygon fill="#181818" points="171,588.35,161,592.35,171,596.35,167,592.35" style="stroke:#181818;stroke-width:1.0;"/><line style="stroke:#181818;stroke-width:1.0;stroke-dasharray:2.0,2.0;" x1="165" x2="449" y1="592.35" y2="592.35"/><text fill="#000000" font-family="NanumGothic" font-size="13" lengthAdjust="spacing" textLength="183" x="177" y="587.36">TransactionEventResponse(...)</text><!--SRC=[ZLF1RjD04BtlLmmvKOdw0oh11I9nuTAWtasoBPRCsjYRIDmSweALz614gaOejeoKbgPg9KERAXNz8k_u7rZ7QMjS8tonlEDvR_QzDtwaiRRUxL2m-GUTAcRtdKw8skQ61Otc5homj1wr6g3QqDpA3yHKBQwrDLDb71hFtwhMZiPseCLLhXbisNfRNDLAYDQhLjubNvQpj9xAwGCGCsJHa0FBNvxaI02ycc7a9eiuYHt0yJGTkIAumM01kDjFToSOxecX9uPJGba7CZvIOBtLSq_t5yF7C_msmz07USBZ0D3zcLpC2qo6oIMeT3TOVtP7l05ui2-ERp8C8HMDfPBi_pqLxb7gne1Xb2oycgX3NxWU_f0UH1DvHy2XbFwb7lYrfJ8xoy1WpHvbV9E-xrARFpQsjtMDKNWAtEhIDKdjO7X4wgHo62U_OX3zGNBjOE20EFqCuie5CVR5O0HY5kDrXC4b23y2zCPIh8U3UHwLKfdL_sPTp9FvcV1F2k0gyHAq0I-ftCOtLBsJkbROmULAPazOhtAhWBLDWzbKWZkq3AzXUzhtPMmhLuK_aQwCijYM8RhuwJiXkc6O5Nsd9-9h1EbW8KAPyZdkZU-nMQlOTzA3o-hDp0se6RcaA0a3-BSp3qbN1YcAab6LNSh-YJy0]--></g></svg>