<?xml version="1.0" encoding="us-ascii" standalone="no"?><svg xmlns="http://www.w3.org/2000/svg" xmlns:xlink="http://www.w3.org/1999/xlink" contentStyleType="text/css" height="443px" preserveAspectRatio="none" style="width:487px;height:443px;background:#FFFFFF;" version="1.1" viewBox="0 0 487 443" width="487px" zoomAndPan="magnify"><defs/><g><rect fill="#FFFFFF" height="234.5501" style="stroke:#181818;stroke-width:1.0;" width="10" x="47.5" y="93.0999"/><rect fill="#FFFFFF" height="313.5001" style="stroke:#181818;stroke-width:1.0;" width="10" x="190.5" y="114.0499"/><rect fill="none" height="74.85" style="stroke:#000000;stroke-width:1.5;" width="356" x="125.5" y="185.95"/><rect fill="none" height="60.85" style="stroke:#000000;stroke-width:1.5;" width="255.5" x="10" y="274.8"/><line style="stroke:#181818;stroke-width:0.5;stroke-dasharray:5.0,5.0;" x1="52" x2="52" y1="83.0999" y2="436.5501"/><line style="stroke:#181818;stroke-width:0.5;stroke-dasharray:5.0,5.0;" x1="195.5" x2="195.5" y1="83.0999" y2="436.5501"/><line style="stroke:#181818;stroke-width:0.5;stroke-dasharray:5.0,5.0;" x1="407" x2="407" y1="83.0999" y2="436.5501"/><text fill="#000000" font-family="NanumGothic" font-size="14" lengthAdjust="spacing" textLength="59" x="20" y="79.8799">EV Driver</text><ellipse cx="52.5" cy="14.5" fill="#E2E2F0" rx="8" ry="8" style="stroke:#7D5393;stroke-width:1.5;"/><path d="M52.5,22.5 L52.5,49.5 M39.5,30.5 L65.5,30.5 M52.5,49.5 L39.5,64.5 M52.5,49.5 L65.5,64.5 " fill="none" style="stroke:#7D5393;stroke-width:1.5;"/><rect fill="#7D5393" height="30.0999" rx="2.5" ry="2.5" style="stroke:#181818;stroke-width:0.5;" width="120" x="135.5" y="52"/><text fill="#FFFFFF" font-family="NanumGothic" font-size="14" lengthAdjust="spacing" textLength="106" x="142.5" y="71.8799">Charging Station</text><rect fill="#7D5393" height="30.0999" rx="2.5" ry="2.5" style="stroke:#181818;stroke-width:0.5;" width="53" x="381" y="52"/><text fill="#FFFFFF" font-family="NanumGothic" font-size="14" lengthAdjust="spacing" textLength="39" x="388" y="71.8799">CSMS</text><rect fill="#FFFFFF" height="234.5501" style="stroke:#181818;stroke-width:1.0;" width="10" x="47.5" y="93.0999"/><rect fill="#FFFFFF" height="313.5001" style="stroke:#181818;stroke-width:1.0;" width="10" x="190.5" y="114.0499"/><polygon fill="#181818" points="178.5,110.0499,188.5,114.0499,178.5,118.0499,182.5,114.0499" style="stroke:#181818;stroke-width:1.0;"/><line style="stroke:#181818;stroke-width:1.0;" x1="57.5" x2="184.5" y1="114.0499" y2="114.0499"/><text fill="#000000" font-family="NanumGothic" font-size="13" lengthAdjust="spacing" textLength="76" x="64.5" y="109.0599">IdToken &#51228;&#49884;</text><line style="stroke:#181818;stroke-width:1.0;" x1="200.5" x2="242.5" y1="157.95" y2="157.95"/><line style="stroke:#181818;stroke-width:1.0;" x1="242.5" x2="242.5" y1="157.95" y2="170.95"/><line style="stroke:#181818;stroke-width:1.0;" x1="201.5" x2="242.5" y1="170.95" y2="170.95"/><polygon fill="#181818" points="211.5,166.95,201.5,170.95,211.5,174.95,207.5,170.95" style="stroke:#181818;stroke-width:1.0;"/><text fill="#000000" font-family="NanumGothic" font-size="13" lengthAdjust="spacing" textLength="171" x="207.5" y="138.01">local authorization list() &#54869;&#51064;</text><text fill="#000000" font-family="NanumGothic" font-size="13" lengthAdjust="spacing" textLength="155" x="207.5" y="152.96">[cached tariff: 0.23/kWh]</text><path d="M125.5,185.95 L185.5,185.95 L185.5,192.9 L175.5,202.9 L125.5,202.9 L125.5,185.95 " fill="#EEEEEE" style="stroke:#000000;stroke-width:1.5;"/><rect fill="none" height="74.85" style="stroke:#000000;stroke-width:1.5;" width="356" x="125.5" y="185.95"/><text fill="#000000" font-family="NanumGothic" font-size="13" font-weight="bold" lengthAdjust="spacing" textLength="15" x="140.5" y="198.91">alt</text><text fill="#000000" font-family="NanumGothic" font-size="11" font-weight="bold" lengthAdjust="spacing" textLength="276" x="200.5" y="198.0699">[&#50508;&#47140;&#51652; IdToken&#51060; &#50500;&#45768;&#44144;&#45208; &#49345;&#53468;&#44032; Accepted&#44032; &#50500;&#45772; &#44221;&#50864;]</text><polygon fill="#181818" points="395.5,219.85,405.5,223.85,395.5,227.85,399.5,223.85" style="stroke:#181818;stroke-width:1.0;"/><line style="stroke:#181818;stroke-width:1.0;" x1="200.5" x2="401.5" y1="223.85" y2="223.85"/><text fill="#000000" font-family="NanumGothic" font-size="13" lengthAdjust="spacing" textLength="166" x="207.5" y="218.86">AuthorizeRequest(IdToken)</text><polygon fill="#181818" points="211.5,248.8,201.5,252.8,211.5,256.8,207.5,252.8" style="stroke:#181818;stroke-width:1.0;"/><line style="stroke:#181818;stroke-width:1.0;" x1="205.5" x2="406.5" y1="252.8" y2="252.8"/><text fill="#000000" font-family="NanumGothic" font-size="13" lengthAdjust="spacing" textLength="183" x="217.5" y="247.81">AuthorizeResponse(Accepted)</text><path d="M10,274.8 L76,274.8 L76,281.75 L66,291.75 L10,291.75 L10,274.8 " fill="#EEEEEE" style="stroke:#000000;stroke-width:1.5;"/><rect fill="none" height="60.85" style="stroke:#000000;stroke-width:1.5;" width="255.5" x="10" y="274.8"/><text fill="#000000" font-family="NanumGothic" font-size="13" font-weight="bold" lengthAdjust="spacing" textLength="21" x="25" y="287.76">opt</text><polygon fill="#181818" points="63.5,323.65,53.5,327.65,63.5,331.65,59.5,327.65" style="stroke:#181818;stroke-width:1.0;"/><line style="stroke:#181818;stroke-width:1.0;" x1="57.5" x2="189.5" y1="327.65" y2="327.65"/><text fill="#000000" font-family="NanumGothic" font-size="13" lengthAdjust="spacing" textLength="24" x="69.5" y="307.71">&#50508;&#47548;</text><text fill="#000000" font-family="NanumGothic" font-size="13" lengthAdjust="spacing" textLength="109" x="69.5" y="322.66">[tariff: 0.23/kWh]</text><line style="stroke:#181818;stroke-width:1.0;" x1="200.5" x2="242.5" y1="363.6001" y2="363.6001"/><line style="stroke:#181818;stroke-width:1.0;" x1="242.5" x2="242.5" y1="363.6001" y2="376.6001"/><line style="stroke:#181818;stroke-width:1.0;" x1="201.5" x2="242.5" y1="376.6001" y2="376.6001"/><polygon fill="#181818" points="211.5,372.6001,201.5,376.6001,211.5,380.6001,207.5,376.6001" style="stroke:#181818;stroke-width:1.0;"/><text fill="#000000" font-family="NanumGothic" font-size="13" lengthAdjust="spacing" textLength="64" x="207.5" y="358.6101">&#52964;&#45349;&#53552; &#51104;&#44552;</text><line style="stroke:#181818;stroke-width:1.0;" x1="200.5" x2="242.5" y1="405.5501" y2="405.5501"/><line style="stroke:#181818;stroke-width:1.0;" x1="242.5" x2="242.5" y1="405.5501" y2="418.5501"/><line style="stroke:#181818;stroke-width:1.0;" x1="201.5" x2="242.5" y1="418.5501" y2="418.5501"/><polygon fill="#181818" points="211.5,414.5501,201.5,418.5501,211.5,422.5501,207.5,418.5501" style="stroke:#181818;stroke-width:1.0;"/><text fill="#000000" font-family="NanumGothic" font-size="13" lengthAdjust="spacing" textLength="92" x="207.5" y="400.5601">&#50640;&#45320;&#51648; &#51228;&#44277; &#49884;&#51089;</text><!--SRC=[ZL8zJy9G5DtVhxWomI0QtHXCZ38uk8Z1GHrUNX_qXThMzfL49vGE933eGFm840QKjNub9EeVQX__mTT2WoaTsCwxEUUUS-zzQqmdcgDGiFcLHlEcSw4XX0atBCWKox1liJgrCe1jA9Pd3sHYYpF2JAnpoEofsAeolGebZZapz8WQ5-UrXA9qM9gn98YyM1rpkkWV0rZVINOgm85oRDIe3cBO4-tUGfsqH8b2QZC0pI1O0-nmrR3OzOofCPjdSp1zweh-H7BEz5E2YKeLuDXYbKe1DlDRsnkr4_LSnjSuY6ud68x4s8tJYVwdBBf1k-M_US7j8uZcpRJPyxq6x192JKwL44UK3lZll-BPGm1faUME2h0xpqUFwAL3PRgvJmw5Aab9dUwVoZODtQRPs3o7gAuWP9WSqctZ4uGhWcY-rvy8obqiBm50eSjdZ2nMkOBu7WNkozJrG0o6_gIrekhXBd1ROjm8luB_yGNoEuZ1FVe3]--></g></svg>