<?xml version="1.0" encoding="us-ascii" standalone="no"?><svg xmlns="http://www.w3.org/2000/svg" xmlns:xlink="http://www.w3.org/1999/xlink" contentStyleType="text/css" height="587px" preserveAspectRatio="none" style="width:692px;height:587px;background:#FFFFFF;" version="1.1" viewBox="0 0 692 587" width="692px" zoomAndPan="magnify"><defs/><g><rect fill="#FFFFFF" height="260.55" style="stroke:#181818;stroke-width:1.0;" width="10" x="47.5" y="93.1"/><rect fill="#FFFFFF" height="115.8" style="stroke:#181818;stroke-width:1.0;" width="10" x="152.5" y="114.05"/><rect fill="#FFFFFF" height="303.55" style="stroke:#181818;stroke-width:1.0;" width="10" x="152.5" y="258.8"/><rect fill="#FFFFFF" height="28.95" style="stroke:#181818;stroke-width:1.0;" width="10" x="654.5" y="143"/><rect fill="#FFFFFF" height="28.95" style="stroke:#181818;stroke-width:1.0;" width="10" x="654.5" y="200.9"/><rect fill="#FFFFFF" height="28.95" style="stroke:#181818;stroke-width:1.0;" width="10" x="654.5" y="504.45"/><rect fill="none" height="45.9" style="stroke:#000000;stroke-width:1.5;" width="217.5" x="10" y="315.75"/><rect fill="none" height="58.9" style="stroke:#000000;stroke-width:1.5;" width="349" x="87.5" y="375.65"/><line style="stroke:#181818;stroke-width:0.5;stroke-dasharray:5.0,5.0;" x1="52" x2="52" y1="83.1" y2="580.35"/><line style="stroke:#181818;stroke-width:0.5;stroke-dasharray:5.0,5.0;" x1="157.5" x2="157.5" y1="83.1" y2="580.35"/><line style="stroke:#181818;stroke-width:0.5;stroke-dasharray:5.0,5.0;" x1="659" x2="659" y1="83.1" y2="580.35"/><text fill="#000000" font-family="NanumGothic" font-size="14" lengthAdjust="spacing" textLength="59" x="20" y="79.88">EV Driver</text><ellipse cx="52.5" cy="14.5" fill="#E2E2F0" rx="8" ry="8" style="stroke:#7D5393;stroke-width:1.5;"/><path d="M52.5,22.5 L52.5,49.5 M39.5,30.5 L65.5,30.5 M52.5,49.5 L39.5,64.5 M52.5,49.5 L65.5,64.5 " fill="none" style="stroke:#7D5393;stroke-width:1.5;"/><rect fill="#7D5393" height="30.1" rx="2.5" ry="2.5" style="stroke:#181818;stroke-width:0.5;" width="120" x="97.5" y="52"/><text fill="#FFFFFF" font-family="NanumGothic" font-size="14" lengthAdjust="spacing" textLength="106" x="104.5" y="71.88">Charging Station</text><rect fill="#7D5393" height="30.1" rx="2.5" ry="2.5" style="stroke:#181818;stroke-width:0.5;" width="53" x="633" y="52"/><text fill="#FFFFFF" font-family="NanumGothic" font-size="14" lengthAdjust="spacing" textLength="39" x="640" y="71.88">CSMS</text><rect fill="#FFFFFF" height="260.55" style="stroke:#181818;stroke-width:1.0;" width="10" x="47.5" y="93.1"/><rect fill="#FFFFFF" height="115.8" style="stroke:#181818;stroke-width:1.0;" width="10" x="152.5" y="114.05"/><rect fill="#FFFFFF" height="303.55" style="stroke:#181818;stroke-width:1.0;" width="10" x="152.5" y="258.8"/><rect fill="#FFFFFF" height="28.95" style="stroke:#181818;stroke-width:1.0;" width="10" x="654.5" y="143"/><rect fill="#FFFFFF" height="28.95" style="stroke:#181818;stroke-width:1.0;" width="10" x="654.5" y="200.9"/><rect fill="#FFFFFF" height="28.95" style="stroke:#181818;stroke-width:1.0;" width="10" x="654.5" y="504.45"/><polygon fill="#181818" points="140.5,110.05,150.5,114.05,140.5,118.05,144.5,114.05" style="stroke:#181818;stroke-width:1.0;"/><line style="stroke:#181818;stroke-width:1.0;" x1="57.5" x2="146.5" y1="114.05" y2="114.05"/><text fill="#000000" font-family="NanumGothic" font-size="13" lengthAdjust="spacing" textLength="64" x="64.5" y="109.06">&#52992;&#51060;&#48660; &#50672;&#44208;</text><polygon fill="#181818" points="642.5,139,652.5,143,642.5,147,646.5,143" style="stroke:#181818;stroke-width:1.0;"/><line style="stroke:#181818;stroke-width:1.0;" x1="162.5" x2="648.5" y1="143" y2="143"/><text fill="#000000" font-family="NanumGothic" font-size="13" lengthAdjust="spacing" textLength="223" x="169.5" y="138.01">StatusNotificationRequest(Occupied)</text><polygon fill="#181818" points="173.5,167.95,163.5,171.95,173.5,175.95,169.5,171.95" style="stroke:#181818;stroke-width:1.0;"/><line style="stroke:#181818;stroke-width:1.0;stroke-dasharray:2.0,2.0;" x1="167.5" x2="658.5" y1="171.95" y2="171.95"/><text fill="#000000" font-family="NanumGothic" font-size="13" lengthAdjust="spacing" textLength="176" x="179.5" y="166.96">StatusNotificationResponse()</text><polygon fill="#181818" points="642.5,196.9,652.5,200.9,642.5,204.9,646.5,200.9" style="stroke:#181818;stroke-width:1.0;"/><line style="stroke:#181818;stroke-width:1.0;" x1="162.5" x2="648.5" y1="200.9" y2="200.9"/><text fill="#000000" font-family="NanumGothic" font-size="13" lengthAdjust="spacing" textLength="300" x="169.5" y="195.91">TransactionEventRequest(eventType = Started,...)</text><polygon fill="#181818" points="168.5,225.85,158.5,229.85,168.5,233.85,164.5,229.85" style="stroke:#181818;stroke-width:1.0;"/><line style="stroke:#181818;stroke-width:1.0;stroke-dasharray:2.0,2.0;" x1="162.5" x2="658.5" y1="229.85" y2="229.85"/><text fill="#000000" font-family="NanumGothic" font-size="13" lengthAdjust="spacing" textLength="183" x="174.5" y="224.86">TransactionEventResponse(...)</text><polygon fill="#181818" points="140.5,254.8,150.5,258.8,140.5,262.8,144.5,258.8" style="stroke:#181818;stroke-width:1.0;"/><line style="stroke:#181818;stroke-width:1.0;" x1="57.5" x2="146.5" y1="258.8" y2="258.8"/><text fill="#000000" font-family="NanumGothic" font-size="13" lengthAdjust="spacing" textLength="76" x="64.5" y="253.81">IdToken &#51228;&#49884;</text><line style="stroke:#181818;stroke-width:1.0;" x1="162.5" x2="204.5" y1="287.75" y2="287.75"/><line style="stroke:#181818;stroke-width:1.0;" x1="204.5" x2="204.5" y1="287.75" y2="300.75"/><line style="stroke:#181818;stroke-width:1.0;" x1="163.5" x2="204.5" y1="300.75" y2="300.75"/><polygon fill="#181818" points="173.5,296.75,163.5,300.75,173.5,304.75,169.5,300.75" style="stroke:#181818;stroke-width:1.0;"/><text fill="#000000" font-family="NanumGothic" font-size="13" lengthAdjust="spacing" textLength="157" x="169.5" y="282.76">authorization cache() &#54869;&#51064;</text><path d="M10,315.75 L76,315.75 L76,322.7 L66,332.7 L10,332.7 L10,315.75 " fill="#EEEEEE" style="stroke:#000000;stroke-width:1.5;"/><rect fill="none" height="45.9" style="stroke:#000000;stroke-width:1.5;" width="217.5" x="10" y="315.75"/><text fill="#000000" font-family="NanumGothic" font-size="13" font-weight="bold" lengthAdjust="spacing" textLength="21" x="25" y="328.71">opt</text><polygon fill="#181818" points="63.5,349.65,53.5,353.65,63.5,357.65,59.5,353.65" style="stroke:#181818;stroke-width:1.0;"/><line style="stroke:#181818;stroke-width:1.0;" x1="57.5" x2="151.5" y1="353.65" y2="353.65"/><text fill="#000000" font-family="NanumGothic" font-size="13" lengthAdjust="spacing" textLength="24" x="69.5" y="348.66">&#50508;&#47548;</text><path d="M87.5,375.65 L153.5,375.65 L153.5,382.6 L143.5,392.6 L87.5,392.6 L87.5,375.65 " fill="#EEEEEE" style="stroke:#000000;stroke-width:1.5;"/><rect fill="none" height="58.9" style="stroke:#000000;stroke-width:1.5;" width="349" x="87.5" y="375.65"/><text fill="#000000" font-family="NanumGothic" font-size="13" font-weight="bold" lengthAdjust="spacing" textLength="21" x="102.5" y="388.61">opt</text><text fill="#000000" font-family="NanumGothic" font-size="11" font-weight="bold" lengthAdjust="spacing" textLength="263" x="168.5" y="387.77">[&#52964;&#45349;&#53552;&#44032; &#50689;&#44396;&#51201;&#51004;&#47196;(permanently) &#44208;&#54633;&#46104;&#51648; &#50506;&#51008; &#44221;&#50864;]</text><line style="stroke:#181818;stroke-width:1.0;" x1="162.5" x2="204.5" y1="413.55" y2="413.55"/><line style="stroke:#181818;stroke-width:1.0;" x1="204.5" x2="204.5" y1="413.55" y2="426.55"/><line style="stroke:#181818;stroke-width:1.0;" x1="163.5" x2="204.5" y1="426.55" y2="426.55"/><polygon fill="#181818" points="173.5,422.55,163.5,426.55,173.5,430.55,169.5,426.55" style="stroke:#181818;stroke-width:1.0;"/><text fill="#000000" font-family="NanumGothic" font-size="13" lengthAdjust="spacing" textLength="64" x="169.5" y="408.56">&#52964;&#45349;&#53552; &#51104;&#44552;</text><line style="stroke:#181818;stroke-width:1.0;" x1="162.5" x2="204.5" y1="462.5" y2="462.5"/><line style="stroke:#181818;stroke-width:1.0;" x1="204.5" x2="204.5" y1="462.5" y2="475.5"/><line style="stroke:#181818;stroke-width:1.0;" x1="163.5" x2="204.5" y1="475.5" y2="475.5"/><polygon fill="#181818" points="173.5,471.5,163.5,475.5,173.5,479.5,169.5,475.5" style="stroke:#181818;stroke-width:1.0;"/><text fill="#000000" font-family="NanumGothic" font-size="13" lengthAdjust="spacing" textLength="92" x="169.5" y="457.51">&#50640;&#45320;&#51648; &#51228;&#44277; &#49884;&#51089;</text><polygon fill="#181818" points="642.5,500.45,652.5,504.45,642.5,508.45,646.5,504.45" style="stroke:#181818;stroke-width:1.0;"/><line style="stroke:#181818;stroke-width:1.0;" x1="162.5" x2="648.5" y1="504.45" y2="504.45"/><text fill="#000000" font-family="NanumGothic" font-size="13" lengthAdjust="spacing" textLength="473" x="169.5" y="499.46">TransactionEventRequest(eventType = Updated, chargingState = Charging,...)</text><polygon fill="#181818" points="173.5,529.4,163.5,533.4,173.5,537.4,169.5,533.4" style="stroke:#181818;stroke-width:1.0;"/><line style="stroke:#181818;stroke-width:1.0;stroke-dasharray:2.0,2.0;" x1="167.5" x2="658.5" y1="533.4" y2="533.4"/><text fill="#000000" font-family="NanumGothic" font-size="13" lengthAdjust="spacing" textLength="183" x="179.5" y="528.41">TransactionEventResponse(...)</text><polygon fill="#181818" points="679,558.35,689,562.35,679,566.35,683,562.35" style="stroke:#181818;stroke-width:1.0;"/><line style="stroke:#181818;stroke-width:1.0;" x1="157.5" x2="685" y1="562.35" y2="562.35"/><text fill="#000000" font-family="NanumGothic" font-size="13" lengthAdjust="spacing" textLength="298" x="164.5" y="557.36">E01 - Start Transaction - Cable Plugin First&#47196; &#44228;&#49549;</text><!--SRC=[jP9TYzD058RlvrSSUzM2BNfRq9krWXT-OElUZvDnEvYTZ9D9eLvreSZY1wnWsLNIfO8V25u4ruM2zGybf__1IR9nGpOkBk9Dc7Fcp7FUdFDU4fAvWSF1DsENTrImxH92cV4qD7gRS4EB4TSDe3xqDlE0AAgDO49HQQ2nCQHwIyWjw1jgX2UpqY9vagkywD_kvrNsaFKI8shuAPyK9sXVhwAwWAi9phydopU0-r7yBJe5LBkIIYB3sPxTJ6lWt_6CU2HOTdUVFmcuRvft6GkKu4whXCrafbzermcgW_dAapvljeZ3gvm_QHfeAlsqs9Ez4PUcKCJJO31M7AwbhRJXpkLEftC1WMV99_8oJ5LXEQuEzDp5t786tcCk0HSXlWWlk9OgZ0Pcw6dnDAzWb0tjD67zTeRp9I6UCa00Qa25GkkJsSlaqyfMbNxejyMuT78A_lYGJ3-kfr4SJG0FTkBZhxZOmN2Ll0-RYkjjAkt4t74BhDNMio_9tW5-jfMpvpYVsDnFV1VLApbhtA8LuE4YNkwc8k3lfe7xUybqDsky2EEZOx03niFN_-Yc1ygXgPk0bIZfHK7zhpwhqTw5tfMhqCvjNiRPt0Pzw7AuvmRs2TmKsZTsGn0VJV7Pg_Cy-mi0]--></g></svg>