<?xml version="1.0" encoding="us-ascii" standalone="no"?><svg xmlns="http://www.w3.org/2000/svg" xmlns:xlink="http://www.w3.org/1999/xlink" contentStyleType="text/css" height="457px" preserveAspectRatio="none" style="width:888px;height:457px;background:#FFFFFF;" version="1.1" viewBox="0 0 888 457" width="888px" zoomAndPan="magnify"><defs/><g><!--cluster CS10Folder--><g id="cluster_CS10Folder"><path d="M360.5,6 L508.5,6 A3.75,3.75 0 0 1 511,8.5 L518,28.1 L667.5,28.1 A2.5,2.5 0 0 1 670,30.6 L670,213.5 A2.5,2.5 0 0 1 667.5,216 L360.5,216 A2.5,2.5 0 0 1 358,213.5 L358,8.5 A2.5,2.5 0 0 1 360.5,6 " fill="none" style="stroke:#7D5393;stroke-width:1.5;"/><line style="stroke:#7D5393;stroke-width:1.5;" x1="358" x2="518" y1="28.1" y2="28.1"/><text fill="#000000" font-family="NanumGothic" font-size="14" font-weight="bold" lengthAdjust="spacing" textLength="147" x="362" y="20.88">Charging Station: CS10</text></g><!--cluster CS11Folder--><g id="cluster_CS11Folder"><path d="M360.5,240 L484.5,240 A3.75,3.75 0 0 1 487,242.5 L494,262.1 L667.5,262.1 A2.5,2.5 0 0 1 670,264.6 L670,447.5 A2.5,2.5 0 0 1 667.5,450 L360.5,450 A2.5,2.5 0 0 1 358,447.5 L358,242.5 A2.5,2.5 0 0 1 360.5,240 " fill="none" style="stroke:#7D5393;stroke-width:1.5;"/><line style="stroke:#7D5393;stroke-width:1.5;" x1="358" x2="494" y1="262.1" y2="262.1"/><text fill="#000000" font-family="NanumGothic" font-size="14" font-weight="bold" lengthAdjust="spacing" textLength="123" x="362" y="254.88">Charge Point: CS11</text></g><!--entity CS10--><g id="elem_CS10"><polygon fill="#7D5393" points="374,147.9,384,137.9,520,137.9,520,190.1,510,200.1,374,200.1,374,147.9" style="stroke:#181818;stroke-width:1.5;"/><line style="stroke:#181818;stroke-width:1.5;" x1="510" x2="520" y1="147.9" y2="137.9"/><line style="stroke:#181818;stroke-width:1.5;" x1="374" x2="510" y1="147.9" y2="147.9"/><line style="stroke:#181818;stroke-width:1.5;" x1="510" x2="510" y1="147.9" y2="200.1"/><text fill="#FFFFFF" font-family="NanumGothic" font-size="14" lengthAdjust="spacing" textLength="106" x="389" y="170.78">Charging Station</text><text fill="#FFFFFF" font-family="NanumGothic" font-size="14" lengthAdjust="spacing" textLength="33" x="389" y="186.88">CS10</text></g><!--entity CS10_C1--><g id="elem_CS10_C1"><polygon fill="#7D5393" points="581,50.9,591,40.9,654,40.9,654,93.1,644,103.1,581,103.1,581,50.9" style="stroke:#181818;stroke-width:1.5;"/><line style="stroke:#181818;stroke-width:1.5;" x1="644" x2="654" y1="50.9" y2="40.9"/><line style="stroke:#181818;stroke-width:1.5;" x1="581" x2="644" y1="50.9" y2="50.9"/><line style="stroke:#181818;stroke-width:1.5;" x1="644" x2="644" y1="50.9" y2="103.1"/><text fill="#FFFFFF" font-family="NanumGothic" font-size="14" lengthAdjust="spacing" textLength="33" x="596" y="73.78">EVSE</text><text fill="#FFFFFF" font-family="NanumGothic" font-size="14" lengthAdjust="spacing" textLength="8" x="596" y="89.88">1</text></g><!--entity CS10_C2--><g id="elem_CS10_C2"><polygon fill="#7D5393" points="581,147.9,591,137.9,654,137.9,654,190.1,644,200.1,581,200.1,581,147.9" style="stroke:#181818;stroke-width:1.5;"/><line style="stroke:#181818;stroke-width:1.5;" x1="644" x2="654" y1="147.9" y2="137.9"/><line style="stroke:#181818;stroke-width:1.5;" x1="581" x2="644" y1="147.9" y2="147.9"/><line style="stroke:#181818;stroke-width:1.5;" x1="644" x2="644" y1="147.9" y2="200.1"/><text fill="#FFFFFF" font-family="NanumGothic" font-size="14" lengthAdjust="spacing" textLength="33" x="596" y="170.78">EVSE</text><text fill="#FFFFFF" font-family="NanumGothic" font-size="14" lengthAdjust="spacing" textLength="8" x="596" y="186.88">2</text></g><!--entity CS11--><g id="elem_CS11"><polygon fill="#7D5393" points="374,284.9,384,274.9,520,274.9,520,327.1,510,337.1,374,337.1,374,284.9" style="stroke:#181818;stroke-width:1.5;"/><line style="stroke:#181818;stroke-width:1.5;" x1="510" x2="520" y1="284.9" y2="274.9"/><line style="stroke:#181818;stroke-width:1.5;" x1="374" x2="510" y1="284.9" y2="284.9"/><line style="stroke:#181818;stroke-width:1.5;" x1="510" x2="510" y1="284.9" y2="337.1"/><text fill="#FFFFFF" font-family="NanumGothic" font-size="14" lengthAdjust="spacing" textLength="106" x="389" y="307.78">Charging Station</text><text fill="#FFFFFF" font-family="NanumGothic" font-size="14" lengthAdjust="spacing" textLength="33" x="389" y="323.88">CS11</text></g><!--entity CS11_C2--><g id="elem_CS11_C2"><polygon fill="#7D5393" points="581,381.9,591,371.9,654,371.9,654,424.1,644,434.1,581,434.1,581,381.9" style="stroke:#181818;stroke-width:1.5;"/><line style="stroke:#181818;stroke-width:1.5;" x1="644" x2="654" y1="381.9" y2="371.9"/><line style="stroke:#181818;stroke-width:1.5;" x1="581" x2="644" y1="381.9" y2="381.9"/><line style="stroke:#181818;stroke-width:1.5;" x1="644" x2="644" y1="381.9" y2="434.1"/><text fill="#FFFFFF" font-family="NanumGothic" font-size="14" lengthAdjust="spacing" textLength="33" x="596" y="404.78">EVSE</text><text fill="#FFFFFF" font-family="NanumGothic" font-size="14" lengthAdjust="spacing" textLength="8" x="596" y="420.88">2</text></g><!--entity CS11_C1--><g id="elem_CS11_C1"><polygon fill="#7D5393" points="581,284.9,591,274.9,654,274.9,654,327.1,644,337.1,581,337.1,581,284.9" style="stroke:#181818;stroke-width:1.5;"/><line style="stroke:#181818;stroke-width:1.5;" x1="644" x2="654" y1="284.9" y2="274.9"/><line style="stroke:#181818;stroke-width:1.5;" x1="581" x2="644" y1="284.9" y2="284.9"/><line style="stroke:#181818;stroke-width:1.5;" x1="644" x2="644" y1="284.9" y2="337.1"/><text fill="#FFFFFF" font-family="NanumGothic" font-size="14" lengthAdjust="spacing" textLength="33" x="596" y="307.78">EVSE</text><text fill="#FFFFFF" font-family="NanumGothic" font-size="14" lengthAdjust="spacing" textLength="8" x="596" y="323.88">1</text></g><!--entity CSMS--><g id="elem_CSMS"><polygon fill="#7D5393" points="61,224.95,71,214.95,140,214.95,140,251.05,130,261.05,61,261.05,61,224.95" style="stroke:#181818;stroke-width:1.5;"/><line style="stroke:#181818;stroke-width:1.5;" x1="130" x2="140" y1="224.95" y2="214.95"/><line style="stroke:#181818;stroke-width:1.5;" x1="61" x2="130" y1="224.95" y2="224.95"/><line style="stroke:#181818;stroke-width:1.5;" x1="130" x2="130" y1="224.95" y2="261.05"/><text fill="#FFFFFF" font-family="NanumGothic" font-size="14" lengthAdjust="spacing" textLength="39" x="76" y="247.83">CSMS</text></g><!--entity EV1--><g id="elem_EV1"><ellipse cx="868.5" cy="34.45" fill="#F1F1F1" rx="8" ry="8" style="stroke:#7D5393;stroke-width:1.5;"/><path d="M868.5,42.45 L868.5,69.45 M855.5,50.45 L881.5,50.45 M868.5,69.45 L855.5,84.45 M868.5,69.45 L881.5,84.45 " fill="none" style="stroke:#7D5393;stroke-width:1.5;"/><text fill="#000000" font-family="NanumGothic" font-size="14" lengthAdjust="spacing" textLength="25" x="856" y="99.83">EV1</text></g><!--entity EV2--><g id="elem_EV2"><ellipse cx="868.5" cy="147.45" fill="#F1F1F1" rx="8" ry="8" style="stroke:#7D5393;stroke-width:1.5;"/><path d="M868.5,155.45 L868.5,182.45 M855.5,163.45 L881.5,163.45 M868.5,182.45 L855.5,197.45 M868.5,182.45 L881.5,197.45 " fill="none" style="stroke:#7D5393;stroke-width:1.5;"/><text fill="#000000" font-family="NanumGothic" font-size="14" lengthAdjust="spacing" textLength="25" x="856" y="212.83">EV2</text></g><g id="elem_GMN13"><path d="M6,140.05 L6,179.95 A0,0 0 0 0 6,179.95 L96.5,179.95 L100.5,214.54 L104.5,179.95 L195,179.95 A0,0 0 0 0 195,179.95 L195,150.05 L185,140.05 L6,140.05 A0,0 0 0 0 6,140.05 " fill="#7D5393" style="stroke:#000000;stroke-width:0.5;"/><path d="M185,140.05 L185,150.05 L195,150.05 L185,140.05 " fill="#7D5393" style="stroke:#000000;stroke-width:0.5;"/><text fill="#FFFFFF" font-family="NanumGothic" font-size="13" lengthAdjust="spacing" textLength="168" x="12" y="157.01">CSMS&#45716; &#50508;&#47140;&#51652; &#47932;&#47532;&#51201; &#44536;&#47532;&#46300;</text><text fill="#FFFFFF" font-family="NanumGothic" font-size="13" lengthAdjust="spacing" textLength="92" x="12" y="171.96">&#50672;&#44208; &#51228;&#54620;&#51012; &#49444;&#51221;</text></g><!--link CSMS to CS10--><g id="link_CSMS_CS10"><path d="M140.35,230.22 C196.83,218.91 296.7467,198.8878 367.8267,184.6578 " fill="none" id="CSMS-to-CS10" style="stroke:#181818;stroke-width:1.0;"/><polygon fill="#181818" points="373.71,183.48,364.0999,181.3245,368.8073,184.4615,365.6703,189.1689,373.71,183.48" style="stroke:#181818;stroke-width:1.0;"/><text fill="#000000" font-family="NanumGothic" font-size="13" lengthAdjust="spacing" textLength="115" x="226" y="188.28">OCPP &#52264;&#51669; &#54532;&#47196;&#54028;&#51068;</text></g><!--link CSMS to CS11--><g id="link_CSMS_CS11"><path d="M140.35,245.67 C196.83,256.82 296.7436,276.5381 367.8236,290.5681 " fill="none" id="CSMS-to-CS11" style="stroke:#181818;stroke-width:1.0;"/><polygon fill="#181818" points="373.71,291.73,365.6549,286.0629,368.8046,290.7618,364.1058,293.9115,373.71,291.73" style="stroke:#181818;stroke-width:1.0;"/><text fill="#000000" font-family="NanumGothic" font-size="13" lengthAdjust="spacing" textLength="115" x="226" y="260.87">OCPP &#52264;&#51669; &#54532;&#47196;&#54028;&#51068;</text></g><!--link CS10 to CS10_C1--><g id="link_CS10_CS10_C1"><path d="M502.71,137.51 C528.27,122.79 557.98,105.69 580.64,92.64 " fill="none" id="CS10-CS10_C1" style="stroke:#181818;stroke-width:1.0;"/></g><!--link CS10 to CS10_C2--><g id="link_CS10_CS10_C2"><path d="M520.44,169 C541.31,169 563.17,169 580.75,169 " fill="none" id="CS10-CS10_C2" style="stroke:#181818;stroke-width:1.0;"/></g><!--link CS11 to CS11_C1--><g id="link_CS11_CS11_C1"><path d="M520.44,306 C541.31,306 563.17,306 580.75,306 " fill="none" id="CS11-CS11_C1" style="stroke:#181818;stroke-width:1.0;"/></g><!--link CS11 to CS11_C2--><g id="link_CS11_CS11_C2"><path d="M502.71,337.49 C528.27,352.21 557.98,369.31 580.64,382.36 " fill="none" id="CS11-CS11_C2" style="stroke:#181818;stroke-width:1.0;"/></g><!--link CS10_C1 to EV1--><g id="link_CS10_C1_EV1"><path d="M654.44,70.85 C710.47,69.05 810.1031,65.8427 847.7531,64.6327 " fill="none" id="CS10_C1-to-EV1" style="stroke:#181818;stroke-width:1.0;stroke-dasharray:1.0,3.0;"/><polygon fill="#181818" points="853.75,64.44,844.6262,60.7312,848.7526,64.6006,844.8831,68.727,853.75,64.44" style="stroke:#181818;stroke-width:1.0;"/><text fill="#000000" font-family="NanumGothic" font-size="13" lengthAdjust="spacing" textLength="116" x="687" y="47.49">Control Pilot signal</text><text fill="#000000" font-family="NanumGothic" font-size="13" lengthAdjust="spacing" textLength="92" x="709" y="62.44">&#46608;&#45716; ISO 15118</text></g><!--link CS10_C2 to EV2--><g id="link_CS10_C2_EV2"><path d="M654.44,170.15 C710.47,171.95 810.1031,175.1573 847.7531,176.3673 " fill="none" id="CS10_C2-to-EV2" style="stroke:#181818;stroke-width:1.0;stroke-dasharray:1.0,3.0;"/><polygon fill="#181818" points="853.75,176.56,844.8831,172.273,848.7526,176.3994,844.6262,180.2688,853.75,176.56" style="stroke:#181818;stroke-width:1.0;"/><text fill="#000000" font-family="NanumGothic" font-size="13" lengthAdjust="spacing" textLength="116" x="687" y="153.32">Control Pilot signal</text><text fill="#000000" font-family="NanumGothic" font-size="13" lengthAdjust="spacing" textLength="92" x="709" y="168.27">&#46608;&#45716; ISO 15118</text></g><!--SRC=[bP4nIyD07CNt-nH_krTw0K4wk0G51saXu6AbXEIQ7gHt9RqY8Wv29-aWsA132X6ATUXGN7Je9sgkty6x9BIrjQ9PBhptoxl7onvbZjzr2JYyrUQCC55tgUq5TglU4TS-sMztMpv2Fca841m2wZK5k3GWZg2S8SIu-hPWMcTM0UmEw1U46jntIQ3afXrub7bW2LlZPUNZKWxYqac6tI20F6Q3hx5lF5g2n-VMSOtXfLCtyOPdh7a6kjteHA3AAHDfdsKA_bkV5OzstOdrdJkwOjrLzR4TmGFjPeuwLvAHIuRULn0rV1ju8niNqYEv7u0C-qayakCU99DPyZgHyHtCFpxLM_8OAKu-JUVlKv1nj0WZEUo1x8ra72B2ND2n2EaaABhyYXMFqgsW31MpMWKvVPFZ41Q3Nl8IBVfzEPnjmVWt6ALf6RtyGzkQaO9uJSGvkA5be4x9z0kN2q7SIrL5BQUQc9o9WFjGfJuNqA4UittGJuqbpmzwhbEh0lW0uyCyoVWXoVXdqXS0]--></g></svg>