<?xml version="1.0" encoding="us-ascii" standalone="no"?><svg xmlns="http://www.w3.org/2000/svg" xmlns:xlink="http://www.w3.org/1999/xlink" contentStyleType="text/css" height="1111px" preserveAspectRatio="none" style="width:1106px;height:1111px;background:#FFFFFF;" version="1.1" viewBox="0 0 1106 1111" width="1106px" zoomAndPan="magnify"><defs/><g><rect fill="#FFFFFF" height="49.9" style="stroke:#181818;stroke-width:1.0;" width="10" x="96.5" y="93.1"/><rect fill="#FFFFFF" height="342.35" style="stroke:#181818;stroke-width:1.0;" width="10" x="237.5" y="592.2"/><rect fill="#FFFFFF" height="144.75" style="stroke:#181818;stroke-width:1.0;" width="10" x="372.5" y="114.05"/><rect fill="#FFFFFF" height="225.6" style="stroke:#181818;stroke-width:1.0;" width="10" x="372.5" y="287.75"/><rect fill="#FFFFFF" height="101.8" style="stroke:#181818;stroke-width:1.0;" width="10" x="372.5" y="707"/><rect fill="#FFFFFF" height="115.8" style="stroke:#181818;stroke-width:1.0;" width="10" x="372.5" y="970.5"/><rect fill="#FFFFFF" height="86.85" style="stroke:#181818;stroke-width:1.0;" width="10" x="962.5" y="171.95"/><rect fill="#FFFFFF" height="28.95" style="stroke:#181818;stroke-width:1.0;" width="10" x="962.5" y="316.7"/><rect fill="#FFFFFF" height="28.95" style="stroke:#181818;stroke-width:1.0;" width="10" x="962.5" y="484.4"/><rect fill="#FFFFFF" height="114.8" style="stroke:#181818;stroke-width:1.0;" width="10" x="962.5" y="621.15"/><rect fill="#FFFFFF" height="28.95" style="stroke:#181818;stroke-width:1.0;" width="10" x="962.5" y="779.85"/><rect fill="#FFFFFF" height="248.55" style="stroke:#181818;stroke-width:1.0;" width="10" x="962.5" y="837.75"/><rect fill="none" height="45.9" style="stroke:#000000;stroke-width:1.5;" width="388.5" x="59" y="360.65"/><rect fill="none" height="45.9" style="stroke:#000000;stroke-width:1.5;" width="258.5" x="59" y="896.65"/><line style="stroke:#181818;stroke-width:0.5;stroke-dasharray:5.0,5.0;" x1="101" x2="101" y1="83.1" y2="1104.3"/><line style="stroke:#181818;stroke-width:0.5;stroke-dasharray:5.0,5.0;" x1="242.5" x2="242.5" y1="83.1" y2="1104.3"/><line style="stroke:#181818;stroke-width:0.5;stroke-dasharray:5.0,5.0;" x1="377.5" x2="377.5" y1="83.1" y2="1104.3"/><line style="stroke:#181818;stroke-width:0.5;stroke-dasharray:5.0,5.0;" x1="967" x2="967" y1="83.1" y2="1104.3"/><text fill="#000000" font-family="NanumGothic" font-size="14" lengthAdjust="spacing" textLength="59" x="69" y="79.88">EV Driver</text><ellipse cx="101.5" cy="14.5" fill="#E2E2F0" rx="8" ry="8" style="stroke:#7D5393;stroke-width:1.5;"/><path d="M101.5,22.5 L101.5,49.5 M88.5,30.5 L114.5,30.5 M101.5,49.5 L88.5,64.5 M101.5,49.5 L114.5,64.5 " fill="none" style="stroke:#7D5393;stroke-width:1.5;"/><rect fill="#7D5393" height="30.1" rx="2.5" ry="2.5" style="stroke:#181818;stroke-width:0.5;" width="130" x="177.5" y="52"/><text fill="#FFFFFF" font-family="NanumGothic" font-size="14" lengthAdjust="spacing" textLength="116" x="184.5" y="71.88">Payment Terminal</text><rect fill="#7D5393" height="30.1" rx="2.5" ry="2.5" style="stroke:#181818;stroke-width:0.5;" width="120" x="317.5" y="52"/><text fill="#FFFFFF" font-family="NanumGothic" font-size="14" lengthAdjust="spacing" textLength="106" x="324.5" y="71.88">Charging Station</text><rect fill="#7D5393" height="30.1" rx="2.5" ry="2.5" style="stroke:#181818;stroke-width:0.5;" width="53" x="941" y="52"/><text fill="#FFFFFF" font-family="NanumGothic" font-size="14" lengthAdjust="spacing" textLength="39" x="948" y="71.88">CSMS</text><rect fill="#FFFFFF" height="49.9" style="stroke:#181818;stroke-width:1.0;" width="10" x="96.5" y="93.1"/><rect fill="#FFFFFF" height="342.35" style="stroke:#181818;stroke-width:1.0;" width="10" x="237.5" y="592.2"/><rect fill="#FFFFFF" height="144.75" style="stroke:#181818;stroke-width:1.0;" width="10" x="372.5" y="114.05"/><rect fill="#FFFFFF" height="225.6" style="stroke:#181818;stroke-width:1.0;" width="10" x="372.5" y="287.75"/><rect fill="#FFFFFF" height="101.8" style="stroke:#181818;stroke-width:1.0;" width="10" x="372.5" y="707"/><rect fill="#FFFFFF" height="115.8" style="stroke:#181818;stroke-width:1.0;" width="10" x="372.5" y="970.5"/><rect fill="#FFFFFF" height="86.85" style="stroke:#181818;stroke-width:1.0;" width="10" x="962.5" y="171.95"/><rect fill="#FFFFFF" height="28.95" style="stroke:#181818;stroke-width:1.0;" width="10" x="962.5" y="316.7"/><rect fill="#FFFFFF" height="28.95" style="stroke:#181818;stroke-width:1.0;" width="10" x="962.5" y="484.4"/><rect fill="#FFFFFF" height="114.8" style="stroke:#181818;stroke-width:1.0;" width="10" x="962.5" y="621.15"/><rect fill="#FFFFFF" height="28.95" style="stroke:#181818;stroke-width:1.0;" width="10" x="962.5" y="779.85"/><rect fill="#FFFFFF" height="248.55" style="stroke:#181818;stroke-width:1.0;" width="10" x="962.5" y="837.75"/><polygon fill="#181818" points="360.5,110.05,370.5,114.05,360.5,118.05,364.5,114.05" style="stroke:#181818;stroke-width:1.0;"/><line style="stroke:#181818;stroke-width:1.0;" x1="106.5" x2="366.5" y1="114.05" y2="114.05"/><text fill="#000000" font-family="NanumGothic" font-size="13" lengthAdjust="spacing" textLength="64" x="113.5" y="109.06">&#52992;&#51060;&#48660; &#50672;&#44208;</text><polygon fill="#181818" points="950.5,167.95,960.5,171.95,950.5,175.95,954.5,171.95" style="stroke:#181818;stroke-width:1.0;"/><line style="stroke:#181818;stroke-width:1.0;" x1="382.5" x2="956.5" y1="171.95" y2="171.95"/><text fill="#000000" font-family="NanumGothic" font-size="13" lengthAdjust="spacing" textLength="223" x="389.5" y="166.96">StatusNotificationRequest(Occupied)</text><polygon fill="#181818" points="393.5,196.9,383.5,200.9,393.5,204.9,389.5,200.9" style="stroke:#181818;stroke-width:1.0;"/><line style="stroke:#181818;stroke-width:1.0;stroke-dasharray:2.0,2.0;" x1="387.5" x2="961.5" y1="200.9" y2="200.9"/><text fill="#000000" font-family="NanumGothic" font-size="13" lengthAdjust="spacing" textLength="176" x="399.5" y="195.91">StatusNotificationResponse()</text><polygon fill="#181818" points="950.5,225.85,960.5,229.85,950.5,233.85,954.5,229.85" style="stroke:#181818;stroke-width:1.0;"/><line style="stroke:#181818;stroke-width:1.0;" x1="382.5" x2="956.5" y1="229.85" y2="229.85"/><text fill="#000000" font-family="NanumGothic" font-size="13" lengthAdjust="spacing" textLength="304" x="389.5" y="224.86">TransactionEventRequest(eventType = Started, ...)</text><polygon fill="#181818" points="388.5,254.8,378.5,258.8,388.5,262.8,384.5,258.8" style="stroke:#181818;stroke-width:1.0;"/><line style="stroke:#181818;stroke-width:1.0;stroke-dasharray:2.0,2.0;" x1="382.5" x2="966.5" y1="258.8" y2="258.8"/><text fill="#000000" font-family="NanumGothic" font-size="13" lengthAdjust="spacing" textLength="183" x="394.5" y="253.81">TransactionEventResponse(...)</text><polygon fill="#181818" points="360.5,283.75,370.5,287.75,360.5,291.75,364.5,287.75" style="stroke:#181818;stroke-width:1.0;"/><line style="stroke:#181818;stroke-width:1.0;stroke-dasharray:2.0,2.0;" x1="101.5" x2="366.5" y1="287.75" y2="287.75"/><text fill="#000000" font-family="NanumGothic" font-size="13" lengthAdjust="spacing" textLength="122" x="108.5" y="282.76">&#51452;&#52264; &#54000;&#53011;(1234) &#51228;&#49884;</text><polygon fill="#181818" points="950.5,312.7,960.5,316.7,950.5,320.7,954.5,316.7" style="stroke:#181818;stroke-width:1.0;"/><line style="stroke:#181818;stroke-width:1.0;" x1="382.5" x2="956.5" y1="316.7" y2="316.7"/><text fill="#000000" font-family="NanumGothic" font-size="13" lengthAdjust="spacing" textLength="317" x="389.5" y="311.71">AuthorizeRequest(idToken(id = 1234, type = Local))</text><polygon fill="#181818" points="393.5,341.65,383.5,345.65,393.5,349.65,389.5,345.65" style="stroke:#181818;stroke-width:1.0;"/><line style="stroke:#181818;stroke-width:1.0;stroke-dasharray:2.0,2.0;" x1="387.5" x2="966.5" y1="345.65" y2="345.65"/><text fill="#000000" font-family="NanumGothic" font-size="13" lengthAdjust="spacing" textLength="139" x="399.5" y="340.66">AuthorizeResponse(...)</text><path d="M59,360.65 L125,360.65 L125,367.6 L115,377.6 L59,377.6 L59,360.65 " fill="#EEEEEE" style="stroke:#000000;stroke-width:1.5;"/><rect fill="none" height="45.9" style="stroke:#000000;stroke-width:1.5;" width="388.5" x="59" y="360.65"/><text fill="#000000" font-family="NanumGothic" font-size="13" font-weight="bold" lengthAdjust="spacing" textLength="21" x="74" y="373.61">opt</text><polygon fill="#181818" points="112.5,394.55,102.5,398.55,112.5,402.55,108.5,398.55" style="stroke:#181818;stroke-width:1.0;"/><line style="stroke:#181818;stroke-width:1.0;stroke-dasharray:2.0,2.0;" x1="106.5" x2="371.5" y1="398.55" y2="398.55"/><text fill="#000000" font-family="NanumGothic" font-size="13" lengthAdjust="spacing" textLength="24" x="118.5" y="393.56">&#50508;&#47548;</text><path d="M341,418.55 L341,442.55 L414,442.55 L414,428.55 L404,418.55 L341,418.55 " fill="#7D5393" style="stroke:#000000;stroke-width:0.5;"/><path d="M404,418.55 L404,428.55 L414,428.55 L404,418.55 " fill="#7D5393" style="stroke:#000000;stroke-width:0.5;"/><text fill="#FFFFFF" font-family="NanumGothic" font-size="13" lengthAdjust="spacing" textLength="52" x="347" y="435.51">&#52649;&#51204; &#49884;&#51089;</text><polygon fill="#181818" points="950.5,480.4,960.5,484.4,950.5,488.4,954.5,484.4" style="stroke:#181818;stroke-width:1.0;"/><line style="stroke:#181818;stroke-width:1.0;" x1="382.5" x2="956.5" y1="484.4" y2="484.4"/><text fill="#000000" font-family="NanumGothic" font-size="13" lengthAdjust="spacing" textLength="444" x="389.5" y="464.46">TransactionEventRequest(eventType = Updated, transactionId = AB1234,</text><text fill="#000000" font-family="NanumGothic" font-size="13" lengthAdjust="spacing" textLength="519" x="397.5" y="479.41">chargingState = Charging, trigger = Authorized, idToken.id = 1234, meterValues, ...)</text><polygon fill="#181818" points="388.5,509.35,378.5,513.35,388.5,517.35,384.5,513.35" style="stroke:#181818;stroke-width:1.0;"/><line style="stroke:#181818;stroke-width:1.0;stroke-dasharray:2.0,2.0;" x1="382.5" x2="966.5" y1="513.35" y2="513.35"/><text fill="#000000" font-family="NanumGothic" font-size="13" lengthAdjust="spacing" textLength="377" x="394.5" y="508.36">TransactionEventResponse(idTokenInfo.status = Accepted, ...)</text><path d="M5,526.35 L5,550.35 L198,550.35 L198,536.35 L188,526.35 L5,526.35 " fill="#7D5393" style="stroke:#000000;stroke-width:0.5;"/><path d="M188,526.35 L188,536.35 L198,536.35 L188,526.35 " fill="#7D5393" style="stroke:#000000;stroke-width:0.5;"/><text fill="#FFFFFF" font-family="NanumGothic" font-size="13" lengthAdjust="spacing" textLength="172" x="11" y="543.31">&#49324;&#50857;&#51088;&#44032; EV&#47484; &#54589;&#50629;&#54616;&#47084; &#46028;&#50500;&#50740;</text><polygon fill="#181818" points="225.5,588.2,235.5,592.2,225.5,596.2,229.5,592.2" style="stroke:#181818;stroke-width:1.0;"/><line style="stroke:#181818;stroke-width:1.0;stroke-dasharray:2.0,2.0;" x1="101.5" x2="231.5" y1="592.2" y2="592.2"/><text fill="#000000" font-family="NanumGothic" font-size="13" lengthAdjust="spacing" textLength="94" x="108.5" y="572.26">&#51452;&#52264; &#54000;&#53011;(1234)</text><text fill="#000000" font-family="NanumGothic" font-size="13" lengthAdjust="spacing" textLength="24" x="116.5" y="587.21">&#51228;&#49884;</text><polygon fill="#181818" points="950.5,617.15,960.5,621.15,950.5,625.15,954.5,621.15" style="stroke:#181818;stroke-width:1.0;"/><line style="stroke:#181818;stroke-width:1.0;" x1="247.5" x2="956.5" y1="621.15" y2="621.15"/><text fill="#000000" font-family="NanumGothic" font-size="13" lengthAdjust="spacing" textLength="122" x="254.5" y="616.16">&#52649;&#51204;(id = 1234) &#51333;&#47308;</text><line style="stroke:#181818;stroke-width:1.0;" x1="972.5" x2="1014.5" y1="665.05" y2="665.05"/><line style="stroke:#181818;stroke-width:1.0;" x1="1014.5" x2="1014.5" y1="665.05" y2="678.05"/><line style="stroke:#181818;stroke-width:1.0;" x1="973.5" x2="1014.5" y1="678.05" y2="678.05"/><polygon fill="#181818" points="983.5,674.05,973.5,678.05,983.5,682.05,979.5,678.05" style="stroke:#181818;stroke-width:1.0;"/><text fill="#000000" font-family="NanumGothic" font-size="13" lengthAdjust="spacing" textLength="108" x="979.5" y="645.11">ticketId&#50752; &#51068;&#52824;&#54616;&#45716;</text><text fill="#000000" font-family="NanumGothic" font-size="13" lengthAdjust="spacing" textLength="91" x="979.5" y="660.06">TransactionId()</text><polygon fill="#181818" points="393.5,703,383.5,707,393.5,711,389.5,707" style="stroke:#181818;stroke-width:1.0;"/><line style="stroke:#181818;stroke-width:1.0;" x1="387.5" x2="961.5" y1="707" y2="707"/><text fill="#000000" font-family="NanumGothic" font-size="13" lengthAdjust="spacing" textLength="351" x="399.5" y="702.01">RequestStopTransactionRequest(transactionId = AB1234)</text><polygon fill="#181818" points="955.5,731.95,965.5,735.95,955.5,739.95,959.5,735.95" style="stroke:#181818;stroke-width:1.0;"/><line style="stroke:#181818;stroke-width:1.0;stroke-dasharray:2.0,2.0;" x1="382.5" x2="961.5" y1="735.95" y2="735.95"/><text fill="#000000" font-family="NanumGothic" font-size="13" lengthAdjust="spacing" textLength="271" x="389.5" y="730.96">RequestStopTransactionResponse(Accepted)</text><polygon fill="#181818" points="950.5,775.85,960.5,779.85,950.5,783.85,954.5,779.85" style="stroke:#181818;stroke-width:1.0;"/><line style="stroke:#181818;stroke-width:1.0;" x1="382.5" x2="956.5" y1="779.85" y2="779.85"/><text fill="#000000" font-family="NanumGothic" font-size="13" lengthAdjust="spacing" textLength="444" x="389.5" y="759.91">TransactionEventRequest(eventType = Updated, transactionId = AB1234,</text><text fill="#000000" font-family="NanumGothic" font-size="13" lengthAdjust="spacing" textLength="553" x="397.5" y="774.86">chargingState = EVConnected, trigger = RemoteStop, idToken.id = 1234, meterValues, ...)</text><polygon fill="#181818" points="388.5,804.8,378.5,808.8,388.5,812.8,384.5,808.8" style="stroke:#181818;stroke-width:1.0;"/><line style="stroke:#181818;stroke-width:1.0;stroke-dasharray:2.0,2.0;" x1="382.5" x2="966.5" y1="808.8" y2="808.8"/><text fill="#000000" font-family="NanumGothic" font-size="13" lengthAdjust="spacing" textLength="183" x="394.5" y="803.81">TransactionEventResponse(...)</text><polygon fill="#181818" points="258.5,833.75,248.5,837.75,258.5,841.75,254.5,837.75" style="stroke:#181818;stroke-width:1.0;"/><polygon fill="#181818" points="950.5,833.75,960.5,837.75,950.5,841.75,954.5,837.75" style="stroke:#181818;stroke-width:1.0;"/><line style="stroke:#181818;stroke-width:1.0;stroke-dasharray:2.0,2.0;" x1="252.5" x2="956.5" y1="837.75" y2="837.75"/><text fill="#000000" font-family="NanumGothic" font-size="13" lengthAdjust="spacing" textLength="122" x="264.5" y="832.76">&#44032;&#44201;(id = 1234) &#49688;&#49888;</text><polygon fill="#181818" points="225.5,877.65,235.5,881.65,225.5,885.65,229.5,881.65" style="stroke:#181818;stroke-width:1.0;"/><line style="stroke:#181818;stroke-width:1.0;" x1="101.5" x2="231.5" y1="881.65" y2="881.65"/><text fill="#000000" font-family="NanumGothic" font-size="13" lengthAdjust="spacing" textLength="108" x="108.5" y="861.71">&#52649;&#51204; &#48143; &#51452;&#52264;&#50640; &#45824;&#54620;</text><text fill="#000000" font-family="NanumGothic" font-size="13" lengthAdjust="spacing" textLength="52" x="116.5" y="876.66">&#50836;&#44552; &#44208;&#51228;</text><path d="M59,896.65 L125,896.65 L125,903.6 L115,913.6 L59,913.6 L59,896.65 " fill="#EEEEEE" style="stroke:#000000;stroke-width:1.5;"/><rect fill="none" height="45.9" style="stroke:#000000;stroke-width:1.5;" width="258.5" x="59" y="896.65"/><text fill="#000000" font-family="NanumGothic" font-size="13" font-weight="bold" lengthAdjust="spacing" textLength="21" x="74" y="909.61">opt</text><polygon fill="#181818" points="112.5,930.55,102.5,934.55,112.5,938.55,108.5,934.55" style="stroke:#181818;stroke-width:1.0;"/><line style="stroke:#181818;stroke-width:1.0;stroke-dasharray:2.0,2.0;" x1="106.5" x2="241.5" y1="934.55" y2="934.55"/><text fill="#000000" font-family="NanumGothic" font-size="13" lengthAdjust="spacing" textLength="24" x="118.5" y="929.56">&#50508;&#47548;</text><polygon fill="#181818" points="360.5,966.5,370.5,970.5,360.5,974.5,364.5,970.5" style="stroke:#181818;stroke-width:1.0;"/><line style="stroke:#181818;stroke-width:1.0;" x1="101.5" x2="366.5" y1="970.5" y2="970.5"/><text fill="#000000" font-family="NanumGothic" font-size="13" lengthAdjust="spacing" textLength="64" x="108.5" y="965.51">&#52992;&#51060;&#48660; &#51228;&#44144;</text><polygon fill="#181818" points="950.5,995.45,960.5,999.45,950.5,1003.45,954.5,999.45" style="stroke:#181818;stroke-width:1.0;"/><line style="stroke:#181818;stroke-width:1.0;" x1="382.5" x2="956.5" y1="999.45" y2="999.45"/><text fill="#000000" font-family="NanumGothic" font-size="13" lengthAdjust="spacing" textLength="220" x="389.5" y="994.46">StatusNotificationRequest(Available)</text><polygon fill="#181818" points="393.5,1024.4,383.5,1028.4,393.5,1032.4,389.5,1028.4" style="stroke:#181818;stroke-width:1.0;"/><line style="stroke:#181818;stroke-width:1.0;stroke-dasharray:2.0,2.0;" x1="387.5" x2="961.5" y1="1028.4" y2="1028.4"/><text fill="#000000" font-family="NanumGothic" font-size="13" lengthAdjust="spacing" textLength="176" x="399.5" y="1023.41">StatusNotificationResponse()</text><polygon fill="#181818" points="950.5,1053.35,960.5,1057.35,950.5,1061.35,954.5,1057.35" style="stroke:#181818;stroke-width:1.0;"/><line style="stroke:#181818;stroke-width:1.0;" x1="382.5" x2="956.5" y1="1057.35" y2="1057.35"/><text fill="#000000" font-family="NanumGothic" font-size="13" lengthAdjust="spacing" textLength="535" x="389.5" y="1052.36">TransactionEventRequest(eventType = Ended, transactionId = AB1234, meterValues, ...)</text><polygon fill="#181818" points="388.5,1082.3,378.5,1086.3,388.5,1090.3,384.5,1086.3" style="stroke:#181818;stroke-width:1.0;"/><line style="stroke:#181818;stroke-width:1.0;stroke-dasharray:2.0,2.0;" x1="382.5" x2="966.5" y1="1086.3" y2="1086.3"/><text fill="#000000" font-family="NanumGothic" font-size="13" lengthAdjust="spacing" textLength="183" x="394.5" y="1081.31">TransactionEventResponse(...)</text><!--SRC=[nLPTIzjG6BxFhtZdLGDQsCULJC6vNWZxmdQzcRiuIuxrO7gI9QS5TrM60va57Mkna-hAP6E25vd8SD3zeURqF-oSD35fcXQx2xrfapVd_NhUvtcJEuHgHaN7uB0j0sUjIjbG5AGnquQPN14UswIAxHb03kIAWnl5GZOZ6h4GPJ3p0csLiRWeOBjCA3Byeu4nj0rxB6yWkqHe2V8CCM9ItoCq1hQ4H_vfVd1ANFZLaIfYEAeel82vnMIaUU3T6Z-wy2uRm0_SthaR-IUJAWa3pBtQ8BgEwMiHDymn3mERekFHGaOZBFf5p_lDLfnd9YFhHFEVhUAt5Uomp7DDgrW4wsgiCBzF-GjpQIsb1NCiapeueqweeM0ZwiWa9irLnNp22h2yAMnP61PaQ9jXVHQosQmwgORHO445lcCCd2JAyKT-dz7qKiTtqkNkJ-ZlkhpxENFttlq7Al1Ec- -sfnba2C5IXMsODdc7mzw9NZ0tCHN_edaPVHRO08adfeOCTOgfn6AFWyAFO5fC0HWfSOXZl5dtVdGLJ7L5eQPmDIL0oJu1-EzJtja6WGO__YIFWpmz0G2u5WjUMZhoMS2YmoiIeQL70upMA80Moo6TmfpIYvHAejw521CHAu0w6uEwZ1csYyWG1GICkpRQO_aNf5cXwsRMyOKYwz0qR4MyJiva0brZy5_9NE3-_emVdlBZ_PvR4tRlUnVwZR_yu4E_sVA-de6tL-VDRTwwYCraYEU95Ia7ay9q2NEIxCdbgYGCqQm7v8YeBOJpxODtKay7EMA8sBoRcAte_4iD-56N_sd9hZusnACrMeWp8gF6l9CJ2eYLPwOLSmhfbiuiTHfHNvKyBbF0Y73uALgy3PtaYiicfLWB74EfhEAoe8diuSQaChKMabHx6Cr02A5tVZf4jfqMt-qeOxTzkWW62yrpzm8zy8DzyEgrVhFjWyaF6xtB7H3lSQ6BS9UEA21jbmB4EakAo5-qr_sCwBHxlrpudzVF-A-0fIeY1dfZOFMMNlmvgayYyYZzRe9m_m00]--></g></svg>