<?xml version="1.0" encoding="us-ascii" standalone="no"?><svg xmlns="http://www.w3.org/2000/svg" xmlns:xlink="http://www.w3.org/1999/xlink" contentStyleType="text/css" height="939px" preserveAspectRatio="none" style="width:905px;height:939px;background:#FFFFFF;" version="1.1" viewBox="0 0 905 939" width="905px" zoomAndPan="magnify"><defs/><g><rect fill="#FFFFFF" height="750.2" style="stroke:#181818;stroke-width:1.0;" width="10" x="30.5" y="172.9"/><rect fill="#FFFFFF" height="481.7" style="stroke:#181818;stroke-width:1.0;" width="10" x="178.5" y="102"/><rect fill="#FFFFFF" height="180.6" style="stroke:#181818;stroke-width:1.0;" width="10" x="178.5" y="698.55"/><rect fill="#FFFFFF" height="175.6" style="stroke:#181818;stroke-width:1.0;" width="10" x="538.5" y="172.9"/><rect fill="#FFFFFF" height="39.425" style="stroke:#181818;stroke-width:1.0;" width="10" x="538.5" y="544.275"/><rect fill="#FFFFFF" height="180.6" style="stroke:#181818;stroke-width:1.0;" width="10" x="538.5" y="698.55"/><rect fill="#FFFFFF" height="87.8" style="stroke:#181818;stroke-width:1.0;" width="10" x="867.5" y="231.75"/><rect fill="#FFFFFF" height="87.8" style="stroke:#181818;stroke-width:1.0;" width="10" x="867.5" y="762.4"/><rect fill="none" height="235.2" style="stroke:#000000;stroke-width:1.5;" width="792.5" x="10" y="363.5"/><rect fill="none" height="95.8" style="stroke:#000000;stroke-width:1.5;" width="679" x="113.5" y="495.9"/><line style="stroke:#181818;stroke-width:0.5;stroke-dasharray:5.0,5.0;" x1="35" x2="35" y1="36.1" y2="932.1"/><line style="stroke:#181818;stroke-width:0.5;stroke-dasharray:5.0,5.0;" x1="183.5" x2="183.5" y1="36.1" y2="932.1"/><line style="stroke:#181818;stroke-width:0.5;stroke-dasharray:5.0,5.0;" x1="543" x2="543" y1="36.1" y2="932.1"/><line style="stroke:#181818;stroke-width:0.5;stroke-dasharray:5.0,5.0;" x1="872" x2="872" y1="36.1" y2="932.1"/><rect fill="#7D5393" height="30.1" rx="2.5" ry="2.5" style="stroke:#181818;stroke-width:0.5;" width="31" x="20" y="5"/><text fill="#FFFFFF" font-family="NanumGothic" font-size="14" lengthAdjust="spacing" textLength="17" x="27" y="24.88">EV</text><rect fill="#7D5393" height="30.1" rx="2.5" ry="2.5" style="stroke:#181818;stroke-width:0.5;" width="120" x="123.5" y="5"/><text fill="#FFFFFF" font-family="NanumGothic" font-size="14" lengthAdjust="spacing" textLength="106" x="130.5" y="24.88">Charging Station</text><rect fill="#7D5393" height="30.1" rx="2.5" ry="2.5" style="stroke:#181818;stroke-width:0.5;" width="113" x="487" y="5"/><text fill="#FFFFFF" font-family="NanumGothic" font-size="14" lengthAdjust="spacing" textLength="99" x="494" y="24.88">Local Controller</text><rect fill="#7D5393" height="30.1" rx="2.5" ry="2.5" style="stroke:#181818;stroke-width:0.5;" width="53" x="846" y="5"/><text fill="#FFFFFF" font-family="NanumGothic" font-size="14" lengthAdjust="spacing" textLength="39" x="853" y="24.88">CSMS</text><rect fill="#FFFFFF" height="750.2" style="stroke:#181818;stroke-width:1.0;" width="10" x="30.5" y="172.9"/><rect fill="#FFFFFF" height="481.7" style="stroke:#181818;stroke-width:1.0;" width="10" x="178.5" y="102"/><rect fill="#FFFFFF" height="180.6" style="stroke:#181818;stroke-width:1.0;" width="10" x="178.5" y="698.55"/><rect fill="#FFFFFF" height="175.6" style="stroke:#181818;stroke-width:1.0;" width="10" x="538.5" y="172.9"/><rect fill="#FFFFFF" height="39.425" style="stroke:#181818;stroke-width:1.0;" width="10" x="538.5" y="544.275"/><rect fill="#FFFFFF" height="180.6" style="stroke:#181818;stroke-width:1.0;" width="10" x="538.5" y="698.55"/><rect fill="#FFFFFF" height="87.8" style="stroke:#181818;stroke-width:1.0;" width="10" x="867.5" y="231.75"/><rect fill="#FFFFFF" height="87.8" style="stroke:#181818;stroke-width:1.0;" width="10" x="867.5" y="762.4"/><path d="M17,51.1 L17,75.1 L891,75.1 L891,61.1 L881,51.1 L17,51.1 " fill="#7D5393" style="stroke:#000000;stroke-width:0.5;"/><path d="M881,51.1 L881,61.1 L891,61.1 L881,51.1 " fill="#7D5393" style="stroke:#000000;stroke-width:0.5;"/><text fill="#FFFFFF" font-family="NanumGothic" font-size="13" lengthAdjust="spacing" textLength="232" x="333.5" y="68.06">&#49324;&#50857;&#51088; &#51064;&#51613;&#50640; &#49457;&#44277;&#54616;&#44256; &#53944;&#47004;&#51117;&#49496;&#51060; &#49884;&#51089;&#46120;</text><polygon fill="#181818" points="46.5,98,36.5,102,46.5,106,42.5,102" style="stroke:#181818;stroke-width:1.0;"/><line style="stroke:#181818;stroke-width:1.0;" x1="40.5" x2="177.5" y1="102" y2="102"/><text fill="#000000" font-family="NanumGothic" font-size="13" lengthAdjust="spacing" textLength="114" x="52.5" y="97.01">&#52572;&#45824; &#51204;&#47448;(&#51228;&#54620;) &#49444;&#51221;</text><line style="stroke:#181818;stroke-width:1.0;" x1="188.5" x2="230.5" y1="130.95" y2="130.95"/><line style="stroke:#181818;stroke-width:1.0;" x1="230.5" x2="230.5" y1="130.95" y2="143.95"/><line style="stroke:#181818;stroke-width:1.0;" x1="189.5" x2="230.5" y1="143.95" y2="143.95"/><polygon fill="#181818" points="199.5,139.95,189.5,143.95,199.5,147.95,195.5,143.95" style="stroke:#181818;stroke-width:1.0;"/><text fill="#000000" font-family="NanumGothic" font-size="13" lengthAdjust="spacing" textLength="40" x="195.5" y="125.96">&#51204;&#50896; &#53036;</text><polygon fill="#181818" points="166.5,168.9,176.5,172.9,166.5,176.9,170.5,172.9" style="stroke:#181818;stroke-width:1.0;"/><line style="stroke:#181818;stroke-width:1.0;" x1="40.5" x2="172.5" y1="172.9" y2="172.9"/><text fill="#000000" font-family="NanumGothic" font-size="13" lengthAdjust="spacing" textLength="52" x="47.5" y="167.91">&#52649;&#51204; &#49884;&#51089;</text><polygon fill="#181818" points="526.5,227.75,536.5,231.75,526.5,235.75,530.5,231.75" style="stroke:#181818;stroke-width:1.0;"/><line style="stroke:#181818;stroke-width:1.0;" x1="188.5" x2="532.5" y1="231.75" y2="231.75"/><text fill="#000000" font-family="NanumGothic" font-size="13" lengthAdjust="spacing" textLength="291" x="195.5" y="196.86">TransactionEventRequest(eventType = Updated,</text><text fill="#000000" font-family="NanumGothic" font-size="13" lengthAdjust="spacing" textLength="149" x="211.5" y="211.81">transactionId = AB1234,</text><text fill="#000000" font-family="NanumGothic" font-size="13" lengthAdjust="spacing" textLength="182" x="211.5" y="226.76">chargingState = Charging, ...)</text><polygon fill="#181818" points="855.5,286.6,865.5,290.6,855.5,294.6,859.5,290.6" style="stroke:#181818;stroke-width:1.0;"/><line style="stroke:#181818;stroke-width:1.0;" x1="548.5" x2="861.5" y1="290.6" y2="290.6"/><text fill="#000000" font-family="NanumGothic" font-size="13" lengthAdjust="spacing" textLength="291" x="555.5" y="255.71">TransactionEventRequest(eventType = Updated,</text><text fill="#000000" font-family="NanumGothic" font-size="13" lengthAdjust="spacing" textLength="149" x="571.5" y="270.66">transactionId = AB1234,</text><text fill="#000000" font-family="NanumGothic" font-size="13" lengthAdjust="spacing" textLength="182" x="571.5" y="285.61">chargingState = Charging, ...)</text><polygon fill="#181818" points="559.5,315.55,549.5,319.55,559.5,323.55,555.5,319.55" style="stroke:#181818;stroke-width:1.0;"/><line style="stroke:#181818;stroke-width:1.0;stroke-dasharray:2.0,2.0;" x1="553.5" x2="871.5" y1="319.55" y2="319.55"/><text fill="#000000" font-family="NanumGothic" font-size="13" lengthAdjust="spacing" textLength="183" x="565.5" y="314.56">TransactionEventResponse(...)</text><polygon fill="#181818" points="199.5,344.5,189.5,348.5,199.5,352.5,195.5,348.5" style="stroke:#181818;stroke-width:1.0;"/><line style="stroke:#181818;stroke-width:1.0;stroke-dasharray:2.0,2.0;" x1="193.5" x2="542.5" y1="348.5" y2="348.5"/><text fill="#000000" font-family="NanumGothic" font-size="13" lengthAdjust="spacing" textLength="183" x="205.5" y="343.51">TransactionEventResponse(...)</text><path d="M10,363.5 L82,363.5 L82,370.45 L72,380.45 L10,380.45 L10,363.5 " fill="#EEEEEE" style="stroke:#000000;stroke-width:1.5;"/><rect fill="none" height="235.2" style="stroke:#000000;stroke-width:1.5;" width="792.5" x="10" y="363.5"/><text fill="#000000" font-family="NanumGothic" font-size="13" font-weight="bold" lengthAdjust="spacing" textLength="27" x="25" y="376.46">loop</text><text fill="#000000" font-family="NanumGothic" font-size="11" font-weight="bold" lengthAdjust="spacing" textLength="150" x="97" y="375.62">[&#52264;&#51669; &#54532;&#47196;&#54028;&#51068;&#50640; &#46384;&#46972; &#47336;&#54532; &#48320;&#54868;]</text><line style="stroke:#000000;stroke-width:1.0;stroke-dasharray:2.0,2.0;" x1="10" x2="802.5" y1="381.45" y2="381.45"/><text fill="#000000" font-family="NanumGothic" font-size="11" font-weight="bold" lengthAdjust="spacing" textLength="183" x="15" y="391.57">[&#52264;&#51669; &#54532;&#47196;&#54028;&#51068;&#51032; &#44033; &#51064;&#53552;&#48268; &#44592;&#44036;&#50640; &#45824;&#54644;]</text><line style="stroke:#181818;stroke-width:1.0;" x1="188.5" x2="230.5" y1="427.5" y2="427.5"/><line style="stroke:#181818;stroke-width:1.0;" x1="230.5" x2="230.5" y1="427.5" y2="440.5"/><line style="stroke:#181818;stroke-width:1.0;" x1="189.5" x2="230.5" y1="440.5" y2="440.5"/><polygon fill="#181818" points="199.5,436.5,189.5,440.5,199.5,444.5,195.5,440.5" style="stroke:#181818;stroke-width:1.0;"/><text fill="#000000" font-family="NanumGothic" font-size="13" lengthAdjust="spacing" textLength="208" x="195.5" y="422.51">&#52264;&#51669; &#54532;&#47196;&#54028;&#51068;&#50640;&#49436; &#52649;&#51204;&#47049; &#51228;&#54620; &#44032;&#51256;&#50740;</text><path d="M415,400.1 L415,454.1 L672,454.1 L672,410.1 L662,400.1 L415,400.1 " fill="#7D5393" style="stroke:#000000;stroke-width:0.5;"/><path d="M662,400.1 L662,410.1 L672,410.1 L662,400.1 " fill="#7D5393" style="stroke:#000000;stroke-width:0.5;"/><text fill="#FFFFFF" font-family="NanumGothic" font-size="13" lengthAdjust="spacing" textLength="236" x="421" y="417.06">&#52649;&#51204;&#44592;&#45716; &#52572;&#45824; &#51204;&#47448;&#44032; &#48320;&#44221;&#46104;&#50612;&#50556; &#54624; &#46412;&#47560;&#45796;</text><text fill="#FFFFFF" font-family="NanumGothic" font-size="13" lengthAdjust="spacing" textLength="145" x="421" y="432.01">Control Pilot &#49888;&#54840;&#47484; &#53685;&#54644;</text><text fill="#FFFFFF" font-family="NanumGothic" font-size="13" lengthAdjust="spacing" textLength="177" x="421" y="446.96">TxDefaultProfile&#51012; &#44396;&#54788;&#54633;&#45768;&#45796;.</text><polygon fill="#181818" points="51.5,476.9,41.5,480.9,51.5,484.9,47.5,480.9" style="stroke:#181818;stroke-width:1.0;"/><line style="stroke:#181818;stroke-width:1.0;" x1="45.5" x2="177.5" y1="480.9" y2="480.9"/><text fill="#000000" font-family="NanumGothic" font-size="13" lengthAdjust="spacing" textLength="114" x="57.5" y="475.91">&#52572;&#45824; &#51204;&#47448;(&#51228;&#54620;) &#49444;&#51221;</text><path d="M113.5,495.9 L179.5,495.9 L179.5,502.85 L169.5,512.85 L113.5,512.85 L113.5,495.9 " fill="#EEEEEE" style="stroke:#000000;stroke-width:1.5;"/><rect fill="none" height="95.8" style="stroke:#000000;stroke-width:1.5;" width="679" x="113.5" y="495.9"/><text fill="#000000" font-family="NanumGothic" font-size="13" font-weight="bold" lengthAdjust="spacing" textLength="21" x="128.5" y="508.86">opt</text><text fill="#000000" font-family="NanumGothic" font-size="11" font-weight="bold" lengthAdjust="spacing" textLength="147" x="194.5" y="508.02">[&#52968;&#53944;&#47204;&#47084;&#50640; &#51032;&#54644; &#51228;&#54620;&#51060; &#48320;&#44221;&#46120;]</text><polygon fill="#181818" points="199.5,540.275,189.5,544.275,199.5,548.275,195.5,544.275" style="stroke:#181818;stroke-width:1.0;"/><line style="stroke:#181818;stroke-width:1.0;" x1="193.5" x2="537.5" y1="544.275" y2="544.275"/><text fill="#000000" font-family="NanumGothic" font-size="13" lengthAdjust="spacing" textLength="331" x="205.5" y="539.285">SetChargingProfileRequest(evseId, csChargingProfiles)</text><path d="M553,517.85 L553,556.85 L782,556.85 L782,527.85 L772,517.85 L553,517.85 " fill="#7D5393" style="stroke:#000000;stroke-width:0.5;"/><path d="M772,517.85 L772,527.85 L782,527.85 L772,517.85 " fill="#7D5393" style="stroke:#000000;stroke-width:0.5;"/><text fill="#FFFFFF" font-family="NanumGothic" font-size="13" lengthAdjust="spacing" textLength="88" x="559" y="534.81">&#47196;&#52972; &#52968;&#53944;&#47204;&#47084;&#44032;</text><text fill="#FFFFFF" font-family="NanumGothic" font-size="13" lengthAdjust="spacing" textLength="208" x="559" y="549.76">&#52264;&#51669; &#54532;&#47196;&#54028;&#51068;&#51012; &#48320;&#44221;&#54624; &#51648; &#44208;&#51221;&#54633;&#45768;&#45796;</text><polygon fill="#181818" points="531.5,579.7,541.5,583.7,531.5,587.7,535.5,583.7" style="stroke:#181818;stroke-width:1.0;"/><line style="stroke:#181818;stroke-width:1.0;stroke-dasharray:2.0,2.0;" x1="183.5" x2="537.5" y1="583.7" y2="583.7"/><text fill="#000000" font-family="NanumGothic" font-size="13" lengthAdjust="spacing" textLength="238" x="190.5" y="578.71">SetChargingProfileResponse(Accepted)</text><path d="M17,610.7 L17,634.7 L891,634.7 L891,620.7 L881,610.7 L17,610.7 " fill="#7D5393" style="stroke:#000000;stroke-width:0.5;"/><path d="M881,610.7 L881,620.7 L891,620.7 L881,610.7 " fill="#7D5393" style="stroke:#000000;stroke-width:0.5;"/><text fill="#FFFFFF" font-family="NanumGothic" font-size="13" lengthAdjust="spacing" textLength="92" x="403.5" y="627.66">&#49324;&#50857;&#51088; &#51064;&#51613; &#49457;&#44277;</text><polygon fill="#181818" points="51.5,657.6,41.5,661.6,51.5,665.6,47.5,661.6" style="stroke:#181818;stroke-width:1.0;"/><line style="stroke:#181818;stroke-width:1.0;stroke-dasharray:2.0,2.0;" x1="45.5" x2="182.5" y1="661.6" y2="661.6"/><text fill="#000000" font-family="NanumGothic" font-size="13" lengthAdjust="spacing" textLength="52" x="57.5" y="656.61">&#52649;&#51204; &#51333;&#47308;</text><line style="stroke:#181818;stroke-width:1.0;" x1="183.5" x2="230.5" y1="685.55" y2="685.55"/><line style="stroke:#181818;stroke-width:1.0;" x1="230.5" x2="230.5" y1="685.55" y2="698.55"/><line style="stroke:#181818;stroke-width:1.0;" x1="189.5" x2="230.5" y1="698.55" y2="698.55"/><polygon fill="#181818" points="199.5,694.55,189.5,698.55,199.5,702.55,195.5,698.55" style="stroke:#181818;stroke-width:1.0;"/><text fill="#000000" font-family="NanumGothic" font-size="13" lengthAdjust="spacing" textLength="40" x="195.5" y="680.56">&#51204;&#50896; &#45140;</text><polygon fill="#181818" points="526.5,758.4,536.5,762.4,526.5,766.4,530.5,762.4" style="stroke:#181818;stroke-width:1.0;"/><line style="stroke:#181818;stroke-width:1.0;" x1="188.5" x2="532.5" y1="762.4" y2="762.4"/><text fill="#000000" font-family="NanumGothic" font-size="13" lengthAdjust="spacing" textLength="291" x="195.5" y="727.51">TransactionEventRequest(eventType = Updated,</text><text fill="#000000" font-family="NanumGothic" font-size="13" lengthAdjust="spacing" textLength="149" x="211.5" y="742.46">transactionId = AB1234,</text><text fill="#000000" font-family="NanumGothic" font-size="13" lengthAdjust="spacing" textLength="208" x="211.5" y="757.41">chargingState = EVConnected, ...)</text><polygon fill="#181818" points="855.5,817.25,865.5,821.25,855.5,825.25,859.5,821.25" style="stroke:#181818;stroke-width:1.0;"/><line style="stroke:#181818;stroke-width:1.0;" x1="548.5" x2="861.5" y1="821.25" y2="821.25"/><text fill="#000000" font-family="NanumGothic" font-size="13" lengthAdjust="spacing" textLength="291" x="555.5" y="786.36">TransactionEventRequest(eventType = Updated,</text><text fill="#000000" font-family="NanumGothic" font-size="13" lengthAdjust="spacing" textLength="149" x="571.5" y="801.31">transactionId = AB1234,</text><text fill="#000000" font-family="NanumGothic" font-size="13" lengthAdjust="spacing" textLength="208" x="571.5" y="816.26">chargingState = EVConnected, ...)</text><polygon fill="#181818" points="559.5,846.2,549.5,850.2,559.5,854.2,555.5,850.2" style="stroke:#181818;stroke-width:1.0;"/><line style="stroke:#181818;stroke-width:1.0;stroke-dasharray:2.0,2.0;" x1="553.5" x2="871.5" y1="850.2" y2="850.2"/><text fill="#000000" font-family="NanumGothic" font-size="13" lengthAdjust="spacing" textLength="183" x="565.5" y="845.21">TransactionEventResponse(...)</text><polygon fill="#181818" points="194.5,875.15,184.5,879.15,194.5,883.15,190.5,879.15" style="stroke:#181818;stroke-width:1.0;"/><line style="stroke:#181818;stroke-width:1.0;stroke-dasharray:2.0,2.0;" x1="188.5" x2="542.5" y1="879.15" y2="879.15"/><text fill="#000000" font-family="NanumGothic" font-size="13" lengthAdjust="spacing" textLength="183" x="200.5" y="874.16">TransactionEventResponse(...)</text><path d="M17,892.15 L17,916.15 L891,916.15 L891,902.15 L881,892.15 L17,892.15 " fill="#7D5393" style="stroke:#000000;stroke-width:0.5;"/><path d="M881,892.15 L881,902.15 L891,902.15 L881,892.15 " fill="#7D5393" style="stroke:#000000;stroke-width:0.5;"/><text fill="#FFFFFF" font-family="NanumGothic" font-size="13" lengthAdjust="spacing" textLength="76" x="411.5" y="909.11">&#53944;&#47004;&#51117;&#49496; &#51333;&#47308;</text><!--SRC=[rLPTJzDG6BxlhtZb2X9OuiSLYIQ8ko3HX3ZSbJTDTu0cjQrjH-Hkc68KTe79gbLN608oafbCO6O9ym_rdFu7ttFMigsK3w_Kk-xzVDwFvpsxfUgALYuHi9rLZUJCyWjDaapPSbH5DMNTWR5ySGna6_B5KV7iicmjgVeI51pPKGrT62N2M3RgyTXGP0rc3Tsn34qZbl0Gme4ibQFmfD2FYn-If1iE0ME5M0XciYy3OAzRxFCHszu25dJPju1zn2_tHtZIYJm_F6b0jD6bstMs_Psj-omu1RQ9FzxJhQP4z1Bmc9AKmWrJ3p35DB1EdLOhm1ekFV37MQCUUVK9ZBxF6fuaAuww8YEYTD5PqLAYQHwJVK6alPOavOlP9Z-Fq2h6EqY7WpZ_JdSlAtNAPXe05YnPjtaGGy-l4DrvIbwMYUsC4_vZOTKaS1-UcINCK9g4vpfwW3DmcIkXUkRXxJjtxoLQPIWjTqvWJ48kbviOQfMOOmgHA1uLVmEPn1F3L5QRBaAnJKEtoRXmB97hYieQwOrZNXYiPXWci7QJ7NeGrLowMu-gLHRq-BhJMfi6FQ1xJTG0FQb4dseIqMoIwH3u4BRNE5iYjqsFgn1sss7R5O6gbSWxHLBTQ8CpmJ2t7YyktNa7VSfWlWfhT9dFGmiIM-hIiYFn-VHj4GBTg8to3PruBU7nBxhbim-dpEj1v3M0UbLw-9PkxWl_k4Smhsg6WrnfH7wN7g3bcqw_5DofLu_8ebpMd7dBM5GrmW8Nmauhyjt8EwARF5GE3GVN8BF-Q-y1kXacGZXhyekpkqztMk8M1Ju2YJl1xqzIKrE0o-92kjC5uYIok8G1BMmoXqnGx9I1FI6YNxvFN9iQ1G0EafsrHah0ASJAp5routBuODXX1SBZDlRYlA_2TRYn6QtDubvMnJ5JPXI5c4Z_Ve5NK2QbJbzfWOi_0JTyL-97vQf78zcI-6v_NQTxrJzw3UXQxV9dvPy_-laY9jI98WByQtV_8hZ_vF9ViSBPYplyVoTPmlEb_Gq0]--></g></svg>