<?xml version="1.0" encoding="us-ascii" standalone="no"?><svg xmlns="http://www.w3.org/2000/svg" xmlns:xlink="http://www.w3.org/1999/xlink" contentStyleType="text/css" height="528px" preserveAspectRatio="none" style="width:639px;height:528px;background:#FFFFFF;" version="1.1" viewBox="0 0 639 528" width="639px" zoomAndPan="magnify"><defs/><g><rect fill="#FFFFFF" height="28.95" style="stroke:#181818;stroke-width:1.0;" width="10" x="40.5" y="102"/><rect fill="#FFFFFF" height="228.65" style="stroke:#181818;stroke-width:1.0;" width="10" x="40.5" y="201.85"/><rect fill="#FFFFFF" height="128.8" style="stroke:#181818;stroke-width:1.0;" width="10" x="361.5" y="102"/><rect fill="#FFFFFF" height="152.8" style="stroke:#181818;stroke-width:1.0;" width="10" x="361.5" y="359.6"/><rect fill="#FFFFFF" height="70.9" style="stroke:#181818;stroke-width:1.0;" width="10" x="534.5" y="259.75"/><rect fill="none" height="58.9" style="stroke:#000000;stroke-width:1.5;" width="186" x="296.5" y="445.5"/><line style="stroke:#181818;stroke-width:0.5;stroke-dasharray:5.0,5.0;" x1="45" x2="45" y1="36.1" y2="521.4"/><line style="stroke:#181818;stroke-width:0.5;stroke-dasharray:5.0,5.0;" x1="366.5" x2="366.5" y1="36.1" y2="521.4"/><line style="stroke:#181818;stroke-width:0.5;stroke-dasharray:5.0,5.0;" x1="539" x2="539" y1="36.1" y2="521.4"/><rect fill="#7D5393" height="30.1" rx="2.5" ry="2.5" style="stroke:#181818;stroke-width:0.5;" width="53" x="19" y="5"/><text fill="#FFFFFF" font-family="NanumGothic" font-size="14" lengthAdjust="spacing" textLength="39" x="26" y="24.88">CSMS</text><rect fill="#7D5393" height="30.1" rx="2.5" ry="2.5" style="stroke:#181818;stroke-width:0.5;" width="120" x="306.5" y="5"/><text fill="#FFFFFF" font-family="NanumGothic" font-size="14" lengthAdjust="spacing" textLength="106" x="313.5" y="24.88">Charging Station</text><rect fill="#7D5393" height="30.1" rx="2.5" ry="2.5" style="stroke:#181818;stroke-width:0.5;" width="187" x="446" y="5"/><text fill="#FFFFFF" font-family="NanumGothic" font-size="14" lengthAdjust="spacing" textLength="173" x="453" y="24.88">Certificate Authority Server</text><rect fill="#FFFFFF" height="28.95" style="stroke:#181818;stroke-width:1.0;" width="10" x="40.5" y="102"/><rect fill="#FFFFFF" height="228.65" style="stroke:#181818;stroke-width:1.0;" width="10" x="40.5" y="201.85"/><rect fill="#FFFFFF" height="128.8" style="stroke:#181818;stroke-width:1.0;" width="10" x="361.5" y="102"/><rect fill="#FFFFFF" height="152.8" style="stroke:#181818;stroke-width:1.0;" width="10" x="361.5" y="359.6"/><rect fill="#FFFFFF" height="70.9" style="stroke:#181818;stroke-width:1.0;" width="10" x="534.5" y="259.75"/><path d="M5,51.1 L5,75.1 L407,75.1 L407,61.1 L397,51.1 L5,51.1 " fill="#7D5393" style="stroke:#000000;stroke-width:0.5;"/><path d="M397,51.1 L397,61.1 L407,61.1 L397,51.1 " fill="#7D5393" style="stroke:#000000;stroke-width:0.5;"/><text fill="#FFFFFF" font-family="NanumGothic" font-size="13" lengthAdjust="spacing" textLength="140" x="131.75" y="68.06">CS &#51064;&#51613;&#49436; &#47564;&#47308; &#44592;&#44036; &#46020;&#47000;</text><polygon fill="#181818" points="349.5,98,359.5,102,349.5,106,353.5,102" style="stroke:#181818;stroke-width:1.0;"/><line style="stroke:#181818;stroke-width:1.0;" x1="50.5" x2="355.5" y1="102" y2="102"/><text fill="#000000" font-family="NanumGothic" font-size="13" lengthAdjust="spacing" textLength="244" x="57.5" y="97.01">TriggerMessageRequest(SignCertificate)</text><polygon fill="#181818" points="56.5,126.95,46.5,130.95,56.5,134.95,52.5,130.95" style="stroke:#181818;stroke-width:1.0;"/><line style="stroke:#181818;stroke-width:1.0;stroke-dasharray:2.0,2.0;" x1="50.5" x2="360.5" y1="130.95" y2="130.95"/><text fill="#000000" font-family="NanumGothic" font-size="13" lengthAdjust="spacing" textLength="221" x="62.5" y="125.96">TriggerMessageResponse(Accepted)</text><line style="stroke:#181818;stroke-width:1.0;" x1="371.5" x2="413.5" y1="159.9" y2="159.9"/><line style="stroke:#181818;stroke-width:1.0;" x1="413.5" x2="413.5" y1="159.9" y2="172.9"/><line style="stroke:#181818;stroke-width:1.0;" x1="372.5" x2="413.5" y1="172.9" y2="172.9"/><polygon fill="#181818" points="382.5,168.9,372.5,172.9,382.5,176.9,378.5,172.9" style="stroke:#181818;stroke-width:1.0;"/><text fill="#000000" font-family="NanumGothic" font-size="13" lengthAdjust="spacing" textLength="149" x="378.5" y="154.91">&#49888;&#44508; &#44277;&#44060; / &#44060;&#51064; &#53412; &#49933; &#48156;&#44553;</text><polygon fill="#181818" points="61.5,197.85,51.5,201.85,61.5,205.85,57.5,201.85" style="stroke:#181818;stroke-width:1.0;"/><line style="stroke:#181818;stroke-width:1.0;" x1="55.5" x2="360.5" y1="201.85" y2="201.85"/><text fill="#000000" font-family="NanumGothic" font-size="13" lengthAdjust="spacing" textLength="164" x="67.5" y="196.86">SignCertificateRequest(csr)</text><polygon fill="#181818" points="354.5,226.8,364.5,230.8,354.5,234.8,358.5,230.8" style="stroke:#181818;stroke-width:1.0;"/><line style="stroke:#181818;stroke-width:1.0;stroke-dasharray:2.0,2.0;" x1="50.5" x2="360.5" y1="230.8" y2="230.8"/><text fill="#000000" font-family="NanumGothic" font-size="13" lengthAdjust="spacing" textLength="212" x="57.5" y="225.81">SignCertificateResponse(Accepted)</text><polygon fill="#181818" points="522.5,255.75,532.5,259.75,522.5,263.75,526.5,259.75" style="stroke:#181818;stroke-width:1.0;"/><line style="stroke:#181818;stroke-width:1.0;" x1="50.5" x2="528.5" y1="259.75" y2="259.75"/><text fill="#000000" font-family="NanumGothic" font-size="13" lengthAdjust="spacing" textLength="64" x="57.5" y="254.76">CSR &#54252;&#50892;&#46377;</text><line style="stroke:#181818;stroke-width:1.0;" x1="544.5" x2="586.5" y1="288.7" y2="288.7"/><line style="stroke:#181818;stroke-width:1.0;" x1="586.5" x2="586.5" y1="288.7" y2="301.7"/><line style="stroke:#181818;stroke-width:1.0;" x1="545.5" x2="586.5" y1="301.7" y2="301.7"/><polygon fill="#181818" points="555.5,297.7,545.5,301.7,555.5,305.7,551.5,301.7" style="stroke:#181818;stroke-width:1.0;"/><text fill="#000000" font-family="NanumGothic" font-size="13" lengthAdjust="spacing" textLength="64" x="551.5" y="283.71">&#51064;&#51613;&#49436; &#49436;&#47749;</text><polygon fill="#181818" points="61.5,326.65,51.5,330.65,61.5,334.65,57.5,330.65" style="stroke:#181818;stroke-width:1.0;"/><line style="stroke:#181818;stroke-width:1.0;stroke-dasharray:2.0,2.0;" x1="55.5" x2="538.5" y1="330.65" y2="330.65"/><text fill="#000000" font-family="NanumGothic" font-size="13" lengthAdjust="spacing" textLength="104" x="67.5" y="325.66">&#49436;&#47749;&#46108; &#51064;&#51613;&#49436; &#48152;&#54872;</text><polygon fill="#181818" points="349.5,355.6,359.5,359.6,349.5,363.6,353.5,359.6" style="stroke:#181818;stroke-width:1.0;"/><line style="stroke:#181818;stroke-width:1.0;" x1="50.5" x2="355.5" y1="359.6" y2="359.6"/><text fill="#000000" font-family="NanumGothic" font-size="13" lengthAdjust="spacing" textLength="221" x="57.5" y="354.61">CertificateSignedRequest(certificate)</text><line style="stroke:#181818;stroke-width:1.0;" x1="371.5" x2="413.5" y1="388.55" y2="388.55"/><line style="stroke:#181818;stroke-width:1.0;" x1="413.5" x2="413.5" y1="388.55" y2="401.55"/><line style="stroke:#181818;stroke-width:1.0;" x1="372.5" x2="413.5" y1="401.55" y2="401.55"/><polygon fill="#181818" points="382.5,397.55,372.5,401.55,382.5,405.55,378.5,401.55" style="stroke:#181818;stroke-width:1.0;"/><text fill="#000000" font-family="NanumGothic" font-size="13" lengthAdjust="spacing" textLength="144" x="378.5" y="383.56">&#49436;&#47749;&#46108; &#51064;&#51613;&#49436; &#50976;&#54952;&#49457; &#44160;&#51613;</text><polygon fill="#181818" points="56.5,426.5,46.5,430.5,56.5,434.5,52.5,430.5" style="stroke:#181818;stroke-width:1.0;"/><line style="stroke:#181818;stroke-width:1.0;stroke-dasharray:2.0,2.0;" x1="50.5" x2="360.5" y1="430.5" y2="430.5"/><text fill="#000000" font-family="NanumGothic" font-size="13" lengthAdjust="spacing" textLength="287" x="62.5" y="425.51">CertificateSignedResponse (Accepted/Rejected)</text><path d="M296.5,445.5 L362.5,445.5 L362.5,452.45 L352.5,462.45 L296.5,462.45 L296.5,445.5 " fill="#EEEEEE" style="stroke:#000000;stroke-width:1.5;"/><rect fill="none" height="58.9" style="stroke:#000000;stroke-width:1.5;" width="186" x="296.5" y="445.5"/><text fill="#000000" font-family="NanumGothic" font-size="13" font-weight="bold" lengthAdjust="spacing" textLength="21" x="311.5" y="458.46">opt</text><text fill="#000000" font-family="NanumGothic" font-size="11" font-weight="bold" lengthAdjust="spacing" textLength="51" x="377.5" y="457.62">[&#53412; &#50976;&#50836;&#54632;]</text><line style="stroke:#181818;stroke-width:1.0;" x1="371.5" x2="413.5" y1="483.4" y2="483.4"/><line style="stroke:#181818;stroke-width:1.0;" x1="413.5" x2="413.5" y1="483.4" y2="496.4"/><line style="stroke:#181818;stroke-width:1.0;" x1="372.5" x2="413.5" y1="496.4" y2="496.4"/><polygon fill="#181818" points="382.5,492.4,372.5,496.4,382.5,500.4,378.5,496.4" style="stroke:#181818;stroke-width:1.0;"/><text fill="#000000" font-family="NanumGothic" font-size="13" lengthAdjust="spacing" textLength="92" x="378.5" y="478.41">&#49352; &#51064;&#51613;&#49436;&#47196; &#48320;&#44221;</text><!--SRC=[ZLExJiCm5Dtz5HScAW7T6P2gpYmDFn0bbs1Kaf2uIDqgA1A8eZ8KgK10HI1UOWYj45tueTZv1-ocj2K9Zy5HV6oVU-xnyHorZMhDHF1PlOhBRcsxIeYhUumQrDLj1lDbRKsR1zq7zPDQsjGzYzeMQ4ndrB6JRMDmZALEe9niK4Dd2AKQstGyokgWeRUBNdAwf15YEtBPaT2evcA64YGEuceexgz4Cm3-qEAtBOY6OHGsWRUR_BfBq3P1yH2YE61fDSso0kiUjIpqrj3tTGihk5D3dorerB9dP1Q8RZ2wgmIF39ZEKg982e0bLLCUoHRoNSVsSQ5a6EWoD0l4nEz5ibmvyiLnBteF81gyHM40HP1VwGd4UtSWMYV0mo0Q7kLJZLIb6ltgt_2zTC-9WtaQCXo_jfPnxEjcIb9EMQj0t7uHbotUUPeH80CXnsJRzDhbuCy795cTT9MW_3IO3KZOZS-xtwIecFqOZ9cEL8DeJhp9pyMVISYxlHoT8kZ55u-Y-GfHlo6ntpALep7n7YRc5okuXKP-m1oN9Ka9UkAY4vyzgaVr7zdxXrF1_4PwEsX4_G_rtCWd]--></g></svg>