<?xml version="1.0" encoding="us-ascii" standalone="no"?><svg xmlns="http://www.w3.org/2000/svg" xmlns:xlink="http://www.w3.org/1999/xlink" contentStyleType="text/css" height="121px" preserveAspectRatio="none" style="width:314px;height:121px;background:#FFFFFF;" version="1.1" viewBox="0 0 314 121" width="314px" zoomAndPan="magnify"><defs/><g><rect fill="#FFFFFF" height="28.95" style="stroke:#181818;stroke-width:1.0;" width="10" x="56.5" y="67.05"/><rect fill="#FFFFFF" height="28.95" style="stroke:#181818;stroke-width:1.0;" width="10" x="276.5" y="67.05"/><line style="stroke:#181818;stroke-width:0.5;stroke-dasharray:5.0,5.0;" x1="61" x2="61" y1="36.1" y2="114"/><line style="stroke:#181818;stroke-width:0.5;stroke-dasharray:5.0,5.0;" x1="281" x2="281" y1="36.1" y2="114"/><rect fill="#7D5393" height="30.1" rx="2.5" ry="2.5" style="stroke:#181818;stroke-width:0.5;" width="113" x="5" y="5"/><text fill="#FFFFFF" font-family="NanumGothic" font-size="14" lengthAdjust="spacing" textLength="99" x="12" y="24.88">Local Controller</text><rect fill="#7D5393" height="30.1" rx="2.5" ry="2.5" style="stroke:#181818;stroke-width:0.5;" width="53" x="255" y="5"/><text fill="#FFFFFF" font-family="NanumGothic" font-size="14" lengthAdjust="spacing" textLength="39" x="262" y="24.88">CSMS</text><rect fill="#FFFFFF" height="28.95" style="stroke:#181818;stroke-width:1.0;" width="10" x="56.5" y="67.05"/><rect fill="#FFFFFF" height="28.95" style="stroke:#181818;stroke-width:1.0;" width="10" x="276.5" y="67.05"/><polygon fill="#181818" points="77.5,63.05,67.5,67.05,77.5,71.05,73.5,67.05" style="stroke:#181818;stroke-width:1.0;"/><line style="stroke:#181818;stroke-width:1.0;" x1="71.5" x2="275.5" y1="67.05" y2="67.05"/><text fill="#000000" font-family="NanumGothic" font-size="13" lengthAdjust="spacing" textLength="177" x="83.5" y="62.06">UnpublishFirmwareRequest()</text><polygon fill="#181818" points="269.5,92,279.5,96,269.5,100,273.5,96" style="stroke:#181818;stroke-width:1.0;"/><line style="stroke:#181818;stroke-width:1.0;" x1="61.5" x2="275.5" y1="96" y2="96"/><text fill="#000000" font-family="NanumGothic" font-size="13" lengthAdjust="spacing" textLength="186" x="68.5" y="91.01">UnpublishFirmwareResponse()</text><!--SRC=[TOqz3i8m34RtdC9qWW4EmC1IYGaMAWvWKajOSfEGE21k3maIFmKMo_Bpzxu9Eokv9qXw5Lg4F8Wn0QEovO1EeTbuYmAjTngz2CK6C44zlcwVYRRRTlMhBCQK2VFLEBE4lGlv89oEQux31IFjw9GfwNHcq2gVKUchw0aUxX4kDGNyTAVWNQAxlAU_-ZTK2su0]--></g></svg>