<?xml version="1.0" encoding="us-ascii" standalone="no"?><svg xmlns="http://www.w3.org/2000/svg" xmlns:xlink="http://www.w3.org/1999/xlink" contentStyleType="text/css" height="1111px" preserveAspectRatio="none" style="width:1107px;height:1111px;background:#FFFFFF;" version="1.1" viewBox="0 0 1107 1111" width="1107px" zoomAndPan="magnify"><defs/><g><rect fill="#FFFFFF" height="49.9" style="stroke:#181818;stroke-width:1.0;" width="10" x="96.5" y="93.0999"/><rect fill="#FFFFFF" height="342.3502" style="stroke:#181818;stroke-width:1.0;" width="10" x="237.5" y="592.2002"/><rect fill="#FFFFFF" height="144.7501" style="stroke:#181818;stroke-width:1.0;" width="10" x="373" y="114.0499"/><rect fill="#FFFFFF" height="225.6001" style="stroke:#181818;stroke-width:1.0;" width="10" x="373" y="287.75"/><rect fill="#FFFFFF" height="101.8001" style="stroke:#181818;stroke-width:1.0;" width="10" x="373" y="707.0002"/><rect fill="#FFFFFF" height="115.8001" style="stroke:#181818;stroke-width:1.0;" width="10" x="373" y="970.5004"/><rect fill="#FFFFFF" height="86.85" style="stroke:#181818;stroke-width:1.0;" width="10" x="963" y="171.95"/><rect fill="#FFFFFF" height="28.95" style="stroke:#181818;stroke-width:1.0;" width="10" x="963" y="316.7"/><rect fill="#FFFFFF" height="28.95" style="stroke:#181818;stroke-width:1.0;" width="10" x="963" y="484.4001"/><rect fill="#FFFFFF" height="114.8001" style="stroke:#181818;stroke-width:1.0;" width="10" x="963" y="621.1502"/><rect fill="#FFFFFF" height="28.95" style="stroke:#181818;stroke-width:1.0;" width="10" x="963" y="779.8503"/><rect fill="#FFFFFF" height="248.5501" style="stroke:#181818;stroke-width:1.0;" width="10" x="963" y="837.7503"/><rect fill="none" height="45.9" style="stroke:#000000;stroke-width:1.5;" width="389" x="59" y="360.65"/><rect fill="none" height="45.9" style="stroke:#000000;stroke-width:1.5;" width="259" x="59" y="896.6503"/><line style="stroke:#181818;stroke-width:0.5;stroke-dasharray:5.0,5.0;" x1="101" x2="101" y1="83.0999" y2="1104.3004"/><line style="stroke:#181818;stroke-width:0.5;stroke-dasharray:5.0,5.0;" x1="242" x2="242" y1="83.0999" y2="1104.3004"/><line style="stroke:#181818;stroke-width:0.5;stroke-dasharray:5.0,5.0;" x1="378" x2="378" y1="83.0999" y2="1104.3004"/><line style="stroke:#181818;stroke-width:0.5;stroke-dasharray:5.0,5.0;" x1="967.5" x2="967.5" y1="83.0999" y2="1104.3004"/><text fill="#000000" font-family="NanumGothic" font-size="14" lengthAdjust="spacing" textLength="59" x="69" y="79.8799">EV Driver</text><ellipse cx="101.5" cy="14.5" fill="#E2E2F0" rx="8" ry="8" style="stroke:#7D5393;stroke-width:1.5;"/><path d="M101.5,22.5 L101.5,49.5 M88.5,30.5 L114.5,30.5 M101.5,49.5 L88.5,64.5 M101.5,49.5 L114.5,64.5 " fill="none" style="stroke:#7D5393;stroke-width:1.5;"/><rect fill="#7D5393" height="30.0999" rx="2.5" ry="2.5" style="stroke:#181818;stroke-width:0.5;" width="131" x="177" y="52"/><text fill="#FFFFFF" font-family="NanumGothic" font-size="14" lengthAdjust="spacing" textLength="117" x="184" y="71.8799">Payment Terminal</text><rect fill="#7D5393" height="30.0999" rx="2.5" ry="2.5" style="stroke:#181818;stroke-width:0.5;" width="120" x="318" y="52"/><text fill="#FFFFFF" font-family="NanumGothic" font-size="14" lengthAdjust="spacing" textLength="106" x="325" y="71.8799">Charging Station</text><rect fill="#7D5393" height="30.0999" rx="2.5" ry="2.5" style="stroke:#181818;stroke-width:0.5;" width="53" x="941.5" y="52"/><text fill="#FFFFFF" font-family="NanumGothic" font-size="14" lengthAdjust="spacing" textLength="39" x="948.5" y="71.8799">CSMS</text><rect fill="#FFFFFF" height="49.9" style="stroke:#181818;stroke-width:1.0;" width="10" x="96.5" y="93.0999"/><rect fill="#FFFFFF" height="342.3502" style="stroke:#181818;stroke-width:1.0;" width="10" x="237.5" y="592.2002"/><rect fill="#FFFFFF" height="144.7501" style="stroke:#181818;stroke-width:1.0;" width="10" x="373" y="114.0499"/><rect fill="#FFFFFF" height="225.6001" style="stroke:#181818;stroke-width:1.0;" width="10" x="373" y="287.75"/><rect fill="#FFFFFF" height="101.8001" style="stroke:#181818;stroke-width:1.0;" width="10" x="373" y="707.0002"/><rect fill="#FFFFFF" height="115.8001" style="stroke:#181818;stroke-width:1.0;" width="10" x="373" y="970.5004"/><rect fill="#FFFFFF" height="86.85" style="stroke:#181818;stroke-width:1.0;" width="10" x="963" y="171.95"/><rect fill="#FFFFFF" height="28.95" style="stroke:#181818;stroke-width:1.0;" width="10" x="963" y="316.7"/><rect fill="#FFFFFF" height="28.95" style="stroke:#181818;stroke-width:1.0;" width="10" x="963" y="484.4001"/><rect fill="#FFFFFF" height="114.8001" style="stroke:#181818;stroke-width:1.0;" width="10" x="963" y="621.1502"/><rect fill="#FFFFFF" height="28.95" style="stroke:#181818;stroke-width:1.0;" width="10" x="963" y="779.8503"/><rect fill="#FFFFFF" height="248.5501" style="stroke:#181818;stroke-width:1.0;" width="10" x="963" y="837.7503"/><polygon fill="#181818" points="361,110.0499,371,114.0499,361,118.0499,365,114.0499" style="stroke:#181818;stroke-width:1.0;"/><line style="stroke:#181818;stroke-width:1.0;" x1="106.5" x2="367" y1="114.0499" y2="114.0499"/><text fill="#000000" font-family="NanumGothic" font-size="13" lengthAdjust="spacing" textLength="64" x="113.5" y="109.0599">&#52992;&#51060;&#48660; &#50672;&#44208;</text><polygon fill="#181818" points="951,167.95,961,171.95,951,175.95,955,171.95" style="stroke:#181818;stroke-width:1.0;"/><line style="stroke:#181818;stroke-width:1.0;" x1="383" x2="957" y1="171.95" y2="171.95"/><text fill="#000000" font-family="NanumGothic" font-size="13" lengthAdjust="spacing" textLength="223" x="390" y="166.96">StatusNotificationRequest(Occupied)</text><polygon fill="#181818" points="394,196.9,384,200.9,394,204.9,390,200.9" style="stroke:#181818;stroke-width:1.0;"/><line style="stroke:#181818;stroke-width:1.0;stroke-dasharray:2.0,2.0;" x1="388" x2="962" y1="200.9" y2="200.9"/><text fill="#000000" font-family="NanumGothic" font-size="13" lengthAdjust="spacing" textLength="176" x="400" y="195.91">StatusNotificationResponse()</text><polygon fill="#181818" points="951,225.85,961,229.85,951,233.85,955,229.85" style="stroke:#181818;stroke-width:1.0;"/><line style="stroke:#181818;stroke-width:1.0;" x1="383" x2="957" y1="229.85" y2="229.85"/><text fill="#000000" font-family="NanumGothic" font-size="13" lengthAdjust="spacing" textLength="304" x="390" y="224.86">TransactionEventRequest(eventType = Started, ...)</text><polygon fill="#181818" points="389,254.8,379,258.8,389,262.8,385,258.8" style="stroke:#181818;stroke-width:1.0;"/><line style="stroke:#181818;stroke-width:1.0;stroke-dasharray:2.0,2.0;" x1="383" x2="967" y1="258.8" y2="258.8"/><text fill="#000000" font-family="NanumGothic" font-size="13" lengthAdjust="spacing" textLength="183" x="395" y="253.81">TransactionEventResponse(...)</text><polygon fill="#181818" points="361,283.75,371,287.75,361,291.75,365,287.75" style="stroke:#181818;stroke-width:1.0;"/><line style="stroke:#181818;stroke-width:1.0;stroke-dasharray:2.0,2.0;" x1="101.5" x2="367" y1="287.75" y2="287.75"/><text fill="#000000" font-family="NanumGothic" font-size="13" lengthAdjust="spacing" textLength="122" x="108.5" y="282.76">&#51452;&#52264; &#54000;&#53011;(1234) &#51228;&#49884;</text><polygon fill="#181818" points="951,312.7,961,316.7,951,320.7,955,316.7" style="stroke:#181818;stroke-width:1.0;"/><line style="stroke:#181818;stroke-width:1.0;" x1="383" x2="957" y1="316.7" y2="316.7"/><text fill="#000000" font-family="NanumGothic" font-size="13" lengthAdjust="spacing" textLength="317" x="390" y="311.71">AuthorizeRequest(idToken(id = 1234, type = Local))</text><polygon fill="#181818" points="394,341.65,384,345.65,394,349.65,390,345.65" style="stroke:#181818;stroke-width:1.0;"/><line style="stroke:#181818;stroke-width:1.0;stroke-dasharray:2.0,2.0;" x1="388" x2="967" y1="345.65" y2="345.65"/><text fill="#000000" font-family="NanumGothic" font-size="13" lengthAdjust="spacing" textLength="139" x="400" y="340.66">AuthorizeResponse(...)</text><path d="M59,360.65 L125,360.65 L125,367.6001 L115,377.6001 L59,377.6001 L59,360.65 " fill="#EEEEEE" style="stroke:#000000;stroke-width:1.5;"/><rect fill="none" height="45.9" style="stroke:#000000;stroke-width:1.5;" width="389" x="59" y="360.65"/><text fill="#000000" font-family="NanumGothic" font-size="13" font-weight="bold" lengthAdjust="spacing" textLength="21" x="74" y="373.6101">opt</text><polygon fill="#181818" points="112.5,394.5501,102.5,398.5501,112.5,402.5501,108.5,398.5501" style="stroke:#181818;stroke-width:1.0;"/><line style="stroke:#181818;stroke-width:1.0;stroke-dasharray:2.0,2.0;" x1="106.5" x2="372" y1="398.5501" y2="398.5501"/><text fill="#000000" font-family="NanumGothic" font-size="13" lengthAdjust="spacing" textLength="24" x="118.5" y="393.5601">&#50508;&#47548;</text><path d="M341,418.5501 L341,442.5501 L414,442.5501 L414,428.5501 L404,418.5501 L341,418.5501 " fill="#7D5393" style="stroke:#000000;stroke-width:0.5;"/><path d="M404,418.5501 L404,428.5501 L414,428.5501 L404,418.5501 " fill="#7D5393" style="stroke:#000000;stroke-width:0.5;"/><text fill="#FFFFFF" font-family="NanumGothic" font-size="13" lengthAdjust="spacing" textLength="52" x="347" y="435.5101">&#52649;&#51204; &#49884;&#51089;</text><polygon fill="#181818" points="951,480.4001,961,484.4001,951,488.4001,955,484.4001" style="stroke:#181818;stroke-width:1.0;"/><line style="stroke:#181818;stroke-width:1.0;" x1="383" x2="957" y1="484.4001" y2="484.4001"/><text fill="#000000" font-family="NanumGothic" font-size="13" lengthAdjust="spacing" textLength="444" x="390" y="464.4601">TransactionEventRequest(eventType = Updated, transactionId = AB1234,</text><text fill="#000000" font-family="NanumGothic" font-size="13" lengthAdjust="spacing" textLength="519" x="398" y="479.4101">chargingState = Charging, trigger = Authorized, idToken.id = 1234, meterValues, ...)</text><polygon fill="#181818" points="389,509.3501,379,513.3501,389,517.3501,385,513.3501" style="stroke:#181818;stroke-width:1.0;"/><line style="stroke:#181818;stroke-width:1.0;stroke-dasharray:2.0,2.0;" x1="383" x2="967" y1="513.3501" y2="513.3501"/><text fill="#000000" font-family="NanumGothic" font-size="13" lengthAdjust="spacing" textLength="377" x="395" y="508.3601">TransactionEventResponse(idTokenInfo.status = Accepted, ...)</text><path d="M5,526.3501 L5,550.3501 L198,550.3501 L198,536.3501 L188,526.3501 L5,526.3501 " fill="#7D5393" style="stroke:#000000;stroke-width:0.5;"/><path d="M188,526.3501 L188,536.3501 L198,536.3501 L188,526.3501 " fill="#7D5393" style="stroke:#000000;stroke-width:0.5;"/><text fill="#FFFFFF" font-family="NanumGothic" font-size="13" lengthAdjust="spacing" textLength="172" x="11" y="543.3101">&#49324;&#50857;&#51088;&#44032; EV&#47484; &#54589;&#50629;&#54616;&#47084; &#46028;&#50500;&#50740;</text><polygon fill="#181818" points="225.5,588.2002,235.5,592.2002,225.5,596.2002,229.5,592.2002" style="stroke:#181818;stroke-width:1.0;"/><line style="stroke:#181818;stroke-width:1.0;stroke-dasharray:2.0,2.0;" x1="101.5" x2="231.5" y1="592.2002" y2="592.2002"/><text fill="#000000" font-family="NanumGothic" font-size="13" lengthAdjust="spacing" textLength="94" x="108.5" y="572.2602">&#51452;&#52264; &#54000;&#53011;(1234)</text><text fill="#000000" font-family="NanumGothic" font-size="13" lengthAdjust="spacing" textLength="24" x="116.5" y="587.2102">&#51228;&#49884;</text><polygon fill="#181818" points="951,617.1502,961,621.1502,951,625.1502,955,621.1502" style="stroke:#181818;stroke-width:1.0;"/><line style="stroke:#181818;stroke-width:1.0;" x1="247.5" x2="957" y1="621.1502" y2="621.1502"/><text fill="#000000" font-family="NanumGothic" font-size="13" lengthAdjust="spacing" textLength="122" x="254.5" y="616.1602">&#52649;&#51204;(id = 1234) &#51333;&#47308;</text><line style="stroke:#181818;stroke-width:1.0;" x1="973" x2="1015" y1="665.0502" y2="665.0502"/><line style="stroke:#181818;stroke-width:1.0;" x1="1015" x2="1015" y1="665.0502" y2="678.0502"/><line style="stroke:#181818;stroke-width:1.0;" x1="974" x2="1015" y1="678.0502" y2="678.0502"/><polygon fill="#181818" points="984,674.0502,974,678.0502,984,682.0502,980,678.0502" style="stroke:#181818;stroke-width:1.0;"/><text fill="#000000" font-family="NanumGothic" font-size="13" lengthAdjust="spacing" textLength="108" x="980" y="645.1102">ticketId&#50752; &#51068;&#52824;&#54616;&#45716;</text><text fill="#000000" font-family="NanumGothic" font-size="13" lengthAdjust="spacing" textLength="91" x="980" y="660.0602">TransactionId()</text><polygon fill="#181818" points="394,703.0002,384,707.0002,394,711.0002,390,707.0002" style="stroke:#181818;stroke-width:1.0;"/><line style="stroke:#181818;stroke-width:1.0;" x1="388" x2="962" y1="707.0002" y2="707.0002"/><text fill="#000000" font-family="NanumGothic" font-size="13" lengthAdjust="spacing" textLength="351" x="400" y="702.0102">RequestStopTransactionRequest(transactionId = AB1234)</text><polygon fill="#181818" points="956,731.9502,966,735.9502,956,739.9502,960,735.9502" style="stroke:#181818;stroke-width:1.0;"/><line style="stroke:#181818;stroke-width:1.0;stroke-dasharray:2.0,2.0;" x1="383" x2="962" y1="735.9502" y2="735.9502"/><text fill="#000000" font-family="NanumGothic" font-size="13" lengthAdjust="spacing" textLength="271" x="390" y="730.9602">RequestStopTransactionResponse(Accepted)</text><polygon fill="#181818" points="951,775.8503,961,779.8503,951,783.8503,955,779.8503" style="stroke:#181818;stroke-width:1.0;"/><line style="stroke:#181818;stroke-width:1.0;" x1="383" x2="957" y1="779.8503" y2="779.8503"/><text fill="#000000" font-family="NanumGothic" font-size="13" lengthAdjust="spacing" textLength="444" x="390" y="759.9102">TransactionEventRequest(eventType = Updated, transactionId = AB1234,</text><text fill="#000000" font-family="NanumGothic" font-size="13" lengthAdjust="spacing" textLength="553" x="398" y="774.8603">chargingState = EVConnected, trigger = RemoteStop, idToken.id = 1234, meterValues, ...)</text><polygon fill="#181818" points="389,804.8003,379,808.8003,389,812.8003,385,808.8003" style="stroke:#181818;stroke-width:1.0;"/><line style="stroke:#181818;stroke-width:1.0;stroke-dasharray:2.0,2.0;" x1="383" x2="967" y1="808.8003" y2="808.8003"/><text fill="#000000" font-family="NanumGothic" font-size="13" lengthAdjust="spacing" textLength="183" x="395" y="803.8103">TransactionEventResponse(...)</text><polygon fill="#181818" points="258.5,833.7503,248.5,837.7503,258.5,841.7503,254.5,837.7503" style="stroke:#181818;stroke-width:1.0;"/><polygon fill="#181818" points="951,833.7503,961,837.7503,951,841.7503,955,837.7503" style="stroke:#181818;stroke-width:1.0;"/><line style="stroke:#181818;stroke-width:1.0;stroke-dasharray:2.0,2.0;" x1="252.5" x2="957" y1="837.7503" y2="837.7503"/><text fill="#000000" font-family="NanumGothic" font-size="13" lengthAdjust="spacing" textLength="122" x="264.5" y="832.7603">&#44032;&#44201;(id = 1234) &#49688;&#49888;</text><polygon fill="#181818" points="225.5,877.6503,235.5,881.6503,225.5,885.6503,229.5,881.6503" style="stroke:#181818;stroke-width:1.0;"/><line style="stroke:#181818;stroke-width:1.0;" x1="101.5" x2="231.5" y1="881.6503" y2="881.6503"/><text fill="#000000" font-family="NanumGothic" font-size="13" lengthAdjust="spacing" textLength="108" x="108.5" y="861.7103">&#52649;&#51204; &#48143; &#51452;&#52264;&#50640; &#45824;&#54620;</text><text fill="#000000" font-family="NanumGothic" font-size="13" lengthAdjust="spacing" textLength="52" x="116.5" y="876.6603">&#50836;&#44552; &#44208;&#51228;</text><path d="M59,896.6503 L125,896.6503 L125,903.6003 L115,913.6003 L59,913.6003 L59,896.6503 " fill="#EEEEEE" style="stroke:#000000;stroke-width:1.5;"/><rect fill="none" height="45.9" style="stroke:#000000;stroke-width:1.5;" width="259" x="59" y="896.6503"/><text fill="#000000" font-family="NanumGothic" font-size="13" font-weight="bold" lengthAdjust="spacing" textLength="21" x="74" y="909.6103">opt</text><polygon fill="#181818" points="112.5,930.5503,102.5,934.5503,112.5,938.5503,108.5,934.5503" style="stroke:#181818;stroke-width:1.0;"/><line style="stroke:#181818;stroke-width:1.0;stroke-dasharray:2.0,2.0;" x1="106.5" x2="241.5" y1="934.5503" y2="934.5503"/><text fill="#000000" font-family="NanumGothic" font-size="13" lengthAdjust="spacing" textLength="24" x="118.5" y="929.5603">&#50508;&#47548;</text><polygon fill="#181818" points="361,966.5004,371,970.5004,361,974.5004,365,970.5004" style="stroke:#181818;stroke-width:1.0;"/><line style="stroke:#181818;stroke-width:1.0;" x1="101.5" x2="367" y1="970.5004" y2="970.5004"/><text fill="#000000" font-family="NanumGothic" font-size="13" lengthAdjust="spacing" textLength="64" x="108.5" y="965.5103">&#52992;&#51060;&#48660; &#51228;&#44144;</text><polygon fill="#181818" points="951,995.4504,961,999.4504,951,1003.4504,955,999.4504" style="stroke:#181818;stroke-width:1.0;"/><line style="stroke:#181818;stroke-width:1.0;" x1="383" x2="957" y1="999.4504" y2="999.4504"/><text fill="#000000" font-family="NanumGothic" font-size="13" lengthAdjust="spacing" textLength="220" x="390" y="994.4604">StatusNotificationRequest(Available)</text><polygon fill="#181818" points="394,1024.4004,384,1028.4004,394,1032.4004,390,1028.4004" style="stroke:#181818;stroke-width:1.0;"/><line style="stroke:#181818;stroke-width:1.0;stroke-dasharray:2.0,2.0;" x1="388" x2="962" y1="1028.4004" y2="1028.4004"/><text fill="#000000" font-family="NanumGothic" font-size="13" lengthAdjust="spacing" textLength="176" x="400" y="1023.4104">StatusNotificationResponse()</text><polygon fill="#181818" points="951,1053.3504,961,1057.3504,951,1061.3504,955,1057.3504" style="stroke:#181818;stroke-width:1.0;"/><line style="stroke:#181818;stroke-width:1.0;" x1="383" x2="957" y1="1057.3504" y2="1057.3504"/><text fill="#000000" font-family="NanumGothic" font-size="13" lengthAdjust="spacing" textLength="535" x="390" y="1052.3604">TransactionEventRequest(eventType = Ended, transactionId = AB1234, meterValues, ...)</text><polygon fill="#181818" points="389,1082.3004,379,1086.3004,389,1090.3004,385,1086.3004" style="stroke:#181818;stroke-width:1.0;"/><line style="stroke:#181818;stroke-width:1.0;stroke-dasharray:2.0,2.0;" x1="383" x2="967" y1="1086.3004" y2="1086.3004"/><text fill="#000000" font-family="NanumGothic" font-size="13" lengthAdjust="spacing" textLength="183" x="395" y="1081.3104">TransactionEventResponse(...)</text><!--SRC=[nLPTIzjG6BxFhtZdLGDQsCULJC6vNWZxmdQzcRiuIuxrO7gI9QS5TrM60va57Mkna-hAP6E25vd8SD3zeURqF-oSD35fcXQx2xrfapVd_NhUvtcJEuHgHaN7uB0j0sUjIjbG5AGnquQPN14UswIAxHb03kIAWnl5GZOZ6h4GPJ3p0csLiRWeOBjCA3Byeu4nj0rxB6yWkqHe2V8CCM9ItoCq1hQ4H_vfVd1ANFZLaIfYEAeel82vnMIaUU3T6Z-wy2uRm0_SthaR-IUJAWa3pBtQ8BgEwMiHDymn3mERekFHGaOZBFf5p_lDLfnd9YFhHFEVhUAt5Uomp7DDgrW4wsgiCBzF-GjpQIsb1NCiapeueqweeM0ZwiWa9irLnNp22h2yAMnP61PaQ9jXVHQosQmwgORHO445lcCCd2JAyKT-dz7qKiTtqkNkJ-ZlkhpxENFttlq7Al1Ec- -sfnba2C5IXMsODdc7mzw9NZ0tCHN_edaPVHRO08adfeOCTOgfn6AFWyAFO5fC0HWfSOXZl5dtVdGLJ7L5eQPmDIL0oJu1-EzJtja6WGO__YIFWpmz0G2u5WjUMZhoMS2YmoiIeQL70upMA80Moo6TmfpIYvHAejw521CHAu0w6uEwZ1csYyWG1GICkpRQO_aNf5cXwsRMyOKYwz0qR4MyJiva0brZy5_9NE3-_emVdlBZ_PvR4tRlUnVwZR_yu4E_sVA-de6tL-VDRTwwYCraYEU95Ia7ay9q2NEIxCdbgYGCqQm7v8YeBOJpxODtKay7EMA8sBoRcAte_4iD-56N_sd9hZusnACrMeWp8gF6l9CJ2eYLPwOLSmhfbiuiTHfHNvKyBbF0Y73uALgy3PtaYiicfLWB74EfhEAoe8diuSQaChKMabHx6Cr02A5tVZf4jfqMt-qeOxTzkWW62yrpzm8zy8DzyEgrVhFjWyaF6xtB7H3lSQ6BS9UEA21jbmB4EakAo5-qr_sCwBHxlrpudzVF-A-0fIeY1dfZOFMMNlmvgayYyYZzRe9m_m00]--></g></svg>