<?xml version="1.0" encoding="us-ascii" standalone="no"?><svg xmlns="http://www.w3.org/2000/svg" xmlns:xlink="http://www.w3.org/1999/xlink" contentStyleType="text/css" height="746px" preserveAspectRatio="none" style="width:990px;height:746px;background:#FFFFFF;" version="1.1" viewBox="0 0 990 746" width="990px" zoomAndPan="magnify"><defs/><g><rect fill="#FFFFFF" height="145.7" style="stroke:#181818;stroke-width:1.0;" width="10" x="135" y="114.05"/><rect fill="#FFFFFF" height="231.6" style="stroke:#181818;stroke-width:1.0;" width="10" x="135" y="490.3"/><rect fill="#FFFFFF" height="28.95" style="stroke:#181818;stroke-width:1.0;" width="10" x="612" y="143"/><rect fill="#FFFFFF" height="28.95" style="stroke:#181818;stroke-width:1.0;" width="10" x="612" y="230.8"/><rect fill="#FFFFFF" height="129.75" style="stroke:#181818;stroke-width:1.0;" width="10" x="612" y="389.5"/><rect fill="#FFFFFF" height="28.95" style="stroke:#181818;stroke-width:1.0;" width="10" x="612" y="692.95"/><rect fill="#FFFFFF" height="100.8" style="stroke:#181818;stroke-width:1.0;" width="10" x="898" y="288.7"/><rect fill="none" height="58.9" style="stroke:#000000;stroke-width:1.5;" width="349" x="70" y="534.25"/><line style="stroke:#181818;stroke-width:0.5;stroke-dasharray:5.0,5.0;" x1="37" x2="37" y1="83.1" y2="739.9"/><line style="stroke:#181818;stroke-width:0.5;stroke-dasharray:5.0,5.0;" x1="140" x2="140" y1="83.1" y2="739.9"/><line style="stroke:#181818;stroke-width:0.5;stroke-dasharray:5.0,5.0;" x1="616.5" x2="616.5" y1="83.1" y2="739.9"/><line style="stroke:#181818;stroke-width:0.5;stroke-dasharray:5.0,5.0;" x1="903" x2="903" y1="83.1" y2="739.9"/><text fill="#000000" font-family="NanumGothic" font-size="14" lengthAdjust="spacing" textLength="59" x="5" y="79.88">EV Driver</text><ellipse cx="37.5" cy="14.5" fill="#E2E2F0" rx="8" ry="8" style="stroke:#7D5393;stroke-width:1.5;"/><path d="M37.5,22.5 L37.5,49.5 M24.5,30.5 L50.5,30.5 M37.5,49.5 L24.5,64.5 M37.5,49.5 L50.5,64.5 " fill="none" style="stroke:#7D5393;stroke-width:1.5;"/><rect fill="#7D5393" height="46.2" rx="2.5" ry="2.5" style="stroke:#181818;stroke-width:0.5;" width="120" x="80" y="35.9"/><text fill="#FFFFFF" font-family="NanumGothic" font-size="14" lengthAdjust="spacing" textLength="106" x="87" y="55.78">Charging Station</text><text fill="#FFFFFF" font-family="NanumGothic" font-size="14" lengthAdjust="spacing" textLength="46" x="117" y="71.88">CS-001</text><rect fill="#7D5393" height="30.1" rx="2.5" ry="2.5" style="stroke:#181818;stroke-width:0.5;" width="53" x="590.5" y="52"/><text fill="#FFFFFF" font-family="NanumGothic" font-size="14" lengthAdjust="spacing" textLength="39" x="597.5" y="71.88">CSMS</text><rect fill="#7D5393" height="30.1" rx="2.5" ry="2.5" style="stroke:#181818;stroke-width:0.5;" width="120" x="843" y="52"/><text fill="#FFFFFF" font-family="NanumGothic" font-size="14" lengthAdjust="spacing" textLength="106" x="850" y="71.88">Payment System</text><rect fill="#FFFFFF" height="145.7" style="stroke:#181818;stroke-width:1.0;" width="10" x="135" y="114.05"/><rect fill="#FFFFFF" height="231.6" style="stroke:#181818;stroke-width:1.0;" width="10" x="135" y="490.3"/><rect fill="#FFFFFF" height="28.95" style="stroke:#181818;stroke-width:1.0;" width="10" x="612" y="143"/><rect fill="#FFFFFF" height="28.95" style="stroke:#181818;stroke-width:1.0;" width="10" x="612" y="230.8"/><rect fill="#FFFFFF" height="129.75" style="stroke:#181818;stroke-width:1.0;" width="10" x="612" y="389.5"/><rect fill="#FFFFFF" height="28.95" style="stroke:#181818;stroke-width:1.0;" width="10" x="612" y="692.95"/><rect fill="#FFFFFF" height="100.8" style="stroke:#181818;stroke-width:1.0;" width="10" x="898" y="288.7"/><polygon fill="#181818" points="123,110.05,133,114.05,123,118.05,127,114.05" style="stroke:#181818;stroke-width:1.0;"/><line style="stroke:#181818;stroke-width:1.0;" x1="37.5" x2="129" y1="114.05" y2="114.05"/><text fill="#000000" font-family="NanumGothic" font-size="13" lengthAdjust="spacing" textLength="64" x="44.5" y="109.06">&#52992;&#51060;&#48660; &#50672;&#44208;</text><polygon fill="#181818" points="600,139,610,143,600,147,604,143" style="stroke:#181818;stroke-width:1.0;"/><line style="stroke:#181818;stroke-width:1.0;" x1="145" x2="606" y1="143" y2="143"/><text fill="#000000" font-family="NanumGothic" font-size="13" lengthAdjust="spacing" textLength="223" x="152" y="138.01">StatusNotificationRequest(Occupied)</text><polygon fill="#181818" points="156,167.95,146,171.95,156,175.95,152,171.95" style="stroke:#181818;stroke-width:1.0;"/><line style="stroke:#181818;stroke-width:1.0;stroke-dasharray:2.0,2.0;" x1="150" x2="616" y1="171.95" y2="171.95"/><text fill="#000000" font-family="NanumGothic" font-size="13" lengthAdjust="spacing" textLength="176" x="162" y="166.96">StatusNotificationResponse()</text><polygon fill="#181818" points="600,226.8,610,230.8,600,234.8,604,230.8" style="stroke:#181818;stroke-width:1.0;"/><line style="stroke:#181818;stroke-width:1.0;" x1="145" x2="606" y1="230.8" y2="230.8"/><text fill="#000000" font-family="NanumGothic" font-size="13" lengthAdjust="spacing" textLength="436" x="152" y="195.91">TransactionEventRequest(eventType = Started, transactionId = AB1234,</text><text fill="#000000" font-family="NanumGothic" font-size="13" lengthAdjust="spacing" textLength="143" x="160" y="210.86">timestamp, evse.id = 1,</text><text fill="#000000" font-family="NanumGothic" font-size="13" lengthAdjust="spacing" textLength="216" x="160" y="225.81">evse.connectorId = 1, meterValues)</text><polygon fill="#181818" points="151,255.75,141,259.75,151,263.75,147,259.75" style="stroke:#181818;stroke-width:1.0;"/><line style="stroke:#181818;stroke-width:1.0;stroke-dasharray:2.0,2.0;" x1="145" x2="616" y1="259.75" y2="259.75"/><text fill="#000000" font-family="NanumGothic" font-size="13" lengthAdjust="spacing" textLength="183" x="157" y="254.76">TransactionEventResponse(...)</text><polygon fill="#181818" points="886,284.7,896,288.7,886,292.7,890,288.7" style="stroke:#181818;stroke-width:1.0;"/><line style="stroke:#181818;stroke-width:1.0;" x1="37.5" x2="892" y1="288.7" y2="288.7"/><text fill="#000000" font-family="NanumGothic" font-size="13" lengthAdjust="spacing" textLength="52" x="44.5" y="283.71">&#52852;&#46300; &#49324;&#50857;</text><line style="stroke:#181818;stroke-width:1.0;" x1="908" x2="950" y1="332.6" y2="332.6"/><line style="stroke:#181818;stroke-width:1.0;" x1="950" x2="950" y1="332.6" y2="345.6"/><line style="stroke:#181818;stroke-width:1.0;" x1="909" x2="950" y1="345.6" y2="345.6"/><polygon fill="#181818" points="919,341.6,909,345.6,919,349.6,915,345.6" style="stroke:#181818;stroke-width:1.0;"/><text fill="#000000" font-family="NanumGothic" font-size="13" lengthAdjust="spacing" textLength="50" x="915" y="312.66">financial</text><text fill="#000000" font-family="NanumGothic" font-size="13" lengthAdjust="spacing" textLength="68" x="915" y="327.61">transaction</text><polygon fill="#181818" points="633,385.5,623,389.5,633,393.5,629,389.5" style="stroke:#181818;stroke-width:1.0;"/><line style="stroke:#181818;stroke-width:1.0;" x1="627" x2="902" y1="389.5" y2="389.5"/><text fill="#000000" font-family="NanumGothic" font-size="13" lengthAdjust="spacing" textLength="253" x="639" y="369.56">authorized(TransactionReference = 1234,</text><text fill="#000000" font-family="NanumGothic" font-size="13" lengthAdjust="spacing" textLength="146" x="647" y="384.51">CS = CS-001, EVSE = 1)</text><line style="stroke:#181818;stroke-width:1.0;" x1="622" x2="664" y1="433.4" y2="433.4"/><line style="stroke:#181818;stroke-width:1.0;" x1="664" x2="664" y1="433.4" y2="446.4"/><line style="stroke:#181818;stroke-width:1.0;" x1="623" x2="664" y1="446.4" y2="446.4"/><polygon fill="#181818" points="633,442.4,623,446.4,633,450.4,629,446.4" style="stroke:#181818;stroke-width:1.0;"/><text fill="#000000" font-family="NanumGothic" font-size="13" lengthAdjust="spacing" textLength="125" x="629" y="413.46">generate unique id()</text><text fill="#000000" font-family="NanumGothic" font-size="13" lengthAdjust="spacing" textLength="83" x="637" y="428.41">result = 4444</text><polygon fill="#181818" points="156,486.3,146,490.3,156,494.3,152,490.3" style="stroke:#181818;stroke-width:1.0;"/><line style="stroke:#181818;stroke-width:1.0;" x1="150" x2="611" y1="490.3" y2="490.3"/><text fill="#000000" font-family="NanumGothic" font-size="13" lengthAdjust="spacing" textLength="264" x="162" y="470.36">RequestStartTransactionRequest(evseId = 1</text><text fill="#000000" font-family="NanumGothic" font-size="13" lengthAdjust="spacing" textLength="213" x="178" y="485.31">idToken(id = 4444, type = Central)</text><polygon fill="#181818" points="605,515.25,615,519.25,605,523.25,609,519.25" style="stroke:#181818;stroke-width:1.0;"/><line style="stroke:#181818;stroke-width:1.0;stroke-dasharray:2.0,2.0;" x1="145" x2="611" y1="519.25" y2="519.25"/><text fill="#000000" font-family="NanumGothic" font-size="13" lengthAdjust="spacing" textLength="272" x="152" y="514.26">RequestStartTransactionResponse(Accepted)</text><path d="M70,534.25 L136,534.25 L136,541.2 L126,551.2 L70,551.2 L70,534.25 " fill="#EEEEEE" style="stroke:#000000;stroke-width:1.5;"/><rect fill="none" height="58.9" style="stroke:#000000;stroke-width:1.5;" width="349" x="70" y="534.25"/><text fill="#000000" font-family="NanumGothic" font-size="13" font-weight="bold" lengthAdjust="spacing" textLength="21" x="85" y="547.21">opt</text><text fill="#000000" font-family="NanumGothic" font-size="11" font-weight="bold" lengthAdjust="spacing" textLength="263" x="151" y="546.37">[&#52992;&#51060;&#48660;&#51060; &#50689;&#44396;&#51201;&#51004;&#47196;(permanently) &#44208;&#54633;&#46104;&#51648; &#50506;&#51008; &#44221;&#50864;]</text><line style="stroke:#181818;stroke-width:1.0;" x1="145" x2="187" y1="572.15" y2="572.15"/><line style="stroke:#181818;stroke-width:1.0;" x1="187" x2="187" y1="572.15" y2="585.15"/><line style="stroke:#181818;stroke-width:1.0;" x1="146" x2="187" y1="585.15" y2="585.15"/><polygon fill="#181818" points="156,581.15,146,585.15,156,589.15,152,585.15" style="stroke:#181818;stroke-width:1.0;"/><text fill="#000000" font-family="NanumGothic" font-size="13" lengthAdjust="spacing" textLength="89" x="152" y="567.16">lock connector</text><line style="stroke:#181818;stroke-width:1.0;" x1="145" x2="187" y1="621.1" y2="621.1"/><line style="stroke:#181818;stroke-width:1.0;" x1="187" x2="187" y1="621.1" y2="634.1"/><line style="stroke:#181818;stroke-width:1.0;" x1="146" x2="187" y1="634.1" y2="634.1"/><polygon fill="#181818" points="156,630.1,146,634.1,156,638.1,152,634.1" style="stroke:#181818;stroke-width:1.0;"/><text fill="#000000" font-family="NanumGothic" font-size="13" lengthAdjust="spacing" textLength="92" x="152" y="616.11">&#50640;&#45320;&#51648; &#51204;&#45804; &#49884;&#51089;</text><polygon fill="#181818" points="600,688.95,610,692.95,600,696.95,604,692.95" style="stroke:#181818;stroke-width:1.0;"/><line style="stroke:#181818;stroke-width:1.0;" x1="145" x2="606" y1="692.95" y2="692.95"/><text fill="#000000" font-family="NanumGothic" font-size="13" lengthAdjust="spacing" textLength="444" x="152" y="658.06">TransactionEventRequest(eventType = Updated, transactionId = AB1234,</text><text fill="#000000" font-family="NanumGothic" font-size="13" lengthAdjust="spacing" textLength="305" x="168" y="673.01">seqNo = 1, timestamp, chargingState = Charging,</text><text fill="#000000" font-family="NanumGothic" font-size="13" lengthAdjust="spacing" textLength="351" x="168" y="687.96">trigger = Authorized, idToken(id = 4444, type = Central))</text><polygon fill="#181818" points="151,717.9,141,721.9,151,725.9,147,721.9" style="stroke:#181818;stroke-width:1.0;"/><line style="stroke:#181818;stroke-width:1.0;stroke-dasharray:2.0,2.0;" x1="145" x2="616" y1="721.9" y2="721.9"/><text fill="#000000" font-family="NanumGothic" font-size="13" lengthAdjust="spacing" textLength="357" x="157" y="716.91">TransactionEventResponse(idTokenInfo.status = Accepted)</text><!--SRC=[hLH1JnD15BxlhtXoQfFIW78oqGHh3nn4mo8dBfFPrp9XTtQPcMrIJs0u6BbWb418CNWo91o8mKGJ_4Dq_0_Ep6xfThkeH7lOzCsRzzxttlk-kSSu3TC0GQf-YCqaZKBF8rJ50cRQQ_1Ki1wA6I0IsckPuIL4A4PPGhY2cTO64Lt6k-0hebZCrtdBdvsRctSX8sVkAqNwp_piblapwNf1-X6QFtvVAepSfVmeE_6y4HYOVLokyX3qrRO-kHn- -m3wyEBwouNjX_M8mYb0Nkd0fJDm7hfsKhaSAzPXrFbMS2j5gMhFAKqJXa6zaDPsuDalp5O1gaecavXBhDMz0CjvRiC4i2e8b_PwpDizCuuH9hJ6QZz1U6IB2OL10zJuyb9W78jFvky_M6Z0EWTGB39n94eQW3s9JMOlp6S-Tq1Zpj7IO2dtHAXGh97GrBj3vzE0yxwRpUPqwqMxlAdYnYV8OFRz_NBuVW3wzRa-FXjZAr5cmgp80j1Xd73AIBZE2xEhY1ojWwHg8nRi5GQrGgChs461dDfbZ2VUyesPQQDXjEIthNTY19DuAqSyBjr5ZiAwKyuC1u05jRgh8r2ceJB95yol45VU341E7iUN2VWZJadCbk_oWYcn6cyYhpcksEo6OXdbMcW75jRl8hIRNcw5aJDbaL9CbDNRb5BYH8t5RhwWZtQklvxhqnqzk1f-6jGI517X1btOhuDv2NuUd0ttZ_JdRT07R_N9jZdxeOylF80gqPL75iPq4sw4uI4FgiKwzHuTxWzttxYgfxl3lNFGUmFzyTq_A_rb4f0_AXr0ujPod8cu87jQgErscDkDB4W9rkqQjPbaDoHl_0K5_iVRa5TPufsuATtJQM7SIeFVl1g_0000]--></g></svg>