<?xml version="1.0" encoding="us-ascii" standalone="no"?><svg xmlns="http://www.w3.org/2000/svg" xmlns:xlink="http://www.w3.org/1999/xlink" contentStyleType="text/css" height="336px" preserveAspectRatio="none" style="width:577px;height:336px;background:#FFFFFF;" version="1.1" viewBox="0 0 577 336" width="577px" zoomAndPan="magnify"><defs/><g><rect fill="#FFFFFF" height="28.95" style="stroke:#181818;stroke-width:1.0;" width="10" x="36" y="67.05"/><rect fill="#FFFFFF" height="144.75" style="stroke:#181818;stroke-width:1.0;" width="10" x="164" y="67.05"/><rect fill="#FFFFFF" height="28.95" style="stroke:#181818;stroke-width:1.0;" width="10" x="235" y="282.7"/><rect fill="#FFFFFF" height="28.95" style="stroke:#181818;stroke-width:1.0;" width="10" x="506" y="124.95"/><rect fill="#FFFFFF" height="128.8" style="stroke:#181818;stroke-width:1.0;" width="10" x="506" y="182.85"/><line style="stroke:#181818;stroke-width:0.5;stroke-dasharray:5.0,5.0;" x1="41" x2="41" y1="36.1" y2="329.65"/><line style="stroke:#181818;stroke-width:0.5;stroke-dasharray:5.0,5.0;" x1="168.5" x2="168.5" y1="36.1" y2="329.65"/><line style="stroke:#181818;stroke-width:0.5;stroke-dasharray:5.0,5.0;" x1="239.5" x2="239.5" y1="36.1" y2="329.65"/><line style="stroke:#181818;stroke-width:0.5;stroke-dasharray:5.0,5.0;" x1="511" x2="511" y1="36.1" y2="329.65"/><rect fill="#7D5393" height="30.1" rx="2.5" ry="2.5" style="stroke:#181818;stroke-width:0.5;" width="72" x="5" y="5"/><text fill="#FFFFFF" font-family="NanumGothic" font-size="14" lengthAdjust="spacing" textLength="58" x="12" y="24.88">Operator</text><rect fill="#7D5393" height="30.1" rx="2.5" ry="2.5" style="stroke:#181818;stroke-width:0.5;" width="61" x="138.5" y="5"/><text fill="#FFFFFF" font-family="NanumGothic" font-size="14" lengthAdjust="spacing" textLength="47" x="145.5" y="24.88">CSMS1</text><rect fill="#7D5393" height="30.1" rx="2.5" ry="2.5" style="stroke:#181818;stroke-width:0.5;" width="61" x="209.5" y="5"/><text fill="#FFFFFF" font-family="NanumGothic" font-size="14" lengthAdjust="spacing" textLength="47" x="216.5" y="24.88">CSMS2</text><rect fill="#7D5393" height="30.1" rx="2.5" ry="2.5" style="stroke:#181818;stroke-width:0.5;" width="120" x="451" y="5"/><text fill="#FFFFFF" font-family="NanumGothic" font-size="14" lengthAdjust="spacing" textLength="106" x="458" y="24.88">Charging Station</text><rect fill="#FFFFFF" height="28.95" style="stroke:#181818;stroke-width:1.0;" width="10" x="36" y="67.05"/><rect fill="#FFFFFF" height="144.75" style="stroke:#181818;stroke-width:1.0;" width="10" x="164" y="67.05"/><rect fill="#FFFFFF" height="28.95" style="stroke:#181818;stroke-width:1.0;" width="10" x="235" y="282.7"/><rect fill="#FFFFFF" height="28.95" style="stroke:#181818;stroke-width:1.0;" width="10" x="506" y="124.95"/><rect fill="#FFFFFF" height="128.8" style="stroke:#181818;stroke-width:1.0;" width="10" x="506" y="182.85"/><polygon fill="#181818" points="152,63.05,162,67.05,152,71.05,156,67.05" style="stroke:#181818;stroke-width:1.0;"/><line style="stroke:#181818;stroke-width:1.0;" x1="46" x2="158" y1="67.05" y2="67.05"/><text fill="#000000" font-family="NanumGothic" font-size="13" lengthAdjust="spacing" textLength="104" x="53" y="62.06">&#45348;&#53944;&#50892;&#53356; &#49444;&#51221; &#48320;&#44221;</text><polygon fill="#181818" points="494,120.95,504,124.95,494,128.95,498,124.95" style="stroke:#181818;stroke-width:1.0;"/><line style="stroke:#181818;stroke-width:1.0;" x1="174" x2="500" y1="124.95" y2="124.95"/><text fill="#000000" font-family="NanumGothic" font-size="13" lengthAdjust="spacing" textLength="313" x="181" y="119.96">SetVariablesRequest(NetworkConfigurationPriority)</text><polygon fill="#181818" points="185,149.9,175,153.9,185,157.9,181,153.9" style="stroke:#181818;stroke-width:1.0;"/><line style="stroke:#181818;stroke-width:1.0;stroke-dasharray:2.0,2.0;" x1="179" x2="510" y1="153.9" y2="153.9"/><text fill="#000000" font-family="NanumGothic" font-size="13" lengthAdjust="spacing" textLength="285" x="191" y="148.91">SetVariablesResponse(status: RebootRequired)</text><polygon fill="#181818" points="494,178.85,504,182.85,494,186.85,498,182.85" style="stroke:#181818;stroke-width:1.0;"/><line style="stroke:#181818;stroke-width:1.0;" x1="174" x2="500" y1="182.85" y2="182.85"/><text fill="#000000" font-family="NanumGothic" font-size="13" lengthAdjust="spacing" textLength="131" x="181" y="177.86">ResetRequest(OnIdle)</text><polygon fill="#181818" points="180,207.8,170,211.8,180,215.8,176,211.8" style="stroke:#181818;stroke-width:1.0;"/><line style="stroke:#181818;stroke-width:1.0;stroke-dasharray:2.0,2.0;" x1="174" x2="505" y1="211.8" y2="211.8"/><text fill="#000000" font-family="NanumGothic" font-size="13" lengthAdjust="spacing" textLength="157" x="186" y="206.81">ResetResponse(Accepted)</text><line style="stroke:#181818;stroke-width:1.0;" x1="516" x2="558" y1="240.75" y2="240.75"/><line style="stroke:#181818;stroke-width:1.0;" x1="558" x2="558" y1="240.75" y2="253.75"/><line style="stroke:#181818;stroke-width:1.0;" x1="517" x2="558" y1="253.75" y2="253.75"/><polygon fill="#181818" points="527,249.75,517,253.75,527,257.75,523,253.75" style="stroke:#181818;stroke-width:1.0;"/><text fill="#000000" font-family="NanumGothic" font-size="13" lengthAdjust="spacing" textLength="36" x="523" y="235.76">&#51116;&#48512;&#54021;</text><polygon fill="#181818" points="256,278.7,246,282.7,256,286.7,252,282.7" style="stroke:#181818;stroke-width:1.0;"/><line style="stroke:#181818;stroke-width:1.0;" x1="250" x2="505" y1="282.7" y2="282.7"/><text fill="#000000" font-family="NanumGothic" font-size="13" lengthAdjust="spacing" textLength="170" x="262" y="277.71">BootNotificationRequest(...)</text><polygon fill="#181818" points="499,307.65,509,311.65,499,315.65,503,311.65" style="stroke:#181818;stroke-width:1.0;"/><line style="stroke:#181818;stroke-width:1.0;stroke-dasharray:2.0,2.0;" x1="240" x2="505" y1="311.65" y2="311.65"/><text fill="#000000" font-family="NanumGothic" font-size="13" lengthAdjust="spacing" textLength="179" x="247" y="306.66">BootNotificationResponse(...)</text><!--SRC=[dL8zJy906DxxArwPO834ZXr8bCb1C3HnCGv7-m8NwrszUwjXmmGNm-faOXmOcJGnBluXAV_1qWy-hkZWrElpFdq-tju15ruG-GYQHW4smkWwiAoGAU8U3vaWg7H2L8oagW3JKBpiKbhkgNkOpjDJUMYlXxOn738ru680BZ7YKcIy7CmnoofSeTxC71nOJ6RBny_uURgydqCycSMlJx1u7t-_VLdC8txB23TXrqWMpqeVKByOSjz7SPce5bG7CipoiInJVDSq4phW8fqpnLalGDt5cmWrLTj8Tr9TjQJeyq6aKkQPub9n6jMsCfbj3G3gczQxDZgKGcDL9xn8Ez35dfIqSkSA_TfsXRB7hqqIMQIYGaUS-07-CsokbASyyZmCoSoL_mzJP4-k-6M- -1Wlfm_xwQkhvS1nie2s9DxdNZegUZGQZThkBR2p7TXPODEih9EtI8MC0lPVc_u1]--></g></svg>