<?xml version="1.0" encoding="us-ascii" standalone="no"?><svg xmlns="http://www.w3.org/2000/svg" xmlns:xlink="http://www.w3.org/1999/xlink" contentStyleType="text/css" height="602px" preserveAspectRatio="none" style="width:902px;height:602px;background:#FFFFFF;" version="1.1" viewBox="0 0 902 602" width="902px" zoomAndPan="magnify"><defs/><g><rect fill="#FFFFFF" height="519.15" style="stroke:#181818;stroke-width:1.0;" width="10" x="72.5" y="67.05"/><rect fill="#FFFFFF" height="110.8" style="stroke:#181818;stroke-width:1.0;" width="10" x="166.5" y="67.05"/><rect fill="#FFFFFF" height="81.85" style="stroke:#181818;stroke-width:1.0;" width="10" x="166.5" y="343.6"/><rect fill="#FFFFFF" height="28.95" style="stroke:#181818;stroke-width:1.0;" width="10" x="166.5" y="490.35"/><rect fill="#FFFFFF" height="28.95" style="stroke:#181818;stroke-width:1.0;" width="10" x="166.5" y="548.25"/><rect fill="#FFFFFF" height="276.55" style="stroke:#181818;stroke-width:1.0;" width="10" x="685.5" y="96"/><rect fill="#FFFFFF" height="57.9" style="stroke:#181818;stroke-width:1.0;" width="10" x="685.5" y="461.4"/><rect fill="#FFFFFF" height="28.95" style="stroke:#181818;stroke-width:1.0;" width="10" x="685.5" y="548.25"/><rect fill="none" height="45.9" style="stroke:#000000;stroke-width:1.5;" width="198" x="10" y="139.95"/><rect fill="none" height="58.9" style="stroke:#000000;stroke-width:1.5;" width="276" x="620.5" y="241.8"/><rect fill="none" height="45.9" style="stroke:#000000;stroke-width:1.5;" width="198" x="10" y="387.55"/><line style="stroke:#181818;stroke-width:0.5;stroke-dasharray:5.0,5.0;" x1="77" x2="77" y1="36.1" y2="595.2"/><line style="stroke:#181818;stroke-width:0.5;stroke-dasharray:5.0,5.0;" x1="171" x2="171" y1="36.1" y2="595.2"/><line style="stroke:#181818;stroke-width:0.5;stroke-dasharray:5.0,5.0;" x1="690.5" x2="690.5" y1="36.1" y2="595.2"/><rect fill="#7D5393" height="30.1" rx="2.5" ry="2.5" style="stroke:#181818;stroke-width:0.5;" width="115" x="20" y="5"/><text fill="#FFFFFF" font-family="NanumGothic" font-size="14" lengthAdjust="spacing" textLength="101" x="27" y="24.88">External Trigger</text><rect fill="#7D5393" height="30.1" rx="2.5" ry="2.5" style="stroke:#181818;stroke-width:0.5;" width="53" x="145" y="5"/><text fill="#FFFFFF" font-family="NanumGothic" font-size="14" lengthAdjust="spacing" textLength="39" x="152" y="24.88">CSMS</text><rect fill="#7D5393" height="30.1" rx="2.5" ry="2.5" style="stroke:#181818;stroke-width:0.5;" width="120" x="630.5" y="5"/><text fill="#FFFFFF" font-family="NanumGothic" font-size="14" lengthAdjust="spacing" textLength="106" x="637.5" y="24.88">Charging Station</text><rect fill="#FFFFFF" height="519.15" style="stroke:#181818;stroke-width:1.0;" width="10" x="72.5" y="67.05"/><rect fill="#FFFFFF" height="110.8" style="stroke:#181818;stroke-width:1.0;" width="10" x="166.5" y="67.05"/><rect fill="#FFFFFF" height="81.85" style="stroke:#181818;stroke-width:1.0;" width="10" x="166.5" y="343.6"/><rect fill="#FFFFFF" height="28.95" style="stroke:#181818;stroke-width:1.0;" width="10" x="166.5" y="490.35"/><rect fill="#FFFFFF" height="28.95" style="stroke:#181818;stroke-width:1.0;" width="10" x="166.5" y="548.25"/><rect fill="#FFFFFF" height="276.55" style="stroke:#181818;stroke-width:1.0;" width="10" x="685.5" y="96"/><rect fill="#FFFFFF" height="57.9" style="stroke:#181818;stroke-width:1.0;" width="10" x="685.5" y="461.4"/><rect fill="#FFFFFF" height="28.95" style="stroke:#181818;stroke-width:1.0;" width="10" x="685.5" y="548.25"/><polygon fill="#181818" points="154.5,63.05,164.5,67.05,154.5,71.05,158.5,67.05" style="stroke:#181818;stroke-width:1.0;"/><line style="stroke:#181818;stroke-width:1.0;" x1="82.5" x2="160.5" y1="67.05" y2="67.05"/><text fill="#000000" font-family="NanumGothic" font-size="13" lengthAdjust="spacing" textLength="52" x="89.5" y="62.06">&#50896;&#44201; &#51473;&#51648;</text><polygon fill="#181818" points="673.5,92,683.5,96,673.5,100,677.5,96" style="stroke:#181818;stroke-width:1.0;"/><line style="stroke:#181818;stroke-width:1.0;" x1="176.5" x2="679.5" y1="96" y2="96"/><text fill="#000000" font-family="NanumGothic" font-size="13" lengthAdjust="spacing" textLength="285" x="183.5" y="91.01">RequestStopTransactionRequest(transactionId)</text><polygon fill="#181818" points="187.5,120.95,177.5,124.95,187.5,128.95,183.5,124.95" style="stroke:#181818;stroke-width:1.0;"/><line style="stroke:#181818;stroke-width:1.0;stroke-dasharray:2.0,2.0;" x1="181.5" x2="684.5" y1="124.95" y2="124.95"/><text fill="#000000" font-family="NanumGothic" font-size="13" lengthAdjust="spacing" textLength="271" x="193.5" y="119.96">RequestStopTransactionResponse(Accepted)</text><path d="M10,139.95 L76,139.95 L76,146.9 L66,156.9 L10,156.9 L10,139.95 " fill="#EEEEEE" style="stroke:#000000;stroke-width:1.5;"/><rect fill="none" height="45.9" style="stroke:#000000;stroke-width:1.5;" width="198" x="10" y="139.95"/><text fill="#000000" font-family="NanumGothic" font-size="13" font-weight="bold" lengthAdjust="spacing" textLength="21" x="25" y="152.91">opt</text><polygon fill="#181818" points="93.5,173.85,83.5,177.85,93.5,181.85,89.5,177.85" style="stroke:#181818;stroke-width:1.0;"/><line style="stroke:#181818;stroke-width:1.0;" x1="87.5" x2="170.5" y1="177.85" y2="177.85"/><text fill="#000000" font-family="NanumGothic" font-size="13" lengthAdjust="spacing" textLength="24" x="99.5" y="172.86">&#50508;&#47548;</text><line style="stroke:#181818;stroke-width:1.0;" x1="695.5" x2="737.5" y1="213.8" y2="213.8"/><line style="stroke:#181818;stroke-width:1.0;" x1="737.5" x2="737.5" y1="213.8" y2="226.8"/><line style="stroke:#181818;stroke-width:1.0;" x1="696.5" x2="737.5" y1="226.8" y2="226.8"/><polygon fill="#181818" points="706.5,222.8,696.5,226.8,706.5,230.8,702.5,226.8" style="stroke:#181818;stroke-width:1.0;"/><text fill="#000000" font-family="NanumGothic" font-size="13" lengthAdjust="spacing" textLength="92" x="702.5" y="208.81">&#50640;&#45320;&#51648; &#51228;&#44277; &#51473;&#45800;</text><path d="M620.5,241.8 L686.5,241.8 L686.5,248.75 L676.5,258.75 L620.5,258.75 L620.5,241.8 " fill="#EEEEEE" style="stroke:#000000;stroke-width:1.5;"/><rect fill="none" height="58.9" style="stroke:#000000;stroke-width:1.5;" width="276" x="620.5" y="241.8"/><text fill="#000000" font-family="NanumGothic" font-size="13" font-weight="bold" lengthAdjust="spacing" textLength="21" x="635.5" y="254.76">opt</text><text fill="#000000" font-family="NanumGothic" font-size="11" font-weight="bold" lengthAdjust="spacing" textLength="190" x="701.5" y="253.92">[&#52992;&#51060;&#48660;&#51060; &#50689;&#44396;&#51201;&#51004;&#47196; &#50672;&#44208;&#46104;&#51648; &#50506;&#51008; &#44221;&#50864;]</text><line style="stroke:#181818;stroke-width:1.0;" x1="695.5" x2="737.5" y1="279.7" y2="279.7"/><line style="stroke:#181818;stroke-width:1.0;" x1="737.5" x2="737.5" y1="279.7" y2="292.7"/><line style="stroke:#181818;stroke-width:1.0;" x1="696.5" x2="737.5" y1="292.7" y2="292.7"/><polygon fill="#181818" points="706.5,288.7,696.5,292.7,706.5,296.7,702.5,292.7" style="stroke:#181818;stroke-width:1.0;"/><text fill="#000000" font-family="NanumGothic" font-size="13" lengthAdjust="spacing" textLength="92" x="702.5" y="274.71">&#52964;&#45349;&#53552; &#51104;&#44552; &#54644;&#51228;</text><polygon fill="#181818" points="187.5,339.6,177.5,343.6,187.5,347.6,183.5,343.6" style="stroke:#181818;stroke-width:1.0;"/><line style="stroke:#181818;stroke-width:1.0;" x1="181.5" x2="684.5" y1="343.6" y2="343.6"/><text fill="#000000" font-family="NanumGothic" font-size="13" lengthAdjust="spacing" textLength="482" x="193.5" y="323.66">TransactionEventRequest(eventType = Updated, chargingState = EVConnected,</text><text fill="#000000" font-family="NanumGothic" font-size="13" lengthAdjust="spacing" textLength="202" x="193.5" y="338.61">triggerReason = RemoteStop, ...)</text><polygon fill="#181818" points="678.5,368.55,688.5,372.55,678.5,376.55,682.5,372.55" style="stroke:#181818;stroke-width:1.0;"/><line style="stroke:#181818;stroke-width:1.0;stroke-dasharray:2.0,2.0;" x1="176.5" x2="684.5" y1="372.55" y2="372.55"/><text fill="#000000" font-family="NanumGothic" font-size="13" lengthAdjust="spacing" textLength="183" x="183.5" y="367.56">TransactionEventResponse(...)</text><path d="M10,387.55 L76,387.55 L76,394.5 L66,404.5 L10,404.5 L10,387.55 " fill="#EEEEEE" style="stroke:#000000;stroke-width:1.5;"/><rect fill="none" height="45.9" style="stroke:#000000;stroke-width:1.5;" width="198" x="10" y="387.55"/><text fill="#000000" font-family="NanumGothic" font-size="13" font-weight="bold" lengthAdjust="spacing" textLength="21" x="25" y="400.51">opt</text><polygon fill="#181818" points="93.5,421.45,83.5,425.45,93.5,429.45,89.5,425.45" style="stroke:#181818;stroke-width:1.0;"/><line style="stroke:#181818;stroke-width:1.0;" x1="87.5" x2="170.5" y1="425.45" y2="425.45"/><text fill="#000000" font-family="NanumGothic" font-size="13" lengthAdjust="spacing" textLength="24" x="99.5" y="420.46">&#50508;&#47548;</text><polygon fill="#181818" points="673.5,457.4,683.5,461.4,673.5,465.4,677.5,461.4" style="stroke:#181818;stroke-width:1.0;"/><line style="stroke:#181818;stroke-width:1.0;" x1="82.5" x2="679.5" y1="461.4" y2="461.4"/><text fill="#000000" font-family="NanumGothic" font-size="13" lengthAdjust="spacing" textLength="92" x="89.5" y="456.41">&#52992;&#51060;&#48660; &#50672;&#44208; &#54644;&#51228;</text><polygon fill="#181818" points="187.5,486.35,177.5,490.35,187.5,494.35,183.5,490.35" style="stroke:#181818;stroke-width:1.0;"/><line style="stroke:#181818;stroke-width:1.0;" x1="181.5" x2="684.5" y1="490.35" y2="490.35"/><text fill="#000000" font-family="NanumGothic" font-size="13" lengthAdjust="spacing" textLength="220" x="193.5" y="485.36">StatusNotificationRequest(Available)</text><polygon fill="#181818" points="678.5,515.3,688.5,519.3,678.5,523.3,682.5,519.3" style="stroke:#181818;stroke-width:1.0;"/><line style="stroke:#181818;stroke-width:1.0;stroke-dasharray:2.0,2.0;" x1="171.5" x2="684.5" y1="519.3" y2="519.3"/><text fill="#000000" font-family="NanumGothic" font-size="13" lengthAdjust="spacing" textLength="176" x="178.5" y="514.31">StatusNotificationResponse()</text><polygon fill="#181818" points="187.5,544.25,177.5,548.25,187.5,552.25,183.5,548.25" style="stroke:#181818;stroke-width:1.0;"/><line style="stroke:#181818;stroke-width:1.0;" x1="181.5" x2="684.5" y1="548.25" y2="548.25"/><text fill="#000000" font-family="NanumGothic" font-size="13" lengthAdjust="spacing" textLength="464" x="193.5" y="543.26">TransactionEventRequest(eventType = Ended, stoppedReason = Remote, ...)</text><polygon fill="#181818" points="678.5,573.2,688.5,577.2,678.5,581.2,682.5,577.2" style="stroke:#181818;stroke-width:1.0;"/><line style="stroke:#181818;stroke-width:1.0;stroke-dasharray:2.0,2.0;" x1="171.5" x2="684.5" y1="577.2" y2="577.2"/><text fill="#000000" font-family="NanumGothic" font-size="13" lengthAdjust="spacing" textLength="183" x="178.5" y="572.21">TransactionEventResponse(...)</text><!--SRC=[jLD1Inj15BxlhtZrfA3v0O85aHmyr8D9U-fbkliQ1zRPwSuar5k47AJsa493fOqIGTiA7a9K41h_qExu7vmPT-rciYbAyJBilZVlUz_xlZSlAFF3Pe0Wv4w85TxS3ZsFarXIdtB29CnLFqgC6GcX7jD60-Cv80BoO1QRh5YhlQhPM-R3IMsHk45P0sgII1gn-sjPC8jvdeCEIoyjr3Ae7zraT0Rgv8lwrVQ8BscBI9nYyv2m13npMep9FikmYH-QA6HDHhmU4oPCNSIowBpy6reF5WgWBbqd04iFV6Sr43nY0kTNVH-vH0tkHLnw03bJPo0zUEzp-dEiRmGuEHooe8H0oQpgMpVjx6dPG0twoSML4J7T_sqxWngtrU5bUlrLdw0ETfEhSpNOLVrnUjpNbSDaD4ox1xQuzqaTjY4PtQZlGyFuCQt_dAITqzlE4DJH8BdUWzlUfIOncxlL3g0WMRM5JER6eFcfxt245NZD0wr5i0X-0SSagc_M8iRGjqbuo-Izb9j8XEwoegtPZYGQPnQXKgaib2zDsJZJj38xBKpH87TH_ilaiaSnfNJkOsPQhlGJTZUNtmIQOYEIz3trIV5ThBO83Scx49-WMHbQfjgaP0RdNnBEvFkOPQcom6o3qAPp39nLc5e3f_NpxuUhmnq0]--></g></svg>