<?xml version="1.0" encoding="us-ascii" standalone="no"?><svg xmlns="http://www.w3.org/2000/svg" xmlns:xlink="http://www.w3.org/1999/xlink" contentStyleType="text/css" height="541px" preserveAspectRatio="none" style="width:574px;height:541px;background:#FFFFFF;" version="1.1" viewBox="0 0 574 541" width="574px" zoomAndPan="magnify"><defs/><g><rect fill="#FFFFFF" height="458.3" style="stroke:#181818;stroke-width:1.0;" width="10" x="75.5" y="67.05"/><rect fill="#FFFFFF" height="28.95" style="stroke:#181818;stroke-width:1.0;" width="10" x="536.5" y="67.05"/><rect fill="#FFFFFF" height="28.95" style="stroke:#181818;stroke-width:1.0;" width="10" x="536.5" y="124.95"/><rect fill="#FFFFFF" height="28.95" style="stroke:#181818;stroke-width:1.0;" width="10" x="536.5" y="259.75"/><rect fill="#FFFFFF" height="28.95" style="stroke:#181818;stroke-width:1.0;" width="10" x="536.5" y="394.55"/><rect fill="#FFFFFF" height="28.95" style="stroke:#181818;stroke-width:1.0;" width="10" x="536.5" y="487.4"/><line style="stroke:#181818;stroke-width:0.5;stroke-dasharray:5.0,5.0;" x1="80" x2="80" y1="36.1" y2="534.35"/><line style="stroke:#181818;stroke-width:0.5;stroke-dasharray:5.0,5.0;" x1="541" x2="541" y1="36.1" y2="534.35"/><rect fill="#7D5393" height="30.1" rx="2.5" ry="2.5" style="stroke:#181818;stroke-width:0.5;" width="113" x="24" y="5"/><text fill="#FFFFFF" font-family="NanumGothic" font-size="14" lengthAdjust="spacing" textLength="99" x="31" y="24.88">Local Controller</text><rect fill="#7D5393" height="30.1" rx="2.5" ry="2.5" style="stroke:#181818;stroke-width:0.5;" width="53" x="515" y="5"/><text fill="#FFFFFF" font-family="NanumGothic" font-size="14" lengthAdjust="spacing" textLength="39" x="522" y="24.88">CSMS</text><rect fill="#FFFFFF" height="458.3" style="stroke:#181818;stroke-width:1.0;" width="10" x="75.5" y="67.05"/><rect fill="#FFFFFF" height="28.95" style="stroke:#181818;stroke-width:1.0;" width="10" x="536.5" y="67.05"/><rect fill="#FFFFFF" height="28.95" style="stroke:#181818;stroke-width:1.0;" width="10" x="536.5" y="124.95"/><rect fill="#FFFFFF" height="28.95" style="stroke:#181818;stroke-width:1.0;" width="10" x="536.5" y="259.75"/><rect fill="#FFFFFF" height="28.95" style="stroke:#181818;stroke-width:1.0;" width="10" x="536.5" y="394.55"/><rect fill="#FFFFFF" height="28.95" style="stroke:#181818;stroke-width:1.0;" width="10" x="536.5" y="487.4"/><polygon fill="#181818" points="96.5,63.05,86.5,67.05,96.5,71.05,92.5,67.05" style="stroke:#181818;stroke-width:1.0;"/><line style="stroke:#181818;stroke-width:1.0;" x1="90.5" x2="535.5" y1="67.05" y2="67.05"/><text fill="#000000" font-family="NanumGothic" font-size="13" lengthAdjust="spacing" textLength="160" x="102.5" y="62.06">PublishFirmwareRequest()</text><polygon fill="#181818" points="529.5,92,539.5,96,529.5,100,533.5,96" style="stroke:#181818;stroke-width:1.0;"/><line style="stroke:#181818;stroke-width:1.0;" x1="85.5" x2="535.5" y1="96" y2="96"/><text fill="#000000" font-family="NanumGothic" font-size="13" lengthAdjust="spacing" textLength="169" x="92.5" y="91.01">PublishFirmwareResponse()</text><polygon fill="#181818" points="524.5,120.95,534.5,124.95,524.5,128.95,528.5,124.95" style="stroke:#181818;stroke-width:1.0;"/><line style="stroke:#181818;stroke-width:1.0;" x1="85.5" x2="530.5" y1="124.95" y2="124.95"/><text fill="#000000" font-family="NanumGothic" font-size="13" lengthAdjust="spacing" textLength="403" x="92.5" y="119.96">PublishFirmwareStatusNotificationRequest(status = Downloading)</text><polygon fill="#181818" points="96.5,149.9,86.5,153.9,96.5,157.9,92.5,153.9" style="stroke:#181818;stroke-width:1.0;"/><line style="stroke:#181818;stroke-width:1.0;" x1="90.5" x2="540.5" y1="153.9" y2="153.9"/><text fill="#000000" font-family="NanumGothic" font-size="13" lengthAdjust="spacing" textLength="277" x="102.5" y="148.91">PublishFirmwareStatusNotificationResponse()</text><ellipse cx="85" cy="195.1" fill="none" rx="4" ry="4" style="stroke:#181818;stroke-width:1.5;"/><line style="stroke:#181818;stroke-width:1.0;" x1="85.5" x2="127.5" y1="182.85" y2="182.85"/><line style="stroke:#181818;stroke-width:1.0;" x1="127.5" x2="127.5" y1="182.85" y2="195.85"/><line style="stroke:#181818;stroke-width:1.0;" x1="90.5" x2="127.5" y1="195.85" y2="195.85"/><polygon fill="#181818" points="100.5,191.85,90.5,195.85,100.5,199.85,96.5,195.85" style="stroke:#181818;stroke-width:1.0;"/><text fill="#000000" font-family="NanumGothic" font-size="13" lengthAdjust="spacing" textLength="88" x="92.5" y="177.86">&#54156;&#50920;&#50612; &#45796;&#50868;&#47196;&#46300;</text><path d="M20,208.85 L20,232.85 L141,232.85 L141,218.85 L131,208.85 L20,208.85 " fill="#7D5393" style="stroke:#000000;stroke-width:0.5;"/><path d="M131,208.85 L131,218.85 L141,218.85 L131,208.85 " fill="#7D5393" style="stroke:#000000;stroke-width:0.5;"/><text fill="#FFFFFF" font-family="NanumGothic" font-size="13" lengthAdjust="spacing" textLength="100" x="26" y="225.81">&#54156;&#50920;&#50612; &#45796;&#50868;&#47196;&#46300;&#51473;</text><polygon fill="#181818" points="524.5,255.75,534.5,259.75,524.5,263.75,528.5,259.75" style="stroke:#181818;stroke-width:1.0;"/><line style="stroke:#181818;stroke-width:1.0;" x1="85.5" x2="530.5" y1="259.75" y2="259.75"/><text fill="#000000" font-family="NanumGothic" font-size="13" lengthAdjust="spacing" textLength="399" x="92.5" y="254.76">PublishFirmwareStatusNotificationRequest(status = Downloaded)</text><polygon fill="#181818" points="96.5,284.7,86.5,288.7,96.5,292.7,92.5,288.7" style="stroke:#181818;stroke-width:1.0;"/><line style="stroke:#181818;stroke-width:1.0;" x1="90.5" x2="540.5" y1="288.7" y2="288.7"/><text fill="#000000" font-family="NanumGothic" font-size="13" lengthAdjust="spacing" textLength="277" x="102.5" y="283.71">PublishFirmwareStatusNotificationResponse()</text><ellipse cx="85" cy="329.9" fill="none" rx="4" ry="4" style="stroke:#181818;stroke-width:1.5;"/><line style="stroke:#181818;stroke-width:1.0;" x1="85.5" x2="127.5" y1="317.65" y2="317.65"/><line style="stroke:#181818;stroke-width:1.0;" x1="127.5" x2="127.5" y1="317.65" y2="330.65"/><line style="stroke:#181818;stroke-width:1.0;" x1="90.5" x2="127.5" y1="330.65" y2="330.65"/><polygon fill="#181818" points="100.5,326.65,90.5,330.65,100.5,334.65,96.5,330.65" style="stroke:#181818;stroke-width:1.0;"/><text fill="#000000" font-family="NanumGothic" font-size="13" lengthAdjust="spacing" textLength="64" x="92.5" y="312.66">&#52404;&#53356;&#49452; &#54869;&#51064;</text><path d="M21,343.65 L21,367.65 L140,367.65 L140,353.65 L130,343.65 L21,343.65 " fill="#7D5393" style="stroke:#000000;stroke-width:0.5;"/><path d="M130,343.65 L130,353.65 L140,353.65 L130,343.65 " fill="#7D5393" style="stroke:#000000;stroke-width:0.5;"/><text fill="#FFFFFF" font-family="NanumGothic" font-size="13" lengthAdjust="spacing" textLength="98" x="27" y="360.61">MD5 &#52404;&#53356;&#49452; &#54869;&#51064;</text><polygon fill="#181818" points="524.5,390.55,534.5,394.55,524.5,398.55,528.5,394.55" style="stroke:#181818;stroke-width:1.0;"/><line style="stroke:#181818;stroke-width:1.0;" x1="85.5" x2="530.5" y1="394.55" y2="394.55"/><text fill="#000000" font-family="NanumGothic" font-size="13" lengthAdjust="spacing" textLength="432" x="92.5" y="389.56">PublishFirmwareStatusNotificationRequest(status = ChecksumVerified)</text><polygon fill="#181818" points="96.5,419.5,86.5,423.5,96.5,427.5,92.5,423.5" style="stroke:#181818;stroke-width:1.0;"/><line style="stroke:#181818;stroke-width:1.0;" x1="90.5" x2="540.5" y1="423.5" y2="423.5"/><text fill="#000000" font-family="NanumGothic" font-size="13" lengthAdjust="spacing" textLength="277" x="102.5" y="418.51">PublishFirmwareStatusNotificationResponse()</text><path d="M5,436.5 L5,460.5 L157,460.5 L157,446.5 L147,436.5 L5,436.5 " fill="#7D5393" style="stroke:#000000;stroke-width:0.5;"/><path d="M147,436.5 L147,446.5 L157,446.5 L147,436.5 " fill="#7D5393" style="stroke:#000000;stroke-width:0.5;"/><text fill="#FFFFFF" font-family="NanumGothic" font-size="13" lengthAdjust="spacing" textLength="131" x="11" y="453.46">&#44277;&#44060; URL&#50640; &#54156;&#50920;&#50612; &#44172;&#49884;</text><polygon fill="#181818" points="524.5,483.4,534.5,487.4,524.5,491.4,528.5,487.4" style="stroke:#181818;stroke-width:1.0;"/><line style="stroke:#181818;stroke-width:1.0;" x1="85.5" x2="530.5" y1="487.4" y2="487.4"/><text fill="#000000" font-family="NanumGothic" font-size="13" lengthAdjust="spacing" textLength="393" x="92.5" y="482.41">FirmwareStatusNotificationRequest(status = Published, location)</text><polygon fill="#181818" points="96.5,512.35,86.5,516.35,96.5,520.35,92.5,516.35" style="stroke:#181818;stroke-width:1.0;"/><line style="stroke:#181818;stroke-width:1.0;" x1="90.5" x2="540.5" y1="516.35" y2="516.35"/><text fill="#000000" font-family="NanumGothic" font-size="13" lengthAdjust="spacing" textLength="233" x="102.5" y="511.36">FirmwareStatusNotificationResponse()</text><!--SRC=[pPA_IWD14CRxVOenbG6rin6qIR1AH1AqN-z6ixYtUzxk9LWATWcYY8fw5e4K5YaaHl2PSdllu5tYtqiCII1YiomxyttVp8zTOCBYlesWz3775TTtE24kzJIpc4k5Xan1MfH3JWhjISxHom1Lq7_yUlkfo9MBvNvNSY4aEM5v8wrPWsr_ZpDLsMIUKwCUbl38HwKNiuHQcbMfng6OpyB0ELLEGfB226VbIg4mjhPnHe-ofjfNMrApVMPHpQJuc5VrAx0EULaJN5ARYODiUjH98OoAcMPuEPmGdJNC_QEvxa9ORvcxRjWCmik0425Z7rcDPMdCy8l6j2u82XiIvLp8eVsVm9bEDpffczCsHBTNvk5rFB9YVdLOCHTQkGfQXyftTj6Bc_wCsRZbUyyllQS0Tae5StF-xVVqEWrJ3oR1CCN-xrkWlGHS3decHp3Jxcy0]--></g></svg>