<?xml version="1.0" encoding="us-ascii" standalone="no"?><svg xmlns="http://www.w3.org/2000/svg" xmlns:xlink="http://www.w3.org/1999/xlink" contentStyleType="text/css" height="1011px" preserveAspectRatio="none" style="width:922px;height:1011px;background:#FFFFFF;" version="1.1" viewBox="0 0 922 1011" width="922px" zoomAndPan="magnify"><defs/><g><rect fill="#FFFFFF" height="28.95" style="stroke:#181818;stroke-width:1.0;" width="10" x="176.5" y="187.9"/><rect fill="#FFFFFF" height="28.95" style="stroke:#181818;stroke-width:1.0;" width="10" x="176.5" y="275.4"/><rect fill="#FFFFFF" height="28.95" style="stroke:#181818;stroke-width:1.0;" width="10" x="176.5" y="452.1"/><rect fill="#FFFFFF" height="28.95" style="stroke:#181818;stroke-width:1.0;" width="10" x="176.5" y="539.6"/><rect fill="#FFFFFF" height="28.95" style="stroke:#181818;stroke-width:1.0;" width="10" x="176.5" y="633.45"/><rect fill="#FFFFFF" height="28.95" style="stroke:#181818;stroke-width:1.0;" width="10" x="176.5" y="730.25"/><rect fill="#FFFFFF" height="28.95" style="stroke:#181818;stroke-width:1.0;" width="10" x="176.5" y="817.75"/><rect fill="#FFFFFF" height="28.95" style="stroke:#181818;stroke-width:1.0;" width="10" x="176.5" y="950.5"/><rect fill="#FFFFFF" height="28.95" style="stroke:#181818;stroke-width:1.0;" width="10" x="873.5" y="187.9"/><rect fill="#FFFFFF" height="28.95" style="stroke:#181818;stroke-width:1.0;" width="10" x="873.5" y="275.4"/><rect fill="#FFFFFF" height="28.95" style="stroke:#181818;stroke-width:1.0;" width="10" x="873.5" y="452.1"/><rect fill="#FFFFFF" height="28.95" style="stroke:#181818;stroke-width:1.0;" width="10" x="873.5" y="539.6"/><rect fill="#FFFFFF" height="28.95" style="stroke:#181818;stroke-width:1.0;" width="10" x="873.5" y="633.45"/><rect fill="#FFFFFF" height="28.95" style="stroke:#181818;stroke-width:1.0;" width="10" x="873.5" y="730.25"/><rect fill="#FFFFFF" height="28.95" style="stroke:#181818;stroke-width:1.0;" width="10" x="873.5" y="817.75"/><rect fill="#FFFFFF" height="28.95" style="stroke:#181818;stroke-width:1.0;" width="10" x="873.5" y="950.5"/><rect fill="none" height="177.3" style="stroke:#000000;stroke-width:1.5;" width="803.5" x="111.5" y="135.05"/><rect fill="none" height="58.9" style="stroke:#000000;stroke-width:1.5;" width="355" x="111.5" y="326.35"/><rect fill="none" height="177.3" style="stroke:#000000;stroke-width:1.5;" width="803.5" x="111.5" y="399.25"/><rect fill="none" height="177.3" style="stroke:#000000;stroke-width:1.5;" width="803.5" x="111.5" y="677.4"/><rect fill="none" height="89.8" style="stroke:#000000;stroke-width:1.5;" width="803.5" x="111.5" y="897.65"/><line style="stroke:#181818;stroke-width:0.5;stroke-dasharray:5.0,5.0;" x1="37" x2="37" y1="83.1" y2="1004.45"/><line style="stroke:#181818;stroke-width:0.5;stroke-dasharray:5.0,5.0;" x1="181.5" x2="181.5" y1="83.1" y2="1004.45"/><line style="stroke:#181818;stroke-width:0.5;stroke-dasharray:5.0,5.0;" x1="878" x2="878" y1="83.1" y2="1004.45"/><text fill="#000000" font-family="NanumGothic" font-size="14" lengthAdjust="spacing" textLength="59" x="5" y="79.88">EV Driver</text><ellipse cx="37.5" cy="14.5" fill="#E2E2F0" rx="8" ry="8" style="stroke:#7D5393;stroke-width:1.5;"/><path d="M37.5,22.5 L37.5,49.5 M24.5,30.5 L50.5,30.5 M37.5,49.5 L24.5,64.5 M37.5,49.5 L50.5,64.5 " fill="none" style="stroke:#7D5393;stroke-width:1.5;"/><rect fill="#7D5393" height="30.1" rx="2.5" ry="2.5" style="stroke:#181818;stroke-width:0.5;" width="120" x="121.5" y="52"/><text fill="#FFFFFF" font-family="NanumGothic" font-size="14" lengthAdjust="spacing" textLength="106" x="128.5" y="71.88">Charging Station</text><rect fill="#7D5393" height="30.1" rx="2.5" ry="2.5" style="stroke:#181818;stroke-width:0.5;" width="53" x="852" y="52"/><text fill="#FFFFFF" font-family="NanumGothic" font-size="14" lengthAdjust="spacing" textLength="39" x="859" y="71.88">CSMS</text><rect fill="#FFFFFF" height="28.95" style="stroke:#181818;stroke-width:1.0;" width="10" x="176.5" y="187.9"/><rect fill="#FFFFFF" height="28.95" style="stroke:#181818;stroke-width:1.0;" width="10" x="176.5" y="275.4"/><rect fill="#FFFFFF" height="28.95" style="stroke:#181818;stroke-width:1.0;" width="10" x="176.5" y="452.1"/><rect fill="#FFFFFF" height="28.95" style="stroke:#181818;stroke-width:1.0;" width="10" x="176.5" y="539.6"/><rect fill="#FFFFFF" height="28.95" style="stroke:#181818;stroke-width:1.0;" width="10" x="176.5" y="633.45"/><rect fill="#FFFFFF" height="28.95" style="stroke:#181818;stroke-width:1.0;" width="10" x="176.5" y="730.25"/><rect fill="#FFFFFF" height="28.95" style="stroke:#181818;stroke-width:1.0;" width="10" x="176.5" y="817.75"/><rect fill="#FFFFFF" height="28.95" style="stroke:#181818;stroke-width:1.0;" width="10" x="176.5" y="950.5"/><rect fill="#FFFFFF" height="28.95" style="stroke:#181818;stroke-width:1.0;" width="10" x="873.5" y="187.9"/><rect fill="#FFFFFF" height="28.95" style="stroke:#181818;stroke-width:1.0;" width="10" x="873.5" y="275.4"/><rect fill="#FFFFFF" height="28.95" style="stroke:#181818;stroke-width:1.0;" width="10" x="873.5" y="452.1"/><rect fill="#FFFFFF" height="28.95" style="stroke:#181818;stroke-width:1.0;" width="10" x="873.5" y="539.6"/><rect fill="#FFFFFF" height="28.95" style="stroke:#181818;stroke-width:1.0;" width="10" x="873.5" y="633.45"/><rect fill="#FFFFFF" height="28.95" style="stroke:#181818;stroke-width:1.0;" width="10" x="873.5" y="730.25"/><rect fill="#FFFFFF" height="28.95" style="stroke:#181818;stroke-width:1.0;" width="10" x="873.5" y="817.75"/><rect fill="#FFFFFF" height="28.95" style="stroke:#181818;stroke-width:1.0;" width="10" x="873.5" y="950.5"/><path d="M10,98.1 L10,122.1 L905,122.1 L905,108.1 L895,98.1 L10,98.1 " fill="#7D5393" style="stroke:#000000;stroke-width:0.5;"/><path d="M895,98.1 L895,108.1 L905,108.1 L895,98.1 " fill="#7D5393" style="stroke:#000000;stroke-width:0.5;"/><text fill="#FFFFFF" font-family="NanumGothic" font-size="13" lengthAdjust="spacing" textLength="92" x="407" y="115.06">&#49324;&#50857;&#51088; &#51064;&#51613; &#49457;&#44277;</text><path d="M111.5,135.05 L171.5,135.05 L171.5,142 L161.5,152 L111.5,152 L111.5,135.05 " fill="#EEEEEE" style="stroke:#000000;stroke-width:1.5;"/><rect fill="none" height="177.3" style="stroke:#000000;stroke-width:1.5;" width="803.5" x="111.5" y="135.05"/><text fill="#000000" font-family="NanumGothic" font-size="13" font-weight="bold" lengthAdjust="spacing" textLength="15" x="126.5" y="148.01">alt</text><text fill="#000000" font-family="NanumGothic" font-size="11" font-weight="bold" lengthAdjust="spacing" textLength="334" x="186.5" y="147.17">[TxStopPoint = Authorized &#46608;&#45716; TxStopPoint = PowerPathClosed]</text><polygon fill="#181818" points="861.5,183.9,871.5,187.9,861.5,191.9,865.5,187.9" style="stroke:#181818;stroke-width:1.0;"/><line style="stroke:#181818;stroke-width:1.0;" x1="186.5" x2="867.5" y1="187.9" y2="187.9"/><text fill="#000000" font-family="NanumGothic" font-size="13" lengthAdjust="spacing" textLength="600" x="193.5" y="167.96">TransactionEventRequest(eventType = Ended, transactionId = AB1234, seqNo = N + 1, timestamp,</text><text fill="#000000" font-family="NanumGothic" font-size="13" lengthAdjust="spacing" textLength="555" x="193.5" y="182.91">triggerReason = StopAuthorized, stoppedReason = Local, idToken.id = 1234, meterValues)</text><polygon fill="#181818" points="192.5,212.85,182.5,216.85,192.5,220.85,188.5,216.85" style="stroke:#181818;stroke-width:1.0;"/><line style="stroke:#181818;stroke-width:1.0;stroke-dasharray:2.0,2.0;" x1="186.5" x2="877.5" y1="216.85" y2="216.85"/><text fill="#000000" font-family="NanumGothic" font-size="13" lengthAdjust="spacing" textLength="284" x="198.5" y="211.86">TransactionEventResponse(idTokenInfo.status)</text><line style="stroke:#000000;stroke-width:1.0;stroke-dasharray:2.0,2.0;" x1="111.5" x2="915" y1="225.85" y2="225.85"/><text fill="#000000" font-family="NanumGothic" font-size="11" font-weight="bold" lengthAdjust="spacing" textLength="547" x="116.5" y="235.97">[TxStopPoint = EVConnected &#46608;&#45716; TxStopPoint = ParkingBayOccupancy &#46608;&#45716; TxStopPoint = EnergyTransfer]</text><polygon fill="#181818" points="861.5,271.4,871.5,275.4,861.5,279.4,865.5,275.4" style="stroke:#181818;stroke-width:1.0;"/><line style="stroke:#181818;stroke-width:1.0;" x1="186.5" x2="867.5" y1="275.4" y2="275.4"/><text fill="#000000" font-family="NanumGothic" font-size="13" lengthAdjust="spacing" textLength="614" x="193.5" y="255.46">TransactionEventRequest(eventType = Updated, transactionId = AB1234, seqNo = N + 1, timestamp,</text><text fill="#000000" font-family="NanumGothic" font-size="13" lengthAdjust="spacing" textLength="322" x="193.5" y="270.41">triggerReason = StopAuthorized, idToken.id = 1234)</text><polygon fill="#181818" points="192.5,300.35,182.5,304.35,192.5,308.35,188.5,304.35" style="stroke:#181818;stroke-width:1.0;"/><line style="stroke:#181818;stroke-width:1.0;stroke-dasharray:2.0,2.0;" x1="186.5" x2="877.5" y1="304.35" y2="304.35"/><text fill="#000000" font-family="NanumGothic" font-size="13" lengthAdjust="spacing" textLength="284" x="198.5" y="299.36">TransactionEventResponse(idTokenInfo.status)</text><path d="M111.5,326.35 L177.5,326.35 L177.5,333.3 L167.5,343.3 L111.5,343.3 L111.5,326.35 " fill="#EEEEEE" style="stroke:#000000;stroke-width:1.5;"/><rect fill="none" height="58.9" style="stroke:#000000;stroke-width:1.5;" width="355" x="111.5" y="326.35"/><text fill="#000000" font-family="NanumGothic" font-size="13" font-weight="bold" lengthAdjust="spacing" textLength="21" x="126.5" y="339.31">opt</text><text fill="#000000" font-family="NanumGothic" font-size="11" font-weight="bold" lengthAdjust="spacing" textLength="269" x="192.5" y="338.47">[&#52992;&#51060;&#48660;&#51060; &#50689;&#44396;&#51201;&#51004;&#47196; &#50672;&#44208;&#46104;&#51648; &#50506;&#51020; &amp; (&#46041;&#51068; ID &#46608;&#45716; &#51064;&#51613;)]</text><line style="stroke:#181818;stroke-width:1.0;" x1="181.5" x2="223.5" y1="364.25" y2="364.25"/><line style="stroke:#181818;stroke-width:1.0;" x1="223.5" x2="223.5" y1="364.25" y2="377.25"/><line style="stroke:#181818;stroke-width:1.0;" x1="182.5" x2="223.5" y1="377.25" y2="377.25"/><polygon fill="#181818" points="192.5,373.25,182.5,377.25,192.5,381.25,188.5,377.25" style="stroke:#181818;stroke-width:1.0;"/><text fill="#000000" font-family="NanumGothic" font-size="13" lengthAdjust="spacing" textLength="92" x="188.5" y="359.26">&#52964;&#45349;&#53552; &#51104;&#44552; &#54644;&#51228;</text><path d="M111.5,399.25 L171.5,399.25 L171.5,406.2 L161.5,416.2 L111.5,416.2 L111.5,399.25 " fill="#EEEEEE" style="stroke:#000000;stroke-width:1.5;"/><rect fill="none" height="177.3" style="stroke:#000000;stroke-width:1.5;" width="803.5" x="111.5" y="399.25"/><text fill="#000000" font-family="NanumGothic" font-size="13" font-weight="bold" lengthAdjust="spacing" textLength="15" x="126.5" y="412.21">alt</text><text fill="#000000" font-family="NanumGothic" font-size="11" font-weight="bold" lengthAdjust="spacing" textLength="161" x="186.5" y="411.37">[TxStopPoint = EnergyTransfer]</text><polygon fill="#181818" points="861.5,448.1,871.5,452.1,861.5,456.1,865.5,452.1" style="stroke:#181818;stroke-width:1.0;"/><line style="stroke:#181818;stroke-width:1.0;" x1="186.5" x2="867.5" y1="452.1" y2="452.1"/><text fill="#000000" font-family="NanumGothic" font-size="13" lengthAdjust="spacing" textLength="600" x="193.5" y="432.16">TransactionEventRequest(eventType = Ended, transactionId = AB1234, seqNo = N + 2, timestamp,</text><text fill="#000000" font-family="NanumGothic" font-size="13" lengthAdjust="spacing" textLength="673" x="193.5" y="447.11">triggerReason = ChargingStateChanged, chargingState = EVConnected, stoppedReason = Local, meterValues)</text><polygon fill="#181818" points="192.5,477.05,182.5,481.05,192.5,485.05,188.5,481.05" style="stroke:#181818;stroke-width:1.0;"/><line style="stroke:#181818;stroke-width:1.0;stroke-dasharray:2.0,2.0;" x1="186.5" x2="877.5" y1="481.05" y2="481.05"/><text fill="#000000" font-family="NanumGothic" font-size="13" lengthAdjust="spacing" textLength="171" x="198.5" y="476.06">TransactionEventResponse()</text><line style="stroke:#000000;stroke-width:1.0;stroke-dasharray:2.0,2.0;" x1="111.5" x2="915" y1="490.05" y2="490.05"/><text fill="#000000" font-family="NanumGothic" font-size="11" font-weight="bold" lengthAdjust="spacing" textLength="368" x="116.5" y="500.17">[TxStopPoint = EVConnected &#46608;&#45716; TxStopPoint = ParkingBayOccupancy]</text><polygon fill="#181818" points="861.5,535.6,871.5,539.6,861.5,543.6,865.5,539.6" style="stroke:#181818;stroke-width:1.0;"/><line style="stroke:#181818;stroke-width:1.0;" x1="186.5" x2="867.5" y1="539.6" y2="539.6"/><text fill="#000000" font-family="NanumGothic" font-size="13" lengthAdjust="spacing" textLength="614" x="193.5" y="519.66">TransactionEventRequest(eventType = Updated, transactionId = AB1234, seqNo = N + 1, timestamp,</text><text fill="#000000" font-family="NanumGothic" font-size="13" lengthAdjust="spacing" textLength="440" x="193.5" y="534.61">triggerReason = ChargingStateChanged, chargingState = EVConnected)</text><polygon fill="#181818" points="192.5,564.55,182.5,568.55,192.5,572.55,188.5,568.55" style="stroke:#181818;stroke-width:1.0;"/><line style="stroke:#181818;stroke-width:1.0;stroke-dasharray:2.0,2.0;" x1="186.5" x2="877.5" y1="568.55" y2="568.55"/><text fill="#000000" font-family="NanumGothic" font-size="13" lengthAdjust="spacing" textLength="171" x="198.5" y="563.56">TransactionEventResponse()</text><polygon fill="#181818" points="169.5,600.5,179.5,604.5,169.5,608.5,173.5,604.5" style="stroke:#181818;stroke-width:1.0;"/><line style="stroke:#181818;stroke-width:1.0;" x1="37.5" x2="175.5" y1="604.5" y2="604.5"/><text fill="#000000" font-family="NanumGothic" font-size="13" lengthAdjust="spacing" textLength="92" x="44.5" y="599.51">&#52992;&#51060;&#48660; &#50672;&#44208; &#54644;&#51228;</text><polygon fill="#181818" points="861.5,629.45,871.5,633.45,861.5,637.45,865.5,633.45" style="stroke:#181818;stroke-width:1.0;"/><line style="stroke:#181818;stroke-width:1.0;" x1="186.5" x2="867.5" y1="633.45" y2="633.45"/><text fill="#000000" font-family="NanumGothic" font-size="13" lengthAdjust="spacing" textLength="220" x="193.5" y="628.46">StatusNotificationRequest(Available)</text><polygon fill="#181818" points="192.5,658.4,182.5,662.4,192.5,666.4,188.5,662.4" style="stroke:#181818;stroke-width:1.0;"/><line style="stroke:#181818;stroke-width:1.0;stroke-dasharray:2.0,2.0;" x1="186.5" x2="877.5" y1="662.4" y2="662.4"/><text fill="#000000" font-family="NanumGothic" font-size="13" lengthAdjust="spacing" textLength="176" x="198.5" y="657.41">StatusNotificationResponse()</text><path d="M111.5,677.4 L171.5,677.4 L171.5,684.35 L161.5,694.35 L111.5,694.35 L111.5,677.4 " fill="#EEEEEE" style="stroke:#000000;stroke-width:1.5;"/><rect fill="none" height="177.3" style="stroke:#000000;stroke-width:1.5;" width="803.5" x="111.5" y="677.4"/><text fill="#000000" font-family="NanumGothic" font-size="13" font-weight="bold" lengthAdjust="spacing" textLength="15" x="126.5" y="690.36">alt</text><text fill="#000000" font-family="NanumGothic" font-size="11" font-weight="bold" lengthAdjust="spacing" textLength="153" x="186.5" y="689.52">[TxStopPoint = EVConnected]</text><polygon fill="#181818" points="861.5,726.25,871.5,730.25,861.5,734.25,865.5,730.25" style="stroke:#181818;stroke-width:1.0;"/><line style="stroke:#181818;stroke-width:1.0;" x1="186.5" x2="867.5" y1="730.25" y2="730.25"/><text fill="#000000" font-family="NanumGothic" font-size="13" lengthAdjust="spacing" textLength="600" x="193.5" y="710.31">TransactionEventRequest(eventType = Ended, transactionId = AB1234, seqNo = N + 3, timestamp,</text><text fill="#000000" font-family="NanumGothic" font-size="13" lengthAdjust="spacing" textLength="394" x="193.5" y="725.26">triggerReason = EVCommunicationLost, stoppedReason = Local)</text><polygon fill="#181818" points="192.5,755.2,182.5,759.2,192.5,763.2,188.5,759.2" style="stroke:#181818;stroke-width:1.0;"/><line style="stroke:#181818;stroke-width:1.0;stroke-dasharray:2.0,2.0;" x1="186.5" x2="877.5" y1="759.2" y2="759.2"/><text fill="#000000" font-family="NanumGothic" font-size="13" lengthAdjust="spacing" textLength="171" x="198.5" y="754.21">TransactionEventResponse()</text><line style="stroke:#000000;stroke-width:1.0;stroke-dasharray:2.0,2.0;" x1="111.5" x2="915" y1="768.2" y2="768.2"/><text fill="#000000" font-family="NanumGothic" font-size="11" font-weight="bold" lengthAdjust="spacing" textLength="197" x="116.5" y="778.32">[TxStopPoint = ParkingBayOccupancy]</text><polygon fill="#181818" points="861.5,813.75,871.5,817.75,861.5,821.75,865.5,817.75" style="stroke:#181818;stroke-width:1.0;"/><line style="stroke:#181818;stroke-width:1.0;" x1="186.5" x2="867.5" y1="817.75" y2="817.75"/><text fill="#000000" font-family="NanumGothic" font-size="13" lengthAdjust="spacing" textLength="614" x="193.5" y="797.81">TransactionEventRequest(eventType = Updated, transactionId = AB1234, seqNo = N + 3, timestamp,</text><text fill="#000000" font-family="NanumGothic" font-size="13" lengthAdjust="spacing" textLength="245" x="193.5" y="812.76">triggerReason = EVCommunicationLost)</text><polygon fill="#181818" points="192.5,842.7,182.5,846.7,192.5,850.7,188.5,846.7" style="stroke:#181818;stroke-width:1.0;"/><line style="stroke:#181818;stroke-width:1.0;stroke-dasharray:2.0,2.0;" x1="186.5" x2="877.5" y1="846.7" y2="846.7"/><text fill="#000000" font-family="NanumGothic" font-size="13" lengthAdjust="spacing" textLength="171" x="198.5" y="841.71">TransactionEventResponse()</text><polygon fill="#181818" points="169.5,878.65,179.5,882.65,169.5,886.65,173.5,882.65" style="stroke:#181818;stroke-width:1.0;"/><line style="stroke:#181818;stroke-width:1.0;" x1="37.5" x2="175.5" y1="882.65" y2="882.65"/><text fill="#000000" font-family="NanumGothic" font-size="13" lengthAdjust="spacing" textLength="120" x="44.5" y="877.66">&#51452;&#52264; &#51088;&#47532; &#48150;&#51004;&#47196; &#50868;&#51204;</text><path d="M111.5,897.65 L171.5,897.65 L171.5,904.6 L161.5,914.6 L111.5,914.6 L111.5,897.65 " fill="#EEEEEE" style="stroke:#000000;stroke-width:1.5;"/><rect fill="none" height="89.8" style="stroke:#000000;stroke-width:1.5;" width="803.5" x="111.5" y="897.65"/><text fill="#000000" font-family="NanumGothic" font-size="13" font-weight="bold" lengthAdjust="spacing" textLength="15" x="126.5" y="910.61">alt</text><text fill="#000000" font-family="NanumGothic" font-size="11" font-weight="bold" lengthAdjust="spacing" textLength="197" x="186.5" y="909.77">[TxStopPoint = ParkingBayOccupancy]</text><polygon fill="#181818" points="861.5,946.5,871.5,950.5,861.5,954.5,865.5,950.5" style="stroke:#181818;stroke-width:1.0;"/><line style="stroke:#181818;stroke-width:1.0;" x1="186.5" x2="867.5" y1="950.5" y2="950.5"/><text fill="#000000" font-family="NanumGothic" font-size="13" lengthAdjust="spacing" textLength="600" x="193.5" y="930.56">TransactionEventRequest(eventType = Ended, transactionId = AB1234, seqNo = N + 3, timestamp,</text><text fill="#000000" font-family="NanumGothic" font-size="13" lengthAdjust="spacing" textLength="328" x="193.5" y="945.51">triggerReason = EVDeparted, stoppedReason = Local)</text><polygon fill="#181818" points="192.5,975.45,182.5,979.45,192.5,983.45,188.5,979.45" style="stroke:#181818;stroke-width:1.0;"/><line style="stroke:#181818;stroke-width:1.0;stroke-dasharray:2.0,2.0;" x1="186.5" x2="877.5" y1="979.45" y2="979.45"/><text fill="#000000" font-family="NanumGothic" font-size="13" lengthAdjust="spacing" textLength="171" x="198.5" y="974.46">TransactionEventResponse()</text><!--SRC=[rLTDJzj04BtxLqmvL4GDI41FI5JY8mSaIX59S-fbQmzXXRDhrkkqwGcg72fKgJb0In51L6rfAt58Mv2GcbyKB_-XQoS6Oc8GYCyS4k_kUERDl7cpoWFAJDkp45nPjh7VyOgsOH1JSW4zcJnC25f2qGF4XKo-jJ0S8YGrgKEOX9xnUI8Ab1KWAucad8McqMPxB_P6zccsPQKV38DnYS2rtwC0wTO9W7gxgpP-gQqggDg1sgc1glnk_jqta5aGlAQ1sX9ohxEIEpESQkSZCEh9UIxe6xJ0Nw_wAwknynd-2iKCaVFZDdVHqb5YOA7lIHX_689FJX3cwdBeWqm9cPp5HGzTsOl18bTsKBlCC0kjDCXZqqahG38sC3ZqE0qkBavplPw6Hp2WpMXHEo159ntuVy6ae8K2YbaahWu-0W7OuoJqwthje7LqFiLDOgU1MZc-WAoV1g5QWOeeKUI9hG6cT5u1b1BHnOspSV8ef032N-WBCk-q7UvI0DVXpCNUDe19DiVxTJxI2uDQsEcxSoS616qNO_HaykESCJHb8dz4B6WNOwJyp3GztL5ckRjXXg4eb4FuSxffhu3dvuwbixW-fazHcZf5rHcitXwBp38CxaXGZILLs_CFLlKtgFNbvlwksbvMcmt_ooQeJ_NcdxfVNLS_ba2jhQZQUtW8lVw7pwhMWCc9YCIMqbC9VCNpKl- - -PNlXvKwgAtjvi4xE5pRKzkRBKodXyFLzyG5j3zuVaUSX8DwmGg1S_FaRgT64iT3uYoubYwwBUNVHLLVcCCRcDMNqtHq7tTNNYJsjh8ZvHc9X6J3yJBD9PsZPdWMqJ5Q8jGcBsrC6PqOaziqkGZTmXoL8Lw4CqhGRNmSatR3isFe_BuBm1MB7cidFSLTcJ0Txib0k0jwlrpTxwcYlpPK_QU-IAl-pYxuzO_HpRsXXLtffeThOkYgTJ61mV-FnCloJif1i_KV]--></g></svg>