<?xml version="1.0" encoding="us-ascii" standalone="no"?><svg xmlns="http://www.w3.org/2000/svg" xmlns:xlink="http://www.w3.org/1999/xlink" contentStyleType="text/css" height="860px" preserveAspectRatio="none" style="width:757px;height:860px;background:#FFFFFF;" version="1.1" viewBox="0 0 757 860" width="757px" zoomAndPan="magnify"><defs/><g><rect fill="#FFFFFF" height="57.9" style="stroke:#181818;stroke-width:1.0;" width="10" x="100" y="172.95"/><rect fill="#FFFFFF" height="28.95" style="stroke:#181818;stroke-width:1.0;" width="10" x="100" y="317.9998"/><rect fill="#FFFFFF" height="57.9" style="stroke:#181818;stroke-width:1.0;" width="10" x="100" y="575.2499"/><rect fill="#FFFFFF" height="28.95" style="stroke:#181818;stroke-width:1.0;" width="10" x="100" y="792.85"/><rect fill="#FFFFFF" height="145.0499" style="stroke:#181818;stroke-width:1.0;" width="10" x="474" y="201.9"/><rect fill="#FFFFFF" height="33.95" style="stroke:#181818;stroke-width:1.0;" width="10" x="474" y="462.7499"/><rect fill="#FFFFFF" height="28.95" style="stroke:#181818;stroke-width:1.0;" width="10" x="474" y="604.1999"/><rect fill="#FFFFFF" height="86.85" style="stroke:#181818;stroke-width:1.0;" width="10" x="474" y="734.9499"/><rect fill="none" height="736.7" style="stroke:#000000;stroke-width:1.5;" width="735" x="10" y="100.0999"/><rect fill="none" height="116.0999" style="stroke:#000000;stroke-width:1.5;" width="500.5" x="58.5" y="245.85"/><rect fill="none" height="74.85" style="stroke:#000000;stroke-width:1.5;" width="480.5" x="68.5" y="280.0998"/><rect fill="none" height="74.85" style="stroke:#000000;stroke-width:1.5;" width="480.5" x="68.5" y="754.9499"/><line style="stroke:#181818;stroke-width:0.5;stroke-dasharray:5.0,5.0;" x1="37" x2="37" y1="83.0999" y2="853.8"/><line style="stroke:#181818;stroke-width:0.5;stroke-dasharray:5.0,5.0;" x1="104.5" x2="104.5" y1="83.0999" y2="853.8"/><line style="stroke:#181818;stroke-width:0.5;stroke-dasharray:5.0,5.0;" x1="479" x2="479" y1="83.0999" y2="853.8"/><text fill="#000000" font-family="NanumGothic" font-size="14" lengthAdjust="spacing" textLength="28" x="20" y="79.8799">CSO</text><ellipse cx="37" cy="14.5" fill="#E2E2F0" rx="8" ry="8" style="stroke:#7D5393;stroke-width:1.5;"/><path d="M37,22.5 L37,49.5 M24,30.5 L50,30.5 M37,49.5 L24,64.5 M37,49.5 L50,64.5 " fill="none" style="stroke:#7D5393;stroke-width:1.5;"/><rect fill="#7D5393" height="30.0999" rx="2.5" ry="2.5" style="stroke:#181818;stroke-width:0.5;" width="53" x="78.5" y="52"/><text fill="#FFFFFF" font-family="NanumGothic" font-size="14" lengthAdjust="spacing" textLength="39" x="85.5" y="71.8799">CSMS</text><rect fill="#7D5393" height="30.0999" rx="2.5" ry="2.5" style="stroke:#181818;stroke-width:0.5;" width="120" x="419" y="52"/><text fill="#FFFFFF" font-family="NanumGothic" font-size="14" lengthAdjust="spacing" textLength="106" x="426" y="71.8799">Charging Station</text><rect fill="#FFFFFF" height="57.9" style="stroke:#181818;stroke-width:1.0;" width="10" x="100" y="172.95"/><rect fill="#FFFFFF" height="28.95" style="stroke:#181818;stroke-width:1.0;" width="10" x="100" y="317.9998"/><rect fill="#FFFFFF" height="57.9" style="stroke:#181818;stroke-width:1.0;" width="10" x="100" y="575.2499"/><rect fill="#FFFFFF" height="28.95" style="stroke:#181818;stroke-width:1.0;" width="10" x="100" y="792.85"/><rect fill="#FFFFFF" height="145.0499" style="stroke:#181818;stroke-width:1.0;" width="10" x="474" y="201.9"/><rect fill="#FFFFFF" height="33.95" style="stroke:#181818;stroke-width:1.0;" width="10" x="474" y="462.7499"/><rect fill="#FFFFFF" height="28.95" style="stroke:#181818;stroke-width:1.0;" width="10" x="474" y="604.1999"/><rect fill="#FFFFFF" height="86.85" style="stroke:#181818;stroke-width:1.0;" width="10" x="474" y="734.9499"/><path d="M10,100.0999 L70,100.0999 L70,107.0499 L60,117.0499 L10,117.0499 L10,100.0999 " fill="#EEEEEE" style="stroke:#000000;stroke-width:1.5;"/><rect fill="none" height="736.7" style="stroke:#000000;stroke-width:1.5;" width="735" x="10" y="100.0999"/><text fill="#000000" font-family="NanumGothic" font-size="13" font-weight="bold" lengthAdjust="spacing" textLength="15" x="25" y="113.0599">alt</text><text fill="#000000" font-family="NanumGothic" font-size="11" font-weight="bold" lengthAdjust="spacing" textLength="61" x="85" y="112.2199">[&#52649;&#51204;&#49548; &#47532;&#49483;]</text><path d="M211,122.0499 L211,146.0499 L474,146.0499 L474,132.0499 L464,122.0499 L211,122.0499 " fill="#7D5393" style="stroke:#000000;stroke-width:0.5;"/><path d="M464,122.0499 L464,132.0499 L474,132.0499 L464,122.0499 " fill="#7D5393" style="stroke:#000000;stroke-width:0.5;"/><text fill="#FFFFFF" font-family="NanumGothic" font-size="13" lengthAdjust="spacing" textLength="242" x="217" y="139.01">&#54620; &#44060; &#51060;&#49345;&#51032; EVSE&#50640;&#49436; &#53944;&#47004;&#51117;&#49496;&#51060; &#54876;&#49457;&#54868;&#46120;</text><polygon fill="#181818" points="88,168.95,98,172.95,88,176.95,92,172.95" style="stroke:#181818;stroke-width:1.0;"/><line style="stroke:#181818;stroke-width:1.0;" x1="37" x2="94" y1="172.95" y2="172.95"/><text fill="#000000" font-family="NanumGothic" font-size="13" lengthAdjust="spacing" textLength="44" x="44" y="167.96">CS &#47532;&#49483;</text><polygon fill="#181818" points="462,197.9,472,201.9,462,205.9,466,201.9" style="stroke:#181818;stroke-width:1.0;"/><line style="stroke:#181818;stroke-width:1.0;" x1="110" x2="468" y1="201.9" y2="201.9"/><text fill="#000000" font-family="NanumGothic" font-size="13" lengthAdjust="spacing" textLength="131" x="117" y="196.91">ResetRequest(OnIdle)</text><polygon fill="#181818" points="116,226.85,106,230.85,116,234.85,112,230.85" style="stroke:#181818;stroke-width:1.0;"/><line style="stroke:#181818;stroke-width:1.0;stroke-dasharray:2.0,2.0;" x1="110" x2="473" y1="230.85" y2="230.85"/><text fill="#000000" font-family="NanumGothic" font-size="13" lengthAdjust="spacing" textLength="163" x="122" y="225.86">ResetResponse(Scheduled)</text><path d="M58.5,245.85 L124.5,245.85 L124.5,252.8 L114.5,262.8 L58.5,262.8 L58.5,245.85 " fill="#EEEEEE" style="stroke:#000000;stroke-width:1.5;"/><rect fill="none" height="116.0999" style="stroke:#000000;stroke-width:1.5;" width="500.5" x="58.5" y="245.85"/><text fill="#000000" font-family="NanumGothic" font-size="13" font-weight="bold" lengthAdjust="spacing" textLength="21" x="73.5" y="258.81">opt</text><text fill="#000000" font-family="NanumGothic" font-size="11" font-weight="bold" lengthAdjust="spacing" textLength="128" x="139.5" y="257.9699">[&#47924;&#47308;&#47196; &#49444;&#51221;&#46108; EVSE&#50640; &#45824;&#54620;</text><text fill="#000000" font-family="NanumGothic" font-size="11" font-weight="bold" lengthAdjust="spacing" textLength="67" x="139.5" y="270.6198">&#53944;&#47004;&#51117;&#49496; &#48169;&#51648;]</text><path d="M68.5,280.0998 L140.5,280.0998 L140.5,287.0498 L130.5,297.0498 L68.5,297.0498 L68.5,280.0998 " fill="#EEEEEE" style="stroke:#000000;stroke-width:1.5;"/><rect fill="none" height="74.85" style="stroke:#000000;stroke-width:1.5;" width="480.5" x="68.5" y="280.0998"/><text fill="#000000" font-family="NanumGothic" font-size="13" font-weight="bold" lengthAdjust="spacing" textLength="27" x="83.5" y="293.0598">loop</text><text fill="#000000" font-family="NanumGothic" font-size="11" font-weight="bold" lengthAdjust="spacing" textLength="172" x="155.5" y="292.2197">[Available &#49345;&#53468;&#51064; &#47784;&#46304; EVSE&#50640; &#45824;&#54644;]</text><polygon fill="#181818" points="121,313.9998,111,317.9998,121,321.9998,117,317.9998" style="stroke:#181818;stroke-width:1.0;"/><line style="stroke:#181818;stroke-width:1.0;" x1="115" x2="473" y1="317.9998" y2="317.9998"/><text fill="#000000" font-family="NanumGothic" font-size="13" lengthAdjust="spacing" textLength="251" x="127" y="313.0098">StatusNotificationRequest(Unavailable,...)</text><polygon fill="#181818" points="467,342.9499,477,346.9499,467,350.9499,471,346.9499" style="stroke:#181818;stroke-width:1.0;"/><line style="stroke:#181818;stroke-width:1.0;stroke-dasharray:2.0,2.0;" x1="105" x2="473" y1="346.9499" y2="346.9499"/><text fill="#000000" font-family="NanumGothic" font-size="13" lengthAdjust="spacing" textLength="188" x="112" y="341.9599">StatusNotificationResponse(...)</text><path d="M338,373.9499 L338,427.9499 L620,427.9499 L620,383.9499 L610,373.9499 L338,373.9499 " fill="#7D5393" style="stroke:#000000;stroke-width:0.5;"/><path d="M610,373.9499 L610,383.9499 L620,383.9499 L610,373.9499 " fill="#7D5393" style="stroke:#000000;stroke-width:0.5;"/><text fill="#FFFFFF" font-family="NanumGothic" font-size="13" lengthAdjust="spacing" textLength="188" x="344" y="390.9099">&#53944;&#47004;&#51117;&#49496;&#51060; &#45149;&#45216; &#46412; &#44620;&#51648; &#45824;&#44592;&#54616;&#44256;,</text><text fill="#FFFFFF" font-family="NanumGothic" font-size="13" lengthAdjust="spacing" textLength="184" x="344" y="405.8599">&#53944;&#47004;&#51117;&#49496;&#51060; &#45149;&#45216; &#46412; &#44620;&#51648; &#52964;&#45349;&#53552;&#47484;</text><text fill="#FFFFFF" font-family="NanumGothic" font-size="13" lengthAdjust="spacing" textLength="261" x="344" y="420.8099">Unavailable &#49345;&#53468;&#47196; &#49444;&#51221;&#54624; &#49688; &#51080;&#51020;(optionally)</text><line style="stroke:#181818;stroke-width:1.0;" x1="479" x2="526" y1="449.7499" y2="449.7499"/><line style="stroke:#181818;stroke-width:1.0;" x1="526" x2="526" y1="449.7499" y2="462.7499"/><line style="stroke:#181818;stroke-width:1.0;" x1="485" x2="526" y1="462.7499" y2="462.7499"/><polygon fill="#181818" points="495,458.7499,485,462.7499,495,466.7499,491,462.7499" style="stroke:#181818;stroke-width:1.0;"/><text fill="#000000" font-family="NanumGothic" font-size="13" lengthAdjust="spacing" textLength="76" x="491" y="444.7599">&#52649;&#51204;&#44592; &#51116;&#48512;&#54021;</text><ellipse cx="747.5" cy="495.9499" fill="none" rx="4" ry="4" style="stroke:#181818;stroke-width:1.5;"/><polygon fill="#181818" points="730.5,492.6999,740.5,496.6999,730.5,500.6999,734.5,496.6999" style="stroke:#181818;stroke-width:1.0;"/><line style="stroke:#181818;stroke-width:1.0;" x1="479" x2="736.5" y1="496.6999" y2="496.6999"/><text fill="#000000" font-family="NanumGothic" font-size="13" lengthAdjust="spacing" textLength="245" x="486" y="491.7099">B01 - Cold Boot Charging Station&#47196; &#44228;&#49549;</text><line style="stroke:#000000;stroke-width:1.0;stroke-dasharray:2.0,2.0;" x1="10" x2="745" y1="505.6999" y2="505.6999"/><text fill="#000000" font-family="NanumGothic" font-size="11" font-weight="bold" lengthAdjust="spacing" textLength="56" x="15" y="515.8199">[EVSE &#47532;&#49483;]</text><path d="M267,524.3498 L267,548.3498 L474,548.3498 L474,534.3498 L464,524.3498 L267,524.3498 " fill="#7D5393" style="stroke:#000000;stroke-width:0.5;"/><path d="M464,524.3498 L464,534.3498 L474,534.3498 L464,524.3498 " fill="#7D5393" style="stroke:#000000;stroke-width:0.5;"/><text fill="#FFFFFF" font-family="NanumGothic" font-size="13" lengthAdjust="spacing" textLength="186" x="273" y="541.3098">EVSE&#50640; &#45824;&#54644; &#53944;&#47004;&#51117;&#49496;&#51060; &#54876;&#49457;&#54868;&#46120;</text><polygon fill="#181818" points="88,571.2499,98,575.2499,88,579.2499,92,575.2499" style="stroke:#181818;stroke-width:1.0;"/><line style="stroke:#181818;stroke-width:1.0;" x1="37" x2="94" y1="575.2499" y2="575.2499"/><text fill="#000000" font-family="NanumGothic" font-size="13" lengthAdjust="spacing" textLength="44" x="44" y="570.2599">CS &#47532;&#49483;</text><polygon fill="#181818" points="462,600.1999,472,604.1999,462,608.1999,466,604.1999" style="stroke:#181818;stroke-width:1.0;"/><line style="stroke:#181818;stroke-width:1.0;" x1="110" x2="468" y1="604.1999" y2="604.1999"/><text fill="#000000" font-family="NanumGothic" font-size="13" lengthAdjust="spacing" textLength="176" x="117" y="599.2099">ResetRequest(OnIdle, evseId)</text><polygon fill="#181818" points="116,629.1499,106,633.1499,116,637.1499,112,633.1499" style="stroke:#181818;stroke-width:1.0;"/><line style="stroke:#181818;stroke-width:1.0;stroke-dasharray:2.0,2.0;" x1="110" x2="478" y1="633.1499" y2="633.1499"/><text fill="#000000" font-family="NanumGothic" font-size="13" lengthAdjust="spacing" textLength="163" x="122" y="628.1599">ResetResponse(Scheduled)</text><path d="M338,646.1499 L338,700.1499 L620,700.1499 L620,656.1499 L610,646.1499 L338,646.1499 " fill="#7D5393" style="stroke:#000000;stroke-width:0.5;"/><path d="M610,646.1499 L610,656.1499 L620,656.1499 L610,646.1499 " fill="#7D5393" style="stroke:#000000;stroke-width:0.5;"/><text fill="#FFFFFF" font-family="NanumGothic" font-size="13" lengthAdjust="spacing" textLength="188" x="344" y="663.1099">&#53944;&#47004;&#51117;&#49496;&#51060; &#45149;&#45216; &#46412; &#44620;&#51648; &#45824;&#44592;&#54616;&#44256;,</text><text fill="#FFFFFF" font-family="NanumGothic" font-size="13" lengthAdjust="spacing" textLength="184" x="344" y="678.0599">&#53944;&#47004;&#51117;&#49496;&#51060; &#45149;&#45216; &#46412; &#44620;&#51648; &#52964;&#45349;&#53552;&#47484;</text><text fill="#FFFFFF" font-family="NanumGothic" font-size="13" lengthAdjust="spacing" textLength="261" x="344" y="693.0099">Unavailable &#49345;&#53468;&#47196; &#49444;&#51221;&#54624; &#49688; &#51080;&#51020;(optionally)</text><line style="stroke:#181818;stroke-width:1.0;" x1="479" x2="526" y1="721.9499" y2="721.9499"/><line style="stroke:#181818;stroke-width:1.0;" x1="526" x2="526" y1="721.9499" y2="734.9499"/><line style="stroke:#181818;stroke-width:1.0;" x1="485" x2="526" y1="734.9499" y2="734.9499"/><polygon fill="#181818" points="495,730.9499,485,734.9499,495,738.9499,491,734.9499" style="stroke:#181818;stroke-width:1.0;"/><text fill="#000000" font-family="NanumGothic" font-size="13" lengthAdjust="spacing" textLength="58" x="491" y="716.9599">EVSE &#47532;&#49483;</text><path d="M68.5,754.9499 L140.5,754.9499 L140.5,761.9 L130.5,771.9 L68.5,771.9 L68.5,754.9499 " fill="#EEEEEE" style="stroke:#000000;stroke-width:1.5;"/><rect fill="none" height="74.85" style="stroke:#000000;stroke-width:1.5;" width="480.5" x="68.5" y="754.9499"/><text fill="#000000" font-family="NanumGothic" font-size="13" font-weight="bold" lengthAdjust="spacing" textLength="27" x="83.5" y="767.9099">loop</text><text fill="#000000" font-family="NanumGothic" font-size="11" font-weight="bold" lengthAdjust="spacing" textLength="132" x="155.5" y="767.0699">[EVSE&#51032; &#47784;&#46304; &#52964;&#45349;&#53552;&#50640; &#45824;&#54644;]</text><polygon fill="#181818" points="121,788.85,111,792.85,121,796.85,117,792.85" style="stroke:#181818;stroke-width:1.0;"/><line style="stroke:#181818;stroke-width:1.0;" x1="115" x2="473" y1="792.85" y2="792.85"/><text fill="#000000" font-family="NanumGothic" font-size="13" lengthAdjust="spacing" textLength="345" x="127" y="787.86">StatusNotificationRequest(Available, evseId, connectorId)</text><polygon fill="#181818" points="467,817.8,477,821.8,467,825.8,471,821.8" style="stroke:#181818;stroke-width:1.0;"/><line style="stroke:#181818;stroke-width:1.0;stroke-dasharray:2.0,2.0;" x1="105" x2="473" y1="821.8" y2="821.8"/><text fill="#000000" font-family="NanumGothic" font-size="13" lengthAdjust="spacing" textLength="176" x="112" y="816.81">StatusNotificationResponse()</text><!--SRC=[vLL1Qzim6BtdLtphAO4aRDSS2clfeOUiKBETjeDdAwr1ixnO2VIMhiuecmU1BJG59tYitTgHGKP3oTX-KIJ_XycAdIQsQRj2JpF4WK_wdfwUdfuV6AQ66pe2c-vXLBOQht0kfsgKr65bNTbQ0TK6yP-pr3erDCDIJHeEL9LefAeaXdRL-evXxe12LMeGSpOjAaOriG2cm2_FkU_mjowmhqFUVf_B0PY48i2eHe7KKbqWdg3hmNJa0U-F-S4-x_TWuvcomOywtF4WU3TX0uyFVl1sJqo0uDZZpi_W-1Fhd8bkPEfoWN0XiIKehKh-5V6EAG28hHjDLR2GMvCpgugSkioc0jl8HdGRlMuWc-Qtp4qTey8IG7BJa2n1QKuX0hCjOjeehsYxI6zWf8U0Eafn8XO5DXopBoxxBBHmJhZVPHqlrWAOsmg5UcukAW9iTCw_jQICc10B7ZTL0wilCG8XPN3WyVu4sFSpzj5V1XhBbWpsCVcmqB2V46hK34sEnR8yDTLuaMAvN2v4IAaDINWfT9RIMVYHKWkWIPtIrGm_2K_Cd35t7scYUhRr4kvY-ttsnWVMTM7wonNAXcfD9wEWsvjU-CLRzl3V9ymv3PmHE_qZMnOaYyxbweo3hW_yi0TySCZxRbxOG91JCTuh9EsTSLH9LMVtJn0MS4DssGhSzh_QTvMygC3QmqTGWdM2TLWZX48o0KBwqmjnqJ_ahZqEX6qaZNTr6M-CWsMVtZO0uFuIe0YeQQDD_TwJ82L6HapyNtvUjivruilqazOHtuyeyUQy4x5tXz2RvsfiXY9en3HH-56TEICp0U-KVpEq6q8kdOnXu8dVNm00]--></g></svg>