<?xml version="1.0" encoding="us-ascii" standalone="no"?><svg xmlns="http://www.w3.org/2000/svg" xmlns:xlink="http://www.w3.org/1999/xlink" contentStyleType="text/css" height="158px" preserveAspectRatio="none" style="width:1055px;height:158px;background:#FFFFFF;" version="1.1" viewBox="0 0 1055 158" width="1055px" zoomAndPan="magnify"><defs/><g><!--cluster ChargingStationMaxProfile--><g id="cluster_ChargingStationMaxProfile"><path d="M8.5,30.1 L202.5,30.1 A3.75,3.75 0 0 1 205,32.6 L212,52.5883 L235.5,52.5883 A2.5,2.5 0 0 1 238,55.0883 L238,124.7 A2.5,2.5 0 0 1 235.5,127.2 L8.5,127.2 A2.5,2.5 0 0 1 6,124.7 L6,32.6 A2.5,2.5 0 0 1 8.5,30.1 " fill="none" style="stroke:#000000;stroke-width:1.5;"/><line style="stroke:#000000;stroke-width:1.5;" x1="6" x2="212" y1="52.5883" y2="52.5883"/><text fill="#000000" font-family="sans-serif" font-size="14" font-weight="bold" lengthAdjust="spacing" textLength="193" x="10" y="45.6352">ChargingStationMaxProfile</text></g><!--cluster TxProfile--><g id="cluster_TxProfile"><path d="M264.5,18.05 L331.5,18.05 A3.75,3.75 0 0 1 334,20.55 L341,40.5383 L491.5,40.5383 A2.5,2.5 0 0 1 494,43.0383 L494,136.75 A2.5,2.5 0 0 1 491.5,139.25 L264.5,139.25 A2.5,2.5 0 0 1 262,136.75 L262,20.55 A2.5,2.5 0 0 1 264.5,18.05 " fill="none" style="stroke:#000000;stroke-width:1.5;"/><line style="stroke:#000000;stroke-width:1.5;" x1="262" x2="341" y1="40.5383" y2="40.5383"/><text fill="#000000" font-family="sans-serif" font-size="14" font-weight="bold" lengthAdjust="spacing" textLength="66" x="266" y="33.5852">TxProfile</text></g><!--cluster TxDefaultProfile--><g id="cluster_TxDefaultProfile"><path d="M520.5,6 L640.5,6 A3.75,3.75 0 0 1 643,8.5 L650,28.4883 L747.5,28.4883 A2.5,2.5 0 0 1 750,30.9883 L750,148.8 A2.5,2.5 0 0 1 747.5,151.3 L520.5,151.3 A2.5,2.5 0 0 1 518,148.8 L518,8.5 A2.5,2.5 0 0 1 520.5,6 " fill="none" style="stroke:#000000;stroke-width:1.5;"/><line style="stroke:#000000;stroke-width:1.5;" x1="518" x2="650" y1="28.4883" y2="28.4883"/><text fill="#000000" font-family="sans-serif" font-size="14" font-weight="bold" lengthAdjust="spacing" textLength="119" x="522" y="21.5352">TxDefaultProfile</text></g><!--cluster ChargingStationExternalConstraints--><g id="cluster_ChargingStationExternalConstraints"><path d="M776.5,18.05 L1035.5,18.05 A3.75,3.75 0 0 1 1038,20.55 L1045,40.5383 L1045.5,40.5383 A2.5,2.5 0 0 1 1048,43.0383 L1048,136.75 A2.5,2.5 0 0 1 1045.5,139.25 L776.5,139.25 A2.5,2.5 0 0 1 774,136.75 L774,20.55 A2.5,2.5 0 0 1 776.5,18.05 " fill="none" style="stroke:#000000;stroke-width:1.5;"/><line style="stroke:#000000;stroke-width:1.5;" x1="774" x2="1045" y1="40.5383" y2="40.5383"/><text fill="#000000" font-family="sans-serif" font-size="14" font-weight="bold" lengthAdjust="spacing" textLength="258" x="778" y="33.5852">ChargingStationExternalConstraints</text></g><!--entity P1--><g id="elem_P1"><polygon fill="#7D5393" points="22.5,75.1,32.5,65.1,221.5,65.1,221.5,101.2,211.5,111.2,22.5,111.2,22.5,75.1" style="stroke:#181818;stroke-width:1.5;"/><line style="stroke:#181818;stroke-width:1.5;" x1="211.5" x2="221.5" y1="75.1" y2="65.1"/><line style="stroke:#181818;stroke-width:1.5;" x1="22.5" x2="211.5" y1="75.1" y2="75.1"/><line style="stroke:#181818;stroke-width:1.5;" x1="211.5" x2="211.5" y1="75.1" y2="111.2"/><text fill="#FFFFFF" font-family="NanumGothic" font-size="14" lengthAdjust="spacing" textLength="159" x="37.5" y="97.98">profile with stackLevel=0</text></g><!--entity P2--><g id="elem_P2"><polygon fill="#7D5393" points="278.5,63.05,288.5,53.05,477.5,53.05,477.5,113.25,467.5,123.25,278.5,123.25,278.5,63.05" style="stroke:#181818;stroke-width:1.5;"/><line style="stroke:#181818;stroke-width:1.5;" x1="467.5" x2="477.5" y1="63.05" y2="53.05"/><line style="stroke:#181818;stroke-width:1.5;" x1="278.5" x2="467.5" y1="63.05" y2="63.05"/><line style="stroke:#181818;stroke-width:1.5;" x1="467.5" x2="467.5" y1="63.05" y2="123.25"/><text fill="#FFFFFF" font-family="NanumGothic" font-size="14" lengthAdjust="spacing" textLength="159" x="293.5" y="85.93">profile with stackLevel=1</text><line style="stroke:#181818;stroke-width:1.0;" x1="278.5" x2="467.5" y1="89.15" y2="89.15"/><line style="stroke:#181818;stroke-width:1.0;" x1="467.5" x2="477.5" y1="89.15" y2="79.15"/><line style="stroke:#181818;stroke-width:1.0;" x1="278.5" x2="467.5" y1="91.15" y2="91.15"/><line style="stroke:#181818;stroke-width:1.0;" x1="467.5" x2="477.5" y1="91.15" y2="81.15"/><text fill="#FFFFFF" font-family="NanumGothic" font-size="14" lengthAdjust="spacing" textLength="159" x="293.5" y="106.03">profile with stackLevel=0</text></g><!--entity P3--><g id="elem_P3"><polygon fill="#7D5393" points="534.5,51,544.5,41,733.5,41,733.5,125.3,723.5,135.3,534.5,135.3,534.5,51" style="stroke:#181818;stroke-width:1.5;"/><line style="stroke:#181818;stroke-width:1.5;" x1="723.5" x2="733.5" y1="51" y2="41"/><line style="stroke:#181818;stroke-width:1.5;" x1="534.5" x2="723.5" y1="51" y2="51"/><line style="stroke:#181818;stroke-width:1.5;" x1="723.5" x2="723.5" y1="51" y2="135.3"/><text fill="#FFFFFF" font-family="NanumGothic" font-size="14" lengthAdjust="spacing" textLength="159" x="549.5" y="73.88">profile with stackLevel=2</text><line style="stroke:#181818;stroke-width:1.0;" x1="534.5" x2="723.5" y1="77.1" y2="77.1"/><line style="stroke:#181818;stroke-width:1.0;" x1="723.5" x2="733.5" y1="77.1" y2="67.1"/><line style="stroke:#181818;stroke-width:1.0;" x1="534.5" x2="723.5" y1="79.1" y2="79.1"/><line style="stroke:#181818;stroke-width:1.0;" x1="723.5" x2="733.5" y1="79.1" y2="69.1"/><text fill="#FFFFFF" font-family="NanumGothic" font-size="14" lengthAdjust="spacing" textLength="159" x="549.5" y="93.98">profile with stackLevel=1</text><line style="stroke:#181818;stroke-width:1.0;" x1="534.5" x2="723.5" y1="101.2" y2="101.2"/><line style="stroke:#181818;stroke-width:1.0;" x1="723.5" x2="733.5" y1="101.2" y2="91.2"/><line style="stroke:#181818;stroke-width:1.0;" x1="534.5" x2="723.5" y1="103.2" y2="103.2"/><line style="stroke:#181818;stroke-width:1.0;" x1="723.5" x2="733.5" y1="103.2" y2="93.2"/><text fill="#FFFFFF" font-family="NanumGothic" font-size="14" lengthAdjust="spacing" textLength="159" x="549.5" y="118.08">profile with stackLevel=0</text></g><!--entity P4--><g id="elem_P4"><polygon fill="#7D5393" points="811.5,63.05,821.5,53.05,1010.5,53.05,1010.5,113.25,1000.5,123.25,811.5,123.25,811.5,63.05" style="stroke:#181818;stroke-width:1.5;"/><line style="stroke:#181818;stroke-width:1.5;" x1="1000.5" x2="1010.5" y1="63.05" y2="53.05"/><line style="stroke:#181818;stroke-width:1.5;" x1="811.5" x2="1000.5" y1="63.05" y2="63.05"/><line style="stroke:#181818;stroke-width:1.5;" x1="1000.5" x2="1000.5" y1="63.05" y2="123.25"/><text fill="#FFFFFF" font-family="NanumGothic" font-size="14" lengthAdjust="spacing" textLength="159" x="826.5" y="85.93">profile with stackLevel=1</text><line style="stroke:#181818;stroke-width:1.0;" x1="811.5" x2="1000.5" y1="89.15" y2="89.15"/><line style="stroke:#181818;stroke-width:1.0;" x1="1000.5" x2="1010.5" y1="89.15" y2="79.15"/><line style="stroke:#181818;stroke-width:1.0;" x1="811.5" x2="1000.5" y1="91.15" y2="91.15"/><line style="stroke:#181818;stroke-width:1.0;" x1="1000.5" x2="1010.5" y1="91.15" y2="81.15"/><text fill="#FFFFFF" font-family="NanumGothic" font-size="14" lengthAdjust="spacing" textLength="159" x="826.5" y="106.03">profile with stackLevel=0</text></g><!--SRC=[hP3B2i9034Nt_OhO3n1VswwgEuM2xaHAg6axECsKcLGhuhyxwAOKNuXPXTpat4i6YZFTx0aoKzM6YINTAomiLgcJiwPXtLGw26hC3bWGX769jb1Sh0L56LvXcrYJAqqXN080DXuLreyHd9IKuCJVBkb8EXg5W0wISN3j43TF2Ca4jhu7U4KQtzN8rzkraLTtFRSvvTXeUM8w_M0w-SxqvsoztovQ8SkeOyDEB2eMrqqx- - -BRW00]--></g></svg>