<?xml version="1.0" encoding="us-ascii" standalone="no"?><svg xmlns="http://www.w3.org/2000/svg" xmlns:xlink="http://www.w3.org/1999/xlink" contentStyleType="text/css" height="120px" preserveAspectRatio="none" style="width:304px;height:120px;background:#FFFFFF;" version="1.1" viewBox="0 0 304 120" width="304px" zoomAndPan="magnify"><defs/><g><rect fill="#FFFFFF" height="28.95" style="stroke:#181818;stroke-width:1.0;" width="10" x="60" y="67.0499"/><rect fill="#FFFFFF" height="28.95" style="stroke:#181818;stroke-width:1.0;" width="10" x="267" y="67.0499"/><line style="stroke:#181818;stroke-width:0.5;stroke-dasharray:5.0,5.0;" x1="65" x2="65" y1="36.0999" y2="114"/><line style="stroke:#181818;stroke-width:0.5;stroke-dasharray:5.0,5.0;" x1="271.5" x2="271.5" y1="36.0999" y2="114"/><rect fill="#7D5393" height="30.0999" rx="2.5" ry="2.5" style="stroke:#181818;stroke-width:0.5;" width="120" x="5" y="5"/><text fill="#FFFFFF" font-family="NanumGothic" font-size="14" lengthAdjust="spacing" textLength="106" x="12" y="24.8799">Charging Station</text><rect fill="#7D5393" height="30.0999" rx="2.5" ry="2.5" style="stroke:#181818;stroke-width:0.5;" width="53" x="245.5" y="5"/><text fill="#FFFFFF" font-family="NanumGothic" font-size="14" lengthAdjust="spacing" textLength="39" x="252.5" y="24.8799">CSMS</text><rect fill="#FFFFFF" height="28.95" style="stroke:#181818;stroke-width:1.0;" width="10" x="60" y="67.0499"/><rect fill="#FFFFFF" height="28.95" style="stroke:#181818;stroke-width:1.0;" width="10" x="267" y="67.0499"/><polygon fill="#181818" points="81,63.0499,71,67.0499,81,71.0499,77,67.0499" style="stroke:#181818;stroke-width:1.0;"/><line style="stroke:#181818;stroke-width:1.0;" x1="75" x2="266" y1="67.0499" y2="67.0499"/><text fill="#000000" font-family="NanumGothic" font-size="13" lengthAdjust="spacing" textLength="127" x="87" y="62.0599">ClearCacheRequest()</text><polygon fill="#181818" points="260,92,270,96,260,100,264,96" style="stroke:#181818;stroke-width:1.0;"/><line style="stroke:#181818;stroke-width:1.0;stroke-dasharray:2.0,2.0;" x1="65" x2="266" y1="96" y2="96"/><text fill="#000000" font-family="NanumGothic" font-size="13" lengthAdjust="spacing" textLength="173" x="72" y="91.01">ClearCacheResponse(status)</text><!--SRC=[TOqz3i8m38NtdC9qQeTo00QMp2pa15PgjP526cAd4hSdKK7G8XRBUj_xERXWVHu8M1wUZZ7Vl58HapZh8WQ1Ha-OHXT6C8BYvj00Chp5bxPBc8jPNULHgbxep_lC2RGdJ1hjH5UwPs9fEuLMt892FmiVi9PkCVHre91jAySvCBLSJ9axDT3V-czK1vu0]--></g></svg>