<?xml version="1.0" encoding="us-ascii" standalone="no"?><svg xmlns="http://www.w3.org/2000/svg" xmlns:xlink="http://www.w3.org/1999/xlink" contentStyleType="text/css" height="630px" preserveAspectRatio="none" style="width:905px;height:630px;background:#FFFFFF;" version="1.1" viewBox="0 0 905 630" width="905px" zoomAndPan="magnify"><defs/><g><rect fill="#FFFFFF" height="233.6" style="stroke:#181818;stroke-width:1.0;" width="10" x="30.5" y="124.95"/><rect fill="#FFFFFF" height="70.9" style="stroke:#181818;stroke-width:1.0;" width="10" x="30.5" y="387.5"/><rect fill="#FFFFFF" height="28.95" style="stroke:#181818;stroke-width:1.0;" width="10" x="489.5" y="67.05"/><rect fill="#FFFFFF" height="110.8" style="stroke:#181818;stroke-width:1.0;" width="10" x="489.5" y="124.95"/><rect fill="#FFFFFF" height="93.85" style="stroke:#181818;stroke-width:1.0;" width="10" x="489.5" y="264.7"/><rect fill="#FFFFFF" height="152.75" style="stroke:#181818;stroke-width:1.0;" width="10" x="489.5" y="387.5"/><rect fill="#FFFFFF" height="37.95" style="stroke:#181818;stroke-width:1.0;" width="10" x="489.5" y="576.2"/><rect fill="#FFFFFF" height="28.95" style="stroke:#181818;stroke-width:1.0;" width="10" x="857.5" y="67.05"/><rect fill="#FFFFFF" height="28.95" style="stroke:#181818;stroke-width:1.0;" width="10" x="857.5" y="153.9"/><rect fill="#FFFFFF" height="28.95" style="stroke:#181818;stroke-width:1.0;" width="10" x="857.5" y="300.65"/><rect fill="#FFFFFF" height="28.95" style="stroke:#181818;stroke-width:1.0;" width="10" x="857.5" y="511.3"/><rect fill="#FFFFFF" height="37.95" style="stroke:#181818;stroke-width:1.0;" width="10" x="857.5" y="576.2"/><rect fill="none" height="74.85" style="stroke:#000000;stroke-width:1.5;" width="554.5" x="10" y="197.85"/><rect fill="none" height="74.85" style="stroke:#000000;stroke-width:1.5;" width="474.5" x="424.5" y="473.4"/><line style="stroke:#181818;stroke-width:0.5;stroke-dasharray:5.0,5.0;" x1="35" x2="35" y1="36.1" y2="623.15"/><line style="stroke:#181818;stroke-width:0.5;stroke-dasharray:5.0,5.0;" x1="494.5" x2="494.5" y1="36.1" y2="623.15"/><line style="stroke:#181818;stroke-width:0.5;stroke-dasharray:5.0,5.0;" x1="862" x2="862" y1="36.1" y2="623.15"/><rect fill="#7D5393" height="30.1" rx="2.5" ry="2.5" style="stroke:#181818;stroke-width:0.5;" width="31" x="20" y="5"/><text fill="#FFFFFF" font-family="NanumGothic" font-size="14" lengthAdjust="spacing" textLength="17" x="27" y="24.88">EV</text><rect fill="#7D5393" height="30.1" rx="2.5" ry="2.5" style="stroke:#181818;stroke-width:0.5;" width="120" x="434.5" y="5"/><text fill="#FFFFFF" font-family="NanumGothic" font-size="14" lengthAdjust="spacing" textLength="106" x="441.5" y="24.88">Charging Station</text><rect fill="#7D5393" height="30.1" rx="2.5" ry="2.5" style="stroke:#181818;stroke-width:0.5;" width="53" x="836" y="5"/><text fill="#FFFFFF" font-family="NanumGothic" font-size="14" lengthAdjust="spacing" textLength="39" x="843" y="24.88">CSMS</text><rect fill="#FFFFFF" height="233.6" style="stroke:#181818;stroke-width:1.0;" width="10" x="30.5" y="124.95"/><rect fill="#FFFFFF" height="70.9" style="stroke:#181818;stroke-width:1.0;" width="10" x="30.5" y="387.5"/><rect fill="#FFFFFF" height="28.95" style="stroke:#181818;stroke-width:1.0;" width="10" x="489.5" y="67.05"/><rect fill="#FFFFFF" height="110.8" style="stroke:#181818;stroke-width:1.0;" width="10" x="489.5" y="124.95"/><rect fill="#FFFFFF" height="93.85" style="stroke:#181818;stroke-width:1.0;" width="10" x="489.5" y="264.7"/><rect fill="#FFFFFF" height="152.75" style="stroke:#181818;stroke-width:1.0;" width="10" x="489.5" y="387.5"/><rect fill="#FFFFFF" height="37.95" style="stroke:#181818;stroke-width:1.0;" width="10" x="489.5" y="576.2"/><rect fill="#FFFFFF" height="28.95" style="stroke:#181818;stroke-width:1.0;" width="10" x="857.5" y="67.05"/><rect fill="#FFFFFF" height="28.95" style="stroke:#181818;stroke-width:1.0;" width="10" x="857.5" y="153.9"/><rect fill="#FFFFFF" height="28.95" style="stroke:#181818;stroke-width:1.0;" width="10" x="857.5" y="300.65"/><rect fill="#FFFFFF" height="28.95" style="stroke:#181818;stroke-width:1.0;" width="10" x="857.5" y="511.3"/><rect fill="#FFFFFF" height="37.95" style="stroke:#181818;stroke-width:1.0;" width="10" x="857.5" y="576.2"/><polygon fill="#181818" points="845.5,63.05,855.5,67.05,845.5,71.05,849.5,67.05" style="stroke:#181818;stroke-width:1.0;"/><line style="stroke:#181818;stroke-width:1.0;" x1="499.5" x2="851.5" y1="67.05" y2="67.05"/><text fill="#000000" font-family="NanumGothic" font-size="13" lengthAdjust="spacing" textLength="304" x="506.5" y="62.06">TransactionEventRequest(eventType = Started, ...)</text><polygon fill="#181818" points="505.5,92,495.5,96,505.5,100,501.5,96" style="stroke:#181818;stroke-width:1.0;"/><line style="stroke:#181818;stroke-width:1.0;stroke-dasharray:2.0,2.0;" x1="499.5" x2="861.5" y1="96" y2="96"/><text fill="#000000" font-family="NanumGothic" font-size="13" lengthAdjust="spacing" textLength="183" x="511.5" y="91.01">TransactionEventResponse(...)</text><polygon fill="#181818" points="477.5,120.95,487.5,124.95,477.5,128.95,481.5,124.95" style="stroke:#181818;stroke-width:1.0;"/><line style="stroke:#181818;stroke-width:1.0;" x1="40.5" x2="483.5" y1="124.95" y2="124.95"/><text fill="#000000" font-family="NanumGothic" font-size="13" lengthAdjust="spacing" textLength="430" x="47.5" y="119.96">ChargeParameterDiscoveryReq(EnergyTransferMode, EVChargeParam)</text><polygon fill="#181818" points="845.5,149.9,855.5,153.9,845.5,157.9,849.5,153.9" style="stroke:#181818;stroke-width:1.0;"/><line style="stroke:#181818;stroke-width:1.0;" x1="499.5" x2="851.5" y1="153.9" y2="153.9"/><text fill="#000000" font-family="NanumGothic" font-size="13" lengthAdjust="spacing" textLength="339" x="506.5" y="148.91">NotifyEVChargingNeedsRequest(evseId, chargingNeeds)</text><polygon fill="#181818" points="510.5,178.85,500.5,182.85,510.5,186.85,506.5,182.85" style="stroke:#181818;stroke-width:1.0;"/><line style="stroke:#181818;stroke-width:1.0;stroke-dasharray:2.0,2.0;" x1="504.5" x2="861.5" y1="182.85" y2="182.85"/><text fill="#000000" font-family="NanumGothic" font-size="13" lengthAdjust="spacing" textLength="269" x="516.5" y="177.86">NotifyEVChargingNeedsResponse(Accepted)</text><path d="M10,197.85 L82,197.85 L82,204.8 L72,214.8 L10,214.8 L10,197.85 " fill="#EEEEEE" style="stroke:#000000;stroke-width:1.5;"/><rect fill="none" height="74.85" style="stroke:#000000;stroke-width:1.5;" width="554.5" x="10" y="197.85"/><text fill="#000000" font-family="NanumGothic" font-size="13" font-weight="bold" lengthAdjust="spacing" textLength="27" x="25" y="210.81">loop</text><text fill="#000000" font-family="NanumGothic" font-size="11" font-weight="bold" lengthAdjust="spacing" textLength="180" x="97" y="209.97">[SetChargingProfileRequest &#51204;&#44620;&#51648;]</text><polygon fill="#181818" points="51.5,231.75,41.5,235.75,51.5,239.75,47.5,235.75" style="stroke:#181818;stroke-width:1.0;"/><line style="stroke:#181818;stroke-width:1.0;stroke-dasharray:2.0,2.0;" x1="45.5" x2="493.5" y1="235.75" y2="235.75"/><text fill="#000000" font-family="NanumGothic" font-size="13" lengthAdjust="spacing" textLength="247" x="57.5" y="230.76">ChargeParameterDiscoveryRes(Ongoing)</text><polygon fill="#181818" points="477.5,260.7,487.5,264.7,477.5,268.7,481.5,264.7" style="stroke:#181818;stroke-width:1.0;"/><line style="stroke:#181818;stroke-width:1.0;" x1="40.5" x2="483.5" y1="264.7" y2="264.7"/><text fill="#000000" font-family="NanumGothic" font-size="13" lengthAdjust="spacing" textLength="430" x="47.5" y="259.71">ChargeParameterDiscoveryReq(EnergyTransferMode, EVChargeParam)</text><polygon fill="#181818" points="510.5,296.65,500.5,300.65,510.5,304.65,506.5,300.65" style="stroke:#181818;stroke-width:1.0;"/><line style="stroke:#181818;stroke-width:1.0;" x1="504.5" x2="856.5" y1="300.65" y2="300.65"/><text fill="#000000" font-family="NanumGothic" font-size="13" lengthAdjust="spacing" textLength="310" x="516.5" y="295.66">SetChargingProfileRequest(evseId, chargingProfile)</text><polygon fill="#181818" points="850.5,325.6,860.5,329.6,850.5,333.6,854.5,329.6" style="stroke:#181818;stroke-width:1.0;"/><line style="stroke:#181818;stroke-width:1.0;stroke-dasharray:2.0,2.0;" x1="499.5" x2="856.5" y1="329.6" y2="329.6"/><text fill="#000000" font-family="NanumGothic" font-size="13" lengthAdjust="spacing" textLength="238" x="506.5" y="324.61">SetChargingProfileResponse(Accepted)</text><polygon fill="#181818" points="46.5,354.55,36.5,358.55,46.5,362.55,42.5,358.55" style="stroke:#181818;stroke-width:1.0;"/><line style="stroke:#181818;stroke-width:1.0;stroke-dasharray:2.0,2.0;" x1="40.5" x2="493.5" y1="358.55" y2="358.55"/><text fill="#000000" font-family="NanumGothic" font-size="13" lengthAdjust="spacing" textLength="342" x="52.5" y="353.56">ChargeParameterDiscoveryRes(Finished, SAScheduleList)</text><polygon fill="#181818" points="477.5,383.5,487.5,387.5,477.5,391.5,481.5,387.5" style="stroke:#181818;stroke-width:1.0;"/><line style="stroke:#181818;stroke-width:1.0;" x1="40.5" x2="483.5" y1="387.5" y2="387.5"/><text fill="#000000" font-family="NanumGothic" font-size="13" lengthAdjust="spacing" textLength="398" x="47.5" y="382.51">PowerDeliveryReq(Start, ChargingProfile, EVPowerDeliveryParam)</text><line style="stroke:#181818;stroke-width:1.0;" x1="499.5" x2="541.5" y1="416.45" y2="416.45"/><line style="stroke:#181818;stroke-width:1.0;" x1="541.5" x2="541.5" y1="416.45" y2="429.45"/><line style="stroke:#181818;stroke-width:1.0;" x1="500.5" x2="541.5" y1="429.45" y2="429.45"/><polygon fill="#181818" points="510.5,425.45,500.5,429.45,510.5,433.45,506.5,429.45" style="stroke:#181818;stroke-width:1.0;"/><text fill="#000000" font-family="NanumGothic" font-size="13" lengthAdjust="spacing" textLength="95" x="506.5" y="411.46">Contactor close</text><polygon fill="#181818" points="46.5,454.4,36.5,458.4,46.5,462.4,42.5,458.4" style="stroke:#181818;stroke-width:1.0;"/><line style="stroke:#181818;stroke-width:1.0;stroke-dasharray:2.0,2.0;" x1="40.5" x2="488.5" y1="458.4" y2="458.4"/><text fill="#000000" font-family="NanumGothic" font-size="13" lengthAdjust="spacing" textLength="134" x="52.5" y="453.41">PowerDeliveryRes(OK)</text><path d="M424.5,473.4 L490.5,473.4 L490.5,480.35 L480.5,490.35 L424.5,490.35 L424.5,473.4 " fill="#EEEEEE" style="stroke:#000000;stroke-width:1.5;"/><rect fill="none" height="74.85" style="stroke:#000000;stroke-width:1.5;" width="474.5" x="424.5" y="473.4"/><text fill="#000000" font-family="NanumGothic" font-size="13" font-weight="bold" lengthAdjust="spacing" textLength="21" x="439.5" y="486.36">opt</text><text fill="#000000" font-family="NanumGothic" font-size="11" font-weight="bold" lengthAdjust="spacing" textLength="153" x="505.5" y="485.52">[EV&#44032; &#52649;&#51204; &#49828;&#52992;&#51572;&#51012; &#51228;&#44277;&#54620; &#44221;&#50864;]</text><polygon fill="#181818" points="845.5,507.3,855.5,511.3,845.5,515.3,849.5,511.3" style="stroke:#181818;stroke-width:1.0;"/><line style="stroke:#181818;stroke-width:1.0;" x1="499.5" x2="851.5" y1="511.3" y2="511.3"/><text fill="#000000" font-family="NanumGothic" font-size="13" lengthAdjust="spacing" textLength="233" x="506.5" y="506.31">NotifyEVChargingScheduleRequest(...)</text><polygon fill="#181818" points="505.5,536.25,495.5,540.25,505.5,544.25,501.5,540.25" style="stroke:#181818;stroke-width:1.0;"/><line style="stroke:#181818;stroke-width:1.0;stroke-dasharray:2.0,2.0;" x1="499.5" x2="861.5" y1="540.25" y2="540.25"/><text fill="#000000" font-family="NanumGothic" font-size="13" lengthAdjust="spacing" textLength="286" x="511.5" y="535.26">NotifyEVChargingScheduleResponse(Accepted)</text><polygon fill="#181818" points="845.5,572.2,855.5,576.2,845.5,580.2,849.5,576.2" style="stroke:#181818;stroke-width:1.0;"/><line style="stroke:#181818;stroke-width:1.0;" x1="499.5" x2="851.5" y1="576.2" y2="576.2"/><text fill="#000000" font-family="NanumGothic" font-size="13" lengthAdjust="spacing" textLength="174" x="506.5" y="571.21">TransactionEventRequest(...)</text><polygon fill="#181818" points="510.5,601.15,500.5,605.15,510.5,609.15,506.5,605.15" style="stroke:#181818;stroke-width:1.0;"/><line style="stroke:#181818;stroke-width:1.0;stroke-dasharray:2.0,2.0;" x1="504.5" x2="856.5" y1="605.15" y2="605.15"/><text fill="#000000" font-family="NanumGothic" font-size="13" lengthAdjust="spacing" textLength="183" x="516.5" y="600.16">TransactionEventResponse(...)</text><!--SRC=[lLNDRjD04BxxAOQUOYdD0o21L86H4BH4kCfzjPwaAxcxPdSJv5iEd11NBgX8FO0Gjue_2QbzeSYy0-EDhJYsDmGGN19xPdQ-cU-RMTyIagVp1C7OFCLHDZzFWo1ZsWekCYOj74IJ0s06eics-TuPqpCXPn1RPeMIBgWsLhRMYVWuNaVHGn2qOk7mhdFSXbFDf66yD4OBbFOfFfkZiGCiNqxp3E5E2Qej9aCOZKPXK0OlcCKE_iQnXgHVE2o1jkFwC4scfC61ov-W5w7fSXZH1Fe0d077JBDpjAZl2yFL0dLEpGqYYNgMknAcg8zLWaEYkt6YqI79uAt5J-c9icAQLpafu0GnCHjU3JuaAddJ6UxFdITvHU0HvvYHL66NgbIf36AqzS6nLbEHObKN59SlLjzV5H-M0K2dCoeackoYrGoUo9cY8o4Tto4WUV-DP01UJ9H9JMWFhfUHZbALkwjL3rlhGUZB_MkX_eJz1q8ASrQkQ7mKStgOf_XO6BllDj6W-tPfh9uJ6AQYLiFT1aDeTLOgiXNwrxlKcH0bBMLG6dYg3Fg9QbLCi_aeR3UhCal_gwib5Dy-qkn3yV9TSRqitdyftjBBvSNgyzSVhozWzUccU7FLjnE-RQ_fhyV8tMdDyNGY0-o_ufkCdU7PkMpRpX9slGg_-oduBxV-Jm00]--></g></svg>