<?xml version="1.0" encoding="us-ascii" standalone="no"?><svg xmlns="http://www.w3.org/2000/svg" xmlns:xlink="http://www.w3.org/1999/xlink" contentStyleType="text/css" height="409px" preserveAspectRatio="none" style="width:753px;height:409px;background:#FFFFFF;" version="1.1" viewBox="0 0 753 409" width="753px" zoomAndPan="magnify"><defs/><g><rect fill="#FFFFFF" height="30" style="stroke:#181818;stroke-width:1.0;" width="10" x="36" y="67.05"/><rect fill="#FFFFFF" height="145.8" style="stroke:#181818;stroke-width:1.0;" width="10" x="164" y="67.05"/><rect fill="#FFFFFF" height="28.95" style="stroke:#181818;stroke-width:1.0;" width="10" x="164" y="355.6"/><rect fill="#FFFFFF" height="28.95" style="stroke:#181818;stroke-width:1.0;" width="10" x="506" y="126"/><rect fill="#FFFFFF" height="200.65" style="stroke:#181818;stroke-width:1.0;" width="10" x="506" y="183.9"/><line style="stroke:#181818;stroke-width:0.5;stroke-dasharray:5.0,5.0;" x1="41" x2="41" y1="36.1" y2="402.55"/><line style="stroke:#181818;stroke-width:0.5;stroke-dasharray:5.0,5.0;" x1="168.5" x2="168.5" y1="36.1" y2="402.55"/><line style="stroke:#181818;stroke-width:0.5;stroke-dasharray:5.0,5.0;" x1="511" x2="511" y1="36.1" y2="402.55"/><rect fill="#7D5393" height="30.1" rx="2.5" ry="2.5" style="stroke:#181818;stroke-width:0.5;" width="72" x="5" y="5"/><text fill="#FFFFFF" font-family="NanumGothic" font-size="14" lengthAdjust="spacing" textLength="58" x="12" y="24.88">Operator</text><rect fill="#7D5393" height="30.1" rx="2.5" ry="2.5" style="stroke:#181818;stroke-width:0.5;" width="53" x="142.5" y="5"/><text fill="#FFFFFF" font-family="NanumGothic" font-size="14" lengthAdjust="spacing" textLength="39" x="149.5" y="24.88">CSMS</text><rect fill="#7D5393" height="30.1" rx="2.5" ry="2.5" style="stroke:#181818;stroke-width:0.5;" width="120" x="451" y="5"/><text fill="#FFFFFF" font-family="NanumGothic" font-size="14" lengthAdjust="spacing" textLength="106" x="458" y="24.88">Charging Station</text><rect fill="#FFFFFF" height="30" style="stroke:#181818;stroke-width:1.0;" width="10" x="36" y="67.05"/><rect fill="#FFFFFF" height="145.8" style="stroke:#181818;stroke-width:1.0;" width="10" x="164" y="67.05"/><rect fill="#FFFFFF" height="28.95" style="stroke:#181818;stroke-width:1.0;" width="10" x="164" y="355.6"/><rect fill="#FFFFFF" height="28.95" style="stroke:#181818;stroke-width:1.0;" width="10" x="506" y="126"/><rect fill="#FFFFFF" height="200.65" style="stroke:#181818;stroke-width:1.0;" width="10" x="506" y="183.9"/><polygon fill="#181818" points="152,63.05,162,67.05,152,71.05,156,67.05" style="stroke:#181818;stroke-width:1.0;"/><line style="stroke:#181818;stroke-width:1.0;" x1="46" x2="158" y1="67.05" y2="67.05"/><text fill="#000000" font-family="NanumGothic" font-size="13" lengthAdjust="spacing" textLength="104" x="53" y="62.06">&#45348;&#53944;&#50892;&#53356; &#49444;&#51221; &#48320;&#44221;</text><polygon fill="#181818" points="494,122,504,126,494,130,498,126" style="stroke:#181818;stroke-width:1.0;"/><line style="stroke:#181818;stroke-width:1.0;" x1="174" x2="500" y1="126" y2="126"/><text fill="#000000" font-family="NanumGothic" font-size="13" lengthAdjust="spacing" textLength="313" x="181" y="121.01">SetVariablesRequest(NetworkConfigurationPriority)</text><polygon fill="#181818" points="185,150.95,175,154.95,185,158.95,181,154.95" style="stroke:#181818;stroke-width:1.0;"/><line style="stroke:#181818;stroke-width:1.0;stroke-dasharray:2.0,2.0;" x1="179" x2="510" y1="154.95" y2="154.95"/><text fill="#000000" font-family="NanumGothic" font-size="13" lengthAdjust="spacing" textLength="285" x="191" y="149.96">SetVariablesResponse(status: RebootRequired)</text><polygon fill="#181818" points="494,179.9,504,183.9,494,187.9,498,183.9" style="stroke:#181818;stroke-width:1.0;"/><line style="stroke:#181818;stroke-width:1.0;" x1="174" x2="500" y1="183.9" y2="183.9"/><text fill="#000000" font-family="NanumGothic" font-size="13" lengthAdjust="spacing" textLength="131" x="181" y="178.91">ResetRequest(OnIdle)</text><polygon fill="#181818" points="180,208.85,170,212.85,180,216.85,176,212.85" style="stroke:#181818;stroke-width:1.0;"/><line style="stroke:#181818;stroke-width:1.0;stroke-dasharray:2.0,2.0;" x1="174" x2="505" y1="212.85" y2="212.85"/><text fill="#000000" font-family="NanumGothic" font-size="13" lengthAdjust="spacing" textLength="157" x="186" y="207.86">ResetResponse(Accepted)</text><line style="stroke:#181818;stroke-width:1.0;" x1="516" x2="558" y1="241.8" y2="241.8"/><line style="stroke:#181818;stroke-width:1.0;" x1="558" x2="558" y1="241.8" y2="254.8"/><line style="stroke:#181818;stroke-width:1.0;" x1="517" x2="558" y1="254.8" y2="254.8"/><polygon fill="#181818" points="527,250.8,517,254.8,527,258.8,523,254.8" style="stroke:#181818;stroke-width:1.0;"/><text fill="#000000" font-family="NanumGothic" font-size="13" lengthAdjust="spacing" textLength="44" x="523" y="236.81">Reboot</text><line style="stroke:#181818;stroke-width:1.0;" x1="516" x2="558" y1="313.65" y2="313.65"/><line style="stroke:#181818;stroke-width:1.0;" x1="558" x2="558" y1="313.65" y2="326.65"/><line style="stroke:#181818;stroke-width:1.0;" x1="517" x2="558" y1="326.65" y2="326.65"/><polygon fill="#181818" points="527,322.65,517,326.65,527,330.65,523,326.65" style="stroke:#181818;stroke-width:1.0;"/><text fill="#000000" font-family="NanumGothic" font-size="13" lengthAdjust="spacing" textLength="184" x="523" y="278.76">&#45908; &#44053;&#54868;&#46108; &#48372;&#50504; &#54532;&#47196;&#54028;&#51068;&#51012; &#54252;&#54632;&#54620;</text><text fill="#000000" font-family="NanumGothic" font-size="13" lengthAdjust="spacing" textLength="211" x="531" y="293.71">(&#49888;&#44508;) NetworkConnectionProfile&#51012;</text><text fill="#000000" font-family="NanumGothic" font-size="13" lengthAdjust="spacing" textLength="76" x="531" y="308.66">&#51060;&#50857;&#54616;&#50668; &#50672;&#44208;</text><polygon fill="#181818" points="185,351.6,175,355.6,185,359.6,181,355.6" style="stroke:#181818;stroke-width:1.0;"/><line style="stroke:#181818;stroke-width:1.0;" x1="179" x2="505" y1="355.6" y2="355.6"/><text fill="#000000" font-family="NanumGothic" font-size="13" lengthAdjust="spacing" textLength="170" x="191" y="350.61">BootNotificationRequest(...)</text><polygon fill="#181818" points="499,380.55,509,384.55,499,388.55,503,384.55" style="stroke:#181818;stroke-width:1.0;"/><line style="stroke:#181818;stroke-width:1.0;stroke-dasharray:2.0,2.0;" x1="169" x2="505" y1="384.55" y2="384.55"/><text fill="#000000" font-family="NanumGothic" font-size="13" lengthAdjust="spacing" textLength="179" x="176" y="379.56">BootNotificationResponse(...)</text><!--SRC=[dLAzJiCm4Dxp50TJEz07w804dHZu4PMOM4nwBHR13eu3wWPI1mH5C3GgFwrK90QG62f0WW5UgB7VWSHDeKqAGcpstUVlvyupbDcENq7mPDt1WkllEfRb4Y6fJLt29CokkYY8v68MY0UZooIaL5ukctPyIBMsYQXHLeEo999oDeGbnQHcMIDQc9it74K86tVwv4tTDFNH8wZ6dUe543uV3fu-B69BkayaVflvgXXzgu9PY1Mt3FsaTX7AA3U8e6JBGMyTztpqP6u5vG4NEoNEghJc2uDS4vGBAklvCRbqZbG1vhxoJAfuBcSUvhm8vdj5MCSjpcKiJWLMykC1iX8_vOXOKOu2hBAbYeF_iveG9HuNR1jTcNPbvfoXcEegZlOtB41ure91Fz1NhV2Y4-txHGN7e5kDyBQZcqtLVLVT1kZpHntSww03cmmWfqvxWzTE7hvtnj0UBenNgOFnanYekY_g-a47bweT_QXsV_3KdsxB364nSht29QrIstH6WoqK2ldqVnkkP5gYB4ioLKEJcUWlU_y4]--></g></svg>