<?xml version="1.0" encoding="us-ascii" standalone="no"?><svg xmlns="http://www.w3.org/2000/svg" xmlns:xlink="http://www.w3.org/1999/xlink" contentStyleType="text/css" height="758px" preserveAspectRatio="none" style="width:893px;height:758px;background:#FFFFFF;" version="1.1" viewBox="0 0 893 758" width="893px" zoomAndPan="magnify"><defs/><g><rect fill="#FFFFFF" height="43.9" style="stroke:#181818;stroke-width:1.0;" width="10" x="108" y="131.05"/><rect fill="#FFFFFF" height="43.9" style="stroke:#181818;stroke-width:1.0;" width="10" x="281" y="131.05"/><rect fill="#FFFFFF" height="28.95" style="stroke:#181818;stroke-width:1.0;" width="10" x="281" y="258.8"/><rect fill="#FFFFFF" height="28.95" style="stroke:#181818;stroke-width:1.0;" width="10" x="281" y="331.35"/><rect fill="#FFFFFF" height="339.5" style="stroke:#181818;stroke-width:1.0;" width="10" x="281" y="403.25"/><rect fill="#FFFFFF" height="28.95" style="stroke:#181818;stroke-width:1.0;" width="10" x="826" y="258.8"/><rect fill="#FFFFFF" height="28.95" style="stroke:#181818;stroke-width:1.0;" width="10" x="826" y="331.35"/><rect fill="#FFFFFF" height="28.95" style="stroke:#181818;stroke-width:1.0;" width="10" x="826" y="601.95"/><rect fill="#FFFFFF" height="51.95" style="stroke:#181818;stroke-width:1.0;" width="10" x="826" y="690.8"/><rect fill="none" height="665.55" style="stroke:#000000;stroke-width:1.5;" width="877.5" x="10" y="69.2"/><rect fill="none" height="89.8" style="stroke:#000000;stroke-width:1.5;" width="336" x="20" y="93.15"/><rect fill="none" height="178.35" style="stroke:#000000;stroke-width:1.5;" width="671.5" x="206" y="196.95"/><rect fill="none" height="147.4" style="stroke:#000000;stroke-width:1.5;" width="651.5" x="216" y="220.9"/><rect fill="none" height="131.8" style="stroke:#000000;stroke-width:1.5;" width="350" x="206" y="418.25"/><rect fill="none" height="58.9" style="stroke:#000000;stroke-width:1.5;" width="214" x="216" y="442.2"/><rect fill="none" height="74.85" style="stroke:#000000;stroke-width:1.5;" width="651.5" x="216" y="564.05"/><rect fill="none" height="74.85" style="stroke:#000000;stroke-width:1.5;" width="651.5" x="216" y="652.9"/><line style="stroke:#181818;stroke-width:0.5;stroke-dasharray:5.0,5.0;" x1="113" x2="113" y1="52.2" y2="751.75"/><line style="stroke:#181818;stroke-width:0.5;stroke-dasharray:5.0,5.0;" x1="286" x2="286" y1="52.2" y2="751.75"/><line style="stroke:#181818;stroke-width:0.5;stroke-dasharray:5.0,5.0;" x1="830.5" x2="830.5" y1="52.2" y2="751.75"/><rect fill="#7D5393" height="46.2" rx="2.5" ry="2.5" style="stroke:#181818;stroke-width:0.5;" width="166" x="30" y="5"/><text fill="#FFFFFF" font-family="NanumGothic" font-size="14" lengthAdjust="spacing" textLength="152" x="37" y="24.88">External Control System</text><text fill="#FFFFFF" font-family="NanumGothic" font-size="14" lengthAdjust="spacing" textLength="98" x="64" y="40.98">(example DSO)</text><rect fill="#7D5393" height="30.1" rx="2.5" ry="2.5" style="stroke:#181818;stroke-width:0.5;" width="120" x="226" y="21.1"/><text fill="#FFFFFF" font-family="NanumGothic" font-size="14" lengthAdjust="spacing" textLength="106" x="233" y="40.98">Charging Station</text><rect fill="#7D5393" height="30.1" rx="2.5" ry="2.5" style="stroke:#181818;stroke-width:0.5;" width="53" x="804.5" y="21.1"/><text fill="#FFFFFF" font-family="NanumGothic" font-size="14" lengthAdjust="spacing" textLength="39" x="811.5" y="40.98">CSMS</text><rect fill="#FFFFFF" height="43.9" style="stroke:#181818;stroke-width:1.0;" width="10" x="108" y="131.05"/><rect fill="#FFFFFF" height="43.9" style="stroke:#181818;stroke-width:1.0;" width="10" x="281" y="131.05"/><rect fill="#FFFFFF" height="28.95" style="stroke:#181818;stroke-width:1.0;" width="10" x="281" y="258.8"/><rect fill="#FFFFFF" height="28.95" style="stroke:#181818;stroke-width:1.0;" width="10" x="281" y="331.35"/><rect fill="#FFFFFF" height="339.5" style="stroke:#181818;stroke-width:1.0;" width="10" x="281" y="403.25"/><rect fill="#FFFFFF" height="28.95" style="stroke:#181818;stroke-width:1.0;" width="10" x="826" y="258.8"/><rect fill="#FFFFFF" height="28.95" style="stroke:#181818;stroke-width:1.0;" width="10" x="826" y="331.35"/><rect fill="#FFFFFF" height="28.95" style="stroke:#181818;stroke-width:1.0;" width="10" x="826" y="601.95"/><rect fill="#FFFFFF" height="51.95" style="stroke:#181818;stroke-width:1.0;" width="10" x="826" y="690.8"/><path d="M10,69.2 L82,69.2 L82,76.15 L72,86.15 L10,86.15 L10,69.2 " fill="#EEEEEE" style="stroke:#000000;stroke-width:1.5;"/><rect fill="none" height="665.55" style="stroke:#000000;stroke-width:1.5;" width="877.5" x="10" y="69.2"/><text fill="#000000" font-family="NanumGothic" font-size="13" font-weight="bold" lengthAdjust="spacing" textLength="27" x="25" y="82.16">loop</text><path d="M20,93.15 L86,93.15 L86,100.1 L76,110.1 L20,110.1 L20,93.15 " fill="#EEEEEE" style="stroke:#000000;stroke-width:1.5;"/><rect fill="none" height="89.8" style="stroke:#000000;stroke-width:1.5;" width="336" x="20" y="93.15"/><text fill="#000000" font-family="NanumGothic" font-size="13" font-weight="bold" lengthAdjust="spacing" textLength="21" x="35" y="106.11">opt</text><text fill="#000000" font-family="NanumGothic" font-size="11" font-weight="bold" lengthAdjust="spacing" textLength="74" x="101" y="105.27">[&#52649;&#51204; &#44284;&#51221; &#46041;&#50504;]</text><polygon fill="#181818" points="129,127.05,119,131.05,129,135.05,125,131.05" style="stroke:#181818;stroke-width:1.0;"/><line style="stroke:#181818;stroke-width:1.0;" x1="123" x2="280" y1="131.05" y2="131.05"/><text fill="#000000" font-family="NanumGothic" font-size="13" lengthAdjust="spacing" textLength="52" x="135" y="126.06">I/U value</text><polygon fill="#181818" points="124,170.95,114,174.95,124,178.95,120,174.95" style="stroke:#181818;stroke-width:1.0;"/><line style="stroke:#181818;stroke-width:1.0;" x1="118" x2="285" y1="174.95" y2="174.95"/><text fill="#000000" font-family="NanumGothic" font-size="13" lengthAdjust="spacing" textLength="76" x="130" y="155.01">&#47924;&#54952;&#51204;&#47141; &#44228;&#49688;</text><text fill="#000000" font-family="NanumGothic" font-size="13" lengthAdjust="spacing" textLength="139" x="130" y="169.96">(reactive power factor)</text><path d="M206,196.95 L272,196.95 L272,203.9 L262,213.9 L206,213.9 L206,196.95 " fill="#EEEEEE" style="stroke:#000000;stroke-width:1.5;"/><rect fill="none" height="178.35" style="stroke:#000000;stroke-width:1.5;" width="671.5" x="206" y="196.95"/><text fill="#000000" font-family="NanumGothic" font-size="13" font-weight="bold" lengthAdjust="spacing" textLength="21" x="221" y="209.91">opt</text><text fill="#000000" font-family="NanumGothic" font-size="11" font-weight="bold" lengthAdjust="spacing" textLength="149" x="287" y="209.07">[MeterValues&#44032; &#54876;&#49457;&#54868;&#46108; &#44221;&#50864;]</text><path d="M216,220.9 L276,220.9 L276,227.85 L266,237.85 L216,237.85 L216,220.9 " fill="#EEEEEE" style="stroke:#000000;stroke-width:1.5;"/><rect fill="none" height="147.4" style="stroke:#000000;stroke-width:1.5;" width="651.5" x="216" y="220.9"/><text fill="#000000" font-family="NanumGothic" font-size="13" font-weight="bold" lengthAdjust="spacing" textLength="15" x="231" y="233.86">alt</text><text fill="#000000" font-family="NanumGothic" font-size="11" font-weight="bold" lengthAdjust="spacing" textLength="114" x="291" y="233.02">[&#51652;&#54665;&#51473;&#51064; &#53944;&#47004;&#51117;&#49496; &#50630;&#51020;]</text><polygon fill="#181818" points="814,254.8,824,258.8,814,262.8,818,258.8" style="stroke:#181818;stroke-width:1.0;"/><line style="stroke:#181818;stroke-width:1.0;" x1="291" x2="820" y1="258.8" y2="258.8"/><text fill="#000000" font-family="NanumGothic" font-size="13" lengthAdjust="spacing" textLength="251" x="298" y="253.81">MeterValuesRequest(evseId, meterValue)</text><polygon fill="#181818" points="297,283.75,287,287.75,297,291.75,293,287.75" style="stroke:#181818;stroke-width:1.0;"/><line style="stroke:#181818;stroke-width:1.0;stroke-dasharray:2.0,2.0;" x1="291" x2="830" y1="287.75" y2="287.75"/><text fill="#000000" font-family="NanumGothic" font-size="13" lengthAdjust="spacing" textLength="145" x="303" y="282.76">MeterValuesResponse()</text><line style="stroke:#000000;stroke-width:1.0;stroke-dasharray:2.0,2.0;" x1="216" x2="867.5" y1="296.75" y2="296.75"/><text fill="#000000" font-family="NanumGothic" font-size="11" font-weight="bold" lengthAdjust="spacing" textLength="81" x="221" y="306.87">[&#53944;&#47004;&#51117;&#49496; &#51652;&#54665;&#51473;]</text><polygon fill="#181818" points="814,327.35,824,331.35,814,335.35,818,331.35" style="stroke:#181818;stroke-width:1.0;"/><line style="stroke:#181818;stroke-width:1.0;" x1="291" x2="820" y1="331.35" y2="331.35"/><text fill="#000000" font-family="NanumGothic" font-size="13" lengthAdjust="spacing" textLength="312" x="298" y="326.36">TransactionEventRequest(eventType = Updated, ...)</text><polygon fill="#181818" points="297,356.3,287,360.3,297,364.3,293,360.3" style="stroke:#181818;stroke-width:1.0;"/><line style="stroke:#181818;stroke-width:1.0;stroke-dasharray:2.0,2.0;" x1="291" x2="830" y1="360.3" y2="360.3"/><text fill="#000000" font-family="NanumGothic" font-size="13" lengthAdjust="spacing" textLength="183" x="303" y="355.31">TransactionEventResponse(...)</text><polygon fill="#181818" points="269,399.25,279,403.25,269,407.25,273,403.25" style="stroke:#181818;stroke-width:1.0;"/><line style="stroke:#181818;stroke-width:1.0;" x1="113" x2="275" y1="403.25" y2="403.25"/><text fill="#000000" font-family="NanumGothic" font-size="13" lengthAdjust="spacing" textLength="92" x="120" y="398.26">&#44536;&#47532;&#46300; &#51228;&#54620; &#49444;&#51221;</text><path d="M206,418.25 L272,418.25 L272,425.2 L262,435.2 L206,435.2 L206,418.25 " fill="#EEEEEE" style="stroke:#000000;stroke-width:1.5;"/><rect fill="none" height="131.8" style="stroke:#000000;stroke-width:1.5;" width="350" x="206" y="418.25"/><text fill="#000000" font-family="NanumGothic" font-size="13" font-weight="bold" lengthAdjust="spacing" textLength="21" x="221" y="431.21">opt</text><text fill="#000000" font-family="NanumGothic" font-size="11" font-weight="bold" lengthAdjust="spacing" textLength="124" x="287" y="430.37">[&#53944;&#47004;&#51117;&#49496;&#51060; &#51652;&#54665;&#51473;&#51064; &#44221;&#50864;]</text><path d="M216,442.2 L282,442.2 L282,449.15 L272,459.15 L216,459.15 L216,442.2 " fill="#EEEEEE" style="stroke:#000000;stroke-width:1.5;"/><rect fill="none" height="58.9" style="stroke:#000000;stroke-width:1.5;" width="214" x="216" y="442.2"/><text fill="#000000" font-family="NanumGothic" font-size="13" font-weight="bold" lengthAdjust="spacing" textLength="21" x="231" y="455.16">opt</text><line style="stroke:#181818;stroke-width:1.0;" x1="291" x2="333" y1="480.1" y2="480.1"/><line style="stroke:#181818;stroke-width:1.0;" x1="333" x2="333" y1="480.1" y2="493.1"/><line style="stroke:#181818;stroke-width:1.0;" x1="292" x2="333" y1="493.1" y2="493.1"/><polygon fill="#181818" points="302,489.1,292,493.1,302,497.1,298,493.1" style="stroke:#181818;stroke-width:1.0;"/><text fill="#000000" font-family="NanumGothic" font-size="13" lengthAdjust="spacing" textLength="120" x="298" y="475.11">&#52649;&#51204; &#49828;&#52992;&#51572; &#45796;&#49884; &#44228;&#49328;</text><line style="stroke:#181818;stroke-width:1.0;" x1="291" x2="333" y1="529.05" y2="529.05"/><line style="stroke:#181818;stroke-width:1.0;" x1="333" x2="333" y1="529.05" y2="542.05"/><line style="stroke:#181818;stroke-width:1.0;" x1="292" x2="333" y1="542.05" y2="542.05"/><polygon fill="#181818" points="302,538.05,292,542.05,302,546.05,298,542.05" style="stroke:#181818;stroke-width:1.0;"/><text fill="#000000" font-family="NanumGothic" font-size="13" lengthAdjust="spacing" textLength="246" x="298" y="524.06">&#52649;&#51204; &#51228;&#54620; &#49444;&#51221;(&#50508;&#47140;&#51652; &#47784;&#46304; &#51228;&#54620;&#47049;&#51032; &#52572;&#49567;&#44050;)</text><path d="M216,564.05 L282,564.05 L282,571 L272,581 L216,581 L216,564.05 " fill="#EEEEEE" style="stroke:#000000;stroke-width:1.5;"/><rect fill="none" height="74.85" style="stroke:#000000;stroke-width:1.5;" width="651.5" x="216" y="564.05"/><text fill="#000000" font-family="NanumGothic" font-size="13" font-weight="bold" lengthAdjust="spacing" textLength="21" x="231" y="577.01">opt</text><text fill="#000000" font-family="NanumGothic" font-size="11" font-weight="bold" lengthAdjust="spacing" textLength="300" x="297" y="576.17">[&#52649;&#51204;&#47049; &#51228;&#54620;&#51060; LimitChangeSignificance&#48372;&#45796; &#47566;&#51060; &#48320;&#44221;&#46108; &#44221;&#50864;]</text><polygon fill="#181818" points="814,597.95,824,601.95,814,605.95,818,601.95" style="stroke:#181818;stroke-width:1.0;"/><line style="stroke:#181818;stroke-width:1.0;" x1="291" x2="820" y1="601.95" y2="601.95"/><text fill="#000000" font-family="NanumGothic" font-size="13" lengthAdjust="spacing" textLength="422" x="298" y="596.96">NotifyChargingLimitRequest(evseId, chargingSchedule, chargingLimit)</text><polygon fill="#181818" points="302,626.9,292,630.9,302,634.9,298,630.9" style="stroke:#181818;stroke-width:1.0;"/><line style="stroke:#181818;stroke-width:1.0;stroke-dasharray:2.0,2.0;" x1="296" x2="830" y1="630.9" y2="630.9"/><text fill="#000000" font-family="NanumGothic" font-size="13" lengthAdjust="spacing" textLength="189" x="308" y="625.91">NotifyChargingLimitResponse()</text><path d="M216,652.9 L282,652.9 L282,659.85 L272,669.85 L216,669.85 L216,652.9 " fill="#EEEEEE" style="stroke:#000000;stroke-width:1.5;"/><rect fill="none" height="74.85" style="stroke:#000000;stroke-width:1.5;" width="651.5" x="216" y="652.9"/><text fill="#000000" font-family="NanumGothic" font-size="13" font-weight="bold" lengthAdjust="spacing" textLength="21" x="231" y="665.86">opt</text><text fill="#000000" font-family="NanumGothic" font-size="11" font-weight="bold" lengthAdjust="spacing" textLength="300" x="297" y="665.02">[&#52649;&#51204;&#47049; &#51228;&#54620;&#51060; LimitChangeSignificance&#48372;&#45796; &#47566;&#51060; &#48320;&#44221;&#46108; &#44221;&#50864;]</text><polygon fill="#181818" points="814,686.8,824,690.8,814,694.8,818,690.8" style="stroke:#181818;stroke-width:1.0;"/><line style="stroke:#181818;stroke-width:1.0;" x1="291" x2="820" y1="690.8" y2="690.8"/><text fill="#000000" font-family="NanumGothic" font-size="13" lengthAdjust="spacing" textLength="516" x="298" y="685.81">TransactionEventRequest(eventType = Updated, trigger = ChargingRateChanged, ...)</text><polygon fill="#181818" points="302,715.75,292,719.75,302,723.75,298,719.75" style="stroke:#181818;stroke-width:1.0;"/><line style="stroke:#181818;stroke-width:1.0;stroke-dasharray:2.0,2.0;" x1="296" x2="825" y1="719.75" y2="719.75"/><text fill="#000000" font-family="NanumGothic" font-size="13" lengthAdjust="spacing" textLength="183" x="308" y="714.76">TransactionEventResponse(...)</text><!--SRC=[lLJBJjjG4DtxAwQi4gcaUoIweIoGIYjXwAeRond2bPnhrxv9oGvLAUAblcXQG0va4Ggjg9IMj6L1VoZtvXywVWHiGuAer4PAOi_CdNFc-8plC6vQbIA29seM5fnAsT8qnt05CvbZS05Zqyi2NMvOC6LpuTeMw3LFOFafp-6oKNOiX0Vwu_mO61vCJ-dfirDBXbjYl0IwC0IpULWr2CQnp0bzLe-gw4BJBDjsD03R4Q1-VbQjElHEprMh0VBrhcgiKGgo_M3yVa1a0cRkBK3Li2eOLXccO5L3O4Wo5SZo6Taq-iYJRd_lcEZ8rY4nggkrdIX1ghWOTaPmxEVemYBTsMu-R5h4AomIeImF0EH5BPv-5kafF0ccyNgT5UZl-gh-hR_xNhxneVVzjzhhH4DP9DHHlVzXNRNVgkOPz3VEvBwlzh-gbpkWFgwgvfOMKRrcma3pYIJK73wZNv73geSpnRjGlaZbuouZsAVJuUECaUaQnWEyz9aCjEVOtCFS06caKjc202s8eULXHeE1EZV9CEyQt0iwsdowYbnSQa4typK7OH8Md2B1aJ25Gk7VA7ALHInB0l7lb25lNJYCt0ZNeVT-dSbF9tBR1zNo-mtwgxTf-xJHsnFuDQcvQdRJfamObcf7F8Wid_WTe3RQwdn57NP1RhRLfX-ku8lEO2uOki936oQdowd6bcorYJ78ByToknMdvS6wQfA1VlXgzQ3NUPTFRsZKYehYyc3gXwpC187o4kginDaYCmrkeZpj4d6GHw-28dcwGe9a5dceBH_PWYtM1kaG8Bkbvk2ikOJ5YeMNaR0yhmtnuN0NNWkQsi-h5ll_qjngOuNBIYLwFqzUz9kZH4GekT2tqkccRGqq2Rv_0000]--></g></svg>