<?xml version="1.0" encoding="us-ascii" standalone="no"?><svg xmlns="http://www.w3.org/2000/svg" xmlns:xlink="http://www.w3.org/1999/xlink" contentStyleType="text/css" height="788px" preserveAspectRatio="none" style="width:1409px;height:788px;background:#FFFFFF;" version="1.1" viewBox="0 0 1409 788" width="1409px" zoomAndPan="magnify"><defs/><g><ellipse cx="242.06" cy="16" fill="#222222" rx="10" ry="10" style="stroke:#222222;stroke-width:1.0;"/><g id="Idle"><rect fill="#7D5393" height="50" rx="12.5" ry="12.5" style="stroke:#000000;stroke-width:0.5;" width="50" x="217.06" y="102"/><line style="stroke:#000000;stroke-width:0.5;" x1="217.06" x2="267.06" y1="128.1" y2="128.1"/><text fill="#FFFFFF" font-family="NanumGothic" font-size="14" lengthAdjust="spacing" textLength="22" x="231.06" y="119.88">Idle</text></g><g id="DownloadScheduled"><rect fill="#7D5393" height="50" rx="12.5" ry="12.5" style="stroke:#000000;stroke-width:0.5;" width="151" x="266.56" y="228"/><line style="stroke:#000000;stroke-width:0.5;" x1="266.56" x2="417.56" y1="254.1" y2="254.1"/><text fill="#FFFFFF" font-family="NanumGothic" font-size="14" lengthAdjust="spacing" textLength="131" x="276.56" y="245.88">DownloadScheduled</text></g><g id="Downloading"><rect fill="#7D5393" height="50" rx="12.5" ry="12.5" style="stroke:#000000;stroke-width:0.5;" width="104" x="488.06" y="102"/><line style="stroke:#000000;stroke-width:0.5;" x1="488.06" x2="592.06" y1="128.1" y2="128.1"/><text fill="#FFFFFF" font-family="NanumGothic" font-size="14" lengthAdjust="spacing" textLength="84" x="498.06" y="119.88">Downloading</text></g><g id="DownloadPaused"><rect fill="#7D5393" height="50" rx="12.5" ry="12.5" style="stroke:#000000;stroke-width:0.5;" width="131" x="928.56" y="102"/><line style="stroke:#000000;stroke-width:0.5;" x1="928.56" x2="1059.56" y1="128.1" y2="128.1"/><text fill="#FFFFFF" font-family="NanumGothic" font-size="14" lengthAdjust="spacing" textLength="111" x="938.56" y="119.88">DownloadPaused</text></g><g id="DownloadFailed"><rect fill="#7D5393" height="50" rx="12.5" ry="12.5" style="stroke:#000000;stroke-width:0.5;" width="122" x="772.06" y="102"/><line style="stroke:#000000;stroke-width:0.5;" x1="772.06" x2="894.06" y1="128.1" y2="128.1"/><text fill="#FFFFFF" font-family="NanumGothic" font-size="14" lengthAdjust="spacing" textLength="102" x="782.06" y="119.88">DownloadFailed</text></g><g id="Downloaded"><rect fill="#7D5393" height="50" rx="12.5" ry="12.5" style="stroke:#000000;stroke-width:0.5;" width="101" x="564.56" y="228"/><line style="stroke:#000000;stroke-width:0.5;" x1="564.56" x2="665.56" y1="254.1" y2="254.1"/><text fill="#FFFFFF" font-family="NanumGothic" font-size="14" lengthAdjust="spacing" textLength="81" x="574.56" y="245.88">Downloaded</text></g><g id="InvalidSignature"><rect fill="#7D5393" height="50" rx="12.5" ry="12.5" style="stroke:#000000;stroke-width:0.5;" width="121" x="846.56" y="228"/><line style="stroke:#000000;stroke-width:0.5;" x1="846.56" x2="967.56" y1="254.1" y2="254.1"/><text fill="#FFFFFF" font-family="NanumGothic" font-size="14" lengthAdjust="spacing" textLength="101" x="856.56" y="245.88">InvalidSignature</text></g><g id="SignatureVerified"><rect fill="#7D5393" height="50" rx="12.5" ry="12.5" style="stroke:#000000;stroke-width:0.5;" width="130" x="550.06" y="354"/><line style="stroke:#000000;stroke-width:0.5;" x1="550.06" x2="680.06" y1="380.1" y2="380.1"/><text fill="#FFFFFF" font-family="NanumGothic" font-size="14" lengthAdjust="spacing" textLength="110" x="560.06" y="371.88">SignatureVerified</text></g><g id="InstallScheduled"><rect fill="#7D5393" height="50" rx="12.5" ry="12.5" style="stroke:#000000;stroke-width:0.5;" width="122" x="850.06" y="354"/><line style="stroke:#000000;stroke-width:0.5;" x1="850.06" x2="972.06" y1="380.1" y2="380.1"/><text fill="#FFFFFF" font-family="NanumGothic" font-size="14" lengthAdjust="spacing" textLength="102" x="860.06" y="371.88">InstallScheduled</text></g><g id="InstallRebooting_1"><rect fill="#7D5393" height="50" rx="12.5" ry="12.5" style="stroke:#000000;stroke-width:0.5;" width="137" x="1006.56" y="354"/><line style="stroke:#000000;stroke-width:0.5;" x1="1006.56" x2="1143.56" y1="380.1" y2="380.1"/><text fill="#FFFFFF" font-family="NanumGothic" font-size="14" lengthAdjust="spacing" textLength="117" x="1016.56" y="371.88">InstallRebooting_1</text></g><g id="Installing"><rect fill="#7D5393" height="50" rx="12.5" ry="12.5" style="stroke:#000000;stroke-width:0.5;" width="75" x="873.56" y="480"/><line style="stroke:#000000;stroke-width:0.5;" x1="873.56" x2="948.56" y1="506.1" y2="506.1"/><text fill="#FFFFFF" font-family="NanumGothic" font-size="14" lengthAdjust="spacing" textLength="55" x="883.56" y="497.88">Installing</text></g><g id="InstallVerificationFailed"><rect fill="#7D5393" height="50" rx="12.5" ry="12.5" style="stroke:#000000;stroke-width:0.5;" width="165" x="1077.56" y="480"/><line style="stroke:#000000;stroke-width:0.5;" x1="1077.56" x2="1242.56" y1="506.1" y2="506.1"/><text fill="#FFFFFF" font-family="NanumGothic" font-size="14" lengthAdjust="spacing" textLength="145" x="1087.56" y="497.88">InstallVerificationFailed</text></g><g id="InstallationFailed"><rect fill="#7D5393" height="50" rx="12.5" ry="12.5" style="stroke:#000000;stroke-width:0.5;" width="125" x="1277.56" y="480"/><line style="stroke:#000000;stroke-width:0.5;" x1="1277.56" x2="1402.56" y1="506.1" y2="506.1"/><text fill="#FFFFFF" font-family="NanumGothic" font-size="14" lengthAdjust="spacing" textLength="105" x="1287.56" y="497.88">InstallationFailed</text></g><g id="InstallRebooting_2"><rect fill="#7D5393" height="50" rx="12.5" ry="12.5" style="stroke:#000000;stroke-width:0.5;" width="137" x="1000.56" y="606"/><line style="stroke:#000000;stroke-width:0.5;" x1="1000.56" x2="1137.56" y1="632.1" y2="632.1"/><text fill="#FFFFFF" font-family="NanumGothic" font-size="14" lengthAdjust="spacing" textLength="117" x="1010.56" y="623.88">InstallRebooting_2</text></g><g id="Installed"><rect fill="#7D5393" height="50" rx="12.5" ry="12.5" style="stroke:#000000;stroke-width:0.5;" width="72" x="904.06" y="732"/><line style="stroke:#000000;stroke-width:0.5;" x1="904.06" x2="976.06" y1="758.1" y2="758.1"/><text fill="#FFFFFF" font-family="NanumGothic" font-size="14" lengthAdjust="spacing" textLength="52" x="914.06" y="749.88">Installed</text></g><!--link *start* to Idle--><g id="link_*start*_Idle"><path d="M242.06,26.29 C242.06,42.87 242.06,72.03 242.06,95.85 " fill="none" id="*start*-to-Idle" style="stroke:#181818;stroke-width:1.0;"/><polygon fill="#181818" points="242.06,101.85,246.06,92.85,242.06,96.85,238.06,92.85,242.06,101.85" style="stroke:#181818;stroke-width:1.0;"/></g><!--link Idle to DownloadScheduled--><g id="link_Idle_DownloadScheduled"><path d="M216.95,128.63 C155.54,131.03 6,142.57 52.06,198 C78.81,230.2 183.6941,242.8891 260.3241,248.1491 " fill="none" id="Idle-to-DownloadScheduled" style="stroke:#181818;stroke-width:1.0;"/><polygon fill="#181818" points="266.31,248.56,257.605,243.9531,261.3217,248.2176,257.0572,251.9343,266.31,248.56" style="stroke:#181818;stroke-width:1.0;"/><text fill="#000000" font-family="NanumGothic" font-size="13" lengthAdjust="spacing" textLength="133" x="53.06" y="194.96">&#49688;&#49888; &#45216;&#51676;/&#49884;&#44033;&#51060; &#48120;&#47000;&#51076;</text></g><!--link Idle to Downloading--><g id="link_Idle_Downloading"><path d="M267.37,127 C340.78,127 408.19,127 481.6,127 " fill="none" id="Idle-to-Downloading" style="stroke:#181818;stroke-width:1.0;"/><polygon fill="#181818" points="487.6,127,478.6,123,482.6,127,478.6,131,487.6,127" style="stroke:#181818;stroke-width:1.0;"/></g><!--link DownloadScheduled to Downloading--><!--link Downloading to DownloadScheduled--><g id="link_Downloading_DownloadScheduled"><path d="M487.79,129.06 C406.67,131.94 256.32,142.59 223.06,182 C203.58,205.08 226.4231,220.4576 260.4131,232.0876 " fill="none" id="Downloading-to-DownloadScheduled" style="stroke:#181818;stroke-width:1.0;"/><polygon fill="#181818" points="266.09,234.03,258.8696,227.3318,261.3593,232.4113,256.2797,234.901,266.09,234.03" style="stroke:#181818;stroke-width:1.0;"/><text fill="#000000" font-family="NanumGothic" font-size="13" lengthAdjust="spacing" textLength="268" x="224.06" y="194.96">&#54156;&#50920;&#50612; &#45796;&#50868;&#47196;&#46300; &#49892;&#54056;&#54616;&#50668; retryInterval&#47564;&#53372; &#45824;&#44592;</text></g><!--link DownloadScheduled to Downloading--><g id="link_DownloadScheduled_Downloading"><path d="M417.83,242.38 C452,234.76 490.57,221.33 518.56,198 C532.87,186.06 541.4266,173.2588 545.2066,158.2288 " fill="none" id="DownloadScheduled-to-Downloading-1" style="stroke:#181818;stroke-width:1.0;"/><polygon fill="#181818" points="546.67,152.41,540.5957,160.1626,545.4505,157.259,548.3541,162.1138,546.67,152.41" style="stroke:#181818;stroke-width:1.0;"/></g><!--link Downloading to DownloadPaused--><g id="link_Downloading_DownloadPaused"><path d="M592.44,102.96 C625.19,89.28 668.68,73.51 709.06,66.5 C753.72,58.75 766.3,59.29 811.06,66.5 C853.01,73.26 892.772,86.0668 927.842,99.4068 " fill="none" id="Downloading-to-DownloadPaused" style="stroke:#181818;stroke-width:1.0;"/><polygon fill="#181818" points="933.45,101.54,926.4601,94.6016,928.7767,99.7624,923.6159,102.0789,933.45,101.54" style="stroke:#181818;stroke-width:1.0;"/><text fill="#000000" font-family="NanumGothic" font-size="13" lengthAdjust="spacing" textLength="100" x="710.06" y="68.96">&#51068;&#49884;&#51201;&#51004;&#47196; &#51473;&#45800;&#46120;</text></g><!--link DownloadPaused to Downloading--><g id="link_DownloadPaused_Downloading"><path d="M963.68,101.61 C944.8,87.53 919.28,71.4 893.56,64 C788.71,33.86 667.569,72.0777 597.889,100.7377 " fill="none" id="DownloadPaused-to-Downloading" style="stroke:#181818;stroke-width:1.0;"/><polygon fill="#181818" points="592.34,103.02,602.185,103.2958,596.9641,101.1181,599.1419,95.8972,592.34,103.02" style="stroke:#181818;stroke-width:1.0;"/></g><!--link Downloading to DownloadFailed--><g id="link_Downloading_DownloadFailed"><path d="M592.44,127 C642.73,127 712.67,127 765.75,127 " fill="none" id="Downloading-to-DownloadFailed" style="stroke:#181818;stroke-width:1.0;"/><polygon fill="#181818" points="771.75,127,762.75,123,766.75,127,762.75,131,771.75,127" style="stroke:#181818;stroke-width:1.0;"/><text fill="#000000" font-family="NanumGothic" font-size="13" lengthAdjust="spacing" textLength="144" x="610.06" y="120.96">&#54156;&#50920;&#50612; &#45796;&#50868;&#47196;&#46300; &#46104;&#51648; &#50506;&#51020;</text></g><!--link Downloading to Downloaded--><g id="link_Downloading_Downloaded"><path d="M556.96,152.46 C563.14,161.63 570.07,172.19 576.06,182 C585.19,196.96 591.9153,208.878 599.3053,222.478 " fill="none" id="Downloading-to-Downloaded" style="stroke:#181818;stroke-width:1.0;"/><polygon fill="#181818" points="602.17,227.75,601.3876,217.9323,599.7828,223.3567,594.3583,221.7519,602.17,227.75" style="stroke:#181818;stroke-width:1.0;"/><text fill="#000000" font-family="NanumGothic" font-size="13" lengthAdjust="spacing" textLength="100" x="586.02" y="194.96">&#54156;&#50920;&#50612; &#45796;&#50868;&#47196;&#46300;&#51473;</text></g><!--link Downloaded to InvalidSignature--><g id="link_Downloaded_InvalidSignature"><path d="M665.92,253 C716.08,253 786.79,253 840.17,253 " fill="none" id="Downloaded-to-InvalidSignature" style="stroke:#181818;stroke-width:1.0;"/><polygon fill="#181818" points="846.17,253,837.17,249,841.17,253,837.17,257,846.17,253" style="stroke:#181818;stroke-width:1.0;"/><text fill="#000000" font-family="NanumGothic" font-size="13" lengthAdjust="spacing" textLength="144" x="684.06" y="246.96">&#50976;&#54952;&#54616;&#51648; &#50506;&#51008; &#54156;&#50920;&#50612; &#49436;&#47749;</text></g><!--link Downloaded to SignatureVerified--><g id="link_Downloaded_SignatureVerified"><path d="M615.06,278.5 C615.06,300.24 615.06,325.83 615.06,347.55 " fill="none" id="Downloaded-to-SignatureVerified" style="stroke:#181818;stroke-width:1.0;"/><polygon fill="#181818" points="615.06,353.55,619.06,344.55,615.06,348.55,611.06,344.55,615.06,353.55" style="stroke:#181818;stroke-width:1.0;"/><text fill="#000000" font-family="NanumGothic" font-size="13" lengthAdjust="spacing" textLength="104" x="616.06" y="320.96">&#50976;&#54952;&#54620; &#54156;&#50920;&#50612; &#49436;&#47749;</text></g><!--link SignatureVerified to InstallScheduled--><g id="link_SignatureVerified_InstallScheduled"><path d="M680.38,379 C730.95,379 794.47,379 843.94,379 " fill="none" id="SignatureVerified-to-InstallScheduled" style="stroke:#181818;stroke-width:1.0;"/><polygon fill="#181818" points="849.94,379,840.94,375,844.94,379,840.94,383,849.94,379" style="stroke:#181818;stroke-width:1.0;"/><text fill="#000000" font-family="NanumGothic" font-size="13" lengthAdjust="spacing" textLength="133" x="698.56" y="372.96">&#49444;&#52824; &#45216;&#51676;/&#49884;&#44033;&#51060; &#48120;&#47000;&#51076;</text></g><!--link InstallScheduled to InstallRebooting_1--><g id="link_InstallScheduled_InstallRebooting_1"><path d="M972.24,379 C983.62,379 989,379 1000.38,379 " fill="none" id="InstallScheduled-to-InstallRebooting_1" style="stroke:#181818;stroke-width:1.0;"/><polygon fill="#181818" points="1006.38,379,997.38,375,1001.38,379,997.38,383,1006.38,379" style="stroke:#181818;stroke-width:1.0;"/></g><!--link SignatureVerified to InstallRebooting_1--><g id="link_SignatureVerified_InstallRebooting_1"><path d="M671.88,353.55 C704.79,340.21 747.43,325.27 787.06,318.5 C856.28,306.68 876.49,303.33 945.06,318.5 C975.92,325.33 1002.8823,337.416 1027.5323,350.746 " fill="none" id="SignatureVerified-to-InstallRebooting_1" style="stroke:#181818;stroke-width:1.0;"/><polygon fill="#181818" points="1032.81,353.6,1026.7961,345.8004,1028.4119,351.2216,1022.9907,352.8374,1032.81,353.6" style="stroke:#181818;stroke-width:1.0;"/><text fill="#000000" font-family="NanumGothic" font-size="13" lengthAdjust="spacing" textLength="156" x="788.06" y="320.96">&#49444;&#52824; &#51060;&#51204;&#50640; &#51116;&#48512;&#54021;&#51060; &#54596;&#50836;&#54632;</text></g><!--link InstallScheduled to Installing--><g id="link_InstallScheduled_Installing"><path d="M911.06,404.5 C911.06,426.24 911.06,451.83 911.06,473.55 " fill="none" id="InstallScheduled-to-Installing" style="stroke:#181818;stroke-width:1.0;"/><polygon fill="#181818" points="911.06,479.55,915.06,470.55,911.06,474.55,907.06,470.55,911.06,479.55" style="stroke:#181818;stroke-width:1.0;"/></g><!--link SignatureVerified to Installing--><g id="link_SignatureVerified_Installing"><path d="M673.54,404.5 C732.84,429.34 817.3359,464.742 867.8059,485.882 " fill="none" id="SignatureVerified-to-Installing" style="stroke:#181818;stroke-width:1.0;"/><polygon fill="#181818" points="873.34,488.2,866.5842,481.0335,868.7282,486.2683,863.4934,488.4124,873.34,488.2" style="stroke:#181818;stroke-width:1.0;"/><text fill="#000000" font-family="NanumGothic" font-size="13" lengthAdjust="spacing" textLength="52" x="781.78" y="446.96">&#51593;&#49884; &#49444;&#52824;</text></g><!--link InstallRebooting_1 to Installing--><g id="link_InstallRebooting_1_Installing"><path d="M1042.66,404.5 C1013.9,426.24 976.9062,454.2116 948.1762,475.9316 " fill="none" id="InstallRebooting_1-to-Installing" style="stroke:#181818;stroke-width:1.0;"/><polygon fill="#181818" points="943.39,479.55,952.9815,477.3132,947.3785,476.5347,948.157,470.9317,943.39,479.55" style="stroke:#181818;stroke-width:1.0;"/></g><!--link Installing to InstallVerificationFailed--><g id="link_Installing_InstallVerificationFailed"><path d="M948.87,505 C982.82,505 1027.83,505 1071.21,505 " fill="none" id="Installing-to-InstallVerificationFailed" style="stroke:#181818;stroke-width:1.0;"/><polygon fill="#181818" points="1077.21,505,1068.21,501,1072.21,505,1068.21,509,1077.21,505" style="stroke:#181818;stroke-width:1.0;"/><text fill="#000000" font-family="NanumGothic" font-size="13" lengthAdjust="spacing" textLength="92" x="967.06" y="498.96">&#54156;&#50920;&#50612; &#54869;&#51064; &#49892;&#54056;</text></g><!--link Installing to InstallationFailed--><g id="link_Installing_InstallationFailed"><path d="M948.87,486.76 C1001.42,463.67 1099.6,428.7 1184.06,444.5 C1220.32,451.29 1253.5239,463.778 1283.2939,477.108 " fill="none" id="Installing-to-InstallationFailed" style="stroke:#181818;stroke-width:1.0;"/><polygon fill="#181818" points="1288.77,479.56,1282.1905,472.2313,1284.2066,477.5167,1278.9212,479.5327,1288.77,479.56" style="stroke:#181818;stroke-width:1.0;"/><text fill="#000000" font-family="NanumGothic" font-size="13" lengthAdjust="spacing" textLength="52" x="1131.06" y="446.96">&#49444;&#52824; &#49892;&#54056;</text></g><!--link Installing to InstallRebooting_2--><g id="link_Installing_InstallRebooting_2"><path d="M942.27,530.5 C969.97,552.24 1005.5097,580.1261 1033.1897,601.8461 " fill="none" id="Installing-to-InstallRebooting_2" style="stroke:#181818;stroke-width:1.0;"/><polygon fill="#181818" points="1037.91,605.55,1033.2989,596.8473,1033.9764,602.4634,1028.3603,603.141,1037.91,605.55" style="stroke:#181818;stroke-width:1.0;"/></g><!--reverse link InstallationFailed to InstallRebooting_2--><g id="link_InstallationFailed_InstallRebooting_2"><path d="M1281.0641,532.9966 C1233.5541,554.7366 1169.96,583.83 1122.49,605.55 " fill="none" id="InstallationFailed-backto-InstallRebooting_2" style="stroke:#181818;stroke-width:1.0;"/><polygon fill="#181818" points="1286.52,530.5,1276.6717,530.6076,1281.9734,532.5805,1280.0005,537.8821,1286.52,530.5" style="stroke:#181818;stroke-width:1.0;"/><text fill="#000000" font-family="NanumGothic" font-size="13" lengthAdjust="spacing" textLength="52" x="1221.78" y="572.96">&#49444;&#52824; &#49892;&#54056;</text></g><!--link Installing to Installed--><g id="link_Installing_Installed"><path d="M913.89,530.43 C919.45,578.34 931.029,678.1799 936.559,725.8799 " fill="none" id="Installing-to-Installed" style="stroke:#181818;stroke-width:1.0;"/><polygon fill="#181818" points="937.25,731.84,940.1869,722.4392,936.6742,726.8733,932.2402,723.3605,937.25,731.84" style="stroke:#181818;stroke-width:1.0;"/><text fill="#000000" font-family="NanumGothic" font-size="13" lengthAdjust="spacing" textLength="52" x="929.44" y="635.96">&#49444;&#52824; &#49457;&#44277;</text></g><!--link InstallRebooting_2 to Installed--><g id="link_InstallRebooting_2_Installed"><path d="M1043.57,656.5 C1020.95,678.24 992.416,705.6724 969.816,727.3924 " fill="none" id="InstallRebooting_2-to-Installed" style="stroke:#181818;stroke-width:1.0;"/><polygon fill="#181818" points="965.49,731.55,974.7508,728.1976,969.095,728.0853,969.2073,722.4296,965.49,731.55" style="stroke:#181818;stroke-width:1.0;"/><text fill="#000000" font-family="NanumGothic" font-size="13" lengthAdjust="spacing" textLength="52" x="1013.28" y="698.96">&#49444;&#52824; &#49457;&#44277;</text></g><!--SRC=[fLDDI-D06BxFhvYzBjH5Ztlm949lomfUH9RO6NLWDYbfikAjbGXgmbBHQAnfYL1i446NTPSA_KMTT_w3qmzjOjAmi9UGIPwlzycR3qolS9jGNBFsELsesjyvGXiVDt6fj8pBX5E4HbUiJYl6diuDZQnLTYcnEIMVCHm5u4PO74JG2p-16muV6z1-mkAXBpe1T9mic-ax26MaS8ceHnkxZ12gRyw3gyCuLquI-TE3wnWkbBVRXTQJk0d5MOZ1xKelbdu0b_VOf9QvNzOjQlxGkEXviZ70mgiF-uzvWGf3pDvzqUpQk8hsGCqFKGF2WJB7q3qLRYoQCKeZyJ_ghcgiQ33H3A1Nn-2VGDkRtz1y1PKFpL0ZvxAkQc5aZUteccMRLCqKHh8rRk_LgfvG0oSKTuSefQ9atlZhr6JRRDpDL2VCiZFeIPAQfN6UN3Id2yz1qQAzvoHqlj8jmx1KDTyM2_qIk3T7PGAH0vTD39rxyRSklSEHh_GTQ9rBFqOvnZF5qGVESKm1bDNjiPfeweYoOTuhejbz8lr4lg9PpD2pooElV6Ztf_z3la2A-Jh-19yYv1Msb8szX4jszN_Kaq3dr_3tdroF8Znw0G00]--></g></svg>