<?xml version="1.0" encoding="us-ascii" standalone="no"?><svg xmlns="http://www.w3.org/2000/svg" xmlns:xlink="http://www.w3.org/1999/xlink" contentStyleType="text/css" height="282px" preserveAspectRatio="none" style="width:733px;height:282px;background:#FFFFFF;" version="1.1" viewBox="0 0 733 282" width="733px" zoomAndPan="magnify"><defs/><g><rect fill="#FFFFFF" height="28.95" style="stroke:#181818;stroke-width:1.0;" width="10" x="30.5" y="148.9"/><rect fill="#FFFFFF" height="28.95" style="stroke:#181818;stroke-width:1.0;" width="10" x="30.5" y="221.45"/><rect fill="#FFFFFF" height="28.95" style="stroke:#181818;stroke-width:1.0;" width="10" x="386.5" y="67.05"/><rect fill="#FFFFFF" height="28.95" style="stroke:#181818;stroke-width:1.0;" width="10" x="386.5" y="148.9"/><rect fill="#FFFFFF" height="28.95" style="stroke:#181818;stroke-width:1.0;" width="10" x="386.5" y="221.45"/><rect fill="#FFFFFF" height="28.95" style="stroke:#181818;stroke-width:1.0;" width="10" x="695.5" y="67.05"/><rect fill="none" height="147.4" style="stroke:#000000;stroke-width:1.5;" width="451.5" x="10" y="111"/><line style="stroke:#181818;stroke-width:0.5;stroke-dasharray:5.0,5.0;" x1="35" x2="35" y1="36.1" y2="275.4"/><line style="stroke:#181818;stroke-width:0.5;stroke-dasharray:5.0,5.0;" x1="391.5" x2="391.5" y1="36.1" y2="275.4"/><line style="stroke:#181818;stroke-width:0.5;stroke-dasharray:5.0,5.0;" x1="700" x2="700" y1="36.1" y2="275.4"/><rect fill="#7D5393" height="30.1" rx="2.5" ry="2.5" style="stroke:#181818;stroke-width:0.5;" width="31" x="20" y="5"/><text fill="#FFFFFF" font-family="NanumGothic" font-size="14" lengthAdjust="spacing" textLength="17" x="27" y="24.88">EV</text><rect fill="#7D5393" height="30.1" rx="2.5" ry="2.5" style="stroke:#181818;stroke-width:0.5;" width="120" x="331.5" y="5"/><text fill="#FFFFFF" font-family="NanumGothic" font-size="14" lengthAdjust="spacing" textLength="106" x="338.5" y="24.88">Charging Station</text><rect fill="#7D5393" height="30.1" rx="2.5" ry="2.5" style="stroke:#181818;stroke-width:0.5;" width="53" x="674" y="5"/><text fill="#FFFFFF" font-family="NanumGothic" font-size="14" lengthAdjust="spacing" textLength="39" x="681" y="24.88">CSMS</text><rect fill="#FFFFFF" height="28.95" style="stroke:#181818;stroke-width:1.0;" width="10" x="30.5" y="148.9"/><rect fill="#FFFFFF" height="28.95" style="stroke:#181818;stroke-width:1.0;" width="10" x="30.5" y="221.45"/><rect fill="#FFFFFF" height="28.95" style="stroke:#181818;stroke-width:1.0;" width="10" x="386.5" y="67.05"/><rect fill="#FFFFFF" height="28.95" style="stroke:#181818;stroke-width:1.0;" width="10" x="386.5" y="148.9"/><rect fill="#FFFFFF" height="28.95" style="stroke:#181818;stroke-width:1.0;" width="10" x="386.5" y="221.45"/><rect fill="#FFFFFF" height="28.95" style="stroke:#181818;stroke-width:1.0;" width="10" x="695.5" y="67.05"/><polygon fill="#181818" points="407.5,63.05,397.5,67.05,407.5,71.05,403.5,67.05" style="stroke:#181818;stroke-width:1.0;"/><line style="stroke:#181818;stroke-width:1.0;" x1="401.5" x2="694.5" y1="67.05" y2="67.05"/><text fill="#000000" font-family="NanumGothic" font-size="13" lengthAdjust="spacing" textLength="285" x="413.5" y="62.06">RequestStopTransactionRequest(transactionId)</text><polygon fill="#181818" points="688.5,92,698.5,96,688.5,100,692.5,96" style="stroke:#181818;stroke-width:1.0;"/><line style="stroke:#181818;stroke-width:1.0;stroke-dasharray:2.0,2.0;" x1="391.5" x2="694.5" y1="96" y2="96"/><text fill="#000000" font-family="NanumGothic" font-size="13" lengthAdjust="spacing" textLength="271" x="398.5" y="91.01">RequestStopTransactionResponse(Accepted)</text><path d="M10,111 L70,111 L70,117.95 L60,127.95 L10,127.95 L10,111 " fill="#EEEEEE" style="stroke:#000000;stroke-width:1.5;"/><rect fill="none" height="147.4" style="stroke:#000000;stroke-width:1.5;" width="451.5" x="10" y="111"/><text fill="#000000" font-family="NanumGothic" font-size="13" font-weight="bold" lengthAdjust="spacing" textLength="15" x="25" y="123.96">alt</text><text fill="#000000" font-family="NanumGothic" font-size="11" font-weight="bold" lengthAdjust="spacing" textLength="107" x="85" y="123.12">[AC Charging&#51064; &#44221;&#50864;]</text><polygon fill="#181818" points="374.5,144.9,384.5,148.9,374.5,152.9,378.5,148.9" style="stroke:#181818;stroke-width:1.0;"/><line style="stroke:#181818;stroke-width:1.0;" x1="40.5" x2="380.5" y1="148.9" y2="148.9"/><text fill="#000000" font-family="NanumGothic" font-size="13" lengthAdjust="spacing" textLength="127" x="47.5" y="143.91">ChargingStatusReq()</text><polygon fill="#181818" points="46.5,173.85,36.5,177.85,46.5,181.85,42.5,177.85" style="stroke:#181818;stroke-width:1.0;"/><line style="stroke:#181818;stroke-width:1.0;stroke-dasharray:2.0,2.0;" x1="40.5" x2="390.5" y1="177.85" y2="177.85"/><text fill="#000000" font-family="NanumGothic" font-size="13" lengthAdjust="spacing" textLength="318" x="52.5" y="172.86">ChargingStatusRes(EVSENotification=StopCharging)</text><line style="stroke:#000000;stroke-width:1.0;stroke-dasharray:2.0,2.0;" x1="10" x2="461.5" y1="186.85" y2="186.85"/><text fill="#000000" font-family="NanumGothic" font-size="11" font-weight="bold" lengthAdjust="spacing" textLength="107" x="15" y="196.97">[DC Charging&#51064; &#44221;&#50864;]</text><polygon fill="#181818" points="374.5,217.45,384.5,221.45,374.5,225.45,378.5,221.45" style="stroke:#181818;stroke-width:1.0;"/><line style="stroke:#181818;stroke-width:1.0;" x1="40.5" x2="380.5" y1="221.45" y2="221.45"/><text fill="#000000" font-family="NanumGothic" font-size="13" lengthAdjust="spacing" textLength="131" x="47.5" y="216.46">CurrentDemandReq()</text><polygon fill="#181818" points="46.5,246.4,36.5,250.4,46.5,254.4,42.5,250.4" style="stroke:#181818;stroke-width:1.0;"/><line style="stroke:#181818;stroke-width:1.0;stroke-dasharray:2.0,2.0;" x1="40.5" x2="390.5" y1="250.4" y2="250.4"/><text fill="#000000" font-family="NanumGothic" font-size="13" lengthAdjust="spacing" textLength="322" x="52.5" y="245.41">CurrentDemandRes(EVSENotification=StopCharging)</text><!--SRC=[hP0zJWCn48Lxds98jId20P10Yf8jAA30Q7lB7e8bnsliCH9NGU8EY8g62w4S0dlpj-i49AGqbkVfpNppvanRQQ922FHYyDp5fM7C2KzQQYSimQXkHY02rCrGdZqAlz1s0Pm4wTPsfgsuqOeEViFNhlHXBBymkIfxBk0Edo86ujIwUozi43Bh6xMYlNIjnYp_dWNXUkY-AXPXXG2JJ4ujl-E2Qst0QYebEiA4KZY4zUiI9mp1TBRJLs-VyFtnjNfzPv0kUJHsNuWXRLMDatc7IFVlLGT0W6C9w-PmRgZgXjUtBUa7BJlhPSw-jMLeBrc7_ICfce0m_sVIw3rQckDIM7N2eCEn9yvf5Vi1]--></g></svg>