<?xml version="1.0" encoding="us-ascii" standalone="no"?><svg xmlns="http://www.w3.org/2000/svg" xmlns:xlink="http://www.w3.org/1999/xlink" contentStyleType="text/css" height="389px" preserveAspectRatio="none" style="width:410px;height:389px;background:#FFFFFF;" version="1.1" viewBox="0 0 410 389" width="410px" zoomAndPan="magnify"><defs/><g><rect fill="#FFFFFF" height="297.55" style="stroke:#181818;stroke-width:1.0;" width="10" x="85" y="46.1"/><rect fill="#FFFFFF" height="28.95" style="stroke:#181818;stroke-width:1.0;" width="10" x="357" y="299.7"/><rect fill="none" height="89.85" style="stroke:#000000;stroke-width:1.5;" width="344" x="10" y="123"/><rect fill="none" height="58.9" style="stroke:#000000;stroke-width:1.5;" width="324" x="20" y="146.95"/><rect fill="none" height="74.85" style="stroke:#000000;stroke-width:1.5;" width="378.5" x="20" y="261.8"/><line style="stroke:#181818;stroke-width:0.5;stroke-dasharray:5.0,5.0;" x1="90" x2="90" y1="36.1" y2="382.6"/><line style="stroke:#181818;stroke-width:0.5;stroke-dasharray:5.0,5.0;" x1="361.5" x2="361.5" y1="36.1" y2="382.6"/><rect fill="#7D5393" height="30.1" rx="2.5" ry="2.5" style="stroke:#181818;stroke-width:0.5;" width="120" x="30" y="5"/><text fill="#FFFFFF" font-family="NanumGothic" font-size="14" lengthAdjust="spacing" textLength="106" x="37" y="24.88">Charging Station</text><rect fill="#7D5393" height="30.1" rx="2.5" ry="2.5" style="stroke:#181818;stroke-width:0.5;" width="53" x="335.5" y="5"/><text fill="#FFFFFF" font-family="NanumGothic" font-size="14" lengthAdjust="spacing" textLength="39" x="342.5" y="24.88">CSMS</text><rect fill="#FFFFFF" height="297.55" style="stroke:#181818;stroke-width:1.0;" width="10" x="85" y="46.1"/><rect fill="#FFFFFF" height="28.95" style="stroke:#181818;stroke-width:1.0;" width="10" x="357" y="299.7"/><path d="M49,51.1 L49,75.1 L402,75.1 L402,61.1 L392,51.1 L49,51.1 " fill="#7D5393" style="stroke:#000000;stroke-width:0.5;"/><path d="M392,51.1 L392,61.1 L402,61.1 L392,51.1 " fill="#7D5393" style="stroke:#000000;stroke-width:0.5;"/><text fill="#FFFFFF" font-family="NanumGothic" font-size="13" lengthAdjust="spacing" textLength="88" x="177.25" y="68.06">&#53944;&#47004;&#51117;&#49496; &#51652;&#54665;&#51473;</text><path d="M49,86.05 L49,110.05 L402,110.05 L402,96.05 L392,86.05 L49,86.05 " fill="#7D5393" style="stroke:#000000;stroke-width:0.5;"/><path d="M392,86.05 L392,96.05 L402,96.05 L392,86.05 " fill="#7D5393" style="stroke:#000000;stroke-width:0.5;"/><text fill="#FFFFFF" font-family="NanumGothic" font-size="13" lengthAdjust="spacing" textLength="52" x="195.25" y="103.01">&#50672;&#44208; &#45130;&#44608;</text><path d="M10,123 L76,123 L76,129.95 L66,139.95 L10,139.95 L10,123 " fill="#EEEEEE" style="stroke:#000000;stroke-width:1.5;"/><rect fill="none" height="89.85" style="stroke:#000000;stroke-width:1.5;" width="344" x="10" y="123"/><text fill="#000000" font-family="NanumGothic" font-size="13" font-weight="bold" lengthAdjust="spacing" textLength="21" x="25" y="135.96">opt</text><path d="M20,146.95 L92,146.95 L92,153.9 L82,163.9 L20,163.9 L20,146.95 " fill="#EEEEEE" style="stroke:#000000;stroke-width:1.5;"/><rect fill="none" height="58.9" style="stroke:#000000;stroke-width:1.5;" width="324" x="20" y="146.95"/><text fill="#000000" font-family="NanumGothic" font-size="13" font-weight="bold" lengthAdjust="spacing" textLength="27" x="35" y="159.91">loop</text><text fill="#000000" font-family="NanumGothic" font-size="11" font-weight="bold" lengthAdjust="spacing" textLength="164" x="107" y="159.07">[&#53944;&#47004;&#51117;&#49496; &#51652;&#54665;(running)&#51473;&#51064; &#46041;&#50504;]</text><line style="stroke:#181818;stroke-width:1.0;" x1="95" x2="137" y1="184.85" y2="184.85"/><line style="stroke:#181818;stroke-width:1.0;" x1="137" x2="137" y1="184.85" y2="197.85"/><line style="stroke:#181818;stroke-width:1.0;" x1="96" x2="137" y1="197.85" y2="197.85"/><polygon fill="#181818" points="106,193.85,96,197.85,106,201.85,102,197.85" style="stroke:#181818;stroke-width:1.0;"/><text fill="#000000" font-family="NanumGothic" font-size="13" lengthAdjust="spacing" textLength="230" x="102" y="179.86">TransactionEventRequest() &#47700;&#49884;&#51648; &#51200;&#51109;</text><path d="M49,224.85 L49,248.85 L402,248.85 L402,234.85 L392,224.85 L49,224.85 " fill="#7D5393" style="stroke:#000000;stroke-width:0.5;"/><path d="M392,224.85 L392,234.85 L402,234.85 L392,224.85 " fill="#7D5393" style="stroke:#000000;stroke-width:0.5;"/><text fill="#FFFFFF" font-family="NanumGothic" font-size="13" lengthAdjust="spacing" textLength="64" x="189.25" y="241.81">&#50672;&#44208; &#51116;&#44060;&#46120;</text><path d="M20,261.8 L92,261.8 L92,268.75 L82,278.75 L20,278.75 L20,261.8 " fill="#EEEEEE" style="stroke:#000000;stroke-width:1.5;"/><rect fill="none" height="74.85" style="stroke:#000000;stroke-width:1.5;" width="378.5" x="20" y="261.8"/><text fill="#000000" font-family="NanumGothic" font-size="13" font-weight="bold" lengthAdjust="spacing" textLength="27" x="35" y="274.76">loop</text><text fill="#000000" font-family="NanumGothic" font-size="11" font-weight="bold" lengthAdjust="spacing" textLength="268" x="107" y="273.92">[&#47784;&#46304; &#51200;&#51109;&#46108; TransactionEventRequest() &#47700;&#49884;&#51648;&#50640; &#45824;&#54644;]</text><polygon fill="#181818" points="345,295.7,355,299.7,345,303.7,349,299.7" style="stroke:#181818;stroke-width:1.0;"/><line style="stroke:#181818;stroke-width:1.0;" x1="95" x2="351" y1="299.7" y2="299.7"/><text fill="#000000" font-family="NanumGothic" font-size="13" lengthAdjust="spacing" textLength="243" x="102" y="294.71">TransactionEventRequest(offline = true)</text><polygon fill="#181818" points="106,324.65,96,328.65,106,332.65,102,328.65" style="stroke:#181818;stroke-width:1.0;"/><line style="stroke:#181818;stroke-width:1.0;stroke-dasharray:2.0,2.0;" x1="100" x2="361" y1="328.65" y2="328.65"/><text fill="#000000" font-family="NanumGothic" font-size="13" lengthAdjust="spacing" textLength="171" x="112" y="323.66">TransactionEventResponse()</text><ellipse cx="400" cy="363.85" fill="none" rx="4" ry="4" style="stroke:#181818;stroke-width:1.5;"/><polygon fill="#181818" points="383,360.6,393,364.6,383,368.6,387,364.6" style="stroke:#181818;stroke-width:1.0;"/><line style="stroke:#181818;stroke-width:1.0;" x1="90" x2="389" y1="364.6" y2="364.6"/><text fill="#000000" font-family="NanumGothic" font-size="13" lengthAdjust="spacing" textLength="80" x="97" y="359.61">&#51068;&#48152; &#53685;&#49888; &#51116;&#44060;</text><!--SRC=[bL91Im915BxFhtXvKiX-W52NwDWbktOOTBI5RMRRdHMwRL1H6cIKQR0k7Wmj2fOeCEWNEM__GxEhaQq6TfhXU_Dzt_lUcnM3bqotpC2HHoPRizm3an2Bsj8e6HRb4ZAR-zIk6hmAHKcb8NW6g0FVu1HBCOhRnSahVI64bgHHevBDaRZGeAWnErrPdJ01elf81Ju6BtZQ0HoSH7SNsBycZ9SX9fCb9B0TZbz3KCVryOStmnIMr5LJ26kHIzPsETTgEMs7tH6egtjidMi2f8qWlv662h1hK-x4kGNVgZ4kTzYXonoPpO5wlCM6ZmCFiETXyA0bTKznN_y8Wy7pEFHLSpYJ9qcYdeRgfZULLar_cKQmtGHrwKMjDx8udBR-Ev6eL4o3CrW7QRiifoL-rfri7v8JyikDoR44TrWsrYcptqh9Y6R1r6yYyxsBFIW0TZzLs87ex1qRlUdeo1S0]--></g></svg>