<?xml version="1.0" encoding="us-ascii" standalone="no"?><svg xmlns="http://www.w3.org/2000/svg" xmlns:xlink="http://www.w3.org/1999/xlink" contentStyleType="text/css" height="988px" preserveAspectRatio="none" style="width:530px;height:988px;background:#FFFFFF;" version="1.1" viewBox="0 0 530 988" width="530px" zoomAndPan="magnify"><defs/><g><rect fill="#FFFFFF" height="221.65" style="stroke:#181818;stroke-width:1.0;" width="10" x="94" y="67.05"/><rect fill="#FFFFFF" height="546.2" style="stroke:#181818;stroke-width:1.0;" width="10" x="94" y="426.45"/><rect fill="#FFFFFF" height="170.75" style="stroke:#181818;stroke-width:1.0;" width="10" x="99" y="727"/><rect fill="#FFFFFF" height="28.95" style="stroke:#181818;stroke-width:1.0;" width="10" x="483" y="67.05"/><rect fill="#FFFFFF" height="28.95" style="stroke:#181818;stroke-width:1.0;" width="10" x="483" y="124.95"/><rect fill="#FFFFFF" height="28.95" style="stroke:#181818;stroke-width:1.0;" width="10" x="483" y="259.75"/><rect fill="#FFFFFF" height="28.95" style="stroke:#181818;stroke-width:1.0;" width="10" x="483" y="426.45"/><rect fill="#FFFFFF" height="28.95" style="stroke:#181818;stroke-width:1.0;" width="10" x="483" y="568.25"/><rect fill="#FFFFFF" height="28.95" style="stroke:#181818;stroke-width:1.0;" width="10" x="483" y="727"/><rect fill="#FFFFFF" height="28.95" style="stroke:#181818;stroke-width:1.0;" width="10" x="483" y="868.8"/><rect fill="none" height="151.75" style="stroke:#000000;stroke-width:1.5;" width="495.5" x="29" y="388.55"/><rect fill="none" height="151.75" style="stroke:#000000;stroke-width:1.5;" width="495.5" x="29" y="689.1"/><rect fill="none" height="51.9" style="stroke:#000000;stroke-width:1.5;" width="89" x="54" y="912.75"/><line style="stroke:#181818;stroke-width:0.5;stroke-dasharray:5.0,5.0;" x1="99" x2="99" y1="36.1" y2="981.65"/><line style="stroke:#181818;stroke-width:0.5;stroke-dasharray:5.0,5.0;" x1="487.5" x2="487.5" y1="36.1" y2="981.65"/><rect fill="#7D5393" height="30.1" rx="2.5" ry="2.5" style="stroke:#181818;stroke-width:0.5;" width="120" x="39" y="5"/><text fill="#FFFFFF" font-family="NanumGothic" font-size="14" lengthAdjust="spacing" textLength="106" x="46" y="24.88">Charging Station</text><rect fill="#7D5393" height="30.1" rx="2.5" ry="2.5" style="stroke:#181818;stroke-width:0.5;" width="53" x="461.5" y="5"/><text fill="#FFFFFF" font-family="NanumGothic" font-size="14" lengthAdjust="spacing" textLength="39" x="468.5" y="24.88">CSMS</text><rect fill="#FFFFFF" height="221.65" style="stroke:#181818;stroke-width:1.0;" width="10" x="94" y="67.05"/><rect fill="#FFFFFF" height="546.2" style="stroke:#181818;stroke-width:1.0;" width="10" x="94" y="426.45"/><rect fill="#FFFFFF" height="170.75" style="stroke:#181818;stroke-width:1.0;" width="10" x="99" y="727"/><rect fill="#FFFFFF" height="28.95" style="stroke:#181818;stroke-width:1.0;" width="10" x="483" y="67.05"/><rect fill="#FFFFFF" height="28.95" style="stroke:#181818;stroke-width:1.0;" width="10" x="483" y="124.95"/><rect fill="#FFFFFF" height="28.95" style="stroke:#181818;stroke-width:1.0;" width="10" x="483" y="259.75"/><rect fill="#FFFFFF" height="28.95" style="stroke:#181818;stroke-width:1.0;" width="10" x="483" y="426.45"/><rect fill="#FFFFFF" height="28.95" style="stroke:#181818;stroke-width:1.0;" width="10" x="483" y="568.25"/><rect fill="#FFFFFF" height="28.95" style="stroke:#181818;stroke-width:1.0;" width="10" x="483" y="727"/><rect fill="#FFFFFF" height="28.95" style="stroke:#181818;stroke-width:1.0;" width="10" x="483" y="868.8"/><polygon fill="#181818" points="115,63.05,105,67.05,115,71.05,111,67.05" style="stroke:#181818;stroke-width:1.0;"/><line style="stroke:#181818;stroke-width:1.0;" x1="109" x2="482" y1="67.05" y2="67.05"/><text fill="#000000" font-family="NanumGothic" font-size="13" lengthAdjust="spacing" textLength="160" x="121" y="62.06">UpdateFirmwareRequest()</text><polygon fill="#181818" points="476,92,486,96,476,100,480,96" style="stroke:#181818;stroke-width:1.0;"/><line style="stroke:#181818;stroke-width:1.0;stroke-dasharray:2.0,2.0;" x1="104" x2="482" y1="96" y2="96"/><text fill="#000000" font-family="NanumGothic" font-size="13" lengthAdjust="spacing" textLength="169" x="111" y="91.01">UpdateFirmwareResponse()</text><polygon fill="#181818" points="471,120.95,481,124.95,471,128.95,475,124.95" style="stroke:#181818;stroke-width:1.0;"/><line style="stroke:#181818;stroke-width:1.0;" x1="104" x2="477" y1="124.95" y2="124.95"/><text fill="#000000" font-family="NanumGothic" font-size="13" lengthAdjust="spacing" textLength="360" x="111" y="119.96">FirmwareStatusNotificationRequest(Status = Downloading)</text><polygon fill="#181818" points="115,149.9,105,153.9,115,157.9,111,153.9" style="stroke:#181818;stroke-width:1.0;"/><line style="stroke:#181818;stroke-width:1.0;stroke-dasharray:2.0,2.0;" x1="109" x2="487" y1="153.9" y2="153.9"/><text fill="#000000" font-family="NanumGothic" font-size="13" lengthAdjust="spacing" textLength="233" x="121" y="148.91">FirmwareStatusNotificationResponse()</text><ellipse cx="103.5" cy="195.1" fill="none" rx="4" ry="4" style="stroke:#181818;stroke-width:1.5;"/><line style="stroke:#181818;stroke-width:1.0;" x1="104" x2="146" y1="182.85" y2="182.85"/><line style="stroke:#181818;stroke-width:1.0;" x1="146" x2="146" y1="182.85" y2="195.85"/><line style="stroke:#181818;stroke-width:1.0;" x1="109" x2="146" y1="195.85" y2="195.85"/><polygon fill="#181818" points="119,191.85,109,195.85,119,199.85,115,195.85" style="stroke:#181818;stroke-width:1.0;"/><text fill="#000000" font-family="NanumGothic" font-size="13" lengthAdjust="spacing" textLength="88" x="111" y="177.86">&#54156;&#50920;&#50612; &#45796;&#50868;&#47196;&#46300;</text><path d="M32,208.85 L32,232.85 L165,232.85 L165,218.85 L155,208.85 L32,208.85 " fill="#7D5393" style="stroke:#000000;stroke-width:0.5;"/><path d="M155,208.85 L155,218.85 L165,218.85 L155,208.85 " fill="#7D5393" style="stroke:#000000;stroke-width:0.5;"/><text fill="#FFFFFF" font-family="NanumGothic" font-size="13" lengthAdjust="spacing" textLength="112" x="38" y="225.81">&#54156;&#50920;&#50612; &#45796;&#50868;&#47196;&#46300;&#51473;...</text><polygon fill="#181818" points="471,255.75,481,259.75,471,263.75,475,259.75" style="stroke:#181818;stroke-width:1.0;"/><line style="stroke:#181818;stroke-width:1.0;" x1="104" x2="477" y1="259.75" y2="259.75"/><text fill="#000000" font-family="NanumGothic" font-size="13" lengthAdjust="spacing" textLength="356" x="111" y="254.76">FirmwareStatusNotificationRequest(Status = Downloaded)</text><polygon fill="#181818" points="110,284.7,100,288.7,110,292.7,106,288.7" style="stroke:#181818;stroke-width:1.0;"/><line style="stroke:#181818;stroke-width:1.0;stroke-dasharray:2.0,2.0;" x1="104" x2="487" y1="288.7" y2="288.7"/><text fill="#000000" font-family="NanumGothic" font-size="13" lengthAdjust="spacing" textLength="233" x="116" y="283.71">FirmwareStatusNotificationResponse()</text><path d="M5,301.7 L5,325.7 L194,325.7 L194,311.7 L184,301.7 L5,301.7 " fill="#7D5393" style="stroke:#000000;stroke-width:0.5;"/><path d="M184,301.7 L184,311.7 L194,311.7 L184,301.7 " fill="#7D5393" style="stroke:#000000;stroke-width:0.5;"/><text fill="#FFFFFF" font-family="NanumGothic" font-size="13" lengthAdjust="spacing" textLength="168" x="11" y="318.66">&#53944;&#47004;&#51117;&#49496;&#51060; &#45149;&#45216; &#46412;&#44620;&#51648; &#45824;&#44592;...</text><path d="M104,336.65 L104,375.65 L449,375.65 L449,346.65 L439,336.65 L104,336.65 " fill="#7D5393" style="stroke:#000000;stroke-width:0.5;"/><path d="M439,336.65 L439,346.65 L449,346.65 L439,336.65 " fill="#7D5393" style="stroke:#000000;stroke-width:0.5;"/><text fill="#FFFFFF" font-family="NanumGothic" font-size="13" lengthAdjust="spacing" textLength="324" x="110" y="353.61">FirmwareStatusNotificationRequests&#44032; &#51204;&#49569;&#46104;&#45716; &#49692;&#49436;&#50752;</text><text fill="#FFFFFF" font-family="NanumGothic" font-size="13" lengthAdjust="spacing" textLength="276" x="110" y="368.56">&#51116;&#48512;&#54021;&#51060; &#48156;&#49373;&#54616;&#45716; &#49692;&#49436;&#45716; &#44256;&#51221;&#46104;&#50612; &#51080;&#51648; &#50506;&#49845;&#45768;&#45796;.</text><path d="M29,388.55 L95,388.55 L95,395.5 L85,405.5 L29,405.5 L29,388.55 " fill="#EEEEEE" style="stroke:#000000;stroke-width:1.5;"/><rect fill="none" height="151.75" style="stroke:#000000;stroke-width:1.5;" width="495.5" x="29" y="388.55"/><text fill="#000000" font-family="NanumGothic" font-size="13" font-weight="bold" lengthAdjust="spacing" textLength="21" x="44" y="401.51">opt</text><text fill="#000000" font-family="NanumGothic" font-size="11" font-weight="bold" lengthAdjust="spacing" textLength="183" x="110" y="400.67">[&#54156;&#50920;&#50612; &#49444;&#52824; &#51204;&#50640; &#51116;&#48512;&#54021;&#51060; &#54596;&#50836;&#54620; &#44221;&#50864;]</text><polygon fill="#181818" points="471,422.45,481,426.45,471,430.45,475,426.45" style="stroke:#181818;stroke-width:1.0;"/><line style="stroke:#181818;stroke-width:1.0;" x1="104" x2="477" y1="426.45" y2="426.45"/><text fill="#000000" font-family="NanumGothic" font-size="13" lengthAdjust="spacing" textLength="322" x="111" y="421.46">FirmwareStatusNotificationRequest(InstallRebooting)</text><polygon fill="#181818" points="115,451.4,105,455.4,115,459.4,111,455.4" style="stroke:#181818;stroke-width:1.0;"/><line style="stroke:#181818;stroke-width:1.0;stroke-dasharray:2.0,2.0;" x1="109" x2="487" y1="455.4" y2="455.4"/><text fill="#000000" font-family="NanumGothic" font-size="13" lengthAdjust="spacing" textLength="233" x="121" y="450.41">FirmwareStatusNotificationResponse()</text><ellipse cx="103.5" cy="496.6" fill="none" rx="4" ry="4" style="stroke:#181818;stroke-width:1.5;"/><line style="stroke:#181818;stroke-width:1.0;" x1="104" x2="146" y1="484.35" y2="484.35"/><line style="stroke:#181818;stroke-width:1.0;" x1="146" x2="146" y1="484.35" y2="497.35"/><line style="stroke:#181818;stroke-width:1.0;" x1="109" x2="146" y1="497.35" y2="497.35"/><polygon fill="#181818" points="119,493.35,109,497.35,119,501.35,115,497.35" style="stroke:#181818;stroke-width:1.0;"/><text fill="#000000" font-family="NanumGothic" font-size="13" lengthAdjust="spacing" textLength="36" x="111" y="479.36">&#51116;&#48512;&#54021;</text><path d="M64,510.35 L64,534.35 L133,534.35 L133,520.35 L123,510.35 L64,510.35 " fill="#7D5393" style="stroke:#000000;stroke-width:0.5;"/><path d="M123,510.35 L123,520.35 L133,520.35 L123,510.35 " fill="#7D5393" style="stroke:#000000;stroke-width:0.5;"/><text fill="#FFFFFF" font-family="NanumGothic" font-size="13" lengthAdjust="spacing" textLength="48" x="70" y="527.31">&#51116;&#48512;&#54021;...</text><polygon fill="#181818" points="471,564.25,481,568.25,471,572.25,475,568.25" style="stroke:#181818;stroke-width:1.0;"/><line style="stroke:#181818;stroke-width:1.0;" x1="104" x2="477" y1="568.25" y2="568.25"/><text fill="#000000" font-family="NanumGothic" font-size="13" lengthAdjust="spacing" textLength="333" x="111" y="563.26">FirmwareStatusNotificationRequest(Status = Installing)</text><polygon fill="#181818" points="115,593.2,105,597.2,115,601.2,111,597.2" style="stroke:#181818;stroke-width:1.0;"/><line style="stroke:#181818;stroke-width:1.0;stroke-dasharray:2.0,2.0;" x1="109" x2="487" y1="597.2" y2="597.2"/><text fill="#000000" font-family="NanumGothic" font-size="13" lengthAdjust="spacing" textLength="233" x="121" y="592.21">FirmwareStatusNotificationResponse()</text><ellipse cx="103.5" cy="638.4" fill="none" rx="4" ry="4" style="stroke:#181818;stroke-width:1.5;"/><line style="stroke:#181818;stroke-width:1.0;" x1="104" x2="146" y1="626.15" y2="626.15"/><line style="stroke:#181818;stroke-width:1.0;" x1="146" x2="146" y1="626.15" y2="639.15"/><line style="stroke:#181818;stroke-width:1.0;" x1="109" x2="146" y1="639.15" y2="639.15"/><polygon fill="#181818" points="119,635.15,109,639.15,119,643.15,115,639.15" style="stroke:#181818;stroke-width:1.0;"/><text fill="#000000" font-family="NanumGothic" font-size="13" lengthAdjust="spacing" textLength="64" x="111" y="621.16">&#54156;&#50920;&#50612; &#49444;&#52824;</text><path d="M64,652.15 L64,676.15 L133,676.15 L133,662.15 L123,652.15 L64,652.15 " fill="#7D5393" style="stroke:#000000;stroke-width:0.5;"/><path d="M123,652.15 L123,662.15 L133,662.15 L123,652.15 " fill="#7D5393" style="stroke:#000000;stroke-width:0.5;"/><text fill="#FFFFFF" font-family="NanumGothic" font-size="13" lengthAdjust="spacing" textLength="48" x="70" y="669.11">&#49444;&#52824;&#51473;...</text><path d="M29,689.1 L95,689.1 L95,696.05 L85,706.05 L29,706.05 L29,689.1 " fill="#EEEEEE" style="stroke:#000000;stroke-width:1.5;"/><rect fill="none" height="151.75" style="stroke:#000000;stroke-width:1.5;" width="495.5" x="29" y="689.1"/><text fill="#000000" font-family="NanumGothic" font-size="13" font-weight="bold" lengthAdjust="spacing" textLength="21" x="44" y="702.06">opt</text><text fill="#000000" font-family="NanumGothic" font-size="11" font-weight="bold" lengthAdjust="spacing" textLength="249" x="110" y="701.22">[&#49444;&#52824; &#51060;&#54980; &#54156;&#50920;&#50612; &#54876;&#49457;&#54868;&#47484; &#50948;&#54644; &#51116;&#48512;&#54021;&#51060; &#54596;&#50836;&#54620; &#44221;&#50864;]</text><polygon fill="#181818" points="471,723,481,727,471,731,475,727" style="stroke:#181818;stroke-width:1.0;"/><line style="stroke:#181818;stroke-width:1.0;" x1="109" x2="477" y1="727" y2="727"/><text fill="#000000" font-family="NanumGothic" font-size="13" lengthAdjust="spacing" textLength="322" x="116" y="722.01">FirmwareStatusNotificationRequest(InstallRebooting)</text><polygon fill="#181818" points="120,751.95,110,755.95,120,759.95,116,755.95" style="stroke:#181818;stroke-width:1.0;"/><line style="stroke:#181818;stroke-width:1.0;stroke-dasharray:2.0,2.0;" x1="114" x2="487" y1="755.95" y2="755.95"/><text fill="#000000" font-family="NanumGothic" font-size="13" lengthAdjust="spacing" textLength="233" x="126" y="750.96">FirmwareStatusNotificationResponse()</text><ellipse cx="108.5" cy="797.15" fill="none" rx="4" ry="4" style="stroke:#181818;stroke-width:1.5;"/><line style="stroke:#181818;stroke-width:1.0;" x1="109" x2="151" y1="784.9" y2="784.9"/><line style="stroke:#181818;stroke-width:1.0;" x1="151" x2="151" y1="784.9" y2="797.9"/><line style="stroke:#181818;stroke-width:1.0;" x1="114" x2="151" y1="797.9" y2="797.9"/><polygon fill="#181818" points="124,793.9,114,797.9,124,801.9,120,797.9" style="stroke:#181818;stroke-width:1.0;"/><text fill="#000000" font-family="NanumGothic" font-size="13" lengthAdjust="spacing" textLength="36" x="116" y="779.91">&#51116;&#48512;&#54021;</text><path d="M64,810.9 L64,834.9 L133,834.9 L133,820.9 L123,810.9 L64,810.9 " fill="#7D5393" style="stroke:#000000;stroke-width:0.5;"/><path d="M123,810.9 L123,820.9 L133,820.9 L123,810.9 " fill="#7D5393" style="stroke:#000000;stroke-width:0.5;"/><text fill="#FFFFFF" font-family="NanumGothic" font-size="13" lengthAdjust="spacing" textLength="48" x="70" y="827.86">&#51116;&#48512;&#54021;...</text><polygon fill="#181818" points="471,864.8,481,868.8,471,872.8,475,868.8" style="stroke:#181818;stroke-width:1.0;"/><line style="stroke:#181818;stroke-width:1.0;" x1="109" x2="477" y1="868.8" y2="868.8"/><text fill="#000000" font-family="NanumGothic" font-size="13" lengthAdjust="spacing" textLength="274" x="116" y="863.81">FirmwareStatusNotificationRequest(Installed)</text><polygon fill="#181818" points="115,893.75,105,897.75,115,901.75,111,897.75" style="stroke:#181818;stroke-width:1.0;"/><line style="stroke:#181818;stroke-width:1.0;stroke-dasharray:2.0,2.0;" x1="109" x2="487" y1="897.75" y2="897.75"/><text fill="#000000" font-family="NanumGothic" font-size="13" lengthAdjust="spacing" textLength="233" x="121" y="892.76">FirmwareStatusNotificationResponse()</text><path d="M54,912.75 L120,912.75 L120,919.7 L110,929.7 L54,929.7 L54,912.75 " fill="#EEEEEE" style="stroke:#000000;stroke-width:1.5;"/><rect fill="none" height="51.9" style="stroke:#000000;stroke-width:1.5;" width="89" x="54" y="912.75"/><text fill="#000000" font-family="NanumGothic" font-size="13" font-weight="bold" lengthAdjust="spacing" textLength="21" x="69" y="925.71">opt</text><path d="M64,934.7 L64,958.7 L133,958.7 L133,944.7 L123,934.7 L64,934.7 " fill="#7D5393" style="stroke:#000000;stroke-width:0.5;"/><path d="M123,934.7 L123,944.7 L133,944.7 L123,934.7 " fill="#7D5393" style="stroke:#000000;stroke-width:0.5;"/><text fill="#FFFFFF" font-family="NanumGothic" font-size="13" lengthAdjust="spacing" textLength="48" x="70" y="951.66">&#51116;&#48512;&#54021;...</text><!--SRC=[xLJ1RjD04BtxAuQUwA7v02IuW90umA4H7x34szIIwpNsfXKt0owAKWiL4KEIEb4g1S41f001jHBya7Vy3-pQSN7YD1LA4JrmiTOxCszcthpPQuPLCniw1PS_CMd5RkoOccOJXnirmoOMXxNRsyIf6rOTgfnmWrbhG5p8BwTtSn7L-zNCInuqJNrXuzPyp0ruQEk4qxk6ixD77Bf97pUeow-lQwJ6ZLrfAMNvRSY0PysmeP98IndPjPdbKWcjquimSeWyM1aQxWF6ZIsZblhaXMOMk0bts9vbCg9BcFLIZMdpYxfVbk1FwcLbwEHbW4SVyCq4nC48UnDn78dNaQPPJEAmNUgKc8LpOd3qgbAfQDJIGGLVBbzK_zjq5V_dEbvEHkj4328SVCBz3lOb9K_xujaGH1Z4fm6-zq04NdmodgKc1NIC-ZO7jhK0z4A6t7Zi0GvzV74i3ZkYrGPiHkX7sFLaE0u-YkzU4kod1OqZVDvFmeANEiLVXpWCPR2Q8mwQgbGCMzZw9WwQSgx5SfdD2qD7VuIddJJxsyFPN4deOw-TX174NtvYRonhMK45zooN4zFSf8-OjAgD0JXtI4LJgW-05HK2K5gfHUqiMAepJbJ4Cl4KHgK40d36kJnSpWPDIRo23qwce-NRbVcKdXObo5o6_Kbov1TWawwK-EUasnRlVW16VX9E_elqQefqojs_VTobbbOYu1S0]--></g></svg>