<?xml version="1.0" encoding="us-ascii" standalone="no"?><svg xmlns="http://www.w3.org/2000/svg" xmlns:xlink="http://www.w3.org/1999/xlink" contentStyleType="text/css" height="619px" preserveAspectRatio="none" style="width:549px;height:619px;background:#FFFFFF;" version="1.1" viewBox="0 0 549 619" width="549px" zoomAndPan="magnify"><defs/><g><rect fill="#FFFFFF" height="438.3" style="stroke:#181818;stroke-width:1.0;" width="10" x="135" y="149"/><rect fill="#FFFFFF" height="28.95" style="stroke:#181818;stroke-width:1.0;" width="10" x="488" y="443.55"/><rect fill="#FFFFFF" height="28.95" style="stroke:#181818;stroke-width:1.0;" width="10" x="488" y="558.35"/><rect fill="none" height="431.3" style="stroke:#000000;stroke-width:1.5;" width="483.5" x="60" y="164"/><rect fill="none" height="58.9" style="stroke:#000000;stroke-width:1.5;" width="270" x="70" y="229.9"/><line style="stroke:#181818;stroke-width:0.5;stroke-dasharray:5.0,5.0;" x1="37" x2="37" y1="83.1" y2="612.3"/><line style="stroke:#181818;stroke-width:0.5;stroke-dasharray:5.0,5.0;" x1="140" x2="140" y1="83.1" y2="612.3"/><line style="stroke:#181818;stroke-width:0.5;stroke-dasharray:5.0,5.0;" x1="492.5" x2="492.5" y1="83.1" y2="612.3"/><text fill="#000000" font-family="NanumGothic" font-size="14" lengthAdjust="spacing" textLength="59" x="5" y="79.88">EV Driver</text><ellipse cx="37.5" cy="14.5" fill="#E2E2F0" rx="8" ry="8" style="stroke:#7D5393;stroke-width:1.5;"/><path d="M37.5,22.5 L37.5,49.5 M24.5,30.5 L50.5,30.5 M37.5,49.5 L24.5,64.5 M37.5,49.5 L50.5,64.5 " fill="none" style="stroke:#7D5393;stroke-width:1.5;"/><rect fill="#7D5393" height="30.1" rx="2.5" ry="2.5" style="stroke:#181818;stroke-width:0.5;" width="120" x="80" y="52"/><text fill="#FFFFFF" font-family="NanumGothic" font-size="14" lengthAdjust="spacing" textLength="106" x="87" y="71.88">Charging Station</text><rect fill="#7D5393" height="30.1" rx="2.5" ry="2.5" style="stroke:#181818;stroke-width:0.5;" width="53" x="466.5" y="52"/><text fill="#FFFFFF" font-family="NanumGothic" font-size="14" lengthAdjust="spacing" textLength="39" x="473.5" y="71.88">CSMS</text><rect fill="#FFFFFF" height="438.3" style="stroke:#181818;stroke-width:1.0;" width="10" x="135" y="149"/><rect fill="#FFFFFF" height="28.95" style="stroke:#181818;stroke-width:1.0;" width="10" x="488" y="443.55"/><rect fill="#FFFFFF" height="28.95" style="stroke:#181818;stroke-width:1.0;" width="10" x="488" y="558.35"/><path d="M99,98.1 L99,122.1 L533,122.1 L533,108.1 L523,98.1 L99,98.1 " fill="#7D5393" style="stroke:#000000;stroke-width:0.5;"/><path d="M523,98.1 L523,108.1 L533,108.1 L523,98.1 " fill="#7D5393" style="stroke:#000000;stroke-width:0.5;"/><text fill="#FFFFFF" font-family="NanumGothic" font-size="13" lengthAdjust="spacing" textLength="228" x="197.75" y="115.06">&#52649;&#51204;&#44592;&#44032; &#50724;&#54532;&#46972;&#51064;&#51060;&#44256; &#53944;&#47004;&#51117;&#49496;&#51060; &#51652;&#54665;&#51473;</text><polygon fill="#181818" points="123,145,133,149,123,153,127,149" style="stroke:#181818;stroke-width:1.0;"/><line style="stroke:#181818;stroke-width:1.0;" x1="37.5" x2="129" y1="149" y2="149"/><text fill="#000000" font-family="NanumGothic" font-size="13" lengthAdjust="spacing" textLength="76" x="44.5" y="144.01">idToken &#51228;&#49884;</text><path d="M60,164 L120,164 L120,170.95 L110,180.95 L60,180.95 L60,164 " fill="#EEEEEE" style="stroke:#000000;stroke-width:1.5;"/><rect fill="none" height="431.3" style="stroke:#000000;stroke-width:1.5;" width="483.5" x="60" y="164"/><text fill="#000000" font-family="NanumGothic" font-size="13" font-weight="bold" lengthAdjust="spacing" textLength="15" x="75" y="176.96">alt</text><text fill="#000000" font-family="NanumGothic" font-size="11" font-weight="bold" lengthAdjust="spacing" textLength="214" x="135" y="176.12">[idToken&#51060; &#51068;&#52824;&#54616;&#44144;&#45208; groupId &#54869;&#51064;&#51060; &#44032;&#45733;]</text><line style="stroke:#181818;stroke-width:1.0;" x1="145" x2="187" y1="201.9" y2="201.9"/><line style="stroke:#181818;stroke-width:1.0;" x1="187" x2="187" y1="201.9" y2="214.9"/><line style="stroke:#181818;stroke-width:1.0;" x1="146" x2="187" y1="214.9" y2="214.9"/><polygon fill="#181818" points="156,210.9,146,214.9,156,218.9,152,214.9" style="stroke:#181818;stroke-width:1.0;"/><text fill="#000000" font-family="NanumGothic" font-size="13" lengthAdjust="spacing" textLength="92" x="152" y="196.91">&#50640;&#45320;&#51648; &#51228;&#44277; &#51473;&#45800;</text><path d="M70,229.9 L130,229.9 L130,236.85 L120,246.85 L70,246.85 L70,229.9 " fill="#EEEEEE" style="stroke:#000000;stroke-width:1.5;"/><rect fill="none" height="58.9" style="stroke:#000000;stroke-width:1.5;" width="270" x="70" y="229.9"/><text fill="#000000" font-family="NanumGothic" font-size="13" font-weight="bold" lengthAdjust="spacing" textLength="15" x="85" y="242.86">alt</text><text fill="#000000" font-family="NanumGothic" font-size="11" font-weight="bold" lengthAdjust="spacing" textLength="190" x="145" y="242.02">[&#52964;&#45349;&#53552;&#44032; &#50689;&#44396;&#51201;&#51004;&#47196; &#50672;&#44208;&#46104;&#51648; &#50506;&#51008; &#44221;&#50864;]</text><line style="stroke:#181818;stroke-width:1.0;" x1="145" x2="187" y1="267.8" y2="267.8"/><line style="stroke:#181818;stroke-width:1.0;" x1="187" x2="187" y1="267.8" y2="280.8"/><line style="stroke:#181818;stroke-width:1.0;" x1="146" x2="187" y1="280.8" y2="280.8"/><polygon fill="#181818" points="156,276.8,146,280.8,156,284.8,152,280.8" style="stroke:#181818;stroke-width:1.0;"/><text fill="#000000" font-family="NanumGothic" font-size="13" lengthAdjust="spacing" textLength="92" x="152" y="262.81">&#52964;&#45349;&#53552; &#51104;&#44552; &#54644;&#51228;</text><line style="stroke:#181818;stroke-width:1.0;" x1="145" x2="187" y1="331.7" y2="331.7"/><line style="stroke:#181818;stroke-width:1.0;" x1="187" x2="187" y1="331.7" y2="344.7"/><line style="stroke:#181818;stroke-width:1.0;" x1="146" x2="187" y1="344.7" y2="344.7"/><polygon fill="#181818" points="156,340.7,146,344.7,156,348.7,152,344.7" style="stroke:#181818;stroke-width:1.0;"/><text fill="#000000" font-family="NanumGothic" font-size="13" lengthAdjust="spacing" textLength="313" x="152" y="311.76">Store TransactionEventRequest(eventType = Ended,</text><text fill="#000000" font-family="NanumGothic" font-size="13" lengthAdjust="spacing" textLength="86" x="152" y="326.71">offline = true)</text><path d="M99,357.7 L99,381.7 L533,381.7 L533,367.7 L523,357.7 L99,357.7 " fill="#7D5393" style="stroke:#000000;stroke-width:0.5;"/><path d="M523,357.7 L523,367.7 L533,367.7 L523,357.7 " fill="#7D5393" style="stroke:#000000;stroke-width:0.5;"/><text fill="#FFFFFF" font-family="NanumGothic" font-size="13" lengthAdjust="spacing" textLength="256" x="183.75" y="374.66">&#50672;&#44208; &#45130;&#44608;&#51008; &#47751; &#48516; &#46608;&#45716; &#47728;&#52832;&#51060; &#46112; &#49688; &#51080;&#49845;&#45768;&#45796;..</text><path d="M99,392.65 L99,416.65 L533,416.65 L533,402.65 L523,392.65 L99,392.65 " fill="#7D5393" style="stroke:#000000;stroke-width:0.5;"/><path d="M523,392.65 L523,402.65 L533,402.65 L523,392.65 " fill="#7D5393" style="stroke:#000000;stroke-width:0.5;"/><text fill="#FFFFFF" font-family="NanumGothic" font-size="13" lengthAdjust="spacing" textLength="64" x="279.75" y="409.61">&#50672;&#44208; &#51116;&#44060;&#46120;</text><polygon fill="#181818" points="476,439.55,486,443.55,476,447.55,480,443.55" style="stroke:#181818;stroke-width:1.0;"/><line style="stroke:#181818;stroke-width:1.0;" x1="145" x2="482" y1="443.55" y2="443.55"/><text fill="#000000" font-family="NanumGothic" font-size="13" lengthAdjust="spacing" textLength="119" x="152" y="438.56">HeartbeatRequest()</text><polygon fill="#181818" points="156,468.5,146,472.5,156,476.5,152,472.5" style="stroke:#181818;stroke-width:1.0;"/><line style="stroke:#181818;stroke-width:1.0;stroke-dasharray:2.0,2.0;" x1="150" x2="492" y1="472.5" y2="472.5"/><text fill="#000000" font-family="NanumGothic" font-size="13" lengthAdjust="spacing" textLength="128" x="162" y="467.51">HeartbeatResponse()</text><line style="stroke:#181818;stroke-width:1.0;" x1="145" x2="187" y1="501.45" y2="501.45"/><line style="stroke:#181818;stroke-width:1.0;" x1="187" x2="187" y1="501.45" y2="514.45"/><line style="stroke:#181818;stroke-width:1.0;" x1="146" x2="187" y1="514.45" y2="514.45"/><polygon fill="#181818" points="156,510.45,146,514.45,156,518.45,152,514.45" style="stroke:#181818;stroke-width:1.0;"/><text fill="#000000" font-family="NanumGothic" font-size="13" lengthAdjust="spacing" textLength="132" x="152" y="496.46">&#53328;&#50640; &#51200;&#51109;&#46108; &#47700;&#49884;&#51648; &#51204;&#49569;</text><polygon fill="#181818" points="476,554.35,486,558.35,476,562.35,480,558.35" style="stroke:#181818;stroke-width:1.0;"/><line style="stroke:#181818;stroke-width:1.0;" x1="145" x2="482" y1="558.35" y2="558.35"/><text fill="#000000" font-family="NanumGothic" font-size="13" lengthAdjust="spacing" textLength="277" x="152" y="538.41">TransactionEventRequest(eventType = Ended,</text><text fill="#000000" font-family="NanumGothic" font-size="13" lengthAdjust="spacing" textLength="86" x="152" y="553.36">offline = true)</text><polygon fill="#181818" points="151,583.3,141,587.3,151,591.3,147,587.3" style="stroke:#181818;stroke-width:1.0;"/><line style="stroke:#181818;stroke-width:1.0;stroke-dasharray:2.0,2.0;" x1="145" x2="492" y1="587.3" y2="587.3"/><text fill="#000000" font-family="NanumGothic" font-size="13" lengthAdjust="spacing" textLength="171" x="157" y="582.31">TransactionEventResponse()</text><!--SRC=[fLF1RjD04BtxAuQSgDJc0oh11IB1WGk9Uk9YucsmC6jZRoBrbY03mRaOAG4NEP4h9MgBYcJQfaf4-I7l-1_OjPCAEG5IiHTxH_DcvhrvUqUdTQEf4N3OWK7ALlELeIXgdPasb2fxyD3MMyGkWUf0PI-_A9PgCxskMofbK7hmGhKREcr0bQbCDscMkWmkOWL4zKarpn8_Ya9DHi0KTOkexJm10AzECNAJMPp4RS1WdFPTFhp6uGo7byb51AatuwCGHz_mRI12WCTk-ka3ZZygX6eWwolASdZOkL_iimkwLZDV4WeOXTWB9NkzfOgfYZGKrM3BvAoHc68Uf8CW-HxpDm4qRBDfFTOWFHpaqu6Oc7iJmQ5GQkqO-DddRXUFstAGv68AWWBldIW2BXlZZp5t9wcxaA6JJCymwc1upOz2WOsJyvZxGGOVU3XiGtB-4x_40hrX-sLzm56KpBgG3Yx5808lP5Gsv21FLPY7GCrMgIEbD6cbHIXxIbutYSFk4dcf7LW4xa65QaJRbfXdrDpVDtGgeynkaYtPyD_MW0Lnu1qlcRSbQ_xrFV0h5tZWSwyF_3J6UIHtmVq8i1i8TbtqfhpNvRrnkPpJMxZaLYrnT9R48VTF2YNMoIIWk_28Y6VmdAWtKcp9pTwOBNiDa7rXPvssl-4TowGEoGfePBN41ejAExxmct1Q6qSJxeT2gBumV-u-5zyT_PMAFF-xu5jnNsts1maAJtPL7sdcNm00]--></g></svg>