<?xml version="1.0" encoding="us-ascii" standalone="no"?><svg xmlns="http://www.w3.org/2000/svg" xmlns:xlink="http://www.w3.org/1999/xlink" contentStyleType="text/css" height="338px" preserveAspectRatio="none" style="width:416px;height:338px;background:#FFFFFF;" version="1.1" viewBox="0 0 416 338" width="416px" zoomAndPan="magnify"><defs/><g><rect fill="#FFFFFF" height="78.85" style="stroke:#181818;stroke-width:1.0;" width="10" x="75" y="91"/><rect fill="#FFFFFF" height="78.85" style="stroke:#181818;stroke-width:1.0;" width="10" x="75" y="220.4499"/><rect fill="#FFFFFF" height="28.95" style="stroke:#181818;stroke-width:1.0;" width="10" x="368" y="91"/><rect fill="#FFFFFF" height="28.95" style="stroke:#181818;stroke-width:1.0;" width="10" x="368" y="220.4499"/><rect fill="none" height="261.2" style="stroke:#000000;stroke-width:1.5;" width="399.5" x="10" y="53.0999"/><line style="stroke:#181818;stroke-width:0.5;stroke-dasharray:5.0,5.0;" x1="80" x2="80" y1="36.0999" y2="331.3"/><line style="stroke:#181818;stroke-width:0.5;stroke-dasharray:5.0,5.0;" x1="372.5" x2="372.5" y1="36.0999" y2="331.3"/><rect fill="#7D5393" height="30.0999" rx="2.5" ry="2.5" style="stroke:#181818;stroke-width:0.5;" width="120" x="20" y="5"/><text fill="#FFFFFF" font-family="NanumGothic" font-size="14" lengthAdjust="spacing" textLength="106" x="27" y="24.8799">Charging Station</text><rect fill="#7D5393" height="30.0999" rx="2.5" ry="2.5" style="stroke:#181818;stroke-width:0.5;" width="53" x="346.5" y="5"/><text fill="#FFFFFF" font-family="NanumGothic" font-size="14" lengthAdjust="spacing" textLength="39" x="353.5" y="24.8799">CSMS</text><rect fill="#FFFFFF" height="78.85" style="stroke:#181818;stroke-width:1.0;" width="10" x="75" y="91"/><rect fill="#FFFFFF" height="78.85" style="stroke:#181818;stroke-width:1.0;" width="10" x="75" y="220.4499"/><rect fill="#FFFFFF" height="28.95" style="stroke:#181818;stroke-width:1.0;" width="10" x="368" y="91"/><rect fill="#FFFFFF" height="28.95" style="stroke:#181818;stroke-width:1.0;" width="10" x="368" y="220.4499"/><path d="M10,53.0999 L70,53.0999 L70,60.0499 L60,70.0499 L10,70.0499 L10,53.0999 " fill="#EEEEEE" style="stroke:#000000;stroke-width:1.5;"/><rect fill="none" height="261.2" style="stroke:#000000;stroke-width:1.5;" width="399.5" x="10" y="53.0999"/><text fill="#000000" font-family="NanumGothic" font-size="13" font-weight="bold" lengthAdjust="spacing" textLength="15" x="25" y="66.0599">alt</text><text fill="#000000" font-family="NanumGothic" font-size="11" font-weight="bold" lengthAdjust="spacing" textLength="142" x="85" y="65.2199">[AuthorizeResponse&#50640; &#45824;&#54644;]</text><polygon fill="#181818" points="356,87,366,91,356,95,360,91" style="stroke:#181818;stroke-width:1.0;"/><line style="stroke:#181818;stroke-width:1.0;" x1="85" x2="362" y1="91" y2="91"/><text fill="#000000" font-family="NanumGothic" font-size="13" lengthAdjust="spacing" textLength="130" x="92" y="86.01">AuthorizeRequest(...)</text><polygon fill="#181818" points="96,115.95,86,119.95,96,123.95,92,119.95" style="stroke:#181818;stroke-width:1.0;"/><line style="stroke:#181818;stroke-width:1.0;stroke-dasharray:2.0,2.0;" x1="90" x2="372" y1="119.95" y2="119.95"/><text fill="#000000" font-family="NanumGothic" font-size="13" lengthAdjust="spacing" textLength="215" x="102" y="114.96">AuthorizeResponse(idTokenInfo,...)</text><line style="stroke:#181818;stroke-width:1.0;" x1="85" x2="127" y1="168.85" y2="168.85"/><line style="stroke:#181818;stroke-width:1.0;" x1="127" x2="127" y1="168.85" y2="181.85"/><line style="stroke:#181818;stroke-width:1.0;" x1="80" x2="127" y1="181.85" y2="181.85"/><polygon fill="#181818" points="90,177.85,80,181.85,90,185.85,86,181.85" style="stroke:#181818;stroke-width:1.0;"/><text fill="#000000" font-family="NanumGothic" font-size="13" lengthAdjust="spacing" textLength="146" x="92" y="148.91">Authorization Cache()&#50640;</text><text fill="#000000" font-family="NanumGothic" font-size="13" lengthAdjust="spacing" textLength="155" x="108" y="163.86">Authorization Data&#47484; &#51200;&#51109;</text><line style="stroke:#000000;stroke-width:1.0;stroke-dasharray:2.0,2.0;" x1="10" x2="409.5" y1="185.85" y2="185.85"/><text fill="#000000" font-family="NanumGothic" font-size="11" font-weight="bold" lengthAdjust="spacing" textLength="179" x="15" y="195.9699">[TransactionEventResponse&#50640; &#45824;&#54644;]</text><polygon fill="#181818" points="356,216.4499,366,220.4499,356,224.4499,360,220.4499" style="stroke:#181818;stroke-width:1.0;"/><line style="stroke:#181818;stroke-width:1.0;" x1="85" x2="362" y1="220.4499" y2="220.4499"/><text fill="#000000" font-family="NanumGothic" font-size="13" lengthAdjust="spacing" textLength="174" x="92" y="215.4599">TransactionEventRequest(...)</text><polygon fill="#181818" points="96,245.3999,86,249.3999,96,253.3999,92,249.3999" style="stroke:#181818;stroke-width:1.0;"/><line style="stroke:#181818;stroke-width:1.0;stroke-dasharray:2.0,2.0;" x1="90" x2="372" y1="249.3999" y2="249.3999"/><text fill="#000000" font-family="NanumGothic" font-size="13" lengthAdjust="spacing" textLength="259" x="102" y="244.4099">TransactionEventResponse(idTokenInfo,...)</text><line style="stroke:#181818;stroke-width:1.0;" x1="85" x2="127" y1="298.3" y2="298.3"/><line style="stroke:#181818;stroke-width:1.0;" x1="127" x2="127" y1="298.3" y2="311.3"/><line style="stroke:#181818;stroke-width:1.0;" x1="80" x2="127" y1="311.3" y2="311.3"/><polygon fill="#181818" points="90,307.3,80,311.3,90,315.3,86,311.3" style="stroke:#181818;stroke-width:1.0;"/><text fill="#000000" font-family="NanumGothic" font-size="13" lengthAdjust="spacing" textLength="146" x="92" y="278.3599">Authorization Cache()&#50640;</text><text fill="#000000" font-family="NanumGothic" font-size="13" lengthAdjust="spacing" textLength="155" x="108" y="293.31">Authorization Data&#47484; &#51200;&#51109;</text><!--SRC=[rL2zJW914ExtAGQg8u5x00eJ0XGMDXwbpUHkv3Qii-Vj78bMF825ZR4pDhm1fM_4-Gvm1oIuguM5XTlCPkRxc-beJasL4JXvC1GNrPrHgi1ITAeBP87kECTohdaEYQ1eorr01wVciUSnaglaWDf_b48ZCAeajwL-f6joXML7zUipR9zMdoyR1RuQ32vQwl2STb-HaoYEuzwUWAde9Ge5ESv7hJcq5GQDv5ViC0mLwMnc5yINV6lxHwkCGiLlulhQpJlf7r1ZJ7EAUitYDnoE9oYuNNz0_RwgtzQUiRSb6KSmAv5T0x4yNHBBxouRil_Wm3z5_3Ttvapj0000]--></g></svg>