<?xml version="1.0" encoding="us-ascii" standalone="no"?><svg xmlns="http://www.w3.org/2000/svg" xmlns:xlink="http://www.w3.org/1999/xlink" contentStyleType="text/css" height="400px" preserveAspectRatio="none" style="width:828px;height:400px;background:#FFFFFF;" version="1.1" viewBox="0 0 828 400" width="828px" zoomAndPan="magnify"><defs/><g><rect fill="#FFFFFF" height="301.55" style="stroke:#181818;stroke-width:1.0;" width="10" x="83" y="83.15"/><rect fill="#FFFFFF" height="301.55" style="stroke:#181818;stroke-width:1.0;" width="10" x="236" y="83.15"/><rect fill="#FFFFFF" height="28.95" style="stroke:#181818;stroke-width:1.0;" width="10" x="781" y="257.9"/><rect fill="#FFFFFF" height="44.95" style="stroke:#181818;stroke-width:1.0;" width="10" x="781" y="339.75"/><rect fill="none" height="131.8" style="stroke:#000000;stroke-width:1.5;" width="234" x="161" y="98.15"/><rect fill="none" height="58.9" style="stroke:#000000;stroke-width:1.5;" width="214" x="171" y="122.1"/><rect fill="none" height="74.85" style="stroke:#000000;stroke-width:1.5;" width="651.5" x="171" y="301.85"/><line style="stroke:#181818;stroke-width:0.5;stroke-dasharray:5.0,5.0;" x1="88" x2="88" y1="52.2" y2="393.7"/><line style="stroke:#181818;stroke-width:0.5;stroke-dasharray:5.0,5.0;" x1="241" x2="241" y1="52.2" y2="393.7"/><line style="stroke:#181818;stroke-width:0.5;stroke-dasharray:5.0,5.0;" x1="785.5" x2="785.5" y1="52.2" y2="393.7"/><rect fill="#7D5393" height="46.2" rx="2.5" ry="2.5" style="stroke:#181818;stroke-width:0.5;" width="166" x="5" y="5"/><text fill="#FFFFFF" font-family="NanumGothic" font-size="14" lengthAdjust="spacing" textLength="152" x="12" y="24.88">External Control System</text><text fill="#FFFFFF" font-family="NanumGothic" font-size="14" lengthAdjust="spacing" textLength="98" x="39" y="40.98">(example DSO)</text><rect fill="#7D5393" height="30.1" rx="2.5" ry="2.5" style="stroke:#181818;stroke-width:0.5;" width="120" x="181" y="21.1"/><text fill="#FFFFFF" font-family="NanumGothic" font-size="14" lengthAdjust="spacing" textLength="106" x="188" y="40.98">Charging Station</text><rect fill="#7D5393" height="30.1" rx="2.5" ry="2.5" style="stroke:#181818;stroke-width:0.5;" width="53" x="759.5" y="21.1"/><text fill="#FFFFFF" font-family="NanumGothic" font-size="14" lengthAdjust="spacing" textLength="39" x="766.5" y="40.98">CSMS</text><rect fill="#FFFFFF" height="301.55" style="stroke:#181818;stroke-width:1.0;" width="10" x="83" y="83.15"/><rect fill="#FFFFFF" height="301.55" style="stroke:#181818;stroke-width:1.0;" width="10" x="236" y="83.15"/><rect fill="#FFFFFF" height="28.95" style="stroke:#181818;stroke-width:1.0;" width="10" x="781" y="257.9"/><rect fill="#FFFFFF" height="44.95" style="stroke:#181818;stroke-width:1.0;" width="10" x="781" y="339.75"/><polygon fill="#181818" points="224,79.15,234,83.15,224,87.15,228,83.15" style="stroke:#181818;stroke-width:1.0;"/><line style="stroke:#181818;stroke-width:1.0;" x1="93" x2="230" y1="83.15" y2="83.15"/><text fill="#000000" font-family="NanumGothic" font-size="13" lengthAdjust="spacing" textLength="92" x="100" y="78.16">&#44536;&#47532;&#46300; &#51228;&#54620; &#54644;&#51228;</text><path d="M161,98.15 L227,98.15 L227,105.1 L217,115.1 L161,115.1 L161,98.15 " fill="#EEEEEE" style="stroke:#000000;stroke-width:1.5;"/><rect fill="none" height="131.8" style="stroke:#000000;stroke-width:1.5;" width="234" x="161" y="98.15"/><text fill="#000000" font-family="NanumGothic" font-size="13" font-weight="bold" lengthAdjust="spacing" textLength="21" x="176" y="111.11">opt</text><text fill="#000000" font-family="NanumGothic" font-size="11" font-weight="bold" lengthAdjust="spacing" textLength="124" x="242" y="110.27">[&#53944;&#47004;&#51117;&#49496;&#51060; &#51652;&#54665;&#51473;&#51064; &#44221;&#50864;]</text><path d="M171,122.1 L237,122.1 L237,129.05 L227,139.05 L171,139.05 L171,122.1 " fill="#EEEEEE" style="stroke:#000000;stroke-width:1.5;"/><rect fill="none" height="58.9" style="stroke:#000000;stroke-width:1.5;" width="214" x="171" y="122.1"/><text fill="#000000" font-family="NanumGothic" font-size="13" font-weight="bold" lengthAdjust="spacing" textLength="21" x="186" y="135.06">opt</text><line style="stroke:#181818;stroke-width:1.0;" x1="246" x2="288" y1="160" y2="160"/><line style="stroke:#181818;stroke-width:1.0;" x1="288" x2="288" y1="160" y2="173"/><line style="stroke:#181818;stroke-width:1.0;" x1="247" x2="288" y1="173" y2="173"/><polygon fill="#181818" points="257,169,247,173,257,177,253,173" style="stroke:#181818;stroke-width:1.0;"/><text fill="#000000" font-family="NanumGothic" font-size="13" lengthAdjust="spacing" textLength="120" x="253" y="155.01">&#52649;&#51204; &#49828;&#52992;&#51572; &#45796;&#49884; &#44228;&#49328;</text><line style="stroke:#181818;stroke-width:1.0;" x1="246" x2="288" y1="208.95" y2="208.95"/><line style="stroke:#181818;stroke-width:1.0;" x1="288" x2="288" y1="208.95" y2="221.95"/><line style="stroke:#181818;stroke-width:1.0;" x1="247" x2="288" y1="221.95" y2="221.95"/><polygon fill="#181818" points="257,217.95,247,221.95,257,225.95,253,221.95" style="stroke:#181818;stroke-width:1.0;"/><text fill="#000000" font-family="NanumGothic" font-size="13" lengthAdjust="spacing" textLength="80" x="253" y="203.96">&#52649;&#51204; &#51228;&#54620; &#54644;&#51228;</text><polygon fill="#181818" points="769,253.9,779,257.9,769,261.9,773,257.9" style="stroke:#181818;stroke-width:1.0;"/><line style="stroke:#181818;stroke-width:1.0;" x1="246" x2="775" y1="257.9" y2="257.9"/><text fill="#000000" font-family="NanumGothic" font-size="13" lengthAdjust="spacing" textLength="358" x="253" y="252.91">ClearedChargingLimitRequest(evseId, chargingLimitSource)</text><polygon fill="#181818" points="257,282.85,247,286.85,257,290.85,253,286.85" style="stroke:#181818;stroke-width:1.0;"/><line style="stroke:#181818;stroke-width:1.0;stroke-dasharray:2.0,2.0;" x1="251" x2="785" y1="286.85" y2="286.85"/><text fill="#000000" font-family="NanumGothic" font-size="13" lengthAdjust="spacing" textLength="199" x="263" y="281.86">ClearedChargingLimitResponse()</text><path d="M171,301.85 L237,301.85 L237,308.8 L227,318.8 L171,318.8 L171,301.85 " fill="#EEEEEE" style="stroke:#000000;stroke-width:1.5;"/><rect fill="none" height="74.85" style="stroke:#000000;stroke-width:1.5;" width="651.5" x="171" y="301.85"/><text fill="#000000" font-family="NanumGothic" font-size="13" font-weight="bold" lengthAdjust="spacing" textLength="21" x="186" y="314.81">opt</text><text fill="#000000" font-family="NanumGothic" font-size="11" font-weight="bold" lengthAdjust="spacing" textLength="300" x="252" y="313.97">[&#52649;&#51204;&#47049; &#51228;&#54620;&#51060; LimitChangeSignificance&#48372;&#45796; &#47566;&#51060; &#48320;&#44221;&#46108; &#44221;&#50864;]</text><polygon fill="#181818" points="769,335.75,779,339.75,769,343.75,773,339.75" style="stroke:#181818;stroke-width:1.0;"/><line style="stroke:#181818;stroke-width:1.0;" x1="246" x2="775" y1="339.75" y2="339.75"/><text fill="#000000" font-family="NanumGothic" font-size="13" lengthAdjust="spacing" textLength="516" x="253" y="334.76">TransactionEventRequest(eventType = Updated, trigger = ChargingRateChanged, ...)</text><polygon fill="#181818" points="257,364.7,247,368.7,257,372.7,253,368.7" style="stroke:#181818;stroke-width:1.0;"/><line style="stroke:#181818;stroke-width:1.0;stroke-dasharray:2.0,2.0;" x1="251" x2="780" y1="368.7" y2="368.7"/><text fill="#000000" font-family="NanumGothic" font-size="13" lengthAdjust="spacing" textLength="183" x="263" y="363.71">TransactionEventResponse(...)</text><!--SRC=[bL6nIWD14EttAqQh13GV4D0cfX0KmOkTpN8tdWkNlNDl4v8kI2nK44KKaLDJH4LG41CqXVvGTlCFxbqIZMSiR9RPcNblvhsPOTpsAWv2AEiUve9AsICae48ocmMKIvWjrYGAJZqe-5mAtmEh7aeiR_8CrcWvy12MhBNiBD0GYWNh9xQmJONBk0kMf9BvFEaQ9qUv5C9QjOPT9Y34CCByOXgIX_vRJzqzgjC8T2iQd4KmEEkQY51RiYgLcApozKbF97uWON3GKzUHldxIUnVwgWlwlZautzVj4ttLW_xBXxvy9W2cqxoGffYwb7vzqAqcw8EsVc_esowemxO-ZA3VQUhTc0ovGyZ_k7weI_3JqCQhF1Gyf0ATSNs5bPbSnvqAXZA3rH2NdJcm9ukMNn4sPYTyIZoFNvYVjjJq2M7Wyn0pMU9WYYcsUIX4tUoFjCHM9q33mbsqcClP5hCfjr5rkiOnKFT7SPFgDCmLr77qVOm_fPS4vM4ytEV5Al89sUPJgWS82x0HE6Opuu4Kp7LHcDIORzqKXkkOSYwNovfPAIa0VzloU_h8aeGgFjed]--></g></svg>