<?xml version="1.0" encoding="us-ascii" standalone="no"?><svg xmlns="http://www.w3.org/2000/svg" xmlns:xlink="http://www.w3.org/1999/xlink" contentStyleType="text/css" height="886px" preserveAspectRatio="none" style="width:786px;height:886px;background:#FFFFFF;" version="1.1" viewBox="0 0 786 886" width="786px" zoomAndPan="magnify"><defs/><g><rect fill="#FFFFFF" height="57.9" style="stroke:#181818;stroke-width:1.0;" width="10" x="114" y="172.95"/><rect fill="#FFFFFF" height="28.95" style="stroke:#181818;stroke-width:1.0;" width="10" x="114" y="307.7"/><rect fill="#FFFFFF" height="57.9" style="stroke:#181818;stroke-width:1.0;" width="10" x="114" y="465.15"/><rect fill="#FFFFFF" height="28.95" style="stroke:#181818;stroke-width:1.0;" width="10" x="114" y="599.9"/><rect fill="#FFFFFF" height="28.95" style="stroke:#181818;stroke-width:1.0;" width="10" x="114" y="811.55"/><rect fill="#FFFFFF" height="219.65" style="stroke:#181818;stroke-width:1.0;" width="10" x="503" y="201.9"/><rect fill="#FFFFFF" height="376.4" style="stroke:#181818;stroke-width:1.0;" width="10" x="503" y="494.1"/><rect fill="none" height="727.45" style="stroke:#000000;stroke-width:1.5;" width="764" x="10" y="135.05"/><rect fill="none" height="105.8" style="stroke:#000000;stroke-width:1.5;" width="515.5" x="72.5" y="245.85"/><rect fill="none" height="74.85" style="stroke:#000000;stroke-width:1.5;" width="495.5" x="82.5" y="269.8"/><rect fill="none" height="105.8" style="stroke:#000000;stroke-width:1.5;" width="515.5" x="72.5" y="538.05"/><rect fill="none" height="74.85" style="stroke:#000000;stroke-width:1.5;" width="495.5" x="82.5" y="562"/><rect fill="none" height="105.8" style="stroke:#000000;stroke-width:1.5;" width="515.5" x="72.5" y="749.7"/><rect fill="none" height="74.85" style="stroke:#000000;stroke-width:1.5;" width="495.5" x="82.5" y="773.65"/><line style="stroke:#181818;stroke-width:0.5;stroke-dasharray:5.0,5.0;" x1="37" x2="37" y1="83.1" y2="879.5"/><line style="stroke:#181818;stroke-width:0.5;stroke-dasharray:5.0,5.0;" x1="118.5" x2="118.5" y1="83.1" y2="879.5"/><line style="stroke:#181818;stroke-width:0.5;stroke-dasharray:5.0,5.0;" x1="508" x2="508" y1="83.1" y2="879.5"/><text fill="#000000" font-family="NanumGothic" font-size="14" lengthAdjust="spacing" textLength="28" x="20" y="79.88">CSO</text><ellipse cx="37" cy="14.5" fill="#E2E2F0" rx="8" ry="8" style="stroke:#7D5393;stroke-width:1.5;"/><path d="M37,22.5 L37,49.5 M24,30.5 L50,30.5 M37,49.5 L24,64.5 M37,49.5 L50,64.5 " fill="none" style="stroke:#7D5393;stroke-width:1.5;"/><rect fill="#7D5393" height="30.1" rx="2.5" ry="2.5" style="stroke:#181818;stroke-width:0.5;" width="53" x="92.5" y="52"/><text fill="#FFFFFF" font-family="NanumGothic" font-size="14" lengthAdjust="spacing" textLength="39" x="99.5" y="71.88">CSMS</text><rect fill="#7D5393" height="30.1" rx="2.5" ry="2.5" style="stroke:#181818;stroke-width:0.5;" width="120" x="448" y="52"/><text fill="#FFFFFF" font-family="NanumGothic" font-size="14" lengthAdjust="spacing" textLength="106" x="455" y="71.88">Charging Station</text><rect fill="#FFFFFF" height="57.9" style="stroke:#181818;stroke-width:1.0;" width="10" x="114" y="172.95"/><rect fill="#FFFFFF" height="28.95" style="stroke:#181818;stroke-width:1.0;" width="10" x="114" y="307.7"/><rect fill="#FFFFFF" height="57.9" style="stroke:#181818;stroke-width:1.0;" width="10" x="114" y="465.15"/><rect fill="#FFFFFF" height="28.95" style="stroke:#181818;stroke-width:1.0;" width="10" x="114" y="599.9"/><rect fill="#FFFFFF" height="28.95" style="stroke:#181818;stroke-width:1.0;" width="10" x="114" y="811.55"/><rect fill="#FFFFFF" height="219.65" style="stroke:#181818;stroke-width:1.0;" width="10" x="503" y="201.9"/><rect fill="#FFFFFF" height="376.4" style="stroke:#181818;stroke-width:1.0;" width="10" x="503" y="494.1"/><path d="M354,98.1 L354,122.1 L503,122.1 L503,108.1 L493,98.1 L354,98.1 " fill="#7D5393" style="stroke:#000000;stroke-width:0.5;"/><path d="M493,98.1 L493,108.1 L503,108.1 L493,98.1 " fill="#7D5393" style="stroke:#000000;stroke-width:0.5;"/><text fill="#FFFFFF" font-family="NanumGothic" font-size="13" lengthAdjust="spacing" textLength="128" x="360" y="115.06">&#54876;&#49457;&#54868;&#46108; &#53944;&#47004;&#51117;&#49496; &#50630;&#51020;</text><path d="M10,135.05 L70,135.05 L70,142 L60,152 L10,152 L10,135.05 " fill="#EEEEEE" style="stroke:#000000;stroke-width:1.5;"/><rect fill="none" height="727.45" style="stroke:#000000;stroke-width:1.5;" width="764" x="10" y="135.05"/><text fill="#000000" font-family="NanumGothic" font-size="13" font-weight="bold" lengthAdjust="spacing" textLength="15" x="25" y="148.01">alt</text><text fill="#000000" font-family="NanumGothic" font-size="11" font-weight="bold" lengthAdjust="spacing" textLength="61" x="85" y="147.17">[&#52649;&#51204;&#44592; &#47532;&#49483;]</text><polygon fill="#181818" points="102,168.95,112,172.95,102,176.95,106,172.95" style="stroke:#181818;stroke-width:1.0;"/><line style="stroke:#181818;stroke-width:1.0;" x1="37" x2="108" y1="172.95" y2="172.95"/><text fill="#000000" font-family="NanumGothic" font-size="13" lengthAdjust="spacing" textLength="44" x="44" y="167.96">CS &#47532;&#49483;</text><polygon fill="#181818" points="491,197.9,501,201.9,491,205.9,495,201.9" style="stroke:#181818;stroke-width:1.0;"/><line style="stroke:#181818;stroke-width:1.0;" x1="124" x2="497" y1="201.9" y2="201.9"/><text fill="#000000" font-family="NanumGothic" font-size="13" lengthAdjust="spacing" textLength="206" x="131" y="196.91">ResetRequest(OnIdle | Immediate)</text><polygon fill="#181818" points="130,226.85,120,230.85,130,234.85,126,230.85" style="stroke:#181818;stroke-width:1.0;"/><line style="stroke:#181818;stroke-width:1.0;stroke-dasharray:2.0,2.0;" x1="124" x2="502" y1="230.85" y2="230.85"/><text fill="#000000" font-family="NanumGothic" font-size="13" lengthAdjust="spacing" textLength="138" x="136" y="225.86">ResetResponse(status)</text><path d="M72.5,245.85 L138.5,245.85 L138.5,252.8 L128.5,262.8 L72.5,262.8 L72.5,245.85 " fill="#EEEEEE" style="stroke:#000000;stroke-width:1.5;"/><rect fill="none" height="105.8" style="stroke:#000000;stroke-width:1.5;" width="515.5" x="72.5" y="245.85"/><text fill="#000000" font-family="NanumGothic" font-size="13" font-weight="bold" lengthAdjust="spacing" textLength="21" x="87.5" y="258.81">opt</text><text fill="#000000" font-family="NanumGothic" font-size="11" font-weight="bold" lengthAdjust="spacing" textLength="236" x="153.5" y="257.97">[&#47532;&#49483; &#44592;&#44036; &#46041;&#50504; &#47784;&#46304; &#52964;&#45349;&#53552;&#47484; Unavailable&#47196; &#48372;&#44256;]</text><path d="M82.5,269.8 L154.5,269.8 L154.5,276.75 L144.5,286.75 L82.5,286.75 L82.5,269.8 " fill="#EEEEEE" style="stroke:#000000;stroke-width:1.5;"/><rect fill="none" height="74.85" style="stroke:#000000;stroke-width:1.5;" width="495.5" x="82.5" y="269.8"/><text fill="#000000" font-family="NanumGothic" font-size="13" font-weight="bold" lengthAdjust="spacing" textLength="27" x="97.5" y="282.76">loop</text><text fill="#000000" font-family="NanumGothic" font-size="11" font-weight="bold" lengthAdjust="spacing" textLength="132" x="169.5" y="281.92">[&#47784;&#46304; EVSE&#51032; &#52964;&#45349;&#53552;&#50640; &#45824;&#54644;]</text><polygon fill="#181818" points="135,303.7,125,307.7,135,311.7,131,307.7" style="stroke:#181818;stroke-width:1.0;"/><line style="stroke:#181818;stroke-width:1.0;" x1="129" x2="502" y1="307.7" y2="307.7"/><text fill="#000000" font-family="NanumGothic" font-size="13" lengthAdjust="spacing" textLength="255" x="141" y="302.71">StatusNotificationRequest(Unavailable, ...)</text><polygon fill="#181818" points="491,332.65,501,336.65,491,340.65,495,336.65" style="stroke:#181818;stroke-width:1.0;"/><line style="stroke:#181818;stroke-width:1.0;stroke-dasharray:2.0,2.0;" x1="119" x2="497" y1="336.65" y2="336.65"/><text fill="#000000" font-family="NanumGothic" font-size="13" lengthAdjust="spacing" textLength="176" x="126" y="331.66">StatusNotificationResponse()</text><line style="stroke:#181818;stroke-width:1.0;" x1="513" x2="555" y1="379.6" y2="379.6"/><line style="stroke:#181818;stroke-width:1.0;" x1="555" x2="555" y1="379.6" y2="392.6"/><line style="stroke:#181818;stroke-width:1.0;" x1="514" x2="555" y1="392.6" y2="392.6"/><polygon fill="#181818" points="524,388.6,514,392.6,524,396.6,520,392.6" style="stroke:#181818;stroke-width:1.0;"/><text fill="#000000" font-family="NanumGothic" font-size="13" lengthAdjust="spacing" textLength="76" x="520" y="374.61">&#52649;&#51204;&#44592; &#51116;&#48512;&#54021;</text><ellipse cx="776.5" cy="420.8" fill="none" rx="4" ry="4" style="stroke:#181818;stroke-width:1.5;"/><polygon fill="#181818" points="759.5,417.55,769.5,421.55,759.5,425.55,763.5,421.55" style="stroke:#181818;stroke-width:1.0;"/><line style="stroke:#181818;stroke-width:1.0;" x1="508" x2="765.5" y1="421.55" y2="421.55"/><text fill="#000000" font-family="NanumGothic" font-size="13" lengthAdjust="spacing" textLength="245" x="515" y="416.56">B01 - Cold Boot Charging Station&#47196; &#44228;&#49549;</text><line style="stroke:#000000;stroke-width:1.0;stroke-dasharray:2.0,2.0;" x1="10" x2="774" y1="430.55" y2="430.55"/><text fill="#000000" font-family="NanumGothic" font-size="11" font-weight="bold" lengthAdjust="spacing" textLength="66" x="15" y="440.67">[EVSE &#51116;&#48512;&#54021;]</text><polygon fill="#181818" points="102,461.15,112,465.15,102,469.15,106,465.15" style="stroke:#181818;stroke-width:1.0;"/><line style="stroke:#181818;stroke-width:1.0;" x1="37" x2="108" y1="465.15" y2="465.15"/><text fill="#000000" font-family="NanumGothic" font-size="13" lengthAdjust="spacing" textLength="58" x="44" y="460.16">EVSE &#47532;&#49483;</text><polygon fill="#181818" points="491,490.1,501,494.1,491,498.1,495,494.1" style="stroke:#181818;stroke-width:1.0;"/><line style="stroke:#181818;stroke-width:1.0;" x1="124" x2="497" y1="494.1" y2="494.1"/><text fill="#000000" font-family="NanumGothic" font-size="13" lengthAdjust="spacing" textLength="251" x="131" y="489.11">ResetRequest(OnIdle | Immediate, evseId)</text><polygon fill="#181818" points="130,519.05,120,523.05,130,527.05,126,523.05" style="stroke:#181818;stroke-width:1.0;"/><line style="stroke:#181818;stroke-width:1.0;stroke-dasharray:2.0,2.0;" x1="124" x2="502" y1="523.05" y2="523.05"/><text fill="#000000" font-family="NanumGothic" font-size="13" lengthAdjust="spacing" textLength="138" x="136" y="518.06">ResetResponse(status)</text><path d="M72.5,538.05 L138.5,538.05 L138.5,545 L128.5,555 L72.5,555 L72.5,538.05 " fill="#EEEEEE" style="stroke:#000000;stroke-width:1.5;"/><rect fill="none" height="105.8" style="stroke:#000000;stroke-width:1.5;" width="515.5" x="72.5" y="538.05"/><text fill="#000000" font-family="NanumGothic" font-size="13" font-weight="bold" lengthAdjust="spacing" textLength="21" x="87.5" y="551.01">opt</text><text fill="#000000" font-family="NanumGothic" font-size="11" font-weight="bold" lengthAdjust="spacing" textLength="251" x="153.5" y="550.17">[&#47532;&#49483; &#44592;&#44036; &#46041;&#50504; EVSE&#51032; &#52964;&#45349;&#53552;&#47484; Unavailable&#47196; &#48372;&#44256;]</text><path d="M82.5,562 L154.5,562 L154.5,568.95 L144.5,578.95 L82.5,578.95 L82.5,562 " fill="#EEEEEE" style="stroke:#000000;stroke-width:1.5;"/><rect fill="none" height="74.85" style="stroke:#000000;stroke-width:1.5;" width="495.5" x="82.5" y="562"/><text fill="#000000" font-family="NanumGothic" font-size="13" font-weight="bold" lengthAdjust="spacing" textLength="27" x="97.5" y="574.96">loop</text><text fill="#000000" font-family="NanumGothic" font-size="11" font-weight="bold" lengthAdjust="spacing" textLength="132" x="169.5" y="574.12">[&#47784;&#46304; &#52964;&#45349;&#53552;&#51032; EVSE&#50640; &#45824;&#54644;]</text><polygon fill="#181818" points="491,595.9,501,599.9,491,603.9,495,599.9" style="stroke:#181818;stroke-width:1.0;"/><line style="stroke:#181818;stroke-width:1.0;" x1="124" x2="497" y1="599.9" y2="599.9"/><text fill="#000000" font-family="NanumGothic" font-size="13" lengthAdjust="spacing" textLength="360" x="131" y="594.91">StatusNotificationRequest(Unavailable, evseId, connectorId)</text><polygon fill="#181818" points="130,624.85,120,628.85,130,632.85,126,628.85" style="stroke:#181818;stroke-width:1.0;"/><line style="stroke:#181818;stroke-width:1.0;stroke-dasharray:2.0,2.0;" x1="124" x2="502" y1="628.85" y2="628.85"/><text fill="#000000" font-family="NanumGothic" font-size="13" lengthAdjust="spacing" textLength="176" x="136" y="623.86">StatusNotificationResponse()</text><path d="M445,655.85 L445,694.85 L570,694.85 L570,665.85 L560,655.85 L445,655.85 " fill="#7D5393" style="stroke:#000000;stroke-width:0.5;"/><path d="M560,655.85 L560,665.85 L570,665.85 L560,655.85 " fill="#7D5393" style="stroke:#000000;stroke-width:0.5;"/><text fill="#FFFFFF" font-family="NanumGothic" font-size="13" lengthAdjust="spacing" textLength="104" x="451" y="672.81">&#52649;&#51204;&#44592; &#51116;&#48512;&#54021; &#50630;&#51060;</text><text fill="#FFFFFF" font-family="NanumGothic" font-size="13" lengthAdjust="spacing" textLength="58" x="451" y="687.76">EVSE &#47532;&#49483;</text><line style="stroke:#181818;stroke-width:1.0;" x1="513" x2="555" y1="721.7" y2="721.7"/><line style="stroke:#181818;stroke-width:1.0;" x1="555" x2="555" y1="721.7" y2="734.7"/><line style="stroke:#181818;stroke-width:1.0;" x1="514" x2="555" y1="734.7" y2="734.7"/><polygon fill="#181818" points="524,730.7,514,734.7,524,738.7,520,734.7" style="stroke:#181818;stroke-width:1.0;"/><text fill="#000000" font-family="NanumGothic" font-size="13" lengthAdjust="spacing" textLength="58" x="520" y="716.71">EVSE &#47532;&#49483;</text><path d="M72.5,749.7 L138.5,749.7 L138.5,756.65 L128.5,766.65 L72.5,766.65 L72.5,749.7 " fill="#EEEEEE" style="stroke:#000000;stroke-width:1.5;"/><rect fill="none" height="105.8" style="stroke:#000000;stroke-width:1.5;" width="515.5" x="72.5" y="749.7"/><text fill="#000000" font-family="NanumGothic" font-size="13" font-weight="bold" lengthAdjust="spacing" textLength="21" x="87.5" y="762.66">opt</text><text fill="#000000" font-family="NanumGothic" font-size="11" font-weight="bold" lengthAdjust="spacing" textLength="192" x="153.5" y="761.82">[EVSE&#51032; &#47784;&#46304; &#52964;&#45349;&#53552;&#47484; Available&#47196; &#48372;&#44256;]</text><path d="M82.5,773.65 L154.5,773.65 L154.5,780.6 L144.5,790.6 L82.5,790.6 L82.5,773.65 " fill="#EEEEEE" style="stroke:#000000;stroke-width:1.5;"/><rect fill="none" height="74.85" style="stroke:#000000;stroke-width:1.5;" width="495.5" x="82.5" y="773.65"/><text fill="#000000" font-family="NanumGothic" font-size="13" font-weight="bold" lengthAdjust="spacing" textLength="27" x="97.5" y="786.61">loop</text><text fill="#000000" font-family="NanumGothic" font-size="11" font-weight="bold" lengthAdjust="spacing" textLength="132" x="169.5" y="785.77">[&#47784;&#46304; &#52964;&#45349;&#53552;&#51032; EVSE&#50640; &#45824;&#54644;]</text><polygon fill="#181818" points="135,807.55,125,811.55,135,815.55,131,811.55" style="stroke:#181818;stroke-width:1.0;"/><line style="stroke:#181818;stroke-width:1.0;" x1="129" x2="502" y1="811.55" y2="811.55"/><text fill="#000000" font-family="NanumGothic" font-size="13" lengthAdjust="spacing" textLength="360" x="141" y="806.56">StatusNotificationRequest(Unavailable, evseId, connectorId)</text><polygon fill="#181818" points="491,836.5,501,840.5,491,844.5,495,840.5" style="stroke:#181818;stroke-width:1.0;"/><line style="stroke:#181818;stroke-width:1.0;stroke-dasharray:2.0,2.0;" x1="119" x2="497" y1="840.5" y2="840.5"/><text fill="#000000" font-family="NanumGothic" font-size="13" lengthAdjust="spacing" textLength="176" x="126" y="835.51">StatusNotificationResponse()</text><!--SRC=[nLH1QnD15BxlhtZsr48Iz9g3O4iFESH25xrvMBEJTc0oisOc0S533viY6h6WfGsa8O8LbGgHb5BGNvIP_G_EpkwwoUu68aQypCAyUT_xtlU-VNSmRP2EYu2BvmHLl4wBM9RJ4AmD6plstWOu7FJNyfosm0tiELI4WReTH-fs9dJej0ymFG1RE08p6ZsBB-Cxow9C822eAO0rSr60O31K_lTWy5wU325uTIj7GpNwfdhdeCwErKNVGjI544DJ9GBKpHSrzcUt4v2VhbJljKRGbA5yt_2hwZCDwDPmrz7L3NNpicwRfuiigh2FE1Bxw5a7SR6vHsikGV02QgqMSh46s5e0opO8sIie_wOJ0tEFKOuskOvtU8ZceXmvvecOEkZsPXCVvDk1Edq9ykjd-MuCwiT7wLy6_aHU_eH7rEawc3XF2P8VXY2drxFfM8C04CQy96NtiRshBixJL7Ls0h9_59nUcxS5p1FYjg7wa0dSn0qJI-IPArs2IgMo5KFb6ZBuHl4YoOiAn38bY5cHmZlj1YiwhMBssJgfOTJeIjuS1VrUSIfxKeNjk_UW33kCkB3Dc82imqEjPrDV7R_9p33Z2KGuCkhF5SqOrKJNRzKIe2v7DVV_MZPdlDKzctfLvnkSd6UNIREYPoE1Ij1WbA9m-qLgBVVmKgdMuM6p7baNjGjs8nIvDzgBaHYB9aetvMg_ndnsFCraS4Kxvy5wflUN6-UFf_SFDr1u_080]--></g></svg>