<?xml version="1.0" encoding="us-ascii" standalone="no"?><svg xmlns="http://www.w3.org/2000/svg" xmlns:xlink="http://www.w3.org/1999/xlink" contentStyleType="text/css" height="604px" preserveAspectRatio="none" style="width:991px;height:604px;background:#FFFFFF;" version="1.1" viewBox="0 0 991 604" width="991px" zoomAndPan="magnify"><defs/><g><rect fill="#FFFFFF" height="206.6501" style="stroke:#181818;stroke-width:1.0;" width="10" x="262.5" y="114.0499"/><rect fill="#FFFFFF" height="222.5998" style="stroke:#181818;stroke-width:1.0;" width="10" x="262.5" y="349.65"/><rect fill="#FFFFFF" height="28.95" style="stroke:#181818;stroke-width:1.0;" width="10" x="943.5" y="166.95"/><rect fill="#FFFFFF" height="28.95" style="stroke:#181818;stroke-width:1.0;" width="10" x="943.5" y="291.75"/><rect fill="#FFFFFF" height="28.95" style="stroke:#181818;stroke-width:1.0;" width="10" x="943.5" y="425.4998"/><rect fill="#FFFFFF" height="28.95" style="stroke:#181818;stroke-width:1.0;" width="10" x="943.5" y="490.3998"/><rect fill="none" height="74.85" style="stroke:#000000;stroke-width:1.5;" width="787.5" x="197.5" y="129.0499"/><rect fill="none" height="45.9" style="stroke:#000000;stroke-width:1.5;" width="327.5" x="10" y="217.9"/><rect fill="none" height="97.7998" style="stroke:#000000;stroke-width:1.5;" width="787.5" x="197.5" y="364.65"/><rect fill="none" height="45.9" style="stroke:#000000;stroke-width:1.5;" width="248.5" x="89" y="534.3498"/><line style="stroke:#181818;stroke-width:0.5;stroke-dasharray:5.0,5.0;" x1="54" x2="54" y1="83.0999" y2="597.2499"/><line style="stroke:#181818;stroke-width:0.5;stroke-dasharray:5.0,5.0;" x1="133" x2="133" y1="83.0999" y2="597.2499"/><line style="stroke:#181818;stroke-width:0.5;stroke-dasharray:5.0,5.0;" x1="267.5" x2="267.5" y1="83.0999" y2="597.2499"/><line style="stroke:#181818;stroke-width:0.5;stroke-dasharray:5.0,5.0;" x1="948" x2="948" y1="83.0999" y2="597.2499"/><text fill="#000000" font-family="NanumGothic" font-size="14" lengthAdjust="spacing" textLength="63" x="20" y="79.8799">EVDriver1</text><ellipse cx="54.5" cy="14.5" fill="#E2E2F0" rx="8" ry="8" style="stroke:#7D5393;stroke-width:1.5;"/><path d="M54.5,22.5 L54.5,49.5 M41.5,30.5 L67.5,30.5 M54.5,49.5 L41.5,64.5 M54.5,49.5 L67.5,64.5 " fill="none" style="stroke:#7D5393;stroke-width:1.5;"/><text fill="#000000" font-family="NanumGothic" font-size="14" lengthAdjust="spacing" textLength="63" x="99" y="79.8799">EVDriver2</text><ellipse cx="133.5" cy="14.5" fill="#E2E2F0" rx="8" ry="8" style="stroke:#7D5393;stroke-width:1.5;"/><path d="M133.5,22.5 L133.5,49.5 M120.5,30.5 L146.5,30.5 M133.5,49.5 L120.5,64.5 M133.5,49.5 L146.5,64.5 " fill="none" style="stroke:#7D5393;stroke-width:1.5;"/><rect fill="#7D5393" height="30.0999" rx="2.5" ry="2.5" style="stroke:#181818;stroke-width:0.5;" width="120" x="207.5" y="52"/><text fill="#FFFFFF" font-family="NanumGothic" font-size="14" lengthAdjust="spacing" textLength="106" x="214.5" y="71.8799">Charging Station</text><rect fill="#7D5393" height="30.0999" rx="2.5" ry="2.5" style="stroke:#181818;stroke-width:0.5;" width="53" x="922" y="52"/><text fill="#FFFFFF" font-family="NanumGothic" font-size="14" lengthAdjust="spacing" textLength="39" x="929" y="71.8799">CSMS</text><rect fill="#FFFFFF" height="206.6501" style="stroke:#181818;stroke-width:1.0;" width="10" x="262.5" y="114.0499"/><rect fill="#FFFFFF" height="222.5998" style="stroke:#181818;stroke-width:1.0;" width="10" x="262.5" y="349.65"/><rect fill="#FFFFFF" height="28.95" style="stroke:#181818;stroke-width:1.0;" width="10" x="943.5" y="166.95"/><rect fill="#FFFFFF" height="28.95" style="stroke:#181818;stroke-width:1.0;" width="10" x="943.5" y="291.75"/><rect fill="#FFFFFF" height="28.95" style="stroke:#181818;stroke-width:1.0;" width="10" x="943.5" y="425.4998"/><rect fill="#FFFFFF" height="28.95" style="stroke:#181818;stroke-width:1.0;" width="10" x="943.5" y="490.3998"/><polygon fill="#181818" points="250.5,110.0499,260.5,114.0499,250.5,118.0499,254.5,114.0499" style="stroke:#181818;stroke-width:1.0;"/><line style="stroke:#181818;stroke-width:1.0;" x1="54.5" x2="256.5" y1="114.0499" y2="114.0499"/><text fill="#000000" font-family="NanumGothic" font-size="13" lengthAdjust="spacing" textLength="110" x="61.5" y="109.0599">IdToken(001) &#51228;&#49884;</text><path d="M197.5,129.0499 L263.5,129.0499 L263.5,136 L253.5,146 L197.5,146 L197.5,129.0499 " fill="#EEEEEE" style="stroke:#000000;stroke-width:1.5;"/><rect fill="none" height="74.85" style="stroke:#000000;stroke-width:1.5;" width="787.5" x="197.5" y="129.0499"/><text fill="#000000" font-family="NanumGothic" font-size="13" font-weight="bold" lengthAdjust="spacing" textLength="21" x="212.5" y="142.01">opt</text><text fill="#000000" font-family="NanumGothic" font-size="11" font-weight="bold" lengthAdjust="spacing" textLength="415" x="278.5" y="141.1699">[IdToken&#51060; Local Authorization List &#46608;&#45716; Authorization Cache&#50640; &#51316;&#51116;&#54616;&#51648; &#50506;&#45716; &#44221;&#50864;]</text><polygon fill="#181818" points="931.5,162.95,941.5,166.95,931.5,170.95,935.5,166.95" style="stroke:#181818;stroke-width:1.0;"/><line style="stroke:#181818;stroke-width:1.0;" x1="272.5" x2="937.5" y1="166.95" y2="166.95"/><text fill="#000000" font-family="NanumGothic" font-size="13" lengthAdjust="spacing" textLength="207" x="279.5" y="161.96">AuthorizeRequest(IdToken = 001)</text><polygon fill="#181818" points="283.5,191.9,273.5,195.9,283.5,199.9,279.5,195.9" style="stroke:#181818;stroke-width:1.0;"/><line style="stroke:#181818;stroke-width:1.0;stroke-dasharray:2.0,2.0;" x1="277.5" x2="947.5" y1="195.9" y2="195.9"/><text fill="#000000" font-family="NanumGothic" font-size="13" lengthAdjust="spacing" textLength="298" x="289.5" y="190.91">AuthorizeResponse(groupIdToken = 123, status)</text><path d="M10,217.9 L76,217.9 L76,224.85 L66,234.85 L10,234.85 L10,217.9 " fill="#EEEEEE" style="stroke:#000000;stroke-width:1.5;"/><rect fill="none" height="45.9" style="stroke:#000000;stroke-width:1.5;" width="327.5" x="10" y="217.9"/><text fill="#000000" font-family="NanumGothic" font-size="13" font-weight="bold" lengthAdjust="spacing" textLength="21" x="25" y="230.86">opt</text><polygon fill="#181818" points="65.5,251.8,55.5,255.8,65.5,259.8,61.5,255.8" style="stroke:#181818;stroke-width:1.0;"/><line style="stroke:#181818;stroke-width:1.0;stroke-dasharray:2.0,2.0;" x1="59.5" x2="261.5" y1="255.8" y2="255.8"/><text fill="#000000" font-family="NanumGothic" font-size="13" lengthAdjust="spacing" textLength="24" x="71.5" y="250.81">&#50508;&#47548;</text><polygon fill="#181818" points="931.5,287.75,941.5,291.75,931.5,295.75,935.5,291.75" style="stroke:#181818;stroke-width:1.0;"/><line style="stroke:#181818;stroke-width:1.0;" x1="272.5" x2="937.5" y1="291.75" y2="291.75"/><text fill="#000000" font-family="NanumGothic" font-size="13" lengthAdjust="spacing" textLength="481" x="279.5" y="286.76">TransactionEventRequest(eventType = Started, triggerReason = Authorized, ...)</text><polygon fill="#181818" points="278.5,316.7,268.5,320.7,278.5,324.7,274.5,320.7" style="stroke:#181818;stroke-width:1.0;"/><line style="stroke:#181818;stroke-width:1.0;stroke-dasharray:2.0,2.0;" x1="272.5" x2="947.5" y1="320.7" y2="320.7"/><text fill="#000000" font-family="NanumGothic" font-size="13" lengthAdjust="spacing" textLength="183" x="284.5" y="315.71">TransactionEventResponse(...)</text><polygon fill="#181818" points="250.5,345.65,260.5,349.65,250.5,353.65,254.5,349.65" style="stroke:#181818;stroke-width:1.0;"/><line style="stroke:#181818;stroke-width:1.0;" x1="133.5" x2="256.5" y1="349.65" y2="349.65"/><text fill="#000000" font-family="NanumGothic" font-size="13" lengthAdjust="spacing" textLength="110" x="140.5" y="344.66">IdToken(002) &#51228;&#49884;</text><path d="M197.5,364.65 L263.5,364.65 L263.5,371.6001 L253.5,381.6001 L197.5,381.6001 L197.5,364.65 " fill="#EEEEEE" style="stroke:#000000;stroke-width:1.5;"/><rect fill="none" height="97.7998" style="stroke:#000000;stroke-width:1.5;" width="787.5" x="197.5" y="364.65"/><text fill="#000000" font-family="NanumGothic" font-size="13" font-weight="bold" lengthAdjust="spacing" textLength="21" x="212.5" y="377.6101">opt</text><text fill="#000000" font-family="NanumGothic" font-size="11" font-weight="bold" lengthAdjust="spacing" textLength="428" x="278.5" y="376.77">[&#53944;&#47004;&#51117;&#49496;&#51012; &#51473;&#45800;&#54616;&#45716; &#45936; &#49324;&#50857;&#54620; IdToken&#51060; &#53944;&#47004;&#51117;&#49496;&#51012; &#49884;&#51089;&#54616;&#45716; &#45936; &#49324;&#50857;&#54620; IdToken&#44284; &#45796;&#47476;&#44256;</text><text fill="#000000" font-family="NanumGothic" font-size="11" font-weight="bold" lengthAdjust="spacing" textLength="621" x="278.5" y="389.4199">(Local Authorization List &#46608;&#45716; Authorization Cache&#50640; &#53944;&#47004;&#51117;&#49496;&#51012; &#49884;&#51089;&#54616;&#44144;&#45208; &#51333;&#47308;&#54616;&#45716; &#45936; &#49324;&#50857;&#54620; GroupIdToken&#51060; &#50630;&#44144;&#45208; &#44057;&#51020;)&#51060;</text><text fill="#000000" font-family="NanumGothic" font-size="11" font-weight="bold" lengthAdjust="spacing" textLength="47" x="278.5" y="402.0698">&#50500;&#45772; &#44221;&#50864;]</text><polygon fill="#181818" points="931.5,421.4998,941.5,425.4998,931.5,429.4998,935.5,425.4998" style="stroke:#181818;stroke-width:1.0;"/><line style="stroke:#181818;stroke-width:1.0;" x1="272.5" x2="937.5" y1="425.4998" y2="425.4998"/><text fill="#000000" font-family="NanumGothic" font-size="13" lengthAdjust="spacing" textLength="207" x="279.5" y="420.5098">AuthorizeRequest(IdToken = 002)</text><polygon fill="#181818" points="283.5,450.4498,273.5,454.4498,283.5,458.4498,279.5,454.4498" style="stroke:#181818;stroke-width:1.0;"/><line style="stroke:#181818;stroke-width:1.0;stroke-dasharray:2.0,2.0;" x1="277.5" x2="947.5" y1="454.4498" y2="454.4498"/><text fill="#000000" font-family="NanumGothic" font-size="13" lengthAdjust="spacing" textLength="298" x="289.5" y="449.4598">AuthorizeResponse(groupIdToken = 123, status)</text><polygon fill="#181818" points="931.5,486.3998,941.5,490.3998,931.5,494.3998,935.5,490.3998" style="stroke:#181818;stroke-width:1.0;"/><line style="stroke:#181818;stroke-width:1.0;" x1="272.5" x2="937.5" y1="490.3998" y2="490.3998"/><text fill="#000000" font-family="NanumGothic" font-size="13" lengthAdjust="spacing" textLength="652" x="279.5" y="485.4098">TransactionEventRequest(eventType = Ended, triggerReason = StopAuthorized, stoppedReason = Local, ...)</text><polygon fill="#181818" points="283.5,515.3498,273.5,519.3498,283.5,523.3498,279.5,519.3498" style="stroke:#181818;stroke-width:1.0;"/><line style="stroke:#181818;stroke-width:1.0;stroke-dasharray:2.0,2.0;" x1="277.5" x2="947.5" y1="519.3498" y2="519.3498"/><text fill="#000000" font-family="NanumGothic" font-size="13" lengthAdjust="spacing" textLength="183" x="289.5" y="514.3598">TransactionEventResponse(...)</text><path d="M89,534.3498 L155,534.3498 L155,541.2998 L145,551.2998 L89,551.2998 L89,534.3498 " fill="#EEEEEE" style="stroke:#000000;stroke-width:1.5;"/><rect fill="none" height="45.9" style="stroke:#000000;stroke-width:1.5;" width="248.5" x="89" y="534.3498"/><text fill="#000000" font-family="NanumGothic" font-size="13" font-weight="bold" lengthAdjust="spacing" textLength="21" x="104" y="547.3098">opt</text><polygon fill="#181818" points="144.5,568.2499,134.5,572.2499,144.5,576.2499,140.5,572.2499" style="stroke:#181818;stroke-width:1.0;"/><line style="stroke:#181818;stroke-width:1.0;stroke-dasharray:2.0,2.0;" x1="138.5" x2="266.5" y1="572.2499" y2="572.2499"/><text fill="#000000" font-family="NanumGothic" font-size="13" lengthAdjust="spacing" textLength="24" x="150.5" y="567.2599">&#50508;&#47548;</text><!--SRC=[nLJFQzim5BxxhtZBAO4sDDujiC7emXXqboRij8kmXMEQIPui1xhJAEqESGOjB3GjIUZMxXTqaAqvxD3zGvRoFqno4zTnadLqZ9tifwVllUzx-gGxBh4QWOt1vziDNFI2vmt3G1Qd37ALfm-PsyIib0FaGn9bq-PCsZGynBXhkHuY77BhTSGSbpXGvOYxbCHxfukJjGoY-gHwjKlz64RI5bRlPu5bU6pNw1Oc-RMrKW7aIK-6FKtFRIAEvzeOrEDJXEoFO8DQg04F0bwdp7qPxu4Dr-SWklkYzJQJMKTM7Sl3VP3lHd9mFkvqvQTN83ijlJNw_bCU3mt8zen9Antbf1ZUn2y2xFFyX0ZS0qrUGQzvny8X_iBg8jcfOhv7YO_p3gE1TrsoPDvTKKUAUE3hqZQUBOw97KzZ4M7LBvbvMUbhYu-NLu2bsceC4LzteAJIn8HF9M8TrBOzh1Wf4EFONW7ENCV1R1CZdsggYHQLAnQB1ICpX-LJc6yx6KPS9giv7MUDaPZt1fEPVsYoSUk76FJauAlSwyh-BiYp0n5-LfRHNX5lXY1tpkNnbt6db_RZ72fKmS7lKD759OZmJ7mOHHSd0F2Cv6zfwgMzesz3iTC5-NvFdBONSdcKifwM8GzVJq3Hy4ZssmMzgBd9pgu8szExSklBOlwFo_9NtgyGUv7pgvnwQVVxAlQmdUJZe_otbo9swmslW9cy0hEpoHXVZGb-0G00]--></g></svg>