<?xml version="1.0" encoding="us-ascii" standalone="no"?><svg xmlns="http://www.w3.org/2000/svg" xmlns:xlink="http://www.w3.org/1999/xlink" contentStyleType="text/css" height="364px" preserveAspectRatio="none" style="width:801px;height:364px;background:#FFFFFF;" version="1.1" viewBox="0 0 801 364" width="801px" zoomAndPan="magnify"><defs/><g><rect fill="#FFFFFF" height="28.95" style="stroke:#181818;stroke-width:1.0;" width="10" x="419.5" y="91"/><rect fill="#FFFFFF" height="28.95" style="stroke:#181818;stroke-width:1.0;" width="10" x="753.5" y="91"/><rect fill="none" height="74.85" style="stroke:#000000;stroke-width:1.5;" width="440.5" x="354.5" y="53.1"/><line style="stroke:#181818;stroke-width:0.5;stroke-dasharray:5.0,5.0;" x1="210" x2="210" y1="36.1" y2="357.6"/><line style="stroke:#181818;stroke-width:0.5;stroke-dasharray:5.0,5.0;" x1="424.5" x2="424.5" y1="36.1" y2="357.6"/><line style="stroke:#181818;stroke-width:0.5;stroke-dasharray:5.0,5.0;" x1="758" x2="758" y1="36.1" y2="357.6"/><rect fill="#7D5393" height="30.1" rx="2.5" ry="2.5" style="stroke:#181818;stroke-width:0.5;" width="31" x="195" y="5"/><text fill="#FFFFFF" font-family="NanumGothic" font-size="14" lengthAdjust="spacing" textLength="17" x="202" y="24.88">EV</text><rect fill="#7D5393" height="30.1" rx="2.5" ry="2.5" style="stroke:#181818;stroke-width:0.5;" width="120" x="364.5" y="5"/><text fill="#FFFFFF" font-family="NanumGothic" font-size="14" lengthAdjust="spacing" textLength="106" x="371.5" y="24.88">Charging Station</text><rect fill="#7D5393" height="30.1" rx="2.5" ry="2.5" style="stroke:#181818;stroke-width:0.5;" width="53" x="732" y="5"/><text fill="#FFFFFF" font-family="NanumGothic" font-size="14" lengthAdjust="spacing" textLength="39" x="739" y="24.88">CSMS</text><rect fill="#FFFFFF" height="28.95" style="stroke:#181818;stroke-width:1.0;" width="10" x="419.5" y="91"/><rect fill="#FFFFFF" height="28.95" style="stroke:#181818;stroke-width:1.0;" width="10" x="753.5" y="91"/><path d="M354.5,53.1 L420.5,53.1 L420.5,60.05 L410.5,70.05 L354.5,70.05 L354.5,53.1 " fill="#EEEEEE" style="stroke:#000000;stroke-width:1.5;"/><rect fill="none" height="74.85" style="stroke:#000000;stroke-width:1.5;" width="440.5" x="354.5" y="53.1"/><text fill="#000000" font-family="NanumGothic" font-size="13" font-weight="bold" lengthAdjust="spacing" textLength="21" x="369.5" y="66.06">opt</text><text fill="#000000" font-family="NanumGothic" font-size="11" font-weight="bold" lengthAdjust="spacing" textLength="61" x="435.5" y="65.22">[&#52880;&#49905;&#51032; &#44221;&#50864;]</text><polygon fill="#181818" points="741.5,87,751.5,91,741.5,95,745.5,91" style="stroke:#181818;stroke-width:1.0;"/><line style="stroke:#181818;stroke-width:1.0;" x1="429.5" x2="747.5" y1="91" y2="91"/><text fill="#000000" font-family="NanumGothic" font-size="13" lengthAdjust="spacing" textLength="286" x="436.5" y="86.01">GetCertificateStatusRequest(ocspRequestData)</text><polygon fill="#181818" points="435.5,115.95,425.5,119.95,435.5,123.95,431.5,119.95" style="stroke:#181818;stroke-width:1.0;"/><line style="stroke:#181818;stroke-width:1.0;stroke-dasharray:2.0,2.0;" x1="429.5" x2="757.5" y1="119.95" y2="119.95"/><text fill="#000000" font-family="NanumGothic" font-size="13" lengthAdjust="spacing" textLength="300" x="441.5" y="114.96">GetCertificateStatusResponse(status, ocspResult)</text><path d="M5,139.95 L5,163.95 L417,163.95 L417,149.95 L407,139.95 L5,139.95 " fill="#7D5393" style="stroke:#000000;stroke-width:0.5;"/><path d="M407,139.95 L407,149.95 L417,149.95 L407,139.95 " fill="#7D5393" style="stroke:#000000;stroke-width:0.5;"/><text fill="#FFFFFF" font-family="NanumGothic" font-size="13" lengthAdjust="spacing" textLength="391" x="11" y="156.91">TLS &#49884;&#51089;&#50640;&#45716; EV&#50640;&#49436; &#50508;&#47140;&#51652; &#47784;&#46304; V2G &#47336;&#53944; &#51064;&#51613;&#49436; &#47785;&#47197;&#51060; &#54252;&#54632;&#46121;&#45768;&#45796;.</text><polygon fill="#181818" points="412.5,186.85,422.5,190.85,412.5,194.85,416.5,190.85" style="stroke:#181818;stroke-width:1.0;"/><line style="stroke:#181818;stroke-width:1.0;" x1="210.5" x2="418.5" y1="190.85" y2="190.85"/><text fill="#000000" font-family="NanumGothic" font-size="13" lengthAdjust="spacing" textLength="190" x="217.5" y="185.86">startTLS(ListOfRootCertificates)</text><path d="M197,203.85 L197,227.85 L652,227.85 L652,213.85 L642,203.85 L197,203.85 " fill="#7D5393" style="stroke:#000000;stroke-width:0.5;"/><path d="M642,203.85 L642,213.85 L652,213.85 L642,203.85 " fill="#7D5393" style="stroke:#000000;stroke-width:0.5;"/><text fill="#FFFFFF" font-family="NanumGothic" font-size="13" lengthAdjust="spacing" textLength="434" x="203" y="220.81">TLS &#51025;&#45813;&#50640;&#45716; CSO &#54616;&#50948; CA &#51064;&#51613;&#49436;&#50640; &#45824;&#54620; OCSP &#54644;&#51648; &#49345;&#53468; &#51221;&#48372;&#44032; &#54252;&#54632;&#46121;&#45768;&#45796;.</text><polygon fill="#181818" points="221.5,250.75,211.5,254.75,221.5,258.75,217.5,254.75" style="stroke:#181818;stroke-width:1.0;"/><line style="stroke:#181818;stroke-width:1.0;" x1="215.5" x2="423.5" y1="254.75" y2="254.75"/><text fill="#000000" font-family="NanumGothic" font-size="13" lengthAdjust="spacing" textLength="114" x="227.5" y="249.76">StartTLSresponse()</text><path d="M34,267.75 L34,291.75 L387,291.75 L387,277.75 L377,267.75 L34,267.75 " fill="#7D5393" style="stroke:#000000;stroke-width:0.5;"/><path d="M377,267.75 L377,277.75 L387,277.75 L377,267.75 " fill="#7D5393" style="stroke:#000000;stroke-width:0.5;"/><text fill="#FFFFFF" font-family="NanumGothic" font-size="13" lengthAdjust="spacing" textLength="332" x="40" y="284.71">&#44032;&#46021;&#49457;&#51012; &#50948;&#54644; &#51068;&#48512; &#51473;&#44036; &#47700;&#49884;&#51648;&#45716; &#50668;&#44592;&#50640; &#54364;&#49884;&#46104;&#51648; &#50506;&#49845;&#45768;&#45796;.</text><path d="M95,302.7 L95,341.7 L325,341.7 L325,312.7 L315,302.7 L95,302.7 " fill="#7D5393" style="stroke:#000000;stroke-width:0.5;"/><path d="M315,302.7 L315,312.7 L325,312.7 L315,302.7 " fill="#7D5393" style="stroke:#000000;stroke-width:0.5;"/><text fill="#FFFFFF" font-family="NanumGothic" font-size="13" lengthAdjust="spacing" textLength="209" x="101" y="319.66">EV&#45716; Contact &#51064;&#51613;&#49436;&#50752; MO Sub-CA</text><text fill="#FFFFFF" font-family="NanumGothic" font-size="13" lengthAdjust="spacing" textLength="156" x="101" y="334.61">&#51064;&#51613;&#49436;&#47484; &#52649;&#51204;&#44592;&#47196; &#48372;&#45253;&#45768;&#45796;.</text><!--SRC=[VPB1Jjj048Rl-nHJJedKSEYHGoNaHbn0gN3bkviir5AmtUmQgRTKCLAL896eM8Gghe8QcWHnI4j0KKLVA3j-XywQq8O4UlBkpE_vlvdPPuvRB0Sb3a9-AFDLFzWhC-RR5UaK7Tzs9QpahHMm1UIjXs7ZdLtPTTnTCAKj7SzDHVV1MMpX3tFBl5FHWJ7Fbu2_cjZuWN4RfZz_uvSHWyKIa7kPwjTWWqk3KxaTfsXBhjE1sERl0ovanYiAVtP-PKixItNiedJsIRZ4D9zAGI3zGauxFTG-PIfypnKy8zBhSxXp5q5PQkCI_u_rV5ARSxV4cElHrTld5JraW3UR9c2ZWrzRUD9KzMEAqW733c1qgBezx8UWBWRgSnUi5nkWlWsI-WGmdk3tMAlKnL2TnHYF8JcwJAA1QWvLuvDgz5Qr7QHkZEKjUAnXwgaYYI2pwGXPsDdslFa1YEmyxN9xANhSKeth6RfX5Y29sjW9mLZ_nqXPK8VL9Ef0mJ1VasIC_IfWxMDIepQxaReQJqVLfnjWx95tahVMz6jC-IltIyekpPSAgwC33EdTXK1aP4vaj-g607gjwOYcEppM2-XNTGjuSZcTZ3HnqkfGM3NRAMjKn_hrCjU2MTvAn-2vaXO_Du3JAcmLm0pUvenralrDgFDRm9iXTaCoLMUqpQkngXqi-Vm1]--></g></svg>