<?xml version="1.0" encoding="us-ascii" standalone="no"?><svg xmlns="http://www.w3.org/2000/svg" xmlns:xlink="http://www.w3.org/1999/xlink" contentStyleType="text/css" height="470px" preserveAspectRatio="none" style="width:643px;height:470px;background:#FFFFFF;" version="1.1" viewBox="0 0 643 470" width="643px" zoomAndPan="magnify"><defs/><g><rect fill="#FFFFFF" height="126.8" style="stroke:#181818;stroke-width:1.0;" width="10" x="80" y="46.1"/><rect fill="#FFFFFF" height="152.8" style="stroke:#181818;stroke-width:1.0;" width="10" x="80" y="301.7"/><rect fill="#FFFFFF" height="228.65" style="stroke:#181818;stroke-width:1.0;" width="10" x="401" y="143.95"/><rect fill="#FFFFFF" height="70.9" style="stroke:#181818;stroke-width:1.0;" width="10" x="539" y="201.85"/><rect fill="none" height="58.9" style="stroke:#000000;stroke-width:1.5;" width="186" x="15" y="387.6"/><line style="stroke:#181818;stroke-width:0.5;stroke-dasharray:5.0,5.0;" x1="85" x2="85" y1="36.1" y2="463.5"/><line style="stroke:#181818;stroke-width:0.5;stroke-dasharray:5.0,5.0;" x1="405.5" x2="405.5" y1="36.1" y2="463.5"/><line style="stroke:#181818;stroke-width:0.5;stroke-dasharray:5.0,5.0;" x1="543.5" x2="543.5" y1="36.1" y2="463.5"/><rect fill="#7D5393" height="30.1" rx="2.5" ry="2.5" style="stroke:#181818;stroke-width:0.5;" width="120" x="25" y="5"/><text fill="#FFFFFF" font-family="NanumGothic" font-size="14" lengthAdjust="spacing" textLength="106" x="32" y="24.88">Charging Station</text><rect fill="#7D5393" height="30.1" rx="2.5" ry="2.5" style="stroke:#181818;stroke-width:0.5;" width="53" x="379.5" y="5"/><text fill="#FFFFFF" font-family="NanumGothic" font-size="14" lengthAdjust="spacing" textLength="39" x="386.5" y="24.88">CSMS</text><rect fill="#7D5393" height="30.1" rx="2.5" ry="2.5" style="stroke:#181818;stroke-width:0.5;" width="187" x="450.5" y="5"/><text fill="#FFFFFF" font-family="NanumGothic" font-size="14" lengthAdjust="spacing" textLength="173" x="457.5" y="24.88">Certificate Authority Server</text><rect fill="#FFFFFF" height="126.8" style="stroke:#181818;stroke-width:1.0;" width="10" x="80" y="46.1"/><rect fill="#FFFFFF" height="152.8" style="stroke:#181818;stroke-width:1.0;" width="10" x="80" y="301.7"/><rect fill="#FFFFFF" height="228.65" style="stroke:#181818;stroke-width:1.0;" width="10" x="401" y="143.95"/><rect fill="#FFFFFF" height="70.9" style="stroke:#181818;stroke-width:1.0;" width="10" x="539" y="201.85"/><path d="M5,51.1 L5,75.1 L166,75.1 L166,61.1 L156,51.1 L5,51.1 " fill="#7D5393" style="stroke:#000000;stroke-width:0.5;"/><path d="M156,51.1 L156,61.1 L166,61.1 L156,51.1 " fill="#7D5393" style="stroke:#000000;stroke-width:0.5;"/><text fill="#FFFFFF" font-family="NanumGothic" font-size="13" lengthAdjust="spacing" textLength="140" x="11" y="68.06">CS &#51064;&#51613;&#49436; &#47564;&#47308; &#44592;&#44036; &#46020;&#47000;</text><line style="stroke:#181818;stroke-width:1.0;" x1="90" x2="132" y1="102" y2="102"/><line style="stroke:#181818;stroke-width:1.0;" x1="132" x2="132" y1="102" y2="115"/><line style="stroke:#181818;stroke-width:1.0;" x1="91" x2="132" y1="115" y2="115"/><polygon fill="#181818" points="101,111,91,115,101,119,97,115" style="stroke:#181818;stroke-width:1.0;"/><text fill="#000000" font-family="NanumGothic" font-size="13" lengthAdjust="spacing" textLength="133" x="97" y="97.01">&#49888;&#44508; &#44277;&#44060; / &#44060;&#51064; &#53412; &#49373;&#49457;</text><polygon fill="#181818" points="389,139.95,399,143.95,389,147.95,393,143.95" style="stroke:#181818;stroke-width:1.0;"/><line style="stroke:#181818;stroke-width:1.0;" x1="90" x2="395" y1="143.95" y2="143.95"/><text fill="#000000" font-family="NanumGothic" font-size="13" lengthAdjust="spacing" textLength="164" x="97" y="138.96">SignCertificateRequest(csr)</text><polygon fill="#181818" points="96,168.9,86,172.9,96,176.9,92,172.9" style="stroke:#181818;stroke-width:1.0;"/><line style="stroke:#181818;stroke-width:1.0;stroke-dasharray:2.0,2.0;" x1="90" x2="400" y1="172.9" y2="172.9"/><text fill="#000000" font-family="NanumGothic" font-size="13" lengthAdjust="spacing" textLength="212" x="102" y="167.91">SignCertificateResponse(Accepted)</text><polygon fill="#181818" points="527,197.85,537,201.85,527,205.85,531,201.85" style="stroke:#181818;stroke-width:1.0;"/><line style="stroke:#181818;stroke-width:1.0;" x1="411" x2="533" y1="201.85" y2="201.85"/><text fill="#000000" font-family="NanumGothic" font-size="13" lengthAdjust="spacing" textLength="64" x="418" y="196.86">CSR &#54252;&#50892;&#46377;</text><line style="stroke:#181818;stroke-width:1.0;" x1="549" x2="591" y1="230.8" y2="230.8"/><line style="stroke:#181818;stroke-width:1.0;" x1="591" x2="591" y1="230.8" y2="243.8"/><line style="stroke:#181818;stroke-width:1.0;" x1="550" x2="591" y1="243.8" y2="243.8"/><polygon fill="#181818" points="560,239.8,550,243.8,560,247.8,556,243.8" style="stroke:#181818;stroke-width:1.0;"/><text fill="#000000" font-family="NanumGothic" font-size="13" lengthAdjust="spacing" textLength="64" x="556" y="225.81">&#51064;&#51613;&#49436; &#49436;&#47749;</text><polygon fill="#181818" points="422,268.75,412,272.75,422,276.75,418,272.75" style="stroke:#181818;stroke-width:1.0;"/><line style="stroke:#181818;stroke-width:1.0;stroke-dasharray:2.0,2.0;" x1="416" x2="543" y1="272.75" y2="272.75"/><text fill="#000000" font-family="NanumGothic" font-size="13" lengthAdjust="spacing" textLength="104" x="428" y="267.76">&#49436;&#47749;&#46108; &#51064;&#51613;&#49436; &#48152;&#54872;</text><polygon fill="#181818" points="101,297.7,91,301.7,101,305.7,97,301.7" style="stroke:#181818;stroke-width:1.0;"/><line style="stroke:#181818;stroke-width:1.0;" x1="95" x2="400" y1="301.7" y2="301.7"/><text fill="#000000" font-family="NanumGothic" font-size="13" lengthAdjust="spacing" textLength="221" x="107" y="296.71">CertificateSignedRequest(certificate)</text><line style="stroke:#181818;stroke-width:1.0;" x1="90" x2="132" y1="330.65" y2="330.65"/><line style="stroke:#181818;stroke-width:1.0;" x1="132" x2="132" y1="330.65" y2="343.65"/><line style="stroke:#181818;stroke-width:1.0;" x1="91" x2="132" y1="343.65" y2="343.65"/><polygon fill="#181818" points="101,339.65,91,343.65,101,347.65,97,343.65" style="stroke:#181818;stroke-width:1.0;"/><text fill="#000000" font-family="NanumGothic" font-size="13" lengthAdjust="spacing" textLength="144" x="97" y="325.66">&#49436;&#47749;&#46108; &#51064;&#51613;&#49436; &#50976;&#54952;&#49457; &#44160;&#51613;</text><polygon fill="#181818" points="394,368.6,404,372.6,394,376.6,398,372.6" style="stroke:#181818;stroke-width:1.0;"/><line style="stroke:#181818;stroke-width:1.0;stroke-dasharray:2.0,2.0;" x1="90" x2="400" y1="372.6" y2="372.6"/><text fill="#000000" font-family="NanumGothic" font-size="13" lengthAdjust="spacing" textLength="287" x="97" y="367.61">CertificateSignedResponse (Accepted/Rejected)</text><path d="M15,387.6 L81,387.6 L81,394.55 L71,404.55 L15,404.55 L15,387.6 " fill="#EEEEEE" style="stroke:#000000;stroke-width:1.5;"/><rect fill="none" height="58.9" style="stroke:#000000;stroke-width:1.5;" width="186" x="15" y="387.6"/><text fill="#000000" font-family="NanumGothic" font-size="13" font-weight="bold" lengthAdjust="spacing" textLength="21" x="30" y="400.56">opt</text><text fill="#000000" font-family="NanumGothic" font-size="11" font-weight="bold" lengthAdjust="spacing" textLength="51" x="96" y="399.72">[&#53412; &#50976;&#50836;&#54632;]</text><line style="stroke:#181818;stroke-width:1.0;" x1="90" x2="132" y1="425.5" y2="425.5"/><line style="stroke:#181818;stroke-width:1.0;" x1="132" x2="132" y1="425.5" y2="438.5"/><line style="stroke:#181818;stroke-width:1.0;" x1="91" x2="132" y1="438.5" y2="438.5"/><polygon fill="#181818" points="101,434.5,91,438.5,101,442.5,97,438.5" style="stroke:#181818;stroke-width:1.0;"/><text fill="#000000" font-family="NanumGothic" font-size="13" lengthAdjust="spacing" textLength="92" x="97" y="420.51">&#49352; &#51064;&#51613;&#49436;&#47196; &#48320;&#44221;</text><!--SRC=[ZLBBJi905DtFLrnPmKBPio1fNBkXNz1CHnY3qzfEITWHmSH44bnWWbWCHgDeN5I8aOq_rCS_E6Enr58DYquwzt7kEUVE3cMuwUW4RDvkaZtJEMuYP6eMfvYQ6kDGs6zeLfsoEgXSuzHW1T1i-0ckOfaEzK2DgyHF9aN4vP1YZHDG7DumBChRe1AhHQouHL4HqZ2dBLcI7SCC4JH4xKO6n3089ylmSHBsN0YU-i5z7_obvtiz20Qzu7Q42DD18Y2KwORTQXQm0k75rFzmmL-y-vuBPH2dm8Vez072hXZobWyZ95T0fNMMabeZ9mwnUH7RLYabJhg3v0cxUGGsG6pJO3OfAXWJanEzX7JofrChtAeqj296rI0Ql8Ot_M3ud68WpHP7KhSsK7p1ozagc-YAey6bcxRQ6qNNerzS53KrFoih9Kag97hYpZfHGly8ssPtEJn3TngDPs9luCyx8fQ3bEZCuHYR3udxvHev8dXZ3TyxDKmUlnDt6ew7qTLCFizjQ7VFruI3E-7jekFFF-N3HLy0]--></g></svg>