<?xml version="1.0" encoding="us-ascii" standalone="no"?><svg xmlns="http://www.w3.org/2000/svg" xmlns:xlink="http://www.w3.org/1999/xlink" contentStyleType="text/css" height="320px" preserveAspectRatio="none" style="width:1130px;height:320px;background:#FFFFFF;" version="1.1" viewBox="0 0 1130 320" width="1130px" zoomAndPan="magnify"><defs/><g><!--cluster Local group--><g id="cluster_Local group"><path d="M349.5,6 L424.5,6 A3.75,3.75 0 0 1 427,8.5 L434,28.1 L1120.5,28.1 A2.5,2.5 0 0 1 1123,30.6 L1123,310.5 A2.5,2.5 0 0 1 1120.5,313 L349.5,313 A2.5,2.5 0 0 1 347,310.5 L347,8.5 A2.5,2.5 0 0 1 349.5,6 " fill="none" style="stroke:#7D5393;stroke-width:1.5;"/><line style="stroke:#7D5393;stroke-width:1.5;" x1="347" x2="434" y1="28.1" y2="28.1"/><text fill="#000000" font-family="NanumGothic" font-size="14" font-weight="bold" lengthAdjust="spacing" textLength="74" x="351" y="20.88">Local group</text></g><!--entity LocalControllerCS00--><g id="elem_LocalControllerCS00"><polygon fill="#7D5393" points="396,147.9,406,137.9,535,137.9,535,190.1,525,200.1,396,200.1,396,147.9" style="stroke:#181818;stroke-width:1.5;"/><line style="stroke:#181818;stroke-width:1.5;" x1="525" x2="535" y1="147.9" y2="137.9"/><line style="stroke:#181818;stroke-width:1.5;" x1="396" x2="525" y1="147.9" y2="147.9"/><line style="stroke:#181818;stroke-width:1.5;" x1="525" x2="525" y1="147.9" y2="200.1"/><text fill="#FFFFFF" font-family="NanumGothic" font-size="14" lengthAdjust="spacing" textLength="99" x="411" y="170.78">Local Controller</text><text fill="#FFFFFF" font-family="NanumGothic" font-size="14" lengthAdjust="spacing" textLength="33" x="411" y="186.88">CS00</text></g><!--entity CS03--><g id="elem_CS03"><polygon fill="#7D5393" points="745,50.9,755,40.9,880,40.9,880,93.1,870,103.1,745,103.1,745,50.9" style="stroke:#181818;stroke-width:1.5;"/><line style="stroke:#181818;stroke-width:1.5;" x1="870" x2="880" y1="50.9" y2="40.9"/><line style="stroke:#181818;stroke-width:1.5;" x1="745" x2="870" y1="50.9" y2="50.9"/><line style="stroke:#181818;stroke-width:1.5;" x1="870" x2="870" y1="50.9" y2="103.1"/><text fill="#FFFFFF" font-family="NanumGothic" font-size="14" lengthAdjust="spacing" textLength="95" x="760" y="73.78">Charge Station</text><text fill="#FFFFFF" font-family="NanumGothic" font-size="14" lengthAdjust="spacing" textLength="33" x="760" y="89.88">CS03</text></g><!--entity CS02--><g id="elem_CS02"><polygon fill="#7D5393" points="745,147.9,755,137.9,880,137.9,880,190.1,870,200.1,745,200.1,745,147.9" style="stroke:#181818;stroke-width:1.5;"/><line style="stroke:#181818;stroke-width:1.5;" x1="870" x2="880" y1="147.9" y2="137.9"/><line style="stroke:#181818;stroke-width:1.5;" x1="745" x2="870" y1="147.9" y2="147.9"/><line style="stroke:#181818;stroke-width:1.5;" x1="870" x2="870" y1="147.9" y2="200.1"/><text fill="#FFFFFF" font-family="NanumGothic" font-size="14" lengthAdjust="spacing" textLength="95" x="760" y="170.78">Charge Station</text><text fill="#FFFFFF" font-family="NanumGothic" font-size="14" lengthAdjust="spacing" textLength="33" x="760" y="186.88">CS02</text></g><!--entity CS01--><g id="elem_CS01"><polygon fill="#7D5393" points="745,244.9,755,234.9,880,234.9,880,287.1,870,297.1,745,297.1,745,244.9" style="stroke:#181818;stroke-width:1.5;"/><line style="stroke:#181818;stroke-width:1.5;" x1="870" x2="880" y1="244.9" y2="234.9"/><line style="stroke:#181818;stroke-width:1.5;" x1="745" x2="870" y1="244.9" y2="244.9"/><line style="stroke:#181818;stroke-width:1.5;" x1="870" x2="870" y1="244.9" y2="297.1"/><text fill="#FFFFFF" font-family="NanumGothic" font-size="14" lengthAdjust="spacing" textLength="95" x="760" y="267.78">Charge Station</text><text fill="#FFFFFF" font-family="NanumGothic" font-size="14" lengthAdjust="spacing" textLength="33" x="760" y="283.88">CS01</text></g><!--entity EV2--><g id="elem_EV2"><ellipse cx="1092.5" cy="50.45" fill="#F1F1F1" rx="8" ry="8" style="stroke:#7D5393;stroke-width:1.5;"/><path d="M1092.5,58.45 L1092.5,85.45 M1079.5,66.45 L1105.5,66.45 M1092.5,85.45 L1079.5,100.45 M1092.5,85.45 L1105.5,100.45 " fill="none" style="stroke:#7D5393;stroke-width:1.5;"/><text fill="#000000" font-family="NanumGothic" font-size="14" lengthAdjust="spacing" textLength="25" x="1080" y="115.83">EV2</text></g><!--entity EV1--><g id="elem_EV1"><ellipse cx="1092.5" cy="163.45" fill="#F1F1F1" rx="8" ry="8" style="stroke:#7D5393;stroke-width:1.5;"/><path d="M1092.5,171.45 L1092.5,198.45 M1079.5,179.45 L1105.5,179.45 M1092.5,198.45 L1079.5,213.45 M1092.5,198.45 L1105.5,213.45 " fill="none" style="stroke:#7D5393;stroke-width:1.5;"/><text fill="#000000" font-family="NanumGothic" font-size="14" lengthAdjust="spacing" textLength="25" x="1080" y="228.83">EV1</text></g><g id="elem_GMN10"><path d="M363,235.57 L363,290.42 A0,0 0 0 0 363,290.42 L568,290.42 A0,0 0 0 0 568,290.42 L568,245.57 L558,235.57 L469.5,235.57 L465.5,200.5 L461.5,235.57 L363,235.57 A0,0 0 0 0 363,235.57 " fill="#7D5393" style="stroke:#000000;stroke-width:0.5;"/><path d="M558,235.57 L558,245.57 L568,245.57 L558,235.57 " fill="#7D5393" style="stroke:#000000;stroke-width:0.5;"/><text fill="#FFFFFF" font-family="NanumGothic" font-size="13" lengthAdjust="spacing" textLength="156" x="369" y="252.53">&#47196;&#52972; &#52968;&#53944;&#47204;&#47084;&#45716; &#51204;&#52404; &#44536;&#47353;&#51032;</text><text fill="#FFFFFF" font-family="NanumGothic" font-size="13" lengthAdjust="spacing" textLength="156" x="369" y="267.48">&#51204;&#47141; &#49324;&#50857;&#47049;&#51012; &#49324;&#51204;&#50640; &#49444;&#51221;&#46108;</text><text fill="#FFFFFF" font-family="NanumGothic" font-size="13" lengthAdjust="spacing" textLength="184" x="369" y="282.43">&#52572;&#45824; &#51204;&#47141; &#49324;&#50857;&#47049;&#51004;&#47196; &#51228;&#54620;&#54633;&#45768;&#45796;.</text></g><!--entity CSMS--><g id="elem_CSMS"><polygon fill="#7D5393" points="16,155.95,26,145.95,95,145.95,95,182.05,85,192.05,16,192.05,16,155.95" style="stroke:#181818;stroke-width:1.5;"/><line style="stroke:#181818;stroke-width:1.5;" x1="85" x2="95" y1="155.95" y2="145.95"/><line style="stroke:#181818;stroke-width:1.5;" x1="16" x2="85" y1="155.95" y2="155.95"/><line style="stroke:#181818;stroke-width:1.5;" x1="85" x2="85" y1="155.95" y2="192.05"/><text fill="#FFFFFF" font-family="NanumGothic" font-size="14" lengthAdjust="spacing" textLength="39" x="31" y="178.83">CSMS</text></g><!--link CSMS to LocalControllerCS00--><g id="link_CSMS_LocalControllerCS00"><path d="M95.25,169 C164.27,169 303.34,169 389.68,169 " fill="none" id="CSMS-to-LocalControllerCS00" style="stroke:#181818;stroke-width:1.0;"/><polygon fill="#181818" points="395.68,169,386.68,165,390.68,169,386.68,173,395.68,169" style="stroke:#181818;stroke-width:1.0;"/><text fill="#000000" font-family="NanumGothic" font-size="13" lengthAdjust="spacing" textLength="204" x="126" y="165.96">OCPP ChargingStationMaxProfile</text></g><!--link LocalControllerCS00 to CS03--><g id="link_LocalControllerCS00_CS03"><path d="M535.49,149.6 C596.35,132.49 678.7138,109.3335 738.9138,92.4135 " fill="none" id="LocalControllerCS00-to-CS03" style="stroke:#181818;stroke-width:1.0;"/><polygon fill="#181818" points="744.69,90.79,734.9434,89.3744,739.8765,92.1429,737.108,97.076,744.69,90.79" style="stroke:#181818;stroke-width:1.0;"/><text fill="#000000" font-family="NanumGothic" font-size="13" lengthAdjust="spacing" textLength="115" x="599" y="97.62">OCPP &#52264;&#51669; &#54532;&#47196;&#54028;&#51068;</text></g><!--link LocalControllerCS00 to CS02--><g id="link_LocalControllerCS00_CS02"><path d="M535.49,169 C596.35,169 678.49,169 738.69,169 " fill="none" id="LocalControllerCS00-to-CS02" style="stroke:#181818;stroke-width:1.0;"/><polygon fill="#181818" points="744.69,169,735.69,165,739.69,169,735.69,173,744.69,169" style="stroke:#181818;stroke-width:1.0;"/><text fill="#000000" font-family="NanumGothic" font-size="13" lengthAdjust="spacing" textLength="115" x="599" y="165.96">OCPP &#52264;&#51669; &#54532;&#47196;&#54028;&#51068;</text></g><!--link LocalControllerCS00 to CS01--><g id="link_LocalControllerCS00_CS01"><path d="M535.49,188.4 C596.35,205.51 684.49,230.29 744.69,247.21 " fill="none" id="LocalControllerCS00-CS01" style="stroke:#181818;stroke-width:1.0;"/></g><!--link CS03 to EV2--><g id="link_CS03_EV2"><path d="M880.44,73.93 C946.31,75.82 1036.0325,78.4078 1071.5525,79.4278 " fill="none" id="CS03-to-EV2" style="stroke:#181818;stroke-width:1.0;stroke-dasharray:1.0,3.0;"/><polygon fill="#181818" points="1077.55,79.6,1068.6685,75.3433,1072.5521,79.4565,1068.4389,83.34,1077.55,79.6" style="stroke:#181818;stroke-width:1.0;"/><text fill="#000000" font-family="NanumGothic" font-size="13" lengthAdjust="spacing" textLength="116" x="911" y="56.78">Control Pilot signal</text><text fill="#000000" font-family="NanumGothic" font-size="13" lengthAdjust="spacing" textLength="92" x="933" y="71.73">&#46608;&#45716; ISO 15118</text></g><!--link CS02 to EV1--><g id="link_CS02_EV1"><path d="M880.44,174.78 C946.31,180.47 1036.0523,188.2133 1071.5723,191.2833 " fill="none" id="CS02-to-EV1" style="stroke:#181818;stroke-width:1.0;stroke-dasharray:1.0,3.0;"/><polygon fill="#181818" points="1077.55,191.8,1068.9279,187.0399,1072.5686,191.3695,1068.239,195.0102,1077.55,191.8" style="stroke:#181818;stroke-width:1.0;"/><text fill="#000000" font-family="NanumGothic" font-size="13" lengthAdjust="spacing" textLength="116" x="911" y="159.41">Control Pilot signal</text><text fill="#000000" font-family="NanumGothic" font-size="13" lengthAdjust="spacing" textLength="92" x="933" y="174.36">&#46608;&#45716; ISO 15118</text></g><!--link CS02 to CS03--><!--link CS01 to CS02--><!--SRC=[dLDFQzim7BthK_oMUqgKCXWxx69w6BGqODYbBSLOYYDGfA0eR6CCniXXQtF8eM5bE3Hb6MiXXr8wrj9-eahv3fDaPniaT6p2OFlflVVx9prY8kKzGY6LxOuKLEXzmf9C9UtzhdxDwLgdr-O8SThKe2KebhKq4APegfaK20dfj9Keteeha7J1Vo3Kb9nG1PLDcIOSCYLxdGgyGG05ku0ZARIId5ErAwAuLWlwiFLxn-Febovg9IgZ4El4nmwgzJ9gRVqXLdt1gZ_4mWiMzY6JL4jNmiQBGkpUVuAu176HdQQkEHsGpPK5W5lcDBUtCx2tP_E3QtCwDISpSt04TjAtbrTm_-FQVBcnu-F0TQ2PV0NxVcO_dvkJZtRS3p-E-sa8jZ-rav4PvWNtUsu6xvOb-PsBwE1yFdBFkJdyO0wdQqv21Ga9exS8-Mb1bSYNelfiLURm5BQZHWD2ivZ8ocvj9QyQIZOPfmYjKYqS_LWM5lRYp7uRmVoex_AQ3mPsVFStRVt_j662u8jpqGEqGwJMbEmvMpT6vrhgeC6urD1bcN3dqQzTOOw7VYxFust0Zp5-Wa8YopRu7stATFmzscanGgZOgnOdiWYmj87HJm00]--></g></svg>