<?xml version="1.0" encoding="us-ascii" standalone="no"?><svg xmlns="http://www.w3.org/2000/svg" xmlns:xlink="http://www.w3.org/1999/xlink" contentStyleType="text/css" height="744px" preserveAspectRatio="none" style="width:766px;height:744px;background:#FFFFFF;" version="1.1" viewBox="0 0 766 744" width="766px" zoomAndPan="magnify"><defs/><g><rect fill="#FFFFFF" height="198.7" style="stroke:#181818;stroke-width:1.0;" width="10" x="47.5" y="248.85"/><rect fill="#FFFFFF" height="28.95" style="stroke:#181818;stroke-width:1.0;" width="10" x="248.5" y="114.05"/><rect fill="#FFFFFF" height="479.25" style="stroke:#181818;stroke-width:1.0;" width="10" x="248.5" y="248.85"/><rect fill="#FFFFFF" height="28.95" style="stroke:#181818;stroke-width:1.0;" width="10" x="587.5" y="114.05"/><rect fill="none" height="58.9" style="stroke:#000000;stroke-width:1.5;" width="214" x="183.5" y="263.85"/><rect fill="none" height="58.9" style="stroke:#000000;stroke-width:1.5;" width="174" x="183.5" y="336.75"/><rect fill="none" height="45.9" style="stroke:#000000;stroke-width:1.5;" width="313.5" x="10" y="409.65"/><rect fill="none" height="250.55" style="stroke:#000000;stroke-width:1.5;" width="685.5" x="75" y="469.55"/><rect fill="none" height="125.4" style="stroke:#000000;stroke-width:1.5;" width="665.5" x="85" y="587.7"/><line style="stroke:#181818;stroke-width:0.5;stroke-dasharray:5.0,5.0;" x1="52" x2="52" y1="83.1" y2="737.1"/><line style="stroke:#181818;stroke-width:0.5;stroke-dasharray:5.0,5.0;" x1="110" x2="110" y1="83.1" y2="737.1"/><line style="stroke:#181818;stroke-width:0.5;stroke-dasharray:5.0,5.0;" x1="253.5" x2="253.5" y1="83.1" y2="737.1"/><line style="stroke:#181818;stroke-width:0.5;stroke-dasharray:5.0,5.0;" x1="592" x2="592" y1="83.1" y2="737.1"/><text fill="#000000" font-family="NanumGothic" font-size="14" lengthAdjust="spacing" textLength="59" x="20" y="79.88">EV Driver</text><ellipse cx="52.5" cy="14.5" fill="#E2E2F0" rx="8" ry="8" style="stroke:#7D5393;stroke-width:1.5;"/><path d="M52.5,22.5 L52.5,49.5 M39.5,30.5 L65.5,30.5 M52.5,49.5 L39.5,64.5 M52.5,49.5 L65.5,64.5 " fill="none" style="stroke:#7D5393;stroke-width:1.5;"/><rect fill="#7D5393" height="30.1" rx="2.5" ry="2.5" style="stroke:#181818;stroke-width:0.5;" width="31" x="95" y="52"/><text fill="#FFFFFF" font-family="NanumGothic" font-size="14" lengthAdjust="spacing" textLength="17" x="102" y="71.88">EV</text><rect fill="#7D5393" height="30.1" rx="2.5" ry="2.5" style="stroke:#181818;stroke-width:0.5;" width="120" x="193.5" y="52"/><text fill="#FFFFFF" font-family="NanumGothic" font-size="14" lengthAdjust="spacing" textLength="106" x="200.5" y="71.88">Charging Station</text><rect fill="#7D5393" height="30.1" rx="2.5" ry="2.5" style="stroke:#181818;stroke-width:0.5;" width="53" x="566" y="52"/><text fill="#FFFFFF" font-family="NanumGothic" font-size="14" lengthAdjust="spacing" textLength="39" x="573" y="71.88">CSMS</text><rect fill="#FFFFFF" height="198.7" style="stroke:#181818;stroke-width:1.0;" width="10" x="47.5" y="248.85"/><rect fill="#FFFFFF" height="28.95" style="stroke:#181818;stroke-width:1.0;" width="10" x="248.5" y="114.05"/><rect fill="#FFFFFF" height="479.25" style="stroke:#181818;stroke-width:1.0;" width="10" x="248.5" y="248.85"/><rect fill="#FFFFFF" height="28.95" style="stroke:#181818;stroke-width:1.0;" width="10" x="587.5" y="114.05"/><polygon fill="#181818" points="269.5,110.05,259.5,114.05,269.5,118.05,265.5,114.05" style="stroke:#181818;stroke-width:1.0;"/><line style="stroke:#181818;stroke-width:1.0;" x1="263.5" x2="586.5" y1="114.05" y2="114.05"/><text fill="#000000" font-family="NanumGothic" font-size="13" lengthAdjust="spacing" textLength="315" x="275.5" y="109.06">SetChargingProfileRequest(TxDefaultProfile, evseId)</text><polygon fill="#181818" points="580.5,139,590.5,143,580.5,147,584.5,143" style="stroke:#181818;stroke-width:1.0;"/><line style="stroke:#181818;stroke-width:1.0;stroke-dasharray:2.0,2.0;" x1="253.5" x2="586.5" y1="143" y2="143"/><text fill="#000000" font-family="NanumGothic" font-size="13" lengthAdjust="spacing" textLength="238" x="260.5" y="138.01">SetChargingProfileResponse(Accepted)</text><path d="M67,156 L67,180 L636,180 L636,166 L626,156 L67,156 " fill="#7D5393" style="stroke:#000000;stroke-width:0.5;"/><path d="M626,156 L626,166 L636,166 L626,156 " fill="#7D5393" style="stroke:#000000;stroke-width:0.5;"/><text fill="#FFFFFF" font-family="NanumGothic" font-size="13" lengthAdjust="spacing" textLength="548" x="73" y="172.96">&#53944;&#47004;&#51117;&#49496; &#49884;&#51089;&#44284; &#52649;&#51204; &#54532;&#47196;&#54028;&#51068; &#49444;&#51221; &#49324;&#51060;&#51032; &#49884;&#44036;&#51008; &#47751; &#48516;&#51060; &#46112; &#49688;&#46020; &#51080;&#51648;&#47564;, &#47728;&#52832;&#51060; &#46112; &#49688;&#46020; &#51080;&#49845;&#45768;&#45796;.</text><line style="stroke:#181818;stroke-width:1.0;" x1="253.5" x2="295.5" y1="206.9" y2="206.9"/><line style="stroke:#181818;stroke-width:1.0;" x1="295.5" x2="295.5" y1="206.9" y2="219.9"/><line style="stroke:#181818;stroke-width:1.0;" x1="254.5" x2="295.5" y1="219.9" y2="219.9"/><polygon fill="#181818" points="264.5,215.9,254.5,219.9,264.5,223.9,260.5,219.9" style="stroke:#181818;stroke-width:1.0;"/><text fill="#000000" font-family="NanumGothic" font-size="13" lengthAdjust="spacing" textLength="52" x="260.5" y="201.91">&#50672;&#44208; &#45130;&#44608;</text><polygon fill="#181818" points="236.5,244.85,246.5,248.85,236.5,252.85,240.5,248.85" style="stroke:#181818;stroke-width:1.0;"/><line style="stroke:#181818;stroke-width:1.0;" x1="57.5" x2="242.5" y1="248.85" y2="248.85"/><text fill="#000000" font-family="NanumGothic" font-size="13" lengthAdjust="spacing" textLength="86" x="64.5" y="243.86">IdToken() &#51228;&#49884;</text><path d="M183.5,263.85 L249.5,263.85 L249.5,270.8 L239.5,280.8 L183.5,280.8 L183.5,263.85 " fill="#EEEEEE" style="stroke:#000000;stroke-width:1.5;"/><rect fill="none" height="58.9" style="stroke:#000000;stroke-width:1.5;" width="214" x="183.5" y="263.85"/><text fill="#000000" font-family="NanumGothic" font-size="13" font-weight="bold" lengthAdjust="spacing" textLength="21" x="198.5" y="276.81">opt</text><text fill="#000000" font-family="NanumGothic" font-size="11" font-weight="bold" lengthAdjust="spacing" textLength="71" x="264.5" y="275.97">[&#51648;&#50896;&#54616;&#45716; &#44221;&#50864;]</text><line style="stroke:#181818;stroke-width:1.0;" x1="258.5" x2="300.5" y1="301.75" y2="301.75"/><line style="stroke:#181818;stroke-width:1.0;" x1="300.5" x2="300.5" y1="301.75" y2="314.75"/><line style="stroke:#181818;stroke-width:1.0;" x1="259.5" x2="300.5" y1="314.75" y2="314.75"/><polygon fill="#181818" points="269.5,310.75,259.5,314.75,269.5,318.75,265.5,314.75" style="stroke:#181818;stroke-width:1.0;"/><text fill="#000000" font-family="NanumGothic" font-size="13" lengthAdjust="spacing" textLength="120" x="265.5" y="296.76">&#47196;&#52972; &#51064;&#51613; &#47532;&#49828;&#53944; &#54869;&#51064;</text><path d="M183.5,336.75 L249.5,336.75 L249.5,343.7 L239.5,353.7 L183.5,353.7 L183.5,336.75 " fill="#EEEEEE" style="stroke:#000000;stroke-width:1.5;"/><rect fill="none" height="58.9" style="stroke:#000000;stroke-width:1.5;" width="174" x="183.5" y="336.75"/><text fill="#000000" font-family="NanumGothic" font-size="13" font-weight="bold" lengthAdjust="spacing" textLength="21" x="198.5" y="349.71">opt</text><text fill="#000000" font-family="NanumGothic" font-size="11" font-weight="bold" lengthAdjust="spacing" textLength="71" x="264.5" y="348.87">[&#51648;&#50896;&#54616;&#45716; &#44221;&#50864;]</text><line style="stroke:#181818;stroke-width:1.0;" x1="258.5" x2="300.5" y1="374.65" y2="374.65"/><line style="stroke:#181818;stroke-width:1.0;" x1="300.5" x2="300.5" y1="374.65" y2="387.65"/><line style="stroke:#181818;stroke-width:1.0;" x1="259.5" x2="300.5" y1="387.65" y2="387.65"/><polygon fill="#181818" points="269.5,383.65,259.5,387.65,269.5,391.65,265.5,387.65" style="stroke:#181818;stroke-width:1.0;"/><text fill="#000000" font-family="NanumGothic" font-size="13" lengthAdjust="spacing" textLength="80" x="265.5" y="369.66">&#51064;&#51613; &#52880;&#49884; &#54869;&#51064;</text><path d="M10,409.65 L76,409.65 L76,416.6 L66,426.6 L10,426.6 L10,409.65 " fill="#EEEEEE" style="stroke:#000000;stroke-width:1.5;"/><rect fill="none" height="45.9" style="stroke:#000000;stroke-width:1.5;" width="313.5" x="10" y="409.65"/><text fill="#000000" font-family="NanumGothic" font-size="13" font-weight="bold" lengthAdjust="spacing" textLength="21" x="25" y="422.61">opt</text><polygon fill="#181818" points="63.5,443.55,53.5,447.55,63.5,451.55,59.5,447.55" style="stroke:#181818;stroke-width:1.0;"/><line style="stroke:#181818;stroke-width:1.0;stroke-dasharray:2.0,2.0;" x1="57.5" x2="247.5" y1="447.55" y2="447.55"/><text fill="#000000" font-family="NanumGothic" font-size="13" lengthAdjust="spacing" textLength="24" x="69.5" y="442.56">&#50508;&#47548;</text><path d="M75,469.55 L135,469.55 L135,476.5 L125,486.5 L75,486.5 L75,469.55 " fill="#EEEEEE" style="stroke:#000000;stroke-width:1.5;"/><rect fill="none" height="250.55" style="stroke:#000000;stroke-width:1.5;" width="685.5" x="75" y="469.55"/><text fill="#000000" font-family="NanumGothic" font-size="13" font-weight="bold" lengthAdjust="spacing" textLength="15" x="90" y="482.51">alt</text><text fill="#000000" font-family="NanumGothic" font-size="11" font-weight="bold" lengthAdjust="spacing" textLength="589" x="150" y="481.67">[LocalAuthorizeOffline=true &amp; (Id&#44032; &#52880;&#49884;&#50640; &#51080;&#44144;&#45208; (Id in local list &amp; Valid)) or (OfflineTxForUnknownIdEnabled=true</text><text fill="#000000" font-family="NanumGothic" font-size="11" font-weight="bold" lengthAdjust="spacing" textLength="185" x="150" y="494.32">&amp; Id&#44032; &#47196;&#52972; &#47532;&#49828;&#53944;&#50640;&#49436; Invalid&#44032; &#50500;&#45784;)]</text><line style="stroke:#181818;stroke-width:1.0;" x1="258.5" x2="300.5" y1="517.75" y2="517.75"/><line style="stroke:#181818;stroke-width:1.0;" x1="300.5" x2="300.5" y1="517.75" y2="530.75"/><line style="stroke:#181818;stroke-width:1.0;" x1="259.5" x2="300.5" y1="530.75" y2="530.75"/><polygon fill="#181818" points="269.5,526.75,259.5,530.75,269.5,534.75,265.5,530.75" style="stroke:#181818;stroke-width:1.0;"/><text fill="#000000" font-family="NanumGothic" font-size="13" lengthAdjust="spacing" textLength="64" x="265.5" y="512.76">&#52964;&#45349;&#53552; &#51104;&#44552;</text><line style="stroke:#181818;stroke-width:1.0;" x1="258.5" x2="300.5" y1="559.7" y2="559.7"/><line style="stroke:#181818;stroke-width:1.0;" x1="300.5" x2="300.5" y1="559.7" y2="572.7"/><line style="stroke:#181818;stroke-width:1.0;" x1="259.5" x2="300.5" y1="572.7" y2="572.7"/><polygon fill="#181818" points="269.5,568.7,259.5,572.7,269.5,576.7,265.5,572.7" style="stroke:#181818;stroke-width:1.0;"/><text fill="#000000" font-family="NanumGothic" font-size="13" lengthAdjust="spacing" textLength="92" x="265.5" y="554.71">&#50640;&#45320;&#51648; &#51228;&#44277; &#49884;&#51089;</text><path d="M85,587.7 L157,587.7 L157,594.65 L147,604.65 L85,604.65 L85,587.7 " fill="#EEEEEE" style="stroke:#000000;stroke-width:1.5;"/><rect fill="none" height="125.4" style="stroke:#000000;stroke-width:1.5;" width="665.5" x="85" y="587.7"/><text fill="#000000" font-family="NanumGothic" font-size="13" font-weight="bold" lengthAdjust="spacing" textLength="27" x="100" y="600.66">loop</text><text fill="#000000" font-family="NanumGothic" font-size="11" font-weight="bold" lengthAdjust="spacing" textLength="150" x="172" y="599.82">[&#52264;&#51669; &#54532;&#47196;&#54028;&#51068;&#50640; &#46384;&#46972; &#47336;&#54532; &#48320;&#54868;]</text><line style="stroke:#000000;stroke-width:1.0;stroke-dasharray:2.0,2.0;" x1="85" x2="750.5" y1="605.65" y2="605.65"/><text fill="#000000" font-family="NanumGothic" font-size="11" font-weight="bold" lengthAdjust="spacing" textLength="183" x="90" y="615.77">[&#52264;&#51669; &#54532;&#47196;&#54028;&#51068;&#51032; &#44033; &#51064;&#53552;&#48268; &#44592;&#44036;&#50640; &#45824;&#54644;]</text><line style="stroke:#181818;stroke-width:1.0;" x1="258.5" x2="300.5" y1="651.7" y2="651.7"/><line style="stroke:#181818;stroke-width:1.0;" x1="300.5" x2="300.5" y1="651.7" y2="664.7"/><line style="stroke:#181818;stroke-width:1.0;" x1="259.5" x2="300.5" y1="664.7" y2="664.7"/><polygon fill="#181818" points="269.5,660.7,259.5,664.7,269.5,668.7,265.5,664.7" style="stroke:#181818;stroke-width:1.0;"/><text fill="#000000" font-family="NanumGothic" font-size="13" lengthAdjust="spacing" textLength="208" x="265.5" y="646.71">&#52264;&#51669; &#54532;&#47196;&#54028;&#51068;&#50640;&#49436; &#52649;&#51204;&#47049; &#51228;&#54620; &#44032;&#51256;&#50740;</text><path d="M485,624.3 L485,678.3 L730,678.3 L730,634.3 L720,624.3 L485,624.3 " fill="#7D5393" style="stroke:#000000;stroke-width:0.5;"/><path d="M720,624.3 L720,634.3 L730,634.3 L720,624.3 " fill="#7D5393" style="stroke:#000000;stroke-width:0.5;"/><text fill="#FFFFFF" font-family="NanumGothic" font-size="13" lengthAdjust="spacing" textLength="224" x="491" y="641.26">&#52649;&#51204;&#44592;&#45716; &#52572;&#45824; &#51204;&#47448;&#47484; &#48320;&#44221;&#54644;&#50556; &#54624; &#46412;&#47560;&#45796;</text><text fill="#FFFFFF" font-family="NanumGothic" font-size="13" lengthAdjust="spacing" textLength="145" x="491" y="656.21">Control Pilot &#49888;&#54840;&#47484; &#53685;&#54644;</text><text fill="#FFFFFF" font-family="NanumGothic" font-size="13" lengthAdjust="spacing" textLength="156" x="491" y="671.16">&#52649;&#51204; &#54532;&#47196;&#54028;&#51068;&#51012; &#44396;&#54788;&#54633;&#45768;&#45796;.</text><polygon fill="#181818" points="121.5,701.1,111.5,705.1,121.5,709.1,117.5,705.1" style="stroke:#181818;stroke-width:1.0;"/><line style="stroke:#181818;stroke-width:1.0;" x1="115.5" x2="247.5" y1="705.1" y2="705.1"/><text fill="#000000" font-family="NanumGothic" font-size="13" lengthAdjust="spacing" textLength="114" x="127.5" y="700.11">&#52572;&#45824; &#51204;&#47448;(&#51228;&#54620;) &#49444;&#51221;</text><!--SRC=[fLJRRjD047ttLmmye4GgV00II0YA50a4egLFl9XusrgOtU1iokKfhGoK9191gbK3IJ6Y5ugAPDgcIg7ya7Vy3ypQJakBArNYnLhFvSoPipDxpkPLfs4ngCld3hjKQpns3CEiIk72-V4fkE7QSymz3sOTngUo7wDckjAksZMJInsJEu-Rhy-QxepDPs12cj8MF0qQ6NFRYOo9snDP51qCGt_XujMJEPTXWicHxQuhfcs7tMDF6gmkIvFFRh1fi-78t3u6RAxEAbPPzsFFcPBzm-38aHKzxeQBcW1vYglMQuBNMUbQjSfgab4PYvrQw6zNMeeBEWgIawGRosm0IMkeLdguyXrV1e1jEhsBTmu0zpOnz21PyjJdNjBfO9zitYg6Fk325lPtiP-6nv67_IQeRwz1xT5n5rGt15mCr5iFS6KHDvfgepC6QZF2_R30tngezg9ghruo6BT0KopGfE1ES3cAjoDGywrulsaOeqafZArOa-8HuwKoODWZqaTtS3XWfwfeY9e4wW8_TXC_KAqbYBT_uuU8f3iBJL8FVsq1zeUutWUrleMjLP8SalS-sNJF_riXXyQVNUhi96uH1e6CsgPilwFM3oZihsav52L5CHq9jqJLTAurvAnmxHViplIqOtDsHReD1XUWLB7Yg9aJmEMkljRuHwGM0kq2cuEZqy6nwvB2fqp7jifbe6qlvKYJpsuAzpv_nCLJNh76kVdGOLO63_20Nu2iGgxbeOXK2xqULFYSXamv-9vg1-MpAlThLNbhYHSHup0UBXfdpLlkAazFjXwdU6UGhurETuIe0KPVSSC_jZjQ5hKKATeYzUKhUK3jD9FtIvJ2d3ehJA45YwDvVRz4KMrt81v6UjqqLAUP-BkKV4R2XOIqTjcQgqzlT2k9twEAJGo766JWwOlXsZEpCls5F9w8w375GO-8W0PO2zJQWUw9HfUOeNy0YH-2ekdQqDkTfryNNBh2WRks8sZcss4I37LYycemwWUAdXxiUn0FjfB0I_pDqNkXOu_UZ5Eq69-wV9ndAMkqdBzcHegHJleV]--></g></svg>