<?xml version="1.0" encoding="us-ascii" standalone="no"?><svg xmlns="http://www.w3.org/2000/svg" xmlns:xlink="http://www.w3.org/1999/xlink" contentStyleType="text/css" height="559px" preserveAspectRatio="none" style="width:617px;height:559px;background:#FFFFFF;" version="1.1" viewBox="0 0 617 559" width="617px" zoomAndPan="magnify"><defs/><g><rect fill="#FFFFFF" height="50.95" style="stroke:#181818;stroke-width:1.0;" width="10" x="32.5" y="93.1"/><rect fill="#FFFFFF" height="28.95" style="stroke:#181818;stroke-width:1.0;" width="10" x="32.5" y="288.8"/><rect fill="#FFFFFF" height="145.8" style="stroke:#181818;stroke-width:1.0;" width="10" x="167.5" y="114.05"/><rect fill="#FFFFFF" height="216.65" style="stroke:#181818;stroke-width:1.0;" width="10" x="167.5" y="288.8"/><rect fill="#FFFFFF" height="28.95" style="stroke:#181818;stroke-width:1.0;" width="10" x="172.5" y="476.5"/><rect fill="#FFFFFF" height="86.85" style="stroke:#181818;stroke-width:1.0;" width="10" x="579.5" y="173"/><rect fill="#FFFFFF" height="28.95" style="stroke:#181818;stroke-width:1.0;" width="10" x="579.5" y="476.5"/><rect fill="none" height="58.9" style="stroke:#000000;stroke-width:1.5;" width="268" x="102.5" y="332.75"/><line style="stroke:#181818;stroke-width:0.5;stroke-dasharray:5.0,5.0;" x1="37" x2="37" y1="83.1" y2="552.4"/><line style="stroke:#181818;stroke-width:0.5;stroke-dasharray:5.0,5.0;" x1="172.5" x2="172.5" y1="83.1" y2="552.4"/><line style="stroke:#181818;stroke-width:0.5;stroke-dasharray:5.0,5.0;" x1="584" x2="584" y1="83.1" y2="552.4"/><text fill="#000000" font-family="NanumGothic" font-size="14" lengthAdjust="spacing" textLength="59" x="5" y="79.88">EV Driver</text><ellipse cx="37.5" cy="14.5" fill="#E2E2F0" rx="8" ry="8" style="stroke:#7D5393;stroke-width:1.5;"/><path d="M37.5,22.5 L37.5,49.5 M24.5,30.5 L50.5,30.5 M37.5,49.5 L24.5,64.5 M37.5,49.5 L50.5,64.5 " fill="none" style="stroke:#7D5393;stroke-width:1.5;"/><rect fill="#7D5393" height="30.1" rx="2.5" ry="2.5" style="stroke:#181818;stroke-width:0.5;" width="120" x="112.5" y="52"/><text fill="#FFFFFF" font-family="NanumGothic" font-size="14" lengthAdjust="spacing" textLength="106" x="119.5" y="71.88">Charging Station</text><rect fill="#7D5393" height="30.1" rx="2.5" ry="2.5" style="stroke:#181818;stroke-width:0.5;" width="53" x="558" y="52"/><text fill="#FFFFFF" font-family="NanumGothic" font-size="14" lengthAdjust="spacing" textLength="39" x="565" y="71.88">CSMS</text><rect fill="#FFFFFF" height="50.95" style="stroke:#181818;stroke-width:1.0;" width="10" x="32.5" y="93.1"/><rect fill="#FFFFFF" height="28.95" style="stroke:#181818;stroke-width:1.0;" width="10" x="32.5" y="288.8"/><rect fill="#FFFFFF" height="145.8" style="stroke:#181818;stroke-width:1.0;" width="10" x="167.5" y="114.05"/><rect fill="#FFFFFF" height="216.65" style="stroke:#181818;stroke-width:1.0;" width="10" x="167.5" y="288.8"/><rect fill="#FFFFFF" height="28.95" style="stroke:#181818;stroke-width:1.0;" width="10" x="172.5" y="476.5"/><rect fill="#FFFFFF" height="86.85" style="stroke:#181818;stroke-width:1.0;" width="10" x="579.5" y="173"/><rect fill="#FFFFFF" height="28.95" style="stroke:#181818;stroke-width:1.0;" width="10" x="579.5" y="476.5"/><polygon fill="#181818" points="155.5,110.05,165.5,114.05,155.5,118.05,159.5,114.05" style="stroke:#181818;stroke-width:1.0;"/><line style="stroke:#181818;stroke-width:1.0;" x1="42.5" x2="161.5" y1="114.05" y2="114.05"/><text fill="#000000" font-family="NanumGothic" font-size="13" lengthAdjust="spacing" textLength="73" x="49.5" y="109.06">Plugin cable</text><polygon fill="#181818" points="567.5,169,577.5,173,567.5,177,571.5,173" style="stroke:#181818;stroke-width:1.0;"/><line style="stroke:#181818;stroke-width:1.0;" x1="177.5" x2="573.5" y1="173" y2="173"/><text fill="#000000" font-family="NanumGothic" font-size="13" lengthAdjust="spacing" textLength="223" x="184.5" y="168.01">StatusNotificationRequest(Occupied)</text><polygon fill="#181818" points="188.5,197.95,178.5,201.95,188.5,205.95,184.5,201.95" style="stroke:#181818;stroke-width:1.0;"/><line style="stroke:#181818;stroke-width:1.0;stroke-dasharray:2.0,2.0;" x1="182.5" x2="578.5" y1="201.95" y2="201.95"/><text fill="#000000" font-family="NanumGothic" font-size="13" lengthAdjust="spacing" textLength="176" x="194.5" y="196.96">StatusNotificationResponse()</text><polygon fill="#181818" points="567.5,226.9,577.5,230.9,567.5,234.9,571.5,230.9" style="stroke:#181818;stroke-width:1.0;"/><line style="stroke:#181818;stroke-width:1.0;" x1="177.5" x2="573.5" y1="230.9" y2="230.9"/><text fill="#000000" font-family="NanumGothic" font-size="13" lengthAdjust="spacing" textLength="300" x="184.5" y="225.91">TransactionEventRequest(eventType = Started,...)</text><polygon fill="#181818" points="183.5,255.85,173.5,259.85,183.5,263.85,179.5,259.85" style="stroke:#181818;stroke-width:1.0;"/><line style="stroke:#181818;stroke-width:1.0;stroke-dasharray:2.0,2.0;" x1="177.5" x2="583.5" y1="259.85" y2="259.85"/><text fill="#000000" font-family="NanumGothic" font-size="13" lengthAdjust="spacing" textLength="183" x="189.5" y="254.86">TransactionEventResponse(...)</text><polygon fill="#181818" points="155.5,284.8,165.5,288.8,155.5,292.8,159.5,288.8" style="stroke:#181818;stroke-width:1.0;"/><line style="stroke:#181818;stroke-width:1.0;" x1="42.5" x2="161.5" y1="288.8" y2="288.8"/><text fill="#000000" font-family="NanumGothic" font-size="13" lengthAdjust="spacing" textLength="111" x="49.5" y="283.81">Press Start Button</text><path d="M102.5,332.75 L168.5,332.75 L168.5,339.7 L158.5,349.7 L102.5,349.7 L102.5,332.75 " fill="#EEEEEE" style="stroke:#000000;stroke-width:1.5;"/><rect fill="none" height="58.9" style="stroke:#000000;stroke-width:1.5;" width="268" x="102.5" y="332.75"/><text fill="#000000" font-family="NanumGothic" font-size="13" font-weight="bold" lengthAdjust="spacing" textLength="21" x="117.5" y="345.71">opt</text><text fill="#000000" font-family="NanumGothic" font-size="11" font-weight="bold" lengthAdjust="spacing" textLength="182" x="183.5" y="344.87">[if cable not permanently attached]</text><line style="stroke:#181818;stroke-width:1.0;" x1="177.5" x2="219.5" y1="370.65" y2="370.65"/><line style="stroke:#181818;stroke-width:1.0;" x1="219.5" x2="219.5" y1="370.65" y2="383.65"/><line style="stroke:#181818;stroke-width:1.0;" x1="178.5" x2="219.5" y1="383.65" y2="383.65"/><polygon fill="#181818" points="188.5,379.65,178.5,383.65,188.5,387.65,184.5,383.65" style="stroke:#181818;stroke-width:1.0;"/><text fill="#000000" font-family="NanumGothic" font-size="13" lengthAdjust="spacing" textLength="89" x="184.5" y="365.66">lock connector</text><line style="stroke:#181818;stroke-width:1.0;" x1="177.5" x2="219.5" y1="419.6" y2="419.6"/><line style="stroke:#181818;stroke-width:1.0;" x1="219.5" x2="219.5" y1="419.6" y2="432.6"/><line style="stroke:#181818;stroke-width:1.0;" x1="178.5" x2="219.5" y1="432.6" y2="432.6"/><polygon fill="#181818" points="188.5,428.6,178.5,432.6,188.5,436.6,184.5,432.6" style="stroke:#181818;stroke-width:1.0;"/><text fill="#000000" font-family="NanumGothic" font-size="13" lengthAdjust="spacing" textLength="108" x="184.5" y="414.61">Start energy offer</text><polygon fill="#181818" points="567.5,472.5,577.5,476.5,567.5,480.5,571.5,476.5" style="stroke:#181818;stroke-width:1.0;"/><line style="stroke:#181818;stroke-width:1.0;" x1="182.5" x2="573.5" y1="476.5" y2="476.5"/><text fill="#000000" font-family="NanumGothic" font-size="13" lengthAdjust="spacing" textLength="291" x="189.5" y="456.56">TransactionEventRequest(eventType = Updated,</text><text fill="#000000" font-family="NanumGothic" font-size="13" lengthAdjust="spacing" textLength="216" x="205.5" y="471.51">idToken.type = NoAuthorization,...)</text><polygon fill="#181818" points="183.5,501.45,173.5,505.45,183.5,509.45,179.5,505.45" style="stroke:#181818;stroke-width:1.0;"/><line style="stroke:#181818;stroke-width:1.0;stroke-dasharray:2.0,2.0;" x1="177.5" x2="583.5" y1="505.45" y2="505.45"/><text fill="#000000" font-family="NanumGothic" font-size="13" lengthAdjust="spacing" textLength="373" x="189.5" y="500.46">TransactionEventResponse(idTokenInfo.status = Accepted,...)</text><polygon fill="#181818" points="160.5,530.4,170.5,534.4,160.5,538.4,164.5,534.4" style="stroke:#181818;stroke-width:1.0;"/><line style="stroke:#181818;stroke-width:1.0;" x1="37.5" x2="166.5" y1="534.4" y2="534.4"/><text fill="#000000" font-family="NanumGothic" font-size="13" lengthAdjust="spacing" textLength="79" x="44.5" y="529.41">Unplug cable</text><!--SRC=[dLDDJyCm3BttLvYTDedr1qm2QS0E71Y8VLo0GqZSDLhdXCITD7uzQRh1r7LZS8bYntv-jbykDCcYL0YUDmMcjbmLII8a6mUTqHpkd5wZwu3mC9hNHcA5Oosr5SJGkSs5MsXQm8G5QqCnTEVS-XePauT97HKkiPPU2yOV_6HtW_vr4se0JqKPR93YlS2Vv6P5XIsuZQ087pWC8lVIZmthJCluzemV9NhkFafPMesgjrSgqgvEwBSHR0Fprf37Rky4XwaJvAiYXaPh9DunmCgORYp2LGNj6DLbcgQzKnGEiRO4OkBUR68l-tPZZB-img7tDIcuAPb3mk7KZsCVZE8brqeXlOLQk_G1rBxsXHhBeBDQ2q26mQ9R2GeT5niGp4Bcg1A0jg4tcocCN88qH5Y9Fq5IxSjgMNTe7mdTOWCcoquA3SvQyymgKQqPNYbaW5PJiqHAkNuTcs79kN7wCuBNOZWwvRDbUrGps_Btb9dKHsq74aCfqNvByG-A-hVOPcJ3pz_- -oy0]--></g></svg>