<?xml version="1.0" encoding="us-ascii" standalone="no"?><svg xmlns="http://www.w3.org/2000/svg" xmlns:xlink="http://www.w3.org/1999/xlink" contentStyleType="text/css" height="384px" preserveAspectRatio="none" style="width:727px;height:384px;background:#FFFFFF;" version="1.1" viewBox="0 0 727 384" width="727px" zoomAndPan="magnify"><defs/><g><rect fill="#FFFFFF" height="28.95" style="stroke:#181818;stroke-width:1.0;" width="10" x="228.5" y="149"/><rect fill="#FFFFFF" height="28.95" style="stroke:#181818;stroke-width:1.0;" width="10" x="523.5" y="149"/><rect fill="none" height="125.4" style="stroke:#000000;stroke-width:1.5;" width="650.5" x="70" y="234.9"/><line style="stroke:#181818;stroke-width:0.5;stroke-dasharray:5.0,5.0;" x1="37" x2="37" y1="83.1" y2="377.3"/><line style="stroke:#181818;stroke-width:0.5;stroke-dasharray:5.0,5.0;" x1="95" x2="95" y1="83.1" y2="377.3"/><line style="stroke:#181818;stroke-width:0.5;stroke-dasharray:5.0,5.0;" x1="233.5" x2="233.5" y1="83.1" y2="377.3"/><line style="stroke:#181818;stroke-width:0.5;stroke-dasharray:5.0,5.0;" x1="528" x2="528" y1="83.1" y2="377.3"/><text fill="#000000" font-family="NanumGothic" font-size="14" lengthAdjust="spacing" textLength="59" x="5" y="79.88">EV Driver</text><ellipse cx="37.5" cy="14.5" fill="#E2E2F0" rx="8" ry="8" style="stroke:#7D5393;stroke-width:1.5;"/><path d="M37.5,22.5 L37.5,49.5 M24.5,30.5 L50.5,30.5 M37.5,49.5 L24.5,64.5 M37.5,49.5 L50.5,64.5 " fill="none" style="stroke:#7D5393;stroke-width:1.5;"/><rect fill="#7D5393" height="30.1" rx="2.5" ry="2.5" style="stroke:#181818;stroke-width:0.5;" width="31" x="80" y="52"/><text fill="#FFFFFF" font-family="NanumGothic" font-size="14" lengthAdjust="spacing" textLength="17" x="87" y="71.88">EV</text><rect fill="#7D5393" height="30.1" rx="2.5" ry="2.5" style="stroke:#181818;stroke-width:0.5;" width="120" x="173.5" y="52"/><text fill="#FFFFFF" font-family="NanumGothic" font-size="14" lengthAdjust="spacing" textLength="106" x="180.5" y="71.88">Charging Station</text><rect fill="#7D5393" height="30.1" rx="2.5" ry="2.5" style="stroke:#181818;stroke-width:0.5;" width="53" x="502" y="52"/><text fill="#FFFFFF" font-family="NanumGothic" font-size="14" lengthAdjust="spacing" textLength="39" x="509" y="71.88">CSMS</text><rect fill="#FFFFFF" height="28.95" style="stroke:#181818;stroke-width:1.0;" width="10" x="228.5" y="149"/><rect fill="#FFFFFF" height="28.95" style="stroke:#181818;stroke-width:1.0;" width="10" x="523.5" y="149"/><path d="M10,98.1 L10,122.1 L555,122.1 L555,108.1 L545,98.1 L10,98.1 " fill="#7D5393" style="stroke:#000000;stroke-width:0.5;"/><path d="M545,98.1 L545,108.1 L555,108.1 L545,98.1 " fill="#7D5393" style="stroke:#000000;stroke-width:0.5;"/><text fill="#FFFFFF" font-family="NanumGothic" font-size="13" lengthAdjust="spacing" textLength="232" x="162" y="115.06">&#49324;&#50857;&#51088; &#51064;&#51613;&#50640; &#49457;&#44277;&#54616;&#44256; &#53944;&#47004;&#51117;&#49496;&#51060; &#49884;&#51089;&#46120;</text><polygon fill="#181818" points="249.5,145,239.5,149,249.5,153,245.5,149" style="stroke:#181818;stroke-width:1.0;"/><line style="stroke:#181818;stroke-width:1.0;" x1="243.5" x2="522.5" y1="149" y2="149"/><text fill="#000000" font-family="NanumGothic" font-size="13" lengthAdjust="spacing" textLength="271" x="255.5" y="144.01">SetChargingProfileRequest(TxProfile, evseId)</text><polygon fill="#181818" points="516.5,173.95,526.5,177.95,516.5,181.95,520.5,177.95" style="stroke:#181818;stroke-width:1.0;"/><line style="stroke:#181818;stroke-width:1.0;stroke-dasharray:2.0,2.0;" x1="233.5" x2="522.5" y1="177.95" y2="177.95"/><text fill="#000000" font-family="NanumGothic" font-size="13" lengthAdjust="spacing" textLength="238" x="240.5" y="172.96">SetChargingProfileResponse(Accepted)</text><line style="stroke:#181818;stroke-width:1.0;" x1="233.5" x2="275.5" y1="206.9" y2="206.9"/><line style="stroke:#181818;stroke-width:1.0;" x1="275.5" x2="275.5" y1="206.9" y2="219.9"/><line style="stroke:#181818;stroke-width:1.0;" x1="234.5" x2="275.5" y1="219.9" y2="219.9"/><polygon fill="#181818" points="244.5,215.9,234.5,219.9,244.5,223.9,240.5,219.9" style="stroke:#181818;stroke-width:1.0;"/><text fill="#000000" font-family="NanumGothic" font-size="13" lengthAdjust="spacing" textLength="52" x="240.5" y="201.91">&#50672;&#44208; &#45130;&#44608;</text><path d="M70,234.9 L142,234.9 L142,241.85 L132,251.85 L70,251.85 L70,234.9 " fill="#EEEEEE" style="stroke:#000000;stroke-width:1.5;"/><rect fill="none" height="125.4" style="stroke:#000000;stroke-width:1.5;" width="650.5" x="70" y="234.9"/><text fill="#000000" font-family="NanumGothic" font-size="13" font-weight="bold" lengthAdjust="spacing" textLength="27" x="85" y="247.86">loop</text><text fill="#000000" font-family="NanumGothic" font-size="11" font-weight="bold" lengthAdjust="spacing" textLength="150" x="157" y="247.02">[&#52264;&#51669; &#54532;&#47196;&#54028;&#51068;&#50640; &#46384;&#46972; &#47336;&#54532; &#48320;&#54868;]</text><line style="stroke:#000000;stroke-width:1.0;stroke-dasharray:2.0,2.0;" x1="70" x2="720.5" y1="252.85" y2="252.85"/><text fill="#000000" font-family="NanumGothic" font-size="11" font-weight="bold" lengthAdjust="spacing" textLength="183" x="75" y="262.97">[&#52264;&#51669; &#54532;&#47196;&#54028;&#51068;&#51032; &#44033; &#51064;&#53552;&#48268; &#44592;&#44036;&#50640; &#45824;&#54644;]</text><line style="stroke:#181818;stroke-width:1.0;" x1="233.5" x2="275.5" y1="298.9" y2="298.9"/><line style="stroke:#181818;stroke-width:1.0;" x1="275.5" x2="275.5" y1="298.9" y2="311.9"/><line style="stroke:#181818;stroke-width:1.0;" x1="234.5" x2="275.5" y1="311.9" y2="311.9"/><polygon fill="#181818" points="244.5,307.9,234.5,311.9,244.5,315.9,240.5,311.9" style="stroke:#181818;stroke-width:1.0;"/><text fill="#000000" font-family="NanumGothic" font-size="13" lengthAdjust="spacing" textLength="208" x="240.5" y="293.91">&#52264;&#51669; &#54532;&#47196;&#54028;&#51068;&#50640;&#49436; &#52649;&#51204;&#47049; &#51228;&#54620; &#44032;&#51256;&#50740;</text><path d="M460,271.5 L460,325.5 L705,325.5 L705,281.5 L695,271.5 L460,271.5 " fill="#7D5393" style="stroke:#000000;stroke-width:0.5;"/><path d="M695,271.5 L695,281.5 L705,281.5 L695,271.5 " fill="#7D5393" style="stroke:#000000;stroke-width:0.5;"/><text fill="#FFFFFF" font-family="NanumGothic" font-size="13" lengthAdjust="spacing" textLength="224" x="466" y="288.46">&#52649;&#51204;&#44592;&#45716; &#52572;&#45824; &#51204;&#47448;&#47484; &#48320;&#44221;&#54644;&#50556; &#54624; &#46412;&#47560;&#45796;</text><text fill="#FFFFFF" font-family="NanumGothic" font-size="13" lengthAdjust="spacing" textLength="145" x="466" y="303.41">Control Pilot &#49888;&#54840;&#47484; &#53685;&#54644;</text><text fill="#FFFFFF" font-family="NanumGothic" font-size="13" lengthAdjust="spacing" textLength="156" x="466" y="318.36">&#52649;&#51204; &#54532;&#47196;&#54028;&#51068;&#51012; &#44396;&#54788;&#54633;&#45768;&#45796;.</text><polygon fill="#181818" points="106.5,348.3,96.5,352.3,106.5,356.3,102.5,352.3" style="stroke:#181818;stroke-width:1.0;"/><line style="stroke:#181818;stroke-width:1.0;" x1="100.5" x2="232.5" y1="352.3" y2="352.3"/><text fill="#000000" font-family="NanumGothic" font-size="13" lengthAdjust="spacing" textLength="114" x="112.5" y="347.31">&#52572;&#45824; &#51204;&#47448;(&#51228;&#54620;) &#49444;&#51221;</text><!--SRC=[ZL9DRzD04BtlhnXwIgMsFw0795Hou52f8YXtArbIIwxNs9i8RYao298SYXIh1jd1Y7uaKf5Cqg0WXJ_adVqFx3e9fPQHkEtCcvdttkmyCEs6rMvIyFWhY-uvxHEB4AF1cGjRrJeyTiqETRV0yA1QNmN4CLnkDap7iBckMOFtqmV7XjioxHRKkC5DPkT5c-GwL-Ye7TPMLUf1YCqu1QRe_l3kh100V7s3doOuEWEC5tWLuxbw-T-psLm6OJPBGFOMOXJXw1k-2J6-1Uohu8Cu6nDgDq5F9aJFWjs7HKtxKADyapjosNFJea_fYpRrUENPotLY1sZ7eq-QstfHPiTGIelMxe3SJG66NSsia78wps6sHokF6WtgSAfeclIVH7z3vLGb7l4ypQOfYDDUzhDBYCMO0vYEyJe0EVJ5bqWE1XWlzMB5C1Nn4iJNiK90pBhouv1GowEb3N48MNgg_qNwgPWE85kaMUhdWmPT6Togx_ilWQLYq8y0VqmmySNdzu1998D8yNKnMM2eH-T7uvgjOwu2MDSg2Q8t19n7IWBevijGN2wrbspwIsd2O0aoI4040t7zJlGlykO3PdENMN1aMeoh4qfakD1jykryvMCplx017xBvZGnz6Kn4Nq_RKxLtTrVglrhVlw-liZAthUxw0fD0totv3G00]--></g></svg>