<?xml version="1.0" encoding="us-ascii" standalone="no"?><svg xmlns="http://www.w3.org/2000/svg" xmlns:xlink="http://www.w3.org/1999/xlink" contentStyleType="text/css" height="850px" preserveAspectRatio="none" style="width:509px;height:850px;background:#FFFFFF;" version="1.1" viewBox="0 0 509 850" width="509px" zoomAndPan="magnify"><defs/><g><rect fill="#FFFFFF" height="715.8" style="stroke:#181818;stroke-width:1.0;" width="10" x="117" y="46.1"/><rect fill="#FFFFFF" height="275.6" style="stroke:#181818;stroke-width:1.0;" width="10" x="218.5" y="229.7"/><rect fill="#FFFFFF" height="101.9" style="stroke:#181818;stroke-width:1.0;" width="10" x="218.5" y="653"/><rect fill="#FFFFFF" height="48.95" style="stroke:#181818;stroke-width:1.0;" width="10" x="321.5" y="267.65"/><rect fill="#FFFFFF" height="48.95" style="stroke:#181818;stroke-width:1.0;" width="10" x="321.5" y="441.35"/><rect fill="#FFFFFF" height="48.95" style="stroke:#181818;stroke-width:1.0;" width="10" x="321.5" y="690.95"/><rect fill="none" height="773.65" style="stroke:#000000;stroke-width:1.5;" width="494" x="9" y="53.1"/><rect fill="none" height="363.4" style="stroke:#000000;stroke-width:1.5;" width="424" x="68" y="141.9"/><rect fill="none" height="79.9" style="stroke:#000000;stroke-width:1.5;" width="317" x="166" y="244.7"/><rect fill="none" height="79.9" style="stroke:#000000;stroke-width:1.5;" width="317" x="166" y="418.4"/><rect fill="none" height="96.75" style="stroke:#000000;stroke-width:1.5;" width="257" x="95" y="519.3"/><rect fill="none" height="124.85" style="stroke:#000000;stroke-width:1.5;" width="425" x="68" y="630.05"/><rect fill="none" height="79.9" style="stroke:#000000;stroke-width:1.5;" width="317" x="166" y="668"/><line style="stroke:#181818;stroke-width:0.5;stroke-dasharray:5.0,5.0;" x1="122" x2="122" y1="36.1" y2="843.75"/><line style="stroke:#181818;stroke-width:0.5;stroke-dasharray:5.0,5.0;" x1="223" x2="223" y1="36.1" y2="843.75"/><line style="stroke:#181818;stroke-width:0.5;stroke-dasharray:5.0,5.0;" x1="326" x2="326" y1="36.1" y2="843.75"/><rect fill="#7D5393" height="30.1" rx="2.5" ry="2.5" style="stroke:#181818;stroke-width:0.5;" width="88" x="78" y="5"/><text fill="#FFFFFF" font-family="NanumGothic" font-size="14" lengthAdjust="spacing" textLength="74" x="85" y="24.88">Transaction</text><rect fill="#7D5393" height="30.1" rx="2.5" ry="2.5" style="stroke:#181818;stroke-width:0.5;" width="95" x="176" y="5"/><text fill="#FFFFFF" font-family="NanumGothic" font-size="14" lengthAdjust="spacing" textLength="81" x="183" y="24.88">Energy Offer</text><rect fill="#7D5393" height="30.1" rx="2.5" ry="2.5" style="stroke:#181818;stroke-width:0.5;" width="91" x="281" y="5"/><text fill="#FFFFFF" font-family="NanumGothic" font-size="14" lengthAdjust="spacing" textLength="77" x="288" y="24.88">Energy Flow</text><rect fill="#FFFFFF" height="715.8" style="stroke:#181818;stroke-width:1.0;" width="10" x="117" y="46.1"/><rect fill="#FFFFFF" height="275.6" style="stroke:#181818;stroke-width:1.0;" width="10" x="218.5" y="229.7"/><rect fill="#FFFFFF" height="101.9" style="stroke:#181818;stroke-width:1.0;" width="10" x="218.5" y="653"/><rect fill="#FFFFFF" height="48.95" style="stroke:#181818;stroke-width:1.0;" width="10" x="321.5" y="267.65"/><rect fill="#FFFFFF" height="48.95" style="stroke:#181818;stroke-width:1.0;" width="10" x="321.5" y="441.35"/><rect fill="#FFFFFF" height="48.95" style="stroke:#181818;stroke-width:1.0;" width="10" x="321.5" y="690.95"/><path d="M9,53.1 L163,53.1 L163,60.05 L153,70.05 L9,70.05 L9,53.1 " fill="#EEEEEE" style="stroke:#000000;stroke-width:1.5;"/><rect fill="none" height="773.65" style="stroke:#000000;stroke-width:1.5;" width="494" x="9" y="53.1"/><text fill="#000000" font-family="NanumGothic" font-size="13" font-weight="bold" lengthAdjust="spacing" textLength="109" x="24" y="66.06">TransactionGroup</text><path d="M19,75.05 L19,129.05 L224,129.05 L224,85.05 L214,75.05 L19,75.05 " fill="#7D5393" style="stroke:#000000;stroke-width:0.5;"/><path d="M214,75.05 L214,85.05 L224,85.05 L214,75.05 " fill="#7D5393" style="stroke:#000000;stroke-width:0.5;"/><text fill="#FFFFFF" font-family="NanumGothic" font-size="13" lengthAdjust="spacing" textLength="184" x="25" y="92.01">&#53944;&#47004;&#51117;&#49496; &#49884;&#51089;&#51008; &#45796;&#51020; &#48320;&#49688;&#47484; &#53685;&#54644;</text><text fill="#FFFFFF" font-family="NanumGothic" font-size="13" lengthAdjust="spacing" textLength="92" x="25" y="106.96">&#49444;&#51221; &#44032;&#45733;&#54633;&#45768;&#45796;:</text><text fill="#FFFFFF" font-family="NanumGothic" font-size="13" lengthAdjust="spacing" textLength="75" x="25" y="121.91">TxStartPoint</text><path d="M68,141.9 L225,141.9 L225,148.85 L215,158.85 L68,158.85 L68,141.9 " fill="#EEEEEE" style="stroke:#000000;stroke-width:1.5;"/><rect fill="none" height="363.4" style="stroke:#000000;stroke-width:1.5;" width="424" x="68" y="141.9"/><text fill="#000000" font-family="NanumGothic" font-size="13" font-weight="bold" lengthAdjust="spacing" textLength="112" x="83" y="154.86">EnergyOfferPeriod</text><path d="M112,163.85 L112,217.85 L335,217.85 L335,173.85 L325,163.85 L112,163.85 " fill="#7D5393" style="stroke:#000000;stroke-width:0.5;"/><path d="M325,163.85 L325,173.85 L335,173.85 L325,163.85 " fill="#7D5393" style="stroke:#000000;stroke-width:0.5;"/><text fill="#FFFFFF" font-family="NanumGothic" font-size="13" lengthAdjust="spacing" textLength="202" x="118" y="180.81">&#50640;&#45320;&#51648; &#51228;&#44277; &#44592;&#44036;&#51008; EVSE&#44032; &#51456;&#48708;&#46104;&#44256;</text><text fill="#FFFFFF" font-family="NanumGothic" font-size="13" lengthAdjust="spacing" textLength="156" x="118" y="195.76">&#50640;&#45320;&#51648; &#51228;&#44277;&#51012; &#54616;&#47140;&#45716; &#49884;&#51216;&#50640;</text><text fill="#FFFFFF" font-family="NanumGothic" font-size="13" lengthAdjust="spacing" textLength="64" x="118" y="210.71">&#49884;&#51089;&#46121;&#45768;&#45796;.</text><path d="M166,244.7 L341,244.7 L341,251.65 L331,261.65 L166,261.65 L166,244.7 " fill="#EEEEEE" style="stroke:#000000;stroke-width:1.5;"/><rect fill="none" height="79.9" style="stroke:#000000;stroke-width:1.5;" width="317" x="166" y="244.7"/><text fill="#000000" font-family="NanumGothic" font-size="13" font-weight="bold" lengthAdjust="spacing" textLength="130" x="181" y="257.66">EnergyTransferPeriod</text><path d="M336,280.65 L336,304.65 L473,304.65 L473,290.65 L463,280.65 L336,280.65 " fill="#7D5393" style="stroke:#000000;stroke-width:0.5;"/><path d="M463,280.65 L463,290.65 L473,290.65 L463,280.65 " fill="#7D5393" style="stroke:#000000;stroke-width:0.5;"/><text fill="#FFFFFF" font-family="NanumGothic" font-size="13" lengthAdjust="spacing" textLength="116" x="342" y="297.61">&#50640;&#45320;&#51648;&#44032; &#51204;&#45804;&#46121;&#45768;&#45796;.</text><path d="M233,336.6 L233,405.6 L482,405.6 L482,346.6 L472,336.6 L233,336.6 " fill="#7D5393" style="stroke:#000000;stroke-width:0.5;"/><path d="M472,336.6 L472,346.6 L482,346.6 L472,336.6 " fill="#7D5393" style="stroke:#000000;stroke-width:0.5;"/><text fill="#FFFFFF" font-family="NanumGothic" font-size="13" lengthAdjust="spacing" textLength="164" x="239" y="353.56">EnergyOfferPeriod &#44592;&#44036;&#46041;&#50504;</text><text fill="#FFFFFF" font-family="NanumGothic" font-size="13" lengthAdjust="spacing" textLength="181" x="239" y="368.51">&#48176;&#53552;&#47532; &#44256;&#50728;/&#50756;&#52649; &#46608;&#45716; EV &#45236;&#48512;&#51032;</text><text fill="#FFFFFF" font-family="NanumGothic" font-size="13" lengthAdjust="spacing" textLength="228" x="239" y="383.46">&#49828;&#47560;&#53944; &#52264;&#51669;&#51004;&#47196; &#51064;&#54644; EV&#44032; &#52649;&#51204;&#46104;&#51648; &#50506;&#45716;</text><text fill="#FFFFFF" font-family="NanumGothic" font-size="13" lengthAdjust="spacing" textLength="148" x="239" y="398.41">&#44592;&#44036;&#51060; &#51316;&#51116;&#54624; &#49688; &#51080;&#49845;&#45768;&#45796;.</text><path d="M166,418.4 L341,418.4 L341,425.35 L331,435.35 L166,435.35 L166,418.4 " fill="#EEEEEE" style="stroke:#000000;stroke-width:1.5;"/><rect fill="none" height="79.9" style="stroke:#000000;stroke-width:1.5;" width="317" x="166" y="418.4"/><text fill="#000000" font-family="NanumGothic" font-size="13" font-weight="bold" lengthAdjust="spacing" textLength="130" x="181" y="431.36">EnergyTransferPeriod</text><path d="M336,454.35 L336,478.35 L473,478.35 L473,464.35 L463,454.35 L336,454.35 " fill="#7D5393" style="stroke:#000000;stroke-width:0.5;"/><path d="M463,454.35 L463,464.35 L473,464.35 L463,454.35 " fill="#7D5393" style="stroke:#000000;stroke-width:0.5;"/><text fill="#FFFFFF" font-family="NanumGothic" font-size="13" lengthAdjust="spacing" textLength="116" x="342" y="471.31">&#50640;&#45320;&#51648;&#44032; &#51204;&#45804;&#46121;&#45768;&#45796;.</text><path d="M95,519.3 L304,519.3 L304,526.25 L294,536.25 L95,536.25 L95,519.3 " fill="#EEEEEE" style="stroke:#000000;stroke-width:1.5;"/><rect fill="none" height="96.75" style="stroke:#000000;stroke-width:1.5;" width="257" x="95" y="519.3"/><text fill="#000000" font-family="NanumGothic" font-size="13" font-weight="bold" lengthAdjust="spacing" textLength="164" x="110" y="532.26">EnergyOfferSuspendPeriod</text><path d="M105,541.25 L105,610.25 L342,610.25 L342,551.25 L332,541.25 L105,541.25 " fill="#7D5393" style="stroke:#000000;stroke-width:0.5;"/><path d="M332,541.25 L332,551.25 L342,551.25 L332,541.25 " fill="#7D5393" style="stroke:#000000;stroke-width:0.5;"/><text fill="#FFFFFF" font-family="NanumGothic" font-size="13" lengthAdjust="spacing" textLength="212" x="111" y="558.21">&#53944;&#47004;&#51117;&#49496; &#44592;&#44036;&#46041;&#50504; EV&#47196; &#50640;&#45320;&#51648; &#51204;&#45804;&#51060;</text><text fill="#FFFFFF" font-family="NanumGothic" font-size="13" lengthAdjust="spacing" textLength="216" x="111" y="573.16">&#49828;&#47560;&#53944; &#52264;&#51669; &#46608;&#45716; &#47196;&#52972; &#48512;&#54616; &#51312;&#51208;&#47196; &#51064;&#54644;</text><text fill="#FFFFFF" font-family="NanumGothic" font-size="13" lengthAdjust="spacing" textLength="174" x="111" y="588.11">EVSE&#50640;&#49436; &#51204;&#44592;&#47484; &#51204;&#45804;&#54616;&#51648; &#50506;&#45716;</text><text fill="#FFFFFF" font-family="NanumGothic" font-size="13" lengthAdjust="spacing" textLength="148" x="111" y="603.06">&#44592;&#44036;&#51060; &#51316;&#51116;&#54624; &#49688; &#51080;&#49845;&#45768;&#45796;.</text><path d="M68,630.05 L225,630.05 L225,637 L215,647 L68,647 L68,630.05 " fill="#EEEEEE" style="stroke:#000000;stroke-width:1.5;"/><rect fill="none" height="124.85" style="stroke:#000000;stroke-width:1.5;" width="425" x="68" y="630.05"/><text fill="#000000" font-family="NanumGothic" font-size="13" font-weight="bold" lengthAdjust="spacing" textLength="112" x="83" y="643.01">EnergyOfferPeriod</text><path d="M166,668 L341,668 L341,674.95 L331,684.95 L166,684.95 L166,668 " fill="#EEEEEE" style="stroke:#000000;stroke-width:1.5;"/><rect fill="none" height="79.9" style="stroke:#000000;stroke-width:1.5;" width="317" x="166" y="668"/><text fill="#000000" font-family="NanumGothic" font-size="13" font-weight="bold" lengthAdjust="spacing" textLength="130" x="181" y="680.96">EnergyTransferPeriod</text><path d="M336,703.95 L336,727.95 L473,727.95 L473,713.95 L463,703.95 L336,703.95 " fill="#7D5393" style="stroke:#000000;stroke-width:0.5;"/><path d="M463,703.95 L463,713.95 L473,713.95 L463,703.95 " fill="#7D5393" style="stroke:#000000;stroke-width:0.5;"/><text fill="#FFFFFF" font-family="NanumGothic" font-size="13" lengthAdjust="spacing" textLength="116" x="342" y="720.91">&#50640;&#45320;&#51648;&#44032; &#51204;&#45804;&#46121;&#45768;&#45796;.</text><path d="M19,766.9 L19,820.9 L224,820.9 L224,776.9 L214,766.9 L19,766.9 " fill="#7D5393" style="stroke:#000000;stroke-width:0.5;"/><path d="M214,766.9 L214,776.9 L224,776.9 L214,766.9 " fill="#7D5393" style="stroke:#000000;stroke-width:0.5;"/><text fill="#FFFFFF" font-family="NanumGothic" font-size="13" lengthAdjust="spacing" textLength="184" x="25" y="783.86">&#53944;&#47004;&#51117;&#49496; &#51221;&#51648;&#45716; &#45796;&#51020; &#48320;&#49688;&#47484; &#53685;&#54644;</text><text fill="#FFFFFF" font-family="NanumGothic" font-size="13" lengthAdjust="spacing" textLength="92" x="25" y="798.81">&#49444;&#51221; &#44032;&#45733;&#54633;&#45768;&#45796;.</text><text fill="#FFFFFF" font-family="NanumGothic" font-size="13" lengthAdjust="spacing" textLength="74" x="25" y="813.76">TxStopPoint</text><!--SRC=[xLLBYzDG5DxdLnndFtNlmbrrwK27sOYBqAITG4r2cexEBaYKa0f6C9Y1jcIWOwTG8T075USNzPxy1qzkskbD7rhHvTnLxhtVUNtdoxcFDBtQQ2agDEtBXbeoMwyRacJAbgrLDLFMRJWwjMIzALTjpT2FG6w2i2y2oxfgrI_XHQscMXoP7_3zJkIpXl5606PRISeyNyYsMeXJjuoMAPuyvmSIW6uGrBXGhG8UQAN-dFKwsFkExoF0Ddrzngu3hDt7xaTWOmUzYDtSGVfXceOJRe9k7-CG5ed3_9iq7BAsH_0d_ExqRSMc6auCJRVfGDKL7bkYxpmxeTeJrT8CXPkjynFP0BxmQy1S3mSEODnPZAUmc2UBnCsoB9zLofG6ODzXFrmMH8jnlCSAkowaOSJYFlE_y4BZW30hD2-S1SjQIlnOJ1v4uk3uvRccAAh-wlZfLiBtdH4l-8r80FTMv014YnqXUEDpu4QCN1Bv5MVIqkhdDXYrRKk164vSxBBsQAFkpSf1SFFRqW4KTLTgAvUS04dQbwReQ4icowwpJrSOUaiGIvBKJTYt4L3VCRfzZ5SkpeR0eY1hSlaCsBi9cpdOZLPzzljiu97c0PDR78JOkMFN7S3kdCHD1foJsJ2Z9OYuU4AVN2sjLyAR05vFi3TAmnZezm3iUUXFzqldeV6yyJjnUT6qf0sDR8sBIgjf4kB0gL6OQw9sgCkyvS9yoAYWhkxHo4fEP8K_Hq1weZb22aWmzjRYMH564ubSezl9_5BSR7Rc4SZgVoZgJpG9_FpJo7eGxW72tUo6W2e-j8S-m758TNAr_VK3NBf_W0rpw_rTP_aB]--></g></svg>