<?xml version="1.0" encoding="us-ascii" standalone="no"?><svg xmlns="http://www.w3.org/2000/svg" xmlns:xlink="http://www.w3.org/1999/xlink" contentStyleType="text/css" height="844px" preserveAspectRatio="none" style="width:954px;height:844px;background:#FFFFFF;" version="1.1" viewBox="0 0 954 844" width="954px" zoomAndPan="magnify"><defs/><g><rect fill="#FFFFFF" height="28.95" style="stroke:#181818;stroke-width:1.0;" width="10" x="40.5" y="114.95"/><rect fill="#FFFFFF" height="28.95" style="stroke:#181818;stroke-width:1.0;" width="10" x="40.5" y="187.5"/><rect fill="#FFFFFF" height="28.95" style="stroke:#181818;stroke-width:1.0;" width="10" x="40.5" y="423.1"/><rect fill="#FFFFFF" height="28.95" style="stroke:#181818;stroke-width:1.0;" width="10" x="40.5" y="495.65"/><rect fill="#FFFFFF" height="159.75" style="stroke:#181818;stroke-width:1.0;" width="10" x="40.5" y="560.55"/><rect fill="#FFFFFF" height="28.95" style="stroke:#181818;stroke-width:1.0;" width="10" x="499.5" y="114.95"/><rect fill="#FFFFFF" height="28.95" style="stroke:#181818;stroke-width:1.0;" width="10" x="499.5" y="187.5"/><rect fill="#FFFFFF" height="28.95" style="stroke:#181818;stroke-width:1.0;" width="10" x="499.5" y="252.4"/><rect fill="#FFFFFF" height="28.95" style="stroke:#181818;stroke-width:1.0;" width="10" x="499.5" y="341.25"/><rect fill="#FFFFFF" height="28.95" style="stroke:#181818;stroke-width:1.0;" width="10" x="499.5" y="423.1"/><rect fill="#FFFFFF" height="28.95" style="stroke:#181818;stroke-width:1.0;" width="10" x="499.5" y="495.65"/><rect fill="#FFFFFF" height="31.95" style="stroke:#181818;stroke-width:1.0;" width="10" x="499.5" y="560.55"/><rect fill="#FFFFFF" height="31.95" style="stroke:#181818;stroke-width:1.0;" width="10" x="499.5" y="624.45"/><rect fill="#FFFFFF" height="31.95" style="stroke:#181818;stroke-width:1.0;" width="10" x="499.5" y="688.35"/><rect fill="#FFFFFF" height="28.95" style="stroke:#181818;stroke-width:1.0;" width="10" x="499.5" y="776.2"/><rect fill="#FFFFFF" height="28.95" style="stroke:#181818;stroke-width:1.0;" width="10" x="896.5" y="252.4"/><rect fill="#FFFFFF" height="28.95" style="stroke:#181818;stroke-width:1.0;" width="10" x="896.5" y="341.25"/><rect fill="#FFFFFF" height="28.95" style="stroke:#181818;stroke-width:1.0;" width="10" x="896.5" y="776.2"/><rect fill="none" height="236.25" style="stroke:#000000;stroke-width:1.5;" width="928" x="10" y="53.1"/><rect fill="none" height="147.4" style="stroke:#000000;stroke-width:1.5;" width="554.5" x="20" y="77.05"/><rect fill="none" height="516.8" style="stroke:#000000;stroke-width:1.5;" width="938" x="10" y="303.35"/><rect fill="none" height="147.4" style="stroke:#000000;stroke-width:1.5;" width="554.5" x="20" y="385.2"/><rect fill="none" height="74.85" style="stroke:#000000;stroke-width:1.5;" width="503.5" x="434.5" y="738.3"/><line style="stroke:#181818;stroke-width:0.5;stroke-dasharray:5.0,5.0;" x1="45" x2="45" y1="36.1" y2="837.15"/><line style="stroke:#181818;stroke-width:0.5;stroke-dasharray:5.0,5.0;" x1="504.5" x2="504.5" y1="36.1" y2="837.15"/><line style="stroke:#181818;stroke-width:0.5;stroke-dasharray:5.0,5.0;" x1="901" x2="901" y1="36.1" y2="837.15"/><rect fill="#7D5393" height="30.1" rx="2.5" ry="2.5" style="stroke:#181818;stroke-width:0.5;" width="31" x="30" y="5"/><text fill="#FFFFFF" font-family="NanumGothic" font-size="14" lengthAdjust="spacing" textLength="17" x="37" y="24.88">EV</text><rect fill="#7D5393" height="30.1" rx="2.5" ry="2.5" style="stroke:#181818;stroke-width:0.5;" width="120" x="444.5" y="5"/><text fill="#FFFFFF" font-family="NanumGothic" font-size="14" lengthAdjust="spacing" textLength="106" x="451.5" y="24.88">Charging Station</text><rect fill="#7D5393" height="30.1" rx="2.5" ry="2.5" style="stroke:#181818;stroke-width:0.5;" width="53" x="875" y="5"/><text fill="#FFFFFF" font-family="NanumGothic" font-size="14" lengthAdjust="spacing" textLength="39" x="882" y="24.88">CSMS</text><rect fill="#FFFFFF" height="28.95" style="stroke:#181818;stroke-width:1.0;" width="10" x="40.5" y="114.95"/><rect fill="#FFFFFF" height="28.95" style="stroke:#181818;stroke-width:1.0;" width="10" x="40.5" y="187.5"/><rect fill="#FFFFFF" height="28.95" style="stroke:#181818;stroke-width:1.0;" width="10" x="40.5" y="423.1"/><rect fill="#FFFFFF" height="28.95" style="stroke:#181818;stroke-width:1.0;" width="10" x="40.5" y="495.65"/><rect fill="#FFFFFF" height="159.75" style="stroke:#181818;stroke-width:1.0;" width="10" x="40.5" y="560.55"/><rect fill="#FFFFFF" height="28.95" style="stroke:#181818;stroke-width:1.0;" width="10" x="499.5" y="114.95"/><rect fill="#FFFFFF" height="28.95" style="stroke:#181818;stroke-width:1.0;" width="10" x="499.5" y="187.5"/><rect fill="#FFFFFF" height="28.95" style="stroke:#181818;stroke-width:1.0;" width="10" x="499.5" y="252.4"/><rect fill="#FFFFFF" height="28.95" style="stroke:#181818;stroke-width:1.0;" width="10" x="499.5" y="341.25"/><rect fill="#FFFFFF" height="28.95" style="stroke:#181818;stroke-width:1.0;" width="10" x="499.5" y="423.1"/><rect fill="#FFFFFF" height="28.95" style="stroke:#181818;stroke-width:1.0;" width="10" x="499.5" y="495.65"/><rect fill="#FFFFFF" height="31.95" style="stroke:#181818;stroke-width:1.0;" width="10" x="499.5" y="560.55"/><rect fill="#FFFFFF" height="31.95" style="stroke:#181818;stroke-width:1.0;" width="10" x="499.5" y="624.45"/><rect fill="#FFFFFF" height="31.95" style="stroke:#181818;stroke-width:1.0;" width="10" x="499.5" y="688.35"/><rect fill="#FFFFFF" height="28.95" style="stroke:#181818;stroke-width:1.0;" width="10" x="499.5" y="776.2"/><rect fill="#FFFFFF" height="28.95" style="stroke:#181818;stroke-width:1.0;" width="10" x="896.5" y="252.4"/><rect fill="#FFFFFF" height="28.95" style="stroke:#181818;stroke-width:1.0;" width="10" x="896.5" y="341.25"/><rect fill="#FFFFFF" height="28.95" style="stroke:#181818;stroke-width:1.0;" width="10" x="896.5" y="776.2"/><path d="M10,53.1 L82,53.1 L82,60.05 L72,70.05 L10,70.05 L10,53.1 " fill="#EEEEEE" style="stroke:#000000;stroke-width:1.5;"/><rect fill="none" height="236.25" style="stroke:#000000;stroke-width:1.5;" width="928" x="10" y="53.1"/><text fill="#000000" font-family="NanumGothic" font-size="13" font-weight="bold" lengthAdjust="spacing" textLength="27" x="25" y="66.06">loop</text><text fill="#000000" font-family="NanumGothic" font-size="11" font-weight="bold" lengthAdjust="spacing" textLength="70" x="97" y="65.22">[&#52649;&#51204; &#51652;&#54665;&#51473;...]</text><path d="M20,77.05 L80,77.05 L80,84 L70,94 L20,94 L20,77.05 " fill="#EEEEEE" style="stroke:#000000;stroke-width:1.5;"/><rect fill="none" height="147.4" style="stroke:#000000;stroke-width:1.5;" width="554.5" x="20" y="77.05"/><text fill="#000000" font-family="NanumGothic" font-size="13" font-weight="bold" lengthAdjust="spacing" textLength="15" x="35" y="90.01">alt</text><text fill="#000000" font-family="NanumGothic" font-size="11" font-weight="bold" lengthAdjust="spacing" textLength="97" x="95" y="89.17">[AC Charging&#51068; &#46412;]</text><polygon fill="#181818" points="487.5,110.95,497.5,114.95,487.5,118.95,491.5,114.95" style="stroke:#181818;stroke-width:1.0;"/><line style="stroke:#181818;stroke-width:1.0;" x1="50.5" x2="493.5" y1="114.95" y2="114.95"/><text fill="#000000" font-family="NanumGothic" font-size="13" lengthAdjust="spacing" textLength="127" x="57.5" y="109.96">ChargingStatusReq()</text><polygon fill="#181818" points="56.5,139.9,46.5,143.9,56.5,147.9,52.5,143.9" style="stroke:#181818;stroke-width:1.0;"/><line style="stroke:#181818;stroke-width:1.0;stroke-dasharray:2.0,2.0;" x1="50.5" x2="503.5" y1="143.9" y2="143.9"/><text fill="#000000" font-family="NanumGothic" font-size="13" lengthAdjust="spacing" textLength="125" x="62.5" y="138.91">ChargingStatusRes()</text><line style="stroke:#000000;stroke-width:1.0;stroke-dasharray:2.0,2.0;" x1="20" x2="574.5" y1="152.9" y2="152.9"/><text fill="#000000" font-family="NanumGothic" font-size="11" font-weight="bold" lengthAdjust="spacing" textLength="97" x="25" y="163.02">[DC Charging&#51068; &#46412;]</text><polygon fill="#181818" points="487.5,183.5,497.5,187.5,487.5,191.5,491.5,187.5" style="stroke:#181818;stroke-width:1.0;"/><line style="stroke:#181818;stroke-width:1.0;" x1="50.5" x2="493.5" y1="187.5" y2="187.5"/><text fill="#000000" font-family="NanumGothic" font-size="13" lengthAdjust="spacing" textLength="131" x="57.5" y="182.51">CurrentDemandReq()</text><polygon fill="#181818" points="56.5,212.45,46.5,216.45,56.5,220.45,52.5,216.45" style="stroke:#181818;stroke-width:1.0;"/><line style="stroke:#181818;stroke-width:1.0;stroke-dasharray:2.0,2.0;" x1="50.5" x2="503.5" y1="216.45" y2="216.45"/><text fill="#000000" font-family="NanumGothic" font-size="13" lengthAdjust="spacing" textLength="129" x="62.5" y="211.46">CurrentDemandRes()</text><polygon fill="#181818" points="884.5,248.4,894.5,252.4,884.5,256.4,888.5,252.4" style="stroke:#181818;stroke-width:1.0;"/><line style="stroke:#181818;stroke-width:1.0;" x1="509.5" x2="890.5" y1="252.4" y2="252.4"/><text fill="#000000" font-family="NanumGothic" font-size="13" lengthAdjust="spacing" textLength="308" x="516.5" y="247.41">TransactionEventRequest(eventType = Updated,...)</text><polygon fill="#181818" points="515.5,277.35,505.5,281.35,515.5,285.35,511.5,281.35" style="stroke:#181818;stroke-width:1.0;"/><line style="stroke:#181818;stroke-width:1.0;stroke-dasharray:2.0,2.0;" x1="509.5" x2="900.5" y1="281.35" y2="281.35"/><text fill="#000000" font-family="NanumGothic" font-size="13" lengthAdjust="spacing" textLength="183" x="521.5" y="276.36">TransactionEventResponse(...)</text><path d="M10,303.35 L235,303.35 L235,310.3 L225,320.3 L10,320.3 L10,303.35 " fill="#EEEEEE" style="stroke:#000000;stroke-width:1.5;"/><rect fill="none" height="516.8" style="stroke:#000000;stroke-width:1.5;" width="938" x="10" y="303.35"/><text fill="#000000" font-family="NanumGothic" font-size="13" font-weight="bold" lengthAdjust="spacing" textLength="180" x="25" y="316.31">CSMS&#44032; &#49352;&#47196;&#50868; &#49828;&#52992;&#51572;&#51012; &#49444;&#51221;&#54632;</text><polygon fill="#181818" points="520.5,337.25,510.5,341.25,520.5,345.25,516.5,341.25" style="stroke:#181818;stroke-width:1.0;"/><line style="stroke:#181818;stroke-width:1.0;" x1="514.5" x2="895.5" y1="341.25" y2="341.25"/><text fill="#000000" font-family="NanumGothic" font-size="13" lengthAdjust="spacing" textLength="310" x="526.5" y="336.26">SetChargingProfileRequest(evseId, chargingProfile)</text><polygon fill="#181818" points="889.5,366.2,899.5,370.2,889.5,374.2,893.5,370.2" style="stroke:#181818;stroke-width:1.0;"/><line style="stroke:#181818;stroke-width:1.0;stroke-dasharray:2.0,2.0;" x1="504.5" x2="895.5" y1="370.2" y2="370.2"/><text fill="#000000" font-family="NanumGothic" font-size="13" lengthAdjust="spacing" textLength="238" x="511.5" y="365.21">SetChargingProfileResponse(Accepted)</text><path d="M20,385.2 L80,385.2 L80,392.15 L70,402.15 L20,402.15 L20,385.2 " fill="#EEEEEE" style="stroke:#000000;stroke-width:1.5;"/><rect fill="none" height="147.4" style="stroke:#000000;stroke-width:1.5;" width="554.5" x="20" y="385.2"/><text fill="#000000" font-family="NanumGothic" font-size="13" font-weight="bold" lengthAdjust="spacing" textLength="15" x="35" y="398.16">alt</text><text fill="#000000" font-family="NanumGothic" font-size="11" font-weight="bold" lengthAdjust="spacing" textLength="97" x="95" y="397.32">[AC Charging&#51068; &#46412;]</text><polygon fill="#181818" points="487.5,419.1,497.5,423.1,487.5,427.1,491.5,423.1" style="stroke:#181818;stroke-width:1.0;"/><line style="stroke:#181818;stroke-width:1.0;" x1="50.5" x2="493.5" y1="423.1" y2="423.1"/><text fill="#000000" font-family="NanumGothic" font-size="13" lengthAdjust="spacing" textLength="127" x="57.5" y="418.11">ChargingStatusReq()</text><polygon fill="#181818" points="56.5,448.05,46.5,452.05,56.5,456.05,52.5,452.05" style="stroke:#181818;stroke-width:1.0;"/><line style="stroke:#181818;stroke-width:1.0;stroke-dasharray:2.0,2.0;" x1="50.5" x2="503.5" y1="452.05" y2="452.05"/><text fill="#000000" font-family="NanumGothic" font-size="13" lengthAdjust="spacing" textLength="211" x="62.5" y="447.06">ChargingStatusRes(ReNegotiation)</text><line style="stroke:#000000;stroke-width:1.0;stroke-dasharray:2.0,2.0;" x1="20" x2="574.5" y1="461.05" y2="461.05"/><text fill="#000000" font-family="NanumGothic" font-size="11" font-weight="bold" lengthAdjust="spacing" textLength="97" x="25" y="471.17">[DC Charging&#51068; &#46412;]</text><polygon fill="#181818" points="487.5,491.65,497.5,495.65,487.5,499.65,491.5,495.65" style="stroke:#181818;stroke-width:1.0;"/><line style="stroke:#181818;stroke-width:1.0;" x1="50.5" x2="493.5" y1="495.65" y2="495.65"/><text fill="#000000" font-family="NanumGothic" font-size="13" lengthAdjust="spacing" textLength="131" x="57.5" y="490.66">CurrentDemandReq()</text><polygon fill="#181818" points="56.5,520.6,46.5,524.6,56.5,528.6,52.5,524.6" style="stroke:#181818;stroke-width:1.0;"/><line style="stroke:#181818;stroke-width:1.0;stroke-dasharray:2.0,2.0;" x1="50.5" x2="503.5" y1="524.6" y2="524.6"/><text fill="#000000" font-family="NanumGothic" font-size="13" lengthAdjust="spacing" textLength="215" x="62.5" y="519.61">CurrentDemandRes(ReNegotiation)</text><polygon fill="#181818" points="487.5,556.55,497.5,560.55,487.5,564.55,491.5,560.55" style="stroke:#181818;stroke-width:1.0;"/><line style="stroke:#181818;stroke-width:1.0;" x1="50.5" x2="493.5" y1="560.55" y2="560.55"/><text fill="#000000" font-family="NanumGothic" font-size="13" lengthAdjust="spacing" textLength="192" x="57.5" y="555.56">PowerDeliveryReq(ReNegotiate)</text><polygon fill="#181818" points="61.5,588.5,51.5,592.5,61.5,596.5,57.5,592.5" style="stroke:#181818;stroke-width:1.0;"/><line style="stroke:#181818;stroke-width:1.0;stroke-dasharray:2.0,2.0;" x1="55.5" x2="503.5" y1="592.5" y2="592.5"/><text fill="#000000" font-family="NanumGothic" font-size="13" lengthAdjust="spacing" textLength="134" x="67.5" y="587.51">PowerDeliveryRes(OK)</text><path d="M514,573.55 L514,597.55 L755,597.55 L755,583.55 L745,573.55 L514,573.55 " fill="#7D5393" style="stroke:#000000;stroke-width:0.5;"/><path d="M745,573.55 L745,583.55 L755,583.55 L745,573.55 " fill="#7D5393" style="stroke:#000000;stroke-width:0.5;"/><text fill="#FFFFFF" font-family="NanumGothic" font-size="13" lengthAdjust="spacing" textLength="220" x="520" y="590.51">&#51204;&#47141; &#51204;&#49569;&#51060; &#51473;&#45800;(halted)&#46112; &#49688; &#51080;&#49845;&#45768;&#45796;</text><polygon fill="#181818" points="487.5,620.45,497.5,624.45,487.5,628.45,491.5,624.45" style="stroke:#181818;stroke-width:1.0;"/><line style="stroke:#181818;stroke-width:1.0;" x1="50.5" x2="493.5" y1="624.45" y2="624.45"/><text fill="#000000" font-family="NanumGothic" font-size="13" lengthAdjust="spacing" textLength="430" x="57.5" y="619.46">ChargeParameterDiscoveryReq(EnergyTransferMode, EVChargeParam)</text><polygon fill="#181818" points="61.5,652.4,51.5,656.4,61.5,660.4,57.5,656.4" style="stroke:#181818;stroke-width:1.0;"/><line style="stroke:#181818;stroke-width:1.0;stroke-dasharray:2.0,2.0;" x1="55.5" x2="503.5" y1="656.4" y2="656.4"/><text fill="#000000" font-family="NanumGothic" font-size="13" lengthAdjust="spacing" textLength="284" x="67.5" y="651.41">ChargeParameterDiscoveryRes(SAScheduleList)</text><path d="M514,637.45 L514,661.45 L789,661.45 L789,647.45 L779,637.45 L514,637.45 " fill="#7D5393" style="stroke:#000000;stroke-width:0.5;"/><path d="M779,637.45 L779,647.45 L789,647.45 L779,637.45 " fill="#7D5393" style="stroke:#000000;stroke-width:0.5;"/><text fill="#FFFFFF" font-family="NanumGothic" font-size="13" lengthAdjust="spacing" textLength="254" x="520" y="654.41">&#52649;&#51204;&#44592;&#44032; &#52649;&#51204; &#54532;&#47196;&#54028;&#51068;&#51012; SASchedule&#47196; &#51228;&#44277;</text><polygon fill="#181818" points="487.5,684.35,497.5,688.35,487.5,692.35,491.5,688.35" style="stroke:#181818;stroke-width:1.0;"/><line style="stroke:#181818;stroke-width:1.0;" x1="50.5" x2="493.5" y1="688.35" y2="688.35"/><text fill="#000000" font-family="NanumGothic" font-size="13" lengthAdjust="spacing" textLength="398" x="57.5" y="683.36">PowerDeliveryReq(Start, ChargingProfile, EVPowerDeliveryParam)</text><polygon fill="#181818" points="56.5,716.3,46.5,720.3,56.5,724.3,52.5,720.3" style="stroke:#181818;stroke-width:1.0;"/><line style="stroke:#181818;stroke-width:1.0;stroke-dasharray:2.0,2.0;" x1="50.5" x2="503.5" y1="720.3" y2="720.3"/><text fill="#000000" font-family="NanumGothic" font-size="13" lengthAdjust="spacing" textLength="134" x="62.5" y="715.31">PowerDeliveryRes(OK)</text><path d="M514,701.35 L514,725.35 L639,725.35 L639,711.35 L629,701.35 L514,701.35 " fill="#7D5393" style="stroke:#000000;stroke-width:0.5;"/><path d="M629,701.35 L629,711.35 L639,711.35 L629,701.35 " fill="#7D5393" style="stroke:#000000;stroke-width:0.5;"/><text fill="#FFFFFF" font-family="NanumGothic" font-size="13" lengthAdjust="spacing" textLength="104" x="520" y="718.31">&#51204;&#47141; &#51228;&#44277;&#51060; &#51648;&#49549;&#46120;</text><path d="M434.5,738.3 L500.5,738.3 L500.5,745.25 L490.5,755.25 L434.5,755.25 L434.5,738.3 " fill="#EEEEEE" style="stroke:#000000;stroke-width:1.5;"/><rect fill="none" height="74.85" style="stroke:#000000;stroke-width:1.5;" width="503.5" x="434.5" y="738.3"/><text fill="#000000" font-family="NanumGothic" font-size="13" font-weight="bold" lengthAdjust="spacing" textLength="21" x="449.5" y="751.26">opt</text><text fill="#000000" font-family="NanumGothic" font-size="11" font-weight="bold" lengthAdjust="spacing" textLength="163" x="515.5" y="750.42">[EV&#44032; &#52649;&#51204; &#49828;&#52992;&#51572;&#51012; &#51228;&#44277;&#54616;&#45716; &#44221;&#50864;]</text><polygon fill="#181818" points="884.5,772.2,894.5,776.2,884.5,780.2,888.5,776.2" style="stroke:#181818;stroke-width:1.0;"/><line style="stroke:#181818;stroke-width:1.0;" x1="509.5" x2="890.5" y1="776.2" y2="776.2"/><text fill="#000000" font-family="NanumGothic" font-size="13" lengthAdjust="spacing" textLength="373" x="516.5" y="771.21">NotifyEVChargingScheduleRequest(evseId, chargingSchedule)</text><polygon fill="#181818" points="515.5,801.15,505.5,805.15,515.5,809.15,511.5,805.15" style="stroke:#181818;stroke-width:1.0;"/><line style="stroke:#181818;stroke-width:1.0;stroke-dasharray:2.0,2.0;" x1="509.5" x2="900.5" y1="805.15" y2="805.15"/><text fill="#000000" font-family="NanumGothic" font-size="13" lengthAdjust="spacing" textLength="286" x="521.5" y="800.16">NotifyEVChargingScheduleResponse(Accepted)</text><!--SRC=[tLN1Jjj04BtdAwQS4Yda0v2AX227geKYGhbRzf1OCbvtTvqgDwH6A0KgWKGgXA0AKX3q5hLGzK1_ADxyGySRXyHEuZQKItkoTsPtthotipFFRDTqV0j1o9g31S_VSJ8Pp-3IDctFS2NC5RVcm11Gt8gRboi6Bzjk6KhIa3PpzQQ1CR8bJfHMI_rTz9F9E8nveBv_KQqwgEjwxzC7rJuk50eP0CEHiBJy44rTt4FGF2G7K1emlvZ4MOWPVB61RxCvlTqmfLqr98RfnzR9JBKtOOHvWYfkZKSNKNGBa_57B4a407G4mifil7pEqPKhk6EurfFJYWT_B2lN2c76G1RrFI_09ZTS4PvdRh5ASCJ2Ho6p62usQnx2StZZMHJSojFrXpcae0rTkeX0VpMZCUt6WON7N87P22MLrQWpHD8iovpvdbvtExkWtZU2otDrTWjglwtkTzNLhRgWMgwtLQlPQzuy93SXjnBAWMsTistRmQ4i0bzOUJ3ZxfbbcN3d_VkO11q9isIQwD4zpApEF_5cDt0DoqpQUj__-O2VW6B_DKzXiyxU8Lz1nwuYhuLiXe3n2jLGQQIcKKeWYEphbpc0z7eahyl8pkroHMgAD5E2rbNuKNkNwe9UQFiuEBZ9LgXAgRo3enQenYcepmsrVnSSD8A3Tf-x3fGYW3RWki6D7PIKg2rCDj2Yw28lrtJNsKQ-oYpCKvYH4xb7QZ8TL6HBIoMpWfRlu2jRoCT8fITmzqT7jxJ-EEwTrAcpzGuFgS33bZO48JEfUjxzTlTdUeqL37cup4EY0uL2nRR-bLuJQsY6baR5cr9I8NbTKjUxQkzZS7IJK89vaYACg1cV3lfyhtaQx9z0z-jFTTQP_CG7xNgDNjTsBQgZS4Dq4zFcnS2VI-yhSMVKmzEcwVGy9WoFtsWzFa3w4kef-mi0]--></g></svg>