<?xml version="1.0" encoding="us-ascii" standalone="no"?><svg xmlns="http://www.w3.org/2000/svg" xmlns:xlink="http://www.w3.org/1999/xlink" contentStyleType="text/css" height="287px" preserveAspectRatio="none" style="width:747px;height:287px;background:#FFFFFF;" version="1.1" viewBox="0 0 747 287" width="747px" zoomAndPan="magnify"><defs/><g><!--entity CSMS--><g id="elem_CSMS"><polygon fill="#7D5393" points="69,121.05,79,111.05,148,111.05,148,147.15,138,157.15,69,157.15,69,121.05" style="stroke:#181818;stroke-width:1.5;"/><line style="stroke:#181818;stroke-width:1.5;" x1="138" x2="148" y1="121.05" y2="111.05"/><line style="stroke:#181818;stroke-width:1.5;" x1="69" x2="138" y1="121.05" y2="121.05"/><line style="stroke:#181818;stroke-width:1.5;" x1="138" x2="138" y1="121.05" y2="157.15"/><text fill="#FFFFFF" font-family="NanumGothic" font-size="14" lengthAdjust="spacing" textLength="39" x="84" y="143.93">CSMS</text></g><!--entity CS10--><g id="elem_CS10"><polygon fill="#7D5393" points="388,16,398,6,523,6,523,58.2,513,68.2,388,68.2,388,16" style="stroke:#181818;stroke-width:1.5;"/><line style="stroke:#181818;stroke-width:1.5;" x1="513" x2="523" y1="16" y2="6"/><line style="stroke:#181818;stroke-width:1.5;" x1="388" x2="513" y1="16" y2="16"/><line style="stroke:#181818;stroke-width:1.5;" x1="513" x2="513" y1="16" y2="68.2"/><text fill="#FFFFFF" font-family="NanumGothic" font-size="14" lengthAdjust="spacing" textLength="95" x="403" y="38.88">Charge Station</text><text fill="#FFFFFF" font-family="NanumGothic" font-size="14" lengthAdjust="spacing" textLength="33" x="403" y="54.98">CS10</text></g><!--entity CS11--><g id="elem_CS11"><polygon fill="#7D5393" points="388,113,398,103,523,103,523,155.2,513,165.2,388,165.2,388,113" style="stroke:#181818;stroke-width:1.5;"/><line style="stroke:#181818;stroke-width:1.5;" x1="513" x2="523" y1="113" y2="103"/><line style="stroke:#181818;stroke-width:1.5;" x1="388" x2="513" y1="113" y2="113"/><line style="stroke:#181818;stroke-width:1.5;" x1="513" x2="513" y1="113" y2="165.2"/><text fill="#FFFFFF" font-family="NanumGothic" font-size="14" lengthAdjust="spacing" textLength="95" x="403" y="135.88">Charge Station</text><text fill="#FFFFFF" font-family="NanumGothic" font-size="14" lengthAdjust="spacing" textLength="33" x="403" y="151.98">CS11</text></g><!--entity CS12--><g id="elem_CS12"><polygon fill="#7D5393" points="388,218,398,208,523,208,523,260.2,513,270.2,388,270.2,388,218" style="stroke:#181818;stroke-width:1.5;"/><line style="stroke:#181818;stroke-width:1.5;" x1="513" x2="523" y1="218" y2="208"/><line style="stroke:#181818;stroke-width:1.5;" x1="388" x2="513" y1="218" y2="218"/><line style="stroke:#181818;stroke-width:1.5;" x1="513" x2="513" y1="218" y2="270.2"/><text fill="#FFFFFF" font-family="NanumGothic" font-size="14" lengthAdjust="spacing" textLength="95" x="403" y="240.88">Charge Station</text><text fill="#FFFFFF" font-family="NanumGothic" font-size="14" lengthAdjust="spacing" textLength="33" x="403" y="256.98">CS12</text></g><!--entity EV1--><g id="elem_EV1"><ellipse cx="727.5" cy="100.55" fill="#F1F1F1" rx="8" ry="8" style="stroke:#7D5393;stroke-width:1.5;"/><path d="M727.5,108.55 L727.5,135.55 M714.5,116.55 L740.5,116.55 M727.5,135.55 L714.5,150.55 M727.5,135.55 L740.5,150.55 " fill="none" style="stroke:#7D5393;stroke-width:1.5;"/><text fill="#000000" font-family="NanumGothic" font-size="14" lengthAdjust="spacing" textLength="25" x="715" y="165.93">EV1</text></g><!--entity EV2--><g id="elem_EV2"><ellipse cx="727.5" cy="213.55" fill="#F1F1F1" rx="8" ry="8" style="stroke:#7D5393;stroke-width:1.5;"/><path d="M727.5,221.55 L727.5,248.55 M714.5,229.55 L740.5,229.55 M727.5,248.55 L714.5,263.55 M727.5,248.55 L740.5,263.55 " fill="none" style="stroke:#7D5393;stroke-width:1.5;"/><text fill="#000000" font-family="NanumGothic" font-size="14" lengthAdjust="spacing" textLength="25" x="715" y="278.93">EV2</text></g><g id="elem_GMN8"><path d="M6,21.67 L6,76.52 A0,0 0 0 0 6,76.52 L104.5,76.52 L108.5,110.86 L112.5,76.52 L211,76.52 A0,0 0 0 0 211,76.52 L211,31.67 L201,21.67 L6,21.67 A0,0 0 0 0 6,21.67 " fill="#7D5393" style="stroke:#000000;stroke-width:0.5;"/><path d="M201,21.67 L201,31.67 L211,31.67 L201,21.67 " fill="#7D5393" style="stroke:#000000;stroke-width:0.5;"/><text fill="#FFFFFF" font-family="NanumGothic" font-size="13" lengthAdjust="spacing" textLength="184" x="12" y="38.63">CSMS&#45716; &#50808;&#48512; &#49548;&#49828;(&#50696;: DSO)&#50640;&#49436;</text><text fill="#FFFFFF" font-family="NanumGothic" font-size="13" lengthAdjust="spacing" textLength="134" x="12" y="53.58">&#49688;&#50857;&#47049;(capacity) &#50696;&#52769;&#51012;</text><text fill="#FFFFFF" font-family="NanumGothic" font-size="13" lengthAdjust="spacing" textLength="64" x="12" y="68.53">&#49688;&#49888;&#54633;&#45768;&#45796;.</text></g><!--link CSMS to CS10--><g id="link_CSMS_CS10"><path d="M148.41,123.16 C206.47,106.84 316.57,75.88 387.69,55.89 " fill="none" id="CSMS-CS10" style="stroke:#181818;stroke-width:1.0;"/></g><!--link CSMS to CS11--><g id="link_CSMS_CS11"><path d="M148.41,134.1 C206.47,134.1 310.57,134.1 381.69,134.1 " fill="none" id="CSMS-to-CS11" style="stroke:#181818;stroke-width:1.0;"/><polygon fill="#181818" points="387.69,134.1,378.69,130.1,382.69,134.1,378.69,138.1,387.69,134.1" style="stroke:#181818;stroke-width:1.0;"/><text fill="#000000" font-family="NanumGothic" font-size="13" lengthAdjust="spacing" textLength="115" x="242" y="131.06">OCPP &#52264;&#51669; &#54532;&#47196;&#54028;&#51068;</text></g><!--link CSMS to CS12--><g id="link_CSMS_CS12"><path d="M148.41,145.94 C206.47,163.61 310.8301,195.3727 381.9501,217.0227 " fill="none" id="CSMS-to-CS12" style="stroke:#181818;stroke-width:1.0;"/><polygon fill="#181818" points="387.69,218.77,380.245,212.3224,382.9067,217.3139,377.9152,219.9756,387.69,218.77" style="stroke:#181818;stroke-width:1.0;"/><text fill="#000000" font-family="NanumGothic" font-size="13" lengthAdjust="spacing" textLength="115" x="242" y="174.16">OCPP &#52264;&#51669; &#54532;&#47196;&#54028;&#51068;</text></g><!--link CS11 to EV1--><g id="link_CS11_EV1"><path d="M523.24,133.11 C586.96,132.17 672.2007,130.9089 706.6307,130.3989 " fill="none" id="CS11-to-EV1" style="stroke:#181818;stroke-width:1.0;stroke-dasharray:1.0,3.0;"/><polygon fill="#181818" points="712.63,130.31,703.5717,126.4437,707.6305,130.3841,703.6902,134.4429,712.63,130.31" style="stroke:#181818;stroke-width:1.0;"/><text fill="#000000" font-family="NanumGothic" font-size="13" lengthAdjust="spacing" textLength="116" x="554" y="112.73">Control Pilot signal</text><text fill="#000000" font-family="NanumGothic" font-size="13" lengthAdjust="spacing" textLength="92" x="572" y="127.68">&#46608;&#45716; ISO 15118</text></g><!--link CS12 to EV2--><g id="link_CS12_EV2"><path d="M523.24,240.09 C586.96,241.03 672.2007,242.2911 706.6307,242.8011 " fill="none" id="CS12-to-EV2" style="stroke:#181818;stroke-width:1.0;stroke-dasharray:1.0,3.0;"/><polygon fill="#181818" points="712.63,242.89,703.6902,238.7571,707.6305,242.8159,703.5717,246.7563,712.63,242.89" style="stroke:#181818;stroke-width:1.0;"/><text fill="#000000" font-family="NanumGothic" font-size="13" lengthAdjust="spacing" textLength="116" x="554" y="222.58">Control Pilot signal</text><text fill="#000000" font-family="NanumGothic" font-size="13" lengthAdjust="spacing" textLength="92" x="572" y="237.53">&#46608;&#45716; ISO 15118</text></g><!--SRC=[bP11Im915CVlyobUdlIWE0j1UEYoTUWG2WjTCcJO7TU1SMPPHy9R1mbJ3nwKB1GJXFBMAJpqZNRy3iskMe4OT7h3Vtx_zt_l7J7XygP7mPNrG0egLCLZn0z9lT9GBKvpGRFE4UAqga1929bVK-2naBgAIO6GaCQRifrB9mMa0V7ZMwoHqAVWA1AZPM4xEB-5SFumWtSCFinOEyP2YBXAXf0wlzeOJVsHhAranJCfQZO8G5OtKq9IekuGzDCg-hW3VT_NtKLQZpi5E7EA6VquqEs9uNHdh9-NqUmXxPA0k4orCc0elPhhQNlxttjPZvPHhnFr5Zb4XGTn7a9n16GzUIkocxL_2QV9ab20ebqgWNv_qwyZM0_RqNooxlVrz7CFjlw2KT8jeQyzgHJrRepBdCEOR2bKA3cK69SA6imNX0D0MKJZGNo12wS8-1ZZ4vIax3Un_jNa2m00]--></g></svg>