<?xml version="1.0" encoding="us-ascii" standalone="no"?><svg xmlns="http://www.w3.org/2000/svg" xmlns:xlink="http://www.w3.org/1999/xlink" contentStyleType="text/css" height="1165px" preserveAspectRatio="none" style="width:659px;height:1165px;background:#FFFFFF;" version="1.1" viewBox="0 0 659 1165" width="659px" zoomAndPan="magnify"><defs/><g><rect fill="#FFFFFF" height="398.4" style="stroke:#181818;stroke-width:1.0;" width="10" x="94" y="67.05"/><rect fill="#FFFFFF" height="546.2" style="stroke:#181818;stroke-width:1.0;" width="10" x="94" y="603.2"/><rect fill="#FFFFFF" height="170.75" style="stroke:#181818;stroke-width:1.0;" width="10" x="99" y="903.75"/><rect fill="#FFFFFF" height="28.95" style="stroke:#181818;stroke-width:1.0;" width="10" x="612" y="67.05"/><rect fill="#FFFFFF" height="28.95" style="stroke:#181818;stroke-width:1.0;" width="10" x="612" y="201.85"/><rect fill="#FFFFFF" height="28.95" style="stroke:#181818;stroke-width:1.0;" width="10" x="612" y="336.65"/><rect fill="#FFFFFF" height="28.95" style="stroke:#181818;stroke-width:1.0;" width="10" x="612" y="436.5"/><rect fill="#FFFFFF" height="28.95" style="stroke:#181818;stroke-width:1.0;" width="10" x="612" y="603.2"/><rect fill="#FFFFFF" height="28.95" style="stroke:#181818;stroke-width:1.0;" width="10" x="612" y="745"/><rect fill="#FFFFFF" height="28.95" style="stroke:#181818;stroke-width:1.0;" width="10" x="612" y="903.75"/><rect fill="#FFFFFF" height="28.95" style="stroke:#181818;stroke-width:1.0;" width="10" x="612" y="1045.55"/><rect fill="none" height="151.75" style="stroke:#000000;stroke-width:1.5;" width="624.5" x="29" y="565.3"/><rect fill="none" height="151.75" style="stroke:#000000;stroke-width:1.5;" width="624.5" x="29" y="865.85"/><rect fill="none" height="51.9" style="stroke:#000000;stroke-width:1.5;" width="89" x="54" y="1089.5"/><line style="stroke:#181818;stroke-width:0.5;stroke-dasharray:5.0,5.0;" x1="99" x2="99" y1="36.1" y2="1158.4"/><line style="stroke:#181818;stroke-width:0.5;stroke-dasharray:5.0,5.0;" x1="616.5" x2="616.5" y1="36.1" y2="1158.4"/><rect fill="#7D5393" height="30.1" rx="2.5" ry="2.5" style="stroke:#181818;stroke-width:0.5;" width="120" x="39" y="5"/><text fill="#FFFFFF" font-family="NanumGothic" font-size="14" lengthAdjust="spacing" textLength="106" x="46" y="24.88">Charging Station</text><rect fill="#7D5393" height="30.1" rx="2.5" ry="2.5" style="stroke:#181818;stroke-width:0.5;" width="53" x="590.5" y="5"/><text fill="#FFFFFF" font-family="NanumGothic" font-size="14" lengthAdjust="spacing" textLength="39" x="597.5" y="24.88">CSMS</text><rect fill="#FFFFFF" height="398.4" style="stroke:#181818;stroke-width:1.0;" width="10" x="94" y="67.05"/><rect fill="#FFFFFF" height="546.2" style="stroke:#181818;stroke-width:1.0;" width="10" x="94" y="603.2"/><rect fill="#FFFFFF" height="170.75" style="stroke:#181818;stroke-width:1.0;" width="10" x="99" y="903.75"/><rect fill="#FFFFFF" height="28.95" style="stroke:#181818;stroke-width:1.0;" width="10" x="612" y="67.05"/><rect fill="#FFFFFF" height="28.95" style="stroke:#181818;stroke-width:1.0;" width="10" x="612" y="201.85"/><rect fill="#FFFFFF" height="28.95" style="stroke:#181818;stroke-width:1.0;" width="10" x="612" y="336.65"/><rect fill="#FFFFFF" height="28.95" style="stroke:#181818;stroke-width:1.0;" width="10" x="612" y="436.5"/><rect fill="#FFFFFF" height="28.95" style="stroke:#181818;stroke-width:1.0;" width="10" x="612" y="603.2"/><rect fill="#FFFFFF" height="28.95" style="stroke:#181818;stroke-width:1.0;" width="10" x="612" y="745"/><rect fill="#FFFFFF" height="28.95" style="stroke:#181818;stroke-width:1.0;" width="10" x="612" y="903.75"/><rect fill="#FFFFFF" height="28.95" style="stroke:#181818;stroke-width:1.0;" width="10" x="612" y="1045.55"/><polygon fill="#181818" points="115,63.05,105,67.05,115,71.05,111,67.05" style="stroke:#181818;stroke-width:1.0;"/><line style="stroke:#181818;stroke-width:1.0;" x1="109" x2="611" y1="67.05" y2="67.05"/><text fill="#000000" font-family="NanumGothic" font-size="13" lengthAdjust="spacing" textLength="258" x="121" y="62.06">UpdateFirmwareRequest(requestId = 123)</text><polygon fill="#181818" points="605,92,615,96,605,100,609,96" style="stroke:#181818;stroke-width:1.0;"/><line style="stroke:#181818;stroke-width:1.0;stroke-dasharray:2.0,2.0;" x1="104" x2="611" y1="96" y2="96"/><text fill="#000000" font-family="NanumGothic" font-size="13" lengthAdjust="spacing" textLength="169" x="111" y="91.01">UpdateFirmwareResponse()</text><ellipse cx="103.5" cy="137.2" fill="none" rx="4" ry="4" style="stroke:#181818;stroke-width:1.5;"/><line style="stroke:#181818;stroke-width:1.0;" x1="104" x2="146" y1="124.95" y2="124.95"/><line style="stroke:#181818;stroke-width:1.0;" x1="146" x2="146" y1="124.95" y2="137.95"/><line style="stroke:#181818;stroke-width:1.0;" x1="109" x2="146" y1="137.95" y2="137.95"/><polygon fill="#181818" points="119,133.95,109,137.95,119,141.95,115,137.95" style="stroke:#181818;stroke-width:1.0;"/><text fill="#000000" font-family="NanumGothic" font-size="13" lengthAdjust="spacing" textLength="64" x="111" y="119.96">&#51064;&#51613;&#49436; &#44160;&#51613;</text><path d="M32,150.95 L32,174.95 L166,174.95 L166,160.95 L156,150.95 L32,150.95 " fill="#7D5393" style="stroke:#000000;stroke-width:0.5;"/><path d="M156,150.95 L156,160.95 L166,160.95 L156,150.95 " fill="#7D5393" style="stroke:#000000;stroke-width:0.5;"/><text fill="#FFFFFF" font-family="NanumGothic" font-size="13" lengthAdjust="spacing" textLength="113" x="38" y="167.91">retrieveDate &#45824;&#44592;...</text><polygon fill="#181818" points="600,197.85,610,201.85,600,205.85,604,201.85" style="stroke:#181818;stroke-width:1.0;"/><line style="stroke:#181818;stroke-width:1.0;" x1="104" x2="606" y1="201.85" y2="201.85"/><text fill="#000000" font-family="NanumGothic" font-size="13" lengthAdjust="spacing" textLength="465" x="111" y="196.86">FirmwareStatusNotificationRequest(status = Downloading, requestId = 123)</text><polygon fill="#181818" points="115,226.8,105,230.8,115,234.8,111,230.8" style="stroke:#181818;stroke-width:1.0;"/><line style="stroke:#181818;stroke-width:1.0;stroke-dasharray:2.0,2.0;" x1="109" x2="616" y1="230.8" y2="230.8"/><text fill="#000000" font-family="NanumGothic" font-size="13" lengthAdjust="spacing" textLength="233" x="121" y="225.81">FirmwareStatusNotificationResponse()</text><ellipse cx="103.5" cy="272" fill="none" rx="4" ry="4" style="stroke:#181818;stroke-width:1.5;"/><line style="stroke:#181818;stroke-width:1.0;" x1="104" x2="146" y1="259.75" y2="259.75"/><line style="stroke:#181818;stroke-width:1.0;" x1="146" x2="146" y1="259.75" y2="272.75"/><line style="stroke:#181818;stroke-width:1.0;" x1="109" x2="146" y1="272.75" y2="272.75"/><polygon fill="#181818" points="119,268.75,109,272.75,119,276.75,115,272.75" style="stroke:#181818;stroke-width:1.0;"/><text fill="#000000" font-family="NanumGothic" font-size="13" lengthAdjust="spacing" textLength="88" x="111" y="254.76">&#54156;&#50920;&#50612; &#45796;&#50868;&#47196;&#46300;</text><path d="M32,285.75 L32,309.75 L165,309.75 L165,295.75 L155,285.75 L32,285.75 " fill="#7D5393" style="stroke:#000000;stroke-width:0.5;"/><path d="M155,285.75 L155,295.75 L165,295.75 L155,285.75 " fill="#7D5393" style="stroke:#000000;stroke-width:0.5;"/><text fill="#FFFFFF" font-family="NanumGothic" font-size="13" lengthAdjust="spacing" textLength="112" x="38" y="302.71">&#54156;&#50920;&#50612; &#45796;&#50868;&#47196;&#46300;&#51473;...</text><polygon fill="#181818" points="600,332.65,610,336.65,600,340.65,604,336.65" style="stroke:#181818;stroke-width:1.0;"/><line style="stroke:#181818;stroke-width:1.0;" x1="104" x2="606" y1="336.65" y2="336.65"/><text fill="#000000" font-family="NanumGothic" font-size="13" lengthAdjust="spacing" textLength="461" x="111" y="331.66">FirmwareStatusNotificationRequest(status = Downloaded, requestId = 123)</text><polygon fill="#181818" points="115,361.6,105,365.6,115,369.6,111,365.6" style="stroke:#181818;stroke-width:1.0;"/><line style="stroke:#181818;stroke-width:1.0;stroke-dasharray:2.0,2.0;" x1="109" x2="616" y1="365.6" y2="365.6"/><text fill="#000000" font-family="NanumGothic" font-size="13" lengthAdjust="spacing" textLength="233" x="121" y="360.61">FirmwareStatusNotificationResponse()</text><ellipse cx="103.5" cy="406.8" fill="none" rx="4" ry="4" style="stroke:#181818;stroke-width:1.5;"/><line style="stroke:#181818;stroke-width:1.0;" x1="104" x2="146" y1="394.55" y2="394.55"/><line style="stroke:#181818;stroke-width:1.0;" x1="146" x2="146" y1="394.55" y2="407.55"/><line style="stroke:#181818;stroke-width:1.0;" x1="109" x2="146" y1="407.55" y2="407.55"/><polygon fill="#181818" points="119,403.55,109,407.55,119,411.55,115,407.55" style="stroke:#181818;stroke-width:1.0;"/><text fill="#000000" font-family="NanumGothic" font-size="13" lengthAdjust="spacing" textLength="52" x="111" y="389.56">&#49436;&#47749; &#44160;&#51613;</text><polygon fill="#181818" points="600,432.5,610,436.5,600,440.5,604,436.5" style="stroke:#181818;stroke-width:1.0;"/><line style="stroke:#181818;stroke-width:1.0;" x1="104" x2="606" y1="436.5" y2="436.5"/><text fill="#000000" font-family="NanumGothic" font-size="13" lengthAdjust="spacing" textLength="489" x="111" y="431.51">FirmwareStatusNotificationRequest(status = SignatureVerified, requestId = 123)</text><polygon fill="#181818" points="110,461.45,100,465.45,110,469.45,106,465.45" style="stroke:#181818;stroke-width:1.0;"/><line style="stroke:#181818;stroke-width:1.0;stroke-dasharray:2.0,2.0;" x1="104" x2="616" y1="465.45" y2="465.45"/><text fill="#000000" font-family="NanumGothic" font-size="13" lengthAdjust="spacing" textLength="233" x="116" y="460.46">FirmwareStatusNotificationResponse()</text><path d="M5,478.45 L5,502.45 L194,502.45 L194,488.45 L184,478.45 L5,478.45 " fill="#7D5393" style="stroke:#000000;stroke-width:0.5;"/><path d="M184,478.45 L184,488.45 L194,488.45 L184,478.45 " fill="#7D5393" style="stroke:#000000;stroke-width:0.5;"/><text fill="#FFFFFF" font-family="NanumGothic" font-size="13" lengthAdjust="spacing" textLength="168" x="11" y="495.41">&#53944;&#47004;&#51117;&#49496;&#51060; &#45149;&#45216; &#46412;&#44620;&#51648; &#45824;&#44592;...</text><path d="M104,513.4 L104,552.4 L449,552.4 L449,523.4 L439,513.4 L104,513.4 " fill="#7D5393" style="stroke:#000000;stroke-width:0.5;"/><path d="M439,513.4 L439,523.4 L449,523.4 L439,513.4 " fill="#7D5393" style="stroke:#000000;stroke-width:0.5;"/><text fill="#FFFFFF" font-family="NanumGothic" font-size="13" lengthAdjust="spacing" textLength="324" x="110" y="530.36">FirmwareStatusNotificationRequests&#44032; &#51204;&#49569;&#46104;&#45716; &#49692;&#49436;&#50752;</text><text fill="#FFFFFF" font-family="NanumGothic" font-size="13" lengthAdjust="spacing" textLength="276" x="110" y="545.31">&#51116;&#48512;&#54021;&#51060; &#48156;&#49373;&#54616;&#45716; &#49692;&#49436;&#45716; &#44256;&#51221;&#46104;&#50612; &#51080;&#51648; &#50506;&#49845;&#45768;&#45796;.</text><path d="M29,565.3 L95,565.3 L95,572.25 L85,582.25 L29,582.25 L29,565.3 " fill="#EEEEEE" style="stroke:#000000;stroke-width:1.5;"/><rect fill="none" height="151.75" style="stroke:#000000;stroke-width:1.5;" width="624.5" x="29" y="565.3"/><text fill="#000000" font-family="NanumGothic" font-size="13" font-weight="bold" lengthAdjust="spacing" textLength="21" x="44" y="578.26">opt</text><text fill="#000000" font-family="NanumGothic" font-size="11" font-weight="bold" lengthAdjust="spacing" textLength="183" x="110" y="577.42">[&#54156;&#50920;&#50612; &#49444;&#52824; &#51204;&#50640; &#51116;&#48512;&#54021;&#51060; &#54596;&#50836;&#54620; &#44221;&#50864;]</text><polygon fill="#181818" points="600,599.2,610,603.2,600,607.2,604,603.2" style="stroke:#181818;stroke-width:1.0;"/><line style="stroke:#181818;stroke-width:1.0;" x1="104" x2="606" y1="603.2" y2="603.2"/><text fill="#000000" font-family="NanumGothic" font-size="13" lengthAdjust="spacing" textLength="482" x="111" y="598.21">FirmwareStatusNotificationRequest(status = InstallRebooting, requestId = 123)</text><polygon fill="#181818" points="115,628.15,105,632.15,115,636.15,111,632.15" style="stroke:#181818;stroke-width:1.0;"/><line style="stroke:#181818;stroke-width:1.0;stroke-dasharray:2.0,2.0;" x1="109" x2="616" y1="632.15" y2="632.15"/><text fill="#000000" font-family="NanumGothic" font-size="13" lengthAdjust="spacing" textLength="233" x="121" y="627.16">FirmwareStatusNotificationResponse()</text><ellipse cx="103.5" cy="673.35" fill="none" rx="4" ry="4" style="stroke:#181818;stroke-width:1.5;"/><line style="stroke:#181818;stroke-width:1.0;" x1="104" x2="146" y1="661.1" y2="661.1"/><line style="stroke:#181818;stroke-width:1.0;" x1="146" x2="146" y1="661.1" y2="674.1"/><line style="stroke:#181818;stroke-width:1.0;" x1="109" x2="146" y1="674.1" y2="674.1"/><polygon fill="#181818" points="119,670.1,109,674.1,119,678.1,115,674.1" style="stroke:#181818;stroke-width:1.0;"/><text fill="#000000" font-family="NanumGothic" font-size="13" lengthAdjust="spacing" textLength="36" x="111" y="656.11">&#51116;&#48512;&#54021;</text><path d="M64,687.1 L64,711.1 L133,711.1 L133,697.1 L123,687.1 L64,687.1 " fill="#7D5393" style="stroke:#000000;stroke-width:0.5;"/><path d="M123,687.1 L123,697.1 L133,697.1 L123,687.1 " fill="#7D5393" style="stroke:#000000;stroke-width:0.5;"/><text fill="#FFFFFF" font-family="NanumGothic" font-size="13" lengthAdjust="spacing" textLength="48" x="70" y="704.06">&#51116;&#48512;&#54021;...</text><polygon fill="#181818" points="600,741,610,745,600,749,604,745" style="stroke:#181818;stroke-width:1.0;"/><line style="stroke:#181818;stroke-width:1.0;" x1="104" x2="606" y1="745" y2="745"/><text fill="#000000" font-family="NanumGothic" font-size="13" lengthAdjust="spacing" textLength="438" x="111" y="740.01">FirmwareStatusNotificationRequest(status = Installing, requestId = 123)</text><polygon fill="#181818" points="115,769.95,105,773.95,115,777.95,111,773.95" style="stroke:#181818;stroke-width:1.0;"/><line style="stroke:#181818;stroke-width:1.0;stroke-dasharray:2.0,2.0;" x1="109" x2="616" y1="773.95" y2="773.95"/><text fill="#000000" font-family="NanumGothic" font-size="13" lengthAdjust="spacing" textLength="233" x="121" y="768.96">FirmwareStatusNotificationResponse()</text><ellipse cx="103.5" cy="815.15" fill="none" rx="4" ry="4" style="stroke:#181818;stroke-width:1.5;"/><line style="stroke:#181818;stroke-width:1.0;" x1="104" x2="146" y1="802.9" y2="802.9"/><line style="stroke:#181818;stroke-width:1.0;" x1="146" x2="146" y1="802.9" y2="815.9"/><line style="stroke:#181818;stroke-width:1.0;" x1="109" x2="146" y1="815.9" y2="815.9"/><polygon fill="#181818" points="119,811.9,109,815.9,119,819.9,115,815.9" style="stroke:#181818;stroke-width:1.0;"/><text fill="#000000" font-family="NanumGothic" font-size="13" lengthAdjust="spacing" textLength="64" x="111" y="797.91">&#54156;&#50920;&#50612; &#49444;&#52824;</text><path d="M64,828.9 L64,852.9 L133,852.9 L133,838.9 L123,828.9 L64,828.9 " fill="#7D5393" style="stroke:#000000;stroke-width:0.5;"/><path d="M123,828.9 L123,838.9 L133,838.9 L123,828.9 " fill="#7D5393" style="stroke:#000000;stroke-width:0.5;"/><text fill="#FFFFFF" font-family="NanumGothic" font-size="13" lengthAdjust="spacing" textLength="48" x="70" y="845.86">&#49444;&#52824;&#51473;...</text><path d="M29,865.85 L95,865.85 L95,872.8 L85,882.8 L29,882.8 L29,865.85 " fill="#EEEEEE" style="stroke:#000000;stroke-width:1.5;"/><rect fill="none" height="151.75" style="stroke:#000000;stroke-width:1.5;" width="624.5" x="29" y="865.85"/><text fill="#000000" font-family="NanumGothic" font-size="13" font-weight="bold" lengthAdjust="spacing" textLength="21" x="44" y="878.81">opt</text><text fill="#000000" font-family="NanumGothic" font-size="11" font-weight="bold" lengthAdjust="spacing" textLength="249" x="110" y="877.97">[&#49444;&#52824; &#51060;&#54980; &#54156;&#50920;&#50612; &#54876;&#49457;&#54868;&#47484; &#50948;&#54644; &#51116;&#48512;&#54021;&#51060; &#54596;&#50836;&#54620; &#44221;&#50864;]</text><polygon fill="#181818" points="600,899.75,610,903.75,600,907.75,604,903.75" style="stroke:#181818;stroke-width:1.0;"/><line style="stroke:#181818;stroke-width:1.0;" x1="109" x2="606" y1="903.75" y2="903.75"/><text fill="#000000" font-family="NanumGothic" font-size="13" lengthAdjust="spacing" textLength="482" x="116" y="898.76">FirmwareStatusNotificationRequest(status = InstallRebooting, requestId = 123)</text><polygon fill="#181818" points="120,928.7,110,932.7,120,936.7,116,932.7" style="stroke:#181818;stroke-width:1.0;"/><line style="stroke:#181818;stroke-width:1.0;stroke-dasharray:2.0,2.0;" x1="114" x2="616" y1="932.7" y2="932.7"/><text fill="#000000" font-family="NanumGothic" font-size="13" lengthAdjust="spacing" textLength="233" x="126" y="927.71">FirmwareStatusNotificationResponse()</text><ellipse cx="108.5" cy="973.9" fill="none" rx="4" ry="4" style="stroke:#181818;stroke-width:1.5;"/><line style="stroke:#181818;stroke-width:1.0;" x1="109" x2="151" y1="961.65" y2="961.65"/><line style="stroke:#181818;stroke-width:1.0;" x1="151" x2="151" y1="961.65" y2="974.65"/><line style="stroke:#181818;stroke-width:1.0;" x1="114" x2="151" y1="974.65" y2="974.65"/><polygon fill="#181818" points="124,970.65,114,974.65,124,978.65,120,974.65" style="stroke:#181818;stroke-width:1.0;"/><text fill="#000000" font-family="NanumGothic" font-size="13" lengthAdjust="spacing" textLength="36" x="116" y="956.66">&#51116;&#48512;&#54021;</text><path d="M62,987.65 L62,1011.65 L135,1011.65 L135,997.65 L125,987.65 L62,987.65 " fill="#7D5393" style="stroke:#000000;stroke-width:0.5;"/><path d="M125,987.65 L125,997.65 L135,997.65 L125,987.65 " fill="#7D5393" style="stroke:#000000;stroke-width:0.5;"/><text fill="#FFFFFF" font-family="NanumGothic" font-size="13" lengthAdjust="spacing" textLength="48" x="68" y="1004.61">&#51116;&#48512;&#54021;...</text><polygon fill="#181818" points="600,1041.55,610,1045.55,600,1049.55,604,1045.55" style="stroke:#181818;stroke-width:1.0;"/><line style="stroke:#181818;stroke-width:1.0;" x1="109" x2="606" y1="1045.55" y2="1045.55"/><text fill="#000000" font-family="NanumGothic" font-size="13" lengthAdjust="spacing" textLength="434" x="116" y="1040.56">FirmwareStatusNotificationRequest(status = Installed, requestId = 123)</text><polygon fill="#181818" points="115,1070.5,105,1074.5,115,1078.5,111,1074.5" style="stroke:#181818;stroke-width:1.0;"/><line style="stroke:#181818;stroke-width:1.0;stroke-dasharray:2.0,2.0;" x1="109" x2="616" y1="1074.5" y2="1074.5"/><text fill="#000000" font-family="NanumGothic" font-size="13" lengthAdjust="spacing" textLength="233" x="121" y="1069.51">FirmwareStatusNotificationResponse()</text><path d="M54,1089.5 L120,1089.5 L120,1096.45 L110,1106.45 L54,1106.45 L54,1089.5 " fill="#EEEEEE" style="stroke:#000000;stroke-width:1.5;"/><rect fill="none" height="51.9" style="stroke:#000000;stroke-width:1.5;" width="89" x="54" y="1089.5"/><text fill="#000000" font-family="NanumGothic" font-size="13" font-weight="bold" lengthAdjust="spacing" textLength="21" x="69" y="1102.46">opt</text><path d="M64,1111.45 L64,1135.45 L133,1135.45 L133,1121.45 L123,1111.45 L64,1111.45 " fill="#7D5393" style="stroke:#000000;stroke-width:0.5;"/><path d="M123,1111.45 L123,1121.45 L133,1121.45 L123,1111.45 " fill="#7D5393" style="stroke:#000000;stroke-width:0.5;"/><text fill="#FFFFFF" font-family="NanumGothic" font-size="13" lengthAdjust="spacing" textLength="48" x="70" y="1128.41">&#51116;&#48512;&#54021;...</text><!--SRC=[xLLDRzD04BtxLmmzjHAD1DoGw8KAgGSuD8AxYRVfIgvjx4qgRWOS5AKHAY8kIMf7gHG-X40A450gmH_AZly3kqu2RcnIYGOe4XTxl3iVRz-yML-WHa4lQGGSTbydEQkqeokAfTgC5gYb6WoMhc-hTf4QHSWpbL7JM0BLWUdYP6qc8dypF_OIXgB89wokpSPSXTkMfZ9oWzexkwfDDicz4d7OiZr-RsXm3IvTlhAYg0L6oy9ndEx7rmm4PMO1LcLD4P8kv5YcuP3b5KKZ9vEdSwoPQTmO3l5bY5u0em-ki1J5C4K6iqpi52e0cp2RaZ9PbrLutHqD-xbSJY661Z8ig-O4zXImt2Wvjqn6jsWXzfbovSGxWgXrSzVGJLKJQIx2AGnE6fBLaNaLpqXQzAIEXw_nO01yhuVj0JyA-BDWFdNPCTXx-li89DevvK_8ZR-fV5VS8iwSfqL3c3QvGspXzHUEdloU7UUvmgWDUIV0pZkiD34KydWGyeTTu7vzT5p7LsxcdCK9RLhSPc1kPIGzbJbdr7S1knu-FkBxJLvh05O3qHTikI8SEs_vPpUgLs90_G0VXP6Vy9BMw6CNkxu8bfh6JbL2HR-6jKzyhoeqdeHhMYmn0EZryBWPLt- -Vx9Mv7lORaI-l8w-Ohili2n27Hk6C7LzazmrXLlclGBmq_ObjsBb09nHEm2fmSawQDReJDcI4VDabMYYb0x0j1iW-xAOePlG-YzSr6FDpP_4iK_gIfRYdKes74I7NY9jr1BZy3vgDVYBBu215_c3_uB-4uA6XA8NBkXpzlSG0lpLOO-f-GO0]--></g></svg>