<?xml version="1.0" encoding="us-ascii" standalone="no"?><svg xmlns="http://www.w3.org/2000/svg" xmlns:xlink="http://www.w3.org/1999/xlink" contentStyleType="text/css" height="121px" preserveAspectRatio="none" style="width:332px;height:121px;background:#FFFFFF;" version="1.1" viewBox="0 0 332 121" width="332px" zoomAndPan="magnify"><defs/><g><rect fill="#FFFFFF" height="28.95" style="stroke:#181818;stroke-width:1.0;" width="10" x="60" y="67.05"/><rect fill="#FFFFFF" height="28.95" style="stroke:#181818;stroke-width:1.0;" width="10" x="295" y="67.05"/><line style="stroke:#181818;stroke-width:0.5;stroke-dasharray:5.0,5.0;" x1="65" x2="65" y1="36.1" y2="114"/><line style="stroke:#181818;stroke-width:0.5;stroke-dasharray:5.0,5.0;" x1="299.5" x2="299.5" y1="36.1" y2="114"/><rect fill="#7D5393" height="30.1" rx="2.5" ry="2.5" style="stroke:#181818;stroke-width:0.5;" width="120" x="5" y="5"/><text fill="#FFFFFF" font-family="NanumGothic" font-size="14" lengthAdjust="spacing" textLength="106" x="12" y="24.88">Charging Station</text><rect fill="#7D5393" height="30.1" rx="2.5" ry="2.5" style="stroke:#181818;stroke-width:0.5;" width="53" x="273.5" y="5"/><text fill="#FFFFFF" font-family="NanumGothic" font-size="14" lengthAdjust="spacing" textLength="39" x="280.5" y="24.88">CSMS</text><rect fill="#FFFFFF" height="28.95" style="stroke:#181818;stroke-width:1.0;" width="10" x="60" y="67.05"/><rect fill="#FFFFFF" height="28.95" style="stroke:#181818;stroke-width:1.0;" width="10" x="295" y="67.05"/><polygon fill="#181818" points="283,63.05,293,67.05,283,71.05,287,67.05" style="stroke:#181818;stroke-width:1.0;"/><line style="stroke:#181818;stroke-width:1.0;" x1="70" x2="289" y1="67.05" y2="67.05"/><text fill="#000000" font-family="NanumGothic" font-size="13" lengthAdjust="spacing" textLength="119" x="77" y="62.06">HeartbeatRequest()</text><polygon fill="#181818" points="76,92,66,96,76,100,72,96" style="stroke:#181818;stroke-width:1.0;"/><line style="stroke:#181818;stroke-width:1.0;stroke-dasharray:2.0,2.0;" x1="70" x2="299" y1="96" y2="96"/><text fill="#000000" font-family="NanumGothic" font-size="13" lengthAdjust="spacing" textLength="201" x="82" y="91.01">HeartbeatResponse(currentTime)</text><!--SRC=[TOqz3i8m38Ltdy9qQeTo00OM5XOMsWkOr2gMqZGa3XAtfwKWQ2Gs-ttlPoFEsDGnHdrOtleqM01FGSM89wTO7AuKUd4zDaegeokG8dx4jvObcbEpkAO38FDYlN-17HvvIbsOzCotn57B2iYet4bvYNw_R0vcZFNSj2QhqkX75xaqAGHssih05NJyj_GNpUjF]--></g></svg>