<?xml version="1.0" encoding="us-ascii" standalone="no"?><svg xmlns="http://www.w3.org/2000/svg" xmlns:xlink="http://www.w3.org/1999/xlink" contentStyleType="text/css" height="740px" preserveAspectRatio="none" style="width:918px;height:740px;background:#FFFFFF;" version="1.1" viewBox="0 0 918 740" width="918px" zoomAndPan="magnify"><defs/><g><rect fill="#FFFFFF" height="110.8" style="stroke:#181818;stroke-width:1.0;" width="10" x="78.5" y="114.05"/><rect fill="#FFFFFF" height="167.75" style="stroke:#181818;stroke-width:1.0;" width="10" x="78.5" y="431.5"/><rect fill="#FFFFFF" height="110.8" style="stroke:#181818;stroke-width:1.0;" width="10" x="168.5" y="114.05"/><rect fill="#FFFFFF" height="28.95" style="stroke:#181818;stroke-width:1.0;" width="10" x="168.5" y="284.75"/><rect fill="#FFFFFF" height="28.95" style="stroke:#181818;stroke-width:1.0;" width="10" x="168.5" y="349.65"/><rect fill="#FFFFFF" height="28.95" style="stroke:#181818;stroke-width:1.0;" width="10" x="168.5" y="650.15"/><rect fill="#FFFFFF" height="170.7" style="stroke:#181818;stroke-width:1.0;" width="10" x="685.5" y="143"/><rect fill="#FFFFFF" height="28.95" style="stroke:#181818;stroke-width:1.0;" width="10" x="685.5" y="349.65"/><rect fill="#FFFFFF" height="247.6" style="stroke:#181818;stroke-width:1.0;" width="10" x="685.5" y="431.5"/><rect fill="none" height="45.9" style="stroke:#000000;stroke-width:1.5;" width="190" x="20" y="186.95"/><rect fill="none" height="74.85" style="stroke:#000000;stroke-width:1.5;" width="623.5" x="137" y="246.85"/><rect fill="none" height="322.45" style="stroke:#000000;stroke-width:1.5;" width="896.5" x="10" y="393.6"/><rect fill="none" height="58.9" style="stroke:#000000;stroke-width:1.5;" width="276" x="620.5" y="446.5"/><rect fill="none" height="45.9" style="stroke:#000000;stroke-width:1.5;" width="740.5" x="20" y="561.35"/><line style="stroke:#181818;stroke-width:0.5;stroke-dasharray:5.0,5.0;" x1="83" x2="83" y1="83.1" y2="733.05"/><line style="stroke:#181818;stroke-width:0.5;stroke-dasharray:5.0,5.0;" x1="173" x2="173" y1="83.1" y2="733.05"/><line style="stroke:#181818;stroke-width:0.5;stroke-dasharray:5.0,5.0;" x1="690.5" x2="690.5" y1="83.1" y2="733.05"/><text fill="#000000" font-family="NanumGothic" font-size="14" lengthAdjust="spacing" textLength="101" x="30" y="79.88">External Trigger</text><ellipse cx="83.5" cy="14.5" fill="#E2E2F0" rx="8" ry="8" style="stroke:#7D5393;stroke-width:1.5;"/><path d="M83.5,22.5 L83.5,49.5 M70.5,30.5 L96.5,30.5 M83.5,49.5 L70.5,64.5 M83.5,49.5 L96.5,64.5 " fill="none" style="stroke:#7D5393;stroke-width:1.5;"/><rect fill="#7D5393" height="30.1" rx="2.5" ry="2.5" style="stroke:#181818;stroke-width:0.5;" width="53" x="147" y="52"/><text fill="#FFFFFF" font-family="NanumGothic" font-size="14" lengthAdjust="spacing" textLength="39" x="154" y="71.88">CSMS</text><rect fill="#7D5393" height="30.1" rx="2.5" ry="2.5" style="stroke:#181818;stroke-width:0.5;" width="120" x="630.5" y="52"/><text fill="#FFFFFF" font-family="NanumGothic" font-size="14" lengthAdjust="spacing" textLength="106" x="637.5" y="71.88">Charging Station</text><rect fill="#FFFFFF" height="110.8" style="stroke:#181818;stroke-width:1.0;" width="10" x="78.5" y="114.05"/><rect fill="#FFFFFF" height="167.75" style="stroke:#181818;stroke-width:1.0;" width="10" x="78.5" y="431.5"/><rect fill="#FFFFFF" height="110.8" style="stroke:#181818;stroke-width:1.0;" width="10" x="168.5" y="114.05"/><rect fill="#FFFFFF" height="28.95" style="stroke:#181818;stroke-width:1.0;" width="10" x="168.5" y="284.75"/><rect fill="#FFFFFF" height="28.95" style="stroke:#181818;stroke-width:1.0;" width="10" x="168.5" y="349.65"/><rect fill="#FFFFFF" height="28.95" style="stroke:#181818;stroke-width:1.0;" width="10" x="168.5" y="650.15"/><rect fill="#FFFFFF" height="170.7" style="stroke:#181818;stroke-width:1.0;" width="10" x="685.5" y="143"/><rect fill="#FFFFFF" height="28.95" style="stroke:#181818;stroke-width:1.0;" width="10" x="685.5" y="349.65"/><rect fill="#FFFFFF" height="247.6" style="stroke:#181818;stroke-width:1.0;" width="10" x="685.5" y="431.5"/><polygon fill="#181818" points="156.5,110.05,166.5,114.05,156.5,118.05,160.5,114.05" style="stroke:#181818;stroke-width:1.0;"/><line style="stroke:#181818;stroke-width:1.0;" x1="88.5" x2="162.5" y1="114.05" y2="114.05"/><text fill="#000000" font-family="NanumGothic" font-size="13" lengthAdjust="spacing" textLength="52" x="95.5" y="109.06">&#50896;&#44201; &#49884;&#51089;</text><polygon fill="#181818" points="673.5,139,683.5,143,673.5,147,677.5,143" style="stroke:#181818;stroke-width:1.0;"/><line style="stroke:#181818;stroke-width:1.0;" x1="178.5" x2="679.5" y1="143" y2="143"/><text fill="#000000" font-family="NanumGothic" font-size="13" lengthAdjust="spacing" textLength="488" x="185.5" y="138.01">RequestStartTransactionRequest(idToken, chargingProfile, remoteStartId = 123)</text><polygon fill="#181818" points="189.5,167.95,179.5,171.95,189.5,175.95,185.5,171.95" style="stroke:#181818;stroke-width:1.0;"/><line style="stroke:#181818;stroke-width:1.0;stroke-dasharray:2.0,2.0;" x1="183.5" x2="684.5" y1="171.95" y2="171.95"/><text fill="#000000" font-family="NanumGothic" font-size="13" lengthAdjust="spacing" textLength="326" x="195.5" y="166.96">RequestStartTransactionResponse(status = Accepted)</text><path d="M20,186.95 L86,186.95 L86,193.9 L76,203.9 L20,203.9 L20,186.95 " fill="#EEEEEE" style="stroke:#000000;stroke-width:1.5;"/><rect fill="none" height="45.9" style="stroke:#000000;stroke-width:1.5;" width="190" x="20" y="186.95"/><text fill="#000000" font-family="NanumGothic" font-size="13" font-weight="bold" lengthAdjust="spacing" textLength="21" x="35" y="199.91">opt</text><polygon fill="#181818" points="94.5,220.85,84.5,224.85,94.5,228.85,90.5,224.85" style="stroke:#181818;stroke-width:1.0;"/><line style="stroke:#181818;stroke-width:1.0;stroke-dasharray:2.0,2.0;" x1="88.5" x2="172.5" y1="224.85" y2="224.85"/><text fill="#000000" font-family="NanumGothic" font-size="13" lengthAdjust="spacing" textLength="24" x="100.5" y="219.86">&#50508;&#47548;</text><path d="M137,246.85 L203,246.85 L203,253.8 L193,263.8 L137,263.8 L137,246.85 " fill="#EEEEEE" style="stroke:#000000;stroke-width:1.5;"/><rect fill="none" height="74.85" style="stroke:#000000;stroke-width:1.5;" width="623.5" x="137" y="246.85"/><text fill="#000000" font-family="NanumGothic" font-size="13" font-weight="bold" lengthAdjust="spacing" textLength="21" x="152" y="259.81">opt</text><text fill="#000000" font-family="NanumGothic" font-size="11" font-weight="bold" lengthAdjust="spacing" textLength="157" x="218" y="258.97">[AuthorizeRemoteStart = true]</text><polygon fill="#181818" points="189.5,280.75,179.5,284.75,189.5,288.75,185.5,284.75" style="stroke:#181818;stroke-width:1.0;"/><line style="stroke:#181818;stroke-width:1.0;" x1="183.5" x2="684.5" y1="284.75" y2="284.75"/><text fill="#000000" font-family="NanumGothic" font-size="13" lengthAdjust="spacing" textLength="166" x="195.5" y="279.76">AuthorizeRequest(idToken)</text><polygon fill="#181818" points="678.5,309.7,688.5,313.7,678.5,317.7,682.5,313.7" style="stroke:#181818;stroke-width:1.0;"/><line style="stroke:#181818;stroke-width:1.0;stroke-dasharray:2.0,2.0;" x1="173.5" x2="684.5" y1="313.7" y2="313.7"/><text fill="#000000" font-family="NanumGothic" font-size="13" lengthAdjust="spacing" textLength="199" x="180.5" y="308.71">AuthorizeResponse(idTokenInfo)</text><polygon fill="#181818" points="189.5,345.65,179.5,349.65,189.5,353.65,185.5,349.65" style="stroke:#181818;stroke-width:1.0;"/><line style="stroke:#181818;stroke-width:1.0;" x1="183.5" x2="684.5" y1="349.65" y2="349.65"/><text fill="#000000" font-family="NanumGothic" font-size="13" lengthAdjust="spacing" textLength="223" x="195.5" y="344.66">StatusNotificationRequest(Occupied)</text><polygon fill="#181818" points="678.5,374.6,688.5,378.6,678.5,382.6,682.5,378.6" style="stroke:#181818;stroke-width:1.0;"/><line style="stroke:#181818;stroke-width:1.0;stroke-dasharray:2.0,2.0;" x1="173.5" x2="684.5" y1="378.6" y2="378.6"/><text fill="#000000" font-family="NanumGothic" font-size="13" lengthAdjust="spacing" textLength="176" x="180.5" y="373.61">StatusNotificationResponse()</text><path d="M10,393.6 L70,393.6 L70,400.55 L60,410.55 L10,410.55 L10,393.6 " fill="#EEEEEE" style="stroke:#000000;stroke-width:1.5;"/><rect fill="none" height="322.45" style="stroke:#000000;stroke-width:1.5;" width="896.5" x="10" y="393.6"/><text fill="#000000" font-family="NanumGothic" font-size="13" font-weight="bold" lengthAdjust="spacing" textLength="15" x="25" y="406.56">alt</text><text fill="#000000" font-family="NanumGothic" font-size="11" font-weight="bold" lengthAdjust="spacing" textLength="149" x="85" y="405.72">[ConnectionTimeOut &#44592;&#44036; &#45236;]</text><polygon fill="#181818" points="673.5,427.5,683.5,431.5,673.5,435.5,677.5,431.5" style="stroke:#181818;stroke-width:1.0;"/><line style="stroke:#181818;stroke-width:1.0;" x1="88.5" x2="679.5" y1="431.5" y2="431.5"/><text fill="#000000" font-family="NanumGothic" font-size="13" lengthAdjust="spacing" textLength="64" x="95.5" y="426.51">&#52992;&#51060;&#48660; &#50672;&#44208;</text><path d="M620.5,446.5 L686.5,446.5 L686.5,453.45 L676.5,463.45 L620.5,463.45 L620.5,446.5 " fill="#EEEEEE" style="stroke:#000000;stroke-width:1.5;"/><rect fill="none" height="58.9" style="stroke:#000000;stroke-width:1.5;" width="276" x="620.5" y="446.5"/><text fill="#000000" font-family="NanumGothic" font-size="13" font-weight="bold" lengthAdjust="spacing" textLength="21" x="635.5" y="459.46">opt</text><text fill="#000000" font-family="NanumGothic" font-size="11" font-weight="bold" lengthAdjust="spacing" textLength="190" x="701.5" y="458.62">[&#52992;&#51060;&#48660;&#51060; &#50689;&#44396;&#51201;&#51004;&#47196; &#50672;&#44208;&#46104;&#51648; &#50506;&#51008; &#44221;&#50864;]</text><line style="stroke:#181818;stroke-width:1.0;" x1="695.5" x2="737.5" y1="484.4" y2="484.4"/><line style="stroke:#181818;stroke-width:1.0;" x1="737.5" x2="737.5" y1="484.4" y2="497.4"/><line style="stroke:#181818;stroke-width:1.0;" x1="696.5" x2="737.5" y1="497.4" y2="497.4"/><polygon fill="#181818" points="706.5,493.4,696.5,497.4,706.5,501.4,702.5,497.4" style="stroke:#181818;stroke-width:1.0;"/><text fill="#000000" font-family="NanumGothic" font-size="13" lengthAdjust="spacing" textLength="64" x="702.5" y="479.41">&#52964;&#45349;&#53552; &#51104;&#44552;</text><line style="stroke:#181818;stroke-width:1.0;" x1="695.5" x2="737.5" y1="533.35" y2="533.35"/><line style="stroke:#181818;stroke-width:1.0;" x1="737.5" x2="737.5" y1="533.35" y2="546.35"/><line style="stroke:#181818;stroke-width:1.0;" x1="696.5" x2="737.5" y1="546.35" y2="546.35"/><polygon fill="#181818" points="706.5,542.35,696.5,546.35,706.5,550.35,702.5,546.35" style="stroke:#181818;stroke-width:1.0;"/><text fill="#000000" font-family="NanumGothic" font-size="13" lengthAdjust="spacing" textLength="92" x="702.5" y="528.36">&#50640;&#45320;&#51648; &#51228;&#44277; &#49884;&#51089;</text><path d="M20,561.35 L86,561.35 L86,568.3 L76,578.3 L20,578.3 L20,561.35 " fill="#EEEEEE" style="stroke:#000000;stroke-width:1.5;"/><rect fill="none" height="45.9" style="stroke:#000000;stroke-width:1.5;" width="740.5" x="20" y="561.35"/><text fill="#000000" font-family="NanumGothic" font-size="13" font-weight="bold" lengthAdjust="spacing" textLength="21" x="35" y="574.31">opt</text><polygon fill="#181818" points="94.5,595.25,84.5,599.25,94.5,603.25,90.5,599.25" style="stroke:#181818;stroke-width:1.0;"/><line style="stroke:#181818;stroke-width:1.0;stroke-dasharray:2.0,2.0;" x1="88.5" x2="684.5" y1="599.25" y2="599.25"/><text fill="#000000" font-family="NanumGothic" font-size="13" lengthAdjust="spacing" textLength="24" x="100.5" y="594.26">&#50508;&#47548;</text><polygon fill="#181818" points="189.5,646.15,179.5,650.15,189.5,654.15,185.5,650.15" style="stroke:#181818;stroke-width:1.0;"/><line style="stroke:#181818;stroke-width:1.0;" x1="183.5" x2="684.5" y1="650.15" y2="650.15"/><text fill="#000000" font-family="NanumGothic" font-size="13" lengthAdjust="spacing" textLength="283" x="195.5" y="630.21">TransactionEventRequest(eventType = Started,</text><text fill="#000000" font-family="NanumGothic" font-size="13" lengthAdjust="spacing" textLength="315" x="211.5" y="645.16">chargingState = Charging, remoteStartId = 123, ...)</text><polygon fill="#181818" points="678.5,675.1,688.5,679.1,678.5,683.1,682.5,679.1" style="stroke:#181818;stroke-width:1.0;"/><line style="stroke:#181818;stroke-width:1.0;stroke-dasharray:2.0,2.0;" x1="173.5" x2="684.5" y1="679.1" y2="679.1"/><text fill="#000000" font-family="NanumGothic" font-size="13" lengthAdjust="spacing" textLength="183" x="180.5" y="674.11">TransactionEventResponse(...)</text><ellipse cx="908" cy="707.3" fill="none" rx="4" ry="4" style="stroke:#181818;stroke-width:1.5;"/><polygon fill="#181818" points="891,704.05,901,708.05,891,712.05,895,708.05" style="stroke:#181818;stroke-width:1.0;"/><line style="stroke:#181818;stroke-width:1.0;" x1="690.5" x2="897" y1="708.05" y2="708.05"/><text fill="#000000" font-family="NanumGothic" font-size="13" lengthAdjust="spacing" textLength="148" x="697.5" y="703.06">&#51068;&#48152; &#49828;&#47560;&#53944; &#52649;&#51204; &#49464;&#49496; &#44228;&#49549;</text><!--SRC=[bLJ1RjD04BtxAuQS6YcD1DmgWLHLFVG0HKsESB3iJRh2sJNhTKKvfSYWA81K950ZIAeW5QfA7AoqHP48FsHl_u7rnWdEnZ6GWnNFxhnvxysCRs5YERwDmEE73ggwViin3DFYb45f-pb7Z9WEr1bkDX4hWUd1B9Z63DTa75lODGc7qbRjGKtTIlveH_icQsBIX1etEQPaUYqDfZ73qD1X_Rw2sW3n-JWQNO1uqnUdxnE2-C3aQ8dD_40HC9AdmbYiim5xw9cFF2xV6QypatX98YLfU0tRTVeKaGfOQU8ZHXlOGHLWg4KvKdaxDjo3stVkbZDLTJrQ0DRdWbOoy5nAFBJcoGpVanKsBGkv7Dbbmw0kDm2ceYIG9bwQzF5j_6qYhzXeqOY5YEuP8hQ2XasVxrE6Nw2zFo8b0Svyb9JLfSoKPD8Mt2lB9AqV6V9BBSd0f1QaE3kaGSj_4wKxhqIjf5nJvZwa73UmPMOxlsjPleiJjnUB5RHufQAyAgcqig6hAT1Yc0w7BKe8KYDInosqwtE8nc4K1X2_l99Mv2sEpaTCsc9m5Oy_W3W9er6OxOy-5DdMwNG0accPeyadYDvHTFrT38z4Vn9_wQS5ukEUE6_BiUoAGHkYqI_nAIcQFqjBR7-UnS7Nco04SJgCnXsPg9hwZzadnt7GKTM7_UZoUlRbc9BF9r6uKeKhL4XDJLpoowpvzW4YV3PpA7cf7xf8BfjQEcHNu359KgmCNd8ymy_z45MWMgt-vzOjSqedD8Kg6ClbZSmrW3u1QUDW4eSz4Dsp-Bnpqns3-74XXW68O2nUzI2w3CJhTsffVmC0]--></g></svg>