<?xml version="1.0" encoding="us-ascii" standalone="no"?><svg xmlns="http://www.w3.org/2000/svg" xmlns:xlink="http://www.w3.org/1999/xlink" contentStyleType="text/css" height="964px" preserveAspectRatio="none" style="width:1001px;height:964px;background:#FFFFFF;" version="1.1" viewBox="0 0 1001 964" width="1001px" zoomAndPan="magnify"><defs/><g><rect fill="#FFFFFF" height="371.95" style="stroke:#181818;stroke-width:1.0;" width="10" x="90.5" y="292.75"/><rect fill="#FFFFFF" height="276.15" style="stroke:#181818;stroke-width:1.0;" width="10" x="238.5" y="149"/><rect fill="#FFFFFF" height="271.55" style="stroke:#181818;stroke-width:1.0;" width="10" x="238.5" y="507.95"/><rect fill="#FFFFFF" height="130.75" style="stroke:#181818;stroke-width:1.0;" width="10" x="238.5" y="808.45"/><rect fill="#FFFFFF" height="28.95" style="stroke:#181818;stroke-width:1.0;" width="10" x="798.5" y="234.85"/><rect fill="#FFFFFF" height="78.85" style="stroke:#181818;stroke-width:1.0;" width="10" x="798.5" y="507.95"/><rect fill="#FFFFFF" height="28.95" style="stroke:#181818;stroke-width:1.0;" width="10" x="798.5" y="750.55"/><rect fill="#FFFFFF" height="28.95" style="stroke:#181818;stroke-width:1.0;" width="10" x="798.5" y="837.4"/><rect fill="#FFFFFF" height="28.95" style="stroke:#181818;stroke-width:1.0;" width="10" x="798.5" y="910.25"/><rect fill="none" height="294.05" style="stroke:#000000;stroke-width:1.5;" width="924" x="70" y="307.75"/><rect fill="none" height="154.65" style="stroke:#000000;stroke-width:1.5;" width="810.5" x="173.5" y="440.15"/><line style="stroke:#181818;stroke-width:0.5;stroke-dasharray:5.0,5.0;" x1="37" x2="37" y1="83.1" y2="957.2"/><line style="stroke:#181818;stroke-width:0.5;stroke-dasharray:5.0,5.0;" x1="95" x2="95" y1="83.1" y2="957.2"/><line style="stroke:#181818;stroke-width:0.5;stroke-dasharray:5.0,5.0;" x1="243.5" x2="243.5" y1="83.1" y2="957.2"/><line style="stroke:#181818;stroke-width:0.5;stroke-dasharray:5.0,5.0;" x1="803" x2="803" y1="83.1" y2="957.2"/><text fill="#000000" font-family="NanumGothic" font-size="14" lengthAdjust="spacing" textLength="59" x="5" y="79.88">EV Driver</text><ellipse cx="37.5" cy="14.5" fill="#E2E2F0" rx="8" ry="8" style="stroke:#7D5393;stroke-width:1.5;"/><path d="M37.5,22.5 L37.5,49.5 M24.5,30.5 L50.5,30.5 M37.5,49.5 L24.5,64.5 M37.5,49.5 L50.5,64.5 " fill="none" style="stroke:#7D5393;stroke-width:1.5;"/><rect fill="#7D5393" height="30.1" rx="2.5" ry="2.5" style="stroke:#181818;stroke-width:0.5;" width="31" x="80" y="52"/><text fill="#FFFFFF" font-family="NanumGothic" font-size="14" lengthAdjust="spacing" textLength="17" x="87" y="71.88">EV</text><rect fill="#7D5393" height="30.1" rx="2.5" ry="2.5" style="stroke:#181818;stroke-width:0.5;" width="120" x="183.5" y="52"/><text fill="#FFFFFF" font-family="NanumGothic" font-size="14" lengthAdjust="spacing" textLength="106" x="190.5" y="71.88">Charging Station</text><rect fill="#7D5393" height="30.1" rx="2.5" ry="2.5" style="stroke:#181818;stroke-width:0.5;" width="53" x="777" y="52"/><text fill="#FFFFFF" font-family="NanumGothic" font-size="14" lengthAdjust="spacing" textLength="39" x="784" y="71.88">CSMS</text><rect fill="#FFFFFF" height="371.95" style="stroke:#181818;stroke-width:1.0;" width="10" x="90.5" y="292.75"/><rect fill="#FFFFFF" height="276.15" style="stroke:#181818;stroke-width:1.0;" width="10" x="238.5" y="149"/><rect fill="#FFFFFF" height="271.55" style="stroke:#181818;stroke-width:1.0;" width="10" x="238.5" y="507.95"/><rect fill="#FFFFFF" height="130.75" style="stroke:#181818;stroke-width:1.0;" width="10" x="238.5" y="808.45"/><rect fill="#FFFFFF" height="28.95" style="stroke:#181818;stroke-width:1.0;" width="10" x="798.5" y="234.85"/><rect fill="#FFFFFF" height="78.85" style="stroke:#181818;stroke-width:1.0;" width="10" x="798.5" y="507.95"/><rect fill="#FFFFFF" height="28.95" style="stroke:#181818;stroke-width:1.0;" width="10" x="798.5" y="750.55"/><rect fill="#FFFFFF" height="28.95" style="stroke:#181818;stroke-width:1.0;" width="10" x="798.5" y="837.4"/><rect fill="#FFFFFF" height="28.95" style="stroke:#181818;stroke-width:1.0;" width="10" x="798.5" y="910.25"/><path d="M10,98.1 L10,122.1 L830,122.1 L830,108.1 L820,98.1 L10,98.1 " fill="#7D5393" style="stroke:#000000;stroke-width:0.5;"/><path d="M820,98.1 L820,108.1 L830,108.1 L820,98.1 " fill="#7D5393" style="stroke:#000000;stroke-width:0.5;"/><text fill="#FFFFFF" font-family="NanumGothic" font-size="13" lengthAdjust="spacing" textLength="232" x="299.5" y="115.06">&#49324;&#50857;&#51088; &#51064;&#51613;&#50640; &#49457;&#44277;&#54616;&#44256; &#53944;&#47004;&#51117;&#49496;&#51060; &#49884;&#51089;&#46120;</text><polygon fill="#181818" points="106.5,145,96.5,149,106.5,153,102.5,149" style="stroke:#181818;stroke-width:1.0;"/><line style="stroke:#181818;stroke-width:1.0;" x1="100.5" x2="237.5" y1="149" y2="149"/><text fill="#000000" font-family="NanumGothic" font-size="13" lengthAdjust="spacing" textLength="114" x="112.5" y="144.01">&#52572;&#45824; &#51204;&#47448;(&#51228;&#54620;) &#49444;&#51221;</text><line style="stroke:#181818;stroke-width:1.0;" x1="248.5" x2="290.5" y1="177.95" y2="177.95"/><line style="stroke:#181818;stroke-width:1.0;" x1="290.5" x2="290.5" y1="177.95" y2="190.95"/><line style="stroke:#181818;stroke-width:1.0;" x1="249.5" x2="290.5" y1="190.95" y2="190.95"/><polygon fill="#181818" points="259.5,186.95,249.5,190.95,259.5,194.95,255.5,190.95" style="stroke:#181818;stroke-width:1.0;"/><text fill="#000000" font-family="NanumGothic" font-size="13" lengthAdjust="spacing" textLength="40" x="255.5" y="172.96">&#51204;&#50896; &#53036;</text><polygon fill="#181818" points="786.5,230.85,796.5,234.85,786.5,238.85,790.5,234.85" style="stroke:#181818;stroke-width:1.0;"/><line style="stroke:#181818;stroke-width:1.0;" x1="248.5" x2="792.5" y1="234.85" y2="234.85"/><text fill="#000000" font-family="NanumGothic" font-size="13" lengthAdjust="spacing" textLength="378" x="255.5" y="214.91">TransactionEventRequest(eventType = Updated, transactionId,</text><text fill="#000000" font-family="NanumGothic" font-size="13" lengthAdjust="spacing" textLength="182" x="287.5" y="229.86">chargingState = Charging, ...)</text><polygon fill="#181818" points="259.5,259.8,249.5,263.8,259.5,267.8,255.5,263.8" style="stroke:#181818;stroke-width:1.0;"/><line style="stroke:#181818;stroke-width:1.0;stroke-dasharray:2.0,2.0;" x1="253.5" x2="802.5" y1="263.8" y2="263.8"/><text fill="#000000" font-family="NanumGothic" font-size="13" lengthAdjust="spacing" textLength="183" x="265.5" y="258.81">TransactionEventResponse(...)</text><polygon fill="#181818" points="226.5,288.75,236.5,292.75,226.5,296.75,230.5,292.75" style="stroke:#181818;stroke-width:1.0;"/><line style="stroke:#181818;stroke-width:1.0;" x1="100.5" x2="232.5" y1="292.75" y2="292.75"/><text fill="#000000" font-family="NanumGothic" font-size="13" lengthAdjust="spacing" textLength="52" x="107.5" y="287.76">&#52649;&#51204; &#49884;&#51089;</text><path d="M70,307.75 L142,307.75 L142,314.7 L132,324.7 L70,324.7 L70,307.75 " fill="#EEEEEE" style="stroke:#000000;stroke-width:1.5;"/><rect fill="none" height="294.05" style="stroke:#000000;stroke-width:1.5;" width="924" x="70" y="307.75"/><text fill="#000000" font-family="NanumGothic" font-size="13" font-weight="bold" lengthAdjust="spacing" textLength="27" x="85" y="320.71">loop</text><text fill="#000000" font-family="NanumGothic" font-size="11" font-weight="bold" lengthAdjust="spacing" textLength="150" x="157" y="319.87">[&#52264;&#51669; &#54532;&#47196;&#54028;&#51068;&#50640; &#46384;&#46972; &#47336;&#54532; &#48320;&#54868;]</text><line style="stroke:#000000;stroke-width:1.0;stroke-dasharray:2.0,2.0;" x1="70" x2="994" y1="325.7" y2="325.7"/><text fill="#000000" font-family="NanumGothic" font-size="11" font-weight="bold" lengthAdjust="spacing" textLength="183" x="75" y="335.82">[&#52264;&#51669; &#54532;&#47196;&#54028;&#51068;&#51032; &#44033; &#51064;&#53552;&#48268; &#44592;&#44036;&#50640; &#45824;&#54644;]</text><line style="stroke:#181818;stroke-width:1.0;" x1="248.5" x2="290.5" y1="371.75" y2="371.75"/><line style="stroke:#181818;stroke-width:1.0;" x1="290.5" x2="290.5" y1="371.75" y2="384.75"/><line style="stroke:#181818;stroke-width:1.0;" x1="249.5" x2="290.5" y1="384.75" y2="384.75"/><polygon fill="#181818" points="259.5,380.75,249.5,384.75,259.5,388.75,255.5,384.75" style="stroke:#181818;stroke-width:1.0;"/><text fill="#000000" font-family="NanumGothic" font-size="13" lengthAdjust="spacing" textLength="208" x="255.5" y="366.76">&#52264;&#51669; &#54532;&#47196;&#54028;&#51068;&#50640;&#49436; &#52649;&#51204;&#47049; &#51228;&#54620; &#44032;&#51256;&#50740;</text><path d="M475,344.35 L475,398.35 L720,398.35 L720,354.35 L710,344.35 L475,344.35 " fill="#7D5393" style="stroke:#000000;stroke-width:0.5;"/><path d="M710,344.35 L710,354.35 L720,354.35 L710,344.35 " fill="#7D5393" style="stroke:#000000;stroke-width:0.5;"/><text fill="#FFFFFF" font-family="NanumGothic" font-size="13" lengthAdjust="spacing" textLength="224" x="481" y="361.31">&#52649;&#51204;&#44592;&#45716; &#52572;&#45824; &#51204;&#47448;&#47484; &#48320;&#44221;&#54644;&#50556; &#54624; &#46412;&#47560;&#45796;</text><text fill="#FFFFFF" font-family="NanumGothic" font-size="13" lengthAdjust="spacing" textLength="145" x="481" y="376.26">Control Pilot &#49888;&#54840;&#47484; &#53685;&#54644;</text><text fill="#FFFFFF" font-family="NanumGothic" font-size="13" lengthAdjust="spacing" textLength="156" x="481" y="391.21">&#52649;&#51204; &#54532;&#47196;&#54028;&#51068;&#51012; &#44396;&#54788;&#54633;&#45768;&#45796;.</text><polygon fill="#181818" points="111.5,421.15,101.5,425.15,111.5,429.15,107.5,425.15" style="stroke:#181818;stroke-width:1.0;"/><line style="stroke:#181818;stroke-width:1.0;" x1="105.5" x2="242.5" y1="425.15" y2="425.15"/><text fill="#000000" font-family="NanumGothic" font-size="13" lengthAdjust="spacing" textLength="114" x="117.5" y="420.16">&#52572;&#45824; &#51204;&#47448;(&#51228;&#54620;) &#49444;&#51221;</text><path d="M173.5,440.15 L239.5,440.15 L239.5,447.1 L229.5,457.1 L173.5,457.1 L173.5,440.15 " fill="#EEEEEE" style="stroke:#000000;stroke-width:1.5;"/><rect fill="none" height="154.65" style="stroke:#000000;stroke-width:1.5;" width="810.5" x="173.5" y="440.15"/><text fill="#000000" font-family="NanumGothic" font-size="13" font-weight="bold" lengthAdjust="spacing" textLength="21" x="188.5" y="453.11">opt</text><text fill="#000000" font-family="NanumGothic" font-size="11" font-weight="bold" lengthAdjust="spacing" textLength="141" x="254.5" y="452.27">[Change of limits by CSMS]</text><polygon fill="#181818" points="786.5,503.95,796.5,507.95,786.5,511.95,790.5,507.95" style="stroke:#181818;stroke-width:1.0;"/><line style="stroke:#181818;stroke-width:1.0;" x1="248.5" x2="792.5" y1="507.95" y2="507.95"/><text fill="#000000" font-family="NanumGothic" font-size="13" lengthAdjust="spacing" textLength="413" x="255.5" y="473.06">SetChargingProfileRequest(evseId,chargingProfile.id,[transactionId],</text><text fill="#000000" font-family="NanumGothic" font-size="13" lengthAdjust="spacing" textLength="508" x="255.5" y="488.01">chargingProfilePurpose: TxProfile, ChargingProfileKind, RecurrencyKind, ValidFrom,</text><text fill="#000000" font-family="NanumGothic" font-size="13" lengthAdjust="spacing" textLength="168" x="255.5" y="502.96">ValidTo, ChargingSchedule)</text><path d="M813,520.95 L813,559.95 L974,559.95 L974,530.95 L964,520.95 L813,520.95 " fill="#7D5393" style="stroke:#000000;stroke-width:0.5;"/><path d="M964,520.95 L964,530.95 L974,530.95 L964,520.95 " fill="#7D5393" style="stroke:#000000;stroke-width:0.5;"/><text fill="#FFFFFF" font-family="NanumGothic" font-size="13" lengthAdjust="spacing" textLength="140" x="819" y="537.91">CSMS&#44032; &#52649;&#51204; &#54532;&#47196;&#54028;&#51068;&#51012;</text><text fill="#FFFFFF" font-family="NanumGothic" font-size="13" lengthAdjust="spacing" textLength="116" x="819" y="552.86">&#48320;&#44221;&#54624;&#51648; &#44208;&#51221;&#54633;&#45768;&#45796;.</text><polygon fill="#181818" points="791.5,582.8,801.5,586.8,791.5,590.8,795.5,586.8" style="stroke:#181818;stroke-width:1.0;"/><line style="stroke:#181818;stroke-width:1.0;stroke-dasharray:2.0,2.0;" x1="248.5" x2="797.5" y1="586.8" y2="586.8"/><text fill="#000000" font-family="NanumGothic" font-size="13" lengthAdjust="spacing" textLength="238" x="255.5" y="581.81">SetChargingProfileResponse(Accepted)</text><path d="M10,613.8 L10,637.8 L830,637.8 L830,623.8 L820,613.8 L10,613.8 " fill="#7D5393" style="stroke:#000000;stroke-width:0.5;"/><path d="M820,613.8 L820,623.8 L830,623.8 L820,613.8 " fill="#7D5393" style="stroke:#000000;stroke-width:0.5;"/><text fill="#FFFFFF" font-family="NanumGothic" font-size="13" lengthAdjust="spacing" textLength="92" x="369.5" y="630.76">&#49324;&#50857;&#51088; &#51064;&#51613; &#49457;&#44277;</text><polygon fill="#181818" points="106.5,660.7,96.5,664.7,106.5,668.7,102.5,664.7" style="stroke:#181818;stroke-width:1.0;"/><line style="stroke:#181818;stroke-width:1.0;stroke-dasharray:2.0,2.0;" x1="100.5" x2="237.5" y1="664.7" y2="664.7"/><text fill="#000000" font-family="NanumGothic" font-size="13" lengthAdjust="spacing" textLength="52" x="112.5" y="659.71">&#52649;&#51204; &#51333;&#47308;</text><line style="stroke:#181818;stroke-width:1.0;" x1="248.5" x2="290.5" y1="693.65" y2="693.65"/><line style="stroke:#181818;stroke-width:1.0;" x1="290.5" x2="290.5" y1="693.65" y2="706.65"/><line style="stroke:#181818;stroke-width:1.0;" x1="249.5" x2="290.5" y1="706.65" y2="706.65"/><polygon fill="#181818" points="259.5,702.65,249.5,706.65,259.5,710.65,255.5,706.65" style="stroke:#181818;stroke-width:1.0;"/><text fill="#000000" font-family="NanumGothic" font-size="13" lengthAdjust="spacing" textLength="40" x="255.5" y="688.66">&#51204;&#50896; &#45140;</text><polygon fill="#181818" points="786.5,746.55,796.5,750.55,786.5,754.55,790.5,750.55" style="stroke:#181818;stroke-width:1.0;"/><line style="stroke:#181818;stroke-width:1.0;" x1="248.5" x2="792.5" y1="750.55" y2="750.55"/><text fill="#000000" font-family="NanumGothic" font-size="13" lengthAdjust="spacing" textLength="378" x="255.5" y="730.61">TransactionEventRequest(eventType = Updated, transactionId,</text><text fill="#000000" font-family="NanumGothic" font-size="13" lengthAdjust="spacing" textLength="208" x="279.5" y="745.56">chargingState = EVConnected, ...)</text><polygon fill="#181818" points="254.5,775.5,244.5,779.5,254.5,783.5,250.5,779.5" style="stroke:#181818;stroke-width:1.0;"/><line style="stroke:#181818;stroke-width:1.0;stroke-dasharray:2.0,2.0;" x1="248.5" x2="802.5" y1="779.5" y2="779.5"/><text fill="#000000" font-family="NanumGothic" font-size="13" lengthAdjust="spacing" textLength="183" x="260.5" y="774.51">TransactionEventResponse(...)</text><polygon fill="#181818" points="226.5,804.45,236.5,808.45,226.5,812.45,230.5,808.45" style="stroke:#181818;stroke-width:1.0;"/><line style="stroke:#181818;stroke-width:1.0;stroke-dasharray:2.0,2.0;" x1="37.5" x2="232.5" y1="808.45" y2="808.45"/><text fill="#000000" font-family="NanumGothic" font-size="13" lengthAdjust="spacing" textLength="64" x="44.5" y="803.46">&#52992;&#51060;&#48660; &#48516;&#47532;</text><polygon fill="#181818" points="786.5,833.4,796.5,837.4,786.5,841.4,790.5,837.4" style="stroke:#181818;stroke-width:1.0;"/><line style="stroke:#181818;stroke-width:1.0;" x1="248.5" x2="792.5" y1="837.4" y2="837.4"/><text fill="#000000" font-family="NanumGothic" font-size="13" lengthAdjust="spacing" textLength="220" x="255.5" y="832.41">StatusNotificationRequest(Available)</text><polygon fill="#181818" points="259.5,862.35,249.5,866.35,259.5,870.35,255.5,866.35" style="stroke:#181818;stroke-width:1.0;"/><line style="stroke:#181818;stroke-width:1.0;stroke-dasharray:2.0,2.0;" x1="253.5" x2="802.5" y1="866.35" y2="866.35"/><text fill="#000000" font-family="NanumGothic" font-size="13" lengthAdjust="spacing" textLength="176" x="265.5" y="861.36">StatusNotificationResponse()</text><polygon fill="#181818" points="786.5,906.25,796.5,910.25,786.5,914.25,790.5,910.25" style="stroke:#181818;stroke-width:1.0;"/><line style="stroke:#181818;stroke-width:1.0;" x1="248.5" x2="792.5" y1="910.25" y2="910.25"/><text fill="#000000" font-family="NanumGothic" font-size="13" lengthAdjust="spacing" textLength="437" x="255.5" y="890.31">TransactionEventRequest(eventType = Ended, transactionId, timestamp,</text><text fill="#000000" font-family="NanumGothic" font-size="13" lengthAdjust="spacing" textLength="96" x="279.5" y="905.26">stopReason, ...)</text><polygon fill="#181818" points="254.5,935.2,244.5,939.2,254.5,943.2,250.5,939.2" style="stroke:#181818;stroke-width:1.0;"/><line style="stroke:#181818;stroke-width:1.0;stroke-dasharray:2.0,2.0;" x1="248.5" x2="802.5" y1="939.2" y2="939.2"/><text fill="#000000" font-family="NanumGothic" font-size="13" lengthAdjust="spacing" textLength="253" x="260.5" y="934.21">TransactionEventResponse([IdTokenInfo])</text><!--SRC=[jLLBRzj64BxpLqnpiW55Fy100nYf0XX52yDoVKboOCYrlIYrov0hexuf0HCaiGu9829AAxbgxVW1k83Y5tHG_v1s-HyoouSfCSp3IC83iJixEw_lczaVABESfat05ziEgRhDXcCOfYMu1pTgQ_2JHxU8TmDC7sfhoSPmJKzGYxec4redFPmLtzuqlGtADg0kJ44vYvKoOIehtAZ_Ka-qS64OZ0i27DrT-Qqa9m3gyOdwyrZjlWJL7wc3ldgDg-3TvEmY2hkJim54BqPojwTs_rDFkgf_3ce7Dw_aooE3C1kqPSCen08tRw6Z1L0NFTbkWHe4ycrtJWrwKTYRH-lxQX3gij0j4-Cg9b9chI1Qq3RLNnZf-AHS7vDR081LpsI-ziHPROimiK8UDealveZUh6wx17w4trmRmx0h87Bb9TpUOv1-rfG3VIDpM85gjJe_bKbSRFs7csL1VnYDxtBcaxdOZ4qAXf0nfQbV7cFsAGwvSoIDuN3kWXeUgSCGeauW_-b5xRRgZpMeiZEK_J78lICy0NdMYjvq3EBufFH2lmkJuIFDYIWOojCsJ4R3oJ283RLRKNYErFaYd4g3KK4lJKF-_HmIOg2_bXgCL5URZWdhqOrDOMW04bqCGRxepB9AlXthN2Qd_sDCAXn350v0Xcrv-4pkxCUNRtCcFEx0CdMumB8Dekv8NukUNYHvPFOB5GXWSd4ITOCeF9OxsbeLTNFEb-R_MTO3JCDSP3u0TuKMimtirtLmQ8CA7nviPzrQNlIKxFgh4v5fB7jydJeafxnFaDRMx6cLsfMxCyI_NqbDtMC5tUMcvtAV88__I2KLA3ZxcJBid1LYDJsFC6ixsQ-P3hNlUBoHcuv5gpmtKBSsYTrqo7oSvKTBD7iOjuaMvNpHPRig5iHB9DP744wLCW8Dr64B9gT312e77MAbQTnBGBX2eQp-QPClMXPnST0a6HQxFN6XP-grndKwgpyrYpDQfcFZtoTohpqzRFJWkCR8bOywttta5WTkRGsRc14hllCzP-wdcZF3ejoF6hVmTPIZ3iZBG1wSNFDzIyY3WgR_AnTqdLhnMLQynIsJEkO3tHvVd7cPjJJtaiVcAn6jCRi4Jq4Rg6Wst1nQNt1tXPW-PzyCoRjBE4b-9so9hVFxryBqFG00]--></g></svg>