<?xml version="1.0" encoding="us-ascii" standalone="no"?><svg xmlns="http://www.w3.org/2000/svg" xmlns:xlink="http://www.w3.org/1999/xlink" contentStyleType="text/css" height="435px" preserveAspectRatio="none" style="width:836px;height:435px;background:#FFFFFF;" version="1.1" viewBox="0 0 836 435" width="836px" zoomAndPan="magnify"><defs/><g><rect fill="#FFFFFF" height="28.95" style="stroke:#181818;stroke-width:1.0;" width="10" x="108.5" y="163.95"/><rect fill="#FFFFFF" height="116.75" style="stroke:#181818;stroke-width:1.0;" width="10" x="198.5" y="293.7"/><rect fill="#FFFFFF" height="129.75" style="stroke:#181818;stroke-width:1.0;" width="10" x="675.5" y="192.9"/><rect fill="#FFFFFF" height="28.95" style="stroke:#181818;stroke-width:1.0;" width="10" x="675.5" y="381.5"/><line style="stroke:#181818;stroke-width:0.5;stroke-dasharray:5.0,5.0;" x1="37" x2="37" y1="83.1" y2="428.45"/><line style="stroke:#181818;stroke-width:0.5;stroke-dasharray:5.0,5.0;" x1="113.5" x2="113.5" y1="83.1" y2="428.45"/><line style="stroke:#181818;stroke-width:0.5;stroke-dasharray:5.0,5.0;" x1="203.5" x2="203.5" y1="83.1" y2="428.45"/><line style="stroke:#181818;stroke-width:0.5;stroke-dasharray:5.0,5.0;" x1="680" x2="680" y1="83.1" y2="428.45"/><text fill="#000000" font-family="NanumGothic" font-size="14" lengthAdjust="spacing" textLength="59" x="5" y="79.88">EV Driver</text><ellipse cx="37.5" cy="14.5" fill="#E2E2F0" rx="8" ry="8" style="stroke:#7D5393;stroke-width:1.5;"/><path d="M37.5,22.5 L37.5,49.5 M24.5,30.5 L50.5,30.5 M37.5,49.5 L24.5,64.5 M37.5,49.5 L50.5,64.5 " fill="none" style="stroke:#7D5393;stroke-width:1.5;"/><rect fill="#7D5393" height="30.1" rx="2.5" ry="2.5" style="stroke:#181818;stroke-width:0.5;" width="40" x="93.5" y="52"/><text fill="#FFFFFF" font-family="NanumGothic" font-size="14" lengthAdjust="spacing" textLength="26" x="100.5" y="71.88">APP</text><rect fill="#7D5393" height="46.2" rx="2.5" ry="2.5" style="stroke:#181818;stroke-width:0.5;" width="120" x="143.5" y="35.9"/><text fill="#FFFFFF" font-family="NanumGothic" font-size="14" lengthAdjust="spacing" textLength="106" x="150.5" y="55.78">Charging Station</text><text fill="#FFFFFF" font-family="NanumGothic" font-size="14" lengthAdjust="spacing" textLength="46" x="180.5" y="71.88">CS-001</text><rect fill="#7D5393" height="30.1" rx="2.5" ry="2.5" style="stroke:#181818;stroke-width:0.5;" width="53" x="654" y="52"/><text fill="#FFFFFF" font-family="NanumGothic" font-size="14" lengthAdjust="spacing" textLength="39" x="661" y="71.88">CSMS</text><rect fill="#FFFFFF" height="28.95" style="stroke:#181818;stroke-width:1.0;" width="10" x="108.5" y="163.95"/><rect fill="#FFFFFF" height="116.75" style="stroke:#181818;stroke-width:1.0;" width="10" x="198.5" y="293.7"/><rect fill="#FFFFFF" height="129.75" style="stroke:#181818;stroke-width:1.0;" width="10" x="675.5" y="192.9"/><rect fill="#FFFFFF" height="28.95" style="stroke:#181818;stroke-width:1.0;" width="10" x="675.5" y="381.5"/><path d="M208,98.1 L208,137.1 L357,137.1 L357,108.1 L347,98.1 L208,98.1 " fill="#7D5393" style="stroke:#000000;stroke-width:0.5;"/><path d="M347,98.1 L347,108.1 L357,108.1 L347,98.1 " fill="#7D5393" style="stroke:#000000;stroke-width:0.5;"/><text fill="#FFFFFF" font-family="NanumGothic" font-size="13" lengthAdjust="spacing" textLength="104" x="214" y="115.06">&#52992;&#51060;&#48660; &#50672;&#44208; &#49884;&#51216;&#50640;</text><text fill="#FFFFFF" font-family="NanumGothic" font-size="13" lengthAdjust="spacing" textLength="128" x="214" y="130.01">&#51060;&#48120; &#53944;&#47004;&#51117;&#49496;&#51060; &#49884;&#51089;&#46120;</text><polygon fill="#181818" points="96.5,159.95,106.5,163.95,96.5,167.95,100.5,163.95" style="stroke:#181818;stroke-width:1.0;"/><line style="stroke:#181818;stroke-width:1.0;" x1="37.5" x2="102.5" y1="163.95" y2="163.95"/><text fill="#000000" font-family="NanumGothic" font-size="13" lengthAdjust="spacing" textLength="52" x="44.5" y="158.96">&#52649;&#51204; &#49884;&#51089;</text><polygon fill="#181818" points="663.5,188.9,673.5,192.9,663.5,196.9,667.5,192.9" style="stroke:#181818;stroke-width:1.0;"/><line style="stroke:#181818;stroke-width:1.0;" x1="113.5" x2="669.5" y1="192.9" y2="192.9"/><text fill="#000000" font-family="NanumGothic" font-size="13" lengthAdjust="spacing" textLength="111" x="120.5" y="187.91">&#52649;&#51204; &#49884;&#51089; (CS-001)</text><line style="stroke:#181818;stroke-width:1.0;" x1="685.5" x2="727.5" y1="236.8" y2="236.8"/><line style="stroke:#181818;stroke-width:1.0;" x1="727.5" x2="727.5" y1="236.8" y2="249.8"/><line style="stroke:#181818;stroke-width:1.0;" x1="686.5" x2="727.5" y1="249.8" y2="249.8"/><polygon fill="#181818" points="696.5,245.8,686.5,249.8,696.5,253.8,692.5,249.8" style="stroke:#181818;stroke-width:1.0;"/><text fill="#000000" font-family="NanumGothic" font-size="13" lengthAdjust="spacing" textLength="133" x="692.5" y="216.86">determine unique id()</text><text fill="#000000" font-family="NanumGothic" font-size="13" lengthAdjust="spacing" textLength="83" x="708.5" y="231.81">result = 4444</text><polygon fill="#181818" points="219.5,289.7,209.5,293.7,219.5,297.7,215.5,293.7" style="stroke:#181818;stroke-width:1.0;"/><line style="stroke:#181818;stroke-width:1.0;" x1="213.5" x2="674.5" y1="293.7" y2="293.7"/><text fill="#000000" font-family="NanumGothic" font-size="13" lengthAdjust="spacing" textLength="264" x="225.5" y="273.76">RequestStartTransactionRequest(evseId = 1</text><text fill="#000000" font-family="NanumGothic" font-size="13" lengthAdjust="spacing" textLength="218" x="241.5" y="288.71">idToken(id = 4444, type = Central))</text><polygon fill="#181818" points="668.5,318.65,678.5,322.65,668.5,326.65,672.5,322.65" style="stroke:#181818;stroke-width:1.0;"/><line style="stroke:#181818;stroke-width:1.0;stroke-dasharray:2.0,2.0;" x1="208.5" x2="674.5" y1="322.65" y2="322.65"/><text fill="#000000" font-family="NanumGothic" font-size="13" lengthAdjust="spacing" textLength="272" x="215.5" y="317.66">RequestStartTransactionResponse(Accepted)</text><polygon fill="#181818" points="663.5,377.5,673.5,381.5,663.5,385.5,667.5,381.5" style="stroke:#181818;stroke-width:1.0;"/><line style="stroke:#181818;stroke-width:1.0;" x1="208.5" x2="669.5" y1="381.5" y2="381.5"/><text fill="#000000" font-family="NanumGothic" font-size="13" lengthAdjust="spacing" textLength="444" x="215.5" y="346.61">TransactionEventRequest(eventType = Updated, transactionId = AB1234,</text><text fill="#000000" font-family="NanumGothic" font-size="13" lengthAdjust="spacing" textLength="205" x="231.5" y="361.56">evse.id = 1, evse.connectorId = 1,</text><text fill="#000000" font-family="NanumGothic" font-size="13" lengthAdjust="spacing" textLength="154" x="231.5" y="376.51">meterValues, timestamp)</text><polygon fill="#181818" points="214.5,406.45,204.5,410.45,214.5,414.45,210.5,410.45" style="stroke:#181818;stroke-width:1.0;"/><line style="stroke:#181818;stroke-width:1.0;stroke-dasharray:2.0,2.0;" x1="208.5" x2="679.5" y1="410.45" y2="410.45"/><text fill="#000000" font-family="NanumGothic" font-size="13" lengthAdjust="spacing" textLength="183" x="220.5" y="405.46">TransactionEventResponse(...)</text><!--SRC=[TLAnRjim4Dtv5LTF4X0BSTEfG0iuheSC1OBQzPI542yEKObYASf0jWx9aYukK20TKYDZEnGDYY3ma2-AcN_8KL9YMqur4BgxT-_kFVA5L75I28JS7YSOwI9D6EEnpGoq-YDuP-G4JGju3lrH5J3DZPMnr5nPQ7NtzyjgL-lrGk-8cx5KOnXORcMc3bHlqDxUxfJens9TQtGEtWyg5FqmfZABOEJuo49skD49u6w_k9_NY_btSETNT_-km7szS9TJTpxrHQhydSFzsNmnkt2pF-xq1wLAoEpROlgBeHBW9p3sg0_QRxsQr-1kVhlBanhhFP4JJgjufOmEZ_CRDe0GL3f39d2jvocePFbpIG4WqA99fK8ebFnS84WHX72Wg0G6yoAny0PUqRVIkkw5P_c0r9fRoXWxD5pbVcgcwdI0anpt115rQcOfXjadL84KDViMs6ED5FHGMSEJC5nPlE4zQoIW_QJdltlaEbCv1jquHcrHhBbK6zCaNNgqmjIVq7vBMHGCgxq_Qa5SWdGimQNaxcxdvGxfguHx9w9ITMUh2k9CAVGFVw_ELi3Ktyk89pI8E6LAytYgm-UlyxbBsLowzY2Aeatvgt73xWS0]--></g></svg>