<?xml version="1.0" encoding="us-ascii" standalone="no"?><svg xmlns="http://www.w3.org/2000/svg" xmlns:xlink="http://www.w3.org/1999/xlink" contentStyleType="text/css" height="743px" preserveAspectRatio="none" style="width:992px;height:743px;background:#FFFFFF;" version="1.1" viewBox="0 0 992 743" width="992px" zoomAndPan="magnify"><defs/><g><rect fill="#FFFFFF" height="318.45" style="stroke:#181818;stroke-width:1.0;" width="10" x="150" y="245.8"/><rect fill="#FFFFFF" height="28.95" style="stroke:#181818;stroke-width:1.0;" width="10" x="150" y="622.8"/><rect fill="#FFFFFF" height="212.6" style="stroke:#181818;stroke-width:1.0;" width="10" x="944" y="163.95"/><rect fill="#FFFFFF" height="28.95" style="stroke:#181818;stroke-width:1.0;" width="10" x="944" y="535.3"/><rect fill="#FFFFFF" height="28.95" style="stroke:#181818;stroke-width:1.0;" width="10" x="944" y="622.8"/><rect fill="none" height="451.85" style="stroke:#000000;stroke-width:1.5;" width="975.5" x="10" y="207.9"/><rect fill="none" height="58.9" style="stroke:#000000;stroke-width:1.5;" width="270" x="85" y="391.55"/><rect fill="none" height="45.9" style="stroke:#000000;stroke-width:1.5;" width="215" x="10" y="673.75"/><line style="stroke:#181818;stroke-width:0.5;stroke-dasharray:5.0,5.0;" x1="52" x2="52" y1="83.1" y2="736.65"/><line style="stroke:#181818;stroke-width:0.5;stroke-dasharray:5.0,5.0;" x1="155" x2="155" y1="83.1" y2="736.65"/><line style="stroke:#181818;stroke-width:0.5;stroke-dasharray:5.0,5.0;" x1="948.5" x2="948.5" y1="83.1" y2="736.65"/><text fill="#000000" font-family="NanumGothic" font-size="14" lengthAdjust="spacing" textLength="59" x="20" y="79.88">EV Driver</text><ellipse cx="52.5" cy="14.5" fill="#E2E2F0" rx="8" ry="8" style="stroke:#7D5393;stroke-width:1.5;"/><path d="M52.5,22.5 L52.5,49.5 M39.5,30.5 L65.5,30.5 M52.5,49.5 L39.5,64.5 M52.5,49.5 L65.5,64.5 " fill="none" style="stroke:#7D5393;stroke-width:1.5;"/><rect fill="#7D5393" height="30.1" rx="2.5" ry="2.5" style="stroke:#181818;stroke-width:0.5;" width="120" x="95" y="52"/><text fill="#FFFFFF" font-family="NanumGothic" font-size="14" lengthAdjust="spacing" textLength="106" x="102" y="71.88">Charging Station</text><rect fill="#7D5393" height="30.1" rx="2.5" ry="2.5" style="stroke:#181818;stroke-width:0.5;" width="53" x="922.5" y="52"/><text fill="#FFFFFF" font-family="NanumGothic" font-size="14" lengthAdjust="spacing" textLength="39" x="929.5" y="71.88">CSMS</text><rect fill="#FFFFFF" height="318.45" style="stroke:#181818;stroke-width:1.0;" width="10" x="150" y="245.8"/><rect fill="#FFFFFF" height="28.95" style="stroke:#181818;stroke-width:1.0;" width="10" x="150" y="622.8"/><rect fill="#FFFFFF" height="212.6" style="stroke:#181818;stroke-width:1.0;" width="10" x="944" y="163.95"/><rect fill="#FFFFFF" height="28.95" style="stroke:#181818;stroke-width:1.0;" width="10" x="944" y="535.3"/><rect fill="#FFFFFF" height="28.95" style="stroke:#181818;stroke-width:1.0;" width="10" x="944" y="622.8"/><path d="M25,98.1 L25,122.1 L975,122.1 L975,108.1 L965,98.1 L25,98.1 " fill="#7D5393" style="stroke:#000000;stroke-width:0.5;"/><path d="M965,98.1 L965,108.1 L975,108.1 L965,98.1 " fill="#7D5393" style="stroke:#000000;stroke-width:0.5;"/><text fill="#FFFFFF" font-family="NanumGothic" font-size="13" lengthAdjust="spacing" textLength="92" x="449.75" y="115.06">&#49324;&#50857;&#51088; &#51064;&#51613; &#49457;&#44277;</text><polygon fill="#181818" points="932,159.95,942,163.95,932,167.95,936,163.95" style="stroke:#181818;stroke-width:1.0;"/><line style="stroke:#181818;stroke-width:1.0;" x1="155" x2="938" y1="163.95" y2="163.95"/><text fill="#000000" font-family="NanumGothic" font-size="13" lengthAdjust="spacing" textLength="613" x="162" y="144.01">TransactionEventRequest(eventType = Started, transactionId = AB1234, triggerReason = Authorized,</text><text fill="#000000" font-family="NanumGothic" font-size="13" lengthAdjust="spacing" textLength="282" x="162" y="158.96">seqNo = N, timestamp, idToken.id = 1234, ...)</text><polygon fill="#181818" points="166,188.9,156,192.9,166,196.9,162,192.9" style="stroke:#181818;stroke-width:1.0;"/><line style="stroke:#181818;stroke-width:1.0;stroke-dasharray:2.0,2.0;" x1="160" x2="943" y1="192.9" y2="192.9"/><text fill="#000000" font-family="NanumGothic" font-size="13" lengthAdjust="spacing" textLength="373" x="172" y="187.91">TransactionEventResponse(idTokenInfo.status = Accepted,...)</text><path d="M10,207.9 L70,207.9 L70,214.85 L60,224.85 L10,224.85 L10,207.9 " fill="#EEEEEE" style="stroke:#000000;stroke-width:1.5;"/><rect fill="none" height="451.85" style="stroke:#000000;stroke-width:1.5;" width="975.5" x="10" y="207.9"/><text fill="#000000" font-family="NanumGothic" font-size="13" font-weight="bold" lengthAdjust="spacing" textLength="15" x="25" y="220.86">alt</text><text fill="#000000" font-family="NanumGothic" font-size="11" font-weight="bold" lengthAdjust="spacing" textLength="169" x="85" y="220.02">[ConnectionTimeOut &#51060;&#45236;&#51064; &#44221;&#50864;]</text><polygon fill="#181818" points="138,241.8,148,245.8,138,249.8,142,245.8" style="stroke:#181818;stroke-width:1.0;"/><line style="stroke:#181818;stroke-width:1.0;" x1="52.5" x2="144" y1="245.8" y2="245.8"/><text fill="#000000" font-family="NanumGothic" font-size="13" lengthAdjust="spacing" textLength="64" x="59.5" y="240.81">&#52992;&#51060;&#48660; &#50672;&#44208;</text><polygon fill="#181818" points="932,270.75,942,274.75,932,278.75,936,274.75" style="stroke:#181818;stroke-width:1.0;"/><line style="stroke:#181818;stroke-width:1.0;" x1="160" x2="938" y1="274.75" y2="274.75"/><text fill="#000000" font-family="NanumGothic" font-size="13" lengthAdjust="spacing" textLength="223" x="167" y="269.76">StatusNotificationRequest(Occupied)</text><polygon fill="#181818" points="171,299.7,161,303.7,171,307.7,167,303.7" style="stroke:#181818;stroke-width:1.0;"/><line style="stroke:#181818;stroke-width:1.0;stroke-dasharray:2.0,2.0;" x1="165" x2="943" y1="303.7" y2="303.7"/><text fill="#000000" font-family="NanumGothic" font-size="13" lengthAdjust="spacing" textLength="176" x="177" y="298.71">StatusNotificationResponse()</text><polygon fill="#181818" points="932,343.6,942,347.6,932,351.6,936,347.6" style="stroke:#181818;stroke-width:1.0;"/><line style="stroke:#181818;stroke-width:1.0;" x1="160" x2="938" y1="347.6" y2="347.6"/><text fill="#000000" font-family="NanumGothic" font-size="13" lengthAdjust="spacing" textLength="541" x="167" y="327.66">TransactionEventRequest(eventType = Updated, transactionId = AB1234, seqNo = N + 1,</text><text fill="#000000" font-family="NanumGothic" font-size="13" lengthAdjust="spacing" textLength="486" x="167" y="342.61">timestamp, chargingState = EVConnected, triggerReason = CablePluggedIn, ...)</text><polygon fill="#181818" points="171,372.55,161,376.55,171,380.55,167,376.55" style="stroke:#181818;stroke-width:1.0;"/><line style="stroke:#181818;stroke-width:1.0;stroke-dasharray:2.0,2.0;" x1="165" x2="948" y1="376.55" y2="376.55"/><text fill="#000000" font-family="NanumGothic" font-size="13" lengthAdjust="spacing" textLength="183" x="177" y="371.56">TransactionEventResponse(...)</text><path d="M85,391.55 L145,391.55 L145,398.5 L135,408.5 L85,408.5 L85,391.55 " fill="#EEEEEE" style="stroke:#000000;stroke-width:1.5;"/><rect fill="none" height="58.9" style="stroke:#000000;stroke-width:1.5;" width="270" x="85" y="391.55"/><text fill="#000000" font-family="NanumGothic" font-size="13" font-weight="bold" lengthAdjust="spacing" textLength="15" x="100" y="404.51">alt</text><text fill="#000000" font-family="NanumGothic" font-size="11" font-weight="bold" lengthAdjust="spacing" textLength="190" x="160" y="403.67">[&#52992;&#51060;&#48660;&#51060; &#50689;&#44396;&#51201;&#51004;&#47196; &#44208;&#54633;&#46104;&#51648; &#50506;&#51008; &#44221;&#50864;]</text><line style="stroke:#181818;stroke-width:1.0;" x1="160" x2="202" y1="429.45" y2="429.45"/><line style="stroke:#181818;stroke-width:1.0;" x1="202" x2="202" y1="429.45" y2="442.45"/><line style="stroke:#181818;stroke-width:1.0;" x1="161" x2="202" y1="442.45" y2="442.45"/><polygon fill="#181818" points="171,438.45,161,442.45,171,446.45,167,442.45" style="stroke:#181818;stroke-width:1.0;"/><text fill="#000000" font-family="NanumGothic" font-size="13" lengthAdjust="spacing" textLength="64" x="167" y="424.46">&#52964;&#45349;&#53552; &#51104;&#44552;</text><line style="stroke:#181818;stroke-width:1.0;" x1="160" x2="202" y1="478.4" y2="478.4"/><line style="stroke:#181818;stroke-width:1.0;" x1="202" x2="202" y1="478.4" y2="491.4"/><line style="stroke:#181818;stroke-width:1.0;" x1="161" x2="202" y1="491.4" y2="491.4"/><polygon fill="#181818" points="171,487.4,161,491.4,171,495.4,167,491.4" style="stroke:#181818;stroke-width:1.0;"/><text fill="#000000" font-family="NanumGothic" font-size="13" lengthAdjust="spacing" textLength="92" x="167" y="473.41">&#50640;&#45320;&#51648; &#51228;&#44277; &#49884;&#51089;</text><polygon fill="#181818" points="932,531.3,942,535.3,932,539.3,936,535.3" style="stroke:#181818;stroke-width:1.0;"/><line style="stroke:#181818;stroke-width:1.0;" x1="160" x2="938" y1="535.3" y2="535.3"/><text fill="#000000" font-family="NanumGothic" font-size="13" lengthAdjust="spacing" textLength="541" x="167" y="515.36">TransactionEventRequest(eventType = Updated, transactionId = AB1234, seqNo = N + 1,</text><text fill="#000000" font-family="NanumGothic" font-size="13" lengthAdjust="spacing" textLength="507" x="167" y="530.31">timestamp, chargingState = Charging, triggerReason = ChargingStateChanged, ...)</text><polygon fill="#181818" points="166,560.25,156,564.25,166,568.25,162,564.25" style="stroke:#181818;stroke-width:1.0;"/><line style="stroke:#181818;stroke-width:1.0;stroke-dasharray:2.0,2.0;" x1="160" x2="948" y1="564.25" y2="564.25"/><text fill="#000000" font-family="NanumGothic" font-size="13" lengthAdjust="spacing" textLength="183" x="172" y="559.26">TransactionEventResponse(...)</text><line style="stroke:#000000;stroke-width:1.0;stroke-dasharray:2.0,2.0;" x1="10" x2="985.5" y1="573.25" y2="573.25"/><text fill="#000000" font-family="NanumGothic" font-size="11" font-weight="bold" lengthAdjust="spacing" textLength="203" x="15" y="583.37">[Connection Timeout &#49884;&#44036;&#51060; &#52488;&#44284;&#46108; &#44221;&#50864;]</text><polygon fill="#181818" points="932,618.8,942,622.8,932,626.8,936,622.8" style="stroke:#181818;stroke-width:1.0;"/><line style="stroke:#181818;stroke-width:1.0;" x1="160" x2="938" y1="622.8" y2="622.8"/><text fill="#000000" font-family="NanumGothic" font-size="13" lengthAdjust="spacing" textLength="754" x="167" y="602.86">TransactionEventRequest(eventType = Ended, triggerReason = EVConnectTimeout, transactionId = AB1234, seqNo = N + 1,</text><text fill="#000000" font-family="NanumGothic" font-size="13" lengthAdjust="spacing" textLength="323" x="167" y="617.81">timestamp, meterValues, stoppedReason = Timeout)</text><polygon fill="#181818" points="166,647.75,156,651.75,166,655.75,162,651.75" style="stroke:#181818;stroke-width:1.0;"/><line style="stroke:#181818;stroke-width:1.0;stroke-dasharray:2.0,2.0;" x1="160" x2="948" y1="651.75" y2="651.75"/><text fill="#000000" font-family="NanumGothic" font-size="13" lengthAdjust="spacing" textLength="171" x="172" y="646.76">TransactionEventResponse()</text><path d="M10,673.75 L76,673.75 L76,680.7 L66,690.7 L10,690.7 L10,673.75 " fill="#EEEEEE" style="stroke:#000000;stroke-width:1.5;"/><rect fill="none" height="45.9" style="stroke:#000000;stroke-width:1.5;" width="215" x="10" y="673.75"/><text fill="#000000" font-family="NanumGothic" font-size="13" font-weight="bold" lengthAdjust="spacing" textLength="21" x="25" y="686.71">opt</text><polygon fill="#181818" points="63.5,707.65,53.5,711.65,63.5,715.65,59.5,711.65" style="stroke:#181818;stroke-width:1.0;"/><line style="stroke:#181818;stroke-width:1.0;" x1="57.5" x2="154" y1="711.65" y2="711.65"/><text fill="#000000" font-family="NanumGothic" font-size="13" lengthAdjust="spacing" textLength="24" x="69.5" y="706.66">&#50508;&#47548;</text><!--SRC=[pLLDInj16BxlhtZhoT0OiEr9QA6rENYe5fFcv6MwEyQXcvbrTrQm9vKSf7f8eK6H9AJGMWGFgKO8DFr3k-D_w3kRpOV99lJ3GozBvfttQvxdUTyyODoqVOk29tTjcd7yacqOn9J2XRbi0LwwR8UwSq0yo1Pw1yCXhcGcSmYNCBUyHTmYuqN8IIAPu95htnZRnY9oht8zB_nX65n82WBp3WgaUpS0wk1IdLseHWLKlQFEww3AtuFh6uDo2tIOOOmLWeLdKUmI0EHTmZry29gpEvJBTRhjKq_EKtt8xpeKdkgUNKcjDCYXyug55yzVB3vw_4JRMR58tNLAFCoETbzk2PUzrp6mmJswlIhGl8gUh8JPISb90xFouXtb6QOpzV9aCfcKHfNj47njx-7w2mkwuxkFM4fetNC45fkFCw_mJP71OjBtT4-cIHtzYgY8GMm9ou9p6iNdiQqrNoA0xV2WZJ12SFLJdRKGtJxSaDI2wkxfaCudK2Uju4hx3ziVOnVlflAGYxfS5P9jCZEww_EmPfg-mwYLYkAdOf6K84OZDRCo_AO6tZWMcQc10Sdm41RJEkq67s7R76b0vyiMOlHxEU_gPvcyjUbhsqUZjS9ZNG3CH62g6k9WYuu92wb23GmOn2-eq_tWvb8rzrMj6twkeGXQjzMBi7Aglks1gdvGzRsXC991dL38ZozX-UjjkGMgqGmwXnY8SpcDaedeaqfOFeogDsiuqw2EQghnyRzajDzG0fsZddZWHLqsvcM2bVkXU6pu9lcdjaT7DW3e5I3q2ZYg1Qrof8RsON3T3Ikr8UV_37gMMqc27qn3tCLVarAYahe5OcDXz9N2SQWrg18dJytQKlT3o9-peMT2E38Pu_uEne6e7eVdtUYlxHS0]--></g></svg>