<?xml version="1.0" encoding="us-ascii" standalone="no"?><svg xmlns="http://www.w3.org/2000/svg" xmlns:xlink="http://www.w3.org/1999/xlink" contentStyleType="text/css" height="892px" preserveAspectRatio="none" style="width:922px;height:892px;background:#FFFFFF;" version="1.1" viewBox="0 0 922 892" width="922px" zoomAndPan="magnify"><defs/><g><rect fill="#FFFFFF" height="28.95" style="stroke:#181818;stroke-width:1.0;" width="10" x="176.5" y="163.95"/><rect fill="#FFFFFF" height="28.95" style="stroke:#181818;stroke-width:1.0;" width="10" x="176.5" y="333.65"/><rect fill="#FFFFFF" height="28.95" style="stroke:#181818;stroke-width:1.0;" width="10" x="176.5" y="421.15"/><rect fill="#FFFFFF" height="28.95" style="stroke:#181818;stroke-width:1.0;" width="10" x="176.5" y="515"/><rect fill="#FFFFFF" height="28.95" style="stroke:#181818;stroke-width:1.0;" width="10" x="176.5" y="611.8"/><rect fill="#FFFFFF" height="28.95" style="stroke:#181818;stroke-width:1.0;" width="10" x="176.5" y="699.3"/><rect fill="#FFFFFF" height="28.95" style="stroke:#181818;stroke-width:1.0;" width="10" x="176.5" y="832.05"/><rect fill="#FFFFFF" height="28.95" style="stroke:#181818;stroke-width:1.0;" width="10" x="873.5" y="163.95"/><rect fill="#FFFFFF" height="28.95" style="stroke:#181818;stroke-width:1.0;" width="10" x="873.5" y="333.65"/><rect fill="#FFFFFF" height="28.95" style="stroke:#181818;stroke-width:1.0;" width="10" x="873.5" y="421.15"/><rect fill="#FFFFFF" height="28.95" style="stroke:#181818;stroke-width:1.0;" width="10" x="873.5" y="515"/><rect fill="#FFFFFF" height="28.95" style="stroke:#181818;stroke-width:1.0;" width="10" x="873.5" y="611.8"/><rect fill="#FFFFFF" height="28.95" style="stroke:#181818;stroke-width:1.0;" width="10" x="873.5" y="699.3"/><rect fill="#FFFFFF" height="28.95" style="stroke:#181818;stroke-width:1.0;" width="10" x="873.5" y="832.05"/><rect fill="none" height="58.9" style="stroke:#000000;stroke-width:1.5;" width="355" x="111.5" y="207.9"/><rect fill="none" height="177.3" style="stroke:#000000;stroke-width:1.5;" width="803.5" x="111.5" y="280.8"/><rect fill="none" height="177.3" style="stroke:#000000;stroke-width:1.5;" width="803.5" x="111.5" y="558.95"/><rect fill="none" height="89.8" style="stroke:#000000;stroke-width:1.5;" width="803.5" x="111.5" y="779.2"/><line style="stroke:#181818;stroke-width:0.5;stroke-dasharray:5.0,5.0;" x1="37" x2="37" y1="83.1" y2="886"/><line style="stroke:#181818;stroke-width:0.5;stroke-dasharray:5.0,5.0;" x1="181.5" x2="181.5" y1="83.1" y2="886"/><line style="stroke:#181818;stroke-width:0.5;stroke-dasharray:5.0,5.0;" x1="878" x2="878" y1="83.1" y2="886"/><text fill="#000000" font-family="NanumGothic" font-size="14" lengthAdjust="spacing" textLength="59" x="5" y="79.88">EV Driver</text><ellipse cx="37.5" cy="14.5" fill="#E2E2F0" rx="8" ry="8" style="stroke:#7D5393;stroke-width:1.5;"/><path d="M37.5,22.5 L37.5,49.5 M24.5,30.5 L50.5,30.5 M37.5,49.5 L24.5,64.5 M37.5,49.5 L50.5,64.5 " fill="none" style="stroke:#7D5393;stroke-width:1.5;"/><rect fill="#7D5393" height="30.1" rx="2.5" ry="2.5" style="stroke:#181818;stroke-width:0.5;" width="120" x="121.5" y="52"/><text fill="#FFFFFF" font-family="NanumGothic" font-size="14" lengthAdjust="spacing" textLength="106" x="128.5" y="71.88">Charging Station</text><rect fill="#7D5393" height="30.1" rx="2.5" ry="2.5" style="stroke:#181818;stroke-width:0.5;" width="53" x="852" y="52"/><text fill="#FFFFFF" font-family="NanumGothic" font-size="14" lengthAdjust="spacing" textLength="39" x="859" y="71.88">CSMS</text><rect fill="#FFFFFF" height="28.95" style="stroke:#181818;stroke-width:1.0;" width="10" x="176.5" y="163.95"/><rect fill="#FFFFFF" height="28.95" style="stroke:#181818;stroke-width:1.0;" width="10" x="176.5" y="333.65"/><rect fill="#FFFFFF" height="28.95" style="stroke:#181818;stroke-width:1.0;" width="10" x="176.5" y="421.15"/><rect fill="#FFFFFF" height="28.95" style="stroke:#181818;stroke-width:1.0;" width="10" x="176.5" y="515"/><rect fill="#FFFFFF" height="28.95" style="stroke:#181818;stroke-width:1.0;" width="10" x="176.5" y="611.8"/><rect fill="#FFFFFF" height="28.95" style="stroke:#181818;stroke-width:1.0;" width="10" x="176.5" y="699.3"/><rect fill="#FFFFFF" height="28.95" style="stroke:#181818;stroke-width:1.0;" width="10" x="176.5" y="832.05"/><rect fill="#FFFFFF" height="28.95" style="stroke:#181818;stroke-width:1.0;" width="10" x="873.5" y="163.95"/><rect fill="#FFFFFF" height="28.95" style="stroke:#181818;stroke-width:1.0;" width="10" x="873.5" y="333.65"/><rect fill="#FFFFFF" height="28.95" style="stroke:#181818;stroke-width:1.0;" width="10" x="873.5" y="421.15"/><rect fill="#FFFFFF" height="28.95" style="stroke:#181818;stroke-width:1.0;" width="10" x="873.5" y="515"/><rect fill="#FFFFFF" height="28.95" style="stroke:#181818;stroke-width:1.0;" width="10" x="873.5" y="611.8"/><rect fill="#FFFFFF" height="28.95" style="stroke:#181818;stroke-width:1.0;" width="10" x="873.5" y="699.3"/><rect fill="#FFFFFF" height="28.95" style="stroke:#181818;stroke-width:1.0;" width="10" x="873.5" y="832.05"/><path d="M10,98.1 L10,122.1 L905,122.1 L905,108.1 L895,98.1 L10,98.1 " fill="#7D5393" style="stroke:#000000;stroke-width:0.5;"/><path d="M895,98.1 L895,108.1 L905,108.1 L895,98.1 " fill="#7D5393" style="stroke:#000000;stroke-width:0.5;"/><text fill="#FFFFFF" font-family="NanumGothic" font-size="13" lengthAdjust="spacing" textLength="92" x="407" y="115.06">&#49324;&#50857;&#51088; &#51064;&#51613; &#49457;&#44277;</text><polygon fill="#181818" points="861.5,159.95,871.5,163.95,861.5,167.95,865.5,163.95" style="stroke:#181818;stroke-width:1.0;"/><line style="stroke:#181818;stroke-width:1.0;" x1="186.5" x2="867.5" y1="163.95" y2="163.95"/><text fill="#000000" font-family="NanumGothic" font-size="13" lengthAdjust="spacing" textLength="614" x="193.5" y="144.01">TransactionEventRequest(eventType = Updated, transactionId = AB1234, seqNo = N + 1, timestamp,</text><text fill="#000000" font-family="NanumGothic" font-size="13" lengthAdjust="spacing" textLength="322" x="193.5" y="158.96">triggerReason = StopAuthorized, idToken.id = 1234)</text><polygon fill="#181818" points="192.5,188.9,182.5,192.9,192.5,196.9,188.5,192.9" style="stroke:#181818;stroke-width:1.0;"/><line style="stroke:#181818;stroke-width:1.0;stroke-dasharray:2.0,2.0;" x1="186.5" x2="877.5" y1="192.9" y2="192.9"/><text fill="#000000" font-family="NanumGothic" font-size="13" lengthAdjust="spacing" textLength="284" x="198.5" y="187.91">TransactionEventResponse(idTokenInfo.status)</text><path d="M111.5,207.9 L177.5,207.9 L177.5,214.85 L167.5,224.85 L111.5,224.85 L111.5,207.9 " fill="#EEEEEE" style="stroke:#000000;stroke-width:1.5;"/><rect fill="none" height="58.9" style="stroke:#000000;stroke-width:1.5;" width="355" x="111.5" y="207.9"/><text fill="#000000" font-family="NanumGothic" font-size="13" font-weight="bold" lengthAdjust="spacing" textLength="21" x="126.5" y="220.86">opt</text><text fill="#000000" font-family="NanumGothic" font-size="11" font-weight="bold" lengthAdjust="spacing" textLength="269" x="192.5" y="220.02">[&#52992;&#51060;&#48660;&#51060; &#50689;&#44396;&#51201;&#51004;&#47196; &#50672;&#44208;&#46104;&#51648; &#50506;&#51020; &amp; (&#46041;&#51068; ID &#46608;&#45716; &#51064;&#51613;)]</text><line style="stroke:#181818;stroke-width:1.0;" x1="181.5" x2="223.5" y1="245.8" y2="245.8"/><line style="stroke:#181818;stroke-width:1.0;" x1="223.5" x2="223.5" y1="245.8" y2="258.8"/><line style="stroke:#181818;stroke-width:1.0;" x1="182.5" x2="223.5" y1="258.8" y2="258.8"/><polygon fill="#181818" points="192.5,254.8,182.5,258.8,192.5,262.8,188.5,258.8" style="stroke:#181818;stroke-width:1.0;"/><text fill="#000000" font-family="NanumGothic" font-size="13" lengthAdjust="spacing" textLength="92" x="188.5" y="240.81">&#52964;&#45349;&#53552; &#51104;&#44552; &#54644;&#51228;</text><path d="M111.5,280.8 L171.5,280.8 L171.5,287.75 L161.5,297.75 L111.5,297.75 L111.5,280.8 " fill="#EEEEEE" style="stroke:#000000;stroke-width:1.5;"/><rect fill="none" height="177.3" style="stroke:#000000;stroke-width:1.5;" width="803.5" x="111.5" y="280.8"/><text fill="#000000" font-family="NanumGothic" font-size="13" font-weight="bold" lengthAdjust="spacing" textLength="15" x="126.5" y="293.76">alt</text><text fill="#000000" font-family="NanumGothic" font-size="11" font-weight="bold" lengthAdjust="spacing" textLength="361" x="186.5" y="292.92">[TxStopPoint = Authorized &#46608;&#45716; PowerPathClosed &#46608;&#45716; EnergyTransfer]</text><polygon fill="#181818" points="861.5,329.65,871.5,333.65,861.5,337.65,865.5,333.65" style="stroke:#181818;stroke-width:1.0;"/><line style="stroke:#181818;stroke-width:1.0;" x1="186.5" x2="867.5" y1="333.65" y2="333.65"/><text fill="#000000" font-family="NanumGothic" font-size="13" lengthAdjust="spacing" textLength="600" x="193.5" y="313.71">TransactionEventRequest(eventType = Ended, transactionId = AB1234, seqNo = N + 2, timestamp,</text><text fill="#000000" font-family="NanumGothic" font-size="13" lengthAdjust="spacing" textLength="673" x="193.5" y="328.66">triggerReason = ChargingStateChanged, chargingState = EVConnected, stoppedReason = Local, meterValues)</text><polygon fill="#181818" points="192.5,358.6,182.5,362.6,192.5,366.6,188.5,362.6" style="stroke:#181818;stroke-width:1.0;"/><line style="stroke:#181818;stroke-width:1.0;stroke-dasharray:2.0,2.0;" x1="186.5" x2="877.5" y1="362.6" y2="362.6"/><text fill="#000000" font-family="NanumGothic" font-size="13" lengthAdjust="spacing" textLength="171" x="198.5" y="357.61">TransactionEventResponse()</text><line style="stroke:#000000;stroke-width:1.0;stroke-dasharray:2.0,2.0;" x1="111.5" x2="915" y1="371.6" y2="371.6"/><text fill="#000000" font-family="NanumGothic" font-size="11" font-weight="bold" lengthAdjust="spacing" textLength="368" x="116.5" y="381.72">[TxStopPoint = EVConnected &#46608;&#45716; TxStopPoint = ParkingBayOccupancy]</text><polygon fill="#181818" points="861.5,417.15,871.5,421.15,861.5,425.15,865.5,421.15" style="stroke:#181818;stroke-width:1.0;"/><line style="stroke:#181818;stroke-width:1.0;" x1="186.5" x2="867.5" y1="421.15" y2="421.15"/><text fill="#000000" font-family="NanumGothic" font-size="13" lengthAdjust="spacing" textLength="614" x="193.5" y="401.21">TransactionEventRequest(eventType = Updated, transactionId = AB1234, seqNo = N + 2, timestamp,</text><text fill="#000000" font-family="NanumGothic" font-size="13" lengthAdjust="spacing" textLength="524" x="193.5" y="416.16">triggerReason = ChargingStateChanged, chargingState = EVConnected, meterValues)</text><polygon fill="#181818" points="192.5,446.1,182.5,450.1,192.5,454.1,188.5,450.1" style="stroke:#181818;stroke-width:1.0;"/><line style="stroke:#181818;stroke-width:1.0;stroke-dasharray:2.0,2.0;" x1="186.5" x2="877.5" y1="450.1" y2="450.1"/><text fill="#000000" font-family="NanumGothic" font-size="13" lengthAdjust="spacing" textLength="171" x="198.5" y="445.11">TransactionEventResponse()</text><polygon fill="#181818" points="169.5,482.05,179.5,486.05,169.5,490.05,173.5,486.05" style="stroke:#181818;stroke-width:1.0;"/><line style="stroke:#181818;stroke-width:1.0;" x1="37.5" x2="175.5" y1="486.05" y2="486.05"/><text fill="#000000" font-family="NanumGothic" font-size="13" lengthAdjust="spacing" textLength="92" x="44.5" y="481.06">&#52992;&#51060;&#48660; &#50672;&#44208; &#54644;&#51228;</text><polygon fill="#181818" points="861.5,511,871.5,515,861.5,519,865.5,515" style="stroke:#181818;stroke-width:1.0;"/><line style="stroke:#181818;stroke-width:1.0;" x1="186.5" x2="867.5" y1="515" y2="515"/><text fill="#000000" font-family="NanumGothic" font-size="13" lengthAdjust="spacing" textLength="220" x="193.5" y="510.01">StatusNotificationRequest(Available)</text><polygon fill="#181818" points="192.5,539.95,182.5,543.95,192.5,547.95,188.5,543.95" style="stroke:#181818;stroke-width:1.0;"/><line style="stroke:#181818;stroke-width:1.0;stroke-dasharray:2.0,2.0;" x1="186.5" x2="877.5" y1="543.95" y2="543.95"/><text fill="#000000" font-family="NanumGothic" font-size="13" lengthAdjust="spacing" textLength="176" x="198.5" y="538.96">StatusNotificationResponse()</text><path d="M111.5,558.95 L171.5,558.95 L171.5,565.9 L161.5,575.9 L111.5,575.9 L111.5,558.95 " fill="#EEEEEE" style="stroke:#000000;stroke-width:1.5;"/><rect fill="none" height="177.3" style="stroke:#000000;stroke-width:1.5;" width="803.5" x="111.5" y="558.95"/><text fill="#000000" font-family="NanumGothic" font-size="13" font-weight="bold" lengthAdjust="spacing" textLength="15" x="126.5" y="571.91">alt</text><text fill="#000000" font-family="NanumGothic" font-size="11" font-weight="bold" lengthAdjust="spacing" textLength="153" x="186.5" y="571.07">[TxStopPoint = EVConnected]</text><polygon fill="#181818" points="861.5,607.8,871.5,611.8,861.5,615.8,865.5,611.8" style="stroke:#181818;stroke-width:1.0;"/><line style="stroke:#181818;stroke-width:1.0;" x1="186.5" x2="867.5" y1="611.8" y2="611.8"/><text fill="#000000" font-family="NanumGothic" font-size="13" lengthAdjust="spacing" textLength="600" x="193.5" y="591.86">TransactionEventRequest(eventType = Ended, transactionId = AB1234, seqNo = N + 3, timestamp,</text><text fill="#000000" font-family="NanumGothic" font-size="13" lengthAdjust="spacing" textLength="394" x="193.5" y="606.81">triggerReason = EVCommunicationLost, stoppedReason = Local)</text><polygon fill="#181818" points="192.5,636.75,182.5,640.75,192.5,644.75,188.5,640.75" style="stroke:#181818;stroke-width:1.0;"/><line style="stroke:#181818;stroke-width:1.0;stroke-dasharray:2.0,2.0;" x1="186.5" x2="877.5" y1="640.75" y2="640.75"/><text fill="#000000" font-family="NanumGothic" font-size="13" lengthAdjust="spacing" textLength="171" x="198.5" y="635.76">TransactionEventResponse()</text><line style="stroke:#000000;stroke-width:1.0;stroke-dasharray:2.0,2.0;" x1="111.5" x2="915" y1="649.75" y2="649.75"/><text fill="#000000" font-family="NanumGothic" font-size="11" font-weight="bold" lengthAdjust="spacing" textLength="197" x="116.5" y="659.87">[TxStopPoint = ParkingBayOccupancy]</text><polygon fill="#181818" points="861.5,695.3,871.5,699.3,861.5,703.3,865.5,699.3" style="stroke:#181818;stroke-width:1.0;"/><line style="stroke:#181818;stroke-width:1.0;" x1="186.5" x2="867.5" y1="699.3" y2="699.3"/><text fill="#000000" font-family="NanumGothic" font-size="13" lengthAdjust="spacing" textLength="614" x="193.5" y="679.36">TransactionEventRequest(eventType = Updated, transactionId = AB1234, seqNo = N + 3, timestamp,</text><text fill="#000000" font-family="NanumGothic" font-size="13" lengthAdjust="spacing" textLength="245" x="193.5" y="694.31">triggerReason = EVCommunicationLost)</text><polygon fill="#181818" points="192.5,724.25,182.5,728.25,192.5,732.25,188.5,728.25" style="stroke:#181818;stroke-width:1.0;"/><line style="stroke:#181818;stroke-width:1.0;stroke-dasharray:2.0,2.0;" x1="186.5" x2="877.5" y1="728.25" y2="728.25"/><text fill="#000000" font-family="NanumGothic" font-size="13" lengthAdjust="spacing" textLength="171" x="198.5" y="723.26">TransactionEventResponse()</text><polygon fill="#181818" points="169.5,760.2,179.5,764.2,169.5,768.2,173.5,764.2" style="stroke:#181818;stroke-width:1.0;"/><line style="stroke:#181818;stroke-width:1.0;" x1="37.5" x2="175.5" y1="764.2" y2="764.2"/><text fill="#000000" font-family="NanumGothic" font-size="13" lengthAdjust="spacing" textLength="120" x="44.5" y="759.21">&#51452;&#52264; &#51088;&#47532; &#48150;&#51004;&#47196; &#50868;&#51204;</text><path d="M111.5,779.2 L171.5,779.2 L171.5,786.15 L161.5,796.15 L111.5,796.15 L111.5,779.2 " fill="#EEEEEE" style="stroke:#000000;stroke-width:1.5;"/><rect fill="none" height="89.8" style="stroke:#000000;stroke-width:1.5;" width="803.5" x="111.5" y="779.2"/><text fill="#000000" font-family="NanumGothic" font-size="13" font-weight="bold" lengthAdjust="spacing" textLength="15" x="126.5" y="792.16">alt</text><text fill="#000000" font-family="NanumGothic" font-size="11" font-weight="bold" lengthAdjust="spacing" textLength="224" x="186.5" y="791.32">[TxStopPoint = ParkingBayOccupancyoend]</text><polygon fill="#181818" points="861.5,828.05,871.5,832.05,861.5,836.05,865.5,832.05" style="stroke:#181818;stroke-width:1.0;"/><line style="stroke:#181818;stroke-width:1.0;" x1="186.5" x2="867.5" y1="832.05" y2="832.05"/><text fill="#000000" font-family="NanumGothic" font-size="13" lengthAdjust="spacing" textLength="600" x="193.5" y="812.11">TransactionEventRequest(eventType = Ended, transactionId = AB1234, seqNo = N + 3, timestamp,</text><text fill="#000000" font-family="NanumGothic" font-size="13" lengthAdjust="spacing" textLength="328" x="193.5" y="827.06">triggerReason = EVDeparted, stoppedReason = Local)</text><polygon fill="#181818" points="192.5,857,182.5,861,192.5,865,188.5,861" style="stroke:#181818;stroke-width:1.0;"/><line style="stroke:#181818;stroke-width:1.0;stroke-dasharray:2.0,2.0;" x1="186.5" x2="877.5" y1="861" y2="861"/><text fill="#000000" font-family="NanumGothic" font-size="13" lengthAdjust="spacing" textLength="171" x="198.5" y="856.01">TransactionEventResponse()</text><!--SRC=[rLRFJnD15BxlN_7aO6Wi980d4apuqGC9OaDhJrx6tKUPi9rPTgVLUWBJWo4czW1Q2IKO5JNXK1KI4liNTOV_mPbjjxHbowyWu6NJcJVplfdlU- -RtgFCjFCMWYUADWux-Pnj6CGKt8M1H0PcN5f0Tm281ubCSs0un1NKf0vX0WQcbuYRfImBAK44vInO6awsvdfsf1wdcglK3yDWN21mbRSD46z60EJhVRdrG-wKGLQFv5uLPEbdu_UXWSm2lSqmUe1Ww56mTnm0qYvXdhg8cauKa8a5NCcZ9mPH3z951s42dZeM4MZ5GPmidhLKO79gP7JiOHmyN9ddQZmF3s14BQCvbOBad3Z0CoPScisYku34Kz0JYW7kJER54dVfAvsKMcc-Z6oOwemwNqmJImiAyXH39u605Fs58NsRxdNZ4TVo7Cuy76oXpR95FgpEAF9UpB2mBs1dA83aZW1PNvNL0_zeGtr1LjOQX_joTqrkr_rFso0_r1g_Qdwv8h-jWjnSbzMtS1y6_NSVPRKEipFWLyh- -aPBgvZIBqgTtll8Fr_yqjVZKWtapcxZw0qSRnx8tMsjiQf3Mq3wfUOroQcg7ILCczyGBibVe9iaOcdQvjx9T8AXcoq6R2sgceq-JAjKBbOi2MPTj5H6kqibgbWwZuDgmB8wkTavgp4pqvmnD8CYzHGF3bhj57FS97OSSYZGpH1R7LYJtbVnpb2WEC0Loan3d55MtK4DWxQ7FI9st2gKgtj1ahZBAkaKAJunpRoo3RDu7GfUgjt_ZOQtArRJLi-GB-Ywq8UZ-pMqY9OVXFtQtufJWHdDSq4NgHd4Gcqc2uJQvBcDrs6CKJ1j6YvZXATDfqF16pQIiVEBK1ykbykprgNdk2VwMCL_uWvteVclndli58jd47vJ19_VqP_hilPTFRzbVsyV_DhxyBtVKerTYkg728Munhc3lJ63-hzdtzVp5XIxa0V_1G00]--></g></svg>