<?xml version="1.0" encoding="us-ascii" standalone="no"?><svg xmlns="http://www.w3.org/2000/svg" xmlns:xlink="http://www.w3.org/1999/xlink" contentStyleType="text/css" height="604px" preserveAspectRatio="none" style="width:359px;height:604px;background:#FFFFFF;" version="1.1" viewBox="0 0 359 604" width="359px" zoomAndPan="magnify"><defs/><g><rect fill="none" height="58.9" style="stroke:#000000;stroke-width:1.5;" width="241" x="95" y="164"/><rect fill="none" height="58.9" style="stroke:#000000;stroke-width:1.5;" width="258" x="95" y="236.9"/><rect fill="none" height="235.3" style="stroke:#000000;stroke-width:1.5;" width="300" x="10" y="344.75"/><rect fill="none" height="45.9" style="stroke:#000000;stroke-width:1.5;" width="215" x="20" y="410.65"/><rect fill="none" height="45.9" style="stroke:#000000;stroke-width:1.5;" width="215" x="20" y="527.15"/><line style="stroke:#181818;stroke-width:0.5;stroke-dasharray:5.0,5.0;" x1="62" x2="62" y1="83.1" y2="597.05"/><line style="stroke:#181818;stroke-width:0.5;stroke-dasharray:5.0,5.0;" x1="165" x2="165" y1="83.1" y2="597.05"/><text fill="#000000" font-family="NanumGothic" font-size="14" lengthAdjust="spacing" textLength="59" x="30" y="79.88">EV Driver</text><ellipse cx="62.5" cy="14.5" fill="#E2E2F0" rx="8" ry="8" style="stroke:#7D5393;stroke-width:1.5;"/><path d="M62.5,22.5 L62.5,49.5 M49.5,30.5 L75.5,30.5 M62.5,49.5 L49.5,64.5 M62.5,49.5 L75.5,64.5 " fill="none" style="stroke:#7D5393;stroke-width:1.5;"/><rect fill="#7D5393" height="30.1" rx="2.5" ry="2.5" style="stroke:#181818;stroke-width:0.5;" width="120" x="105" y="52"/><text fill="#FFFFFF" font-family="NanumGothic" font-size="14" lengthAdjust="spacing" textLength="106" x="112" y="71.88">Charging Station</text><path d="M18,98.1 L18,122.1 L208,122.1 L208,108.1 L198,98.1 L18,98.1 " fill="#7D5393" style="stroke:#000000;stroke-width:0.5;"/><path d="M198,98.1 L198,108.1 L208,108.1 L198,98.1 " fill="#7D5393" style="stroke:#000000;stroke-width:0.5;"/><text fill="#FFFFFF" font-family="NanumGothic" font-size="13" lengthAdjust="spacing" textLength="137" x="40" y="115.06">&#52649;&#51204;&#49548;&#44032; Offline &#49345;&#53468;&#51076;.</text><polygon fill="#181818" points="153,145,163,149,153,153,157,149" style="stroke:#181818;stroke-width:1.0;"/><line style="stroke:#181818;stroke-width:1.0;" x1="62.5" x2="159" y1="149" y2="149"/><text fill="#000000" font-family="NanumGothic" font-size="13" lengthAdjust="spacing" textLength="76" x="69.5" y="144.01">IdToken &#51228;&#49884;</text><path d="M95,164 L161,164 L161,170.95 L151,180.95 L95,180.95 L95,164 " fill="#EEEEEE" style="stroke:#000000;stroke-width:1.5;"/><rect fill="none" height="58.9" style="stroke:#000000;stroke-width:1.5;" width="241" x="95" y="164"/><text fill="#000000" font-family="NanumGothic" font-size="13" font-weight="bold" lengthAdjust="spacing" textLength="21" x="110" y="176.96">opt</text><text fill="#000000" font-family="NanumGothic" font-size="11" font-weight="bold" lengthAdjust="spacing" textLength="71" x="176" y="176.12">[&#54876;&#49457;&#54868;&#46108; &#44221;&#50864;]</text><line style="stroke:#181818;stroke-width:1.0;" x1="165" x2="207" y1="201.9" y2="201.9"/><line style="stroke:#181818;stroke-width:1.0;" x1="207" x2="207" y1="201.9" y2="214.9"/><line style="stroke:#181818;stroke-width:1.0;" x1="166" x2="207" y1="214.9" y2="214.9"/><polygon fill="#181818" points="176,210.9,166,214.9,176,218.9,172,214.9" style="stroke:#181818;stroke-width:1.0;"/><text fill="#000000" font-family="NanumGothic" font-size="13" lengthAdjust="spacing" textLength="152" x="172" y="196.91">Authorization Cache &#54869;&#51064;</text><path d="M95,236.9 L161,236.9 L161,243.85 L151,253.85 L95,253.85 L95,236.9 " fill="#EEEEEE" style="stroke:#000000;stroke-width:1.5;"/><rect fill="none" height="58.9" style="stroke:#000000;stroke-width:1.5;" width="258" x="95" y="236.9"/><text fill="#000000" font-family="NanumGothic" font-size="13" font-weight="bold" lengthAdjust="spacing" textLength="21" x="110" y="249.86">opt</text><text fill="#000000" font-family="NanumGothic" font-size="11" font-weight="bold" lengthAdjust="spacing" textLength="105" x="176" y="249.02">[&#54876;&#49457;&#54868; &amp; &#44396;&#54788;&#46108; &#44221;&#50864;]</text><line style="stroke:#181818;stroke-width:1.0;" x1="165" x2="207" y1="274.8" y2="274.8"/><line style="stroke:#181818;stroke-width:1.0;" x1="207" x2="207" y1="274.8" y2="287.8"/><line style="stroke:#181818;stroke-width:1.0;" x1="166" x2="207" y1="287.8" y2="287.8"/><polygon fill="#181818" points="176,283.8,166,287.8,176,291.8,172,287.8" style="stroke:#181818;stroke-width:1.0;"/><text fill="#000000" font-family="NanumGothic" font-size="13" lengthAdjust="spacing" textLength="169" x="172" y="269.81">Local Authorization List &#54869;&#51064;</text><path d="M100,307.8 L100,331.8 L229,331.8 L229,317.8 L219,307.8 L100,307.8 " fill="#7D5393" style="stroke:#000000;stroke-width:0.5;"/><path d="M219,307.8 L219,317.8 L229,317.8 L219,307.8 " fill="#7D5393" style="stroke:#000000;stroke-width:0.5;"/><text fill="#FFFFFF" font-family="NanumGothic" font-size="13" lengthAdjust="spacing" textLength="108" x="106" y="324.76">&#50508; &#49688; &#50630;&#45716; IdToken</text><path d="M10,344.75 L70,344.75 L70,351.7 L60,361.7 L10,361.7 L10,344.75 " fill="#EEEEEE" style="stroke:#000000;stroke-width:1.5;"/><rect fill="none" height="235.3" style="stroke:#000000;stroke-width:1.5;" width="300" x="10" y="344.75"/><text fill="#000000" font-family="NanumGothic" font-size="13" font-weight="bold" lengthAdjust="spacing" textLength="15" x="25" y="357.71">alt</text><text fill="#000000" font-family="NanumGothic" font-size="11" font-weight="bold" lengthAdjust="spacing" textLength="220" x="85" y="356.87">[OfflineTxForUnknownIdEnabled() = True]</text><line style="stroke:#181818;stroke-width:1.0;" x1="165" x2="207" y1="382.65" y2="382.65"/><line style="stroke:#181818;stroke-width:1.0;" x1="207" x2="207" y1="382.65" y2="395.65"/><line style="stroke:#181818;stroke-width:1.0;" x1="166" x2="207" y1="395.65" y2="395.65"/><polygon fill="#181818" points="176,391.65,166,395.65,176,399.65,172,395.65" style="stroke:#181818;stroke-width:1.0;"/><text fill="#000000" font-family="NanumGothic" font-size="13" lengthAdjust="spacing" textLength="82" x="172" y="377.66">identifier &#54728;&#50857;</text><path d="M20,410.65 L86,410.65 L86,417.6 L76,427.6 L20,427.6 L20,410.65 " fill="#EEEEEE" style="stroke:#000000;stroke-width:1.5;"/><rect fill="none" height="45.9" style="stroke:#000000;stroke-width:1.5;" width="215" x="20" y="410.65"/><text fill="#000000" font-family="NanumGothic" font-size="13" font-weight="bold" lengthAdjust="spacing" textLength="21" x="35" y="423.61">opt</text><polygon fill="#181818" points="73.5,444.55,63.5,448.55,73.5,452.55,69.5,448.55" style="stroke:#181818;stroke-width:1.0;"/><line style="stroke:#181818;stroke-width:1.0;" x1="67.5" x2="164" y1="448.55" y2="448.55"/><text fill="#000000" font-family="NanumGothic" font-size="13" lengthAdjust="spacing" textLength="24" x="79.5" y="443.56">&#50508;&#47548;</text><line style="stroke:#000000;stroke-width:1.0;stroke-dasharray:2.0,2.0;" x1="10" x2="310" y1="464.55" y2="464.55"/><text fill="#000000" font-family="NanumGothic" font-size="11" font-weight="bold" lengthAdjust="spacing" textLength="223" x="15" y="474.67">[OfflineTxForUnknownIdEnabled() = False]</text><line style="stroke:#181818;stroke-width:1.0;" x1="165" x2="207" y1="499.15" y2="499.15"/><line style="stroke:#181818;stroke-width:1.0;" x1="207" x2="207" y1="499.15" y2="512.15"/><line style="stroke:#181818;stroke-width:1.0;" x1="166" x2="207" y1="512.15" y2="512.15"/><polygon fill="#181818" points="176,508.15,166,512.15,176,516.15,172,512.15" style="stroke:#181818;stroke-width:1.0;"/><text fill="#000000" font-family="NanumGothic" font-size="13" lengthAdjust="spacing" textLength="82" x="172" y="494.16">identifier &#44144;&#51208;</text><path d="M20,527.15 L86,527.15 L86,534.1 L76,544.1 L20,544.1 L20,527.15 " fill="#EEEEEE" style="stroke:#000000;stroke-width:1.5;"/><rect fill="none" height="45.9" style="stroke:#000000;stroke-width:1.5;" width="215" x="20" y="527.15"/><text fill="#000000" font-family="NanumGothic" font-size="13" font-weight="bold" lengthAdjust="spacing" textLength="21" x="35" y="540.11">opt</text><polygon fill="#181818" points="73.5,561.05,63.5,565.05,73.5,569.05,69.5,565.05" style="stroke:#181818;stroke-width:1.0;"/><line style="stroke:#181818;stroke-width:1.0;" x1="67.5" x2="164" y1="565.05" y2="565.05"/><text fill="#000000" font-family="NanumGothic" font-size="13" lengthAdjust="spacing" textLength="24" x="79.5" y="560.06">&#50508;&#47548;</text><!--SRC=[dL5DIm916BxFhtZp40Nb3n0AmXG4eKFcVTeTTN2QaTtPlaw5YqXvwA3umHQU0g631aM7-aFhx7zeDjkiJUZZC0FpydozponHRZ37963B4qQIDUU08OGDAIn8P8gmRT53OYK0sv0fpXweXYr93Lh3N48YNS5McV8ox4eigU1lq6ZuFaE82qb0QFA7ojet481w7AcXgnejVtm6EwKIevo0gfy7TK_Tk4b4k0cX4aAH2gnlndLIa3CBeaeugA6dBZs4H4r2qFUKEmdwxUcL1_xzYngCGJl6k0lbjXnP4HOzdI7IsAWGBTTHrqzXe9WyB8F_S1VqtBdFBstomi0iPfQdjlpYDUznGNkT5gXc3rItCRreHoryAWqp6RLQECuAQuzNkJZYEJF3yJuZviegR431SiWl4rEJS4bBLAS9kaqr66cUBaFV2_dHdwN2fDFRPuqBToBC9Z_7oc8D-tikVp9Mm-R_Skdp2W00]--></g></svg>