<?xml version="1.0" encoding="us-ascii" standalone="no"?><svg xmlns="http://www.w3.org/2000/svg" xmlns:xlink="http://www.w3.org/1999/xlink" contentStyleType="text/css" height="570px" preserveAspectRatio="none" style="width:699px;height:570px;background:#FFFFFF;" version="1.1" viewBox="0 0 699 570" width="699px" zoomAndPan="magnify"><defs/><g><rect fill="#FFFFFF" height="178.7001" style="stroke:#181818;stroke-width:1.0;" width="10" x="42.5" y="149"/><rect fill="#FFFFFF" height="397.3502" style="stroke:#181818;stroke-width:1.0;" width="10" x="218.5" y="149"/><rect fill="#FFFFFF" height="28.95" style="stroke:#181818;stroke-width:1.0;" width="10" x="641.5" y="177.95"/><rect fill="#FFFFFF" height="28.95" style="stroke:#181818;stroke-width:1.0;" width="10" x="641.5" y="502.4001"/><rect fill="none" height="324.4501" style="stroke:#000000;stroke-width:1.5;" width="683" x="10" y="221.9"/><rect fill="none" height="74.85" style="stroke:#000000;stroke-width:1.5;" width="273.5" x="20" y="245.85"/><rect fill="none" height="204.6501" style="stroke:#000000;stroke-width:1.5;" width="539.5" x="143.5" y="334.7"/><rect fill="none" height="58.9" style="stroke:#000000;stroke-width:1.5;" width="313" x="153.5" y="400.6001"/><line style="stroke:#181818;stroke-width:0.5;stroke-dasharray:5.0,5.0;" x1="47" x2="47" y1="83.0999" y2="563.3501"/><line style="stroke:#181818;stroke-width:0.5;stroke-dasharray:5.0,5.0;" x1="223.5" x2="223.5" y1="83.0999" y2="563.3501"/><line style="stroke:#181818;stroke-width:0.5;stroke-dasharray:5.0,5.0;" x1="646" x2="646" y1="83.0999" y2="563.3501"/><text fill="#000000" font-family="NanumGothic" font-size="14" lengthAdjust="spacing" textLength="29" x="30" y="79.8799">User</text><ellipse cx="47.5" cy="14.5" fill="#E2E2F0" rx="8" ry="8" style="stroke:#7D5393;stroke-width:1.5;"/><path d="M47.5,22.5 L47.5,49.5 M34.5,30.5 L60.5,30.5 M47.5,49.5 L34.5,64.5 M47.5,49.5 L60.5,64.5 " fill="none" style="stroke:#7D5393;stroke-width:1.5;"/><rect fill="#7D5393" height="30.0999" rx="2.5" ry="2.5" style="stroke:#181818;stroke-width:0.5;" width="120" x="163.5" y="52"/><text fill="#FFFFFF" font-family="NanumGothic" font-size="14" lengthAdjust="spacing" textLength="106" x="170.5" y="71.8799">Charging Station</text><rect fill="#7D5393" height="30.0999" rx="2.5" ry="2.5" style="stroke:#181818;stroke-width:0.5;" width="53" x="620" y="52"/><text fill="#FFFFFF" font-family="NanumGothic" font-size="14" lengthAdjust="spacing" textLength="39" x="627" y="71.8799">CSMS</text><rect fill="#FFFFFF" height="178.7001" style="stroke:#181818;stroke-width:1.0;" width="10" x="42.5" y="149"/><rect fill="#FFFFFF" height="397.3502" style="stroke:#181818;stroke-width:1.0;" width="10" x="218.5" y="149"/><rect fill="#FFFFFF" height="28.95" style="stroke:#181818;stroke-width:1.0;" width="10" x="641.5" y="177.95"/><rect fill="#FFFFFF" height="28.95" style="stroke:#181818;stroke-width:1.0;" width="10" x="641.5" y="502.4001"/><path d="M127,98.0999 L127,122.0999 L320,122.0999 L320,108.0999 L310,98.0999 L127,98.0999 " fill="#7D5393" style="stroke:#000000;stroke-width:0.5;"/><path d="M310,98.0999 L310,108.0999 L320,108.0999 L310,98.0999 " fill="#7D5393" style="stroke:#000000;stroke-width:0.5;"/><text fill="#FFFFFF" font-family="NanumGothic" font-size="13" lengthAdjust="spacing" textLength="172" x="133" y="115.0599">&#54620; &#44060; &#51060;&#49345;&#51032; &#53944;&#47004;&#51117;&#49496;&#51060; &#51652;&#54665;&#51473;</text><polygon fill="#181818" points="206.5,145,216.5,149,206.5,153,210.5,149" style="stroke:#181818;stroke-width:1.0;"/><line style="stroke:#181818;stroke-width:1.0;" x1="52.5" x2="212.5" y1="149" y2="149"/><text fill="#000000" font-family="NanumGothic" font-size="13" lengthAdjust="spacing" textLength="76" x="59.5" y="144.01">IdToken &#51228;&#49884;</text><polygon fill="#181818" points="629.5,173.95,639.5,177.95,629.5,181.95,633.5,177.95" style="stroke:#181818;stroke-width:1.0;"/><line style="stroke:#181818;stroke-width:1.0;" x1="228.5" x2="635.5" y1="177.95" y2="177.95"/><text fill="#000000" font-family="NanumGothic" font-size="13" lengthAdjust="spacing" textLength="130" x="235.5" y="172.96">AuthorizeRequest(...)</text><polygon fill="#181818" points="239.5,202.9,229.5,206.9,239.5,210.9,235.5,206.9" style="stroke:#181818;stroke-width:1.0;"/><line style="stroke:#181818;stroke-width:1.0;stroke-dasharray:2.0,2.0;" x1="233.5" x2="645.5" y1="206.9" y2="206.9"/><text fill="#000000" font-family="NanumGothic" font-size="13" lengthAdjust="spacing" textLength="314" x="245.5" y="201.91">AuthorizeResponse(GroupId = MasterPassGroupId)</text><path d="M10,221.9 L70,221.9 L70,228.85 L60,238.85 L10,238.85 L10,221.9 " fill="#EEEEEE" style="stroke:#000000;stroke-width:1.5;"/><rect fill="none" height="324.4501" style="stroke:#000000;stroke-width:1.5;" width="683" x="10" y="221.9"/><text fill="#000000" font-family="NanumGothic" font-size="13" font-weight="bold" lengthAdjust="spacing" textLength="15" x="25" y="234.86">alt</text><text fill="#000000" font-family="NanumGothic" font-size="11" font-weight="bold" lengthAdjust="spacing" textLength="120" x="85" y="234.0199">[idToken&#51060; valid&#54620; &#44221;&#50864;]</text><path d="M20,245.85 L80,245.85 L80,252.8 L70,262.8 L20,262.8 L20,245.85 " fill="#EEEEEE" style="stroke:#000000;stroke-width:1.5;"/><rect fill="none" height="74.85" style="stroke:#000000;stroke-width:1.5;" width="273.5" x="20" y="245.85"/><text fill="#000000" font-family="NanumGothic" font-size="13" font-weight="bold" lengthAdjust="spacing" textLength="15" x="35" y="258.81">alt</text><text fill="#000000" font-family="NanumGothic" font-size="11" font-weight="bold" lengthAdjust="spacing" textLength="172" x="95" y="257.9699">[Master Pass UI&#44032; &#51060;&#50857; &#44032;&#45733;&#54620; &#44221;&#50864;]</text><polygon fill="#181818" points="63.5,279.75,53.5,283.75,63.5,287.75,59.5,283.75" style="stroke:#181818;stroke-width:1.0;"/><line style="stroke:#181818;stroke-width:1.0;stroke-dasharray:2.0,2.0;" x1="57.5" x2="217.5" y1="283.75" y2="283.75"/><text fill="#000000" font-family="NanumGothic" font-size="13" lengthAdjust="spacing" textLength="142" x="69.5" y="278.76">Master Pass UI&#47484; &#48372;&#50668;&#51468;</text><polygon fill="#181818" points="206.5,308.7,216.5,312.7,206.5,316.7,210.5,312.7" style="stroke:#181818;stroke-width:1.0;"/><line style="stroke:#181818;stroke-width:1.0;" x1="52.5" x2="212.5" y1="312.7" y2="312.7"/><text fill="#000000" font-family="NanumGothic" font-size="13" lengthAdjust="spacing" textLength="112" x="59.5" y="307.71">transaction(s) &#49440;&#53469;</text><path d="M143.5,334.7 L215.5,334.7 L215.5,341.65 L205.5,351.65 L143.5,351.65 L143.5,334.7 " fill="#EEEEEE" style="stroke:#000000;stroke-width:1.5;"/><rect fill="none" height="204.6501" style="stroke:#000000;stroke-width:1.5;" width="539.5" x="143.5" y="334.7"/><text fill="#000000" font-family="NanumGothic" font-size="13" font-weight="bold" lengthAdjust="spacing" textLength="27" x="158.5" y="347.66">loop</text><text fill="#000000" font-family="NanumGothic" font-size="11" font-weight="bold" lengthAdjust="spacing" textLength="145" x="230.5" y="346.82">[&#47784;&#46304; (&#49440;&#53469;&#46108;) &#53944;&#47004;&#51117;&#49496;&#50640; &#45824;&#54644;]</text><line style="stroke:#181818;stroke-width:1.0;" x1="228.5" x2="270.5" y1="372.6001" y2="372.6001"/><line style="stroke:#181818;stroke-width:1.0;" x1="270.5" x2="270.5" y1="372.6001" y2="385.6001"/><line style="stroke:#181818;stroke-width:1.0;" x1="229.5" x2="270.5" y1="385.6001" y2="385.6001"/><polygon fill="#181818" points="239.5,381.6001,229.5,385.6001,239.5,389.6001,235.5,385.6001" style="stroke:#181818;stroke-width:1.0;"/><text fill="#000000" font-family="NanumGothic" font-size="13" lengthAdjust="spacing" textLength="92" x="235.5" y="367.6101">&#50640;&#45320;&#51648; &#51228;&#44277; &#51473;&#45800;</text><path d="M153.5,400.6001 L213.5,400.6001 L213.5,407.5501 L203.5,417.5501 L153.5,417.5501 L153.5,400.6001 " fill="#EEEEEE" style="stroke:#000000;stroke-width:1.5;"/><rect fill="none" height="58.9" style="stroke:#000000;stroke-width:1.5;" width="313" x="153.5" y="400.6001"/><text fill="#000000" font-family="NanumGothic" font-size="13" font-weight="bold" lengthAdjust="spacing" textLength="15" x="168.5" y="413.5601">alt</text><text fill="#000000" font-family="NanumGothic" font-size="11" font-weight="bold" lengthAdjust="spacing" textLength="233" x="228.5" y="412.72">[&#52992;&#51060;&#48660;&#51060; &#50689;&#44396;&#51201;&#51004;&#47196;(permanently) &#44208;&#54633; &#46108; &#44221;&#50864;]</text><line style="stroke:#181818;stroke-width:1.0;" x1="228.5" x2="270.5" y1="438.5001" y2="438.5001"/><line style="stroke:#181818;stroke-width:1.0;" x1="270.5" x2="270.5" y1="438.5001" y2="451.5001"/><line style="stroke:#181818;stroke-width:1.0;" x1="229.5" x2="270.5" y1="451.5001" y2="451.5001"/><polygon fill="#181818" points="239.5,447.5001,229.5,451.5001,239.5,455.5001,235.5,451.5001" style="stroke:#181818;stroke-width:1.0;"/><text fill="#000000" font-family="NanumGothic" font-size="13" lengthAdjust="spacing" textLength="92" x="235.5" y="433.5101">&#52964;&#45349;&#53552; &#51104;&#44552; &#54644;&#51228;</text><polygon fill="#181818" points="629.5,498.4001,639.5,502.4001,629.5,506.4001,633.5,502.4001" style="stroke:#181818;stroke-width:1.0;"/><line style="stroke:#181818;stroke-width:1.0;" x1="228.5" x2="635.5" y1="502.4001" y2="502.4001"/><text fill="#000000" font-family="NanumGothic" font-size="13" lengthAdjust="spacing" textLength="277" x="235.5" y="482.4601">TransactionEventRequest(eventType = Ended,</text><text fill="#000000" font-family="NanumGothic" font-size="13" lengthAdjust="spacing" textLength="370" x="259.5" y="497.4101">chargingState = EVConnected, stopReason = MasterPass,...)</text><polygon fill="#181818" points="239.5,527.3501,229.5,531.3501,239.5,535.3501,235.5,531.3501" style="stroke:#181818;stroke-width:1.0;"/><line style="stroke:#181818;stroke-width:1.0;stroke-dasharray:2.0,2.0;" x1="233.5" x2="645.5" y1="531.3501" y2="531.3501"/><text fill="#000000" font-family="NanumGothic" font-size="13" lengthAdjust="spacing" textLength="183" x="245.5" y="526.3601">TransactionEventResponse(...)</text><!--SRC=[ZLFHQXf157tVhxZrII7n0uGMIWZ5Xq29fazz6TmXMRgPsUwCWdrIOY5Dyf3Iff6mYWKbIKb16WD2xGyvi__GExCcrLMX-p3CtBttpBdddddciOfVTIa8MVTfFgWU-ev3AfA7aDaJDCm04M0sJa12wLMyW309cQq34kvxR1zAaaYFCvls69p5KXMbdLAIXHl7OLnIu3KQBbK1n1SHJ8SHwCv87pLrfmtnoLXr8ztzgJ-sCGhwkXL_-wJxdntAN31OZcD8mkQBD5u1YcwPlwCCT2_Ifv5fpgiHlDrszNHAqt1I0GkDr0lmiYeFUEXzeBlqVPKAcStdyxav8DkVMM5p5PsvSX5m9cZsLSYhGT65vx13XAJXQoB4B9PpN9f29hu4Bsd9I54ZlkTQnNxzqLT3bCya941Wa62lE1qsh9XNjwXhGvqC5l81bbf5taQTGWf73IQWxaVwyaxtpnnRkbPr6H8c37NEiY87kjMBZpfOWWF3TQuhEmOC-Pm7e7xSg2yzo2RfwZpABSx-yXpKMIE-6AtclO87bgZMiRvkcFbFxny0NQDERnBsHYezQQ0sQlpL6glTd3xSwLvJHnFrFSe6D3maZ3BfrtEes32-k0LaDI_UVzButLUjGTmQWkxsfkDZDFa82La48ydQVgpbag_yJzBj6d9wz1yrXt8zeEYWRUPIT-CjIoegSu3sxvijpXYjICp15y-3NKe4NZJll0rhPwlEel4imxMsNYOtS_SJNDh9AxoGVeGcuIy0]--></g></svg>