<?xml version="1.0" encoding="us-ascii" standalone="no"?><svg xmlns="http://www.w3.org/2000/svg" xmlns:xlink="http://www.w3.org/1999/xlink" contentStyleType="text/css" height="741px" preserveAspectRatio="none" style="width:875px;height:741px;background:#FFFFFF;" version="1.1" viewBox="0 0 875 741" width="875px" zoomAndPan="magnify"><defs/><g><rect fill="#FFFFFF" height="125.8" style="stroke:#181818;stroke-width:1.0;" width="10" x="72.5" y="102"/><rect fill="#FFFFFF" height="110.8" style="stroke:#181818;stroke-width:1.0;" width="10" x="166.5" y="102"/><rect fill="#FFFFFF" height="28.95" style="stroke:#181818;stroke-width:1.0;" width="10" x="166.5" y="272.7"/><rect fill="#FFFFFF" height="28.95" style="stroke:#181818;stroke-width:1.0;" width="10" x="166.5" y="366.55"/><rect fill="#FFFFFF" height="28.95" style="stroke:#181818;stroke-width:1.0;" width="10" x="166.5" y="489.3"/><rect fill="#FFFFFF" height="28.95" style="stroke:#181818;stroke-width:1.0;" width="10" x="166.5" y="687.3"/><rect fill="#FFFFFF" height="594.3" style="stroke:#181818;stroke-width:1.0;" width="10" x="751.5" y="130.95"/><rect fill="#FFFFFF" height="198" style="stroke:#181818;stroke-width:1.0;" width="10" x="756.5" y="518.25"/><rect fill="none" height="45.9" style="stroke:#000000;stroke-width:1.5;" width="198" x="10" y="174.9"/><rect fill="none" height="74.85" style="stroke:#000000;stroke-width:1.5;" width="691.5" x="135" y="234.8"/><rect fill="none" height="69.2" style="stroke:#000000;stroke-width:1.5;" width="183" x="686.5" y="533.25"/><line style="stroke:#181818;stroke-width:0.5;stroke-dasharray:5.0,5.0;" x1="77" x2="77" y1="36.1" y2="734.25"/><line style="stroke:#181818;stroke-width:0.5;stroke-dasharray:5.0,5.0;" x1="171" x2="171" y1="36.1" y2="734.25"/><line style="stroke:#181818;stroke-width:0.5;stroke-dasharray:5.0,5.0;" x1="756.5" x2="756.5" y1="36.1" y2="734.25"/><rect fill="#7D5393" height="30.1" rx="2.5" ry="2.5" style="stroke:#181818;stroke-width:0.5;" width="115" x="20" y="5"/><text fill="#FFFFFF" font-family="NanumGothic" font-size="14" lengthAdjust="spacing" textLength="101" x="27" y="24.88">External Trigger</text><rect fill="#7D5393" height="30.1" rx="2.5" ry="2.5" style="stroke:#181818;stroke-width:0.5;" width="53" x="145" y="5"/><text fill="#FFFFFF" font-family="NanumGothic" font-size="14" lengthAdjust="spacing" textLength="39" x="152" y="24.88">CSMS</text><rect fill="#7D5393" height="30.1" rx="2.5" ry="2.5" style="stroke:#181818;stroke-width:0.5;" width="120" x="696.5" y="5"/><text fill="#FFFFFF" font-family="NanumGothic" font-size="14" lengthAdjust="spacing" textLength="106" x="703.5" y="24.88">Charging Station</text><rect fill="#FFFFFF" height="125.8" style="stroke:#181818;stroke-width:1.0;" width="10" x="72.5" y="102"/><rect fill="#FFFFFF" height="110.8" style="stroke:#181818;stroke-width:1.0;" width="10" x="166.5" y="102"/><rect fill="#FFFFFF" height="28.95" style="stroke:#181818;stroke-width:1.0;" width="10" x="166.5" y="272.7"/><rect fill="#FFFFFF" height="28.95" style="stroke:#181818;stroke-width:1.0;" width="10" x="166.5" y="366.55"/><rect fill="#FFFFFF" height="28.95" style="stroke:#181818;stroke-width:1.0;" width="10" x="166.5" y="489.3"/><rect fill="#FFFFFF" height="28.95" style="stroke:#181818;stroke-width:1.0;" width="10" x="166.5" y="687.3"/><rect fill="#FFFFFF" height="594.3" style="stroke:#181818;stroke-width:1.0;" width="10" x="751.5" y="130.95"/><rect fill="#FFFFFF" height="198" style="stroke:#181818;stroke-width:1.0;" width="10" x="756.5" y="518.25"/><path d="M556,51.1 L556,75.1 L751,75.1 L751,61.1 L741,51.1 L556,51.1 " fill="#7D5393" style="stroke:#000000;stroke-width:0.5;"/><path d="M741,51.1 L741,61.1 L751,61.1 L741,51.1 " fill="#7D5393" style="stroke:#000000;stroke-width:0.5;"/><text fill="#FFFFFF" font-family="NanumGothic" font-size="13" lengthAdjust="spacing" textLength="174" x="562" y="68.06">TxStartPoint = EVConnected</text><polygon fill="#181818" points="154.5,98,164.5,102,154.5,106,158.5,102" style="stroke:#181818;stroke-width:1.0;"/><line style="stroke:#181818;stroke-width:1.0;" x1="82.5" x2="160.5" y1="102" y2="102"/><text fill="#000000" font-family="NanumGothic" font-size="13" lengthAdjust="spacing" textLength="52" x="89.5" y="97.01">&#50896;&#44201; &#49884;&#51089;</text><polygon fill="#181818" points="739.5,126.95,749.5,130.95,739.5,134.95,743.5,130.95" style="stroke:#181818;stroke-width:1.0;"/><line style="stroke:#181818;stroke-width:1.0;" x1="176.5" x2="745.5" y1="130.95" y2="130.95"/><text fill="#000000" font-family="NanumGothic" font-size="13" lengthAdjust="spacing" textLength="440" x="183.5" y="125.96">RequestStartTransactionRequest(idToken = ABCD, remoteStartId = 123)</text><polygon fill="#181818" points="187.5,155.9,177.5,159.9,187.5,163.9,183.5,159.9" style="stroke:#181818;stroke-width:1.0;"/><line style="stroke:#181818;stroke-width:1.0;stroke-dasharray:2.0,2.0;" x1="181.5" x2="750.5" y1="159.9" y2="159.9"/><text fill="#000000" font-family="NanumGothic" font-size="13" lengthAdjust="spacing" textLength="326" x="193.5" y="154.91">RequestStartTransactionResponse(status = Accepted)</text><path d="M10,174.9 L76,174.9 L76,181.85 L66,191.85 L10,191.85 L10,174.9 " fill="#EEEEEE" style="stroke:#000000;stroke-width:1.5;"/><rect fill="none" height="45.9" style="stroke:#000000;stroke-width:1.5;" width="198" x="10" y="174.9"/><text fill="#000000" font-family="NanumGothic" font-size="13" font-weight="bold" lengthAdjust="spacing" textLength="21" x="25" y="187.86">opt</text><polygon fill="#181818" points="93.5,208.8,83.5,212.8,93.5,216.8,89.5,212.8" style="stroke:#181818;stroke-width:1.0;"/><line style="stroke:#181818;stroke-width:1.0;" x1="87.5" x2="170.5" y1="212.8" y2="212.8"/><text fill="#000000" font-family="NanumGothic" font-size="13" lengthAdjust="spacing" textLength="24" x="99.5" y="207.81">&#50508;&#47548;</text><path d="M135,234.8 L201,234.8 L201,241.75 L191,251.75 L135,251.75 L135,234.8 " fill="#EEEEEE" style="stroke:#000000;stroke-width:1.5;"/><rect fill="none" height="74.85" style="stroke:#000000;stroke-width:1.5;" width="691.5" x="135" y="234.8"/><text fill="#000000" font-family="NanumGothic" font-size="13" font-weight="bold" lengthAdjust="spacing" textLength="21" x="150" y="247.76">opt</text><text fill="#000000" font-family="NanumGothic" font-size="11" font-weight="bold" lengthAdjust="spacing" textLength="157" x="216" y="246.92">[AuthorizeRemoteStart = true]</text><polygon fill="#181818" points="187.5,268.7,177.5,272.7,187.5,276.7,183.5,272.7" style="stroke:#181818;stroke-width:1.0;"/><line style="stroke:#181818;stroke-width:1.0;" x1="181.5" x2="750.5" y1="272.7" y2="272.7"/><text fill="#000000" font-family="NanumGothic" font-size="13" lengthAdjust="spacing" textLength="218" x="193.5" y="267.71">AuthorizeRequest(idToken = ABCD)</text><polygon fill="#181818" points="739.5,297.65,749.5,301.65,739.5,305.65,743.5,301.65" style="stroke:#181818;stroke-width:1.0;"/><line style="stroke:#181818;stroke-width:1.0;stroke-dasharray:2.0,2.0;" x1="171.5" x2="745.5" y1="301.65" y2="301.65"/><text fill="#000000" font-family="NanumGothic" font-size="13" lengthAdjust="spacing" textLength="199" x="178.5" y="296.66">AuthorizeResponse(idTokenInfo)</text><polygon fill="#181818" points="739.5,333.6,749.5,337.6,739.5,341.6,743.5,337.6" style="stroke:#181818;stroke-width:1.0;"/><line style="stroke:#181818;stroke-width:1.0;" x1="77.5" x2="745.5" y1="337.6" y2="337.6"/><text fill="#000000" font-family="NanumGothic" font-size="13" lengthAdjust="spacing" textLength="64" x="84.5" y="332.61">&#52992;&#51060;&#48660; &#50672;&#44208;</text><polygon fill="#181818" points="187.5,362.55,177.5,366.55,187.5,370.55,183.5,366.55" style="stroke:#181818;stroke-width:1.0;"/><line style="stroke:#181818;stroke-width:1.0;" x1="181.5" x2="750.5" y1="366.55" y2="366.55"/><text fill="#000000" font-family="NanumGothic" font-size="13" lengthAdjust="spacing" textLength="223" x="193.5" y="361.56">StatusNotificationRequest(Occupied)</text><polygon fill="#181818" points="739.5,391.5,749.5,395.5,739.5,399.5,743.5,395.5" style="stroke:#181818;stroke-width:1.0;"/><line style="stroke:#181818;stroke-width:1.0;stroke-dasharray:2.0,2.0;" x1="171.5" x2="745.5" y1="395.5" y2="395.5"/><text fill="#000000" font-family="NanumGothic" font-size="13" lengthAdjust="spacing" textLength="176" x="178.5" y="390.51">StatusNotificationResponse()</text><path d="M310,408.5 L310,432.5 L746,432.5 L746,418.5 L736,408.5 L310,408.5 " fill="#7D5393" style="stroke:#000000;stroke-width:0.5;"/><path d="M736,408.5 L736,418.5 L746,418.5 L736,408.5 " fill="#7D5393" style="stroke:#000000;stroke-width:0.5;"/><text fill="#FFFFFF" font-family="NanumGothic" font-size="13" lengthAdjust="spacing" textLength="415" x="316" y="425.46">CablePluggedIn &#45824;&#49888; triggerReason = RemoteStart &#51060;&#50857;! (F02.FR.21)</text><polygon fill="#181818" points="187.5,485.3,177.5,489.3,187.5,493.3,183.5,489.3" style="stroke:#181818;stroke-width:1.0;"/><line style="stroke:#181818;stroke-width:1.0;" x1="181.5" x2="750.5" y1="489.3" y2="489.3"/><text fill="#000000" font-family="NanumGothic" font-size="13" lengthAdjust="spacing" textLength="544" x="193.5" y="454.41">TransactionEventRequest(eventType = Started, transactionId = AB1234, idToken = ABCD,</text><text fill="#000000" font-family="NanumGothic" font-size="13" lengthAdjust="spacing" textLength="480" x="193.5" y="469.36">chargingState = EVConnected, evse.id = 1, evse.connectorId = 1, meterValues,</text><text fill="#000000" font-family="NanumGothic" font-size="13" lengthAdjust="spacing" textLength="336" x="193.5" y="484.31">triggerReason = RemoteStart, remoteStartId = 123, ...)</text><polygon fill="#181818" points="744.5,514.25,754.5,518.25,744.5,522.25,748.5,518.25" style="stroke:#181818;stroke-width:1.0;"/><line style="stroke:#181818;stroke-width:1.0;stroke-dasharray:2.0,2.0;" x1="171.5" x2="750.5" y1="518.25" y2="518.25"/><text fill="#000000" font-family="NanumGothic" font-size="13" lengthAdjust="spacing" textLength="183" x="178.5" y="513.26">TransactionEventResponse(...)</text><path d="M686.5,533.25 L752.5,533.25 L752.5,540.2 L742.5,550.2 L686.5,550.2 L686.5,533.25 " fill="#EEEEEE" style="stroke:#000000;stroke-width:1.5;"/><rect fill="none" height="69.2" style="stroke:#000000;stroke-width:1.5;" width="183" x="686.5" y="533.25"/><text fill="#000000" font-family="NanumGothic" font-size="13" font-weight="bold" lengthAdjust="spacing" textLength="21" x="701.5" y="546.21">opt</text><text fill="#000000" font-family="NanumGothic" font-size="11" font-weight="bold" lengthAdjust="spacing" textLength="97" x="767.5" y="545.37">[&#52992;&#51060;&#48660;&#51060; &#50689;&#44396;&#51201;&#51004;&#47196;</text><text fill="#000000" font-family="NanumGothic" font-size="11" font-weight="bold" lengthAdjust="spacing" textLength="67" x="767.5" y="558.02">&#50672;&#44208;&#46104;&#51648; &#50506;&#51020;]</text><line style="stroke:#181818;stroke-width:1.0;" x1="766.5" x2="808.5" y1="581.45" y2="581.45"/><line style="stroke:#181818;stroke-width:1.0;" x1="808.5" x2="808.5" y1="581.45" y2="594.45"/><line style="stroke:#181818;stroke-width:1.0;" x1="767.5" x2="808.5" y1="594.45" y2="594.45"/><polygon fill="#181818" points="777.5,590.45,767.5,594.45,777.5,598.45,773.5,594.45" style="stroke:#181818;stroke-width:1.0;"/><text fill="#000000" font-family="NanumGothic" font-size="13" lengthAdjust="spacing" textLength="64" x="773.5" y="576.46">&#52964;&#45349;&#53552; &#51104;&#44552;</text><line style="stroke:#181818;stroke-width:1.0;" x1="766.5" x2="808.5" y1="630.4" y2="630.4"/><line style="stroke:#181818;stroke-width:1.0;" x1="808.5" x2="808.5" y1="630.4" y2="643.4"/><line style="stroke:#181818;stroke-width:1.0;" x1="767.5" x2="808.5" y1="643.4" y2="643.4"/><polygon fill="#181818" points="777.5,639.4,767.5,643.4,777.5,647.4,773.5,643.4" style="stroke:#181818;stroke-width:1.0;"/><text fill="#000000" font-family="NanumGothic" font-size="13" lengthAdjust="spacing" textLength="92" x="773.5" y="625.41">&#50640;&#45320;&#51648; &#51228;&#44277; &#49884;&#51089;</text><polygon fill="#181818" points="187.5,683.3,177.5,687.3,187.5,691.3,183.5,687.3" style="stroke:#181818;stroke-width:1.0;"/><line style="stroke:#181818;stroke-width:1.0;" x1="181.5" x2="755.5" y1="687.3" y2="687.3"/><text fill="#000000" font-family="NanumGothic" font-size="13" lengthAdjust="spacing" textLength="456" x="193.5" y="667.36">TransactionEventRequest(eventType = Updated, chargingState = Charging,</text><text fill="#000000" font-family="NanumGothic" font-size="13" lengthAdjust="spacing" textLength="269" x="193.5" y="682.31">triggerReason = ChargingStateChanged, ...)</text><polygon fill="#181818" points="739.5,712.25,749.5,716.25,739.5,720.25,743.5,716.25" style="stroke:#181818;stroke-width:1.0;"/><line style="stroke:#181818;stroke-width:1.0;stroke-dasharray:2.0,2.0;" x1="171.5" x2="745.5" y1="716.25" y2="716.25"/><text fill="#000000" font-family="NanumGothic" font-size="13" lengthAdjust="spacing" textLength="183" x="178.5" y="711.26">TransactionEventResponse(...)</text><!--SRC=[jLHDIzn06BxFhtZrvC8Qgksfq89k5VRGLdQtdhnCatVNeN4cJIQYFIbuaEh1GelIhhA5VY3q8BQ2K7_HPleVEfbDrkoOxGUbbv2yC-_7ypplamd6NJ_s42AvwQCJn6i-8G4D9NDPGBc4oOKDYI6dFhH2rkbWE0aqWZoOnKOpQis7JNChVR6ELcdOORm3JKab4tnmBGjcCKAua0W-jYM8zerJWDQ6VW_bac2wv3rOMAu9pj6Lw17a7gJPX5WJmlHzCyvTKEyE-kUdeFQwwkGLeQvawrItin4D3mm8aZvDZT5fxa83dySOIJDHAwGyIXC5py9Jp6k9PyZrc7FpjGTL275DZsTkrpqTdPczNIdqifcm0Z0zX36sRnG87k5Kf3FYAEthkXXeRYg4Y422vY_7Oa7MrBpPJpvTwHiUZiBNj992pERA59wBvQe8sGjiN4FKxMKOOzhJ1fBZAAILCLRHkPOKEO0oDGhLCXwoSdNU5fKno4ftnQwihhRKyRVayZMemxF- -Lc9DZcafg7-aP2ipLnQt8R7hXi7BDMYTBtA-fOLow1LY8tcTywfqQS-BlcnHkdLEIJxMsglfoKoi1j88v7oNXHGOrPlJoTWQl7MhBFOS6PdAWMJZQL0c_Hw9nVMaSkS0am_Mfi1waQc1NfLFS7mid75tBpsnPqgsEu1ME5keIUEshyAk1wXmuoniWztS2Z2UXPTGotsClNrD8E2lu1VwjSgE8xp5mhUP2BJpvIn9Hp_BqXDDjn2_GHrjDs_-A9wswfxbRplhl31PYO7H-hpbZRpItMyFyPwDxRx-uTav-EFdJDG9xt-vUx05t-KUNYGxEoQXhrk_-j5_cFzrzru4dZKI6hhdTUjbcbNR8hwWtVI4lzJh-AtfTXF]--></g></svg>