<?xml version="1.0" encoding="us-ascii" standalone="no"?><svg xmlns="http://www.w3.org/2000/svg" xmlns:xlink="http://www.w3.org/1999/xlink" contentStyleType="text/css" height="374px" preserveAspectRatio="none" style="width:875px;height:374px;background:#FFFFFF;" version="1.1" viewBox="0 0 875 374" width="875px" zoomAndPan="magnify"><defs/><g><rect fill="#FFFFFF" height="132.75" style="stroke:#181818;stroke-width:1.0;" width="10" x="415.5" y="209.75"/><rect fill="none" height="193.6" style="stroke:#000000;stroke-width:1.5;" width="490.5" x="10" y="53.1"/><rect fill="none" height="104.75" style="stroke:#000000;stroke-width:1.5;" width="470.5" x="20" y="77.05"/><rect fill="none" height="89.8" style="stroke:#000000;stroke-width:1.5;" width="518.5" x="350.5" y="260.7"/><line style="stroke:#181818;stroke-width:0.5;stroke-dasharray:5.0,5.0;" x1="45" x2="45" y1="36.1" y2="367.5"/><line style="stroke:#181818;stroke-width:0.5;stroke-dasharray:5.0,5.0;" x1="420.5" x2="420.5" y1="36.1" y2="367.5"/><line style="stroke:#181818;stroke-width:0.5;stroke-dasharray:5.0,5.0;" x1="832" x2="832" y1="36.1" y2="367.5"/><rect fill="#7D5393" height="30.1" rx="2.5" ry="2.5" style="stroke:#181818;stroke-width:0.5;" width="31" x="30" y="5"/><text fill="#FFFFFF" font-family="NanumGothic" font-size="14" lengthAdjust="spacing" textLength="17" x="37" y="24.88">EV</text><rect fill="#7D5393" height="30.1" rx="2.5" ry="2.5" style="stroke:#181818;stroke-width:0.5;" width="120" x="360.5" y="5"/><text fill="#FFFFFF" font-family="NanumGothic" font-size="14" lengthAdjust="spacing" textLength="106" x="367.5" y="24.88">Charging Station</text><rect fill="#7D5393" height="30.1" rx="2.5" ry="2.5" style="stroke:#181818;stroke-width:0.5;" width="53" x="806" y="5"/><text fill="#FFFFFF" font-family="NanumGothic" font-size="14" lengthAdjust="spacing" textLength="39" x="813" y="24.88">CSMS</text><rect fill="#FFFFFF" height="132.75" style="stroke:#181818;stroke-width:1.0;" width="10" x="415.5" y="209.75"/><path d="M10,53.1 L95,53.1 L95,60.05 L85,70.05 L10,70.05 L10,53.1 " fill="#EEEEEE" style="stroke:#000000;stroke-width:1.5;"/><rect fill="none" height="193.6" style="stroke:#000000;stroke-width:1.5;" width="490.5" x="10" y="53.1"/><text fill="#000000" font-family="NanumGothic" font-size="13" font-weight="bold" lengthAdjust="spacing" textLength="40" x="25" y="66.06">15118</text><path d="M20,77.05 L155,77.05 L155,84 L145,94 L20,94 L20,77.05 " fill="#EEEEEE" style="stroke:#000000;stroke-width:1.5;"/><rect fill="none" height="104.75" style="stroke:#000000;stroke-width:1.5;" width="470.5" x="20" y="77.05"/><text fill="#000000" font-family="NanumGothic" font-size="13" font-weight="bold" lengthAdjust="spacing" textLength="90" x="35" y="90.01">if AC Charging</text><polygon fill="#181818" points="408.5,110.95,418.5,114.95,408.5,118.95,412.5,114.95" style="stroke:#181818;stroke-width:1.0;"/><line style="stroke:#181818;stroke-width:1.0;" x1="45.5" x2="414.5" y1="114.95" y2="114.95"/><text fill="#000000" font-family="NanumGothic" font-size="13" lengthAdjust="spacing" textLength="127" x="52.5" y="109.96">ChargingStatusReq()</text><polygon fill="#181818" points="56.5,169.8,46.5,173.8,56.5,177.8,52.5,173.8" style="stroke:#181818;stroke-width:1.0;"/><line style="stroke:#181818;stroke-width:1.0;stroke-dasharray:2.0,2.0;" x1="50.5" x2="419.5" y1="173.8" y2="173.8"/><text fill="#000000" font-family="NanumGothic" font-size="13" lengthAdjust="spacing" textLength="287" x="62.5" y="138.91">ChargingStatusRes(MeterInfoRecord { MeterId,</text><text fill="#000000" font-family="NanumGothic" font-size="13" lengthAdjust="spacing" textLength="183" x="62.5" y="153.86">[MeterReading], MeterStatus,</text><text fill="#000000" font-family="NanumGothic" font-size="13" lengthAdjust="spacing" textLength="351" x="62.5" y="168.81">SignedMeterReading, timeStamp },ReceiptRequired: True)</text><polygon fill="#181818" points="403.5,205.75,413.5,209.75,403.5,213.75,407.5,209.75" style="stroke:#181818;stroke-width:1.0;"/><line style="stroke:#181818;stroke-width:1.0;" x1="45.5" x2="409.5" y1="209.75" y2="209.75"/><text fill="#000000" font-family="NanumGothic" font-size="13" lengthAdjust="spacing" textLength="321" x="52.5" y="204.76">MeteringReceiptReq(&#52649;&#51204; &#49345;&#53468; &#45936;&#51060;&#53552; &#54869;&#51064;&#51012; &#50948;&#54620; &#49436;&#47749;)</text><polygon fill="#181818" points="56.5,234.7,46.5,238.7,56.5,242.7,52.5,238.7" style="stroke:#181818;stroke-width:1.0;"/><line style="stroke:#181818;stroke-width:1.0;stroke-dasharray:2.0,2.0;" x1="50.5" x2="414.5" y1="238.7" y2="238.7"/><text fill="#000000" font-family="NanumGothic" font-size="13" lengthAdjust="spacing" textLength="131" x="62.5" y="233.71">MeteringReceiptRes()</text><path d="M350.5,260.7 L430.5,260.7 L430.5,267.65 L420.5,277.65 L350.5,277.65 L350.5,260.7 " fill="#EEEEEE" style="stroke:#000000;stroke-width:1.5;"/><rect fill="none" height="89.8" style="stroke:#000000;stroke-width:1.5;" width="518.5" x="350.5" y="260.7"/><text fill="#000000" font-family="NanumGothic" font-size="13" font-weight="bold" lengthAdjust="spacing" textLength="35" x="365.5" y="273.66">OCPP</text><polygon fill="#181818" points="820.5,309.55,830.5,313.55,820.5,317.55,824.5,313.55" style="stroke:#181818;stroke-width:1.0;"/><line style="stroke:#181818;stroke-width:1.0;" x1="425.5" x2="826.5" y1="313.55" y2="313.55"/><text fill="#000000" font-family="NanumGothic" font-size="13" lengthAdjust="spacing" textLength="379" x="432.5" y="293.61">TransactionEventRequest(eventType = Updated, transactionID,</text><text fill="#000000" font-family="NanumGothic" font-size="13" lengthAdjust="spacing" textLength="361" x="448.5" y="308.56">timestamp, chargingState = Charging, Signed metervalues)</text><polygon fill="#181818" points="431.5,338.5,421.5,342.5,431.5,346.5,427.5,342.5" style="stroke:#181818;stroke-width:1.0;"/><line style="stroke:#181818;stroke-width:1.0;stroke-dasharray:2.0,2.0;" x1="425.5" x2="831.5" y1="342.5" y2="342.5"/><text fill="#000000" font-family="NanumGothic" font-size="13" lengthAdjust="spacing" textLength="171" x="437.5" y="337.51">TransactionEventResponse()</text><!--SRC=[TL6nIWD15EplAvwfJhW8AGG9A4XCaK8CIKoZ5iljyrn8zjRRlK0G2p6MbXP20hPQfH3ndxpx1z_U9aPpvghRsPatysQtX0m7AKVGPZp07PKE1vwdM694A1IJ1YhDVWMOXcR_BzouOaaaP0HTmuo8PK5QWWjiJT4zxZeM_NXUbCIfWjfkhRRd0RYJk8J3niyKWe5yeNgmFhZ-1qXr1w_zRQ_Whp6XIkfclmxkMvTf_nWD9Yrv6NSmZ1CED-0G7Ymav_AiG3h8E2al0aTm4rQaheWayj_C08mO8l662cu36ez26KgQYWHv7Nf9YjiK6IMtoJViMGmaO2Ntiu_Nx6K2sVrTVZ-5hyTvDdlF9tF8dv-osMSsewlf97-QGZQPVhqzM0yM6Z5Y1aiFv6qkhEIigU8Yh7khaqQx_P_ye7XVLtWlOL9RyrWsHoYBxL4R7-sXDrO8-t2gE2MZkisAt3eAg58xmLQeROK1XB-Sh73f783h7eOsyOWDoC8kRSDHacAXKg_bP5h5KgDlbHmt5cOB-0O0]--></g></svg>