<?xml version="1.0" encoding="us-ascii" standalone="no"?><svg xmlns="http://www.w3.org/2000/svg" xmlns:xlink="http://www.w3.org/1999/xlink" contentStyleType="text/css" height="343px" preserveAspectRatio="none" style="width:632px;height:343px;background:#FFFFFF;" version="1.1" viewBox="0 0 632 343" width="632px" zoomAndPan="magnify"><defs/><g><rect fill="#FFFFFF" height="57.9" style="stroke:#181818;stroke-width:1.0;" width="10" x="101.5" y="114.05"/><rect fill="#FFFFFF" height="28.95" style="stroke:#181818;stroke-width:1.0;" width="10" x="101.5" y="224.85"/><rect fill="#FFFFFF" height="110.8" style="stroke:#181818;stroke-width:1.0;" width="10" x="485.5" y="143"/><rect fill="#FFFFFF" height="28.95" style="stroke:#181818;stroke-width:1.0;" width="10" x="485.5" y="289.75"/><rect fill="none" height="74.85" style="stroke:#000000;stroke-width:1.5;" width="490.5" x="70" y="186.95"/><line style="stroke:#181818;stroke-width:0.5;stroke-dasharray:5.0,5.0;" x1="37" x2="37" y1="83.1" y2="336.7"/><line style="stroke:#181818;stroke-width:0.5;stroke-dasharray:5.0,5.0;" x1="106" x2="106" y1="83.1" y2="336.7"/><line style="stroke:#181818;stroke-width:0.5;stroke-dasharray:5.0,5.0;" x1="490.5" x2="490.5" y1="83.1" y2="336.7"/><text fill="#000000" font-family="NanumGothic" font-size="14" lengthAdjust="spacing" textLength="59" x="5" y="79.88">EV Driver</text><ellipse cx="37.5" cy="14.5" fill="#E2E2F0" rx="8" ry="8" style="stroke:#7D5393;stroke-width:1.5;"/><path d="M37.5,22.5 L37.5,49.5 M24.5,30.5 L50.5,30.5 M37.5,49.5 L24.5,64.5 M37.5,49.5 L50.5,64.5 " fill="none" style="stroke:#7D5393;stroke-width:1.5;"/><rect fill="#7D5393" height="30.1" rx="2.5" ry="2.5" style="stroke:#181818;stroke-width:0.5;" width="53" x="80" y="52"/><text fill="#FFFFFF" font-family="NanumGothic" font-size="14" lengthAdjust="spacing" textLength="39" x="87" y="71.88">CSMS</text><rect fill="#7D5393" height="30.1" rx="2.5" ry="2.5" style="stroke:#181818;stroke-width:0.5;" width="120" x="430.5" y="52"/><text fill="#FFFFFF" font-family="NanumGothic" font-size="14" lengthAdjust="spacing" textLength="106" x="437.5" y="71.88">Charging Station</text><rect fill="#FFFFFF" height="57.9" style="stroke:#181818;stroke-width:1.0;" width="10" x="101.5" y="114.05"/><rect fill="#FFFFFF" height="28.95" style="stroke:#181818;stroke-width:1.0;" width="10" x="101.5" y="224.85"/><rect fill="#FFFFFF" height="110.8" style="stroke:#181818;stroke-width:1.0;" width="10" x="485.5" y="143"/><rect fill="#FFFFFF" height="28.95" style="stroke:#181818;stroke-width:1.0;" width="10" x="485.5" y="289.75"/><polygon fill="#181818" points="89.5,110.05,99.5,114.05,89.5,118.05,93.5,114.05" style="stroke:#181818;stroke-width:1.0;"/><line style="stroke:#181818;stroke-width:1.0;" x1="37.5" x2="95.5" y1="114.05" y2="114.05"/><text fill="#000000" font-family="NanumGothic" font-size="13" lengthAdjust="spacing" textLength="24" x="44.5" y="109.06">&#50696;&#50557;</text><polygon fill="#181818" points="473.5,139,483.5,143,473.5,147,477.5,143" style="stroke:#181818;stroke-width:1.0;"/><line style="stroke:#181818;stroke-width:1.0;" x1="111.5" x2="479.5" y1="143" y2="143"/><text fill="#000000" font-family="NanumGothic" font-size="13" lengthAdjust="spacing" textLength="355" x="118.5" y="138.01">ReserveNowRequest(connectorId, idToken = TOKEN_A, ...)</text><polygon fill="#181818" points="117.5,167.95,107.5,171.95,117.5,175.95,113.5,171.95" style="stroke:#181818;stroke-width:1.0;"/><line style="stroke:#181818;stroke-width:1.0;stroke-dasharray:2.0,2.0;" x1="111.5" x2="484.5" y1="171.95" y2="171.95"/><text fill="#000000" font-family="NanumGothic" font-size="13" lengthAdjust="spacing" textLength="252" x="123.5" y="166.96">ReserveNowResponse(status = Accepted)</text><path d="M70,186.95 L136,186.95 L136,193.9 L126,203.9 L70,203.9 L70,186.95 " fill="#EEEEEE" style="stroke:#000000;stroke-width:1.5;"/><rect fill="none" height="74.85" style="stroke:#000000;stroke-width:1.5;" width="490.5" x="70" y="186.95"/><text fill="#000000" font-family="NanumGothic" font-size="13" font-weight="bold" lengthAdjust="spacing" textLength="21" x="85" y="199.91">opt</text><text fill="#000000" font-family="NanumGothic" font-size="11" font-weight="bold" lengthAdjust="spacing" textLength="168" x="151" y="199.07">[&#53945;&#51221; EVSE&#44032; &#51060; &#50696;&#50557;&#50640; &#51060;&#50857;&#46108; &#44221;&#50864;]</text><polygon fill="#181818" points="122.5,220.85,112.5,224.85,122.5,228.85,118.5,224.85" style="stroke:#181818;stroke-width:1.0;"/><line style="stroke:#181818;stroke-width:1.0;" x1="116.5" x2="484.5" y1="224.85" y2="224.85"/><text fill="#000000" font-family="NanumGothic" font-size="13" lengthAdjust="spacing" textLength="295" x="128.5" y="219.86">StatusNotificationRequest(status = Reserved, ...)</text><polygon fill="#181818" points="478.5,249.8,488.5,253.8,478.5,257.8,482.5,253.8" style="stroke:#181818;stroke-width:1.0;"/><line style="stroke:#181818;stroke-width:1.0;stroke-dasharray:2.0,2.0;" x1="106.5" x2="484.5" y1="253.8" y2="253.8"/><text fill="#000000" font-family="NanumGothic" font-size="13" lengthAdjust="spacing" textLength="176" x="113.5" y="248.81">StatusNotificationResponse()</text><polygon fill="#181818" points="473.5,285.75,483.5,289.75,473.5,293.75,477.5,289.75" style="stroke:#181818;stroke-width:1.0;"/><line style="stroke:#181818;stroke-width:1.0;" x1="37.5" x2="479.5" y1="289.75" y2="289.75"/><text fill="#000000" font-family="NanumGothic" font-size="13" lengthAdjust="spacing" textLength="143" x="44.5" y="284.76">IdToken(TOKEN_A) &#51228;&#49884;</text><ellipse cx="622" cy="317.95" fill="none" rx="4" ry="4" style="stroke:#181818;stroke-width:1.5;"/><polygon fill="#181818" points="605,314.7,615,318.7,605,322.7,609,318.7" style="stroke:#181818;stroke-width:1.0;"/><line style="stroke:#181818;stroke-width:1.0;" x1="490.5" x2="611" y1="318.7" y2="318.7"/><text fill="#000000" font-family="NanumGothic" font-size="13" lengthAdjust="spacing" textLength="108" x="497.5" y="313.71">&#51068;&#48152; &#52649;&#51204; &#49464;&#49496; &#51652;&#54665;</text><!--SRC=[bPBDIW9H5CVtzobEhXHq7a18a9g5H0QEk8iOPavsoUwTvjunshKmw6FZnf9GS1Vk928AyeNq-WxDbw8t2TeCztpmFx__ERD3cTCAN0GXhrjeUC55Yn3RaTo7ZDc0VP-sqS-0BS1i907nR5zIXtesav3Pimwjk1mzjDAPxJSfQu8bRKavIzhIP9eZP2aBXLAiKGJLlrEzQGH1sxR4H9b4txXdKw08DHJejx7Ahsfu6Q2GMOSpXf65Yfi7wjRvEJBOXVhHWLazAUV1C8pSchnEf2MWi29R7oKypWHcHTWKY52zx3ZeINHpn4KDdNiI5WzVQjGBbsYPiyaDgE5xwbCzTwD8lOpdtG7CtgRgPK80Va4i6QnuO9LBUagTkBQqlK99CTtKAO360v0iSzisjycdLYCbtTjcHjiaCbUxhpwjaXmdcvuc1seqK8-3_nodn8yX_6U6t_D97zJ7M8qwe3gVwZQCNZkBftlo1-4F]--></g></svg>