<?xml version="1.0" encoding="us-ascii" standalone="no"?><svg xmlns="http://www.w3.org/2000/svg" xmlns:xlink="http://www.w3.org/1999/xlink" contentStyleType="text/css" height="932px" preserveAspectRatio="none" style="width:827px;height:932px;background:#FFFFFF;" version="1.1" viewBox="0 0 827 932" width="827px" zoomAndPan="magnify"><defs/><g><rect fill="#FFFFFF" height="125.8" style="stroke:#181818;stroke-width:1.0;" width="10" x="72.5" y="102"/><rect fill="#FFFFFF" height="110.8" style="stroke:#181818;stroke-width:1.0;" width="10" x="166.5" y="102"/><rect fill="#FFFFFF" height="28.95" style="stroke:#181818;stroke-width:1.0;" width="10" x="166.5" y="272.7"/><rect fill="#FFFFFF" height="28.95" style="stroke:#181818;stroke-width:1.0;" width="10" x="166.5" y="402.45"/><rect fill="#FFFFFF" height="28.95" style="stroke:#181818;stroke-width:1.0;" width="10" x="166.5" y="513.25"/><rect fill="#FFFFFF" height="28.95" style="stroke:#181818;stroke-width:1.0;" width="10" x="166.5" y="586.1"/><rect fill="#FFFFFF" height="28.95" style="stroke:#181818;stroke-width:1.0;" width="10" x="166.5" y="784.1"/><rect fill="#FFFFFF" height="28.95" style="stroke:#181818;stroke-width:1.0;" width="10" x="166.5" y="871.6"/><rect fill="#FFFFFF" height="28.95" style="stroke:#181818;stroke-width:1.0;" width="10" x="692.5" y="130.95"/><rect fill="#FFFFFF" height="28.95" style="stroke:#181818;stroke-width:1.0;" width="10" x="692.5" y="272.7"/><rect fill="#FFFFFF" height="28.95" style="stroke:#181818;stroke-width:1.0;" width="10" x="692.5" y="402.45"/><rect fill="#FFFFFF" height="28.95" style="stroke:#181818;stroke-width:1.0;" width="10" x="692.5" y="513.25"/><rect fill="#FFFFFF" height="28.95" style="stroke:#181818;stroke-width:1.0;" width="10" x="692.5" y="586.1"/><rect fill="#FFFFFF" height="28.95" style="stroke:#181818;stroke-width:1.0;" width="10" x="692.5" y="784.1"/><rect fill="#FFFFFF" height="28.95" style="stroke:#181818;stroke-width:1.0;" width="10" x="692.5" y="871.6"/><rect fill="none" height="45.9" style="stroke:#000000;stroke-width:1.5;" width="198" x="10" y="174.9"/><rect fill="none" height="74.85" style="stroke:#000000;stroke-width:1.5;" width="632.5" x="135" y="234.8"/><rect fill="none" height="462.15" style="stroke:#000000;stroke-width:1.5;" width="810.5" x="10" y="446.4"/><rect fill="none" height="69.2" style="stroke:#000000;stroke-width:1.5;" width="183" x="627.5" y="630.05"/><line style="stroke:#181818;stroke-width:0.5;stroke-dasharray:5.0,5.0;" x1="77" x2="77" y1="36.1" y2="925.55"/><line style="stroke:#181818;stroke-width:0.5;stroke-dasharray:5.0,5.0;" x1="171" x2="171" y1="36.1" y2="925.55"/><line style="stroke:#181818;stroke-width:0.5;stroke-dasharray:5.0,5.0;" x1="697.5" x2="697.5" y1="36.1" y2="925.55"/><rect fill="#7D5393" height="30.1" rx="2.5" ry="2.5" style="stroke:#181818;stroke-width:0.5;" width="115" x="20" y="5"/><text fill="#FFFFFF" font-family="NanumGothic" font-size="14" lengthAdjust="spacing" textLength="101" x="27" y="24.88">External Trigger</text><rect fill="#7D5393" height="30.1" rx="2.5" ry="2.5" style="stroke:#181818;stroke-width:0.5;" width="53" x="145" y="5"/><text fill="#FFFFFF" font-family="NanumGothic" font-size="14" lengthAdjust="spacing" textLength="39" x="152" y="24.88">CSMS</text><rect fill="#7D5393" height="30.1" rx="2.5" ry="2.5" style="stroke:#181818;stroke-width:0.5;" width="120" x="637.5" y="5"/><text fill="#FFFFFF" font-family="NanumGothic" font-size="14" lengthAdjust="spacing" textLength="106" x="644.5" y="24.88">Charging Station</text><rect fill="#FFFFFF" height="125.8" style="stroke:#181818;stroke-width:1.0;" width="10" x="72.5" y="102"/><rect fill="#FFFFFF" height="110.8" style="stroke:#181818;stroke-width:1.0;" width="10" x="166.5" y="102"/><rect fill="#FFFFFF" height="28.95" style="stroke:#181818;stroke-width:1.0;" width="10" x="166.5" y="272.7"/><rect fill="#FFFFFF" height="28.95" style="stroke:#181818;stroke-width:1.0;" width="10" x="166.5" y="402.45"/><rect fill="#FFFFFF" height="28.95" style="stroke:#181818;stroke-width:1.0;" width="10" x="166.5" y="513.25"/><rect fill="#FFFFFF" height="28.95" style="stroke:#181818;stroke-width:1.0;" width="10" x="166.5" y="586.1"/><rect fill="#FFFFFF" height="28.95" style="stroke:#181818;stroke-width:1.0;" width="10" x="166.5" y="784.1"/><rect fill="#FFFFFF" height="28.95" style="stroke:#181818;stroke-width:1.0;" width="10" x="166.5" y="871.6"/><rect fill="#FFFFFF" height="28.95" style="stroke:#181818;stroke-width:1.0;" width="10" x="692.5" y="130.95"/><rect fill="#FFFFFF" height="28.95" style="stroke:#181818;stroke-width:1.0;" width="10" x="692.5" y="272.7"/><rect fill="#FFFFFF" height="28.95" style="stroke:#181818;stroke-width:1.0;" width="10" x="692.5" y="402.45"/><rect fill="#FFFFFF" height="28.95" style="stroke:#181818;stroke-width:1.0;" width="10" x="692.5" y="513.25"/><rect fill="#FFFFFF" height="28.95" style="stroke:#181818;stroke-width:1.0;" width="10" x="692.5" y="586.1"/><rect fill="#FFFFFF" height="28.95" style="stroke:#181818;stroke-width:1.0;" width="10" x="692.5" y="784.1"/><rect fill="#FFFFFF" height="28.95" style="stroke:#181818;stroke-width:1.0;" width="10" x="692.5" y="871.6"/><path d="M512,51.1 L512,75.1 L692,75.1 L692,61.1 L682,51.1 L512,51.1 " fill="#7D5393" style="stroke:#000000;stroke-width:0.5;"/><path d="M682,51.1 L682,61.1 L692,61.1 L682,51.1 " fill="#7D5393" style="stroke:#000000;stroke-width:0.5;"/><text fill="#FFFFFF" font-family="NanumGothic" font-size="13" lengthAdjust="spacing" textLength="159" x="518" y="68.06">TxStartPoint = Authorized</text><polygon fill="#181818" points="154.5,98,164.5,102,154.5,106,158.5,102" style="stroke:#181818;stroke-width:1.0;"/><line style="stroke:#181818;stroke-width:1.0;" x1="82.5" x2="160.5" y1="102" y2="102"/><text fill="#000000" font-family="NanumGothic" font-size="13" lengthAdjust="spacing" textLength="52" x="89.5" y="97.01">&#50896;&#44201; &#49884;&#51089;</text><polygon fill="#181818" points="680.5,126.95,690.5,130.95,680.5,134.95,684.5,130.95" style="stroke:#181818;stroke-width:1.0;"/><line style="stroke:#181818;stroke-width:1.0;" x1="176.5" x2="686.5" y1="130.95" y2="130.95"/><text fill="#000000" font-family="NanumGothic" font-size="13" lengthAdjust="spacing" textLength="440" x="183.5" y="125.96">RequestStartTransactionRequest(idToken = ABCD, remoteStartId = 123)</text><polygon fill="#181818" points="187.5,155.9,177.5,159.9,187.5,163.9,183.5,159.9" style="stroke:#181818;stroke-width:1.0;"/><line style="stroke:#181818;stroke-width:1.0;" x1="181.5" x2="696.5" y1="159.9" y2="159.9"/><text fill="#000000" font-family="NanumGothic" font-size="13" lengthAdjust="spacing" textLength="326" x="193.5" y="154.91">RequestStartTransactionResponse(status = Accepted)</text><path d="M10,174.9 L76,174.9 L76,181.85 L66,191.85 L10,191.85 L10,174.9 " fill="#EEEEEE" style="stroke:#000000;stroke-width:1.5;"/><rect fill="none" height="45.9" style="stroke:#000000;stroke-width:1.5;" width="198" x="10" y="174.9"/><text fill="#000000" font-family="NanumGothic" font-size="13" font-weight="bold" lengthAdjust="spacing" textLength="21" x="25" y="187.86">opt</text><polygon fill="#181818" points="93.5,208.8,83.5,212.8,93.5,216.8,89.5,212.8" style="stroke:#181818;stroke-width:1.0;"/><line style="stroke:#181818;stroke-width:1.0;" x1="87.5" x2="170.5" y1="212.8" y2="212.8"/><text fill="#000000" font-family="NanumGothic" font-size="13" lengthAdjust="spacing" textLength="24" x="99.5" y="207.81">&#50508;&#47548;</text><path d="M135,234.8 L201,234.8 L201,241.75 L191,251.75 L135,251.75 L135,234.8 " fill="#EEEEEE" style="stroke:#000000;stroke-width:1.5;"/><rect fill="none" height="74.85" style="stroke:#000000;stroke-width:1.5;" width="632.5" x="135" y="234.8"/><text fill="#000000" font-family="NanumGothic" font-size="13" font-weight="bold" lengthAdjust="spacing" textLength="21" x="150" y="247.76">opt</text><text fill="#000000" font-family="NanumGothic" font-size="11" font-weight="bold" lengthAdjust="spacing" textLength="157" x="216" y="246.92">[AuthorizeRemoteStart = true]</text><polygon fill="#181818" points="187.5,268.7,177.5,272.7,187.5,276.7,183.5,272.7" style="stroke:#181818;stroke-width:1.0;"/><line style="stroke:#181818;stroke-width:1.0;" x1="181.5" x2="691.5" y1="272.7" y2="272.7"/><text fill="#000000" font-family="NanumGothic" font-size="13" lengthAdjust="spacing" textLength="218" x="193.5" y="267.71">AuthorizeRequest(idToken = ABCD)</text><polygon fill="#181818" points="685.5,297.65,695.5,301.65,685.5,305.65,689.5,301.65" style="stroke:#181818;stroke-width:1.0;"/><line style="stroke:#181818;stroke-width:1.0;stroke-dasharray:2.0,2.0;" x1="171.5" x2="691.5" y1="301.65" y2="301.65"/><text fill="#000000" font-family="NanumGothic" font-size="13" lengthAdjust="spacing" textLength="199" x="178.5" y="296.66">AuthorizeResponse(idTokenInfo)</text><path d="M284,321.65 L284,345.65 L692,345.65 L692,331.65 L682,321.65 L284,321.65 " fill="#7D5393" style="stroke:#000000;stroke-width:0.5;"/><path d="M682,321.65 L682,331.65 L692,331.65 L682,321.65 " fill="#7D5393" style="stroke:#000000;stroke-width:0.5;"/><text fill="#FFFFFF" font-family="NanumGothic" font-size="13" lengthAdjust="spacing" textLength="387" x="290" y="338.61">Authorized &#45824;&#49888; triggerReason = RemoteStart &#51060;&#50857;! (F02.FR.21)</text><polygon fill="#181818" points="187.5,398.45,177.5,402.45,187.5,406.45,183.5,402.45" style="stroke:#181818;stroke-width:1.0;"/><line style="stroke:#181818;stroke-width:1.0;" x1="181.5" x2="691.5" y1="402.45" y2="402.45"/><text fill="#000000" font-family="NanumGothic" font-size="13" lengthAdjust="spacing" textLength="436" x="193.5" y="367.56">TransactionEventRequest(eventType = Started, transactionId = AB1234,</text><text fill="#000000" font-family="NanumGothic" font-size="13" lengthAdjust="spacing" textLength="188" x="193.5" y="382.51">idToken = ABCD, meterValues,</text><text fill="#000000" font-family="NanumGothic" font-size="13" lengthAdjust="spacing" textLength="336" x="193.5" y="397.46">triggerReason = RemoteStart, remoteStartId = 123, ...)</text><polygon fill="#181818" points="685.5,427.4,695.5,431.4,685.5,435.4,689.5,431.4" style="stroke:#181818;stroke-width:1.0;"/><line style="stroke:#181818;stroke-width:1.0;stroke-dasharray:2.0,2.0;" x1="171.5" x2="691.5" y1="431.4" y2="431.4"/><text fill="#000000" font-family="NanumGothic" font-size="13" lengthAdjust="spacing" textLength="183" x="178.5" y="426.41">TransactionEventResponse(...)</text><path d="M10,446.4 L70,446.4 L70,453.35 L60,463.35 L10,463.35 L10,446.4 " fill="#EEEEEE" style="stroke:#000000;stroke-width:1.5;"/><rect fill="none" height="462.15" style="stroke:#000000;stroke-width:1.5;" width="810.5" x="10" y="446.4"/><text fill="#000000" font-family="NanumGothic" font-size="13" font-weight="bold" lengthAdjust="spacing" textLength="15" x="25" y="459.36">alt</text><text fill="#000000" font-family="NanumGothic" font-size="11" font-weight="bold" lengthAdjust="spacing" textLength="136" x="85" y="458.52">[ConnectionTimeOut &#51060;&#45236;]</text><polygon fill="#181818" points="685.5,480.3,695.5,484.3,685.5,488.3,689.5,484.3" style="stroke:#181818;stroke-width:1.0;"/><line style="stroke:#181818;stroke-width:1.0;" x1="77.5" x2="691.5" y1="484.3" y2="484.3"/><text fill="#000000" font-family="NanumGothic" font-size="13" lengthAdjust="spacing" textLength="64" x="84.5" y="479.31">&#52992;&#51060;&#48660; &#50672;&#44208;</text><polygon fill="#181818" points="187.5,509.25,177.5,513.25,187.5,517.25,183.5,513.25" style="stroke:#181818;stroke-width:1.0;"/><line style="stroke:#181818;stroke-width:1.0;" x1="181.5" x2="691.5" y1="513.25" y2="513.25"/><text fill="#000000" font-family="NanumGothic" font-size="13" lengthAdjust="spacing" textLength="223" x="193.5" y="508.26">StatusNotificationRequest(Occupied)</text><polygon fill="#181818" points="685.5,538.2,695.5,542.2,685.5,546.2,689.5,542.2" style="stroke:#181818;stroke-width:1.0;"/><line style="stroke:#181818;stroke-width:1.0;stroke-dasharray:2.0,2.0;" x1="171.5" x2="691.5" y1="542.2" y2="542.2"/><text fill="#000000" font-family="NanumGothic" font-size="13" lengthAdjust="spacing" textLength="176" x="178.5" y="537.21">StatusNotificationResponse()</text><polygon fill="#181818" points="187.5,582.1,177.5,586.1,187.5,590.1,183.5,586.1" style="stroke:#181818;stroke-width:1.0;"/><line style="stroke:#181818;stroke-width:1.0;" x1="181.5" x2="691.5" y1="586.1" y2="586.1"/><text fill="#000000" font-family="NanumGothic" font-size="13" lengthAdjust="spacing" textLength="482" x="193.5" y="566.16">TransactionEventRequest(eventType = Updated, chargingState = EVConnected,</text><text fill="#000000" font-family="NanumGothic" font-size="13" lengthAdjust="spacing" textLength="431" x="193.5" y="581.11">evse.id = 1, evse.connectorId = 1, triggerReason = CablePluggedIn, ...)</text><polygon fill="#181818" points="685.5,611.05,695.5,615.05,685.5,619.05,689.5,615.05" style="stroke:#181818;stroke-width:1.0;"/><line style="stroke:#181818;stroke-width:1.0;stroke-dasharray:2.0,2.0;" x1="171.5" x2="691.5" y1="615.05" y2="615.05"/><text fill="#000000" font-family="NanumGothic" font-size="13" lengthAdjust="spacing" textLength="183" x="178.5" y="610.06">TransactionEventResponse(...)</text><path d="M627.5,630.05 L693.5,630.05 L693.5,637 L683.5,647 L627.5,647 L627.5,630.05 " fill="#EEEEEE" style="stroke:#000000;stroke-width:1.5;"/><rect fill="none" height="69.2" style="stroke:#000000;stroke-width:1.5;" width="183" x="627.5" y="630.05"/><text fill="#000000" font-family="NanumGothic" font-size="13" font-weight="bold" lengthAdjust="spacing" textLength="21" x="642.5" y="643.01">opt</text><text fill="#000000" font-family="NanumGothic" font-size="11" font-weight="bold" lengthAdjust="spacing" textLength="97" x="708.5" y="642.17">[&#52992;&#51060;&#48660;&#51060; &#50689;&#44396;&#51201;&#51004;&#47196;</text><text fill="#000000" font-family="NanumGothic" font-size="11" font-weight="bold" lengthAdjust="spacing" textLength="67" x="708.5" y="654.82">&#50672;&#44208;&#46104;&#51648; &#50506;&#51020;]</text><line style="stroke:#181818;stroke-width:1.0;" x1="697.5" x2="739.5" y1="678.25" y2="678.25"/><line style="stroke:#181818;stroke-width:1.0;" x1="739.5" x2="739.5" y1="678.25" y2="691.25"/><line style="stroke:#181818;stroke-width:1.0;" x1="698.5" x2="739.5" y1="691.25" y2="691.25"/><polygon fill="#181818" points="708.5,687.25,698.5,691.25,708.5,695.25,704.5,691.25" style="stroke:#181818;stroke-width:1.0;"/><text fill="#000000" font-family="NanumGothic" font-size="13" lengthAdjust="spacing" textLength="64" x="704.5" y="673.26">&#52964;&#45349;&#53552; &#51104;&#44552;</text><line style="stroke:#181818;stroke-width:1.0;" x1="697.5" x2="739.5" y1="727.2" y2="727.2"/><line style="stroke:#181818;stroke-width:1.0;" x1="739.5" x2="739.5" y1="727.2" y2="740.2"/><line style="stroke:#181818;stroke-width:1.0;" x1="698.5" x2="739.5" y1="740.2" y2="740.2"/><polygon fill="#181818" points="708.5,736.2,698.5,740.2,708.5,744.2,704.5,740.2" style="stroke:#181818;stroke-width:1.0;"/><text fill="#000000" font-family="NanumGothic" font-size="13" lengthAdjust="spacing" textLength="92" x="704.5" y="722.21">&#50640;&#45320;&#51648; &#51228;&#44277; &#49884;&#51089;</text><polygon fill="#181818" points="187.5,780.1,177.5,784.1,187.5,788.1,183.5,784.1" style="stroke:#181818;stroke-width:1.0;"/><line style="stroke:#181818;stroke-width:1.0;" x1="181.5" x2="691.5" y1="784.1" y2="784.1"/><text fill="#000000" font-family="NanumGothic" font-size="13" lengthAdjust="spacing" textLength="456" x="193.5" y="764.16">TransactionEventRequest(eventType = Updated, chargingState = Charging,</text><text fill="#000000" font-family="NanumGothic" font-size="13" lengthAdjust="spacing" textLength="269" x="193.5" y="779.11">triggerReason = ChargingStateChanged, ...)</text><polygon fill="#181818" points="685.5,809.05,695.5,813.05,685.5,817.05,689.5,813.05" style="stroke:#181818;stroke-width:1.0;"/><line style="stroke:#181818;stroke-width:1.0;stroke-dasharray:2.0,2.0;" x1="171.5" x2="691.5" y1="813.05" y2="813.05"/><text fill="#000000" font-family="NanumGothic" font-size="13" lengthAdjust="spacing" textLength="183" x="178.5" y="808.06">TransactionEventResponse(...)</text><line style="stroke:#000000;stroke-width:1.0;stroke-dasharray:2.0,2.0;" x1="10" x2="820.5" y1="822.05" y2="822.05"/><text fill="#000000" font-family="NanumGothic" font-size="11" font-weight="bold" lengthAdjust="spacing" textLength="169" x="15" y="832.17">[ConnectionTimeOut &#52488;&#44284;&#54620; &#44221;&#50864;]</text><polygon fill="#181818" points="187.5,867.6,177.5,871.6,187.5,875.6,183.5,871.6" style="stroke:#181818;stroke-width:1.0;"/><line style="stroke:#181818;stroke-width:1.0;" x1="181.5" x2="691.5" y1="871.6" y2="871.6"/><text fill="#000000" font-family="NanumGothic" font-size="13" lengthAdjust="spacing" textLength="446" x="193.5" y="851.66">TransactionEventRequest(eventType = Ended, stoppedReason = Timeout,</text><text fill="#000000" font-family="NanumGothic" font-size="13" lengthAdjust="spacing" textLength="236" x="193.5" y="866.61">triggerReason = EVConnectTimeout...)</text><polygon fill="#181818" points="685.5,896.55,695.5,900.55,685.5,904.55,689.5,900.55" style="stroke:#181818;stroke-width:1.0;"/><line style="stroke:#181818;stroke-width:1.0;stroke-dasharray:2.0,2.0;" x1="171.5" x2="691.5" y1="900.55" y2="900.55"/><text fill="#000000" font-family="NanumGothic" font-size="13" lengthAdjust="spacing" textLength="183" x="178.5" y="895.56">TransactionEventResponse(...)</text><!--SRC=[pLNDInj15B_lNp5wSY4DrVOajA1fX1nQ9KazUPdkliIXcvdjxgneJreyICt1GaMnKLBe1q8FmGyGclv3sV5_wCnaawoRJRHWQI_Bxlj-l_TxRoS8jPp01kJp3GUoRb1p3CF57YSMSJ7bQ3A_pi6Zs45bZrIhu4qYxAEUC9BTzCYLdfUqbNf9g5QnLoMqYaeSSy9eromIHZB3e8m3Sg324QiCQH4ghyjtZoyn8aC-GNC1NsKUUGks0TH6ojam4WMY1qzrDRD8VDhhd9qYiTiG9nyCR76oXcMsP4DzXUx1K4yTusOniwW8RmBmkIwex67gAqT68_4KiSliDL1LvNpkMGPvK9FbQUk2BQNJCu_CMAua40d1e8kHQNsNKH-cVEaG-2gjPO7BmJOD6qRdOIwNkFQQJ60XCTklXz_QqY8UG-4YyOx7JOAeuWx6KnpqBWlZNW0gvwWEOsvfK9hITsG_SPKUNw-tj0d64aNWHPaAjCBCbAPlIXAf5IAtyNT0M1JMDyLkKuAX0Ii2zfdgC0wLEBuGHwSJQ6hXuKnsePYTcJPZF1-9droJ0I_oQq1v3qXG7-KD5sGYdGBiZAoWRwo9EJSlgVau8yEiq2I9Qo37l8mT6QrhCARyLCfdK3QRDHCxDcOBHivkkCLeX3h-c34bPsfWXwCSenHqi3AfmMAWiG_VNSYHfPsJP36YlQdihpuYST3gdBMCSVGkwGLzmJYf40l7JyQYPGKkKHjxNmnFonNXP8vdyp3vn_M4xaYwbwwDDUciM2Ibo2z78r1AfAa5QpvaYUPD1kaFgsl2l48aJR8lXryviEG4KcWNQCIr-y9oFEF-y5X8hRgGVUB89nA7MvtB7wAv9Hhjy7DZXNR95EuTYk-RyXA_5yTrGs6JDeOXIlxy4cv_lTvk8N7Ix5pjI4TzeExeVR0NRk_ejCr6v_oozzFygnpeHUuHO6YwSNlvGQigoZ-RyQqB0uuFQPVbOgTpthxURw3EsIznrBeFJFFKLbZudBaks7t4L4eMy560zfSkilkFePJK_Gq0]--></g></svg>