<?xml version="1.0" encoding="us-ascii" standalone="no"?><svg xmlns="http://www.w3.org/2000/svg" xmlns:xlink="http://www.w3.org/1999/xlink" contentStyleType="text/css" height="368px" preserveAspectRatio="none" style="width:491px;height:368px;background:#FFFFFF;" version="1.1" viewBox="0 0 491 368" width="491px" zoomAndPan="magnify"><defs/><g><rect fill="#FFFFFF" height="28.95" style="stroke:#181818;stroke-width:1.0;" width="10" x="85" y="143.9"/><rect fill="#FFFFFF" height="70.9" style="stroke:#181818;stroke-width:1.0;" width="10" x="85" y="216.45"/><rect fill="none" height="220.3" style="stroke:#000000;stroke-width:1.5;" width="470" x="10" y="82.05"/><rect fill="none" height="189.35" style="stroke:#000000;stroke-width:1.5;" width="427.5" x="20" y="106"/><line style="stroke:#181818;stroke-width:0.5;stroke-dasharray:5.0,5.0;" x1="90" x2="90" y1="36.1" y2="361.3"/><line style="stroke:#181818;stroke-width:0.5;stroke-dasharray:5.0,5.0;" x1="410.5" x2="410.5" y1="36.1" y2="361.3"/><rect fill="#7D5393" height="30.1" rx="2.5" ry="2.5" style="stroke:#181818;stroke-width:0.5;" width="120" x="30" y="5"/><text fill="#FFFFFF" font-family="NanumGothic" font-size="14" lengthAdjust="spacing" textLength="106" x="37" y="24.88">Charging Station</text><rect fill="#7D5393" height="30.1" rx="2.5" ry="2.5" style="stroke:#181818;stroke-width:0.5;" width="53" x="384.5" y="5"/><text fill="#FFFFFF" font-family="NanumGothic" font-size="14" lengthAdjust="spacing" textLength="39" x="391.5" y="24.88">CSMS</text><rect fill="#FFFFFF" height="28.95" style="stroke:#181818;stroke-width:1.0;" width="10" x="85" y="143.9"/><rect fill="#FFFFFF" height="70.9" style="stroke:#181818;stroke-width:1.0;" width="10" x="85" y="216.45"/><polygon fill="#181818" points="399,63.05,409,67.05,399,71.05,403,67.05" style="stroke:#181818;stroke-width:1.0;"/><line style="stroke:#181818;stroke-width:1.0;" x1="90" x2="405" y1="67.05" y2="67.05"/><text fill="#000000" font-family="NanumGothic" font-size="13" lengthAdjust="spacing" textLength="144" x="97" y="62.06">&#53944;&#47004;&#51117;&#49496; &#44288;&#47144; &#47700;&#49884;&#51648; &#50836;&#52397;</text><path d="M10,82.05 L82,82.05 L82,89 L72,99 L10,99 L10,82.05 " fill="#EEEEEE" style="stroke:#000000;stroke-width:1.5;"/><rect fill="none" height="220.3" style="stroke:#000000;stroke-width:1.5;" width="470" x="10" y="82.05"/><text fill="#000000" font-family="NanumGothic" font-size="13" font-weight="bold" lengthAdjust="spacing" textLength="27" x="25" y="95.01">loop</text><text fill="#000000" font-family="NanumGothic" font-size="11" font-weight="bold" lengthAdjust="spacing" textLength="378" x="97" y="94.17">[&#51204;&#49569;&#46108; &#47700;&#49884;&#51648;&#51032; &#49688;&#44032; MessageAttemptsTransactionEvent&#47484; &#45336;&#44592;&#51648; &#50506;&#45716; &#46041;&#50504;]</text><path d="M20,106 L80,106 L80,112.95 L70,122.95 L20,122.95 L20,106 " fill="#EEEEEE" style="stroke:#000000;stroke-width:1.5;"/><rect fill="none" height="189.35" style="stroke:#000000;stroke-width:1.5;" width="427.5" x="20" y="106"/><text fill="#000000" font-family="NanumGothic" font-size="13" font-weight="bold" lengthAdjust="spacing" textLength="15" x="35" y="118.96">alt</text><text fill="#000000" font-family="NanumGothic" font-size="11" font-weight="bold" lengthAdjust="spacing" textLength="157" x="95" y="118.12">[&#47700;&#49884;&#51648;&#44032; &#49457;&#44277;&#51201;&#51004;&#47196; &#51204;&#49569;&#46108; &#44221;&#50864;]</text><polygon fill="#181818" points="106,139.9,96,143.9,106,147.9,102,143.9" style="stroke:#181818;stroke-width:1.0;"/><line style="stroke:#181818;stroke-width:1.0;stroke-dasharray:2.0,2.0;" x1="100" x2="410" y1="143.9" y2="143.9"/><text fill="#000000" font-family="NanumGothic" font-size="13" lengthAdjust="spacing" textLength="144" x="112" y="138.91">&#53944;&#47004;&#51117;&#49496; &#44288;&#47144; &#47700;&#49884;&#51648; &#51025;&#45813;</text><ellipse cx="481.5" cy="172.1" fill="none" rx="4" ry="4" style="stroke:#181818;stroke-width:1.5;"/><polygon fill="#181818" points="464.5,168.85,474.5,172.85,464.5,176.85,468.5,172.85" style="stroke:#181818;stroke-width:1.0;"/><line style="stroke:#181818;stroke-width:1.0;" x1="90" x2="470.5" y1="172.85" y2="172.85"/><text fill="#000000" font-family="NanumGothic" font-size="13" lengthAdjust="spacing" textLength="120" x="97" y="167.86">&#45796;&#51020; &#47700;&#49884;&#51648; &#52376;&#47532; &#51652;&#54665;</text><line style="stroke:#000000;stroke-width:1.0;stroke-dasharray:2.0,2.0;" x1="20" x2="447.5" y1="181.85" y2="181.85"/><text fill="#000000" font-family="NanumGothic" font-size="11" font-weight="bold" lengthAdjust="spacing" textLength="140" x="25" y="191.97">[&#47700;&#49884;&#51648; &#49688;&#49888; &#48155;&#51648; &#47803;&#54616;&#45716; &#44221;&#50864;]</text><polygon fill="#181818" points="106,212.45,96,216.45,106,220.45,102,216.45" style="stroke:#181818;stroke-width:1.0;"/><line style="stroke:#181818;stroke-width:1.0;stroke-dasharray:2.0,2.0;" x1="100" x2="410" y1="216.45" y2="216.45"/><text fill="#000000" font-family="NanumGothic" font-size="13" lengthAdjust="spacing" textLength="92" x="112" y="211.46">&#47700;&#49884;&#51648; &#52376;&#47532; &#49892;&#54056;</text><line style="stroke:#181818;stroke-width:1.0;" x1="95" x2="137" y1="245.4" y2="245.4"/><line style="stroke:#181818;stroke-width:1.0;" x1="137" x2="137" y1="245.4" y2="258.4"/><line style="stroke:#181818;stroke-width:1.0;" x1="96" x2="137" y1="258.4" y2="258.4"/><polygon fill="#181818" points="106,254.4,96,258.4,106,262.4,102,258.4" style="stroke:#181818;stroke-width:1.0;"/><text fill="#000000" font-family="NanumGothic" font-size="13" lengthAdjust="spacing" textLength="297" x="102" y="240.41">x MessageAttemptsTransactionEvent &#52488; &#46041;&#50504; &#45824;&#44592;</text><polygon fill="#181818" points="399,283.35,409,287.35,399,291.35,403,287.35" style="stroke:#181818;stroke-width:1.0;"/><line style="stroke:#181818;stroke-width:1.0;" x1="90" x2="405" y1="287.35" y2="287.35"/><text fill="#000000" font-family="NanumGothic" font-size="13" lengthAdjust="spacing" textLength="76" x="97" y="282.36">&#47700;&#49884;&#51648; &#51116;&#51204;&#49569;</text><line style="stroke:#181818;stroke-width:1.0;" x1="90" x2="132" y1="330.3" y2="330.3"/><line style="stroke:#181818;stroke-width:1.0;" x1="132" x2="132" y1="330.3" y2="343.3"/><line style="stroke:#181818;stroke-width:1.0;" x1="91" x2="132" y1="343.3" y2="343.3"/><polygon fill="#181818" points="101,339.3,91,343.3,101,347.3,97,343.3" style="stroke:#181818;stroke-width:1.0;"/><text fill="#000000" font-family="NanumGothic" font-size="13" lengthAdjust="spacing" textLength="64" x="97" y="325.31">&#47700;&#49884;&#51648; &#54224;&#44592;</text><!--SRC=[ZL9FIm915B_FftXvjm_W8OZewCck7GOTR65T5tUKkXbORAwWWSPcgoXOMYYOAGZP5zfv-nroTWrDyS_0mCoRztv_tfiZHOkhsGG3Wz-ex5ZFfbH2T9hXIbpHgSOXT7P5Cqb5IqACKwwajH1G0_w2YzXQHImQ2xBc1qBMSY5yuZz4m2jEHTF1vW3lR737UT7gWNYlekLWDmzOh-9eG8YQJkk0hGBUjqN5MIPWmmOqRNUOXoWp39fafvopbCwDYmpL31gNPESvfd7nEWDHiDtfqCUj5KMn2gByZ3MJ052LBq4b6XO-tQy9jcxHcOcsiyBjZdwmFfpNWEy0mjBAVtTxNJKUXJNn8QJ27ELieva1mKRNqfSG0M5ri55Q1HpPugqFs2ruJmz-PO9jHGPWgi5MgqqRhHQ8uOkyYOzlhsRBxXpaT5E4rV5AlTtcvECMWviCmRhUDs30iRaOA8XIVZxetJJ-xrjHt-m7CpwWVLg2o4qEKRzayCeLAUeN]--></g></svg>