<?xml version="1.0" encoding="us-ascii" standalone="no"?><svg xmlns="http://www.w3.org/2000/svg" xmlns:xlink="http://www.w3.org/1999/xlink" contentStyleType="text/css" height="306px" preserveAspectRatio="none" style="width:652px;height:306px;background:#FFFFFF;" version="1.1" viewBox="0 0 652 306" width="652px" zoomAndPan="magnify"><defs/><g><rect fill="#FFFFFF" height="28.95" style="stroke:#181818;stroke-width:1.0;" width="10" x="94" y="67.05"/><rect fill="#FFFFFF" height="28.95" style="stroke:#181818;stroke-width:1.0;" width="10" x="94" y="159.9"/><rect fill="#FFFFFF" height="28.95" style="stroke:#181818;stroke-width:1.0;" width="10" x="94" y="252.75"/><rect fill="#FFFFFF" height="28.95" style="stroke:#181818;stroke-width:1.0;" width="10" x="586" y="67.05"/><rect fill="#FFFFFF" height="28.95" style="stroke:#181818;stroke-width:1.0;" width="10" x="586" y="159.9"/><rect fill="#FFFFFF" height="28.95" style="stroke:#181818;stroke-width:1.0;" width="10" x="586" y="252.75"/><line style="stroke:#181818;stroke-width:0.5;stroke-dasharray:5.0,5.0;" x1="99" x2="99" y1="36.1" y2="299.7"/><line style="stroke:#181818;stroke-width:0.5;stroke-dasharray:5.0,5.0;" x1="591" x2="591" y1="36.1" y2="299.7"/><rect fill="#7D5393" height="30.1" rx="2.5" ry="2.5" style="stroke:#181818;stroke-width:0.5;" width="96" x="51" y="5"/><text fill="#FFFFFF" font-family="NanumGothic" font-size="14" lengthAdjust="spacing" textLength="82" x="58" y="24.88">Charge Point</text><rect fill="#7D5393" height="30.1" rx="2.5" ry="2.5" style="stroke:#181818;stroke-width:0.5;" width="110" x="536" y="5"/><text fill="#FFFFFF" font-family="NanumGothic" font-size="14" lengthAdjust="spacing" textLength="96" x="543" y="24.88">Central System</text><rect fill="#FFFFFF" height="28.95" style="stroke:#181818;stroke-width:1.0;" width="10" x="94" y="67.05"/><rect fill="#FFFFFF" height="28.95" style="stroke:#181818;stroke-width:1.0;" width="10" x="94" y="159.9"/><rect fill="#FFFFFF" height="28.95" style="stroke:#181818;stroke-width:1.0;" width="10" x="94" y="252.75"/><rect fill="#FFFFFF" height="28.95" style="stroke:#181818;stroke-width:1.0;" width="10" x="586" y="67.05"/><rect fill="#FFFFFF" height="28.95" style="stroke:#181818;stroke-width:1.0;" width="10" x="586" y="159.9"/><rect fill="#FFFFFF" height="28.95" style="stroke:#181818;stroke-width:1.0;" width="10" x="586" y="252.75"/><polygon fill="#181818" points="115,63.05,105,67.05,115,71.05,111,67.05" style="stroke:#181818;stroke-width:1.0;"/><line style="stroke:#181818;stroke-width:1.0;" x1="109" x2="585" y1="67.05" y2="67.05"/><text fill="#000000" font-family="NanumGothic" font-size="13" lengthAdjust="spacing" textLength="468" x="121" y="62.06">GetDiagnostics.req(location, [retries]. [retryInterval], [startTime], [stopTime])</text><polygon fill="#181818" points="579,92,589,96,579,100,583,96" style="stroke:#181818;stroke-width:1.0;"/><line style="stroke:#181818;stroke-width:1.0;" x1="99" x2="585" y1="96" y2="96"/><text fill="#000000" font-family="NanumGothic" font-size="13" lengthAdjust="spacing" textLength="195" x="106" y="91.01">GetDiagnostics.conf([fileName])</text><path d="M5,109 L5,133 L194,133 L194,119 L184,109 L5,109 " fill="#7D5393" style="stroke:#000000;stroke-width:0.5;"/><path d="M184,109 L184,119 L194,119 L184,109 " fill="#7D5393" style="stroke:#000000;stroke-width:0.5;"/><text fill="#FFFFFF" font-family="NanumGothic" font-size="13" lengthAdjust="spacing" textLength="168" x="11" y="125.96">Uploading diagnostics file...</text><polygon fill="#181818" points="574,155.9,584,159.9,574,163.9,578,159.9" style="stroke:#181818;stroke-width:1.0;"/><line style="stroke:#181818;stroke-width:1.0;" x1="104" x2="580" y1="159.9" y2="159.9"/><text fill="#000000" font-family="NanumGothic" font-size="13" lengthAdjust="spacing" textLength="206" x="111" y="154.91">DiagnosticsStatusNotification.req(</text><text fill="#000000" font-family="NanumGothic" font-size="13" font-weight="bold" lengthAdjust="spacing" textLength="107" x="321" y="154.91">status: Uploading</text><text fill="#000000" font-family="NanumGothic" font-size="13" lengthAdjust="spacing" textLength="5" x="432" y="154.91">)</text><polygon fill="#181818" points="110,184.85,100,188.85,110,192.85,106,188.85" style="stroke:#181818;stroke-width:1.0;"/><line style="stroke:#181818;stroke-width:1.0;" x1="104" x2="590" y1="188.85" y2="188.85"/><text fill="#000000" font-family="NanumGothic" font-size="13" lengthAdjust="spacing" textLength="218" x="116" y="183.86">DiagnosticsStatusNotification.conf()</text><path d="M5,201.85 L5,225.85 L194,225.85 L194,211.85 L184,201.85 L5,201.85 " fill="#7D5393" style="stroke:#000000;stroke-width:0.5;"/><path d="M184,201.85 L184,211.85 L194,211.85 L184,201.85 " fill="#7D5393" style="stroke:#000000;stroke-width:0.5;"/><text fill="#FFFFFF" font-family="NanumGothic" font-size="13" lengthAdjust="spacing" textLength="168" x="11" y="218.81">Uploading diagnostics file...</text><polygon fill="#181818" points="574,248.75,584,252.75,574,256.75,578,252.75" style="stroke:#181818;stroke-width:1.0;"/><line style="stroke:#181818;stroke-width:1.0;" x1="104" x2="580" y1="252.75" y2="252.75"/><text fill="#000000" font-family="NanumGothic" font-size="13" lengthAdjust="spacing" textLength="206" x="111" y="247.76">DiagnosticsStatusNotification.req(</text><text fill="#000000" font-family="NanumGothic" font-size="13" font-weight="bold" lengthAdjust="spacing" textLength="103" x="321" y="247.76">status: Uploaded</text><text fill="#000000" font-family="NanumGothic" font-size="13" lengthAdjust="spacing" textLength="5" x="428" y="247.76">)</text><polygon fill="#181818" points="110,277.7,100,281.7,110,285.7,106,281.7" style="stroke:#181818;stroke-width:1.0;"/><line style="stroke:#181818;stroke-width:1.0;" x1="104" x2="590" y1="281.7" y2="281.7"/><text fill="#000000" font-family="NanumGothic" font-size="13" lengthAdjust="spacing" textLength="218" x="116" y="276.71">DiagnosticsStatusNotification.conf()</text><!--SRC=[tP6nJiGm38RtF8MvwQWW3t032qZebXFImNIwmKhSOYbDIk9MwjlJDaFRGnnYXCt-xVZ_zEU6lN6j9KZIEz9DMpkb6ep2XXlq0fl7TumLmKjWBnl015cO-ejDyXBHmR5FGdNUpL9Mb5grSF-ml0KxU2PvOgnyICFHf2DzR5qmA1py7PmYIMHAPvtBVk-5OeVkFCoI322lN5DkGZFLjqgX4UvGQ4KzYnTu2veHRaNx1Sy4NsvF9JiwO3QpzCtbvM31eNmObD1HNCa0RuqBQDbNO6T36AsqregyXV7bZy0BsgEWjEaGX4lEYKxnGb6aQRARFOi2VXtSzN-zpZ7b-3_I8_jNmli4]--></g></svg>