<?xml version="1.0" encoding="us-ascii" standalone="no"?><svg xmlns="http://www.w3.org/2000/svg" xmlns:xlink="http://www.w3.org/1999/xlink" contentStyleType="text/css" height="935px" preserveAspectRatio="none" style="width:1101px;height:935px;background:#FFFFFF;" version="1.1" viewBox="0 0 1101 935" width="1101px" zoomAndPan="magnify"><defs/><g><rect fill="#FFFFFF" height="690.35" style="stroke:#181818;stroke-width:1.0;" width="10" x="76.5" y="219.9"/><rect fill="#FFFFFF" height="363.95" style="stroke:#181818;stroke-width:1.0;" width="10" x="242.5" y="149"/><rect fill="#FFFFFF" height="78.85" style="stroke:#181818;stroke-width:1.0;" width="10" x="242.5" y="565.85"/><rect fill="#FFFFFF" height="101.8" style="stroke:#181818;stroke-width:1.0;" width="10" x="242.5" y="808.45"/><rect fill="#FFFFFF" height="101.8" style="stroke:#181818;stroke-width:1.0;" width="10" x="607.5" y="263.8"/><rect fill="#FFFFFF" height="78.85" style="stroke:#181818;stroke-width:1.0;" width="10" x="607.5" y="565.85"/><rect fill="#FFFFFF" height="101.8" style="stroke:#181818;stroke-width:1.0;" width="10" x="607.5" y="808.45"/><rect fill="#FFFFFF" height="28.95" style="stroke:#181818;stroke-width:1.0;" width="10" x="1035.5" y="307.7"/><rect fill="#FFFFFF" height="28.95" style="stroke:#181818;stroke-width:1.0;" width="10" x="1035.5" y="852.35"/><rect fill="none" height="279.1" style="stroke:#000000;stroke-width:1.5;" width="779" x="56" y="380.6"/><rect fill="none" height="124.75" style="stroke:#000000;stroke-width:1.5;" width="635.5" x="189.5" y="527.95"/><line style="stroke:#181818;stroke-width:0.5;stroke-dasharray:5.0,5.0;" x1="38" x2="38" y1="83.1" y2="928.25"/><line style="stroke:#181818;stroke-width:0.5;stroke-dasharray:5.0,5.0;" x1="81" x2="81" y1="83.1" y2="928.25"/><line style="stroke:#181818;stroke-width:0.5;stroke-dasharray:5.0,5.0;" x1="247.5" x2="247.5" y1="83.1" y2="928.25"/><line style="stroke:#181818;stroke-width:0.5;stroke-dasharray:5.0,5.0;" x1="612" x2="612" y1="83.1" y2="928.25"/><line style="stroke:#181818;stroke-width:0.5;stroke-dasharray:5.0,5.0;" x1="1040.5" x2="1040.5" y1="83.1" y2="928.25"/><text fill="#000000" font-family="NanumGothic" font-size="14" lengthAdjust="spacing" textLength="29" x="21" y="79.88">User</text><ellipse cx="38.5" cy="14.5" fill="#E2E2F0" rx="8" ry="8" style="stroke:#7D5393;stroke-width:1.5;"/><path d="M38.5,22.5 L38.5,49.5 M25.5,30.5 L51.5,30.5 M38.5,49.5 L25.5,64.5 M38.5,49.5 L51.5,64.5 " fill="none" style="stroke:#7D5393;stroke-width:1.5;"/><rect fill="#7D5393" height="30.1" rx="2.5" ry="2.5" style="stroke:#181818;stroke-width:0.5;" width="31" x="66" y="52"/><text fill="#FFFFFF" font-family="NanumGothic" font-size="14" lengthAdjust="spacing" textLength="17" x="73" y="71.88">EV</text><rect fill="#7D5393" height="30.1" rx="2.5" ry="2.5" style="stroke:#181818;stroke-width:0.5;" width="96" x="199.5" y="52"/><text fill="#FFFFFF" font-family="NanumGothic" font-size="14" lengthAdjust="spacing" textLength="82" x="206.5" y="71.88">Charge Point</text><rect fill="#7D5393" height="30.1" rx="2.5" ry="2.5" style="stroke:#181818;stroke-width:0.5;" width="113" x="556" y="52"/><text fill="#FFFFFF" font-family="NanumGothic" font-size="14" lengthAdjust="spacing" textLength="99" x="563" y="71.88">Local Controller</text><rect fill="#7D5393" height="30.1" rx="2.5" ry="2.5" style="stroke:#181818;stroke-width:0.5;" width="110" x="985.5" y="52"/><text fill="#FFFFFF" font-family="NanumGothic" font-size="14" lengthAdjust="spacing" textLength="96" x="992.5" y="71.88">Central System</text><rect fill="#FFFFFF" height="690.35" style="stroke:#181818;stroke-width:1.0;" width="10" x="76.5" y="219.9"/><rect fill="#FFFFFF" height="363.95" style="stroke:#181818;stroke-width:1.0;" width="10" x="242.5" y="149"/><rect fill="#FFFFFF" height="78.85" style="stroke:#181818;stroke-width:1.0;" width="10" x="242.5" y="565.85"/><rect fill="#FFFFFF" height="101.8" style="stroke:#181818;stroke-width:1.0;" width="10" x="242.5" y="808.45"/><rect fill="#FFFFFF" height="101.8" style="stroke:#181818;stroke-width:1.0;" width="10" x="607.5" y="263.8"/><rect fill="#FFFFFF" height="78.85" style="stroke:#181818;stroke-width:1.0;" width="10" x="607.5" y="565.85"/><rect fill="#FFFFFF" height="101.8" style="stroke:#181818;stroke-width:1.0;" width="10" x="607.5" y="808.45"/><rect fill="#FFFFFF" height="28.95" style="stroke:#181818;stroke-width:1.0;" width="10" x="1035.5" y="307.7"/><rect fill="#FFFFFF" height="28.95" style="stroke:#181818;stroke-width:1.0;" width="10" x="1035.5" y="852.35"/><path d="M5,98.1 L5,122.1 L1074,122.1 L1074,108.1 L1064,98.1 L5,98.1 " fill="#7D5393" style="stroke:#000000;stroke-width:0.5;"/><path d="M1064,98.1 L1064,108.1 L1074,108.1 L1064,98.1 " fill="#7D5393" style="stroke:#000000;stroke-width:0.5;"/><text fill="#FFFFFF" font-family="NanumGothic" font-size="13" lengthAdjust="spacing" textLength="168" x="451.25" y="115.06">RFID or other Authorization</text><polygon fill="#181818" points="92.5,145,82.5,149,92.5,153,88.5,149" style="stroke:#181818;stroke-width:1.0;"/><line style="stroke:#181818;stroke-width:1.0;" x1="86.5" x2="241.5" y1="149" y2="149"/><text fill="#000000" font-family="NanumGothic" font-size="13" lengthAdjust="spacing" textLength="132" x="98.5" y="144.01">set max current(limit)</text><line style="stroke:#181818;stroke-width:1.0;" x1="252.5" x2="294.5" y1="177.95" y2="177.95"/><line style="stroke:#181818;stroke-width:1.0;" x1="294.5" x2="294.5" y1="177.95" y2="190.95"/><line style="stroke:#181818;stroke-width:1.0;" x1="253.5" x2="294.5" y1="190.95" y2="190.95"/><polygon fill="#181818" points="263.5,186.95,253.5,190.95,263.5,194.95,259.5,190.95" style="stroke:#181818;stroke-width:1.0;"/><text fill="#000000" font-family="NanumGothic" font-size="13" lengthAdjust="spacing" textLength="112" x="259.5" y="172.96">switch power on()</text><polygon fill="#181818" points="230.5,215.9,240.5,219.9,230.5,223.9,234.5,219.9" style="stroke:#181818;stroke-width:1.0;"/><line style="stroke:#181818;stroke-width:1.0;" x1="86.5" x2="236.5" y1="219.9" y2="219.9"/><text fill="#000000" font-family="NanumGothic" font-size="13" lengthAdjust="spacing" textLength="85" x="93.5" y="214.91">start charging</text><polygon fill="#181818" points="1028.5,259.8,1038.5,263.8,1028.5,267.8,1032.5,263.8" style="stroke:#181818;stroke-width:1.0;"/><line style="stroke:#181818;stroke-width:1.0;" x1="252.5" x2="1034.5" y1="263.8" y2="263.8"/><text fill="#000000" font-family="NanumGothic" font-size="13" lengthAdjust="spacing" textLength="391" x="259.5" y="243.86">StartTransaction.req(connectorId, idTag, meterStart, timestamp,</text><text fill="#000000" font-family="NanumGothic" font-size="13" lengthAdjust="spacing" textLength="93" x="259.5" y="258.81">[reservationId])</text><polygon fill="#181818" points="1023.5,303.7,1033.5,307.7,1023.5,311.7,1027.5,307.7" style="stroke:#181818;stroke-width:1.0;"/><line style="stroke:#181818;stroke-width:1.0;" x1="617.5" x2="1029.5" y1="307.7" y2="307.7"/><text fill="#000000" font-family="NanumGothic" font-size="13" lengthAdjust="spacing" textLength="391" x="624.5" y="287.76">StartTransaction.req(connectorId, idTag, meterStart, timestamp,</text><text fill="#000000" font-family="NanumGothic" font-size="13" lengthAdjust="spacing" textLength="93" x="624.5" y="302.71">[reservationId])</text><polygon fill="#181818" points="628.5,332.65,618.5,336.65,628.5,340.65,624.5,336.65" style="stroke:#181818;stroke-width:1.0;"/><line style="stroke:#181818;stroke-width:1.0;" x1="622.5" x2="1039.5" y1="336.65" y2="336.65"/><text fill="#000000" font-family="NanumGothic" font-size="13" lengthAdjust="spacing" textLength="284" x="634.5" y="331.66">StartTransaction.conf(idTagInfo, transactionId)</text><polygon fill="#181818" points="263.5,361.6,253.5,365.6,263.5,369.6,259.5,365.6" style="stroke:#181818;stroke-width:1.0;"/><line style="stroke:#181818;stroke-width:1.0;" x1="257.5" x2="611.5" y1="365.6" y2="365.6"/><text fill="#000000" font-family="NanumGothic" font-size="13" lengthAdjust="spacing" textLength="284" x="269.5" y="360.61">StartTransaction.conf(idTagInfo, transactionId)</text><path d="M56,380.6 L359,380.6 L359,387.55 L349,397.55 L56,397.55 L56,380.6 " fill="#EEEEEE" style="stroke:#000000;stroke-width:1.5;"/><rect fill="none" height="279.1" style="stroke:#000000;stroke-width:1.5;" width="779" x="56" y="380.6"/><text fill="#000000" font-family="NanumGothic" font-size="13" font-weight="bold" lengthAdjust="spacing" textLength="258" x="71" y="393.56">loop Change according to charging profile</text><line style="stroke:#000000;stroke-width:1.0;stroke-dasharray:2.0,2.0;" x1="56" x2="835" y1="398.55" y2="398.55"/><text fill="#000000" font-family="NanumGothic" font-size="11" font-weight="bold" lengthAdjust="spacing" textLength="227" x="61" y="408.67">[for each interval period in charging profile]</text><line style="stroke:#181818;stroke-width:1.0;" x1="252.5" x2="294.5" y1="452.075" y2="452.075"/><line style="stroke:#181818;stroke-width:1.0;" x1="294.5" x2="294.5" y1="452.075" y2="465.075"/><line style="stroke:#181818;stroke-width:1.0;" x1="253.5" x2="294.5" y1="465.075" y2="465.075"/><polygon fill="#181818" points="263.5,461.075,253.5,465.075,263.5,469.075,259.5,465.075" style="stroke:#181818;stroke-width:1.0;"/><text fill="#000000" font-family="NanumGothic" font-size="13" lengthAdjust="spacing" textLength="224" x="259.5" y="447.085">get limit from charging profile():limit</text><path d="M495,417.2 L495,486.2 L728,486.2 L728,427.2 L718,417.2 L495,417.2 " fill="#7D5393" style="stroke:#000000;stroke-width:0.5;"/><path d="M718,417.2 L718,427.2 L728,427.2 L718,417.2 " fill="#7D5393" style="stroke:#000000;stroke-width:0.5;"/><text fill="#FFFFFF" font-family="NanumGothic" font-size="13" lengthAdjust="spacing" textLength="212" x="501" y="434.16">Charge Point implements charging</text><text fill="#FFFFFF" font-family="NanumGothic" font-size="13" lengthAdjust="spacing" textLength="164" x="501" y="449.11">profile via the Control Pilot</text><text fill="#FFFFFF" font-family="NanumGothic" font-size="13" lengthAdjust="spacing" textLength="211" x="501" y="464.06">signal whenever maximum current</text><text fill="#FFFFFF" font-family="NanumGothic" font-size="13" lengthAdjust="spacing" textLength="100" x="501" y="479.01">needs changing.</text><polygon fill="#181818" points="97.5,508.95,87.5,512.95,97.5,516.95,93.5,512.95" style="stroke:#181818;stroke-width:1.0;"/><line style="stroke:#181818;stroke-width:1.0;" x1="91.5" x2="246.5" y1="512.95" y2="512.95"/><text fill="#000000" font-family="NanumGothic" font-size="13" lengthAdjust="spacing" textLength="132" x="103.5" y="507.96">set max current(limit)</text><path d="M189.5,527.95 L255.5,527.95 L255.5,534.9 L245.5,544.9 L189.5,544.9 L189.5,527.95 " fill="#EEEEEE" style="stroke:#000000;stroke-width:1.5;"/><rect fill="none" height="124.75" style="stroke:#000000;stroke-width:1.5;" width="635.5" x="189.5" y="527.95"/><text fill="#000000" font-family="NanumGothic" font-size="13" font-weight="bold" lengthAdjust="spacing" textLength="21" x="204.5" y="540.91">opt</text><text fill="#000000" font-family="NanumGothic" font-size="11" font-weight="bold" lengthAdjust="spacing" textLength="161" x="270.5" y="540.07">[Change of limits by controller]</text><polygon fill="#181818" points="263.5,561.85,253.5,565.85,263.5,569.85,259.5,565.85" style="stroke:#181818;stroke-width:1.0;"/><line style="stroke:#181818;stroke-width:1.0;" x1="257.5" x2="606.5" y1="565.85" y2="565.85"/><text fill="#000000" font-family="NanumGothic" font-size="13" lengthAdjust="spacing" textLength="341" x="269.5" y="560.86">SetChargingProfile.req(connectorId, csChargingProfiles)</text><path d="M622,578.85 L622,617.85 L815,617.85 L815,588.85 L805,578.85 L622,578.85 " fill="#7D5393" style="stroke:#000000;stroke-width:0.5;"/><path d="M805,578.85 L805,588.85 L815,588.85 L805,578.85 " fill="#7D5393" style="stroke:#000000;stroke-width:0.5;"/><text fill="#FFFFFF" font-family="NanumGothic" font-size="13" lengthAdjust="spacing" textLength="161" x="628" y="595.81">Local Controller decides to</text><text fill="#FFFFFF" font-family="NanumGothic" font-size="13" lengthAdjust="spacing" textLength="172" x="628" y="610.76">change the charging profile.</text><polygon fill="#181818" points="600.5,640.7,610.5,644.7,600.5,648.7,604.5,644.7" style="stroke:#181818;stroke-width:1.0;"/><line style="stroke:#181818;stroke-width:1.0;" x1="247.5" x2="606.5" y1="644.7" y2="644.7"/><text fill="#000000" font-family="NanumGothic" font-size="13" lengthAdjust="spacing" textLength="211" x="254.5" y="639.71">SetChargingProfile.conf(Accepted)</text><path d="M5,671.7 L5,695.7 L1074,695.7 L1074,681.7 L1064,671.7 L5,671.7 " fill="#7D5393" style="stroke:#000000;stroke-width:0.5;"/><path d="M1064,671.7 L1064,681.7 L1074,681.7 L1064,671.7 " fill="#7D5393" style="stroke:#000000;stroke-width:0.5;"/><text fill="#FFFFFF" font-family="NanumGothic" font-size="13" lengthAdjust="spacing" textLength="168" x="451.25" y="688.66">RFID or other Authorization</text><polygon fill="#181818" points="97.5,718.6,87.5,722.6,97.5,726.6,93.5,722.6" style="stroke:#181818;stroke-width:1.0;"/><line style="stroke:#181818;stroke-width:1.0;" x1="91.5" x2="246.5" y1="722.6" y2="722.6"/><text fill="#000000" font-family="NanumGothic" font-size="13" lengthAdjust="spacing" textLength="90" x="103.5" y="717.61">end charging()</text><line style="stroke:#181818;stroke-width:1.0;" x1="247.5" x2="289.5" y1="751.55" y2="751.55"/><line style="stroke:#181818;stroke-width:1.0;" x1="289.5" x2="289.5" y1="751.55" y2="764.55"/><line style="stroke:#181818;stroke-width:1.0;" x1="248.5" x2="289.5" y1="764.55" y2="764.55"/><polygon fill="#181818" points="258.5,760.55,248.5,764.55,258.5,768.55,254.5,764.55" style="stroke:#181818;stroke-width:1.0;"/><text fill="#000000" font-family="NanumGothic" font-size="13" lengthAdjust="spacing" textLength="114" x="254.5" y="746.56">switch power off()</text><polygon fill="#181818" points="595.5,804.45,605.5,808.45,595.5,812.45,599.5,808.45" style="stroke:#181818;stroke-width:1.0;"/><line style="stroke:#181818;stroke-width:1.0;" x1="252.5" x2="601.5" y1="808.45" y2="808.45"/><text fill="#000000" font-family="NanumGothic" font-size="13" lengthAdjust="spacing" textLength="268" x="259.5" y="788.51">StopTransaction.req(meterStop, timestamp,</text><text fill="#000000" font-family="NanumGothic" font-size="13" lengthAdjust="spacing" textLength="298" x="259.5" y="803.46">transactionId, reason, [idTag], [transactionData])</text><polygon fill="#181818" points="1023.5,848.35,1033.5,852.35,1023.5,856.35,1027.5,852.35" style="stroke:#181818;stroke-width:1.0;"/><line style="stroke:#181818;stroke-width:1.0;" x1="617.5" x2="1029.5" y1="852.35" y2="852.35"/><text fill="#000000" font-family="NanumGothic" font-size="13" lengthAdjust="spacing" textLength="268" x="624.5" y="832.41">StopTransaction.req(meterStop, timestamp,</text><text fill="#000000" font-family="NanumGothic" font-size="13" lengthAdjust="spacing" textLength="298" x="624.5" y="847.36">transactionId, reason, [idTag], [transactionData])</text><polygon fill="#181818" points="628.5,877.3,618.5,881.3,628.5,885.3,624.5,881.3" style="stroke:#181818;stroke-width:1.0;"/><line style="stroke:#181818;stroke-width:1.0;" x1="622.5" x2="1039.5" y1="881.3" y2="881.3"/><text fill="#000000" font-family="NanumGothic" font-size="13" lengthAdjust="spacing" textLength="206" x="634.5" y="876.31">StopTransaction.conf([idTagInfo])</text><polygon fill="#181818" points="258.5,906.25,248.5,910.25,258.5,914.25,254.5,910.25" style="stroke:#181818;stroke-width:1.0;"/><line style="stroke:#181818;stroke-width:1.0;" x1="252.5" x2="611.5" y1="910.25" y2="910.25"/><text fill="#000000" font-family="NanumGothic" font-size="13" lengthAdjust="spacing" textLength="206" x="264.5" y="905.26">StopTransaction.conf([idTagInfo])</text><!--SRC=[lLRDRjim3BxhARYU4i3B0_Gme6Wt8C0EnThrqkMWoRGjm1OrIKdNFVqeEQbjEUdM5MjE5iMVZnz_b7VQg7PR8lZmsEBARhjM2Aa2EJZxwj6TWVGGFuILBcYbhJG1pZxUfOkFTrFnPIDTZN1DseIaq0lIUQhvcPHiuP9CSDIs-pX9ECWotyXojhbvz06xtdilwYL260e8j4EN01VPDS2NJ-ihuCGeDAnpiGqDEVrB1ar6e2aXsWinWWplFt2AS0uU0tJo9wYjS-nqqUfEXsNaIUya1nsdcJiO7zdJWmwg0KiF387COYa4HvYh1KuTL9HfKm-1cF2P_t6MR0fm4urldJG-sf5PEVonK6GCnhgkom9qUIlh0ZeCw99s0K5to54xMm1yC_SEcS9TucPTRfPYW90NAJk_7QI1_MaRJACpd1pX-HmEGwaM2SBQLCIXXxjrkHGbdWfsBFj99LyHAcTQr8ws5beY6uCOdZIf5BcIMmG2FRKBM4ULRX44jXwXufPdfmqme4XW2nQTffBFCnF1O_9i_zOy2QdxeNBKpUmNo_DqosxID3fTD_5myDgl1j2TRR5Z9ltGur7f07od9V2G7lO3NEkMUZTUruOpU6ZGO9nqdahTRRl3P2OTWrWcnoOwNh5icEvPUi_DDy2uyECP1o0R3aMWggV4m_T7K4Ez8fO_zaVwtM2utFDmtLCm7n3bCnM_J15EjilaCaC_Ba_4Vyns3twqf9aEfKlqt6nx3TKp46kLjy8ggOoPdt5_P33dHAHvkL0ARS2oJ_b4LRAhUKuC9Yxw__bInDi34t6vl-0ngAeZ1dEAuZ8bc-_I_Tuacw_DoNefmA7qP0guJnjemnyZXIiPvER4itPwA_tb0_1McF_XCPX2Imrt_xIXDwzS_ozmdbDxeiz7Olu_y1i0]--></g></svg>