<?xml version="1.0" encoding="us-ascii" standalone="no"?><svg xmlns="http://www.w3.org/2000/svg" xmlns:xlink="http://www.w3.org/1999/xlink" contentStyleType="text/css" height="320px" preserveAspectRatio="none" style="width:1116px;height:320px;background:#FFFFFF;" version="1.1" viewBox="0 0 1116 320" width="1116px" zoomAndPan="magnify"><defs/><g><!--cluster Local group--><g id="cluster_Local group"><path d="M383.5,6 L458.5,6 A3.75,3.75 0 0 1 461,8.5 L468,28.1 L1106.5,28.1 A2.5,2.5 0 0 1 1109,30.6 L1109,310.5 A2.5,2.5 0 0 1 1106.5,313 L383.5,313 A2.5,2.5 0 0 1 381,310.5 L381,8.5 A2.5,2.5 0 0 1 383.5,6 " fill="none" style="stroke:#7D5393;stroke-width:1.5;"/><line style="stroke:#7D5393;stroke-width:1.5;" x1="381" x2="468" y1="28.1" y2="28.1"/><text fill="#000000" font-family="NanumGothic" font-size="14" font-weight="bold" lengthAdjust="spacing" textLength="74" x="385" y="20.88">Local group</text></g><!--entity LocalControllerCP00--><g id="elem_LocalControllerCP00"><polygon fill="#7D5393" points="412.5,139.9,422.5,129.9,551.5,129.9,551.5,182.1,541.5,192.1,412.5,192.1,412.5,139.9" style="stroke:#181818;stroke-width:1.5;"/><line style="stroke:#181818;stroke-width:1.5;" x1="541.5" x2="551.5" y1="139.9" y2="129.9"/><line style="stroke:#181818;stroke-width:1.5;" x1="412.5" x2="541.5" y1="139.9" y2="139.9"/><line style="stroke:#181818;stroke-width:1.5;" x1="541.5" x2="541.5" y1="139.9" y2="192.1"/><text fill="#FFFFFF" font-family="NanumGothic" font-size="14" lengthAdjust="spacing" textLength="99" x="427.5" y="162.78">Local Controller</text><text fill="#FFFFFF" font-family="NanumGothic" font-size="14" lengthAdjust="spacing" textLength="33" x="427.5" y="178.88">CP00</text></g><!--entity CP03--><g id="elem_CP03"><polygon fill="#7D5393" points="764,50.9,774,40.9,886,40.9,886,93.1,876,103.1,764,103.1,764,50.9" style="stroke:#181818;stroke-width:1.5;"/><line style="stroke:#181818;stroke-width:1.5;" x1="876" x2="886" y1="50.9" y2="40.9"/><line style="stroke:#181818;stroke-width:1.5;" x1="764" x2="876" y1="50.9" y2="50.9"/><line style="stroke:#181818;stroke-width:1.5;" x1="876" x2="876" y1="50.9" y2="103.1"/><text fill="#FFFFFF" font-family="NanumGothic" font-size="14" lengthAdjust="spacing" textLength="82" x="779" y="73.78">Charge Point</text><text fill="#FFFFFF" font-family="NanumGothic" font-size="14" lengthAdjust="spacing" textLength="33" x="779" y="89.88">CP03</text></g><!--entity CP02--><g id="elem_CP02"><polygon fill="#7D5393" points="764,147.9,774,137.9,886,137.9,886,190.1,876,200.1,764,200.1,764,147.9" style="stroke:#181818;stroke-width:1.5;"/><line style="stroke:#181818;stroke-width:1.5;" x1="876" x2="886" y1="147.9" y2="137.9"/><line style="stroke:#181818;stroke-width:1.5;" x1="764" x2="876" y1="147.9" y2="147.9"/><line style="stroke:#181818;stroke-width:1.5;" x1="876" x2="876" y1="147.9" y2="200.1"/><text fill="#FFFFFF" font-family="NanumGothic" font-size="14" lengthAdjust="spacing" textLength="82" x="779" y="170.78">Charge Point</text><text fill="#FFFFFF" font-family="NanumGothic" font-size="14" lengthAdjust="spacing" textLength="33" x="779" y="186.88">CP02</text></g><!--entity CP01--><g id="elem_CP01"><polygon fill="#7D5393" points="764,244.9,774,234.9,886,234.9,886,287.1,876,297.1,764,297.1,764,244.9" style="stroke:#181818;stroke-width:1.5;"/><line style="stroke:#181818;stroke-width:1.5;" x1="876" x2="886" y1="244.9" y2="234.9"/><line style="stroke:#181818;stroke-width:1.5;" x1="764" x2="876" y1="244.9" y2="244.9"/><line style="stroke:#181818;stroke-width:1.5;" x1="876" x2="876" y1="244.9" y2="297.1"/><text fill="#FFFFFF" font-family="NanumGothic" font-size="14" lengthAdjust="spacing" textLength="82" x="779" y="267.78">Charge Point</text><text fill="#FFFFFF" font-family="NanumGothic" font-size="14" lengthAdjust="spacing" textLength="33" x="779" y="283.88">CP01</text></g><!--entity EV1--><g id="elem_EV1"><ellipse cx="1078.5" cy="50.45" fill="#F1F1F1" rx="8" ry="8" style="stroke:#7D5393;stroke-width:1.5;"/><path d="M1078.5,58.45 L1078.5,85.45 M1065.5,66.45 L1091.5,66.45 M1078.5,85.45 L1065.5,100.45 M1078.5,85.45 L1091.5,100.45 " fill="none" style="stroke:#7D5393;stroke-width:1.5;"/><text fill="#000000" font-family="NanumGothic" font-size="14" lengthAdjust="spacing" textLength="25" x="1066" y="115.83">EV1</text></g><!--entity EV2--><g id="elem_EV2"><ellipse cx="1078.5" cy="163.45" fill="#F1F1F1" rx="8" ry="8" style="stroke:#7D5393;stroke-width:1.5;"/><path d="M1078.5,171.45 L1078.5,198.45 M1065.5,179.45 L1091.5,179.45 M1078.5,198.45 L1065.5,213.45 M1078.5,198.45 L1091.5,213.45 " fill="none" style="stroke:#7D5393;stroke-width:1.5;"/><text fill="#000000" font-family="NanumGothic" font-size="14" lengthAdjust="spacing" textLength="25" x="1066" y="228.83">EV2</text></g><g id="elem_GMN10"><path d="M397,227.1 L397,296.9 A0,0 0 0 0 397,296.9 L567,296.9 A0,0 0 0 0 567,296.9 L567,237.1 L557,227.1 L486,227.1 L482,192.4 L478,227.1 L397,227.1 A0,0 0 0 0 397,227.1 " fill="#7D5393" style="stroke:#000000;stroke-width:0.5;"/><path d="M557,227.1 L557,237.1 L567,237.1 L557,227.1 " fill="#7D5393" style="stroke:#000000;stroke-width:0.5;"/><text fill="#FFFFFF" font-family="NanumGothic" font-size="13" lengthAdjust="spacing" textLength="131" x="403" y="244.06">Local Controller limits</text><text fill="#FFFFFF" font-family="NanumGothic" font-size="13" lengthAdjust="spacing" textLength="128" x="403" y="259.01">power usage of total</text><text fill="#FFFFFF" font-family="NanumGothic" font-size="13" lengthAdjust="spacing" textLength="149" x="403" y="273.96">group to pre-configured</text><text fill="#FFFFFF" font-family="NanumGothic" font-size="13" lengthAdjust="spacing" textLength="117" x="403" y="288.91">maximum capacity.</text></g><!--entity CentralSystem--><g id="elem_CentralSystem"><polygon fill="#7D5393" points="16,147.95,26,137.95,152,137.95,152,174.05,142,184.05,16,184.05,16,147.95" style="stroke:#181818;stroke-width:1.5;"/><line style="stroke:#181818;stroke-width:1.5;" x1="142" x2="152" y1="147.95" y2="137.95"/><line style="stroke:#181818;stroke-width:1.5;" x1="16" x2="142" y1="147.95" y2="147.95"/><line style="stroke:#181818;stroke-width:1.5;" x1="142" x2="142" y1="147.95" y2="184.05"/><text fill="#FFFFFF" font-family="NanumGothic" font-size="14" lengthAdjust="spacing" textLength="96" x="31" y="170.83">Central System</text></g><!--link CentralSystem to LocalControllerCP00--><g id="link_CentralSystem_LocalControllerCP00"><path d="M152.18,161 C224.55,161 333.15,161 406.16,161 " fill="none" id="CentralSystem-to-LocalControllerCP00" style="stroke:#181818;stroke-width:1.0;"/><polygon fill="#181818" points="412.16,161,403.16,157,407.16,161,403.16,165,412.16,161" style="stroke:#181818;stroke-width:1.0;"/><text fill="#000000" font-family="NanumGothic" font-size="13" lengthAdjust="spacing" textLength="181" x="183" y="157.96">OCPP ChargePointMaxProfile</text></g><!--link LocalControllerCP00 to CP03--><g id="link_LocalControllerCP00_CP03"><path d="M551.6,143.1 C613.64,126.9 698.3044,104.8049 757.7044,89.3049 " fill="none" id="LocalControllerCP00-to-CP03" style="stroke:#181818;stroke-width:1.0;"/><polygon fill="#181818" points="763.51,87.79,753.7916,86.192,758.672,89.0524,755.8116,93.9328,763.51,87.79" style="stroke:#181818;stroke-width:1.0;"/><text fill="#000000" font-family="NanumGothic" font-size="13" lengthAdjust="spacing" textLength="135" x="598" y="92.83">OCPP charging profile</text></g><!--link LocalControllerCP00 to CP02--><g id="link_LocalControllerCP00_CP02"><path d="M551.6,162.61 C613.64,164.06 698.1116,166.0496 757.5116,167.4396 " fill="none" id="LocalControllerCP00-to-CP02" style="stroke:#181818;stroke-width:1.0;"/><polygon fill="#181818" points="763.51,167.58,754.606,163.3705,758.5114,167.463,754.4189,171.3684,763.51,167.58" style="stroke:#181818;stroke-width:1.0;"/><text fill="#000000" font-family="NanumGothic" font-size="13" lengthAdjust="spacing" textLength="135" x="598" y="160.78">OCPP charging profile</text></g><!--link LocalControllerCP00 to CP01--><g id="link_LocalControllerCP00_CP01"><path d="M551.6,182.12 C613.64,201.23 704.11,229.08 763.51,247.37 " fill="none" id="LocalControllerCP00-CP01" style="stroke:#181818;stroke-width:1.0;"/></g><!--link CP03 to EV1--><g id="link_CP03_EV1"><path d="M886.24,73.92 C945.24,75.79 1024.933,78.329 1057.893,79.379 " fill="none" id="CP03-to-EV1" style="stroke:#181818;stroke-width:1.0;stroke-dasharray:1.0,3.0;"/><polygon fill="#181818" points="1063.89,79.57,1055.0219,75.2855,1058.8925,79.4108,1054.7672,83.2814,1063.89,79.57" style="stroke:#181818;stroke-width:1.0;"/><text fill="#000000" font-family="NanumGothic" font-size="13" lengthAdjust="spacing" textLength="116" x="917" y="72.01">Control Pilot signal</text></g><!--link CP02 to EV2--><g id="link_CP02_EV2"><path d="M886.24,174.75 C945.24,180.38 1024.957,187.991 1057.917,191.131 " fill="none" id="CP02-to-EV2" style="stroke:#181818;stroke-width:1.0;stroke-dasharray:1.0,3.0;"/><polygon fill="#181818" points="1063.89,191.7,1055.3099,186.8645,1058.9125,191.2258,1054.5512,194.8284,1063.89,191.7" style="stroke:#181818;stroke-width:1.0;"/><text fill="#000000" font-family="NanumGothic" font-size="13" lengthAdjust="spacing" textLength="116" x="917" y="175.1">Control Pilot signal</text></g><!--link CP02 to CP03--><!--link CP01 to CP02--><!--SRC=[dLFBQiCm4BphAxQ-EpJkhOTUJ6yjDHHwIKCGakm89AsHroIXzD-xbfo-ab2eBpApCxEZNVlA1kL6RK2Xxp6OG1jjPHUbtmnqS6RHZzu9uKnBG0ZHTbi2RQDHP3484P2rHSswA1qy7mOolW0vm0nbH8WMdJOHYWTKpEiYZdq1Rm8W6sIuHjQWSoQ-Xhgvlav6gVHLcN3ngQktCdO66hI1akOcD-UNovpgoAakSvP7pd9g9XKXXxz_oJ2Vty5g1gkSYmnFgWTipqO7VdxV5fprbePKwt77m3X8ZiCMX2HTAgIPJJleeoaLXjPsOpGwrRpSMpzwKBANoj9XmQW9EeKHxqByM0QK6dUXl3iN3sxXgMuQoFD8utYK-oPYQvqHufpYw3RD_2XNazo6ZhDcvH_2wX_2j1pWkqrz4xJII6JqcZrvGsmvww2n3Wa6smMUPMftogykyUS6qn-msbgjJLYN-UF9JYU5fVW0]--></g></svg>