<?xml version="1.0" encoding="us-ascii" standalone="no"?><svg xmlns="http://www.w3.org/2000/svg" xmlns:xlink="http://www.w3.org/1999/xlink" contentStyleType="text/css" height="441px" preserveAspectRatio="none" style="width:725px;height:441px;background:#FFFFFF;" version="1.1" viewBox="0 0 725 441" width="725px" zoomAndPan="magnify"><defs/><g><rect fill="#FFFFFF" height="28.95" style="stroke:#181818;stroke-width:1.0;" width="10" x="55" y="67.05"/><rect fill="#FFFFFF" height="28.95" style="stroke:#181818;stroke-width:1.0;" width="10" x="55" y="173.9"/><rect fill="#FFFFFF" height="28.95" style="stroke:#181818;stroke-width:1.0;" width="10" x="55" y="280.75"/><rect fill="#FFFFFF" height="28.95" style="stroke:#181818;stroke-width:1.0;" width="10" x="55" y="387.6"/><rect fill="#FFFFFF" height="28.95" style="stroke:#181818;stroke-width:1.0;" width="10" x="659" y="67.05"/><rect fill="#FFFFFF" height="28.95" style="stroke:#181818;stroke-width:1.0;" width="10" x="659" y="173.9"/><rect fill="#FFFFFF" height="28.95" style="stroke:#181818;stroke-width:1.0;" width="10" x="659" y="280.75"/><rect fill="#FFFFFF" height="28.95" style="stroke:#181818;stroke-width:1.0;" width="10" x="659" y="387.6"/><line style="stroke:#181818;stroke-width:0.5;stroke-dasharray:5.0,5.0;" x1="60" x2="60" y1="36.1" y2="434.55"/><line style="stroke:#181818;stroke-width:0.5;stroke-dasharray:5.0,5.0;" x1="664" x2="664" y1="36.1" y2="434.55"/><rect fill="#7D5393" height="30.1" rx="2.5" ry="2.5" style="stroke:#181818;stroke-width:0.5;" width="96" x="12" y="5"/><text fill="#FFFFFF" font-family="NanumGothic" font-size="14" lengthAdjust="spacing" textLength="82" x="19" y="24.88">Charge Point</text><rect fill="#7D5393" height="30.1" rx="2.5" ry="2.5" style="stroke:#181818;stroke-width:0.5;" width="110" x="609" y="5"/><text fill="#FFFFFF" font-family="NanumGothic" font-size="14" lengthAdjust="spacing" textLength="96" x="616" y="24.88">Central System</text><rect fill="#FFFFFF" height="28.95" style="stroke:#181818;stroke-width:1.0;" width="10" x="55" y="67.05"/><rect fill="#FFFFFF" height="28.95" style="stroke:#181818;stroke-width:1.0;" width="10" x="55" y="173.9"/><rect fill="#FFFFFF" height="28.95" style="stroke:#181818;stroke-width:1.0;" width="10" x="55" y="280.75"/><rect fill="#FFFFFF" height="28.95" style="stroke:#181818;stroke-width:1.0;" width="10" x="55" y="387.6"/><rect fill="#FFFFFF" height="28.95" style="stroke:#181818;stroke-width:1.0;" width="10" x="659" y="67.05"/><rect fill="#FFFFFF" height="28.95" style="stroke:#181818;stroke-width:1.0;" width="10" x="659" y="173.9"/><rect fill="#FFFFFF" height="28.95" style="stroke:#181818;stroke-width:1.0;" width="10" x="659" y="280.75"/><rect fill="#FFFFFF" height="28.95" style="stroke:#181818;stroke-width:1.0;" width="10" x="659" y="387.6"/><polygon fill="#181818" points="647,63.05,657,67.05,647,71.05,651,67.05" style="stroke:#181818;stroke-width:1.0;"/><line style="stroke:#181818;stroke-width:1.0;" x1="65" x2="653" y1="67.05" y2="67.05"/><text fill="#000000" font-family="NanumGothic" font-size="13" lengthAdjust="spacing" textLength="126" x="72" y="62.06">Authorize.req(idTag)</text><polygon fill="#181818" points="71,92,61,96,71,100,67,96" style="stroke:#181818;stroke-width:1.0;"/><line style="stroke:#181818;stroke-width:1.0;" x1="65" x2="663" y1="96" y2="96"/><text fill="#000000" font-family="NanumGothic" font-size="13" lengthAdjust="spacing" textLength="157" x="77" y="91.01">Authorize.conf(idTagInfo)</text><path d="M5,109 L5,133 L115,133 L115,119 L105,109 L5,109 " fill="#7D5393" style="stroke:#000000;stroke-width:0.5;"/><path d="M105,109 L105,119 L115,119 L105,109 " fill="#7D5393" style="stroke:#000000;stroke-width:0.5;"/><text fill="#FFFFFF" font-family="NanumGothic" font-size="13" lengthAdjust="spacing" textLength="89" x="11" y="125.96">Start Charging</text><polygon fill="#181818" points="647,169.9,657,173.9,647,177.9,651,173.9" style="stroke:#181818;stroke-width:1.0;"/><line style="stroke:#181818;stroke-width:1.0;" x1="65" x2="653" y1="173.9" y2="173.9"/><text fill="#000000" font-family="NanumGothic" font-size="13" lengthAdjust="spacing" textLength="488" x="72" y="168.91">StartTransaction.req(connectorId, idTag, meterStart, timestamp, [reservationId])</text><polygon fill="#181818" points="71,198.85,61,202.85,71,206.85,67,202.85" style="stroke:#181818;stroke-width:1.0;"/><line style="stroke:#181818;stroke-width:1.0;" x1="65" x2="663" y1="202.85" y2="202.85"/><text fill="#000000" font-family="NanumGothic" font-size="13" lengthAdjust="spacing" textLength="284" x="77" y="197.86">StartTransaction.conf(idTagInfo, transactionId)</text><path d="M15,215.85 L15,239.85 L104,239.85 L104,225.85 L94,215.85 L15,215.85 " fill="#7D5393" style="stroke:#000000;stroke-width:0.5;"/><path d="M94,215.85 L94,225.85 L104,225.85 L94,215.85 " fill="#7D5393" style="stroke:#000000;stroke-width:0.5;"/><text fill="#FFFFFF" font-family="NanumGothic" font-size="13" lengthAdjust="spacing" textLength="68" x="21" y="232.81">Charging...</text><polygon fill="#181818" points="647,276.75,657,280.75,647,284.75,651,280.75" style="stroke:#181818;stroke-width:1.0;"/><line style="stroke:#181818;stroke-width:1.0;" x1="65" x2="653" y1="280.75" y2="280.75"/><text fill="#000000" font-family="NanumGothic" font-size="13" lengthAdjust="spacing" textLength="126" x="72" y="275.76">Authorize.req(idTag)</text><polygon fill="#181818" points="71,305.7,61,309.7,71,313.7,67,309.7" style="stroke:#181818;stroke-width:1.0;"/><line style="stroke:#181818;stroke-width:1.0;" x1="65" x2="663" y1="309.7" y2="309.7"/><text fill="#000000" font-family="NanumGothic" font-size="13" lengthAdjust="spacing" textLength="157" x="77" y="304.71">Authorize.conf(idTagInfo)</text><path d="M5,322.7 L5,346.7 L114,346.7 L114,332.7 L104,322.7 L5,322.7 " fill="#7D5393" style="stroke:#000000;stroke-width:0.5;"/><path d="M104,322.7 L104,332.7 L114,332.7 L104,322.7 " fill="#7D5393" style="stroke:#000000;stroke-width:0.5;"/><text fill="#FFFFFF" font-family="NanumGothic" font-size="13" lengthAdjust="spacing" textLength="88" x="11" y="339.66">Stop Charging</text><polygon fill="#181818" points="647,383.6,657,387.6,647,391.6,651,387.6" style="stroke:#181818;stroke-width:1.0;"/><line style="stroke:#181818;stroke-width:1.0;" x1="65" x2="653" y1="387.6" y2="387.6"/><text fill="#000000" font-family="NanumGothic" font-size="13" lengthAdjust="spacing" textLength="580" x="72" y="382.61">StopTransaction.req(meterStop, timestamp, transactionId, [reason], [idTag], [transactionData])</text><polygon fill="#181818" points="71,412.55,61,416.55,71,420.55,67,416.55" style="stroke:#181818;stroke-width:1.0;"/><line style="stroke:#181818;stroke-width:1.0;" x1="65" x2="663" y1="416.55" y2="416.55"/><text fill="#000000" font-family="NanumGothic" font-size="13" lengthAdjust="spacing" textLength="196" x="77" y="411.56">StopTransaction.conf(idTagInfo)</text><!--SRC=[nPB1ReCm38RlUGglfrLYFC0EawRjmcrIUwiuMCI5IE2mn5JgdduXR2gXrIv5setySMp_7_-3uQeTD86NSqjvFtIjKZqwCPNfaGKsRmswck336fODe8T9YET59R4uR65tzaBTL3j9awBKx2aylQItp_0wI6ET-QBSqUUZqNkijmehCISKIiPUnAH_See3PlFc_IlBnsb0mKUxLPfkZfdBgH6sGRCdSadzJWAEIJ5SAs8DO-72zw4nMXENIm1_umdxn_PxX-p7jIn7JC4AKoNM5Jg3Q2c3ZeHShCv0J4TUiEipE3Zov8ATyBRGvJrih-5UBPSo3ejSxWgz6l9Vs7cUNtYlWtlbEFvB7cr_8uwhu1bxBxFuaplR9x5BVdnC8NhBPVYAZiUFMSax2guUpNJLEsb_0m00]--></g></svg>