<?xml version="1.0" encoding="us-ascii" standalone="no"?><svg xmlns="http://www.w3.org/2000/svg" xmlns:xlink="http://www.w3.org/1999/xlink" contentStyleType="text/css" height="287px" preserveAspectRatio="none" style="width:713px;height:287px;background:#FFFFFF;" version="1.1" viewBox="0 0 713 287" width="713px" zoomAndPan="magnify"><defs/><g><!--entity CentralSystem--><g id="elem_CentralSystem"><polygon fill="#7D5393" points="26,121.05,36,111.05,162,111.05,162,147.15,152,157.15,26,157.15,26,121.05" style="stroke:#181818;stroke-width:1.5;"/><line style="stroke:#181818;stroke-width:1.5;" x1="152" x2="162" y1="121.05" y2="111.05"/><line style="stroke:#181818;stroke-width:1.5;" x1="26" x2="152" y1="121.05" y2="121.05"/><line style="stroke:#181818;stroke-width:1.5;" x1="152" x2="152" y1="121.05" y2="157.15"/><text fill="#FFFFFF" font-family="NanumGothic" font-size="14" lengthAdjust="spacing" textLength="96" x="41" y="143.93">Central System</text></g><!--entity CP10--><g id="elem_CP10"><polygon fill="#7D5393" points="379,16,389,6,501,6,501,58.2,491,68.2,379,68.2,379,16" style="stroke:#181818;stroke-width:1.5;"/><line style="stroke:#181818;stroke-width:1.5;" x1="491" x2="501" y1="16" y2="6"/><line style="stroke:#181818;stroke-width:1.5;" x1="379" x2="491" y1="16" y2="16"/><line style="stroke:#181818;stroke-width:1.5;" x1="491" x2="491" y1="16" y2="68.2"/><text fill="#FFFFFF" font-family="NanumGothic" font-size="14" lengthAdjust="spacing" textLength="82" x="394" y="38.88">Charge Point</text><text fill="#FFFFFF" font-family="NanumGothic" font-size="14" lengthAdjust="spacing" textLength="33" x="394" y="54.98">CP10</text></g><!--entity CP11--><g id="elem_CP11"><polygon fill="#7D5393" points="379,113,389,103,501,103,501,155.2,491,165.2,379,165.2,379,113" style="stroke:#181818;stroke-width:1.5;"/><line style="stroke:#181818;stroke-width:1.5;" x1="491" x2="501" y1="113" y2="103"/><line style="stroke:#181818;stroke-width:1.5;" x1="379" x2="491" y1="113" y2="113"/><line style="stroke:#181818;stroke-width:1.5;" x1="491" x2="491" y1="113" y2="165.2"/><text fill="#FFFFFF" font-family="NanumGothic" font-size="14" lengthAdjust="spacing" textLength="82" x="394" y="135.88">Charge Point</text><text fill="#FFFFFF" font-family="NanumGothic" font-size="14" lengthAdjust="spacing" textLength="33" x="394" y="151.98">CP11</text></g><!--entity CP12--><g id="elem_CP12"><polygon fill="#7D5393" points="379,218,389,208,501,208,501,260.2,491,270.2,379,270.2,379,218" style="stroke:#181818;stroke-width:1.5;"/><line style="stroke:#181818;stroke-width:1.5;" x1="491" x2="501" y1="218" y2="208"/><line style="stroke:#181818;stroke-width:1.5;" x1="379" x2="491" y1="218" y2="218"/><line style="stroke:#181818;stroke-width:1.5;" x1="491" x2="491" y1="218" y2="270.2"/><text fill="#FFFFFF" font-family="NanumGothic" font-size="14" lengthAdjust="spacing" textLength="82" x="394" y="240.88">Charge Point</text><text fill="#FFFFFF" font-family="NanumGothic" font-size="14" lengthAdjust="spacing" textLength="33" x="394" y="256.98">CP12</text></g><!--entity EV1--><g id="elem_EV1"><ellipse cx="693.5" cy="100.55" fill="#F1F1F1" rx="8" ry="8" style="stroke:#7D5393;stroke-width:1.5;"/><path d="M693.5,108.55 L693.5,135.55 M680.5,116.55 L706.5,116.55 M693.5,135.55 L680.5,150.55 M693.5,135.55 L706.5,150.55 " fill="none" style="stroke:#7D5393;stroke-width:1.5;"/><text fill="#000000" font-family="NanumGothic" font-size="14" lengthAdjust="spacing" textLength="25" x="681" y="165.93">EV1</text></g><!--entity EV2--><g id="elem_EV2"><ellipse cx="693.5" cy="213.55" fill="#F1F1F1" rx="8" ry="8" style="stroke:#7D5393;stroke-width:1.5;"/><path d="M693.5,221.55 L693.5,248.55 M680.5,229.55 L706.5,229.55 M693.5,248.55 L680.5,263.55 M693.5,248.55 L706.5,263.55 " fill="none" style="stroke:#7D5393;stroke-width:1.5;"/><text fill="#000000" font-family="NanumGothic" font-size="14" lengthAdjust="spacing" textLength="25" x="681" y="278.93">EV2</text></g><g id="elem_GMN8"><path d="M6,21.67 L6,76.52 A0,0 0 0 0 6,76.52 L90,76.52 L94,110.86 L98,76.52 L182,76.52 A0,0 0 0 0 182,76.52 L182,31.67 L172,21.67 L6,21.67 A0,0 0 0 0 6,21.67 " fill="#7D5393" style="stroke:#000000;stroke-width:0.5;"/><path d="M172,21.67 L172,31.67 L182,31.67 L172,21.67 " fill="#7D5393" style="stroke:#000000;stroke-width:0.5;"/><text fill="#FFFFFF" font-family="NanumGothic" font-size="13" lengthAdjust="spacing" textLength="130" x="12" y="38.63">CS receives a capacity</text><text fill="#FFFFFF" font-family="NanumGothic" font-size="13" lengthAdjust="spacing" textLength="155" x="12" y="53.58">forecast from an external</text><text fill="#FFFFFF" font-family="NanumGothic" font-size="13" lengthAdjust="spacing" textLength="102" x="12" y="68.53">party (e.g. DSO).</text></g><!--link CentralSystem to CP10--><g id="link_CentralSystem_CP10"><path d="M162.14,115.17 C225.01,97.44 318.08,71.2 378.65,54.12 " fill="none" id="CentralSystem-CP10" style="stroke:#181818;stroke-width:1.0;"/></g><!--link CentralSystem to CP11--><g id="link_CentralSystem_CP11"><path d="M162.14,134.1 C225.01,134.1 312.08,134.1 372.65,134.1 " fill="none" id="CentralSystem-to-CP11" style="stroke:#181818;stroke-width:1.0;"/><polygon fill="#181818" points="378.65,134.1,369.65,130.1,373.65,134.1,369.65,138.1,378.65,134.1" style="stroke:#181818;stroke-width:1.0;"/><text fill="#000000" font-family="NanumGothic" font-size="13" lengthAdjust="spacing" textLength="135" x="213" y="131.06">OCPP charging profile</text></g><!--link CentralSystem to CP12--><g id="link_CentralSystem_CP12"><path d="M162.14,154.59 C225.01,173.78 312.3414,200.4382 372.9114,218.9282 " fill="none" id="CentralSystem-to-CP12" style="stroke:#181818;stroke-width:1.0;"/><polygon fill="#181818" points="378.65,220.68,371.21,214.2266,373.8679,219.2202,368.8743,221.878,378.65,220.68" style="stroke:#181818;stroke-width:1.0;"/><text fill="#000000" font-family="NanumGothic" font-size="13" lengthAdjust="spacing" textLength="135" x="213" y="168.02">OCPP charging profile</text></g><!--link CP11 to EV1--><g id="link_CP11_EV1"><path d="M501.24,133.14 C560.24,132.2 639.9307,130.9346 672.8907,130.4146 " fill="none" id="CP11-to-EV1" style="stroke:#181818;stroke-width:1.0;stroke-dasharray:1.0,3.0;"/><polygon fill="#181818" points="678.89,130.32,669.828,126.4625,673.8906,130.3989,669.9542,134.4615,678.89,130.32" style="stroke:#181818;stroke-width:1.0;"/><text fill="#000000" font-family="NanumGothic" font-size="13" lengthAdjust="spacing" textLength="116" x="532" y="127.83">Control Pilot signal</text></g><!--link CP12 to EV2--><g id="link_CP12_EV2"><path d="M501.24,240.06 C560.24,241 639.9307,242.2654 672.8907,242.7854 " fill="none" id="CP12-to-EV2" style="stroke:#181818;stroke-width:1.0;stroke-dasharray:1.0,3.0;"/><polygon fill="#181818" points="678.89,242.88,669.9542,238.7385,673.8906,242.8011,669.828,246.7375,678.89,242.88" style="stroke:#181818;stroke-width:1.0;"/><text fill="#000000" font-family="NanumGothic" font-size="13" lengthAdjust="spacing" textLength="116" x="532" y="237.58">Control Pilot signal</text></g><!--SRC=[TP2zJiGm48HxFyMG2egBI4eAca1zaIBH03fPzYPdoV56pXwGjyT9xa3yfB8r-ytkpbwvOFp94Wpt0mSASh1ETr7tXr4cJ_bmwhrIdbg1CABhZWBh8Xbn79GAdBnPbNnHUpJJADHdq2FEqgfySKSTEqBDBiXBgEhYTcNJPuieBaInHPGNebHA6-68xF5fjQNtMohFKZbl8vJY3E3srw90rI2b8_T68pIC7hHnCgL2oqdNew2Dt4C7q8TG3Dgdsg2ZJBYclClnqEnlSaN1OXwZr8y1s5b-3xiryd-L-oKhxh2lwXfc3kj2Xo5owpnjMyfDYreQBkYpPH6ohycIJfCS5QTsx54xpuBHTNESfTjVljpYFm40]--></g></svg>