<?xml version="1.0" encoding="us-ascii" standalone="no"?><svg xmlns="http://www.w3.org/2000/svg" xmlns:xlink="http://www.w3.org/1999/xlink" contentStyleType="text/css" height="429px" preserveAspectRatio="none" style="width:709px;height:429px;background:#FFFFFF;" version="1.1" viewBox="0 0 709 429" width="709px" zoomAndPan="magnify"><defs/><g><rect fill="#FFFFFF" height="28.95" style="stroke:#181818;stroke-width:1.0;" width="10" x="86" y="67.05"/><rect fill="#FFFFFF" height="28.95" style="stroke:#181818;stroke-width:1.0;" width="10" x="86" y="159.9"/><rect fill="#FFFFFF" height="28.95" style="stroke:#181818;stroke-width:1.0;" width="10" x="86" y="252.75"/><rect fill="#FFFFFF" height="28.95" style="stroke:#181818;stroke-width:1.0;" width="10" x="86" y="375.5"/><rect fill="#FFFFFF" height="28.95" style="stroke:#181818;stroke-width:1.0;" width="10" x="643" y="67.05"/><rect fill="#FFFFFF" height="28.95" style="stroke:#181818;stroke-width:1.0;" width="10" x="643" y="159.9"/><rect fill="#FFFFFF" height="28.95" style="stroke:#181818;stroke-width:1.0;" width="10" x="643" y="252.75"/><rect fill="#FFFFFF" height="28.95" style="stroke:#181818;stroke-width:1.0;" width="10" x="643" y="375.5"/><line style="stroke:#181818;stroke-width:0.5;stroke-dasharray:5.0,5.0;" x1="91" x2="91" y1="36.1" y2="422.45"/><line style="stroke:#181818;stroke-width:0.5;stroke-dasharray:5.0,5.0;" x1="648" x2="648" y1="36.1" y2="422.45"/><rect fill="#7D5393" height="30.1" rx="2.5" ry="2.5" style="stroke:#181818;stroke-width:0.5;" width="96" x="43" y="5"/><text fill="#FFFFFF" font-family="NanumGothic" font-size="14" lengthAdjust="spacing" textLength="82" x="50" y="24.88">Charge Point</text><rect fill="#7D5393" height="30.1" rx="2.5" ry="2.5" style="stroke:#181818;stroke-width:0.5;" width="110" x="593" y="5"/><text fill="#FFFFFF" font-family="NanumGothic" font-size="14" lengthAdjust="spacing" textLength="96" x="600" y="24.88">Central System</text><rect fill="#FFFFFF" height="28.95" style="stroke:#181818;stroke-width:1.0;" width="10" x="86" y="67.05"/><rect fill="#FFFFFF" height="28.95" style="stroke:#181818;stroke-width:1.0;" width="10" x="86" y="159.9"/><rect fill="#FFFFFF" height="28.95" style="stroke:#181818;stroke-width:1.0;" width="10" x="86" y="252.75"/><rect fill="#FFFFFF" height="28.95" style="stroke:#181818;stroke-width:1.0;" width="10" x="86" y="375.5"/><rect fill="#FFFFFF" height="28.95" style="stroke:#181818;stroke-width:1.0;" width="10" x="643" y="67.05"/><rect fill="#FFFFFF" height="28.95" style="stroke:#181818;stroke-width:1.0;" width="10" x="643" y="159.9"/><rect fill="#FFFFFF" height="28.95" style="stroke:#181818;stroke-width:1.0;" width="10" x="643" y="252.75"/><rect fill="#FFFFFF" height="28.95" style="stroke:#181818;stroke-width:1.0;" width="10" x="643" y="375.5"/><polygon fill="#181818" points="631,63.05,641,67.05,631,71.05,635,67.05" style="stroke:#181818;stroke-width:1.0;"/><line style="stroke:#181818;stroke-width:1.0;" x1="96" x2="637" y1="67.05" y2="67.05"/><text fill="#000000" font-family="NanumGothic" font-size="13" lengthAdjust="spacing" textLength="410" x="103" y="62.06">UpdateFirmware.req(location, retrieveDate, [retries], [retryInterval])</text><polygon fill="#181818" points="102,92,92,96,102,100,98,96" style="stroke:#181818;stroke-width:1.0;"/><line style="stroke:#181818;stroke-width:1.0;stroke-dasharray:2.0,2.0;" x1="96" x2="647" y1="96" y2="96"/><text fill="#000000" font-family="NanumGothic" font-size="13" lengthAdjust="spacing" textLength="142" x="108" y="91.01">UpdateFirmware.conf()</text><path d="M5,109 L5,133 L178,133 L178,119 L168,109 L5,109 " fill="#7D5393" style="stroke:#000000;stroke-width:0.5;"/><path d="M168,109 L168,119 L178,119 L168,109 " fill="#7D5393" style="stroke:#000000;stroke-width:0.5;"/><text fill="#FFFFFF" font-family="NanumGothic" font-size="13" lengthAdjust="spacing" textLength="152" x="11" y="125.96">Downloading firmware...</text><polygon fill="#181818" points="631,155.9,641,159.9,631,163.9,635,159.9" style="stroke:#181818;stroke-width:1.0;"/><line style="stroke:#181818;stroke-width:1.0;" x1="96" x2="637" y1="159.9" y2="159.9"/><text fill="#000000" font-family="NanumGothic" font-size="13" lengthAdjust="spacing" textLength="194" x="103" y="154.91">FirmwareStatusNotification.req(</text><text fill="#000000" font-family="NanumGothic" font-size="13" font-weight="bold" lengthAdjust="spacing" textLength="122" x="301" y="154.91">status: Downloaded</text><text fill="#000000" font-family="NanumGothic" font-size="13" lengthAdjust="spacing" textLength="5" x="427" y="154.91">)</text><polygon fill="#181818" points="102,184.85,92,188.85,102,192.85,98,188.85" style="stroke:#181818;stroke-width:1.0;"/><line style="stroke:#181818;stroke-width:1.0;stroke-dasharray:2.0,2.0;" x1="96" x2="647" y1="188.85" y2="188.85"/><text fill="#000000" font-family="NanumGothic" font-size="13" lengthAdjust="spacing" textLength="206" x="108" y="183.86">FirmwareStatusNotification.conf()</text><path d="M47,201.85 L47,225.85 L134,225.85 L134,211.85 L124,201.85 L47,201.85 " fill="#7D5393" style="stroke:#000000;stroke-width:0.5;"/><path d="M124,201.85 L124,211.85 L134,211.85 L124,201.85 " fill="#7D5393" style="stroke:#000000;stroke-width:0.5;"/><text fill="#FFFFFF" font-family="NanumGothic" font-size="13" lengthAdjust="spacing" textLength="66" x="53" y="218.81">Installing...</text><polygon fill="#181818" points="631,248.75,641,252.75,631,256.75,635,252.75" style="stroke:#181818;stroke-width:1.0;"/><line style="stroke:#181818;stroke-width:1.0;" x1="96" x2="637" y1="252.75" y2="252.75"/><text fill="#000000" font-family="NanumGothic" font-size="13" lengthAdjust="spacing" textLength="194" x="103" y="247.76">FirmwareStatusNotification.req(</text><text fill="#000000" font-family="NanumGothic" font-size="13" font-weight="bold" lengthAdjust="spacing" textLength="95" x="301" y="247.76">status: Installed</text><text fill="#000000" font-family="NanumGothic" font-size="13" lengthAdjust="spacing" textLength="5" x="400" y="247.76">)</text><polygon fill="#181818" points="102,277.7,92,281.7,102,285.7,98,281.7" style="stroke:#181818;stroke-width:1.0;"/><line style="stroke:#181818;stroke-width:1.0;stroke-dasharray:2.0,2.0;" x1="96" x2="647" y1="281.7" y2="281.7"/><text fill="#000000" font-family="NanumGothic" font-size="13" lengthAdjust="spacing" textLength="206" x="108" y="276.71">FirmwareStatusNotification.conf()</text><path d="M36,294.7 L36,318.7 L145,318.7 L145,304.7 L135,294.7 L36,294.7 " fill="#7D5393" style="stroke:#000000;stroke-width:0.5;"/><path d="M135,294.7 L135,304.7 L145,304.7 L135,294.7 " fill="#7D5393" style="stroke:#000000;stroke-width:0.5;"/><text fill="#FFFFFF" font-family="NanumGothic" font-size="13" lengthAdjust="spacing" textLength="88" x="42" y="311.66">Stop Charging</text><polygon fill="#181818" points="631,371.5,641,375.5,631,379.5,635,375.5" style="stroke:#181818;stroke-width:1.0;"/><line style="stroke:#181818;stroke-width:1.0;" x1="96" x2="637" y1="375.5" y2="375.5"/><text fill="#000000" font-family="NanumGothic" font-size="13" lengthAdjust="spacing" textLength="533" x="103" y="340.61">BootNotification.req(chargePointModel, chargePointVendor, [chargeBoxSerialNumber],</text><text fill="#000000" font-family="NanumGothic" font-size="13" lengthAdjust="spacing" textLength="369" x="231" y="355.56">[chargePointSerialNumber],[firmwareVersion], [iccid], [imsi],</text><text fill="#000000" font-family="NanumGothic" font-size="13" lengthAdjust="spacing" textLength="214" x="231" y="370.51">[meterSerialNumber], [meterType])</text><polygon fill="#181818" points="102,400.45,92,404.45,102,408.45,98,404.45" style="stroke:#181818;stroke-width:1.0;"/><line style="stroke:#181818;stroke-width:1.0;stroke-dasharray:2.0,2.0;" x1="96" x2="647" y1="404.45" y2="404.45"/><text fill="#000000" font-family="NanumGothic" font-size="13" lengthAdjust="spacing" textLength="369" x="108" y="399.46">BootNotification.conf(currentTime, heartbeatInterval, status)</text><!--SRC=[rLGzRy8m4DtpAwvCW49-04C7YYen55KAPG46unnWoR5J-nAQVryJ4v40eaLbgRBudk_ZvPtldeJYCayGB9KIeonFPH1ap93W8cEAeFEoOsQByAw5eWum2nwex3DFL6IOXBYqXAdtzP17Wg0H2eFdzkqGFhA44RuAa-wPmSZWPrTgpaXe5O91CW8B73kN41RUjAlZiPmeGbCmkUe5Z9Ced5UBw0ayOzGqON0WrU1umObhjUdsWWIl5cd2xJ9AEqmNQ5h-OxrNKhD4g2riwX9H5A1Au11nMp37hkOL4wFSJZM9ZV22LUf1ls-hco7KfJ3fz-5F6bqHwGQDnmesKUv_f7HwjMHwc4h7_FzRf9XqvW6dqsz56cbD5yhmKyYRJb26q43cBhCsRluyDj9VCHh1v3HFrsXMuL8joN-BHbJRPr6_-ZaQwweUnbbmBfBga5hHIfEYc_5s0l3WhCpGJVvT7VknOHUIL6tYkJ4kSYPIjuPswFRV6XdLwoS4_vGSbpkx-Gq0]--></g></svg>