<?xml version="1.0" encoding="us-ascii" standalone="no"?><svg xmlns="http://www.w3.org/2000/svg" xmlns:xlink="http://www.w3.org/1999/xlink" contentStyleType="text/css" height="861px" preserveAspectRatio="none" style="width:1038px;height:861px;background:#FFFFFF;" version="1.1" viewBox="0 0 1038 861" width="1038px" zoomAndPan="magnify"><defs/><g><rect fill="#FFFFFF" height="616.6" style="stroke:#181818;stroke-width:1.0;" width="10" x="76.5" y="219.9"/><rect fill="#FFFFFF" height="100.9" style="stroke:#181818;stroke-width:1.0;" width="10" x="242.5" y="149"/><rect fill="#FFFFFF" height="176.3" style="stroke:#181818;stroke-width:1.0;" width="10" x="242.5" y="305.85"/><rect fill="#FFFFFF" height="78.85" style="stroke:#181818;stroke-width:1.0;" width="10" x="242.5" y="564.95"/><rect fill="#FFFFFF" height="28.95" style="stroke:#181818;stroke-width:1.0;" width="10" x="242.5" y="807.55"/><rect fill="#FFFFFF" height="28.95" style="stroke:#181818;stroke-width:1.0;" width="10" x="803.5" y="305.85"/><rect fill="#FFFFFF" height="78.85" style="stroke:#181818;stroke-width:1.0;" width="10" x="803.5" y="564.95"/><rect fill="#FFFFFF" height="28.95" style="stroke:#181818;stroke-width:1.0;" width="10" x="803.5" y="807.55"/><rect fill="none" height="309" style="stroke:#000000;stroke-width:1.5;" width="975" x="56" y="349.8"/><rect fill="none" height="154.65" style="stroke:#000000;stroke-width:1.5;" width="831.5" x="189.5" y="497.15"/><line style="stroke:#181818;stroke-width:0.5;stroke-dasharray:5.0,5.0;" x1="38" x2="38" y1="83.1" y2="854.5"/><line style="stroke:#181818;stroke-width:0.5;stroke-dasharray:5.0,5.0;" x1="81" x2="81" y1="83.1" y2="854.5"/><line style="stroke:#181818;stroke-width:0.5;stroke-dasharray:5.0,5.0;" x1="247.5" x2="247.5" y1="83.1" y2="854.5"/><line style="stroke:#181818;stroke-width:0.5;stroke-dasharray:5.0,5.0;" x1="808.5" x2="808.5" y1="83.1" y2="854.5"/><text fill="#000000" font-family="NanumGothic" font-size="14" lengthAdjust="spacing" textLength="29" x="21" y="79.88">User</text><ellipse cx="38.5" cy="14.5" fill="#E2E2F0" rx="8" ry="8" style="stroke:#7D5393;stroke-width:1.5;"/><path d="M38.5,22.5 L38.5,49.5 M25.5,30.5 L51.5,30.5 M38.5,49.5 L25.5,64.5 M38.5,49.5 L51.5,64.5 " fill="none" style="stroke:#7D5393;stroke-width:1.5;"/><rect fill="#7D5393" height="30.1" rx="2.5" ry="2.5" style="stroke:#181818;stroke-width:0.5;" width="31" x="66" y="52"/><text fill="#FFFFFF" font-family="NanumGothic" font-size="14" lengthAdjust="spacing" textLength="17" x="73" y="71.88">EV</text><rect fill="#7D5393" height="30.1" rx="2.5" ry="2.5" style="stroke:#181818;stroke-width:0.5;" width="96" x="199.5" y="52"/><text fill="#FFFFFF" font-family="NanumGothic" font-size="14" lengthAdjust="spacing" textLength="82" x="206.5" y="71.88">Charge Point</text><rect fill="#7D5393" height="30.1" rx="2.5" ry="2.5" style="stroke:#181818;stroke-width:0.5;" width="110" x="753.5" y="52"/><text fill="#FFFFFF" font-family="NanumGothic" font-size="14" lengthAdjust="spacing" textLength="96" x="760.5" y="71.88">Central System</text><rect fill="#FFFFFF" height="616.6" style="stroke:#181818;stroke-width:1.0;" width="10" x="76.5" y="219.9"/><rect fill="#FFFFFF" height="100.9" style="stroke:#181818;stroke-width:1.0;" width="10" x="242.5" y="149"/><rect fill="#FFFFFF" height="176.3" style="stroke:#181818;stroke-width:1.0;" width="10" x="242.5" y="305.85"/><rect fill="#FFFFFF" height="78.85" style="stroke:#181818;stroke-width:1.0;" width="10" x="242.5" y="564.95"/><rect fill="#FFFFFF" height="28.95" style="stroke:#181818;stroke-width:1.0;" width="10" x="242.5" y="807.55"/><rect fill="#FFFFFF" height="28.95" style="stroke:#181818;stroke-width:1.0;" width="10" x="803.5" y="305.85"/><rect fill="#FFFFFF" height="78.85" style="stroke:#181818;stroke-width:1.0;" width="10" x="803.5" y="564.95"/><rect fill="#FFFFFF" height="28.95" style="stroke:#181818;stroke-width:1.0;" width="10" x="803.5" y="807.55"/><path d="M5,98.1 L5,122.1 L842,122.1 L842,108.1 L832,98.1 L5,98.1 " fill="#7D5393" style="stroke:#000000;stroke-width:0.5;"/><path d="M832,98.1 L832,108.1 L842,108.1 L832,98.1 " fill="#7D5393" style="stroke:#000000;stroke-width:0.5;"/><text fill="#FFFFFF" font-family="NanumGothic" font-size="13" lengthAdjust="spacing" textLength="168" x="335.25" y="115.06">RFID or other Authorization</text><polygon fill="#181818" points="92.5,145,82.5,149,92.5,153,88.5,149" style="stroke:#181818;stroke-width:1.0;"/><line style="stroke:#181818;stroke-width:1.0;" x1="86.5" x2="241.5" y1="149" y2="149"/><text fill="#000000" font-family="NanumGothic" font-size="13" lengthAdjust="spacing" textLength="132" x="98.5" y="144.01">set max current(limit)</text><line style="stroke:#181818;stroke-width:1.0;" x1="252.5" x2="294.5" y1="177.95" y2="177.95"/><line style="stroke:#181818;stroke-width:1.0;" x1="294.5" x2="294.5" y1="177.95" y2="190.95"/><line style="stroke:#181818;stroke-width:1.0;" x1="253.5" x2="294.5" y1="190.95" y2="190.95"/><polygon fill="#181818" points="263.5,186.95,253.5,190.95,263.5,194.95,259.5,190.95" style="stroke:#181818;stroke-width:1.0;"/><text fill="#000000" font-family="NanumGothic" font-size="13" lengthAdjust="spacing" textLength="112" x="259.5" y="172.96">switch power on()</text><polygon fill="#181818" points="230.5,215.9,240.5,219.9,230.5,223.9,234.5,219.9" style="stroke:#181818;stroke-width:1.0;"/><line style="stroke:#181818;stroke-width:1.0;" x1="86.5" x2="236.5" y1="219.9" y2="219.9"/><text fill="#000000" font-family="NanumGothic" font-size="13" lengthAdjust="spacing" textLength="85" x="93.5" y="214.91">start charging</text><polygon fill="#181818" points="791.5,301.85,801.5,305.85,791.5,309.85,795.5,305.85" style="stroke:#181818;stroke-width:1.0;"/><line style="stroke:#181818;stroke-width:1.0;" x1="252.5" x2="797.5" y1="305.85" y2="305.85"/><text fill="#000000" font-family="NanumGothic" font-size="13" lengthAdjust="spacing" textLength="488" x="259.5" y="300.86">StartTransaction.req(connectorId, idTag, meterStart, timestamp, [reservationId])</text><polygon fill="#181818" points="263.5,330.8,253.5,334.8,263.5,338.8,259.5,334.8" style="stroke:#181818;stroke-width:1.0;"/><line style="stroke:#181818;stroke-width:1.0;stroke-dasharray:2.0,2.0;" x1="257.5" x2="807.5" y1="334.8" y2="334.8"/><text fill="#000000" font-family="NanumGothic" font-size="13" lengthAdjust="spacing" textLength="284" x="269.5" y="329.81">StartTransaction.conf(idTagInfo, transactionId)</text><path d="M56,349.8 L359,349.8 L359,356.75 L349,366.75 L56,366.75 L56,349.8 " fill="#EEEEEE" style="stroke:#000000;stroke-width:1.5;"/><rect fill="none" height="309" style="stroke:#000000;stroke-width:1.5;" width="975" x="56" y="349.8"/><text fill="#000000" font-family="NanumGothic" font-size="13" font-weight="bold" lengthAdjust="spacing" textLength="258" x="71" y="362.76">loop Change according to charging profile</text><line style="stroke:#000000;stroke-width:1.0;stroke-dasharray:2.0,2.0;" x1="56" x2="1031" y1="367.75" y2="367.75"/><text fill="#000000" font-family="NanumGothic" font-size="11" font-weight="bold" lengthAdjust="spacing" textLength="227" x="61" y="377.87">[for each interval period in charging profile]</text><line style="stroke:#181818;stroke-width:1.0;" x1="252.5" x2="294.5" y1="421.275" y2="421.275"/><line style="stroke:#181818;stroke-width:1.0;" x1="294.5" x2="294.5" y1="421.275" y2="434.275"/><line style="stroke:#181818;stroke-width:1.0;" x1="253.5" x2="294.5" y1="434.275" y2="434.275"/><polygon fill="#181818" points="263.5,430.275,253.5,434.275,263.5,438.275,259.5,434.275" style="stroke:#181818;stroke-width:1.0;"/><text fill="#000000" font-family="NanumGothic" font-size="13" lengthAdjust="spacing" textLength="224" x="259.5" y="416.285">get limit from charging profile():limit</text><path d="M495,386.4 L495,455.4 L728,455.4 L728,396.4 L718,386.4 L495,386.4 " fill="#7D5393" style="stroke:#000000;stroke-width:0.5;"/><path d="M718,386.4 L718,396.4 L728,396.4 L718,386.4 " fill="#7D5393" style="stroke:#000000;stroke-width:0.5;"/><text fill="#FFFFFF" font-family="NanumGothic" font-size="13" lengthAdjust="spacing" textLength="212" x="501" y="403.36">Charge Point implements charging</text><text fill="#FFFFFF" font-family="NanumGothic" font-size="13" lengthAdjust="spacing" textLength="164" x="501" y="418.31">profile via the Control Pilot</text><text fill="#FFFFFF" font-family="NanumGothic" font-size="13" lengthAdjust="spacing" textLength="211" x="501" y="433.26">signal whenever maximum current</text><text fill="#FFFFFF" font-family="NanumGothic" font-size="13" lengthAdjust="spacing" textLength="100" x="501" y="448.21">needs changing.</text><polygon fill="#181818" points="97.5,478.15,87.5,482.15,97.5,486.15,93.5,482.15" style="stroke:#181818;stroke-width:1.0;"/><line style="stroke:#181818;stroke-width:1.0;" x1="91.5" x2="246.5" y1="482.15" y2="482.15"/><text fill="#000000" font-family="NanumGothic" font-size="13" lengthAdjust="spacing" textLength="132" x="103.5" y="477.16">set max current(limit)</text><path d="M189.5,497.15 L255.5,497.15 L255.5,504.1 L245.5,514.1 L189.5,514.1 L189.5,497.15 " fill="#EEEEEE" style="stroke:#000000;stroke-width:1.5;"/><rect fill="none" height="154.65" style="stroke:#000000;stroke-width:1.5;" width="831.5" x="189.5" y="497.15"/><text fill="#000000" font-family="NanumGothic" font-size="13" font-weight="bold" lengthAdjust="spacing" textLength="21" x="204.5" y="510.11">opt</text><text fill="#000000" font-family="NanumGothic" font-size="11" font-weight="bold" lengthAdjust="spacing" textLength="187" x="270.5" y="509.27">[Change of limits by Central System]</text><polygon fill="#181818" points="263.5,560.95,253.5,564.95,263.5,568.95,259.5,564.95" style="stroke:#181818;stroke-width:1.0;"/><line style="stroke:#181818;stroke-width:1.0;" x1="257.5" x2="802.5" y1="564.95" y2="564.95"/><text fill="#000000" font-family="NanumGothic" font-size="13" lengthAdjust="spacing" textLength="433" x="269.5" y="530.06">SetChargingProfile.req(ConnectorId, ChargingProfileId, [transactionId],</text><text fill="#000000" font-family="NanumGothic" font-size="13" font-weight="bold" lengthAdjust="spacing" textLength="206" x="269.5" y="545.01">ChargingProfilePurpose: TxProfile</text><text fill="#000000" font-family="NanumGothic" font-size="13" lengthAdjust="spacing" textLength="303" x="479.5" y="545.01">, ChargingProfileType, recurrencyKind, ValidFrom,</text><text fill="#000000" font-family="NanumGothic" font-size="13" lengthAdjust="spacing" textLength="168" x="269.5" y="559.96">ValidTo, ChargingSchedule)</text><path d="M818,577.95 L818,616.95 L1011,616.95 L1011,587.95 L1001,577.95 L818,577.95 " fill="#7D5393" style="stroke:#000000;stroke-width:0.5;"/><path d="M1001,577.95 L1001,587.95 L1011,587.95 L1001,577.95 " fill="#7D5393" style="stroke:#000000;stroke-width:0.5;"/><text fill="#FFFFFF" font-family="NanumGothic" font-size="13" lengthAdjust="spacing" textLength="157" x="824" y="594.91">Central System decides to</text><text fill="#FFFFFF" font-family="NanumGothic" font-size="13" lengthAdjust="spacing" textLength="172" x="824" y="609.86">change the charging profile.</text><polygon fill="#181818" points="796.5,639.8,806.5,643.8,796.5,647.8,800.5,643.8" style="stroke:#181818;stroke-width:1.0;"/><line style="stroke:#181818;stroke-width:1.0;stroke-dasharray:2.0,2.0;" x1="247.5" x2="802.5" y1="643.8" y2="643.8"/><text fill="#000000" font-family="NanumGothic" font-size="13" lengthAdjust="spacing" textLength="211" x="254.5" y="638.81">SetChargingProfile.conf(Accepted)</text><path d="M5,670.8 L5,694.8 L842,694.8 L842,680.8 L832,670.8 L5,670.8 " fill="#7D5393" style="stroke:#000000;stroke-width:0.5;"/><path d="M832,670.8 L832,680.8 L842,680.8 L832,670.8 " fill="#7D5393" style="stroke:#000000;stroke-width:0.5;"/><text fill="#FFFFFF" font-family="NanumGothic" font-size="13" lengthAdjust="spacing" textLength="168" x="335.25" y="687.76">RFID or other Authorization</text><polygon fill="#181818" points="97.5,717.7,87.5,721.7,97.5,725.7,93.5,721.7" style="stroke:#181818;stroke-width:1.0;"/><line style="stroke:#181818;stroke-width:1.0;stroke-dasharray:2.0,2.0;" x1="91.5" x2="246.5" y1="721.7" y2="721.7"/><text fill="#000000" font-family="NanumGothic" font-size="13" lengthAdjust="spacing" textLength="90" x="103.5" y="716.71">end charging()</text><line style="stroke:#181818;stroke-width:1.0;" x1="247.5" x2="289.5" y1="750.65" y2="750.65"/><line style="stroke:#181818;stroke-width:1.0;" x1="289.5" x2="289.5" y1="750.65" y2="763.65"/><line style="stroke:#181818;stroke-width:1.0;" x1="248.5" x2="289.5" y1="763.65" y2="763.65"/><polygon fill="#181818" points="258.5,759.65,248.5,763.65,258.5,767.65,254.5,763.65" style="stroke:#181818;stroke-width:1.0;"/><text fill="#000000" font-family="NanumGothic" font-size="13" lengthAdjust="spacing" textLength="114" x="254.5" y="745.66">switch power off()</text><polygon fill="#181818" points="791.5,803.55,801.5,807.55,791.5,811.55,795.5,807.55" style="stroke:#181818;stroke-width:1.0;"/><line style="stroke:#181818;stroke-width:1.0;" x1="252.5" x2="797.5" y1="807.55" y2="807.55"/><text fill="#000000" font-family="NanumGothic" font-size="13" lengthAdjust="spacing" textLength="268" x="259.5" y="787.61">StopTransaction.req(meterStop, timestamp,</text><text fill="#000000" font-family="NanumGothic" font-size="13" lengthAdjust="spacing" textLength="298" x="259.5" y="802.56">transactionId, reason, [idTag], [transactionData])</text><polygon fill="#181818" points="258.5,832.5,248.5,836.5,258.5,840.5,254.5,836.5" style="stroke:#181818;stroke-width:1.0;"/><line style="stroke:#181818;stroke-width:1.0;stroke-dasharray:2.0,2.0;" x1="252.5" x2="807.5" y1="836.5" y2="836.5"/><text fill="#000000" font-family="NanumGothic" font-size="13" lengthAdjust="spacing" textLength="206" x="264.5" y="831.51">StopTransaction.conf([idTagInfo])</text><!--SRC=[jPNDRjim3CVlVWgkfoH8ym0z32ZI5WXs2PQibom7JQ9Z0RQeoNBQxEb7oKbZsNMt7TPJJL7y-FCdvfCsicmKGkrF9IviKvLP9gGd1pVVQdGt86e8_sHMEA-bji9uk7byZWUFpwbvMGXtG5YJDZuwj8RutVD4uvqeONEgFLQjRsjgBLbco2FG4LrCF-yT0tnzMZq0bqc-O9_xnXVaz2_XDPaCZO9mFyiw1S3jPouOxg163vLu1Taunq4dfQwqduQkzL5mqcxH_G3TJuxqehqimD8Bbq1cCiqopZ1qyzmwo63Jvd1DnF8f_8kqkq8hXMQV1XxMrbM8qsv2sgqJfWuvo2mS_fn8CWR3V5Tg3bfjnM4E5NfqqNiENbV8zLPs3Zk7hFmnIhfI-p65hjPaGcarjmDH1jLnPVaaLhGoEN4brxELcYPAfQGS73KMIY8RKXW6K4X9Jh7MuEbDTx2ESbqYP5ZM23cpmo4Bu792boLOT9eKVm-kPCpRXo0S6Ac84UIEgi7zoVGkddAOYBNJXo9yNAAsBmPqPKkikBdw2ajmkXH-r0AOTbWIzqybh7L9RPXQ7mnty5AWmV1a66zTDTK5yUXZ45KCR4BW1TkkpsJGtaSF1M2CMW2o_Z84obj9QlXnWlIzjwsdWFGbZNyRzCkp4kjMX0ZniWjnpo6OTWax-taRxBkPpNhEwyPPgl4Ejgzdosm6Wv3RayKvE6nraASlsd2IPr5gzSJZVWiVBLkwtj_80bLJuZGsFC9lUfJAsUKb23gy2JrfUJPIAwoP_FEvRCSHmEbpkOWkNGnw8BotLOOZYI_tNagq7bNRwmWX_QDUErn9sDt_PVbVe0x75nt2mlw71P_dxrtewSFGUhBzjNjUiMIJ3SlC9AG6o4HDXWcEYt2VelmWl1XRmsFBySzhE2qspdBtjeRt7opUaHbtpFm3zni0]--></g></svg>