<?xml version="1.0" encoding="us-ascii" standalone="no"?><svg xmlns="http://www.w3.org/2000/svg" xmlns:xlink="http://www.w3.org/1999/xlink" contentStyleType="text/css" height="899px" preserveAspectRatio="none" style="width:758px;height:899px;background:#FFFFFF;" version="1.1" viewBox="0 0 758 899" width="758px" zoomAndPan="magnify"><defs/><g><rect fill="#FFFFFF" height="307.5" style="stroke:#181818;stroke-width:1.0;" width="10" x="117" y="67.05"/><rect fill="#FFFFFF" height="86.85" style="stroke:#181818;stroke-width:1.0;" width="10" x="117" y="527.25"/><rect fill="#FFFFFF" height="28.95" style="stroke:#181818;stroke-width:1.0;" width="10" x="117" y="657.7"/><rect fill="#FFFFFF" height="28.95" style="stroke:#181818;stroke-width:1.0;" width="10" x="117" y="715.6"/><rect fill="#FFFFFF" height="28.95" style="stroke:#181818;stroke-width:1.0;" width="10" x="117" y="838.35"/><rect fill="#FFFFFF" height="28.95" style="stroke:#181818;stroke-width:1.0;" width="10" x="681" y="67.05"/><rect fill="#FFFFFF" height="28.95" style="stroke:#181818;stroke-width:1.0;" width="10" x="681" y="159.9"/><rect fill="#FFFFFF" height="28.95" style="stroke:#181818;stroke-width:1.0;" width="10" x="681" y="252.75"/><rect fill="#FFFFFF" height="28.95" style="stroke:#181818;stroke-width:1.0;" width="10" x="681" y="345.6"/><rect fill="#FFFFFF" height="28.95" style="stroke:#181818;stroke-width:1.0;" width="10" x="681" y="527.25"/><rect fill="#FFFFFF" height="28.95" style="stroke:#181818;stroke-width:1.0;" width="10" x="681" y="585.15"/><rect fill="#FFFFFF" height="86.85" style="stroke:#181818;stroke-width:1.0;" width="10" x="681" y="657.7"/><rect fill="#FFFFFF" height="28.95" style="stroke:#181818;stroke-width:1.0;" width="10" x="681" y="838.35"/><rect fill="none" height="450.8" style="stroke:#000000;stroke-width:1.5;" width="687" x="64" y="424.5"/><line style="stroke:#181818;stroke-width:0.5;stroke-dasharray:5.0,5.0;" x1="122" x2="122" y1="36.1" y2="892.3"/><line style="stroke:#181818;stroke-width:0.5;stroke-dasharray:5.0,5.0;" x1="686" x2="686" y1="36.1" y2="892.3"/><rect fill="#7D5393" height="30.1" rx="2.5" ry="2.5" style="stroke:#181818;stroke-width:0.5;" width="96" x="74" y="5"/><text fill="#FFFFFF" font-family="NanumGothic" font-size="14" lengthAdjust="spacing" textLength="82" x="81" y="24.88">Charge Point</text><rect fill="#7D5393" height="30.1" rx="2.5" ry="2.5" style="stroke:#181818;stroke-width:0.5;" width="110" x="631" y="5"/><text fill="#FFFFFF" font-family="NanumGothic" font-size="14" lengthAdjust="spacing" textLength="96" x="638" y="24.88">Central System</text><rect fill="#FFFFFF" height="307.5" style="stroke:#181818;stroke-width:1.0;" width="10" x="117" y="67.05"/><rect fill="#FFFFFF" height="86.85" style="stroke:#181818;stroke-width:1.0;" width="10" x="117" y="527.25"/><rect fill="#FFFFFF" height="28.95" style="stroke:#181818;stroke-width:1.0;" width="10" x="117" y="657.7"/><rect fill="#FFFFFF" height="28.95" style="stroke:#181818;stroke-width:1.0;" width="10" x="117" y="715.6"/><rect fill="#FFFFFF" height="28.95" style="stroke:#181818;stroke-width:1.0;" width="10" x="117" y="838.35"/><rect fill="#FFFFFF" height="28.95" style="stroke:#181818;stroke-width:1.0;" width="10" x="681" y="67.05"/><rect fill="#FFFFFF" height="28.95" style="stroke:#181818;stroke-width:1.0;" width="10" x="681" y="159.9"/><rect fill="#FFFFFF" height="28.95" style="stroke:#181818;stroke-width:1.0;" width="10" x="681" y="252.75"/><rect fill="#FFFFFF" height="28.95" style="stroke:#181818;stroke-width:1.0;" width="10" x="681" y="345.6"/><rect fill="#FFFFFF" height="28.95" style="stroke:#181818;stroke-width:1.0;" width="10" x="681" y="527.25"/><rect fill="#FFFFFF" height="28.95" style="stroke:#181818;stroke-width:1.0;" width="10" x="681" y="585.15"/><rect fill="#FFFFFF" height="86.85" style="stroke:#181818;stroke-width:1.0;" width="10" x="681" y="657.7"/><rect fill="#FFFFFF" height="28.95" style="stroke:#181818;stroke-width:1.0;" width="10" x="681" y="838.35"/><polygon fill="#181818" points="138,63.05,128,67.05,138,71.05,134,67.05" style="stroke:#181818;stroke-width:1.0;"/><line style="stroke:#181818;stroke-width:1.0;" x1="132" x2="680" y1="67.05" y2="67.05"/><text fill="#000000" font-family="NanumGothic" font-size="13" lengthAdjust="spacing" textLength="410" x="144" y="62.06">UpdateFirmware.req(location, retrieveDate, [retries], [retryInterval])</text><polygon fill="#181818" points="674,92,684,96,674,100,678,96" style="stroke:#181818;stroke-width:1.0;"/><line style="stroke:#181818;stroke-width:1.0;stroke-dasharray:2.0,2.0;" x1="127" x2="680" y1="96" y2="96"/><text fill="#000000" font-family="NanumGothic" font-size="13" lengthAdjust="spacing" textLength="142" x="134" y="91.01">UpdateFirmware.conf()</text><path d="M32,109 L32,133 L211,133 L211,119 L201,109 L32,109 " fill="#7D5393" style="stroke:#000000;stroke-width:0.5;"/><path d="M201,109 L201,119 L211,119 L201,109 " fill="#7D5393" style="stroke:#000000;stroke-width:0.5;"/><text fill="#FFFFFF" font-family="NanumGothic" font-size="13" lengthAdjust="spacing" textLength="158" x="38" y="125.96">Waiting for retrieveDate...</text><polygon fill="#181818" points="669,155.9,679,159.9,669,163.9,673,159.9" style="stroke:#181818;stroke-width:1.0;"/><line style="stroke:#181818;stroke-width:1.0;" x1="127" x2="675" y1="159.9" y2="159.9"/><text fill="#000000" font-family="NanumGothic" font-size="13" lengthAdjust="spacing" textLength="194" x="134" y="154.91">FirmwareStatusNotification.req(</text><text fill="#000000" font-family="NanumGothic" font-size="13" font-weight="bold" lengthAdjust="spacing" textLength="126" x="332" y="154.91">status: Downloading</text><text fill="#000000" font-family="NanumGothic" font-size="13" lengthAdjust="spacing" textLength="5" x="462" y="154.91">)</text><polygon fill="#181818" points="138,184.85,128,188.85,138,192.85,134,188.85" style="stroke:#181818;stroke-width:1.0;"/><line style="stroke:#181818;stroke-width:1.0;stroke-dasharray:2.0,2.0;" x1="132" x2="685" y1="188.85" y2="188.85"/><text fill="#000000" font-family="NanumGothic" font-size="13" lengthAdjust="spacing" textLength="206" x="144" y="183.86">FirmwareStatusNotification.conf()</text><path d="M65,201.85 L65,225.85 L179,225.85 L179,211.85 L169,201.85 L65,201.85 " fill="#7D5393" style="stroke:#000000;stroke-width:0.5;"/><path d="M169,201.85 L169,211.85 L179,211.85 L169,201.85 " fill="#7D5393" style="stroke:#000000;stroke-width:0.5;"/><text fill="#FFFFFF" font-family="NanumGothic" font-size="13" lengthAdjust="spacing" textLength="93" x="71" y="218.81">Downloading...</text><polygon fill="#181818" points="669,248.75,679,252.75,669,256.75,673,252.75" style="stroke:#181818;stroke-width:1.0;"/><line style="stroke:#181818;stroke-width:1.0;" x1="127" x2="675" y1="252.75" y2="252.75"/><text fill="#000000" font-family="NanumGothic" font-size="13" lengthAdjust="spacing" textLength="194" x="134" y="247.76">FirmwareStatusNotification.req(</text><text fill="#000000" font-family="NanumGothic" font-size="13" font-weight="bold" lengthAdjust="spacing" textLength="122" x="332" y="247.76">status: Downloaded</text><text fill="#000000" font-family="NanumGothic" font-size="13" lengthAdjust="spacing" textLength="5" x="462" y="247.76">)</text><polygon fill="#181818" points="138,277.7,128,281.7,138,285.7,134,281.7" style="stroke:#181818;stroke-width:1.0;"/><line style="stroke:#181818;stroke-width:1.0;stroke-dasharray:2.0,2.0;" x1="132" x2="685" y1="281.7" y2="281.7"/><text fill="#000000" font-family="NanumGothic" font-size="13" lengthAdjust="spacing" textLength="206" x="144" y="276.71">FirmwareStatusNotification.conf()</text><path d="M5,294.7 L5,318.7 L239,318.7 L239,304.7 L229,294.7 L5,294.7 " fill="#7D5393" style="stroke:#000000;stroke-width:0.5;"/><path d="M229,294.7 L229,304.7 L239,304.7 L229,294.7 " fill="#7D5393" style="stroke:#000000;stroke-width:0.5;"/><text fill="#FFFFFF" font-family="NanumGothic" font-size="13" lengthAdjust="spacing" textLength="213" x="11" y="311.66">Waiting for transactions to finish...</text><polygon fill="#181818" points="669,341.6,679,345.6,669,349.6,673,345.6" style="stroke:#181818;stroke-width:1.0;"/><line style="stroke:#181818;stroke-width:1.0;" x1="127" x2="675" y1="345.6" y2="345.6"/><text fill="#000000" font-family="NanumGothic" font-size="13" lengthAdjust="spacing" textLength="194" x="134" y="340.61">FirmwareStatusNotification.req(</text><text fill="#000000" font-family="NanumGothic" font-size="13" font-weight="bold" lengthAdjust="spacing" textLength="99" x="332" y="340.61">status: Installing</text><text fill="#000000" font-family="NanumGothic" font-size="13" lengthAdjust="spacing" textLength="5" x="439" y="340.61">)</text><polygon fill="#181818" points="133,370.55,123,374.55,133,378.55,129,374.55" style="stroke:#181818;stroke-width:1.0;"/><line style="stroke:#181818;stroke-width:1.0;stroke-dasharray:2.0,2.0;" x1="127" x2="685" y1="374.55" y2="374.55"/><text fill="#000000" font-family="NanumGothic" font-size="13" lengthAdjust="spacing" textLength="206" x="139" y="369.56">FirmwareStatusNotification.conf()</text><path d="M78,387.55 L78,411.55 L165,411.55 L165,397.55 L155,387.55 L78,387.55 " fill="#7D5393" style="stroke:#000000;stroke-width:0.5;"/><path d="M155,387.55 L155,397.55 L165,397.55 L155,387.55 " fill="#7D5393" style="stroke:#000000;stroke-width:0.5;"/><text fill="#FFFFFF" font-family="NanumGothic" font-size="13" lengthAdjust="spacing" textLength="66" x="84" y="404.51">Installing...</text><path d="M64,424.5 L124,424.5 L124,431.45 L114,441.45 L64,441.45 L64,424.5 " fill="#EEEEEE" style="stroke:#000000;stroke-width:1.5;"/><rect fill="none" height="450.8" style="stroke:#000000;stroke-width:1.5;" width="687" x="64" y="424.5"/><text fill="#000000" font-family="NanumGothic" font-size="13" font-weight="bold" lengthAdjust="spacing" textLength="15" x="79" y="437.46">alt</text><text fill="#000000" font-family="NanumGothic" font-size="11" font-weight="bold" lengthAdjust="spacing" textLength="214" x="139" y="436.62">[automatic reboot after firmware update]</text><path d="M89,446.45 L89,470.45 L154,470.45 L154,456.45 L144,446.45 L89,446.45 " fill="#7D5393" style="stroke:#000000;stroke-width:0.5;"/><path d="M144,446.45 L144,456.45 L154,456.45 L144,446.45 " fill="#7D5393" style="stroke:#000000;stroke-width:0.5;"/><text fill="#FFFFFF" font-family="NanumGothic" font-size="13" lengthAdjust="spacing" textLength="44" x="95" y="463.41">Reboot</text><polygon fill="#181818" points="669,523.25,679,527.25,669,531.25,673,527.25" style="stroke:#181818;stroke-width:1.0;"/><line style="stroke:#181818;stroke-width:1.0;" x1="127" x2="675" y1="527.25" y2="527.25"/><text fill="#000000" font-family="NanumGothic" font-size="13" lengthAdjust="spacing" textLength="533" x="134" y="492.36">BootNotification.req(chargePointModel, chargePointVendor, [chargeBoxSerialNumber],</text><text fill="#000000" font-family="NanumGothic" font-size="13" lengthAdjust="spacing" textLength="8" x="134" y="507.31">&#160;&#160;</text><text fill="#000000" font-family="NanumGothic" font-size="13" lengthAdjust="spacing" textLength="508" x="166" y="507.31">[chargePointSerialNumber], [firmwareVersion], [iccid], [imsi], [meterSerialNumber],</text><text fill="#000000" font-family="NanumGothic" font-size="13" lengthAdjust="spacing" textLength="8" x="134" y="522.26">&#160;&#160;</text><text fill="#000000" font-family="NanumGothic" font-size="13" lengthAdjust="spacing" textLength="79" x="166" y="522.26">[meterType])</text><polygon fill="#181818" points="138,552.2,128,556.2,138,560.2,134,556.2" style="stroke:#181818;stroke-width:1.0;"/><line style="stroke:#181818;stroke-width:1.0;stroke-dasharray:2.0,2.0;" x1="132" x2="685" y1="556.2" y2="556.2"/><text fill="#000000" font-family="NanumGothic" font-size="13" lengthAdjust="spacing" textLength="369" x="144" y="551.21">BootNotification.conf(currentTime, heartbeatInterval, status)</text><polygon fill="#181818" points="669,581.15,679,585.15,669,589.15,673,585.15" style="stroke:#181818;stroke-width:1.0;"/><line style="stroke:#181818;stroke-width:1.0;" x1="127" x2="675" y1="585.15" y2="585.15"/><text fill="#000000" font-family="NanumGothic" font-size="13" lengthAdjust="spacing" textLength="239" x="134" y="580.16">FirmwareStatusNotification.req( status:</text><text fill="#000000" font-family="NanumGothic" font-size="13" font-weight="bold" lengthAdjust="spacing" textLength="50" x="377" y="580.16">Installed</text><text fill="#000000" font-family="NanumGothic" font-size="13" lengthAdjust="spacing" textLength="5" x="431" y="580.16">)</text><polygon fill="#181818" points="133,610.1,123,614.1,133,618.1,129,614.1" style="stroke:#181818;stroke-width:1.0;"/><line style="stroke:#181818;stroke-width:1.0;stroke-dasharray:2.0,2.0;" x1="127" x2="685" y1="614.1" y2="614.1"/><text fill="#000000" font-family="NanumGothic" font-size="13" lengthAdjust="spacing" textLength="206" x="139" y="609.11">FirmwareStatusNotification.conf()</text><line style="stroke:#000000;stroke-width:1.0;stroke-dasharray:2.0,2.0;" x1="64" x2="751" y1="623.1" y2="623.1"/><text fill="#000000" font-family="NanumGothic" font-size="11" font-weight="bold" lengthAdjust="spacing" textLength="201" x="69" y="633.22">[manual reboot after firmware update]</text><polygon fill="#181818" points="669,653.7,679,657.7,669,661.7,673,657.7" style="stroke:#181818;stroke-width:1.0;"/><line style="stroke:#181818;stroke-width:1.0;" x1="127" x2="675" y1="657.7" y2="657.7"/><text fill="#000000" font-family="NanumGothic" font-size="13" lengthAdjust="spacing" textLength="239" x="134" y="652.71">FirmwareStatusNotification.req( status:</text><text fill="#000000" font-family="NanumGothic" font-size="13" font-weight="bold" lengthAdjust="spacing" textLength="50" x="377" y="652.71">Installed</text><text fill="#000000" font-family="NanumGothic" font-size="13" lengthAdjust="spacing" textLength="5" x="431" y="652.71">)</text><polygon fill="#181818" points="133,682.65,123,686.65,133,690.65,129,686.65" style="stroke:#181818;stroke-width:1.0;"/><line style="stroke:#181818;stroke-width:1.0;stroke-dasharray:2.0,2.0;" x1="127" x2="680" y1="686.65" y2="686.65"/><text fill="#000000" font-family="NanumGothic" font-size="13" lengthAdjust="spacing" textLength="206" x="139" y="681.66">FirmwareStatusNotification.conf()</text><polygon fill="#181818" points="138,711.6,128,715.6,138,719.6,134,715.6" style="stroke:#181818;stroke-width:1.0;"/><line style="stroke:#181818;stroke-width:1.0;" x1="132" x2="680" y1="715.6" y2="715.6"/><text fill="#000000" font-family="NanumGothic" font-size="13" lengthAdjust="spacing" textLength="96" x="144" y="710.61">Reset.req(Hard)</text><polygon fill="#181818" points="674,740.55,684,744.55,674,748.55,678,744.55" style="stroke:#181818;stroke-width:1.0;"/><line style="stroke:#181818;stroke-width:1.0;stroke-dasharray:2.0,2.0;" x1="122" x2="680" y1="744.55" y2="744.55"/><text fill="#000000" font-family="NanumGothic" font-size="13" lengthAdjust="spacing" textLength="74" x="129" y="739.56">Reset.conf()</text><path d="M89,757.55 L89,781.55 L154,781.55 L154,767.55 L144,757.55 L89,757.55 " fill="#7D5393" style="stroke:#000000;stroke-width:0.5;"/><path d="M144,757.55 L144,767.55 L154,767.55 L144,757.55 " fill="#7D5393" style="stroke:#000000;stroke-width:0.5;"/><text fill="#FFFFFF" font-family="NanumGothic" font-size="13" lengthAdjust="spacing" textLength="44" x="95" y="774.51">Reboot</text><polygon fill="#181818" points="669,834.35,679,838.35,669,842.35,673,838.35" style="stroke:#181818;stroke-width:1.0;"/><line style="stroke:#181818;stroke-width:1.0;" x1="127" x2="675" y1="838.35" y2="838.35"/><text fill="#000000" font-family="NanumGothic" font-size="13" lengthAdjust="spacing" textLength="533" x="134" y="803.46">BootNotification.req(chargePointModel, chargePointVendor, [chargeBoxSerialNumber],</text><text fill="#000000" font-family="NanumGothic" font-size="13" lengthAdjust="spacing" textLength="16" x="134" y="818.41">&#160;&#160;&#160;&#160;</text><text fill="#000000" font-family="NanumGothic" font-size="13" lengthAdjust="spacing" textLength="508" x="166" y="818.41">[chargePointSerialNumber], [firmwareVersion], [iccid], [imsi], [meterSerialNumber],</text><text fill="#000000" font-family="NanumGothic" font-size="13" lengthAdjust="spacing" textLength="16" x="134" y="833.36">&#160;&#160;&#160;&#160;</text><text fill="#000000" font-family="NanumGothic" font-size="13" lengthAdjust="spacing" textLength="79" x="166" y="833.36">[meterType])</text><polygon fill="#181818" points="133,863.3,123,867.3,133,871.3,129,867.3" style="stroke:#181818;stroke-width:1.0;"/><line style="stroke:#181818;stroke-width:1.0;stroke-dasharray:2.0,2.0;" x1="127" x2="685" y1="867.3" y2="867.3"/><text fill="#000000" font-family="NanumGothic" font-size="13" lengthAdjust="spacing" textLength="369" x="139" y="862.31">BootNotification.conf(currentTime, heartbeatInterval, status)</text><!--SRC=[rLN1Rjim3BtxAxYU6iFr1_ImGrSCws75q7JT8Sr1iUb6W2nb4fqkVp_QQXRPZkDsQxeD21294id7noVwdTIPgd84Hnk5wQegLHIjX2MPoPNG12SVbi8-87mnKjC920VUqEmxDr6J5Ggc6qTO-hlUv2rHrDh2sVim5fp3rrKk23zAMpuAYwd5xwVAP8AaqGbO92jnZPTy9O6Ptxhvqt9pfGdjMgZv918PoJNVQY7T6JkG0WHdDQ8Mn1wcpEZYT1BbE1HF6xQPDTfMTe1lGfBK3r0OsoebJTC8TGwrNmTD7ymMnfG4LUxQa2oavwSX2-BODIVdS6aUjJ8YvvHn39FXyjiTwRNaGCRVfYB0TkJgCOT_hlfG27nVkpg0qGx8G26rTCiZaNAbUQLKdVjlaH8U1AGCShM3tEP4A09HaIavRSRFQM4C6mgU04oXHmTLyt0vo51mW9l6aPU_8WFmRuHnW0lswZ6TxRm-cnnL0e7bZZCOoxFAsoxCZobQATHrLIxGpfDx3N1Fiy2ZVGwpRLrtQ1sdh4qoosJUB4edw_yIcO6zWPkJsyqAUJm2x6r2Q6uB0c1C4Zr26Y5abRNiU2jB7jXBv4_50WLj1tK2NfWreE5NDDgDCVrlrH_7JsB2l57_dvGx_W8EbDG-2Xg0oY6KGbVy2HsHz1jmyahAU2bLuLJeHUy6lq67r9JqITXy47-Ni3sC-KXZY0uBzILpvZbJvbXpveYJvd-RDS_hBNCQ_GG0]--></g></svg>