<?xml version="1.0" encoding="us-ascii" standalone="no"?><svg xmlns="http://www.w3.org/2000/svg" xmlns:xlink="http://www.w3.org/1999/xlink" contentStyleType="text/css" height="457px" preserveAspectRatio="none" style="width:870px;height:457px;background:#FFFFFF;" version="1.1" viewBox="0 0 870 457" width="870px" zoomAndPan="magnify"><defs/><g><!--cluster CP10Folder--><g id="cluster_CP10Folder"><path d="M353.5,6 L477.5,6 A3.75,3.75 0 0 1 480,8.5 L487,28.1 L669.5,28.1 A2.5,2.5 0 0 1 672,30.6 L672,213.5 A2.5,2.5 0 0 1 669.5,216 L353.5,216 A2.5,2.5 0 0 1 351,213.5 L351,8.5 A2.5,2.5 0 0 1 353.5,6 " fill="none" style="stroke:#7D5393;stroke-width:1.5;"/><line style="stroke:#7D5393;stroke-width:1.5;" x1="351" x2="487" y1="28.1" y2="28.1"/><text fill="#000000" font-family="NanumGothic" font-size="14" font-weight="bold" lengthAdjust="spacing" textLength="123" x="355" y="20.88">Charge Point: CP10</text></g><!--cluster CP11Folder--><g id="cluster_CP11Folder"><path d="M353.5,240 L477.5,240 A3.75,3.75 0 0 1 480,242.5 L487,262.1 L669.5,262.1 A2.5,2.5 0 0 1 672,264.6 L672,447.5 A2.5,2.5 0 0 1 669.5,450 L353.5,450 A2.5,2.5 0 0 1 351,447.5 L351,242.5 A2.5,2.5 0 0 1 353.5,240 " fill="none" style="stroke:#7D5393;stroke-width:1.5;"/><line style="stroke:#7D5393;stroke-width:1.5;" x1="351" x2="487" y1="262.1" y2="262.1"/><text fill="#000000" font-family="NanumGothic" font-size="14" font-weight="bold" lengthAdjust="spacing" textLength="123" x="355" y="254.88">Charge Point: CP11</text></g><!--entity CP10--><g id="elem_CP10"><polygon fill="#7D5393" points="367,147.9,377,137.9,489,137.9,489,190.1,479,200.1,367,200.1,367,147.9" style="stroke:#181818;stroke-width:1.5;"/><line style="stroke:#181818;stroke-width:1.5;" x1="479" x2="489" y1="147.9" y2="137.9"/><line style="stroke:#181818;stroke-width:1.5;" x1="367" x2="479" y1="147.9" y2="147.9"/><line style="stroke:#181818;stroke-width:1.5;" x1="479" x2="479" y1="147.9" y2="200.1"/><text fill="#FFFFFF" font-family="NanumGothic" font-size="14" lengthAdjust="spacing" textLength="82" x="382" y="170.78">Charge Point</text><text fill="#FFFFFF" font-family="NanumGothic" font-size="14" lengthAdjust="spacing" textLength="33" x="382" y="186.88">CP10</text></g><!--entity CP10_C1--><g id="elem_CP10_C1"><polygon fill="#7D5393" points="550,50.9,560,40.9,656,40.9,656,93.1,646,103.1,550,103.1,550,50.9" style="stroke:#181818;stroke-width:1.5;"/><line style="stroke:#181818;stroke-width:1.5;" x1="646" x2="656" y1="50.9" y2="40.9"/><line style="stroke:#181818;stroke-width:1.5;" x1="550" x2="646" y1="50.9" y2="50.9"/><line style="stroke:#181818;stroke-width:1.5;" x1="646" x2="646" y1="50.9" y2="103.1"/><text fill="#FFFFFF" font-family="NanumGothic" font-size="14" lengthAdjust="spacing" textLength="66" x="565" y="73.78">Connector</text><text fill="#FFFFFF" font-family="NanumGothic" font-size="14" lengthAdjust="spacing" textLength="8" x="565" y="89.88">1</text></g><!--entity CP10_C2--><g id="elem_CP10_C2"><polygon fill="#7D5393" points="550,147.9,560,137.9,656,137.9,656,190.1,646,200.1,550,200.1,550,147.9" style="stroke:#181818;stroke-width:1.5;"/><line style="stroke:#181818;stroke-width:1.5;" x1="646" x2="656" y1="147.9" y2="137.9"/><line style="stroke:#181818;stroke-width:1.5;" x1="550" x2="646" y1="147.9" y2="147.9"/><line style="stroke:#181818;stroke-width:1.5;" x1="646" x2="646" y1="147.9" y2="200.1"/><text fill="#FFFFFF" font-family="NanumGothic" font-size="14" lengthAdjust="spacing" textLength="66" x="565" y="170.78">Connector</text><text fill="#FFFFFF" font-family="NanumGothic" font-size="14" lengthAdjust="spacing" textLength="8" x="565" y="186.88">2</text></g><!--entity CP11--><g id="elem_CP11"><polygon fill="#7D5393" points="367,284.9,377,274.9,489,274.9,489,327.1,479,337.1,367,337.1,367,284.9" style="stroke:#181818;stroke-width:1.5;"/><line style="stroke:#181818;stroke-width:1.5;" x1="479" x2="489" y1="284.9" y2="274.9"/><line style="stroke:#181818;stroke-width:1.5;" x1="367" x2="479" y1="284.9" y2="284.9"/><line style="stroke:#181818;stroke-width:1.5;" x1="479" x2="479" y1="284.9" y2="337.1"/><text fill="#FFFFFF" font-family="NanumGothic" font-size="14" lengthAdjust="spacing" textLength="82" x="382" y="307.78">Charge Point</text><text fill="#FFFFFF" font-family="NanumGothic" font-size="14" lengthAdjust="spacing" textLength="33" x="382" y="323.88">CP11</text></g><!--entity CP11_C1--><g id="elem_CP11_C1"><polygon fill="#7D5393" points="550,381.9,560,371.9,656,371.9,656,424.1,646,434.1,550,434.1,550,381.9" style="stroke:#181818;stroke-width:1.5;"/><line style="stroke:#181818;stroke-width:1.5;" x1="646" x2="656" y1="381.9" y2="371.9"/><line style="stroke:#181818;stroke-width:1.5;" x1="550" x2="646" y1="381.9" y2="381.9"/><line style="stroke:#181818;stroke-width:1.5;" x1="646" x2="646" y1="381.9" y2="434.1"/><text fill="#FFFFFF" font-family="NanumGothic" font-size="14" lengthAdjust="spacing" textLength="66" x="565" y="404.78">Connector</text><text fill="#FFFFFF" font-family="NanumGothic" font-size="14" lengthAdjust="spacing" textLength="8" x="565" y="420.88">1</text></g><!--entity CP11_C2--><g id="elem_CP11_C2"><polygon fill="#7D5393" points="550,284.9,560,274.9,656,274.9,656,327.1,646,337.1,550,337.1,550,284.9" style="stroke:#181818;stroke-width:1.5;"/><line style="stroke:#181818;stroke-width:1.5;" x1="646" x2="656" y1="284.9" y2="274.9"/><line style="stroke:#181818;stroke-width:1.5;" x1="550" x2="646" y1="284.9" y2="284.9"/><line style="stroke:#181818;stroke-width:1.5;" x1="646" x2="646" y1="284.9" y2="337.1"/><text fill="#FFFFFF" font-family="NanumGothic" font-size="14" lengthAdjust="spacing" textLength="66" x="565" y="307.78">Connector</text><text fill="#FFFFFF" font-family="NanumGothic" font-size="14" lengthAdjust="spacing" textLength="8" x="565" y="323.88">2</text></g><!--entity CentralSystem--><g id="elem_CentralSystem"><polygon fill="#7D5393" points="19,224.95,29,214.95,155,214.95,155,251.05,145,261.05,19,261.05,19,224.95" style="stroke:#181818;stroke-width:1.5;"/><line style="stroke:#181818;stroke-width:1.5;" x1="145" x2="155" y1="224.95" y2="214.95"/><line style="stroke:#181818;stroke-width:1.5;" x1="19" x2="145" y1="224.95" y2="224.95"/><line style="stroke:#181818;stroke-width:1.5;" x1="145" x2="145" y1="224.95" y2="261.05"/><text fill="#FFFFFF" font-family="NanumGothic" font-size="14" lengthAdjust="spacing" textLength="96" x="34" y="247.83">Central System</text></g><!--entity EV1--><g id="elem_EV1"><ellipse cx="850.5" cy="34.26" fill="#F1F1F1" rx="8" ry="8" style="stroke:#7D5393;stroke-width:1.5;"/><path d="M850.5,42.26 L850.5,69.26 M837.5,50.26 L863.5,50.26 M850.5,69.26 L837.5,84.26 M850.5,69.26 L863.5,84.26 " fill="none" style="stroke:#7D5393;stroke-width:1.5;"/><text fill="#000000" font-family="sans-serif" font-size="14" lengthAdjust="spacing" textLength="26" x="837.5" y="100.2952">EV1</text></g><!--entity EV2--><g id="elem_EV2"><ellipse cx="850.5" cy="147.26" fill="#F1F1F1" rx="8" ry="8" style="stroke:#7D5393;stroke-width:1.5;"/><path d="M850.5,155.26 L850.5,182.26 M837.5,163.26 L863.5,163.26 M850.5,182.26 L837.5,197.26 M850.5,182.26 L863.5,197.26 " fill="none" style="stroke:#7D5393;stroke-width:1.5;"/><text fill="#000000" font-family="sans-serif" font-size="14" lengthAdjust="spacing" textLength="26" x="837.5" y="213.2952">EV2</text></g><g id="elem_GMN13"><path d="M6,140.05 L6,179.95 A0,0 0 0 0 6,179.95 L83,179.95 L87,214.54 L91,179.95 L168,179.95 A0,0 0 0 0 168,179.95 L168,150.05 L158,140.05 L6,140.05 A0,0 0 0 0 6,140.05 " fill="#7D5393" style="stroke:#000000;stroke-width:0.5;"/><path d="M158,140.05 L158,150.05 L168,150.05 L158,140.05 " fill="#7D5393" style="stroke:#000000;stroke-width:0.5;"/><text fill="#FFFFFF" font-family="NanumGothic" font-size="13" lengthAdjust="spacing" textLength="141" x="12" y="157.01">CS sets known physical</text><text fill="#FFFFFF" font-family="NanumGothic" font-size="13" lengthAdjust="spacing" textLength="137" x="12" y="171.96">grid connections limits</text></g><!--link CentralSystem to CP10--><g id="link_CentralSystem_CP10"><path d="M155.38,224.29 C216.98,211.75 301.3805,194.5665 360.6905,182.4965 " fill="none" id="CentralSystem-to-CP10" style="stroke:#181818;stroke-width:1.0;"/><polygon fill="#181818" points="366.57,181.3,356.9531,179.1751,361.6704,182.2971,358.5484,187.0144,366.57,181.3" style="stroke:#181818;stroke-width:1.0;"/><text fill="#000000" font-family="NanumGothic" font-size="13" lengthAdjust="spacing" textLength="135" x="199" y="186.35">OCPP charging profile</text></g><!--link CentralSystem to CP11--><g id="link_CentralSystem_CP11"><path d="M155.38,251.52 C216.98,263.87 301.3772,280.7997 360.6872,292.6997 " fill="none" id="CentralSystem-to-CP11" style="stroke:#181818;stroke-width:1.0;"/><polygon fill="#181818" points="366.57,293.88,358.5327,288.1877,361.6677,292.8964,356.959,296.0314,366.57,293.88" style="stroke:#181818;stroke-width:1.0;"/><text fill="#000000" font-family="NanumGothic" font-size="13" lengthAdjust="spacing" textLength="135" x="199" y="258.9">OCPP charging profile</text></g><!--link CP10 to CP10_C1--><g id="link_CP10_CP10_C1"><path d="M485.17,137.51 C505.89,125.89 529.26,112.78 549.63,101.36 " fill="none" id="CP10-CP10_C1" style="stroke:#181818;stroke-width:1.0;"/></g><!--link CP10 to CP10_C2--><g id="link_CP10_CP10_C2"><path d="M489.02,169 C508.73,169 530.48,169 549.58,169 " fill="none" id="CP10-CP10_C2" style="stroke:#181818;stroke-width:1.0;"/></g><!--link CP11 to CP11_C1--><g id="link_CP11_CP11_C1"><path d="M485.17,337.49 C505.89,349.11 529.26,362.22 549.63,373.64 " fill="none" id="CP11-CP11_C1" style="stroke:#181818;stroke-width:1.0;"/></g><!--link CP11 to CP11_C2--><g id="link_CP11_CP11_C2"><path d="M489.02,306 C508.73,306 530.48,306 549.58,306 " fill="none" id="CP11-CP11_C2" style="stroke:#181818;stroke-width:1.0;"/></g><!--link CP10_C1 to EV1--><g id="link_CP10_C1_EV1"><path d="M656.36,70.29 C713.68,68.43 795.9132,65.7453 829.6932,64.6453 " fill="none" id="CP10_C1-to-EV1" style="stroke:#181818;stroke-width:1.0;stroke-dasharray:1.0,3.0;"/><polygon fill="#181818" points="835.69,64.45,826.5646,60.745,830.6926,64.6127,826.825,68.7408,835.69,64.45" style="stroke:#181818;stroke-width:1.0;"/><text fill="#000000" font-family="NanumGothic" font-size="13" lengthAdjust="spacing" textLength="116" x="689" y="62.49">Control Pilot signal</text></g><!--link CP10_C2 to EV2--><g id="link_CP10_C2_EV2"><path d="M656.36,170.71 C713.68,172.57 795.9132,175.2547 829.6932,176.3547 " fill="none" id="CP10_C2-to-EV2" style="stroke:#181818;stroke-width:1.0;stroke-dasharray:1.0,3.0;"/><polygon fill="#181818" points="835.69,176.55,826.825,172.2592,830.6926,176.3873,826.5646,180.255,835.69,176.55" style="stroke:#181818;stroke-width:1.0;"/><text fill="#000000" font-family="NanumGothic" font-size="13" lengthAdjust="spacing" textLength="116" x="689" y="168.78">Control Pilot signal</text></g><!--SRC=[XP5BQyCm48Jl-XNRt5Cg7tFenRJN6WAzD2K8ItP4vLqZRIYXzBztRPcyciV9PlJDQ1WzUAp3rZgegUi97VBQUjD6qwqJxu9xxBTTK2guXe49ecyt3DP7LxCdL0f9lBDIVD44MEuIksu69i4aPKMfXe9rKSYDYQs3YZpo0ifAFsLQVbupygC0fjGZTeKdh3f0X2XbAAvGxu_NfRu454T0eNvljDf7wVkj3kpjLlfUApsrCeCEivVtR9NlGIecgHYcPoTlqWCrPsi3b4j8ZXDy8NqZz9jTyhK9Sj16R-Mjnylb0HC4ttbEog658L2faoYOMmcOFu-ZmGBUogg2UbZ0OmjzfCO7TzsYhrhK69ZH_PFzrueHr4UYdi0pBOD3IjO_B34x-oazP3-f8ODpf02L3yIGV8kontJ91KjnpV87]--></g></svg>