<?xml version="1.0" encoding="us-ascii" standalone="no"?><svg xmlns="http://www.w3.org/2000/svg" xmlns:xlink="http://www.w3.org/1999/xlink" contentStyleType="text/css" height="471px" preserveAspectRatio="none" style="width:709px;height:471px;background:#FFFFFF;" version="1.1" viewBox="0 0 709 471" width="709px" zoomAndPan="magnify"><defs/><g><rect fill="#FFFFFF" height="28.95" style="stroke:#181818;stroke-width:1.0;" width="10" x="86" y="67.05"/><rect fill="#FFFFFF" height="28.95" style="stroke:#181818;stroke-width:1.0;" width="10" x="86" y="173.9"/><rect fill="#FFFFFF" height="28.95" style="stroke:#181818;stroke-width:1.0;" width="10" x="86" y="280.75"/><rect fill="#FFFFFF" height="28.95" style="stroke:#181818;stroke-width:1.0;" width="10" x="86" y="417.5"/><rect fill="#FFFFFF" height="28.95" style="stroke:#181818;stroke-width:1.0;" width="10" x="643" y="67.05"/><rect fill="#FFFFFF" height="28.95" style="stroke:#181818;stroke-width:1.0;" width="10" x="643" y="173.9"/><rect fill="#FFFFFF" height="28.95" style="stroke:#181818;stroke-width:1.0;" width="10" x="643" y="280.75"/><rect fill="#FFFFFF" height="28.95" style="stroke:#181818;stroke-width:1.0;" width="10" x="643" y="417.5"/><line style="stroke:#181818;stroke-width:0.5;stroke-dasharray:5.0,5.0;" x1="91" x2="91" y1="36.1" y2="464.45"/><line style="stroke:#181818;stroke-width:0.5;stroke-dasharray:5.0,5.0;" x1="648" x2="648" y1="36.1" y2="464.45"/><rect fill="#7D5393" height="30.1" rx="2.5" ry="2.5" style="stroke:#181818;stroke-width:0.5;" width="96" x="43" y="5"/><text fill="#FFFFFF" font-family="NanumGothic" font-size="14" lengthAdjust="spacing" textLength="82" x="50" y="24.88">Charge Point</text><rect fill="#7D5393" height="30.1" rx="2.5" ry="2.5" style="stroke:#181818;stroke-width:0.5;" width="110" x="593" y="5"/><text fill="#FFFFFF" font-family="NanumGothic" font-size="14" lengthAdjust="spacing" textLength="96" x="600" y="24.88">Central System</text><rect fill="#FFFFFF" height="28.95" style="stroke:#181818;stroke-width:1.0;" width="10" x="86" y="67.05"/><rect fill="#FFFFFF" height="28.95" style="stroke:#181818;stroke-width:1.0;" width="10" x="86" y="173.9"/><rect fill="#FFFFFF" height="28.95" style="stroke:#181818;stroke-width:1.0;" width="10" x="86" y="280.75"/><rect fill="#FFFFFF" height="28.95" style="stroke:#181818;stroke-width:1.0;" width="10" x="86" y="417.5"/><rect fill="#FFFFFF" height="28.95" style="stroke:#181818;stroke-width:1.0;" width="10" x="643" y="67.05"/><rect fill="#FFFFFF" height="28.95" style="stroke:#181818;stroke-width:1.0;" width="10" x="643" y="173.9"/><rect fill="#FFFFFF" height="28.95" style="stroke:#181818;stroke-width:1.0;" width="10" x="643" y="280.75"/><rect fill="#FFFFFF" height="28.95" style="stroke:#181818;stroke-width:1.0;" width="10" x="643" y="417.5"/><polygon fill="#181818" points="631,63.05,641,67.05,631,71.05,635,67.05" style="stroke:#181818;stroke-width:1.0;"/><line style="stroke:#181818;stroke-width:1.0;" x1="96" x2="637" y1="67.05" y2="67.05"/><text fill="#000000" font-family="NanumGothic" font-size="13" lengthAdjust="spacing" textLength="410" x="103" y="62.06">UpdateFirmware.req(location, retrieveDate, [retries], [retryInterval])</text><polygon fill="#181818" points="102,92,92,96,102,100,98,96" style="stroke:#181818;stroke-width:1.0;"/><line style="stroke:#181818;stroke-width:1.0;" x1="96" x2="647" y1="96" y2="96"/><text fill="#000000" font-family="NanumGothic" font-size="13" lengthAdjust="spacing" textLength="142" x="108" y="91.01">UpdateFirmware.conf()</text><path d="M5,109 L5,133 L178,133 L178,119 L168,109 L5,109 " fill="#7D5393" style="stroke:#000000;stroke-width:0.5;"/><path d="M168,109 L168,119 L178,119 L168,109 " fill="#7D5393" style="stroke:#000000;stroke-width:0.5;"/><text fill="#FFFFFF" font-family="NanumGothic" font-size="13" lengthAdjust="spacing" textLength="152" x="11" y="125.96">Downloading firmware...</text><polygon fill="#181818" points="631,169.9,641,173.9,631,177.9,635,173.9" style="stroke:#181818;stroke-width:1.0;"/><line style="stroke:#181818;stroke-width:1.0;" x1="96" x2="637" y1="173.9" y2="173.9"/><text fill="#000000" font-family="NanumGothic" font-size="13" lengthAdjust="spacing" textLength="194" x="103" y="168.91">FirmwareStatusNotification.req(</text><text fill="#000000" font-family="NanumGothic" font-size="13" font-weight="bold" lengthAdjust="spacing" textLength="122" x="301" y="168.91">status: Downloaded</text><text fill="#000000" font-family="NanumGothic" font-size="13" lengthAdjust="spacing" textLength="5" x="427" y="168.91">)</text><polygon fill="#181818" points="102,198.85,92,202.85,102,206.85,98,202.85" style="stroke:#181818;stroke-width:1.0;"/><line style="stroke:#181818;stroke-width:1.0;" x1="96" x2="647" y1="202.85" y2="202.85"/><text fill="#000000" font-family="NanumGothic" font-size="13" lengthAdjust="spacing" textLength="206" x="108" y="197.86">FirmwareStatusNotification.conf()</text><path d="M47,215.85 L47,239.85 L134,239.85 L134,225.85 L124,215.85 L47,215.85 " fill="#7D5393" style="stroke:#000000;stroke-width:0.5;"/><path d="M124,215.85 L124,225.85 L134,225.85 L124,215.85 " fill="#7D5393" style="stroke:#000000;stroke-width:0.5;"/><text fill="#FFFFFF" font-family="NanumGothic" font-size="13" lengthAdjust="spacing" textLength="66" x="53" y="232.81">Installing...</text><polygon fill="#181818" points="631,276.75,641,280.75,631,284.75,635,280.75" style="stroke:#181818;stroke-width:1.0;"/><line style="stroke:#181818;stroke-width:1.0;" x1="96" x2="637" y1="280.75" y2="280.75"/><text fill="#000000" font-family="NanumGothic" font-size="13" lengthAdjust="spacing" textLength="194" x="103" y="275.76">FirmwareStatusNotification.req(</text><text fill="#000000" font-family="NanumGothic" font-size="13" font-weight="bold" lengthAdjust="spacing" textLength="95" x="301" y="275.76">status: Installed</text><text fill="#000000" font-family="NanumGothic" font-size="13" lengthAdjust="spacing" textLength="5" x="400" y="275.76">)</text><polygon fill="#181818" points="102,305.7,92,309.7,102,313.7,98,309.7" style="stroke:#181818;stroke-width:1.0;"/><line style="stroke:#181818;stroke-width:1.0;" x1="96" x2="647" y1="309.7" y2="309.7"/><text fill="#000000" font-family="NanumGothic" font-size="13" lengthAdjust="spacing" textLength="206" x="108" y="304.71">FirmwareStatusNotification.conf()</text><path d="M36,322.7 L36,346.7 L145,346.7 L145,332.7 L135,322.7 L36,322.7 " fill="#7D5393" style="stroke:#000000;stroke-width:0.5;"/><path d="M135,322.7 L135,332.7 L145,332.7 L135,322.7 " fill="#7D5393" style="stroke:#000000;stroke-width:0.5;"/><text fill="#FFFFFF" font-family="NanumGothic" font-size="13" lengthAdjust="spacing" textLength="88" x="42" y="339.66">Stop Charging</text><polygon fill="#181818" points="631,413.5,641,417.5,631,421.5,635,417.5" style="stroke:#181818;stroke-width:1.0;"/><line style="stroke:#181818;stroke-width:1.0;" x1="96" x2="637" y1="417.5" y2="417.5"/><text fill="#000000" font-family="NanumGothic" font-size="13" lengthAdjust="spacing" textLength="533" x="103" y="382.61">BootNotification.req(chargePointModel, chargePointVendor, [chargeBoxSerialNumber],</text><text fill="#000000" font-family="NanumGothic" font-size="13" lengthAdjust="spacing" textLength="369" x="231" y="397.56">[chargePointSerialNumber],[firmwareVersion], [iccid], [imsi],</text><text fill="#000000" font-family="NanumGothic" font-size="13" lengthAdjust="spacing" textLength="214" x="231" y="412.51">[meterSerialNumber], [meterType])</text><polygon fill="#181818" points="102,442.45,92,446.45,102,450.45,98,446.45" style="stroke:#181818;stroke-width:1.0;"/><line style="stroke:#181818;stroke-width:1.0;" x1="96" x2="647" y1="446.45" y2="446.45"/><text fill="#000000" font-family="NanumGothic" font-size="13" lengthAdjust="spacing" textLength="369" x="108" y="441.46">BootNotification.conf(currentTime, heartbeatInterval, status)</text><!--SRC=[rPJ1Ri8m38RlVGgF4w2E1-2m0qEJE0nDWd413Y4nO2bDkjI5yVOB3HKDJ4ZJqAIfb-IF7V_vqlY1ZDIbGYZueB6NbvbEabmu9acvC0ojvwrm6uGtIuPR80e8GZM_Y4J3JcYO70h6BCG6AIX9qaY5nwTujG_lkHACB-IolN3OS_ZHrbOA9cjISCYES8T37vB2F4oBvMbu61b6jnDwsKc4PDhvgCZeMOmSHRFAKiFXbIDfpRhTIHH-Mw8fnySsrcjsXowA7zgzqLOeCXjOroLwlGIDWcF61QxvbfH2ixpaTfkgFqHjVyA2os9icTOKg5Q8eTijgfK-r8vGTRlm6v3N96-Ok2_LaV6dqTf3ZLZ-DSgJZVzCSi8s3uA7UMUI0slv2fyyfxnQXJg5XZBp1gppppre0_ivGKT2ZyjiXMwPBio2mpTlPCKny_gPpT0LlkgnUv2KfAf1Lb2qJOQ-fSGRG12dXnnzexdhjLuHgIvJbixvn2bblkbjqNVR5GgkcrqAuNVxyPL_0G00]--></g></svg>