<?xml version="1.0" encoding="us-ascii" standalone="no"?><svg xmlns="http://www.w3.org/2000/svg" xmlns:xlink="http://www.w3.org/1999/xlink" contentStyleType="text/css" height="527px" preserveAspectRatio="none" style="width:863px;height:527px;background:#FFFFFF;" version="1.1" viewBox="0 0 863 527" width="863px" zoomAndPan="magnify"><defs/><g><!--class ChargingProfile--><g id="elem_ChargingProfile"><rect codeLine="3" fill="#FFFFFF" height="184.9" id="ChargingProfile" rx="2.5" ry="2.5" style="stroke:#7D5393;stroke-width:1.5;" width="382" x="7" y="7"/><rect fill="#7D5393" height="32" rx="2.5" ry="2.5" style="stroke:#7D5393;stroke-width:1.5;" width="382" x="7" y="7"/><rect fill="#7D5393" height="2.5" style="stroke:#7D5393;stroke-width:1.5;" width="382" x="7" y="36.5"/><rect codeLine="3" fill="none" height="184.9" id="ChargingProfile" rx="2.5" ry="2.5" style="stroke:#7D5393;stroke-width:1.5;" width="382" x="7" y="7"/><ellipse cx="145.25" cy="23" fill="#FFFFFF" rx="11" ry="11" style="stroke:#181818;stroke-width:1.0;"/><path d="M147.7231,29.1431 Q147.1421,29.4419 146.5029,29.5913 Q145.8638,29.7407 145.1582,29.7407 Q142.6514,29.7407 141.3315,28.0889 Q140.0117,26.437 140.0117,23.3159 Q140.0117,20.1865 141.3315,18.5347 Q142.6514,16.8828 145.1582,16.8828 Q145.8638,16.8828 146.5112,17.0322 Q147.1587,17.1816 147.7231,17.4805 L147.7231,20.2031 Q147.0923,19.6221 146.4988,19.3523 Q145.9053,19.0825 145.2744,19.0825 Q143.9297,19.0825 143.2449,20.1492 Q142.5601,21.2158 142.5601,23.3159 Q142.5601,25.4077 143.2449,26.4744 Q143.9297,27.541 145.2744,27.541 Q145.9053,27.541 146.4988,27.2712 Q147.0923,27.0015 147.7231,26.4204 Z " fill="#000000"/><text fill="#FFFFFF" font-family="NanumGothic" font-size="14" lengthAdjust="spacing" textLength="97" x="165.75" y="27.83">ChargingProfile</text><line style="stroke:#7D5393;stroke-width:1.5;" x1="8" x2="388" y1="39" y2="39"/><text fill="#000000" font-family="NanumGothic" font-size="14" lengthAdjust="spacing" textLength="168" x="13" y="55.88">chargingProfileId: int [1..1]</text><text fill="#000000" font-family="NanumGothic" font-size="14" lengthAdjust="spacing" textLength="144" x="13" y="71.98">transactionId: int [0..1]</text><text fill="#000000" font-family="NanumGothic" font-size="14" lengthAdjust="spacing" textLength="128" x="13" y="88.08">stackLevel: int [1..1]</text><text fill="#000000" font-family="NanumGothic" font-size="14" lengthAdjust="spacing" textLength="370" x="13" y="104.18">chargingProfilePurpose: ChargingProfilePurposeType [1..1]</text><text fill="#000000" font-family="NanumGothic" font-size="14" lengthAdjust="spacing" textLength="324" x="13" y="120.28">chargingProfileKind: ChargingProfileKindType [1..1]</text><text fill="#000000" font-family="NanumGothic" font-size="14" lengthAdjust="spacing" textLength="270" x="13" y="136.38">recurrencyKind: RecurrencyKindType [0..1]</text><text fill="#000000" font-family="NanumGothic" font-size="14" lengthAdjust="spacing" textLength="171" x="13" y="152.48">validFrom: DateTime [0..1]</text><text fill="#000000" font-family="NanumGothic" font-size="14" lengthAdjust="spacing" textLength="154" x="13" y="168.58">validTo: DateTime [0..1]</text><text fill="#000000" font-family="NanumGothic" font-size="14" lengthAdjust="spacing" textLength="274" x="13" y="184.68">chargingSchedule: ChargingSchedule [1..1]</text></g><!--class ChargingSchedule--><g id="elem_ChargingSchedule"><rect codeLine="15" fill="#FFFFFF" height="120.5" id="ChargingSchedule" rx="2.5" ry="2.5" style="stroke:#7D5393;stroke-width:1.5;" width="366" x="15" y="251.9"/><rect fill="#7D5393" height="32" rx="2.5" ry="2.5" style="stroke:#7D5393;stroke-width:1.5;" width="366" x="15" y="251.9"/><rect fill="#7D5393" height="2.5" style="stroke:#7D5393;stroke-width:1.5;" width="366" x="15" y="281.4"/><rect codeLine="15" fill="none" height="120.5" id="ChargingSchedule" rx="2.5" ry="2.5" style="stroke:#7D5393;stroke-width:1.5;" width="366" x="15" y="251.9"/><ellipse cx="136.25" cy="267.9" fill="#FFFFFF" rx="11" ry="11" style="stroke:#181818;stroke-width:1.0;"/><path d="M138.7231,274.0431 Q138.1421,274.3419 137.5029,274.4913 Q136.8638,274.6407 136.1582,274.6407 Q133.6514,274.6407 132.3315,272.9889 Q131.0117,271.337 131.0117,268.2159 Q131.0117,265.0865 132.3315,263.4347 Q133.6514,261.7828 136.1582,261.7828 Q136.8638,261.7828 137.5112,261.9322 Q138.1587,262.0816 138.7231,262.3805 L138.7231,265.1031 Q138.0923,264.5221 137.4988,264.2523 Q136.9053,263.9825 136.2744,263.9825 Q134.9297,263.9825 134.2449,265.0492 Q133.5601,266.1158 133.5601,268.2159 Q133.5601,270.3077 134.2449,271.3744 Q134.9297,272.441 136.2744,272.441 Q136.9053,272.441 137.4988,272.1712 Q138.0923,271.9015 138.7231,271.3204 Z " fill="#000000"/><text fill="#FFFFFF" font-family="NanumGothic" font-size="14" lengthAdjust="spacing" textLength="115" x="156.75" y="272.73">ChargingSchedule</text><line style="stroke:#7D5393;stroke-width:1.5;" x1="16" x2="380" y1="283.9" y2="283.9"/><text fill="#000000" font-family="NanumGothic" font-size="14" lengthAdjust="spacing" textLength="115" x="21" y="300.78">duration: int [0..1]</text><text fill="#000000" font-family="NanumGothic" font-size="14" lengthAdjust="spacing" textLength="196" x="21" y="316.88">startSchedule: DateTime [0..1]</text><text fill="#000000" font-family="NanumGothic" font-size="14" lengthAdjust="spacing" textLength="264" x="21" y="332.98">schedulingUnit: SchedulingUnitType [1..1]</text><text fill="#000000" font-family="NanumGothic" font-size="14" lengthAdjust="spacing" textLength="354" x="21" y="349.08">chargingSchedulePeriod: ChargingSchedulePeriod [1..*]</text><text fill="#000000" font-family="NanumGothic" font-size="14" lengthAdjust="spacing" textLength="207" x="21" y="365.18">minChargingRate: decimal [0..1]</text></g><!--class ChargingSchedulePeriod--><g id="elem_ChargingSchedulePeriod"><rect codeLine="23" fill="#FFFFFF" height="88.3" id="ChargingSchedulePeriod" rx="2.5" ry="2.5" style="stroke:#7D5393;stroke-width:1.5;" width="187" x="104.5" y="432.4"/><rect fill="#7D5393" height="32" rx="2.5" ry="2.5" style="stroke:#7D5393;stroke-width:1.5;" width="187" x="104.5" y="432.4"/><rect fill="#7D5393" height="2.5" style="stroke:#7D5393;stroke-width:1.5;" width="187" x="104.5" y="461.9"/><rect codeLine="23" fill="none" height="88.3" id="ChargingSchedulePeriod" rx="2.5" ry="2.5" style="stroke:#7D5393;stroke-width:1.5;" width="187" x="104.5" y="432.4"/><ellipse cx="119.5" cy="448.4" fill="#FFFFFF" rx="11" ry="11" style="stroke:#181818;stroke-width:1.0;"/><path d="M121.9731,454.5431 Q121.3921,454.8419 120.7529,454.9913 Q120.1138,455.1407 119.4082,455.1407 Q116.9014,455.1407 115.5815,453.4889 Q114.2617,451.837 114.2617,448.7159 Q114.2617,445.5865 115.5815,443.9347 Q116.9014,442.2828 119.4082,442.2828 Q120.1138,442.2828 120.7612,442.4322 Q121.4087,442.5816 121.9731,442.8805 L121.9731,445.6031 Q121.3423,445.0221 120.7488,444.7523 Q120.1553,444.4825 119.5244,444.4825 Q118.1797,444.4825 117.4949,445.5492 Q116.8101,446.6158 116.8101,448.7159 Q116.8101,450.8077 117.4949,451.8744 Q118.1797,452.941 119.5244,452.941 Q120.1553,452.941 120.7488,452.6712 Q121.3423,452.4015 121.9731,451.8204 Z " fill="#000000"/><text fill="#FFFFFF" font-family="NanumGothic" font-size="14" lengthAdjust="spacing" textLength="155" x="133.5" y="453.23">ChargingSchedulePeriod</text><line style="stroke:#7D5393;stroke-width:1.5;" x1="105.5" x2="290.5" y1="464.4" y2="464.4"/><text fill="#000000" font-family="NanumGothic" font-size="14" lengthAdjust="spacing" textLength="131" x="110.5" y="481.28">startPeriod: int [1..1]</text><text fill="#000000" font-family="NanumGothic" font-size="14" lengthAdjust="spacing" textLength="89" x="110.5" y="497.38">limit: int [0..1]</text><text fill="#000000" font-family="NanumGothic" font-size="14" lengthAdjust="spacing" textLength="156" x="110.5" y="513.48">numberPhases: int [0..1]</text></g><!--class ChargingProfilePurposeType--><g id="elem_ChargingProfilePurposeType"><rect codeLine="29" fill="#FFFFFF" height="88.3" id="ChargingProfilePurposeType" rx="2.5" ry="2.5" style="stroke:#7D5393;stroke-width:1.5;" width="210" x="424" y="55.3"/><rect fill="#7D5393" height="32" rx="2.5" ry="2.5" style="stroke:#7D5393;stroke-width:1.5;" width="210" x="424" y="55.3"/><rect fill="#7D5393" height="2.5" style="stroke:#7D5393;stroke-width:1.5;" width="210" x="424" y="84.8"/><rect codeLine="29" fill="none" height="88.3" id="ChargingProfilePurposeType" rx="2.5" ry="2.5" style="stroke:#7D5393;stroke-width:1.5;" width="210" x="424" y="55.3"/><ellipse cx="439" cy="71.3" fill="#FFFFFF" rx="11" ry="11" style="stroke:#181818;stroke-width:1.0;"/><path d="M442.6143,77.8 L434.8945,77.8 L434.8945,65.4069 L442.6143,65.4069 L442.6143,67.5651 L437.3433,67.5651 L437.3433,70.238 L442.1162,70.238 L442.1162,72.3962 L437.3433,72.3962 L437.3433,75.6418 L442.6143,75.6418 Z " fill="#000000"/><text fill="#FFFFFF" font-family="NanumGothic" font-size="14" lengthAdjust="spacing" textLength="178" x="453" y="76.13">ChargingProfilePurposeType</text><line style="stroke:#7D5393;stroke-width:1.5;" x1="425" x2="633" y1="87.3" y2="87.3"/><text fill="#000000" font-family="NanumGothic" font-size="14" lengthAdjust="spacing" textLength="147" x="430" y="104.18">ChargePointMaxProfile</text><text fill="#000000" font-family="NanumGothic" font-size="14" lengthAdjust="spacing" textLength="102" x="430" y="120.28">TxDefaultProfile</text><text fill="#000000" font-family="NanumGothic" font-size="14" lengthAdjust="spacing" textLength="55" x="430" y="136.38">TxProfile</text></g><!--class ChargingProfileKindType--><g id="elem_ChargingProfileKindType"><rect codeLine="35" fill="#FFFFFF" height="88.3" id="ChargingProfileKindType" rx="2.5" ry="2.5" style="stroke:#7D5393;stroke-width:1.5;" width="187" x="669.5" y="55.3"/><rect fill="#7D5393" height="32" rx="2.5" ry="2.5" style="stroke:#7D5393;stroke-width:1.5;" width="187" x="669.5" y="55.3"/><rect fill="#7D5393" height="2.5" style="stroke:#7D5393;stroke-width:1.5;" width="187" x="669.5" y="84.8"/><rect codeLine="35" fill="none" height="88.3" id="ChargingProfileKindType" rx="2.5" ry="2.5" style="stroke:#7D5393;stroke-width:1.5;" width="187" x="669.5" y="55.3"/><ellipse cx="684.5" cy="71.3" fill="#FFFFFF" rx="11" ry="11" style="stroke:#181818;stroke-width:1.0;"/><path d="M688.1143,77.8 L680.3945,77.8 L680.3945,65.4069 L688.1143,65.4069 L688.1143,67.5651 L682.8433,67.5651 L682.8433,70.238 L687.6162,70.238 L687.6162,72.3962 L682.8433,72.3962 L682.8433,75.6418 L688.1143,75.6418 Z " fill="#000000"/><text fill="#FFFFFF" font-family="NanumGothic" font-size="14" lengthAdjust="spacing" textLength="155" x="698.5" y="76.13">ChargingProfileKindType</text><line style="stroke:#7D5393;stroke-width:1.5;" x1="670.5" x2="855.5" y1="87.3" y2="87.3"/><text fill="#000000" font-family="NanumGothic" font-size="14" lengthAdjust="spacing" textLength="56" x="675.5" y="104.18">Absolute</text><text fill="#000000" font-family="NanumGothic" font-size="14" lengthAdjust="spacing" textLength="61" x="675.5" y="120.28">Recurring</text><text fill="#000000" font-family="NanumGothic" font-size="14" lengthAdjust="spacing" textLength="51" x="675.5" y="136.38">Relative</text></g><!--class RecurrencyKindType--><g id="elem_RecurrencyKindType"><rect codeLine="41" fill="#FFFFFF" height="72.2" id="RecurrencyKindType" rx="2.5" ry="2.5" style="stroke:#7D5393;stroke-width:1.5;" width="161" x="415.5" y="276.05"/><rect fill="#7D5393" height="32" rx="2.5" ry="2.5" style="stroke:#7D5393;stroke-width:1.5;" width="161" x="415.5" y="276.05"/><rect fill="#7D5393" height="2.5" style="stroke:#7D5393;stroke-width:1.5;" width="161" x="415.5" y="305.55"/><rect codeLine="41" fill="none" height="72.2" id="RecurrencyKindType" rx="2.5" ry="2.5" style="stroke:#7D5393;stroke-width:1.5;" width="161" x="415.5" y="276.05"/><ellipse cx="430.5" cy="292.05" fill="#FFFFFF" rx="11" ry="11" style="stroke:#181818;stroke-width:1.0;"/><path d="M434.1143,298.55 L426.3945,298.55 L426.3945,286.1569 L434.1143,286.1569 L434.1143,288.3151 L428.8433,288.3151 L428.8433,290.988 L433.6162,290.988 L433.6162,293.1462 L428.8433,293.1462 L428.8433,296.3918 L434.1143,296.3918 Z " fill="#000000"/><text fill="#FFFFFF" font-family="NanumGothic" font-size="14" lengthAdjust="spacing" textLength="129" x="444.5" y="296.88">RecurrencyKindType</text><line style="stroke:#7D5393;stroke-width:1.5;" x1="416.5" x2="575.5" y1="308.05" y2="308.05"/><text fill="#000000" font-family="NanumGothic" font-size="14" lengthAdjust="spacing" textLength="30" x="421.5" y="324.93">Daily</text><text fill="#000000" font-family="NanumGothic" font-size="14" lengthAdjust="spacing" textLength="46" x="421.5" y="341.03">Weekly</text></g><!--link ChargingProfile to ChargingSchedule--><g id="link_ChargingProfile_ChargingSchedule"><path codeLine="47" d="M198,192.25 C198,212.33 198,233.07 198,251.49 " fill="none" id="ChargingProfile-ChargingSchedule" style="stroke:#181818;stroke-width:1.0;"/><text fill="#000000" font-family="NanumGothic" font-size="13" lengthAdjust="spacing" textLength="8" x="189.6938" y="211.8873">1</text><text fill="#000000" font-family="NanumGothic" font-size="13" lengthAdjust="spacing" textLength="8" x="189.4875" y="240.8419">1</text></g><!--reverse link ChargingSchedule to ChargingSchedulePeriod--><g id="link_ChargingSchedule_ChargingSchedulePeriod"><path codeLine="48" d="M198,384.7 C198,404.34 198,413.81 198,432.03 " fill="none" id="ChargingSchedule-backto-ChargingSchedulePeriod" style="stroke:#181818;stroke-width:1.0;"/><polygon fill="#181818" points="198,372.7,194,378.7,198,384.7,202,378.7,198,372.7" style="stroke:#181818;stroke-width:1.0;"/><text fill="#000000" font-family="NanumGothic" font-size="13" lengthAdjust="spacing" textLength="8" x="189.5375" y="392.5254">1</text><text fill="#000000" font-family="NanumGothic" font-size="13" lengthAdjust="spacing" textLength="8" x="189.3375" y="421.5357">*</text></g><!--link ChargingProfile to ChargingProfilePurposeType--><!--link ChargingSchedule to RecurrencyKindType--><!--SRC=[VLHDIyD04BtdLwpre1PJx3L8GLe5KI5enOFqiDsTDeERJTYFOX7_kvkasvfisbooEpDltfkFv0mb4vO3qMOhO5JQN4GH4rHhCiseMgDSfwfOeG1oUqikfzVdg_gv8fC9-Oa8OUseHvuGb8PyZaUZySBvZQ9IKsQma7lVpSwd3MLVpx01qG5ragPMbOM6f2jfPvzlIpYAVKB90s1bRACKCAiKIBPj0A-jUnFhPM-eGFwWYZmXCsfWZddNEI_wN5xP6yk0M_6l7c_nUdwxCzW7z0-1MqMh3eVzLUR05YhIZSyHl4iq2NbhtVlxwlEbeB3WOGsDlSODAroEqeUyEW49uS0mfyAhE5hhBb5_nNLfNa9hTmJcLIcjHaYRBq6b6TMWMov73ivvQh4g_lk0lmP0MhXSB_Hx1tFs-VSCLjGAyz_apqVOzXlMJtMtr8MmfahLRAL3rcVXPhuvPErPsVw4CufYwzuV05_kuF0NnAb62Uup4FKYwGnB7NN_08FnWCHn_UeEAmesjOeQLj73mP7HHW51h72TcSyCEGUvY4-C9UJhOiDsH7y0]--></g></svg>