<?xml version="1.0" encoding="us-ascii" standalone="no"?><svg xmlns="http://www.w3.org/2000/svg" xmlns:xlink="http://www.w3.org/1999/xlink" contentStyleType="text/css" height="457px" preserveAspectRatio="none" style="width:929px;height:457px;background:#FFFFFF;" version="1.1" viewBox="0 0 929 457" width="929px" zoomAndPan="magnify"><defs/><g><!--cluster CP10Folder--><g id="cluster_CP10Folder"><path d="M401.5,6 L525.5,6 A3.75,3.75 0 0 1 528,8.5 L535,28.1 L717.5,28.1 A2.5,2.5 0 0 1 720,30.6 L720,213.5 A2.5,2.5 0 0 1 717.5,216 L401.5,216 A2.5,2.5 0 0 1 399,213.5 L399,8.5 A2.5,2.5 0 0 1 401.5,6 " fill="none" style="stroke:#7D5393;stroke-width:1.5;"/><line style="stroke:#7D5393;stroke-width:1.5;" x1="399" x2="535" y1="28.1" y2="28.1"/><text fill="#000000" font-family="NanumGothic" font-size="14" font-weight="bold" lengthAdjust="spacing" textLength="123" x="403" y="20.88">Charge Point: CP10</text></g><!--cluster CP11Folder--><g id="cluster_CP11Folder"><path d="M401.5,240 L525.5,240 A3.75,3.75 0 0 1 528,242.5 L535,262.1 L717.5,262.1 A2.5,2.5 0 0 1 720,264.6 L720,447.5 A2.5,2.5 0 0 1 717.5,450 L401.5,450 A2.5,2.5 0 0 1 399,447.5 L399,242.5 A2.5,2.5 0 0 1 401.5,240 " fill="none" style="stroke:#7D5393;stroke-width:1.5;"/><line style="stroke:#7D5393;stroke-width:1.5;" x1="399" x2="535" y1="262.1" y2="262.1"/><text fill="#000000" font-family="NanumGothic" font-size="14" font-weight="bold" lengthAdjust="spacing" textLength="123" x="403" y="254.88">Charge Point: CP11</text></g><!--entity CP10--><g id="elem_CP10"><polygon fill="#7D5393" points="415,147.9,425,137.9,537,137.9,537,190.1,527,200.1,415,200.1,415,147.9" style="stroke:#181818;stroke-width:1.5;"/><line style="stroke:#181818;stroke-width:1.5;" x1="527" x2="537" y1="147.9" y2="137.9"/><line style="stroke:#181818;stroke-width:1.5;" x1="415" x2="527" y1="147.9" y2="147.9"/><line style="stroke:#181818;stroke-width:1.5;" x1="527" x2="527" y1="147.9" y2="200.1"/><text fill="#FFFFFF" font-family="NanumGothic" font-size="14" lengthAdjust="spacing" textLength="82" x="430" y="170.78">Charge Point</text><text fill="#FFFFFF" font-family="NanumGothic" font-size="14" lengthAdjust="spacing" textLength="33" x="430" y="186.88">CP10</text></g><!--entity CP10_C1--><g id="elem_CP10_C1"><polygon fill="#7D5393" points="598,50.9,608,40.9,704,40.9,704,93.1,694,103.1,598,103.1,598,50.9" style="stroke:#181818;stroke-width:1.5;"/><line style="stroke:#181818;stroke-width:1.5;" x1="694" x2="704" y1="50.9" y2="40.9"/><line style="stroke:#181818;stroke-width:1.5;" x1="598" x2="694" y1="50.9" y2="50.9"/><line style="stroke:#181818;stroke-width:1.5;" x1="694" x2="694" y1="50.9" y2="103.1"/><text fill="#FFFFFF" font-family="NanumGothic" font-size="14" lengthAdjust="spacing" textLength="66" x="613" y="73.78">Connector</text><text fill="#FFFFFF" font-family="NanumGothic" font-size="14" lengthAdjust="spacing" textLength="8" x="613" y="89.88">1</text></g><!--entity CP10_C2--><g id="elem_CP10_C2"><polygon fill="#7D5393" points="598,147.9,608,137.9,704,137.9,704,190.1,694,200.1,598,200.1,598,147.9" style="stroke:#181818;stroke-width:1.5;"/><line style="stroke:#181818;stroke-width:1.5;" x1="694" x2="704" y1="147.9" y2="137.9"/><line style="stroke:#181818;stroke-width:1.5;" x1="598" x2="694" y1="147.9" y2="147.9"/><line style="stroke:#181818;stroke-width:1.5;" x1="694" x2="694" y1="147.9" y2="200.1"/><text fill="#FFFFFF" font-family="NanumGothic" font-size="14" lengthAdjust="spacing" textLength="66" x="613" y="170.78">Connector</text><text fill="#FFFFFF" font-family="NanumGothic" font-size="14" lengthAdjust="spacing" textLength="8" x="613" y="186.88">2</text></g><!--entity CP11--><g id="elem_CP11"><polygon fill="#7D5393" points="415,284.9,425,274.9,537,274.9,537,327.1,527,337.1,415,337.1,415,284.9" style="stroke:#181818;stroke-width:1.5;"/><line style="stroke:#181818;stroke-width:1.5;" x1="527" x2="537" y1="284.9" y2="274.9"/><line style="stroke:#181818;stroke-width:1.5;" x1="415" x2="527" y1="284.9" y2="284.9"/><line style="stroke:#181818;stroke-width:1.5;" x1="527" x2="527" y1="284.9" y2="337.1"/><text fill="#FFFFFF" font-family="NanumGothic" font-size="14" lengthAdjust="spacing" textLength="82" x="430" y="307.78">Charge Point</text><text fill="#FFFFFF" font-family="NanumGothic" font-size="14" lengthAdjust="spacing" textLength="33" x="430" y="323.88">CP11</text></g><!--entity CP11_C1--><g id="elem_CP11_C1"><polygon fill="#7D5393" points="598,381.9,608,371.9,704,371.9,704,424.1,694,434.1,598,434.1,598,381.9" style="stroke:#181818;stroke-width:1.5;"/><line style="stroke:#181818;stroke-width:1.5;" x1="694" x2="704" y1="381.9" y2="371.9"/><line style="stroke:#181818;stroke-width:1.5;" x1="598" x2="694" y1="381.9" y2="381.9"/><line style="stroke:#181818;stroke-width:1.5;" x1="694" x2="694" y1="381.9" y2="434.1"/><text fill="#FFFFFF" font-family="NanumGothic" font-size="14" lengthAdjust="spacing" textLength="66" x="613" y="404.78">Connector</text><text fill="#FFFFFF" font-family="NanumGothic" font-size="14" lengthAdjust="spacing" textLength="8" x="613" y="420.88">1</text></g><!--entity CP11_C2--><g id="elem_CP11_C2"><polygon fill="#7D5393" points="598,284.9,608,274.9,704,274.9,704,327.1,694,337.1,598,337.1,598,284.9" style="stroke:#181818;stroke-width:1.5;"/><line style="stroke:#181818;stroke-width:1.5;" x1="694" x2="704" y1="284.9" y2="274.9"/><line style="stroke:#181818;stroke-width:1.5;" x1="598" x2="694" y1="284.9" y2="284.9"/><line style="stroke:#181818;stroke-width:1.5;" x1="694" x2="694" y1="284.9" y2="337.1"/><text fill="#FFFFFF" font-family="NanumGothic" font-size="14" lengthAdjust="spacing" textLength="66" x="613" y="307.78">Connector</text><text fill="#FFFFFF" font-family="NanumGothic" font-size="14" lengthAdjust="spacing" textLength="8" x="613" y="323.88">2</text></g><!--entity CentralSystem--><g id="elem_CentralSystem"><polygon fill="#7D5393" points="53,224.95,63,214.95,189,214.95,189,251.05,179,261.05,53,261.05,53,224.95" style="stroke:#181818;stroke-width:1.5;"/><line style="stroke:#181818;stroke-width:1.5;" x1="179" x2="189" y1="224.95" y2="214.95"/><line style="stroke:#181818;stroke-width:1.5;" x1="53" x2="179" y1="224.95" y2="224.95"/><line style="stroke:#181818;stroke-width:1.5;" x1="179" x2="179" y1="224.95" y2="261.05"/><text fill="#FFFFFF" font-family="NanumGothic" font-size="14" lengthAdjust="spacing" textLength="96" x="68" y="247.83">Central System</text></g><!--entity EV1--><g id="elem_EV1"><ellipse cx="909.5" cy="34.45" fill="#F1F1F1" rx="8" ry="8" style="stroke:#7D5393;stroke-width:1.5;"/><path d="M909.5,42.45 L909.5,69.45 M896.5,50.45 L922.5,50.45 M909.5,69.45 L896.5,84.45 M909.5,69.45 L922.5,84.45 " fill="none" style="stroke:#7D5393;stroke-width:1.5;"/><text fill="#000000" font-family="NanumGothic" font-size="14" lengthAdjust="spacing" textLength="25" x="897" y="99.83">EV1</text></g><!--entity EV2--><g id="elem_EV2"><ellipse cx="909.5" cy="147.45" fill="#F1F1F1" rx="8" ry="8" style="stroke:#7D5393;stroke-width:1.5;"/><path d="M909.5,155.45 L909.5,182.45 M896.5,163.45 L922.5,163.45 M909.5,182.45 L896.5,197.45 M909.5,182.45 L922.5,197.45 " fill="none" style="stroke:#7D5393;stroke-width:1.5;"/><text fill="#000000" font-family="NanumGothic" font-size="14" lengthAdjust="spacing" textLength="25" x="897" y="212.83">EV2</text></g><g id="elem_GMN13"><path d="M6,125.57 L6,180.42 A0,0 0 0 0 6,180.42 L117,180.42 L121,214.76 L125,180.42 L236,180.42 A0,0 0 0 0 236,180.42 L236,135.57 L226,125.57 L6,125.57 A0,0 0 0 0 6,125.57 " fill="#7D5393" style="stroke:#000000;stroke-width:0.5;"/><path d="M226,125.57 L226,135.57 L236,135.57 L226,125.57 " fill="#7D5393" style="stroke:#000000;stroke-width:0.5;"/><text fill="#FFFFFF" font-family="NanumGothic" font-size="13" lengthAdjust="spacing" textLength="155" x="12" y="142.53">Central System&#51008; &#47932;&#47532;&#51201;&#51064;</text><text fill="#FFFFFF" font-family="NanumGothic" font-size="13" lengthAdjust="spacing" textLength="209" x="12" y="157.48">&#44536;&#47532;&#46300; &#50672;&#44208;(grid connection) &#51228;&#54620;&#51012;</text><text fill="#FFFFFF" font-family="NanumGothic" font-size="13" lengthAdjust="spacing" textLength="64" x="12" y="172.43">&#49444;&#51221;&#54633;&#45768;&#45796;.</text></g><!--link CentralSystem to CP10--><g id="link_CentralSystem_CP10"><path d="M189.23,224.86 C254.24,212.15 345.9714,194.2207 408.6114,181.9807 " fill="none" id="CentralSystem-to-CP10" style="stroke:#181818;stroke-width:1.0;"/><polygon fill="#181818" points="414.5,180.83,404.8999,178.6302,409.5928,181.7889,406.4342,186.4817,414.5,180.83" style="stroke:#181818;stroke-width:1.0;"/><text fill="#000000" font-family="NanumGothic" font-size="13" lengthAdjust="spacing" textLength="115" x="267" y="184.47">OCPP &#52264;&#51669; &#54532;&#47196;&#54028;&#51068;</text></g><!--link CentralSystem to CP11--><g id="link_CentralSystem_CP11"><path d="M189.23,250.95 C254.24,263.47 345.9684,281.1448 408.6084,293.2148 " fill="none" id="CentralSystem-to-CP11" style="stroke:#181818;stroke-width:1.0;"/><polygon fill="#181818" points="414.5,294.35,406.4194,288.7194,409.5903,293.404,404.9057,296.5749,414.5,294.35" style="stroke:#181818;stroke-width:1.0;"/><text fill="#000000" font-family="NanumGothic" font-size="13" lengthAdjust="spacing" textLength="115" x="267" y="262.87">OCPP &#52264;&#51669; &#54532;&#47196;&#54028;&#51068;</text></g><!--link CP10 to CP10_C1--><g id="link_CP10_CP10_C1"><path d="M533.17,137.51 C553.89,125.89 577.26,112.78 597.63,101.36 " fill="none" id="CP10-CP10_C1" style="stroke:#181818;stroke-width:1.0;"/></g><!--link CP10 to CP10_C2--><g id="link_CP10_CP10_C2"><path d="M537.02,169 C556.73,169 578.48,169 597.58,169 " fill="none" id="CP10-CP10_C2" style="stroke:#181818;stroke-width:1.0;"/></g><!--link CP11 to CP11_C1--><g id="link_CP11_CP11_C1"><path d="M533.17,337.49 C553.89,349.11 577.26,362.22 597.63,373.64 " fill="none" id="CP11-CP11_C1" style="stroke:#181818;stroke-width:1.0;"/></g><!--link CP11 to CP11_C2--><g id="link_CP11_CP11_C2"><path d="M537.02,306 C556.73,306 578.48,306 597.58,306 " fill="none" id="CP11-CP11_C2" style="stroke:#181818;stroke-width:1.0;"/></g><!--link CP10_C1 to EV1--><g id="link_CP10_C1_EV1"><path d="M704.22,70.37 C764.27,68.5 853.1429,65.7279 888.5629,64.6179 " fill="none" id="CP10_C1-to-EV1" style="stroke:#181818;stroke-width:1.0;stroke-dasharray:1.0,3.0;"/><polygon fill="#181818" points="894.56,64.43,885.4391,60.7139,889.5625,64.5866,885.6897,68.7099,894.56,64.43" style="stroke:#181818;stroke-width:1.0;"/><text fill="#000000" font-family="NanumGothic" font-size="13" lengthAdjust="spacing" textLength="45" x="776" y="47.49">CP &#49888;&#54840;</text><text fill="#000000" font-family="NanumGothic" font-size="13" lengthAdjust="spacing" textLength="127" x="737" y="62.44">(Control Pilot Signal)</text></g><!--link CP10_C2 to EV2--><g id="link_CP10_C2_EV2"><path d="M704.22,170.63 C764.27,172.5 853.1429,175.2721 888.5629,176.3821 " fill="none" id="CP10_C2-to-EV2" style="stroke:#181818;stroke-width:1.0;stroke-dasharray:1.0,3.0;"/><polygon fill="#181818" points="894.56,176.57,885.6897,172.2901,889.5625,176.4134,885.4391,180.2861,894.56,176.57" style="stroke:#181818;stroke-width:1.0;"/><text fill="#000000" font-family="NanumGothic" font-size="13" lengthAdjust="spacing" textLength="45" x="776" y="153.78">CP &#49888;&#54840;</text><text fill="#000000" font-family="NanumGothic" font-size="13" lengthAdjust="spacing" textLength="127" x="737" y="168.73">(Control Pilot Signal)</text></g><!--SRC=[ZP8_IyD06CRt-nIldTf1yJ9sS0cw6YYuM2cXTuq7rxjoFH4HGQ63q6vQT4YXGl4FT2WkTl0JDPVluAK9_MTjdP8y-RtFFRpFxJ1HvHU4GbNM6r9GeIk4-O7owvMclk9qht5HvmXnMjEW9IWMd6iWJD6gPb8W9AITpRbsJlaSIbTDJUivy9kGIQc2K4roGfKbptqLKF0a4xe8heVtKzg-7AN8DGB8N1VOibXYqHoIGjWmKfK5dlskk7WTu2m03hhPa6fcXRUdchERK-5jgN2Moazqo1sUfAFsEPUSJ7AIrMjgEsc0hAri6s2v4DExXMZu7RqEJV_EzCOMc7oDxMVq489v6aq-H_b0CM8lmJILRRO0fX_6tT3qMfOshO7fT-FkHzI-Zzg3FKG5WUHyX9PEXbqYByNkmNJ7K8HZr_F0ZDxDMnVYnrRq4iQTZkbz_ps5DqsXgMrApth-hJbJ42-8E0DNj1HCN5Bzb4YjAJcpKUpI8Ra9ODhz-7aCPP6tbMabENYCImqb5WYV5p83Pus1yp-37m00]--></g></svg>