<?xml version="1.0" encoding="us-ascii" standalone="no"?><svg xmlns="http://www.w3.org/2000/svg" xmlns:xlink="http://www.w3.org/1999/xlink" contentStyleType="text/css" height="899px" preserveAspectRatio="none" style="width:763px;height:899px;background:#FFFFFF;" version="1.1" viewBox="0 0 763 899" width="763px" zoomAndPan="magnify"><defs/><g><rect fill="#FFFFFF" height="307.5" style="stroke:#181818;stroke-width:1.0;" width="10" x="122" y="67.05"/><rect fill="#FFFFFF" height="86.85" style="stroke:#181818;stroke-width:1.0;" width="10" x="122" y="527.25"/><rect fill="#FFFFFF" height="28.95" style="stroke:#181818;stroke-width:1.0;" width="10" x="122" y="657.7"/><rect fill="#FFFFFF" height="28.95" style="stroke:#181818;stroke-width:1.0;" width="10" x="122" y="715.6"/><rect fill="#FFFFFF" height="28.95" style="stroke:#181818;stroke-width:1.0;" width="10" x="122" y="838.35"/><rect fill="#FFFFFF" height="28.95" style="stroke:#181818;stroke-width:1.0;" width="10" x="686" y="67.05"/><rect fill="#FFFFFF" height="28.95" style="stroke:#181818;stroke-width:1.0;" width="10" x="686" y="159.9"/><rect fill="#FFFFFF" height="28.95" style="stroke:#181818;stroke-width:1.0;" width="10" x="686" y="252.75"/><rect fill="#FFFFFF" height="28.95" style="stroke:#181818;stroke-width:1.0;" width="10" x="686" y="345.6"/><rect fill="#FFFFFF" height="28.95" style="stroke:#181818;stroke-width:1.0;" width="10" x="686" y="527.25"/><rect fill="#FFFFFF" height="28.95" style="stroke:#181818;stroke-width:1.0;" width="10" x="686" y="585.15"/><rect fill="#FFFFFF" height="86.85" style="stroke:#181818;stroke-width:1.0;" width="10" x="686" y="657.7"/><rect fill="#FFFFFF" height="28.95" style="stroke:#181818;stroke-width:1.0;" width="10" x="686" y="838.35"/><rect fill="none" height="450.8" style="stroke:#000000;stroke-width:1.5;" width="687" x="69" y="424.5"/><line style="stroke:#181818;stroke-width:0.5;stroke-dasharray:5.0,5.0;" x1="127" x2="127" y1="36.1" y2="892.3"/><line style="stroke:#181818;stroke-width:0.5;stroke-dasharray:5.0,5.0;" x1="691" x2="691" y1="36.1" y2="892.3"/><rect fill="#7D5393" height="30.1" rx="2.5" ry="2.5" style="stroke:#181818;stroke-width:0.5;" width="96" x="79" y="5"/><text fill="#FFFFFF" font-family="NanumGothic" font-size="14" lengthAdjust="spacing" textLength="82" x="86" y="24.88">Charge Point</text><rect fill="#7D5393" height="30.1" rx="2.5" ry="2.5" style="stroke:#181818;stroke-width:0.5;" width="110" x="636" y="5"/><text fill="#FFFFFF" font-family="NanumGothic" font-size="14" lengthAdjust="spacing" textLength="96" x="643" y="24.88">Central System</text><rect fill="#FFFFFF" height="307.5" style="stroke:#181818;stroke-width:1.0;" width="10" x="122" y="67.05"/><rect fill="#FFFFFF" height="86.85" style="stroke:#181818;stroke-width:1.0;" width="10" x="122" y="527.25"/><rect fill="#FFFFFF" height="28.95" style="stroke:#181818;stroke-width:1.0;" width="10" x="122" y="657.7"/><rect fill="#FFFFFF" height="28.95" style="stroke:#181818;stroke-width:1.0;" width="10" x="122" y="715.6"/><rect fill="#FFFFFF" height="28.95" style="stroke:#181818;stroke-width:1.0;" width="10" x="122" y="838.35"/><rect fill="#FFFFFF" height="28.95" style="stroke:#181818;stroke-width:1.0;" width="10" x="686" y="67.05"/><rect fill="#FFFFFF" height="28.95" style="stroke:#181818;stroke-width:1.0;" width="10" x="686" y="159.9"/><rect fill="#FFFFFF" height="28.95" style="stroke:#181818;stroke-width:1.0;" width="10" x="686" y="252.75"/><rect fill="#FFFFFF" height="28.95" style="stroke:#181818;stroke-width:1.0;" width="10" x="686" y="345.6"/><rect fill="#FFFFFF" height="28.95" style="stroke:#181818;stroke-width:1.0;" width="10" x="686" y="527.25"/><rect fill="#FFFFFF" height="28.95" style="stroke:#181818;stroke-width:1.0;" width="10" x="686" y="585.15"/><rect fill="#FFFFFF" height="86.85" style="stroke:#181818;stroke-width:1.0;" width="10" x="686" y="657.7"/><rect fill="#FFFFFF" height="28.95" style="stroke:#181818;stroke-width:1.0;" width="10" x="686" y="838.35"/><polygon fill="#181818" points="143,63.05,133,67.05,143,71.05,139,67.05" style="stroke:#181818;stroke-width:1.0;"/><line style="stroke:#181818;stroke-width:1.0;" x1="137" x2="685" y1="67.05" y2="67.05"/><text fill="#000000" font-family="NanumGothic" font-size="13" lengthAdjust="spacing" textLength="410" x="149" y="62.06">UpdateFirmware.req(location, retrieveDate, [retries], [retryInterval])</text><polygon fill="#181818" points="679,92,689,96,679,100,683,96" style="stroke:#181818;stroke-width:1.0;"/><line style="stroke:#181818;stroke-width:1.0;stroke-dasharray:2.0,2.0;" x1="132" x2="685" y1="96" y2="96"/><text fill="#000000" font-family="NanumGothic" font-size="13" lengthAdjust="spacing" textLength="142" x="139" y="91.01">UpdateFirmware.conf()</text><path d="M34,109 L34,133 L220,133 L220,119 L210,109 L34,109 " fill="#7D5393" style="stroke:#000000;stroke-width:0.5;"/><path d="M210,109 L210,119 L220,119 L210,109 " fill="#7D5393" style="stroke:#000000;stroke-width:0.5;"/><text fill="#FFFFFF" font-family="NanumGothic" font-size="13" lengthAdjust="spacing" textLength="165" x="40" y="125.96">retrieveDate&#47484; &#44592;&#45796;&#47532;&#45716; &#51473;...</text><polygon fill="#181818" points="674,155.9,684,159.9,674,163.9,678,159.9" style="stroke:#181818;stroke-width:1.0;"/><line style="stroke:#181818;stroke-width:1.0;" x1="132" x2="680" y1="159.9" y2="159.9"/><text fill="#000000" font-family="NanumGothic" font-size="13" lengthAdjust="spacing" textLength="194" x="139" y="154.91">FirmwareStatusNotification.req(</text><text fill="#000000" font-family="NanumGothic" font-size="13" font-weight="bold" lengthAdjust="spacing" textLength="126" x="337" y="154.91">status: Downloading</text><text fill="#000000" font-family="NanumGothic" font-size="13" lengthAdjust="spacing" textLength="5" x="467" y="154.91">)</text><polygon fill="#181818" points="143,184.85,133,188.85,143,192.85,139,188.85" style="stroke:#181818;stroke-width:1.0;"/><line style="stroke:#181818;stroke-width:1.0;stroke-dasharray:2.0,2.0;" x1="137" x2="690" y1="188.85" y2="188.85"/><text fill="#000000" font-family="NanumGothic" font-size="13" lengthAdjust="spacing" textLength="206" x="149" y="183.86">FirmwareStatusNotification.conf()</text><path d="M78,201.85 L78,225.85 L175,225.85 L175,211.85 L165,201.85 L78,201.85 " fill="#7D5393" style="stroke:#000000;stroke-width:0.5;"/><path d="M165,201.85 L165,211.85 L175,211.85 L165,201.85 " fill="#7D5393" style="stroke:#000000;stroke-width:0.5;"/><text fill="#FFFFFF" font-family="NanumGothic" font-size="13" lengthAdjust="spacing" textLength="76" x="84" y="218.81">&#45796;&#50868;&#47196;&#46300; &#51473;...</text><polygon fill="#181818" points="674,248.75,684,252.75,674,256.75,678,252.75" style="stroke:#181818;stroke-width:1.0;"/><line style="stroke:#181818;stroke-width:1.0;" x1="132" x2="680" y1="252.75" y2="252.75"/><text fill="#000000" font-family="NanumGothic" font-size="13" lengthAdjust="spacing" textLength="194" x="139" y="247.76">FirmwareStatusNotification.req(</text><text fill="#000000" font-family="NanumGothic" font-size="13" font-weight="bold" lengthAdjust="spacing" textLength="122" x="337" y="247.76">status: Downloaded</text><text fill="#000000" font-family="NanumGothic" font-size="13" lengthAdjust="spacing" textLength="5" x="467" y="247.76">)</text><polygon fill="#181818" points="143,277.7,133,281.7,143,285.7,139,281.7" style="stroke:#181818;stroke-width:1.0;"/><line style="stroke:#181818;stroke-width:1.0;stroke-dasharray:2.0,2.0;" x1="137" x2="690" y1="281.7" y2="281.7"/><text fill="#000000" font-family="NanumGothic" font-size="13" lengthAdjust="spacing" textLength="206" x="149" y="276.71">FirmwareStatusNotification.conf()</text><path d="M5,294.7 L5,318.7 L250,318.7 L250,304.7 L240,294.7 L5,294.7 " fill="#7D5393" style="stroke:#000000;stroke-width:0.5;"/><path d="M240,294.7 L240,304.7 L250,304.7 L240,294.7 " fill="#7D5393" style="stroke:#000000;stroke-width:0.5;"/><text fill="#FFFFFF" font-family="NanumGothic" font-size="13" lengthAdjust="spacing" textLength="224" x="11" y="311.66">transaction&#51060; &#50756;&#47308;&#46104;&#44592;&#47484; &#44592;&#45796;&#47532;&#45716; &#51473;...</text><polygon fill="#181818" points="674,341.6,684,345.6,674,349.6,678,345.6" style="stroke:#181818;stroke-width:1.0;"/><line style="stroke:#181818;stroke-width:1.0;" x1="132" x2="680" y1="345.6" y2="345.6"/><text fill="#000000" font-family="NanumGothic" font-size="13" lengthAdjust="spacing" textLength="194" x="139" y="340.61">FirmwareStatusNotification.req(</text><text fill="#000000" font-family="NanumGothic" font-size="13" font-weight="bold" lengthAdjust="spacing" textLength="99" x="337" y="340.61">status: Installing</text><text fill="#000000" font-family="NanumGothic" font-size="13" lengthAdjust="spacing" textLength="5" x="444" y="340.61">)</text><polygon fill="#181818" points="138,370.55,128,374.55,138,378.55,134,374.55" style="stroke:#181818;stroke-width:1.0;"/><line style="stroke:#181818;stroke-width:1.0;stroke-dasharray:2.0,2.0;" x1="132" x2="690" y1="374.55" y2="374.55"/><text fill="#000000" font-family="NanumGothic" font-size="13" lengthAdjust="spacing" textLength="206" x="144" y="369.56">FirmwareStatusNotification.conf()</text><path d="M90,387.55 L90,411.55 L163,411.55 L163,397.55 L153,387.55 L90,387.55 " fill="#7D5393" style="stroke:#000000;stroke-width:0.5;"/><path d="M153,387.55 L153,397.55 L163,397.55 L153,387.55 " fill="#7D5393" style="stroke:#000000;stroke-width:0.5;"/><text fill="#FFFFFF" font-family="NanumGothic" font-size="13" lengthAdjust="spacing" textLength="52" x="96" y="404.51">&#49444;&#52824; &#51473;...</text><path d="M69,424.5 L129,424.5 L129,431.45 L119,441.45 L69,441.45 L69,424.5 " fill="#EEEEEE" style="stroke:#000000;stroke-width:1.5;"/><rect fill="none" height="450.8" style="stroke:#000000;stroke-width:1.5;" width="687" x="69" y="424.5"/><text fill="#000000" font-family="NanumGothic" font-size="13" font-weight="bold" lengthAdjust="spacing" textLength="15" x="84" y="437.46">alt</text><text fill="#000000" font-family="NanumGothic" font-size="11" font-weight="bold" lengthAdjust="spacing" textLength="160" x="144" y="436.62">[&#54156;&#50920;&#50612; &#50629;&#45936;&#51060;&#53944; &#51060;&#54980; &#51088;&#46041; &#51116;&#48512;&#54021;]</text><path d="M98,446.45 L98,470.45 L155,470.45 L155,456.45 L145,446.45 L98,446.45 " fill="#7D5393" style="stroke:#000000;stroke-width:0.5;"/><path d="M145,446.45 L145,456.45 L155,456.45 L145,446.45 " fill="#7D5393" style="stroke:#000000;stroke-width:0.5;"/><text fill="#FFFFFF" font-family="NanumGothic" font-size="13" lengthAdjust="spacing" textLength="36" x="104" y="463.41">&#51116;&#48512;&#54021;</text><polygon fill="#181818" points="674,523.25,684,527.25,674,531.25,678,527.25" style="stroke:#181818;stroke-width:1.0;"/><line style="stroke:#181818;stroke-width:1.0;" x1="132" x2="680" y1="527.25" y2="527.25"/><text fill="#000000" font-family="NanumGothic" font-size="13" lengthAdjust="spacing" textLength="533" x="139" y="492.36">BootNotification.req(chargePointModel, chargePointVendor, [chargeBoxSerialNumber],</text><text fill="#000000" font-family="NanumGothic" font-size="13" lengthAdjust="spacing" textLength="8" x="139" y="507.31">&#160;&#160;</text><text fill="#000000" font-family="NanumGothic" font-size="13" lengthAdjust="spacing" textLength="508" x="171" y="507.31">[chargePointSerialNumber], [firmwareVersion], [iccid], [imsi], [meterSerialNumber],</text><text fill="#000000" font-family="NanumGothic" font-size="13" lengthAdjust="spacing" textLength="8" x="139" y="522.26">&#160;&#160;</text><text fill="#000000" font-family="NanumGothic" font-size="13" lengthAdjust="spacing" textLength="79" x="171" y="522.26">[meterType])</text><polygon fill="#181818" points="143,552.2,133,556.2,143,560.2,139,556.2" style="stroke:#181818;stroke-width:1.0;"/><line style="stroke:#181818;stroke-width:1.0;stroke-dasharray:2.0,2.0;" x1="137" x2="690" y1="556.2" y2="556.2"/><text fill="#000000" font-family="NanumGothic" font-size="13" lengthAdjust="spacing" textLength="369" x="149" y="551.21">BootNotification.conf(currentTime, heartbeatInterval, status)</text><polygon fill="#181818" points="674,581.15,684,585.15,674,589.15,678,585.15" style="stroke:#181818;stroke-width:1.0;"/><line style="stroke:#181818;stroke-width:1.0;" x1="132" x2="680" y1="585.15" y2="585.15"/><text fill="#000000" font-family="NanumGothic" font-size="13" lengthAdjust="spacing" textLength="239" x="139" y="580.16">FirmwareStatusNotification.req( status:</text><text fill="#000000" font-family="NanumGothic" font-size="13" font-weight="bold" lengthAdjust="spacing" textLength="50" x="382" y="580.16">Installed</text><text fill="#000000" font-family="NanumGothic" font-size="13" lengthAdjust="spacing" textLength="5" x="436" y="580.16">)</text><polygon fill="#181818" points="138,610.1,128,614.1,138,618.1,134,614.1" style="stroke:#181818;stroke-width:1.0;"/><line style="stroke:#181818;stroke-width:1.0;stroke-dasharray:2.0,2.0;" x1="132" x2="690" y1="614.1" y2="614.1"/><text fill="#000000" font-family="NanumGothic" font-size="13" lengthAdjust="spacing" textLength="206" x="144" y="609.11">FirmwareStatusNotification.conf()</text><line style="stroke:#000000;stroke-width:1.0;stroke-dasharray:2.0,2.0;" x1="69" x2="756" y1="623.1" y2="623.1"/><text fill="#000000" font-family="NanumGothic" font-size="11" font-weight="bold" lengthAdjust="spacing" textLength="160" x="74" y="633.22">[&#54156;&#50920;&#50612; &#50629;&#45936;&#51060;&#53944; &#51060;&#54980; &#49688;&#46041; &#51116;&#48512;&#54021;]</text><polygon fill="#181818" points="674,653.7,684,657.7,674,661.7,678,657.7" style="stroke:#181818;stroke-width:1.0;"/><line style="stroke:#181818;stroke-width:1.0;" x1="132" x2="680" y1="657.7" y2="657.7"/><text fill="#000000" font-family="NanumGothic" font-size="13" lengthAdjust="spacing" textLength="239" x="139" y="652.71">FirmwareStatusNotification.req( status:</text><text fill="#000000" font-family="NanumGothic" font-size="13" font-weight="bold" lengthAdjust="spacing" textLength="50" x="382" y="652.71">Installed</text><text fill="#000000" font-family="NanumGothic" font-size="13" lengthAdjust="spacing" textLength="5" x="436" y="652.71">)</text><polygon fill="#181818" points="138,682.65,128,686.65,138,690.65,134,686.65" style="stroke:#181818;stroke-width:1.0;"/><line style="stroke:#181818;stroke-width:1.0;stroke-dasharray:2.0,2.0;" x1="132" x2="685" y1="686.65" y2="686.65"/><text fill="#000000" font-family="NanumGothic" font-size="13" lengthAdjust="spacing" textLength="206" x="144" y="681.66">FirmwareStatusNotification.conf()</text><polygon fill="#181818" points="143,711.6,133,715.6,143,719.6,139,715.6" style="stroke:#181818;stroke-width:1.0;"/><line style="stroke:#181818;stroke-width:1.0;" x1="137" x2="685" y1="715.6" y2="715.6"/><text fill="#000000" font-family="NanumGothic" font-size="13" lengthAdjust="spacing" textLength="96" x="149" y="710.61">Reset.req(Hard)</text><polygon fill="#181818" points="679,740.55,689,744.55,679,748.55,683,744.55" style="stroke:#181818;stroke-width:1.0;"/><line style="stroke:#181818;stroke-width:1.0;stroke-dasharray:2.0,2.0;" x1="127" x2="685" y1="744.55" y2="744.55"/><text fill="#000000" font-family="NanumGothic" font-size="13" lengthAdjust="spacing" textLength="74" x="134" y="739.56">Reset.conf()</text><path d="M98,757.55 L98,781.55 L155,781.55 L155,767.55 L145,757.55 L98,757.55 " fill="#7D5393" style="stroke:#000000;stroke-width:0.5;"/><path d="M145,757.55 L145,767.55 L155,767.55 L145,757.55 " fill="#7D5393" style="stroke:#000000;stroke-width:0.5;"/><text fill="#FFFFFF" font-family="NanumGothic" font-size="13" lengthAdjust="spacing" textLength="36" x="104" y="774.51">&#51116;&#48512;&#54021;</text><polygon fill="#181818" points="674,834.35,684,838.35,674,842.35,678,838.35" style="stroke:#181818;stroke-width:1.0;"/><line style="stroke:#181818;stroke-width:1.0;" x1="132" x2="680" y1="838.35" y2="838.35"/><text fill="#000000" font-family="NanumGothic" font-size="13" lengthAdjust="spacing" textLength="533" x="139" y="803.46">BootNotification.req(chargePointModel, chargePointVendor, [chargeBoxSerialNumber],</text><text fill="#000000" font-family="NanumGothic" font-size="13" lengthAdjust="spacing" textLength="16" x="139" y="818.41">&#160;&#160;&#160;&#160;</text><text fill="#000000" font-family="NanumGothic" font-size="13" lengthAdjust="spacing" textLength="508" x="171" y="818.41">[chargePointSerialNumber], [firmwareVersion], [iccid], [imsi], [meterSerialNumber],</text><text fill="#000000" font-family="NanumGothic" font-size="13" lengthAdjust="spacing" textLength="16" x="139" y="833.36">&#160;&#160;&#160;&#160;</text><text fill="#000000" font-family="NanumGothic" font-size="13" lengthAdjust="spacing" textLength="79" x="171" y="833.36">[meterType])</text><polygon fill="#181818" points="138,863.3,128,867.3,138,871.3,134,867.3" style="stroke:#181818;stroke-width:1.0;"/><line style="stroke:#181818;stroke-width:1.0;stroke-dasharray:2.0,2.0;" x1="132" x2="690" y1="867.3" y2="867.3"/><text fill="#000000" font-family="NanumGothic" font-size="13" lengthAdjust="spacing" textLength="369" x="144" y="862.31">BootNotification.conf(currentTime, heartbeatInterval, status)</text><!--SRC=[rLNDRjD04BxxAOQU6YlD0_J0eLI87gWGARsaEMpjIRlIUZUiDocvSKWbL08KWI2b1GaH48SUUgXGaNWYxBm3QpkX_edZ5cW0AT9wPsTdlltccyaroYtMiX5SrM5OQROSPXXD8XMrQ9Dm1NCtjedSGhWZA5TpG5o83E4-vObSISAWsd4LEf5lP8eiXf7OmiBrU2nOX7jDcoYyIQMpGoHM9DwVPy8YYWfU1ebAKcpZidOfGotQklNHPsU5AvHjmkebWrYAjhLN0kcvCGKfXc0XG9I0cC5a2TwOBnasviNZGjj46sKYEoJWUn-_mVUp4-_nmFjqxEsz17_ml5Af6CXj2EwdK6L1ZU5K5L4jTrKesg0HJo5fO9fkUB88osA7Cq5iohTC4qhvD2GhaodDb8o_J8b-l__cr7j_vBqucW45QCC_Hu7suMvmIN3_xIdu1rtlGy_RxmVgc9r8LhZ-OanhvAyn53-8CPHBdDyT-5_xMKu8Kp1yslCFF_klD9-lTxqd9vhPuTuP1CjX5_nt-zwp0xqSUryU3dkxEbXU4aXu_Km2e7y5v0Ci2Q4of5ldjsuB6raPOfPrdK58FT0Ysv9uK4L92LjjEPiew-KD3h2XQh4RoNEeDKO5M4VfwfI1YLeMjSCFnwN1wg0Ub1C3XoThdIRg6GemiHvnSr8R04Ngo10IQi9gIQalhb57J_LjrFydcqZKU9gN8T9e02Y_kmghKTGAuqOmpL4he1qsmkyyjxWPfZmfUHGh038NYmJ-g9yM-0pe-KCYkInhyLcHYPuEVXTTLE6JRX5fv-9F4pQ1iIXI4QBfchtarBd8pBcggNE5S-T_cpmNAw_crFW1]--></g></svg>