<?xml version="1.0" encoding="us-ascii" standalone="no"?><svg xmlns="http://www.w3.org/2000/svg" xmlns:xlink="http://www.w3.org/1999/xlink" contentStyleType="text/css" height="429px" preserveAspectRatio="none" style="width:689px;height:429px;background:#FFFFFF;" version="1.1" viewBox="0 0 689 429" width="689px" zoomAndPan="magnify"><defs/><g><rect fill="#FFFFFF" height="28.95" style="stroke:#181818;stroke-width:1.0;" width="10" x="66" y="67.05"/><rect fill="#FFFFFF" height="28.95" style="stroke:#181818;stroke-width:1.0;" width="10" x="66" y="159.9"/><rect fill="#FFFFFF" height="28.95" style="stroke:#181818;stroke-width:1.0;" width="10" x="66" y="252.75"/><rect fill="#FFFFFF" height="28.95" style="stroke:#181818;stroke-width:1.0;" width="10" x="66" y="375.5"/><rect fill="#FFFFFF" height="28.95" style="stroke:#181818;stroke-width:1.0;" width="10" x="623" y="67.05"/><rect fill="#FFFFFF" height="28.95" style="stroke:#181818;stroke-width:1.0;" width="10" x="623" y="159.9"/><rect fill="#FFFFFF" height="28.95" style="stroke:#181818;stroke-width:1.0;" width="10" x="623" y="252.75"/><rect fill="#FFFFFF" height="28.95" style="stroke:#181818;stroke-width:1.0;" width="10" x="623" y="375.5"/><line style="stroke:#181818;stroke-width:0.5;stroke-dasharray:5.0,5.0;" x1="71" x2="71" y1="36.1" y2="422.45"/><line style="stroke:#181818;stroke-width:0.5;stroke-dasharray:5.0,5.0;" x1="628" x2="628" y1="36.1" y2="422.45"/><rect fill="#7D5393" height="30.1" rx="2.5" ry="2.5" style="stroke:#181818;stroke-width:0.5;" width="96" x="23" y="5"/><text fill="#FFFFFF" font-family="NanumGothic" font-size="14" lengthAdjust="spacing" textLength="82" x="30" y="24.88">Charge Point</text><rect fill="#7D5393" height="30.1" rx="2.5" ry="2.5" style="stroke:#181818;stroke-width:0.5;" width="110" x="573" y="5"/><text fill="#FFFFFF" font-family="NanumGothic" font-size="14" lengthAdjust="spacing" textLength="96" x="580" y="24.88">Central System</text><rect fill="#FFFFFF" height="28.95" style="stroke:#181818;stroke-width:1.0;" width="10" x="66" y="67.05"/><rect fill="#FFFFFF" height="28.95" style="stroke:#181818;stroke-width:1.0;" width="10" x="66" y="159.9"/><rect fill="#FFFFFF" height="28.95" style="stroke:#181818;stroke-width:1.0;" width="10" x="66" y="252.75"/><rect fill="#FFFFFF" height="28.95" style="stroke:#181818;stroke-width:1.0;" width="10" x="66" y="375.5"/><rect fill="#FFFFFF" height="28.95" style="stroke:#181818;stroke-width:1.0;" width="10" x="623" y="67.05"/><rect fill="#FFFFFF" height="28.95" style="stroke:#181818;stroke-width:1.0;" width="10" x="623" y="159.9"/><rect fill="#FFFFFF" height="28.95" style="stroke:#181818;stroke-width:1.0;" width="10" x="623" y="252.75"/><rect fill="#FFFFFF" height="28.95" style="stroke:#181818;stroke-width:1.0;" width="10" x="623" y="375.5"/><polygon fill="#181818" points="611,63.05,621,67.05,611,71.05,615,67.05" style="stroke:#181818;stroke-width:1.0;"/><line style="stroke:#181818;stroke-width:1.0;" x1="76" x2="617" y1="67.05" y2="67.05"/><text fill="#000000" font-family="NanumGothic" font-size="13" lengthAdjust="spacing" textLength="410" x="83" y="62.06">UpdateFirmware.req(location, retrieveDate, [retries], [retryInterval])</text><polygon fill="#181818" points="82,92,72,96,82,100,78,96" style="stroke:#181818;stroke-width:1.0;"/><line style="stroke:#181818;stroke-width:1.0;stroke-dasharray:2.0,2.0;" x1="76" x2="627" y1="96" y2="96"/><text fill="#000000" font-family="NanumGothic" font-size="13" lengthAdjust="spacing" textLength="142" x="88" y="91.01">UpdateFirmware.conf()</text><path d="M5,109 L5,133 L138,133 L138,119 L128,109 L5,109 " fill="#7D5393" style="stroke:#000000;stroke-width:0.5;"/><path d="M128,109 L128,119 L138,119 L128,109 " fill="#7D5393" style="stroke:#000000;stroke-width:0.5;"/><text fill="#FFFFFF" font-family="NanumGothic" font-size="13" lengthAdjust="spacing" textLength="112" x="11" y="125.96">&#54156;&#50920;&#50612; &#45796;&#50868;&#47196;&#46300;&#51473;...</text><polygon fill="#181818" points="611,155.9,621,159.9,611,163.9,615,159.9" style="stroke:#181818;stroke-width:1.0;"/><line style="stroke:#181818;stroke-width:1.0;" x1="76" x2="617" y1="159.9" y2="159.9"/><text fill="#000000" font-family="NanumGothic" font-size="13" lengthAdjust="spacing" textLength="194" x="83" y="154.91">FirmwareStatusNotification.req(</text><text fill="#000000" font-family="NanumGothic" font-size="13" font-weight="bold" lengthAdjust="spacing" textLength="122" x="281" y="154.91">status: Downloaded</text><text fill="#000000" font-family="NanumGothic" font-size="13" lengthAdjust="spacing" textLength="5" x="407" y="154.91">)</text><polygon fill="#181818" points="82,184.85,72,188.85,82,192.85,78,188.85" style="stroke:#181818;stroke-width:1.0;"/><line style="stroke:#181818;stroke-width:1.0;stroke-dasharray:2.0,2.0;" x1="76" x2="627" y1="188.85" y2="188.85"/><text fill="#000000" font-family="NanumGothic" font-size="13" lengthAdjust="spacing" textLength="206" x="88" y="183.86">FirmwareStatusNotification.conf()</text><path d="M36,201.85 L36,225.85 L105,225.85 L105,211.85 L95,201.85 L36,201.85 " fill="#7D5393" style="stroke:#000000;stroke-width:0.5;"/><path d="M95,201.85 L95,211.85 L105,211.85 L95,201.85 " fill="#7D5393" style="stroke:#000000;stroke-width:0.5;"/><text fill="#FFFFFF" font-family="NanumGothic" font-size="13" lengthAdjust="spacing" textLength="48" x="42" y="218.81">&#49444;&#52824;&#51473;...</text><polygon fill="#181818" points="611,248.75,621,252.75,611,256.75,615,252.75" style="stroke:#181818;stroke-width:1.0;"/><line style="stroke:#181818;stroke-width:1.0;" x1="76" x2="617" y1="252.75" y2="252.75"/><text fill="#000000" font-family="NanumGothic" font-size="13" lengthAdjust="spacing" textLength="194" x="83" y="247.76">FirmwareStatusNotification.req(</text><text fill="#000000" font-family="NanumGothic" font-size="13" font-weight="bold" lengthAdjust="spacing" textLength="95" x="281" y="247.76">status: Installed</text><text fill="#000000" font-family="NanumGothic" font-size="13" lengthAdjust="spacing" textLength="5" x="380" y="247.76">)</text><polygon fill="#181818" points="82,277.7,72,281.7,82,285.7,78,281.7" style="stroke:#181818;stroke-width:1.0;"/><line style="stroke:#181818;stroke-width:1.0;stroke-dasharray:2.0,2.0;" x1="76" x2="627" y1="281.7" y2="281.7"/><text fill="#000000" font-family="NanumGothic" font-size="13" lengthAdjust="spacing" textLength="206" x="88" y="276.71">FirmwareStatusNotification.conf()</text><path d="M42,294.7 L42,318.7 L99,318.7 L99,304.7 L89,294.7 L42,294.7 " fill="#7D5393" style="stroke:#000000;stroke-width:0.5;"/><path d="M89,294.7 L89,304.7 L99,304.7 L89,294.7 " fill="#7D5393" style="stroke:#000000;stroke-width:0.5;"/><text fill="#FFFFFF" font-family="NanumGothic" font-size="13" lengthAdjust="spacing" textLength="36" x="48" y="311.66">&#51116;&#48512;&#54021;</text><polygon fill="#181818" points="611,371.5,621,375.5,611,379.5,615,375.5" style="stroke:#181818;stroke-width:1.0;"/><line style="stroke:#181818;stroke-width:1.0;" x1="76" x2="617" y1="375.5" y2="375.5"/><text fill="#000000" font-family="NanumGothic" font-size="13" lengthAdjust="spacing" textLength="533" x="83" y="340.61">BootNotification.req(chargePointModel, chargePointVendor, [chargeBoxSerialNumber],</text><text fill="#000000" font-family="NanumGothic" font-size="13" lengthAdjust="spacing" textLength="369" x="211" y="355.56">[chargePointSerialNumber],[firmwareVersion], [iccid], [imsi],</text><text fill="#000000" font-family="NanumGothic" font-size="13" lengthAdjust="spacing" textLength="214" x="211" y="370.51">[meterSerialNumber], [meterType])</text><polygon fill="#181818" points="82,400.45,72,404.45,82,408.45,78,404.45" style="stroke:#181818;stroke-width:1.0;"/><line style="stroke:#181818;stroke-width:1.0;stroke-dasharray:2.0,2.0;" x1="76" x2="627" y1="404.45" y2="404.45"/><text fill="#000000" font-family="NanumGothic" font-size="13" lengthAdjust="spacing" textLength="369" x="88" y="399.46">BootNotification.conf(currentTime, heartbeatInterval, status)</text><!--SRC=[rPI_IWD14CRxUuhHAeRBFK0A2nN1GX6YDZ75kZSn2tkxvzvSD9s5LeeWWeYA8AImi1J1Pyhb7TpSHhnBn3ze8zViVZip-_6RcvqHYiiqH4Ye9p68qqXwNimC2IvYfWXc5plCx2AiQw5e5bW2JiZt4v6eo309ZLv26BbO9pd5ymgfK9ildzPXCmuPuR8mqJup61ZSgqZD6GcjV318Hc0Nbso83qstJLhZPMz54PekawqvZt4INHjLClekJZWgRg4sCbNmEEM9QzMkp7aXVdX9KIvVexJLT1TDANvuTfhTF6INJp0uwMVNJuFxsy75RTO_3uB0GnN2AErpQjRYcxa6CKgJDKsYBHor725Kgqb-KeSblQ-aPY66rIhy2jG7f3wnyRVKigD-zd8rIUdF8AqekvBodpEwUnmy7mvFZxyBQ45hcgB2trDMTOZIXuAoPIjhO-VFQGlwe856CBcMHZjeMlwssYRtDGjPvPXcUmna2qrYRnsDi-1SXFaYIaIfJ8Hsnii5m8aRlHZjvF-eMrysQmf9tYAU6cCpDqHadw4EslTl1nczFJy-kD_8UlbX9ry1]--></g></svg>