<?xml version="1.0" encoding="us-ascii" standalone="no"?><svg xmlns="http://www.w3.org/2000/svg" xmlns:xlink="http://www.w3.org/1999/xlink" contentStyleType="text/css" height="320px" preserveAspectRatio="none" style="width:1142px;height:320px;background:#FFFFFF;" version="1.1" viewBox="0 0 1142 320" width="1142px" zoomAndPan="magnify"><defs/><g><!--cluster Local group--><g id="cluster_Local group"><path d="M383.5,6 L458.5,6 A3.75,3.75 0 0 1 461,8.5 L468,28.1 L1132.5,28.1 A2.5,2.5 0 0 1 1135,30.6 L1135,310.5 A2.5,2.5 0 0 1 1132.5,313 L383.5,313 A2.5,2.5 0 0 1 381,310.5 L381,8.5 A2.5,2.5 0 0 1 383.5,6 " fill="none" style="stroke:#7D5393;stroke-width:1.5;"/><line style="stroke:#7D5393;stroke-width:1.5;" x1="381" x2="468" y1="28.1" y2="28.1"/><text fill="#000000" font-family="NanumGothic" font-size="14" font-weight="bold" lengthAdjust="spacing" textLength="74" x="385" y="20.88">Local group</text></g><!--entity LocalControllerCP00--><g id="elem_LocalControllerCP00"><polygon fill="#7D5393" points="430,139.9,440,129.9,569,129.9,569,182.1,559,192.1,430,192.1,430,139.9" style="stroke:#181818;stroke-width:1.5;"/><line style="stroke:#181818;stroke-width:1.5;" x1="559" x2="569" y1="139.9" y2="129.9"/><line style="stroke:#181818;stroke-width:1.5;" x1="430" x2="559" y1="139.9" y2="139.9"/><line style="stroke:#181818;stroke-width:1.5;" x1="559" x2="559" y1="139.9" y2="192.1"/><text fill="#FFFFFF" font-family="NanumGothic" font-size="14" lengthAdjust="spacing" textLength="99" x="445" y="162.78">Local Controller</text><text fill="#FFFFFF" font-family="NanumGothic" font-size="14" lengthAdjust="spacing" textLength="33" x="445" y="178.88">CP00</text></g><!--entity CP03--><g id="elem_CP03"><polygon fill="#7D5393" points="779,50.9,789,40.9,901,40.9,901,93.1,891,103.1,779,103.1,779,50.9" style="stroke:#181818;stroke-width:1.5;"/><line style="stroke:#181818;stroke-width:1.5;" x1="891" x2="901" y1="50.9" y2="40.9"/><line style="stroke:#181818;stroke-width:1.5;" x1="779" x2="891" y1="50.9" y2="50.9"/><line style="stroke:#181818;stroke-width:1.5;" x1="891" x2="891" y1="50.9" y2="103.1"/><text fill="#FFFFFF" font-family="NanumGothic" font-size="14" lengthAdjust="spacing" textLength="82" x="794" y="73.78">Charge Point</text><text fill="#FFFFFF" font-family="NanumGothic" font-size="14" lengthAdjust="spacing" textLength="33" x="794" y="89.88">CP03</text></g><!--entity CP02--><g id="elem_CP02"><polygon fill="#7D5393" points="779,147.9,789,137.9,901,137.9,901,190.1,891,200.1,779,200.1,779,147.9" style="stroke:#181818;stroke-width:1.5;"/><line style="stroke:#181818;stroke-width:1.5;" x1="891" x2="901" y1="147.9" y2="137.9"/><line style="stroke:#181818;stroke-width:1.5;" x1="779" x2="891" y1="147.9" y2="147.9"/><line style="stroke:#181818;stroke-width:1.5;" x1="891" x2="891" y1="147.9" y2="200.1"/><text fill="#FFFFFF" font-family="NanumGothic" font-size="14" lengthAdjust="spacing" textLength="82" x="794" y="170.78">Charge Point</text><text fill="#FFFFFF" font-family="NanumGothic" font-size="14" lengthAdjust="spacing" textLength="33" x="794" y="186.88">CP02</text></g><!--entity CP01--><g id="elem_CP01"><polygon fill="#7D5393" points="779,244.9,789,234.9,901,234.9,901,287.1,891,297.1,779,297.1,779,244.9" style="stroke:#181818;stroke-width:1.5;"/><line style="stroke:#181818;stroke-width:1.5;" x1="891" x2="901" y1="244.9" y2="234.9"/><line style="stroke:#181818;stroke-width:1.5;" x1="779" x2="891" y1="244.9" y2="244.9"/><line style="stroke:#181818;stroke-width:1.5;" x1="891" x2="891" y1="244.9" y2="297.1"/><text fill="#FFFFFF" font-family="NanumGothic" font-size="14" lengthAdjust="spacing" textLength="82" x="794" y="267.78">Charge Point</text><text fill="#FFFFFF" font-family="NanumGothic" font-size="14" lengthAdjust="spacing" textLength="33" x="794" y="283.88">CP01</text></g><!--entity EV1--><g id="elem_EV1"><ellipse cx="1104.5" cy="50.45" fill="#F1F1F1" rx="8" ry="8" style="stroke:#7D5393;stroke-width:1.5;"/><path d="M1104.5,58.45 L1104.5,85.45 M1091.5,66.45 L1117.5,66.45 M1104.5,85.45 L1091.5,100.45 M1104.5,85.45 L1117.5,100.45 " fill="none" style="stroke:#7D5393;stroke-width:1.5;"/><text fill="#000000" font-family="NanumGothic" font-size="14" lengthAdjust="spacing" textLength="25" x="1092" y="115.83">EV1</text></g><!--entity EV2--><g id="elem_EV2"><ellipse cx="1104.5" cy="163.45" fill="#F1F1F1" rx="8" ry="8" style="stroke:#7D5393;stroke-width:1.5;"/><path d="M1104.5,171.45 L1104.5,198.45 M1091.5,179.45 L1117.5,179.45 M1104.5,198.45 L1091.5,213.45 M1104.5,198.45 L1117.5,213.45 " fill="none" style="stroke:#7D5393;stroke-width:1.5;"/><text fill="#000000" font-family="NanumGothic" font-size="14" lengthAdjust="spacing" textLength="25" x="1092" y="228.83">EV2</text></g><g id="elem_GMN10"><path d="M397,227.1 L397,296.9 A0,0 0 0 0 397,296.9 L602,296.9 A0,0 0 0 0 602,296.9 L602,237.1 L592,227.1 L503.5,227.1 L499.5,192.4 L495.5,227.1 L397,227.1 A0,0 0 0 0 397,227.1 " fill="#7D5393" style="stroke:#000000;stroke-width:0.5;"/><path d="M592,227.1 L592,237.1 L602,237.1 L592,227.1 " fill="#7D5393" style="stroke:#000000;stroke-width:0.5;"/><text fill="#FFFFFF" font-family="NanumGothic" font-size="13" lengthAdjust="spacing" textLength="107" x="403" y="244.06">Local Controller&#45716;</text><text fill="#FFFFFF" font-family="NanumGothic" font-size="13" lengthAdjust="spacing" textLength="184" x="403" y="259.01">&#51204;&#52404; &#52649;&#51204;&#44592; &#44536;&#47353;&#51032; &#51204;&#47141; &#49324;&#50857;&#47049;&#51012;</text><text fill="#FFFFFF" font-family="NanumGothic" font-size="13" lengthAdjust="spacing" textLength="184" x="403" y="273.96">&#49324;&#51204;&#50640; &#49444;&#51221;&#46108; &#52572;&#45824; &#50857;&#47049; &#48120;&#47564;&#51004;&#47196;</text><text fill="#FFFFFF" font-family="NanumGothic" font-size="13" lengthAdjust="spacing" textLength="64" x="403" y="288.91">&#51228;&#54620;&#54633;&#45768;&#45796;.</text></g><!--entity CentralSystem--><g id="elem_CentralSystem"><polygon fill="#7D5393" points="16,147.95,26,137.95,152,137.95,152,174.05,142,184.05,16,184.05,16,147.95" style="stroke:#181818;stroke-width:1.5;"/><line style="stroke:#181818;stroke-width:1.5;" x1="142" x2="152" y1="147.95" y2="137.95"/><line style="stroke:#181818;stroke-width:1.5;" x1="16" x2="142" y1="147.95" y2="147.95"/><line style="stroke:#181818;stroke-width:1.5;" x1="142" x2="142" y1="147.95" y2="184.05"/><text fill="#FFFFFF" font-family="NanumGothic" font-size="14" lengthAdjust="spacing" textLength="96" x="31" y="170.83">Central System</text></g><!--link CentralSystem to LocalControllerCP00--><g id="link_CentralSystem_LocalControllerCP00"><path d="M152.36,161 C228.79,161 346.8,161 423.79,161 " fill="none" id="CentralSystem-to-LocalControllerCP00" style="stroke:#181818;stroke-width:1.0;"/><polygon fill="#181818" points="429.79,161,420.79,157,424.79,161,420.79,165,429.79,161" style="stroke:#181818;stroke-width:1.0;"/><text fill="#000000" font-family="NanumGothic" font-size="13" lengthAdjust="spacing" textLength="181" x="183" y="157.96">OCPP ChargePointMaxProfile</text></g><!--link LocalControllerCP00 to CP03--><g id="link_LocalControllerCP00_CP03"><path d="M569.41,142.88 C630.88,126.72 714.1871,104.8154 772.8871,89.3854 " fill="none" id="LocalControllerCP00-to-CP03" style="stroke:#181818;stroke-width:1.0;"/><polygon fill="#181818" points="778.69,87.86,768.9688,86.2795,773.8543,89.1311,771.0026,94.0166,778.69,87.86" style="stroke:#181818;stroke-width:1.0;"/><text fill="#000000" font-family="NanumGothic" font-size="13" lengthAdjust="spacing" textLength="115" x="633" y="92.83">OCPP &#52264;&#51669; &#54532;&#47196;&#54028;&#51068;</text></g><!--link LocalControllerCP00 to CP02--><g id="link_LocalControllerCP00_CP02"><path d="M569.41,162.63 C630.88,164.08 713.9917,166.049 772.6917,167.429 " fill="none" id="LocalControllerCP00-to-CP02" style="stroke:#181818;stroke-width:1.0;"/><polygon fill="#181818" points="778.69,167.57,769.7865,163.3596,773.6914,167.4525,769.5985,171.3574,778.69,167.57" style="stroke:#181818;stroke-width:1.0;"/><text fill="#000000" font-family="NanumGothic" font-size="13" lengthAdjust="spacing" textLength="115" x="633" y="161.24">OCPP &#52264;&#51669; &#54532;&#47196;&#54028;&#51068;</text></g><!--link LocalControllerCP00 to CP01--><g id="link_LocalControllerCP00_CP01"><path d="M569.41,182.37 C630.88,201.44 719.99,229.08 778.69,247.29 " fill="none" id="LocalControllerCP00-CP01" style="stroke:#181818;stroke-width:1.0;"/></g><!--link CP03 to EV1--><g id="link_CP03_EV1"><path d="M901.22,73.84 C963.28,75.73 1049.6628,78.3566 1084.0028,79.4066 " fill="none" id="CP03-to-EV1" style="stroke:#181818;stroke-width:1.0;stroke-dasharray:1.0,3.0;"/><polygon fill="#181818" points="1090,79.59,1081.1265,75.3168,1085.0023,79.4372,1080.882,83.3131,1090,79.59" style="stroke:#181818;stroke-width:1.0;"/><text fill="#000000" font-family="NanumGothic" font-size="13" lengthAdjust="spacing" textLength="45" x="971" y="56.78">CP &#49888;&#54840;</text><text fill="#000000" font-family="NanumGothic" font-size="13" lengthAdjust="spacing" textLength="127" x="932" y="71.73">(Control Pilot Signal)</text></g><!--link CP02 to EV2--><g id="link_CP02_EV2"><path d="M901.22,174.51 C963.28,180.18 1049.6849,188.0836 1084.0249,191.2236 " fill="none" id="CP02-to-EV2" style="stroke:#181818;stroke-width:1.0;stroke-dasharray:1.0,3.0;"/><polygon fill="#181818" points="1090,191.77,1081.4016,186.9671,1085.0208,191.3147,1080.6732,194.9339,1090,191.77" style="stroke:#181818;stroke-width:1.0;"/><text fill="#000000" font-family="NanumGothic" font-size="13" lengthAdjust="spacing" textLength="45" x="971" y="159.41">CP &#49888;&#54840;</text><text fill="#000000" font-family="NanumGothic" font-size="13" lengthAdjust="spacing" textLength="127" x="932" y="174.36">(Control Pilot Signal)</text></g><!--link CP02 to CP03--><!--link CP01 to CP02--><!--SRC=[dPFFQnD15CVlyrSySz93IhFUF7XPUhDqeU2bBMNPcMm69ZDXCg4j8eZae2Q77Xeiii58ApKWj8ZL2FsBEfF_mRSp6tyrHN5PsE7xtkVxtipRkSDb9dgKGQRQ7IMPDBkKfxbEsxjTSo3OIgVN5eG8rZHW56YUjmnGhbbck9A4I8LiBKPEfm8s3xg6jMkGTg6IWa98KmdADDGUgGppSgrwdHey8G318CYnGaO9mVIsZ9FLLM_aGpyZfKv-S74hrJc3H75fF7C_5CV5xJdH8YUwFQUno6cKnTBCA6n-xN6GyVkh65LY5Feo34-g0wgvj7N0vy_TsbT7NdUJlllq6ToNAQwkPnTm_NLcJxwvyN4PifFtu9v_T6-czkrBD-u710MaNX-2wv-woSWU5k0k2pjy1Y4HxFdCdWrTSMNV5LMLOZx2Tse7B-pWT0L59gbld3mbvBV1GPsgFLb_k6mhy00suYI1S7R-wDRJ_KIh9XUCa6N4mgsSpm9t5n_SsGZcHtriS3uSkl7LtzZe_rW_Ji0TbjMzj4MLCOpke2tE55rZz1nCviSps9PtAnD8k506DdakKt6F-FetwUZVwAfuUP-sMfnI9dVguLSClZS23V8T]--></g></svg>