<?xml version="1.0" encoding="us-ascii" standalone="no"?><svg xmlns="http://www.w3.org/2000/svg" xmlns:xlink="http://www.w3.org/1999/xlink" contentStyleType="text/css" height="846px" preserveAspectRatio="none" style="width:1049px;height:846px;background:#FFFFFF;" version="1.1" viewBox="0 0 1049 846" width="1049px" zoomAndPan="magnify"><defs/><g><rect fill="#FFFFFF" height="601.65" style="stroke:#181818;stroke-width:1.0;" width="10" x="76.5" y="219.9"/><rect fill="#FFFFFF" height="100.9" style="stroke:#181818;stroke-width:1.0;" width="10" x="230.5" y="149"/><rect fill="#FFFFFF" height="161.35" style="stroke:#181818;stroke-width:1.0;" width="10" x="230.5" y="305.85"/><rect fill="#FFFFFF" height="78.85" style="stroke:#181818;stroke-width:1.0;" width="10" x="230.5" y="550"/><rect fill="#FFFFFF" height="28.95" style="stroke:#181818;stroke-width:1.0;" width="10" x="230.5" y="792.6"/><rect fill="#FFFFFF" height="28.95" style="stroke:#181818;stroke-width:1.0;" width="10" x="791.5" y="305.85"/><rect fill="#FFFFFF" height="78.85" style="stroke:#181818;stroke-width:1.0;" width="10" x="791.5" y="550"/><rect fill="#FFFFFF" height="28.95" style="stroke:#181818;stroke-width:1.0;" width="10" x="791.5" y="792.6"/><rect fill="none" height="294.05" style="stroke:#000000;stroke-width:1.5;" width="986" x="56" y="349.8"/><rect fill="none" height="154.65" style="stroke:#000000;stroke-width:1.5;" width="854.5" x="177.5" y="482.2"/><line style="stroke:#181818;stroke-width:0.5;stroke-dasharray:5.0,5.0;" x1="38" x2="38" y1="83.1" y2="839.55"/><line style="stroke:#181818;stroke-width:0.5;stroke-dasharray:5.0,5.0;" x1="81" x2="81" y1="83.1" y2="839.55"/><line style="stroke:#181818;stroke-width:0.5;stroke-dasharray:5.0,5.0;" x1="235.5" x2="235.5" y1="83.1" y2="839.55"/><line style="stroke:#181818;stroke-width:0.5;stroke-dasharray:5.0,5.0;" x1="796.5" x2="796.5" y1="83.1" y2="839.55"/><text fill="#000000" font-family="NanumGothic" font-size="14" lengthAdjust="spacing" textLength="29" x="21" y="79.88">User</text><ellipse cx="38.5" cy="14.5" fill="#E2E2F0" rx="8" ry="8" style="stroke:#7D5393;stroke-width:1.5;"/><path d="M38.5,22.5 L38.5,49.5 M25.5,30.5 L51.5,30.5 M38.5,49.5 L25.5,64.5 M38.5,49.5 L51.5,64.5 " fill="none" style="stroke:#7D5393;stroke-width:1.5;"/><rect fill="#7D5393" height="30.1" rx="2.5" ry="2.5" style="stroke:#181818;stroke-width:0.5;" width="31" x="66" y="52"/><text fill="#FFFFFF" font-family="NanumGothic" font-size="14" lengthAdjust="spacing" textLength="17" x="73" y="71.88">EV</text><rect fill="#7D5393" height="30.1" rx="2.5" ry="2.5" style="stroke:#181818;stroke-width:0.5;" width="96" x="187.5" y="52"/><text fill="#FFFFFF" font-family="NanumGothic" font-size="14" lengthAdjust="spacing" textLength="82" x="194.5" y="71.88">Charge Point</text><rect fill="#7D5393" height="30.1" rx="2.5" ry="2.5" style="stroke:#181818;stroke-width:0.5;" width="110" x="741.5" y="52"/><text fill="#FFFFFF" font-family="NanumGothic" font-size="14" lengthAdjust="spacing" textLength="96" x="748.5" y="71.88">Central System</text><rect fill="#FFFFFF" height="601.65" style="stroke:#181818;stroke-width:1.0;" width="10" x="76.5" y="219.9"/><rect fill="#FFFFFF" height="100.9" style="stroke:#181818;stroke-width:1.0;" width="10" x="230.5" y="149"/><rect fill="#FFFFFF" height="161.35" style="stroke:#181818;stroke-width:1.0;" width="10" x="230.5" y="305.85"/><rect fill="#FFFFFF" height="78.85" style="stroke:#181818;stroke-width:1.0;" width="10" x="230.5" y="550"/><rect fill="#FFFFFF" height="28.95" style="stroke:#181818;stroke-width:1.0;" width="10" x="230.5" y="792.6"/><rect fill="#FFFFFF" height="28.95" style="stroke:#181818;stroke-width:1.0;" width="10" x="791.5" y="305.85"/><rect fill="#FFFFFF" height="78.85" style="stroke:#181818;stroke-width:1.0;" width="10" x="791.5" y="550"/><rect fill="#FFFFFF" height="28.95" style="stroke:#181818;stroke-width:1.0;" width="10" x="791.5" y="792.6"/><path d="M5,98.1 L5,122.1 L830,122.1 L830,108.1 L820,98.1 L5,98.1 " fill="#7D5393" style="stroke:#000000;stroke-width:0.5;"/><path d="M820,98.1 L820,108.1 L830,108.1 L820,98.1 " fill="#7D5393" style="stroke:#000000;stroke-width:0.5;"/><text fill="#FFFFFF" font-family="NanumGothic" font-size="13" lengthAdjust="spacing" textLength="179" x="323.75" y="115.06">RFID &#46608;&#45716; &#45796;&#47480; &#51064;&#51613; &#48169;&#49885;&#51032; &#51064;&#51613;</text><polygon fill="#181818" points="92.5,145,82.5,149,92.5,153,88.5,149" style="stroke:#181818;stroke-width:1.0;"/><line style="stroke:#181818;stroke-width:1.0;" x1="86.5" x2="229.5" y1="149" y2="149"/><text fill="#000000" font-family="NanumGothic" font-size="13" lengthAdjust="spacing" textLength="120" x="98.5" y="144.01">&#52572;&#45824; &#51204;&#47448;&#47049; &#51228;&#54620; &#49444;&#51221;</text><line style="stroke:#181818;stroke-width:1.0;" x1="240.5" x2="282.5" y1="177.95" y2="177.95"/><line style="stroke:#181818;stroke-width:1.0;" x1="282.5" x2="282.5" y1="177.95" y2="190.95"/><line style="stroke:#181818;stroke-width:1.0;" x1="241.5" x2="282.5" y1="190.95" y2="190.95"/><polygon fill="#181818" points="251.5,186.95,241.5,190.95,251.5,194.95,247.5,190.95" style="stroke:#181818;stroke-width:1.0;"/><text fill="#000000" font-family="NanumGothic" font-size="13" lengthAdjust="spacing" textLength="52" x="247.5" y="172.96">&#51204;&#50896; &#53020;&#51664;</text><polygon fill="#181818" points="218.5,215.9,228.5,219.9,218.5,223.9,222.5,219.9" style="stroke:#181818;stroke-width:1.0;"/><line style="stroke:#181818;stroke-width:1.0;" x1="86.5" x2="224.5" y1="219.9" y2="219.9"/><text fill="#000000" font-family="NanumGothic" font-size="13" lengthAdjust="spacing" textLength="52" x="93.5" y="214.91">&#52649;&#51204; &#49884;&#51089;</text><polygon fill="#181818" points="779.5,301.85,789.5,305.85,779.5,309.85,783.5,305.85" style="stroke:#181818;stroke-width:1.0;"/><line style="stroke:#181818;stroke-width:1.0;" x1="240.5" x2="785.5" y1="305.85" y2="305.85"/><text fill="#000000" font-family="NanumGothic" font-size="13" lengthAdjust="spacing" textLength="488" x="247.5" y="300.86">StartTransaction.req(connectorId, idTag, meterStart, timestamp, [reservationId])</text><polygon fill="#181818" points="251.5,330.8,241.5,334.8,251.5,338.8,247.5,334.8" style="stroke:#181818;stroke-width:1.0;"/><line style="stroke:#181818;stroke-width:1.0;stroke-dasharray:2.0,2.0;" x1="245.5" x2="795.5" y1="334.8" y2="334.8"/><text fill="#000000" font-family="NanumGothic" font-size="13" lengthAdjust="spacing" textLength="284" x="257.5" y="329.81">StartTransaction.conf(idTagInfo, transactionId)</text><path d="M56,349.8 L312,349.8 L312,356.75 L302,366.75 L56,366.75 L56,349.8 " fill="#EEEEEE" style="stroke:#000000;stroke-width:1.5;"/><rect fill="none" height="294.05" style="stroke:#000000;stroke-width:1.5;" width="986" x="56" y="349.8"/><text fill="#000000" font-family="NanumGothic" font-size="13" font-weight="bold" lengthAdjust="spacing" textLength="211" x="71" y="362.76">&#52264;&#51669; &#54532;&#47196;&#54028;&#51068; &#44592;&#48152;&#51004;&#47196; loop&#51060; &#48320;&#44221;&#46120;</text><line style="stroke:#000000;stroke-width:1.0;stroke-dasharray:2.0,2.0;" x1="56" x2="1042" y1="367.75" y2="367.75"/><text fill="#000000" font-family="NanumGothic" font-size="11" font-weight="bold" lengthAdjust="spacing" textLength="163" x="61" y="377.87">[&#52264;&#51669; &#54532;&#47196;&#54028;&#51068;&#50640; &#51080;&#45716; &#47588; &#51452;&#44592; &#44592;&#51456;]</text><line style="stroke:#181818;stroke-width:1.0;" x1="240.5" x2="282.5" y1="413.8" y2="413.8"/><line style="stroke:#181818;stroke-width:1.0;" x1="282.5" x2="282.5" y1="413.8" y2="426.8"/><line style="stroke:#181818;stroke-width:1.0;" x1="241.5" x2="282.5" y1="426.8" y2="426.8"/><polygon fill="#181818" points="251.5,422.8,241.5,426.8,251.5,430.8,247.5,426.8" style="stroke:#181818;stroke-width:1.0;"/><text fill="#000000" font-family="NanumGothic" font-size="13" lengthAdjust="spacing" textLength="224" x="247.5" y="408.81">&#52264;&#51669; &#54532;&#47196;&#54028;&#51068; &#44592;&#48152;&#51004;&#47196; &#51204;&#47141;&#47049; &#51228;&#54620; &#49444;&#51221;</text><path d="M483,386.4 L483,440.4 L740,440.4 L740,396.4 L730,386.4 L483,386.4 " fill="#7D5393" style="stroke:#000000;stroke-width:0.5;"/><path d="M730,386.4 L730,396.4 L740,396.4 L730,386.4 " fill="#7D5393" style="stroke:#000000;stroke-width:0.5;"/><text fill="#FFFFFF" font-family="NanumGothic" font-size="13" lengthAdjust="spacing" textLength="236" x="489" y="403.36">&#52649;&#51204;&#44592;&#45716; &#52572;&#45824; &#51204;&#47448;&#47049; &#48320;&#44221;&#51060; &#54596;&#50836;&#54624; &#46412;&#47560;&#45796;</text><text fill="#FFFFFF" font-family="NanumGothic" font-size="13" lengthAdjust="spacing" textLength="196" x="489" y="418.31">CP(Control Pilot) &#49888;&#54840;&#47484; &#51060;&#50857;&#54616;&#50668;</text><text fill="#FFFFFF" font-family="NanumGothic" font-size="13" lengthAdjust="spacing" textLength="156" x="489" y="433.26">&#52264;&#51669; &#54532;&#47196;&#54028;&#51068;&#51012; &#44396;&#54788;&#54633;&#45768;&#45796;.</text><polygon fill="#181818" points="97.5,463.2,87.5,467.2,97.5,471.2,93.5,467.2" style="stroke:#181818;stroke-width:1.0;"/><line style="stroke:#181818;stroke-width:1.0;" x1="91.5" x2="234.5" y1="467.2" y2="467.2"/><text fill="#000000" font-family="NanumGothic" font-size="13" lengthAdjust="spacing" textLength="120" x="103.5" y="462.21">&#52572;&#45824; &#51204;&#47448;&#47049; &#51228;&#54620; &#49444;&#51221;</text><path d="M177.5,482.2 L243.5,482.2 L243.5,489.15 L233.5,499.15 L177.5,499.15 L177.5,482.2 " fill="#EEEEEE" style="stroke:#000000;stroke-width:1.5;"/><rect fill="none" height="154.65" style="stroke:#000000;stroke-width:1.5;" width="854.5" x="177.5" y="482.2"/><text fill="#000000" font-family="NanumGothic" font-size="13" font-weight="bold" lengthAdjust="spacing" textLength="21" x="192.5" y="495.16">opt</text><text fill="#000000" font-family="NanumGothic" font-size="11" font-weight="bold" lengthAdjust="spacing" textLength="187" x="258.5" y="494.32">[Change of limits by Central System]</text><polygon fill="#181818" points="251.5,546,241.5,550,251.5,554,247.5,550" style="stroke:#181818;stroke-width:1.0;"/><line style="stroke:#181818;stroke-width:1.0;" x1="245.5" x2="790.5" y1="550" y2="550"/><text fill="#000000" font-family="NanumGothic" font-size="13" lengthAdjust="spacing" textLength="433" x="257.5" y="515.11">SetChargingProfile.req(ConnectorId, ChargingProfileId, [transactionId],</text><text fill="#000000" font-family="NanumGothic" font-size="13" font-weight="bold" lengthAdjust="spacing" textLength="206" x="257.5" y="530.06">ChargingProfilePurpose: TxProfile</text><text fill="#000000" font-family="NanumGothic" font-size="13" lengthAdjust="spacing" textLength="303" x="467.5" y="530.06">, ChargingProfileType, recurrencyKind, ValidFrom,</text><text fill="#000000" font-family="NanumGothic" font-size="13" lengthAdjust="spacing" textLength="168" x="257.5" y="545.01">ValidTo, ChargingSchedule)</text><path d="M806,563 L806,602 L1022,602 L1022,573 L1012,563 L806,563 " fill="#7D5393" style="stroke:#000000;stroke-width:0.5;"/><path d="M1012,563 L1012,573 L1022,573 L1012,563 " fill="#7D5393" style="stroke:#000000;stroke-width:0.5;"/><text fill="#FFFFFF" font-family="NanumGothic" font-size="13" lengthAdjust="spacing" textLength="195" x="812" y="579.96">Central System&#51008; &#52264;&#51669; &#54532;&#47196;&#54028;&#51068;&#51012;</text><text fill="#FFFFFF" font-family="NanumGothic" font-size="13" lengthAdjust="spacing" textLength="156" x="812" y="594.91">&#48320;&#44221;&#54644;&#50556; &#54616;&#45716;&#51648; &#44208;&#51221;&#54633;&#45768;&#45796;.</text><polygon fill="#181818" points="784.5,624.85,794.5,628.85,784.5,632.85,788.5,628.85" style="stroke:#181818;stroke-width:1.0;"/><line style="stroke:#181818;stroke-width:1.0;stroke-dasharray:2.0,2.0;" x1="235.5" x2="790.5" y1="628.85" y2="628.85"/><text fill="#000000" font-family="NanumGothic" font-size="13" lengthAdjust="spacing" textLength="211" x="242.5" y="623.86">SetChargingProfile.conf(Accepted)</text><path d="M5,655.85 L5,679.85 L830,679.85 L830,665.85 L820,655.85 L5,655.85 " fill="#7D5393" style="stroke:#000000;stroke-width:0.5;"/><path d="M820,655.85 L820,665.85 L830,665.85 L820,655.85 " fill="#7D5393" style="stroke:#000000;stroke-width:0.5;"/><text fill="#FFFFFF" font-family="NanumGothic" font-size="13" lengthAdjust="spacing" textLength="179" x="323.75" y="672.81">RFID &#46608;&#45716; &#45796;&#47480; &#51064;&#51613; &#48169;&#49885;&#51032; &#51064;&#51613;</text><polygon fill="#181818" points="97.5,702.75,87.5,706.75,97.5,710.75,93.5,706.75" style="stroke:#181818;stroke-width:1.0;"/><line style="stroke:#181818;stroke-width:1.0;stroke-dasharray:2.0,2.0;" x1="91.5" x2="234.5" y1="706.75" y2="706.75"/><text fill="#000000" font-family="NanumGothic" font-size="13" lengthAdjust="spacing" textLength="52" x="103.5" y="701.76">&#52649;&#51204; &#51333;&#47308;</text><line style="stroke:#181818;stroke-width:1.0;" x1="235.5" x2="277.5" y1="735.7" y2="735.7"/><line style="stroke:#181818;stroke-width:1.0;" x1="277.5" x2="277.5" y1="735.7" y2="748.7"/><line style="stroke:#181818;stroke-width:1.0;" x1="236.5" x2="277.5" y1="748.7" y2="748.7"/><polygon fill="#181818" points="246.5,744.7,236.5,748.7,246.5,752.7,242.5,748.7" style="stroke:#181818;stroke-width:1.0;"/><text fill="#000000" font-family="NanumGothic" font-size="13" lengthAdjust="spacing" textLength="52" x="242.5" y="730.71">&#51204;&#50896; &#44732;&#51664;</text><polygon fill="#181818" points="779.5,788.6,789.5,792.6,779.5,796.6,783.5,792.6" style="stroke:#181818;stroke-width:1.0;"/><line style="stroke:#181818;stroke-width:1.0;" x1="240.5" x2="785.5" y1="792.6" y2="792.6"/><text fill="#000000" font-family="NanumGothic" font-size="13" lengthAdjust="spacing" textLength="268" x="247.5" y="772.66">StopTransaction.req(meterStop, timestamp,</text><text fill="#000000" font-family="NanumGothic" font-size="13" lengthAdjust="spacing" textLength="298" x="247.5" y="787.61">transactionId, reason, [idTag], [transactionData])</text><polygon fill="#181818" points="246.5,817.55,236.5,821.55,246.5,825.55,242.5,821.55" style="stroke:#181818;stroke-width:1.0;"/><line style="stroke:#181818;stroke-width:1.0;stroke-dasharray:2.0,2.0;" x1="240.5" x2="795.5" y1="821.55" y2="821.55"/><text fill="#000000" font-family="NanumGothic" font-size="13" lengthAdjust="spacing" textLength="206" x="252.5" y="816.56">StopTransaction.conf([idTagInfo])</text><!--SRC=[lPN1RXCn48Rl-nH3JsqL-W0z8A42KiGbeg6NaiEowwOhRUp5wo1ooo58G7CeKbT4a420bb29GmG5LIYyKEnz1yRUg8bt6zeJEMN7uvdnpEVVDmBgXKsVG2nQ8Tc8cetGSLnFC0uh3sF2Ly2DGVzn8fUBm0iYbmfOkRjZ5kxksEQjVPVN2LHOG8Lno0pcE-T9gE1k2DkjM916vfkPCelZK2O8iAU4c_Ibt3B0WtlbEo1xX_BL4SY3Otbo3cfmhhuCG8vFrS503NepWqEe3pgSuopK0pTlOVsm2UfdNtRRe8OTUTAJ7rxYltwQz45rZjKmqSq8dhfOo-9Pye4MFpTrAFNk4DIahqQ7ZeDPYYw_Jj4Br45VlNyzpu4DzSarCkxk1xvFQCsEMonhiMUOTLlW3AhSfR7EmUW69qzMFKOfqHCl-oK8_AfRBq632CADTmb4q22nS1jH2NOvmLbWRRYtxDVMbZHdRhLcPbTpiz2JGdLOsTwggQXCznXMCbyh-sjMfsnswfmr8r3ZhsgKG7hKaH_xQRUh1XEOde_bkAVw4pH1o5Ya1cSWVxIdt__8mwyE2MDosJxr1iVv_eLXRNGCwlC40-bWwhZj88p_nk6gEZHwmvCYUc2e1HxKzmL-m8mQlHSBAN2R7KCVA4qwwkrHcWn19bqvUe7tm-pVggnkCUmK2w4IX4oi8O33j7SkJoPuLyxKszCqwQattx9abxHXq87fpszfhvCcf_90nzr0t_dzAdJYEZSCO1dp02mIsaHHLTWUX44Z434yRe6j7zdXRBpoKp2_RIACDQ3r2cTx0KgUlW9RYrSWvw1DknPvjL8Mx15TNyyvLveyOZ7PXEgpcMLz7GeXgws8b80JhyaveLxhVa0noOuR1luzpXeNuOsbokRxjxrzuZT3icOEl8H-Uybkvo9Hkg75dP1hhHgqbv0mSy-eIvCpbKmGl1wYgKPjc7uVusmjJ6nGSgXSfbR5OHb5kErv91B4pxgmX9tyKkwWM8b-5lx7CtDn2sQI_-cv_DoztWio_JqnByWLievS2nRbTNscuIoo91onic3M7BenemYvKTgQJViTLxZBT7wP-bwjytQnPgYx5pfV-uUoBndsWXbVqBy0]--></g></svg>