<?xml version="1.0" encoding="us-ascii" standalone="no"?><svg xmlns="http://www.w3.org/2000/svg" xmlns:xlink="http://www.w3.org/1999/xlink" contentStyleType="text/css" height="399px" preserveAspectRatio="none" style="width:718px;height:399px;background:#FFFFFF;" version="1.1" viewBox="0 0 718 399" width="718px" zoomAndPan="magnify"><defs/><g><rect fill="#FFFFFF" height="28.95" style="stroke:#181818;stroke-width:1.0;" width="10" x="48" y="67.05"/><rect fill="#FFFFFF" height="28.95" style="stroke:#181818;stroke-width:1.0;" width="10" x="48" y="159.9"/><rect fill="#FFFFFF" height="28.95" style="stroke:#181818;stroke-width:1.0;" width="10" x="48" y="252.75"/><rect fill="#FFFFFF" height="28.95" style="stroke:#181818;stroke-width:1.0;" width="10" x="48" y="345.6"/><rect fill="#FFFFFF" height="28.95" style="stroke:#181818;stroke-width:1.0;" width="10" x="652" y="67.05"/><rect fill="#FFFFFF" height="28.95" style="stroke:#181818;stroke-width:1.0;" width="10" x="652" y="159.9"/><rect fill="#FFFFFF" height="28.95" style="stroke:#181818;stroke-width:1.0;" width="10" x="652" y="252.75"/><rect fill="#FFFFFF" height="28.95" style="stroke:#181818;stroke-width:1.0;" width="10" x="652" y="345.6"/><line style="stroke:#181818;stroke-width:0.5;stroke-dasharray:5.0,5.0;" x1="53" x2="53" y1="36.1" y2="392.55"/><line style="stroke:#181818;stroke-width:0.5;stroke-dasharray:5.0,5.0;" x1="657" x2="657" y1="36.1" y2="392.55"/><rect fill="#7D5393" height="30.1" rx="2.5" ry="2.5" style="stroke:#181818;stroke-width:0.5;" width="96" x="5" y="5"/><text fill="#FFFFFF" font-family="NanumGothic" font-size="14" lengthAdjust="spacing" textLength="82" x="12" y="24.88">Charge Point</text><rect fill="#7D5393" height="30.1" rx="2.5" ry="2.5" style="stroke:#181818;stroke-width:0.5;" width="110" x="602" y="5"/><text fill="#FFFFFF" font-family="NanumGothic" font-size="14" lengthAdjust="spacing" textLength="96" x="609" y="24.88">Central System</text><rect fill="#FFFFFF" height="28.95" style="stroke:#181818;stroke-width:1.0;" width="10" x="48" y="67.05"/><rect fill="#FFFFFF" height="28.95" style="stroke:#181818;stroke-width:1.0;" width="10" x="48" y="159.9"/><rect fill="#FFFFFF" height="28.95" style="stroke:#181818;stroke-width:1.0;" width="10" x="48" y="252.75"/><rect fill="#FFFFFF" height="28.95" style="stroke:#181818;stroke-width:1.0;" width="10" x="48" y="345.6"/><rect fill="#FFFFFF" height="28.95" style="stroke:#181818;stroke-width:1.0;" width="10" x="652" y="67.05"/><rect fill="#FFFFFF" height="28.95" style="stroke:#181818;stroke-width:1.0;" width="10" x="652" y="159.9"/><rect fill="#FFFFFF" height="28.95" style="stroke:#181818;stroke-width:1.0;" width="10" x="652" y="252.75"/><rect fill="#FFFFFF" height="28.95" style="stroke:#181818;stroke-width:1.0;" width="10" x="652" y="345.6"/><polygon fill="#181818" points="640,63.05,650,67.05,640,71.05,644,67.05" style="stroke:#181818;stroke-width:1.0;"/><line style="stroke:#181818;stroke-width:1.0;" x1="58" x2="646" y1="67.05" y2="67.05"/><text fill="#000000" font-family="NanumGothic" font-size="13" lengthAdjust="spacing" textLength="126" x="65" y="62.06">Authorize.req(idTag)</text><polygon fill="#181818" points="64,92,54,96,64,100,60,96" style="stroke:#181818;stroke-width:1.0;"/><line style="stroke:#181818;stroke-width:1.0;stroke-dasharray:2.0,2.0;" x1="58" x2="656" y1="96" y2="96"/><text fill="#000000" font-family="NanumGothic" font-size="13" lengthAdjust="spacing" textLength="157" x="70" y="91.01">Authorize.conf(idTagInfo)</text><path d="M16,109 L16,133 L89,133 L89,119 L79,109 L16,109 " fill="#7D5393" style="stroke:#000000;stroke-width:0.5;"/><path d="M79,109 L79,119 L89,119 L79,109 " fill="#7D5393" style="stroke:#000000;stroke-width:0.5;"/><text fill="#FFFFFF" font-family="NanumGothic" font-size="13" lengthAdjust="spacing" textLength="52" x="22" y="125.96">&#52649;&#51204; &#49884;&#51089;</text><polygon fill="#181818" points="640,155.9,650,159.9,640,163.9,644,159.9" style="stroke:#181818;stroke-width:1.0;"/><line style="stroke:#181818;stroke-width:1.0;" x1="58" x2="646" y1="159.9" y2="159.9"/><text fill="#000000" font-family="NanumGothic" font-size="13" lengthAdjust="spacing" textLength="488" x="65" y="154.91">StartTransaction.req(connectorId, idTag, meterStart, timestamp, [reservationId])</text><polygon fill="#181818" points="64,184.85,54,188.85,64,192.85,60,188.85" style="stroke:#181818;stroke-width:1.0;"/><line style="stroke:#181818;stroke-width:1.0;stroke-dasharray:2.0,2.0;" x1="58" x2="656" y1="188.85" y2="188.85"/><text fill="#000000" font-family="NanumGothic" font-size="13" lengthAdjust="spacing" textLength="284" x="70" y="183.86">StartTransaction.conf(idTagInfo, transactionId)</text><path d="M18,201.85 L18,225.85 L87,225.85 L87,211.85 L77,201.85 L18,201.85 " fill="#7D5393" style="stroke:#000000;stroke-width:0.5;"/><path d="M77,201.85 L77,211.85 L87,211.85 L77,201.85 " fill="#7D5393" style="stroke:#000000;stroke-width:0.5;"/><text fill="#FFFFFF" font-family="NanumGothic" font-size="13" lengthAdjust="spacing" textLength="48" x="24" y="218.81">&#52649;&#51204;&#51473;...</text><polygon fill="#181818" points="640,248.75,650,252.75,640,256.75,644,252.75" style="stroke:#181818;stroke-width:1.0;"/><line style="stroke:#181818;stroke-width:1.0;" x1="58" x2="646" y1="252.75" y2="252.75"/><text fill="#000000" font-family="NanumGothic" font-size="13" lengthAdjust="spacing" textLength="126" x="65" y="247.76">Authorize.req(idTag)</text><polygon fill="#181818" points="64,277.7,54,281.7,64,285.7,60,281.7" style="stroke:#181818;stroke-width:1.0;"/><line style="stroke:#181818;stroke-width:1.0;stroke-dasharray:2.0,2.0;" x1="58" x2="656" y1="281.7" y2="281.7"/><text fill="#000000" font-family="NanumGothic" font-size="13" lengthAdjust="spacing" textLength="157" x="70" y="276.71">Authorize.conf(idTagInfo)</text><path d="M16,294.7 L16,318.7 L89,318.7 L89,304.7 L79,294.7 L16,294.7 " fill="#7D5393" style="stroke:#000000;stroke-width:0.5;"/><path d="M79,294.7 L79,304.7 L89,304.7 L79,294.7 " fill="#7D5393" style="stroke:#000000;stroke-width:0.5;"/><text fill="#FFFFFF" font-family="NanumGothic" font-size="13" lengthAdjust="spacing" textLength="52" x="22" y="311.66">&#52649;&#51204; &#51333;&#47308;</text><polygon fill="#181818" points="640,341.6,650,345.6,640,349.6,644,345.6" style="stroke:#181818;stroke-width:1.0;"/><line style="stroke:#181818;stroke-width:1.0;" x1="58" x2="646" y1="345.6" y2="345.6"/><text fill="#000000" font-family="NanumGothic" font-size="13" lengthAdjust="spacing" textLength="580" x="65" y="340.61">StopTransaction.req(meterStop, timestamp, transactionId, [reason], [idTag], [transactionData])</text><polygon fill="#181818" points="64,370.55,54,374.55,64,378.55,60,374.55" style="stroke:#181818;stroke-width:1.0;"/><line style="stroke:#181818;stroke-width:1.0;stroke-dasharray:2.0,2.0;" x1="58" x2="656" y1="374.55" y2="374.55"/><text fill="#000000" font-family="NanumGothic" font-size="13" lengthAdjust="spacing" textLength="196" x="70" y="369.56">StopTransaction.conf(idTagInfo)</text><!--SRC=[lLAnJiCm5Dpz5OzEL4hp0Gn829PiIEs6EZp5hwsbn0xsIwKommHBTuGGiF03_1Jv29m4gN5RKL21pJwVVVVETw1qcfMImF4YexWeyqo80YshL1Me6NgdCxHJWdEZDFS07RH0irzZacQB6GmNZYblkItK8a9qhiBWE3mzWfEIPyQgAuejNHugES9fNs3AQevCWUmA3DuFTZ2e5Jg2NO7Kw4chaEY9wGj9MtMwS3Y9DXupSx81ltfxhHwleRgzhnwMWhI4clVrtDxNa7sC8ulQrN96D_DxYvfIDZQH4JHM8yY9oJRi25Zbv1Zp8e8BIuwij-dl9dByiz3MKjiIsuQzC3rlPNMMo5yEitfPnd6yod97b7jtQ7SS_zQYfvltvxllJZvaKwnNwBCkfWZQ4lnMKnvqHe_zgXcbNdGePyZu1uqApUuPv0S0]--></g></svg>