<?xml version="1.0" encoding="us-ascii" standalone="no"?><svg xmlns="http://www.w3.org/2000/svg" xmlns:xlink="http://www.w3.org/1999/xlink" contentStyleType="text/css" height="306px" preserveAspectRatio="none" style="width:642px;height:306px;background:#FFFFFF;" version="1.1" viewBox="0 0 642 306" width="642px" zoomAndPan="magnify"><defs/><g><rect fill="#FFFFFF" height="28.95" style="stroke:#181818;stroke-width:1.0;" width="10" x="84" y="67.05"/><rect fill="#FFFFFF" height="28.95" style="stroke:#181818;stroke-width:1.0;" width="10" x="84" y="159.9"/><rect fill="#FFFFFF" height="28.95" style="stroke:#181818;stroke-width:1.0;" width="10" x="84" y="252.75"/><rect fill="#FFFFFF" height="28.95" style="stroke:#181818;stroke-width:1.0;" width="10" x="576" y="67.05"/><rect fill="#FFFFFF" height="28.95" style="stroke:#181818;stroke-width:1.0;" width="10" x="576" y="159.9"/><rect fill="#FFFFFF" height="28.95" style="stroke:#181818;stroke-width:1.0;" width="10" x="576" y="252.75"/><line style="stroke:#181818;stroke-width:0.5;stroke-dasharray:5.0,5.0;" x1="89" x2="89" y1="36.1" y2="299.7"/><line style="stroke:#181818;stroke-width:0.5;stroke-dasharray:5.0,5.0;" x1="581" x2="581" y1="36.1" y2="299.7"/><rect fill="#7D5393" height="30.1" rx="2.5" ry="2.5" style="stroke:#181818;stroke-width:0.5;" width="96" x="41" y="5"/><text fill="#FFFFFF" font-family="NanumGothic" font-size="14" lengthAdjust="spacing" textLength="82" x="48" y="24.88">Charge Point</text><rect fill="#7D5393" height="30.1" rx="2.5" ry="2.5" style="stroke:#181818;stroke-width:0.5;" width="110" x="526" y="5"/><text fill="#FFFFFF" font-family="NanumGothic" font-size="14" lengthAdjust="spacing" textLength="96" x="533" y="24.88">Central System</text><rect fill="#FFFFFF" height="28.95" style="stroke:#181818;stroke-width:1.0;" width="10" x="84" y="67.05"/><rect fill="#FFFFFF" height="28.95" style="stroke:#181818;stroke-width:1.0;" width="10" x="84" y="159.9"/><rect fill="#FFFFFF" height="28.95" style="stroke:#181818;stroke-width:1.0;" width="10" x="84" y="252.75"/><rect fill="#FFFFFF" height="28.95" style="stroke:#181818;stroke-width:1.0;" width="10" x="576" y="67.05"/><rect fill="#FFFFFF" height="28.95" style="stroke:#181818;stroke-width:1.0;" width="10" x="576" y="159.9"/><rect fill="#FFFFFF" height="28.95" style="stroke:#181818;stroke-width:1.0;" width="10" x="576" y="252.75"/><polygon fill="#181818" points="105,63.05,95,67.05,105,71.05,101,67.05" style="stroke:#181818;stroke-width:1.0;"/><line style="stroke:#181818;stroke-width:1.0;" x1="99" x2="575" y1="67.05" y2="67.05"/><text fill="#000000" font-family="NanumGothic" font-size="13" lengthAdjust="spacing" textLength="468" x="111" y="62.06">GetDiagnostics.req(location, [retries]. [retryInterval], [startTime], [stopTime])</text><polygon fill="#181818" points="569,92,579,96,569,100,573,96" style="stroke:#181818;stroke-width:1.0;"/><line style="stroke:#181818;stroke-width:1.0;stroke-dasharray:2.0,2.0;" x1="89" x2="575" y1="96" y2="96"/><text fill="#000000" font-family="NanumGothic" font-size="13" lengthAdjust="spacing" textLength="195" x="96" y="91.01">GetDiagnostics.conf([fileName])</text><path d="M5,109 L5,133 L174,133 L174,119 L164,109 L5,109 " fill="#7D5393" style="stroke:#000000;stroke-width:0.5;"/><path d="M164,109 L164,119 L174,119 L164,109 " fill="#7D5393" style="stroke:#000000;stroke-width:0.5;"/><text fill="#FFFFFF" font-family="NanumGothic" font-size="13" lengthAdjust="spacing" textLength="148" x="11" y="125.96">&#51652;&#45800; &#54028;&#51068; &#50629;&#47196;&#46300; &#51652;&#54665; &#51473;...</text><polygon fill="#181818" points="564,155.9,574,159.9,564,163.9,568,159.9" style="stroke:#181818;stroke-width:1.0;"/><line style="stroke:#181818;stroke-width:1.0;" x1="94" x2="570" y1="159.9" y2="159.9"/><text fill="#000000" font-family="NanumGothic" font-size="13" lengthAdjust="spacing" textLength="206" x="101" y="154.91">DiagnosticsStatusNotification.req(</text><text fill="#000000" font-family="NanumGothic" font-size="13" font-weight="bold" lengthAdjust="spacing" textLength="107" x="311" y="154.91">status: Uploading</text><text fill="#000000" font-family="NanumGothic" font-size="13" lengthAdjust="spacing" textLength="5" x="422" y="154.91">)</text><polygon fill="#181818" points="100,184.85,90,188.85,100,192.85,96,188.85" style="stroke:#181818;stroke-width:1.0;"/><line style="stroke:#181818;stroke-width:1.0;stroke-dasharray:2.0,2.0;" x1="94" x2="580" y1="188.85" y2="188.85"/><text fill="#000000" font-family="NanumGothic" font-size="13" lengthAdjust="spacing" textLength="218" x="106" y="183.86">DiagnosticsStatusNotification.conf()</text><path d="M5,201.85 L5,225.85 L174,225.85 L174,211.85 L164,201.85 L5,201.85 " fill="#7D5393" style="stroke:#000000;stroke-width:0.5;"/><path d="M164,201.85 L164,211.85 L174,211.85 L164,201.85 " fill="#7D5393" style="stroke:#000000;stroke-width:0.5;"/><text fill="#FFFFFF" font-family="NanumGothic" font-size="13" lengthAdjust="spacing" textLength="148" x="11" y="218.81">&#51652;&#45800; &#54028;&#51068; &#50629;&#47196;&#46300; &#51652;&#54665; &#51473;...</text><polygon fill="#181818" points="564,248.75,574,252.75,564,256.75,568,252.75" style="stroke:#181818;stroke-width:1.0;"/><line style="stroke:#181818;stroke-width:1.0;" x1="94" x2="570" y1="252.75" y2="252.75"/><text fill="#000000" font-family="NanumGothic" font-size="13" lengthAdjust="spacing" textLength="206" x="101" y="247.76">DiagnosticsStatusNotification.req(</text><text fill="#000000" font-family="NanumGothic" font-size="13" font-weight="bold" lengthAdjust="spacing" textLength="103" x="311" y="247.76">status: Uploaded</text><text fill="#000000" font-family="NanumGothic" font-size="13" lengthAdjust="spacing" textLength="5" x="418" y="247.76">)</text><polygon fill="#181818" points="100,277.7,90,281.7,100,285.7,96,281.7" style="stroke:#181818;stroke-width:1.0;"/><line style="stroke:#181818;stroke-width:1.0;stroke-dasharray:2.0,2.0;" x1="94" x2="580" y1="281.7" y2="281.7"/><text fill="#000000" font-family="NanumGothic" font-size="13" lengthAdjust="spacing" textLength="218" x="106" y="276.71">DiagnosticsStatusNotification.conf()</text><!--SRC=[tP6nIWD148RxVOenLJpCFK0A6mMn2KAq2Yc6kxauiDazToU1z5g8QKJG9XQ2e0_X6-No3bvk2-ykA5XgD_FFyC_7Ftji4ZrB2RmiDCNvRAgLoj499voZ4UWSNQAR49nPDj81z124gczjaX676eOBBpGDkq4AYbAD5dg7TI_emmd9CUF4M5-Q-jZHLLVR18MjEO2H8t5CVXo7Sd5gXDmSzRYSUIb1pdbAeR5vLUyhJ8JdADI0_X9RT3MOtXQkGRk3brYJTKSPQnfWTIobRvphWng7ChPKx9nSGmOetgxNT- -mMIwBvmyedcxMBwlrmsghRnvleNYzZ-DOaKbXwz02t-MkGGy5PUO7LZZZ46oLCaIHhoPzkCYrnPJD98hWj_arlxlptfyvgZZ_LOYK_f4CFm40]--></g></svg>