<?xml version="1.0" encoding="us-ascii" standalone="no"?><svg xmlns="http://www.w3.org/2000/svg" xmlns:xlink="http://www.w3.org/1999/xlink" contentStyleType="text/css" height="1117px" preserveAspectRatio="none" style="width:800px;height:1117px;background:#FFFFFF;" version="1.1" viewBox="0 0 800 1117" width="800px" zoomAndPan="magnify"><defs/><g><rect fill="#FFFFFF" height="982.45" style="stroke:#181818;stroke-width:1.0;" width="10" x="261.5" y="46.1"/><rect fill="#FFFFFF" height="739" style="stroke:#181818;stroke-width:1.0;" width="10" x="346" y="202.75"/><rect fill="#FFFFFF" height="365.5" style="stroke:#181818;stroke-width:1.0;" width="10" x="447.5" y="279.65"/><rect fill="#FFFFFF" height="119.9" style="stroke:#181818;stroke-width:1.0;" width="10" x="447.5" y="814.85"/><rect fill="#FFFFFF" height="53.95" style="stroke:#181818;stroke-width:1.0;" width="10" x="550.5" y="404.45"/><rect fill="#FFFFFF" height="53.95" style="stroke:#181818;stroke-width:1.0;" width="10" x="550.5" y="576.2"/><rect fill="#FFFFFF" height="53.95" style="stroke:#181818;stroke-width:1.0;" width="10" x="550.5" y="865.8"/><rect fill="none" height="1040.3" style="stroke:#000000;stroke-width:1.5;" width="784" x="10" y="53.1"/><rect fill="none" height="849.75" style="stroke:#000000;stroke-width:1.5;" width="694" x="90" y="171.8"/><rect fill="none" height="345.5" style="stroke:#000000;stroke-width:1.5;" width="490" x="284" y="299.65"/><rect fill="none" height="92.9" style="stroke:#000000;stroke-width:1.5;" width="317" x="395" y="373.5"/><rect fill="none" height="92.9" style="stroke:#000000;stroke-width:1.5;" width="317" x="395" y="545.25"/><rect fill="none" height="110.75" style="stroke:#000000;stroke-width:1.5;" width="306" x="297" y="659.15"/><rect fill="none" height="150.85" style="stroke:#000000;stroke-width:1.5;" width="425" x="297" y="783.9"/><rect fill="none" height="92.9" style="stroke:#000000;stroke-width:1.5;" width="317" x="395" y="834.85"/><line style="stroke:#181818;stroke-width:0.5;stroke-dasharray:5.0,5.0;" x1="266" x2="266" y1="36.1" y2="1110.4"/><line style="stroke:#181818;stroke-width:0.5;stroke-dasharray:5.0,5.0;" x1="351" x2="351" y1="36.1" y2="1110.4"/><line style="stroke:#181818;stroke-width:0.5;stroke-dasharray:5.0,5.0;" x1="452" x2="452" y1="36.1" y2="1110.4"/><line style="stroke:#181818;stroke-width:0.5;stroke-dasharray:5.0,5.0;" x1="555" x2="555" y1="36.1" y2="1110.4"/><rect fill="#7D5393" height="30.1" rx="2.5" ry="2.5" style="stroke:#181818;stroke-width:0.5;" width="61" x="236" y="5"/><text fill="#FFFFFF" font-family="NanumGothic" font-size="14" lengthAdjust="spacing" textLength="47" x="243" y="24.88">Session</text><rect fill="#7D5393" height="30.1" rx="2.5" ry="2.5" style="stroke:#181818;stroke-width:0.5;" width="88" x="307" y="5"/><text fill="#FFFFFF" font-family="NanumGothic" font-size="14" lengthAdjust="spacing" textLength="74" x="314" y="24.88">Transaction</text><rect fill="#7D5393" height="30.1" rx="2.5" ry="2.5" style="stroke:#181818;stroke-width:0.5;" width="95" x="405" y="5"/><text fill="#FFFFFF" font-family="NanumGothic" font-size="14" lengthAdjust="spacing" textLength="81" x="412" y="24.88">Energy Offer</text><rect fill="#7D5393" height="30.1" rx="2.5" ry="2.5" style="stroke:#181818;stroke-width:0.5;" width="91" x="510" y="5"/><text fill="#FFFFFF" font-family="NanumGothic" font-size="14" lengthAdjust="spacing" textLength="77" x="517" y="24.88">Energy Flow</text><rect fill="#FFFFFF" height="982.45" style="stroke:#181818;stroke-width:1.0;" width="10" x="261.5" y="46.1"/><rect fill="#FFFFFF" height="739" style="stroke:#181818;stroke-width:1.0;" width="10" x="346" y="202.75"/><rect fill="#FFFFFF" height="365.5" style="stroke:#181818;stroke-width:1.0;" width="10" x="447.5" y="279.65"/><rect fill="#FFFFFF" height="119.9" style="stroke:#181818;stroke-width:1.0;" width="10" x="447.5" y="814.85"/><rect fill="#FFFFFF" height="53.95" style="stroke:#181818;stroke-width:1.0;" width="10" x="550.5" y="404.45"/><rect fill="#FFFFFF" height="53.95" style="stroke:#181818;stroke-width:1.0;" width="10" x="550.5" y="576.2"/><rect fill="#FFFFFF" height="53.95" style="stroke:#181818;stroke-width:1.0;" width="10" x="550.5" y="865.8"/><path d="M10,53.1 L160,53.1 L160,60.05 L150,70.05 L10,70.05 L10,53.1 " fill="#EEEEEE" style="stroke:#000000;stroke-width:1.5;"/><rect fill="none" height="1040.3" style="stroke:#000000;stroke-width:1.5;" width="784" x="10" y="53.1"/><text fill="#000000" font-family="NanumGothic" font-size="13" font-weight="bold" lengthAdjust="spacing" textLength="105" x="25" y="66.06">Charging Session</text><path d="M20,75.05 L20,159.05 L513,159.05 L513,85.05 L503,75.05 L20,75.05 " fill="#7D5393" style="stroke:#000000;stroke-width:0.5;"/><path d="M503,75.05 L503,85.05 L513,85.05 L503,75.05 " fill="#7D5393" style="stroke:#000000;stroke-width:0.5;"/><text fill="#FFFFFF" font-family="NanumGothic" font-size="13" lengthAdjust="spacing" textLength="392" x="26" y="92.01">&#52649;&#51204; &#49464;&#49496;&#51008; &#49324;&#50857;&#51088; &#46608;&#45716; EV&#50752; &#52376;&#51020; &#49345;&#54840;&#51089;&#50857;&#51012; &#54616;&#45716; &#49884;&#51216;&#50640; &#49884;&#51089;&#46121;&#45768;&#45796;.</text><text fill="#FFFFFF" font-family="NanumGothic" font-size="13" lengthAdjust="spacing" textLength="200" x="26" y="106.96">&#51060; &#49345;&#54840;&#51089;&#50857;&#51008; &#52852;&#46300;&#47196; &#44208;&#51228;&#47484; &#54616;&#44144;&#45208;,</text><text fill="#FFFFFF" font-family="NanumGothic" font-size="13" lengthAdjust="spacing" textLength="271" x="26" y="121.91">&#50896;&#44201; &#49884;&#51089;(remote start of transaction)&#51012; &#51652;&#54665;,</text><text fill="#FFFFFF" font-family="NanumGothic" font-size="13" lengthAdjust="spacing" textLength="120" x="26" y="136.86">&#52964;&#45349;&#53552;&#50752; &#52264;&#47049;&#51012; &#50672;&#44208;,</text><text fill="#FFFFFF" font-family="NanumGothic" font-size="13" lengthAdjust="spacing" textLength="472" x="26" y="151.81">&#51452;&#52264;&#51109;&#51032; &#51452;&#52264;&#44048;&#51648;&#44592;&#47484; &#53685;&#54644; &#52264;&#47049;&#51060; &#51452;&#52264;&#51109;&#50640; &#51080;&#45716;&#51648; &#54869;&#51064;&#54616;&#45716; &#46321;&#51032; &#51089;&#50629;&#51012; &#49688;&#54665;&#54633;&#45768;&#45796;.</text><path d="M90,171.8 L205,171.8 L205,178.75 L195,188.75 L90,188.75 L90,171.8 " fill="#EEEEEE" style="stroke:#000000;stroke-width:1.5;"/><rect fill="none" height="849.75" style="stroke:#000000;stroke-width:1.5;" width="694" x="90" y="171.8"/><text fill="#000000" font-family="NanumGothic" font-size="13" font-weight="bold" lengthAdjust="spacing" textLength="70" x="105" y="184.76">Transaction</text><path d="M100,220.75 L100,259.75 L601,259.75 L601,230.75 L591,220.75 L100,220.75 " fill="#7D5393" style="stroke:#000000;stroke-width:0.5;"/><path d="M591,220.75 L591,230.75 L601,230.75 L591,220.75 " fill="#7D5393" style="stroke:#000000;stroke-width:0.5;"/><text fill="#FFFFFF" font-family="NanumGothic" font-size="13" lengthAdjust="spacing" textLength="338" x="106" y="237.71">Transaction&#51008; &#52649;&#51204; &#51312;&#44148;&#51012; &#47784;&#46160; &#47564;&#51313;&#54616;&#45716; &#49884;&#51216;&#50640; &#49884;&#51089;&#46121;&#45768;&#45796;.</text><text fill="#FFFFFF" font-family="NanumGothic" font-size="13" lengthAdjust="spacing" textLength="480" x="106" y="252.66">&#50696;&#47484; &#46308;&#50612;, EV&#44032; &#52649;&#51204;&#44592;&#50640; &#50672;&#44208;&#46104;&#50612; &#51080;&#44256;, &#49324;&#50857;&#51088;&#44032; &#51064;&#51613;&#51012; &#48155;&#51008; &#44221;&#50864;&#44032; &#51060;&#50640; &#54644;&#45817;&#46121;&#45768;&#45796;.</text><path d="M284,299.65 L441,299.65 L441,306.6 L431,316.6 L284,316.6 L284,299.65 " fill="#EEEEEE" style="stroke:#000000;stroke-width:1.5;"/><rect fill="none" height="345.5" style="stroke:#000000;stroke-width:1.5;" width="490" x="284" y="299.65"/><text fill="#000000" font-family="NanumGothic" font-size="13" font-weight="bold" lengthAdjust="spacing" textLength="112" x="299" y="312.61">EnergyOfferPeriod</text><path d="M294,321.6 L294,360.6 L611,360.6 L611,331.6 L601,321.6 L294,321.6 " fill="#7D5393" style="stroke:#000000;stroke-width:0.5;"/><path d="M601,321.6 L601,331.6 L611,331.6 L601,321.6 " fill="#7D5393" style="stroke:#000000;stroke-width:0.5;"/><text fill="#FFFFFF" font-family="NanumGothic" font-size="13" lengthAdjust="spacing" textLength="280" x="300" y="338.56">Energy Offer Period&#45716; &#52649;&#51204;&#44592;(EVSE)&#44032; &#51456;&#48708;&#46104;&#44256;,</text><text fill="#FFFFFF" font-family="NanumGothic" font-size="13" lengthAdjust="spacing" textLength="296" x="300" y="353.51">&#52649;&#51204;&#44592;(EVSE)&#44032; &#52649;&#51204;&#51012; &#49884;&#51089;&#54624; &#49688; &#51080;&#51012; &#46412; &#49884;&#51089;&#46121;&#45768;&#45796;.</text><path d="M395,373.5 L570,373.5 L570,380.45 L560,390.45 L395,390.45 L395,373.5 " fill="#EEEEEE" style="stroke:#000000;stroke-width:1.5;"/><rect fill="none" height="92.9" style="stroke:#000000;stroke-width:1.5;" width="317" x="395" y="373.5"/><text fill="#000000" font-family="NanumGothic" font-size="13" font-weight="bold" lengthAdjust="spacing" textLength="130" x="410" y="386.46">EnergyTransferPeriod</text><path d="M565,422.45 L565,446.45 L702,446.45 L702,432.45 L692,422.45 L565,422.45 " fill="#7D5393" style="stroke:#000000;stroke-width:0.5;"/><path d="M692,422.45 L692,432.45 L702,432.45 L692,422.45 " fill="#7D5393" style="stroke:#000000;stroke-width:0.5;"/><text fill="#FFFFFF" font-family="NanumGothic" font-size="13" lengthAdjust="spacing" textLength="116" x="571" y="439.41">&#50640;&#45320;&#51648;&#44032; &#51204;&#45804;&#46121;&#45768;&#45796;.</text><path d="M462,478.4 L462,532.4 L764,532.4 L764,488.4 L754,478.4 L462,478.4 " fill="#7D5393" style="stroke:#000000;stroke-width:0.5;"/><path d="M754,478.4 L754,488.4 L764,488.4 L754,478.4 " fill="#7D5393" style="stroke:#000000;stroke-width:0.5;"/><text fill="#FFFFFF" font-family="NanumGothic" font-size="13" lengthAdjust="spacing" textLength="281" x="468" y="495.36">EnergyOfferPeriod &#44592;&#44036; &#46041;&#50504; &#48176;&#53552;&#47532;&#51032; &#48156;&#50676;/&#50756;&#52649;,</text><text fill="#FFFFFF" font-family="NanumGothic" font-size="13" lengthAdjust="spacing" textLength="264" x="468" y="510.31">EV &#45236;&#48512; Smart Charging&#44284; &#44057;&#51008; &#50896;&#51064;&#51004;&#47196; &#51064;&#54644;</text><text fill="#FFFFFF" font-family="NanumGothic" font-size="13" lengthAdjust="spacing" textLength="180" x="468" y="525.26">EV&#44032; &#52649;&#51204;&#46104;&#51648; &#50506;&#51012; &#49688; &#51080;&#49845;&#45768;&#45796;.</text><path d="M395,545.25 L570,545.25 L570,552.2 L560,562.2 L395,562.2 L395,545.25 " fill="#EEEEEE" style="stroke:#000000;stroke-width:1.5;"/><rect fill="none" height="92.9" style="stroke:#000000;stroke-width:1.5;" width="317" x="395" y="545.25"/><text fill="#000000" font-family="NanumGothic" font-size="13" font-weight="bold" lengthAdjust="spacing" textLength="130" x="410" y="558.21">EnergyTransferPeriod</text><path d="M565,594.2 L565,618.2 L702,618.2 L702,604.2 L692,594.2 L565,594.2 " fill="#7D5393" style="stroke:#000000;stroke-width:0.5;"/><path d="M692,594.2 L692,604.2 L702,604.2 L692,594.2 " fill="#7D5393" style="stroke:#000000;stroke-width:0.5;"/><text fill="#FFFFFF" font-family="NanumGothic" font-size="13" lengthAdjust="spacing" textLength="116" x="571" y="611.16">&#50640;&#45320;&#51648;&#44032; &#51204;&#45804;&#46121;&#45768;&#45796;.</text><path d="M297,659.15 L506,659.15 L506,666.1 L496,676.1 L297,676.1 L297,659.15 " fill="#EEEEEE" style="stroke:#000000;stroke-width:1.5;"/><rect fill="none" height="110.75" style="stroke:#000000;stroke-width:1.5;" width="306" x="297" y="659.15"/><text fill="#000000" font-family="NanumGothic" font-size="13" font-weight="bold" lengthAdjust="spacing" textLength="164" x="312" y="672.11">EnergyOfferSuspendPeriod</text><path d="M311,695.1 L311,764.1 L593,764.1 L593,705.1 L583,695.1 L311,695.1 " fill="#7D5393" style="stroke:#000000;stroke-width:0.5;"/><path d="M583,695.1 L583,705.1 L593,705.1 L583,695.1 " fill="#7D5393" style="stroke:#000000;stroke-width:0.5;"/><text fill="#FFFFFF" font-family="NanumGothic" font-size="13" lengthAdjust="spacing" textLength="230" x="317" y="712.06">Transaction &#46041;&#50504;, Smart Charging &#46608;&#45716;</text><text fill="#FFFFFF" font-family="NanumGothic" font-size="13" lengthAdjust="spacing" textLength="209" x="317" y="727.01">local balancing&#44284; &#44057;&#51008; &#50896;&#51064;&#51004;&#47196; &#51064;&#54644;</text><text fill="#FFFFFF" font-family="NanumGothic" font-size="13" lengthAdjust="spacing" textLength="261" x="317" y="741.96">&#52649;&#51204;&#44592;(EVSE)&#44032; EV&#47196; EnergyOffer&#47484; &#51473;&#45800;&#54616;&#45716;</text><text fill="#FFFFFF" font-family="NanumGothic" font-size="13" lengthAdjust="spacing" textLength="148" x="317" y="756.91">&#44592;&#44036;&#51060; &#51316;&#51116;&#54624; &#49688; &#51080;&#49845;&#45768;&#45796;.</text><path d="M297,783.9 L454,783.9 L454,790.85 L444,800.85 L297,800.85 L297,783.9 " fill="#EEEEEE" style="stroke:#000000;stroke-width:1.5;"/><rect fill="none" height="150.85" style="stroke:#000000;stroke-width:1.5;" width="425" x="297" y="783.9"/><text fill="#000000" font-family="NanumGothic" font-size="13" font-weight="bold" lengthAdjust="spacing" textLength="112" x="312" y="796.86">EnergyOfferPeriod</text><path d="M395,834.85 L570,834.85 L570,841.8 L560,851.8 L395,851.8 L395,834.85 " fill="#EEEEEE" style="stroke:#000000;stroke-width:1.5;"/><rect fill="none" height="92.9" style="stroke:#000000;stroke-width:1.5;" width="317" x="395" y="834.85"/><text fill="#000000" font-family="NanumGothic" font-size="13" font-weight="bold" lengthAdjust="spacing" textLength="130" x="410" y="847.81">EnergyTransferPeriod</text><path d="M565,883.8 L565,907.8 L702,907.8 L702,893.8 L692,883.8 L565,883.8 " fill="#7D5393" style="stroke:#000000;stroke-width:0.5;"/><path d="M692,883.8 L692,893.8 L702,893.8 L692,883.8 " fill="#7D5393" style="stroke:#000000;stroke-width:0.5;"/><text fill="#FFFFFF" font-family="NanumGothic" font-size="13" lengthAdjust="spacing" textLength="116" x="571" y="900.76">&#50640;&#45320;&#51648;&#44032; &#51204;&#45804;&#46121;&#45768;&#45796;.</text><path d="M189,946.75 L189,1015.75 L512,1015.75 L512,956.75 L502,946.75 L189,946.75 " fill="#7D5393" style="stroke:#000000;stroke-width:0.5;"/><path d="M502,946.75 L502,956.75 L512,956.75 L502,946.75 " fill="#7D5393" style="stroke:#000000;stroke-width:0.5;"/><text fill="#FFFFFF" font-family="NanumGothic" font-size="13" lengthAdjust="spacing" textLength="302" x="195" y="963.71">Transaction&#51008; &#49324;&#50857;&#51088;&#44032; transaction &#51473;&#45800;&#51012; &#50836;&#52397;&#54616;&#44256;,</text><text fill="#FFFFFF" font-family="NanumGothic" font-size="13" lengthAdjust="spacing" textLength="172" x="195" y="978.66">&#51060; &#50836;&#52397;&#51060; &#49849;&#51064;&#46104;&#45716; &#44221;&#50864;&#50752; &#44057;&#51060;</text><text fill="#FFFFFF" font-family="NanumGothic" font-size="13" lengthAdjust="spacing" textLength="263" x="195" y="993.61">&#52649;&#51204;&#51012; &#50948;&#54620; &#51312;&#44148;(precondition)&#51060; &#47784;&#46160; false&#51064;</text><text fill="#FFFFFF" font-family="NanumGothic" font-size="13" lengthAdjust="spacing" textLength="104" x="195" y="1008.56">&#49884;&#51216;&#50640; &#51333;&#47308;&#46121;&#45768;&#45796;.</text><path d="M91,1033.55 L91,1087.55 L441,1087.55 L441,1043.55 L431,1033.55 L91,1033.55 " fill="#7D5393" style="stroke:#000000;stroke-width:0.5;"/><path d="M431,1033.55 L431,1043.55 L441,1043.55 L431,1033.55 " fill="#7D5393" style="stroke:#000000;stroke-width:0.5;"/><text fill="#FFFFFF" font-family="NanumGothic" font-size="13" lengthAdjust="spacing" textLength="233" x="97" y="1050.51">Session&#51008; &#52649;&#51204;&#44592;&#44032; &#52264;&#47049;&#50640; &#50672;&#44208;&#46104;&#51648; &#50506;&#44256;,</text><text fill="#FFFFFF" font-family="NanumGothic" font-size="13" lengthAdjust="spacing" textLength="176" x="97" y="1065.46">&#51452;&#52264; &#44277;&#44036;&#51060; &#48708;&#50612; &#51080;&#51012; &#46412;&#50752; &#44057;&#51060;</text><text fill="#FFFFFF" font-family="NanumGothic" font-size="13" lengthAdjust="spacing" textLength="329" x="97" y="1080.41">&#52649;&#51204;&#49548;&#44032; &#45796;&#49884; &#49324;&#50857; &#44032;&#45733;&#54620;(available) &#49345;&#53468;&#51068; &#46412; &#51333;&#47308;&#46121;&#45768;&#45796;.</text><!--SRC=[xLR1Rjj64BthAxOvsO2J_a4lXNfj0HU-53qm4YqJe4c1abtafZfqe4W2IiDH9DcKAZToR0SEGCjq8AFg3t6N_z3PuP9SKfAhtCiJTtTcTkRDczdvHZDA-a5P9RNwArrzKJtOrmk5gcBLjP9MLOmwURQjrcgQQJmZIes8_wp0pvPYr9HIFHQIrbd1eg5QbLVanzrTrKB9Q0FNIoL_qCtV946-B1IuvKEbhYRE52gMUL0bt-yfLaKpAka-8OO9SkQXQYMR13xsvOQDRSBi6Jlkis63iADRTdR3HWwXVOUstf7Y3Xl0zXHEEuIz_ZtipzZeXCiCRH9s-ro6jLqsTbZFmR_H2NLkQBj9svCNqIL3FwS91XzzUkhI2vS4Ku-DNNevvzQ2EuyUzRSYjNCdcDu8ankMkiyZgDK176BkadeAxIPtXLtPuVktGlFl2RKlGzj3rxrh-kTR5EbvS9aG-J270pQwPCE-M0IUmwuQmSn3NzuyX5q_KVOb1Hxcg0bnWpG91rqsd0aSwEaTceCeUyTuOxCFJeLT2GxLA6CkU4wYRCaauQv9Q_BybpsjN5QDNvz_jo2NP3z_aAOwVv8nZcaG-R_mWZkVUqm_NTCJIFvLXrtShPTU0BFVv9ZHqmbxxsy1PG8lDWrmeY92Jvq-273qWllnLier51_EsCSXkk2TSzU2wJ_ip8kEV6u3ya7RZxdBPJY9N4KPwEJgoa2NFuWo8kt-f5gQMHPnfi3czTBBevecaHwY5-EmKTpPBcvYG9C6VRG13Gv3ehzC4BUGIOXys1rpJd444QbkPrLAihZ8OI43yf6bNMK9RjXi8haSSD89OcDfbJsipeLZ2A_dKBl9Aum7DhPf-tQrrsju9ODVLbSv1XOBgzoJBIoad40Y0Wym_cF0kaqWfGVzX7wyvGLEFPVr_6_Pm8O4nGaixX1wvDCl3RAzptjKt8I3-pa9l05Msxd3QUxEUT_3jk4doccwUPL0Ps7TbcWXcExMmrBQ_v_TfHAnEXTONjZR1xKgd6PmMjLv5rrwkXF8TYB-REL88LxNH4CtIufENYgwOfJMvSpIZb7SuNAIKxmniya9RLz7tJnHZlYDJzk5pqQtSc_9aYsNkTMOhWNcufkqiXklGUtroVqKlTSW-7eKNo3vLz3yAQAdL7-2x4lhGORxgwS3-O6M1Yv1A6nFP-_Oz3EVtDAd33c5-_ZNUWJQGbFZZs7qgFEn3EaTKrbwvrmxxBfY8DceMch9DCgQcFByU3pPLVIQ2bPZzNH0-UkOVkYicX5YW2Hu_dD25l_fi8HrauoLcTacwje94j78I8Bx1r5eyEYB-KUytZaW10nlElm2S1_Y4Za0gGPjNG8q6ygXekdAIrtTnA7wjSk6ysWIM8mzYPp7_Iy0]--></g></svg>