<?xml version="1.0" encoding="us-ascii" standalone="no"?><svg xmlns="http://www.w3.org/2000/svg" xmlns:xlink="http://www.w3.org/1999/xlink" contentStyleType="text/css" height="920px" preserveAspectRatio="none" style="width:1152px;height:920px;background:#FFFFFF;" version="1.1" viewBox="0 0 1152 920" width="1152px" zoomAndPan="magnify"><defs/><g><rect fill="#FFFFFF" height="675.4" style="stroke:#181818;stroke-width:1.0;" width="10" x="76.5" y="219.9"/><rect fill="#FFFFFF" height="349" style="stroke:#181818;stroke-width:1.0;" width="10" x="230.5" y="149"/><rect fill="#FFFFFF" height="78.85" style="stroke:#181818;stroke-width:1.0;" width="10" x="230.5" y="550.9"/><rect fill="#FFFFFF" height="101.8" style="stroke:#181818;stroke-width:1.0;" width="10" x="230.5" y="793.5"/><rect fill="#FFFFFF" height="101.8" style="stroke:#181818;stroke-width:1.0;" width="10" x="658.5" y="263.8"/><rect fill="#FFFFFF" height="78.85" style="stroke:#181818;stroke-width:1.0;" width="10" x="658.5" y="550.9"/><rect fill="#FFFFFF" height="101.8" style="stroke:#181818;stroke-width:1.0;" width="10" x="658.5" y="793.5"/><rect fill="#FFFFFF" height="28.95" style="stroke:#181818;stroke-width:1.0;" width="10" x="1086.5" y="307.7"/><rect fill="#FFFFFF" height="28.95" style="stroke:#181818;stroke-width:1.0;" width="10" x="1086.5" y="837.4"/><rect fill="none" height="264.15" style="stroke:#000000;stroke-width:1.5;" width="838" x="56" y="380.6"/><rect fill="none" height="124.75" style="stroke:#000000;stroke-width:1.5;" width="706.5" x="177.5" y="513"/><line style="stroke:#181818;stroke-width:0.5;stroke-dasharray:5.0,5.0;" x1="38" x2="38" y1="83.1" y2="913.3"/><line style="stroke:#181818;stroke-width:0.5;stroke-dasharray:5.0,5.0;" x1="81" x2="81" y1="83.1" y2="913.3"/><line style="stroke:#181818;stroke-width:0.5;stroke-dasharray:5.0,5.0;" x1="235.5" x2="235.5" y1="83.1" y2="913.3"/><line style="stroke:#181818;stroke-width:0.5;stroke-dasharray:5.0,5.0;" x1="663" x2="663" y1="83.1" y2="913.3"/><line style="stroke:#181818;stroke-width:0.5;stroke-dasharray:5.0,5.0;" x1="1091.5" x2="1091.5" y1="83.1" y2="913.3"/><text fill="#000000" font-family="NanumGothic" font-size="14" lengthAdjust="spacing" textLength="29" x="21" y="79.88">User</text><ellipse cx="38.5" cy="14.5" fill="#E2E2F0" rx="8" ry="8" style="stroke:#7D5393;stroke-width:1.5;"/><path d="M38.5,22.5 L38.5,49.5 M25.5,30.5 L51.5,30.5 M38.5,49.5 L25.5,64.5 M38.5,49.5 L51.5,64.5 " fill="none" style="stroke:#7D5393;stroke-width:1.5;"/><rect fill="#7D5393" height="30.1" rx="2.5" ry="2.5" style="stroke:#181818;stroke-width:0.5;" width="31" x="66" y="52"/><text fill="#FFFFFF" font-family="NanumGothic" font-size="14" lengthAdjust="spacing" textLength="17" x="73" y="71.88">EV</text><rect fill="#7D5393" height="30.1" rx="2.5" ry="2.5" style="stroke:#181818;stroke-width:0.5;" width="96" x="187.5" y="52"/><text fill="#FFFFFF" font-family="NanumGothic" font-size="14" lengthAdjust="spacing" textLength="82" x="194.5" y="71.88">Charge Point</text><rect fill="#7D5393" height="30.1" rx="2.5" ry="2.5" style="stroke:#181818;stroke-width:0.5;" width="113" x="607" y="52"/><text fill="#FFFFFF" font-family="NanumGothic" font-size="14" lengthAdjust="spacing" textLength="99" x="614" y="71.88">Local Controller</text><rect fill="#7D5393" height="30.1" rx="2.5" ry="2.5" style="stroke:#181818;stroke-width:0.5;" width="110" x="1036.5" y="52"/><text fill="#FFFFFF" font-family="NanumGothic" font-size="14" lengthAdjust="spacing" textLength="96" x="1043.5" y="71.88">Central System</text><rect fill="#FFFFFF" height="675.4" style="stroke:#181818;stroke-width:1.0;" width="10" x="76.5" y="219.9"/><rect fill="#FFFFFF" height="349" style="stroke:#181818;stroke-width:1.0;" width="10" x="230.5" y="149"/><rect fill="#FFFFFF" height="78.85" style="stroke:#181818;stroke-width:1.0;" width="10" x="230.5" y="550.9"/><rect fill="#FFFFFF" height="101.8" style="stroke:#181818;stroke-width:1.0;" width="10" x="230.5" y="793.5"/><rect fill="#FFFFFF" height="101.8" style="stroke:#181818;stroke-width:1.0;" width="10" x="658.5" y="263.8"/><rect fill="#FFFFFF" height="78.85" style="stroke:#181818;stroke-width:1.0;" width="10" x="658.5" y="550.9"/><rect fill="#FFFFFF" height="101.8" style="stroke:#181818;stroke-width:1.0;" width="10" x="658.5" y="793.5"/><rect fill="#FFFFFF" height="28.95" style="stroke:#181818;stroke-width:1.0;" width="10" x="1086.5" y="307.7"/><rect fill="#FFFFFF" height="28.95" style="stroke:#181818;stroke-width:1.0;" width="10" x="1086.5" y="837.4"/><path d="M5,98.1 L5,122.1 L1125,122.1 L1125,108.1 L1115,98.1 L5,98.1 " fill="#7D5393" style="stroke:#000000;stroke-width:0.5;"/><path d="M1115,98.1 L1115,108.1 L1125,108.1 L1115,98.1 " fill="#7D5393" style="stroke:#000000;stroke-width:0.5;"/><text fill="#FFFFFF" font-family="NanumGothic" font-size="13" lengthAdjust="spacing" textLength="179" x="471.25" y="115.06">RFID &#46608;&#45716; &#45796;&#47480; &#51064;&#51613; &#48169;&#49885;&#51032; &#51064;&#51613;</text><polygon fill="#181818" points="92.5,145,82.5,149,92.5,153,88.5,149" style="stroke:#181818;stroke-width:1.0;"/><line style="stroke:#181818;stroke-width:1.0;" x1="86.5" x2="229.5" y1="149" y2="149"/><text fill="#000000" font-family="NanumGothic" font-size="13" lengthAdjust="spacing" textLength="120" x="98.5" y="144.01">&#52572;&#45824; &#51204;&#47448;&#47049; &#51228;&#54620; &#49444;&#51221;</text><line style="stroke:#181818;stroke-width:1.0;" x1="240.5" x2="282.5" y1="177.95" y2="177.95"/><line style="stroke:#181818;stroke-width:1.0;" x1="282.5" x2="282.5" y1="177.95" y2="190.95"/><line style="stroke:#181818;stroke-width:1.0;" x1="241.5" x2="282.5" y1="190.95" y2="190.95"/><polygon fill="#181818" points="251.5,186.95,241.5,190.95,251.5,194.95,247.5,190.95" style="stroke:#181818;stroke-width:1.0;"/><text fill="#000000" font-family="NanumGothic" font-size="13" lengthAdjust="spacing" textLength="52" x="247.5" y="172.96">&#51204;&#50896; &#53020;&#51664;</text><polygon fill="#181818" points="218.5,215.9,228.5,219.9,218.5,223.9,222.5,219.9" style="stroke:#181818;stroke-width:1.0;"/><line style="stroke:#181818;stroke-width:1.0;" x1="86.5" x2="224.5" y1="219.9" y2="219.9"/><text fill="#000000" font-family="NanumGothic" font-size="13" lengthAdjust="spacing" textLength="52" x="93.5" y="214.91">&#52649;&#51204; &#49884;&#51089;</text><polygon fill="#181818" points="646.5,259.8,656.5,263.8,646.5,267.8,650.5,263.8" style="stroke:#181818;stroke-width:1.0;"/><line style="stroke:#181818;stroke-width:1.0;" x1="240.5" x2="652.5" y1="263.8" y2="263.8"/><text fill="#000000" font-family="NanumGothic" font-size="13" lengthAdjust="spacing" textLength="391" x="247.5" y="243.86">StartTransaction.req(connectorId, idTag, meterStart, timestamp,</text><text fill="#000000" font-family="NanumGothic" font-size="13" lengthAdjust="spacing" textLength="93" x="247.5" y="258.81">[reservationId])</text><polygon fill="#181818" points="1074.5,303.7,1084.5,307.7,1074.5,311.7,1078.5,307.7" style="stroke:#181818;stroke-width:1.0;"/><line style="stroke:#181818;stroke-width:1.0;stroke-dasharray:2.0,2.0;" x1="668.5" x2="1080.5" y1="307.7" y2="307.7"/><text fill="#000000" font-family="NanumGothic" font-size="13" lengthAdjust="spacing" textLength="391" x="675.5" y="287.76">StartTransaction.req(connectorId, idTag, meterStart, timestamp,</text><text fill="#000000" font-family="NanumGothic" font-size="13" lengthAdjust="spacing" textLength="93" x="675.5" y="302.71">[reservationId])</text><polygon fill="#181818" points="679.5,332.65,669.5,336.65,679.5,340.65,675.5,336.65" style="stroke:#181818;stroke-width:1.0;"/><line style="stroke:#181818;stroke-width:1.0;" x1="673.5" x2="1090.5" y1="336.65" y2="336.65"/><text fill="#000000" font-family="NanumGothic" font-size="13" lengthAdjust="spacing" textLength="284" x="685.5" y="331.66">StartTransaction.conf(idTagInfo, transactionId)</text><polygon fill="#181818" points="251.5,361.6,241.5,365.6,251.5,369.6,247.5,365.6" style="stroke:#181818;stroke-width:1.0;"/><line style="stroke:#181818;stroke-width:1.0;stroke-dasharray:2.0,2.0;" x1="245.5" x2="662.5" y1="365.6" y2="365.6"/><text fill="#000000" font-family="NanumGothic" font-size="13" lengthAdjust="spacing" textLength="284" x="257.5" y="360.61">StartTransaction.conf(idTagInfo, transactionId)</text><path d="M56,380.6 L359,380.6 L359,387.55 L349,397.55 L56,397.55 L56,380.6 " fill="#EEEEEE" style="stroke:#000000;stroke-width:1.5;"/><rect fill="none" height="264.15" style="stroke:#000000;stroke-width:1.5;" width="838" x="56" y="380.6"/><text fill="#000000" font-family="NanumGothic" font-size="13" font-weight="bold" lengthAdjust="spacing" textLength="258" x="71" y="393.56">loop Change according to charging profile</text><line style="stroke:#000000;stroke-width:1.0;stroke-dasharray:2.0,2.0;" x1="56" x2="894" y1="398.55" y2="398.55"/><text fill="#000000" font-family="NanumGothic" font-size="11" font-weight="bold" lengthAdjust="spacing" textLength="227" x="61" y="408.67">[for each interval period in charging profile]</text><line style="stroke:#181818;stroke-width:1.0;" x1="240.5" x2="282.5" y1="444.6" y2="444.6"/><line style="stroke:#181818;stroke-width:1.0;" x1="282.5" x2="282.5" y1="444.6" y2="457.6"/><line style="stroke:#181818;stroke-width:1.0;" x1="241.5" x2="282.5" y1="457.6" y2="457.6"/><polygon fill="#181818" points="251.5,453.6,241.5,457.6,251.5,461.6,247.5,457.6" style="stroke:#181818;stroke-width:1.0;"/><text fill="#000000" font-family="NanumGothic" font-size="13" lengthAdjust="spacing" textLength="224" x="247.5" y="439.61">&#52264;&#51669; &#54532;&#47196;&#54028;&#51068; &#44592;&#48152;&#51004;&#47196; &#51204;&#47141;&#47049; &#51228;&#54620; &#49444;&#51221;</text><path d="M483,417.2 L483,471.2 L740,471.2 L740,427.2 L730,417.2 L483,417.2 " fill="#7D5393" style="stroke:#000000;stroke-width:0.5;"/><path d="M730,417.2 L730,427.2 L740,427.2 L730,417.2 " fill="#7D5393" style="stroke:#000000;stroke-width:0.5;"/><text fill="#FFFFFF" font-family="NanumGothic" font-size="13" lengthAdjust="spacing" textLength="236" x="489" y="434.16">&#52649;&#51204;&#44592;&#45716; &#52572;&#45824; &#51204;&#47448;&#47049; &#48320;&#44221;&#51060; &#54596;&#50836;&#54624; &#46412;&#47560;&#45796;</text><text fill="#FFFFFF" font-family="NanumGothic" font-size="13" lengthAdjust="spacing" textLength="196" x="489" y="449.11">CP(Control Pilot) &#49888;&#54840;&#47484; &#51060;&#50857;&#54616;&#50668;</text><text fill="#FFFFFF" font-family="NanumGothic" font-size="13" lengthAdjust="spacing" textLength="156" x="489" y="464.06">&#52264;&#51669; &#54532;&#47196;&#54028;&#51068;&#51012; &#44396;&#54788;&#54633;&#45768;&#45796;.</text><polygon fill="#181818" points="97.5,494,87.5,498,97.5,502,93.5,498" style="stroke:#181818;stroke-width:1.0;"/><line style="stroke:#181818;stroke-width:1.0;" x1="91.5" x2="234.5" y1="498" y2="498"/><text fill="#000000" font-family="NanumGothic" font-size="13" lengthAdjust="spacing" textLength="120" x="103.5" y="493.01">&#52572;&#45824; &#51204;&#47448;&#47049; &#51228;&#54620; &#49444;&#51221;</text><path d="M177.5,513 L243.5,513 L243.5,519.95 L233.5,529.95 L177.5,529.95 L177.5,513 " fill="#EEEEEE" style="stroke:#000000;stroke-width:1.5;"/><rect fill="none" height="124.75" style="stroke:#000000;stroke-width:1.5;" width="706.5" x="177.5" y="513"/><text fill="#000000" font-family="NanumGothic" font-size="13" font-weight="bold" lengthAdjust="spacing" textLength="21" x="192.5" y="525.96">opt</text><text fill="#000000" font-family="NanumGothic" font-size="11" font-weight="bold" lengthAdjust="spacing" textLength="161" x="258.5" y="525.12">[Change of limits by controller]</text><polygon fill="#181818" points="251.5,546.9,241.5,550.9,251.5,554.9,247.5,550.9" style="stroke:#181818;stroke-width:1.0;"/><line style="stroke:#181818;stroke-width:1.0;" x1="245.5" x2="657.5" y1="550.9" y2="550.9"/><text fill="#000000" font-family="NanumGothic" font-size="13" lengthAdjust="spacing" textLength="341" x="257.5" y="545.91">SetChargingProfile.req(connectorId, csChargingProfiles)</text><path d="M673,563.9 L673,602.9 L874,602.9 L874,573.9 L864,563.9 L673,563.9 " fill="#7D5393" style="stroke:#000000;stroke-width:0.5;"/><path d="M864,563.9 L864,573.9 L874,573.9 L864,563.9 " fill="#7D5393" style="stroke:#000000;stroke-width:0.5;"/><text fill="#FFFFFF" font-family="NanumGothic" font-size="13" lengthAdjust="spacing" textLength="180" x="679" y="580.86">&#47196;&#52972; &#52968;&#53944;&#47204;&#47084;&#44032; &#52264;&#51669; &#54532;&#47196;&#54028;&#51068;&#51012;</text><text fill="#FFFFFF" font-family="NanumGothic" font-size="13" lengthAdjust="spacing" textLength="148" x="679" y="595.81">&#48320;&#44221;&#54644;&#50556; &#54624; &#51648; &#44208;&#51221;&#54633;&#45768;&#45796;.</text><polygon fill="#181818" points="651.5,625.75,661.5,629.75,651.5,633.75,655.5,629.75" style="stroke:#181818;stroke-width:1.0;"/><line style="stroke:#181818;stroke-width:1.0;stroke-dasharray:2.0,2.0;" x1="235.5" x2="657.5" y1="629.75" y2="629.75"/><text fill="#000000" font-family="NanumGothic" font-size="13" lengthAdjust="spacing" textLength="211" x="242.5" y="624.76">SetChargingProfile.conf(Accepted)</text><path d="M5,656.75 L5,680.75 L1125,680.75 L1125,666.75 L1115,656.75 L5,656.75 " fill="#7D5393" style="stroke:#000000;stroke-width:0.5;"/><path d="M1115,656.75 L1115,666.75 L1125,666.75 L1115,656.75 " fill="#7D5393" style="stroke:#000000;stroke-width:0.5;"/><text fill="#FFFFFF" font-family="NanumGothic" font-size="13" lengthAdjust="spacing" textLength="179" x="471.25" y="673.71">RFID &#46608;&#45716; &#45796;&#47480; &#51064;&#51613; &#48169;&#49885;&#51032; &#51064;&#51613;</text><polygon fill="#181818" points="97.5,703.65,87.5,707.65,97.5,711.65,93.5,707.65" style="stroke:#181818;stroke-width:1.0;"/><line style="stroke:#181818;stroke-width:1.0;" x1="91.5" x2="234.5" y1="707.65" y2="707.65"/><text fill="#000000" font-family="NanumGothic" font-size="13" lengthAdjust="spacing" textLength="52" x="103.5" y="702.66">&#52649;&#51204; &#51333;&#47308;</text><line style="stroke:#181818;stroke-width:1.0;" x1="235.5" x2="277.5" y1="736.6" y2="736.6"/><line style="stroke:#181818;stroke-width:1.0;" x1="277.5" x2="277.5" y1="736.6" y2="749.6"/><line style="stroke:#181818;stroke-width:1.0;" x1="236.5" x2="277.5" y1="749.6" y2="749.6"/><polygon fill="#181818" points="246.5,745.6,236.5,749.6,246.5,753.6,242.5,749.6" style="stroke:#181818;stroke-width:1.0;"/><text fill="#000000" font-family="NanumGothic" font-size="13" lengthAdjust="spacing" textLength="52" x="242.5" y="731.61">&#51204;&#50896; &#44732;&#51664;</text><polygon fill="#181818" points="646.5,789.5,656.5,793.5,646.5,797.5,650.5,793.5" style="stroke:#181818;stroke-width:1.0;"/><line style="stroke:#181818;stroke-width:1.0;" x1="240.5" x2="652.5" y1="793.5" y2="793.5"/><text fill="#000000" font-family="NanumGothic" font-size="13" lengthAdjust="spacing" textLength="268" x="247.5" y="773.56">StopTransaction.req(meterStop, timestamp,</text><text fill="#000000" font-family="NanumGothic" font-size="13" lengthAdjust="spacing" textLength="298" x="247.5" y="788.51">transactionId, reason, [idTag], [transactionData])</text><polygon fill="#181818" points="1074.5,833.4,1084.5,837.4,1074.5,841.4,1078.5,837.4" style="stroke:#181818;stroke-width:1.0;"/><line style="stroke:#181818;stroke-width:1.0;" x1="668.5" x2="1080.5" y1="837.4" y2="837.4"/><text fill="#000000" font-family="NanumGothic" font-size="13" lengthAdjust="spacing" textLength="268" x="675.5" y="817.46">StopTransaction.req(meterStop, timestamp,</text><text fill="#000000" font-family="NanumGothic" font-size="13" lengthAdjust="spacing" textLength="298" x="675.5" y="832.41">transactionId, reason, [idTag], [transactionData])</text><polygon fill="#181818" points="679.5,862.35,669.5,866.35,679.5,870.35,675.5,866.35" style="stroke:#181818;stroke-width:1.0;"/><line style="stroke:#181818;stroke-width:1.0;stroke-dasharray:2.0,2.0;" x1="673.5" x2="1090.5" y1="866.35" y2="866.35"/><text fill="#000000" font-family="NanumGothic" font-size="13" lengthAdjust="spacing" textLength="206" x="685.5" y="861.36">StopTransaction.conf([idTagInfo])</text><polygon fill="#181818" points="246.5,891.3,236.5,895.3,246.5,899.3,242.5,895.3" style="stroke:#181818;stroke-width:1.0;"/><line style="stroke:#181818;stroke-width:1.0;stroke-dasharray:2.0,2.0;" x1="240.5" x2="662.5" y1="895.3" y2="895.3"/><text fill="#000000" font-family="NanumGothic" font-size="13" lengthAdjust="spacing" textLength="206" x="252.5" y="890.31">StopTransaction.conf([idTagInfo])</text><!--SRC=[lLPDJnf16BxlhtZhIHBq1tXeqg1DI7eWrNgn7hQx0swox6ntHnDl76ZIAWURk2cnKB6L8Wa7OhKXbVuXPlO_z9q1otw0iJ6Lq-mxxzSyp_l14yinx5sJWC_sRRBixfPjJTCDHZrOUEKJRm5q7-H1StMFMORbwWw3XRLDTR6s6HVdTdIlHA10BOSfXR50VSSrNr13jo577UPHsvx4KSAfBE6Re1njrlTzHifZxsFHMA9f3cK4w1xnLCBPn3N0o-VvLU3r8tvm3FpmdBS789e3yRq9lDyLXqtHh4y46d5CaEuqBV82M7gABuOL4DSDNgk0Q5LvkyvFF-2f4GOD4DLpqGeaVDQUZhb4Nvzq5FrSaQx4voCGmuRe76aQHach_EoY5eZ3XlZoSHe3AKYwJi28jW3h3B7Sy7J7bvRKMVR8sqM3EWwHNEVDB5ZcXbxAGfamuYdjB32hJ7ocbzqim6jdooC8AmP5yxovdT6cIII9IsQm95yJPUE_vJJ5FbuRyUWpGKgbWwaK5rKAUQT8CVJqBczcD9FC2pRp-J4o7n0hYRLMykYk2pQbhWpYOF_fXa4zqt9Am2WOCh0yknujMZO1ZTW-WI9sE3hT0Kn88cY3IpoBclYTCj6mUUukt_w5w0GG7bVvMIEirKHp2AD1d_VheZ54aMgLLZlTAg2w33ohjCFm0oPLBcsnILDzndzKHfU_HVCAmg0gJex3e0KygF7EU-ndPPyhB4wmWO9bKvR1Xcc5zG5l3x6thyH9DmpgubDl72oTjcXMONJT2-lLCEZoG-bt6NMdyo25n7qc0a2qMA9J0O2wx9OtMWJRAblCXpVxO4mfbhccQYh9WVgj4vQRa5SOSvTkAiDFgFWP5M5kXSKk4zb72PJvpx85G7Z5JG_4pKLuCE1dv_oqD-fNvk1_QwEu3eCh4Gn14Yqw5HXTzX7F63LnSXBqp6xqD4Yg_PuP1d4PCSTmp64iSPL-BsOZryTZhgF9PlZwZd-htM_HZ7uDrQAvr-QWRd98JmOoTPFpE3Qsik0HtQTE5hRKPDl6GqHXLMTwR697K9u_xMRrmOpDybWvtxbbvgoPU6wgzBR-ZlxjXowMV_2U17TEoKV4-6_Z3m00]--></g></svg>