<?xml version="1.0" encoding="us-ascii" standalone="no"?><svg xmlns="http://www.w3.org/2000/svg" xmlns:xlink="http://www.w3.org/1999/xlink" contentStyleType="text/css" height="384px" preserveAspectRatio="none" style="width:1001px;height:384px;background:#FFFFFF;" version="1.1" viewBox="0 0 1001 384" width="1001px" zoomAndPan="magnify"><defs/><g><rect fill="#FFFFFF" height="78.85" style="stroke:#181818;stroke-width:1.0;" width="10" x="48" y="280.55"/><rect fill="#FFFFFF" height="93.8" style="stroke:#181818;stroke-width:1.0;" width="10" x="380" y="120.9"/><rect fill="none" height="169.6" style="stroke:#000000;stroke-width:1.5;" width="676.5" x="318.5" y="53.1"/><line style="stroke:#181818;stroke-width:0.5;stroke-dasharray:5.0,5.0;" x1="53" x2="53" y1="36.1" y2="377.4"/><line style="stroke:#181818;stroke-width:0.5;stroke-dasharray:5.0,5.0;" x1="384.5" x2="384.5" y1="36.1" y2="377.4"/><line style="stroke:#181818;stroke-width:0.5;stroke-dasharray:5.0,5.0;" x1="729" x2="729" y1="36.1" y2="377.4"/><rect fill="#7D5393" height="30.1" rx="2.5" ry="2.5" style="stroke:#181818;stroke-width:0.5;" width="96" x="5" y="5"/><text fill="#FFFFFF" font-family="NanumGothic" font-size="14" lengthAdjust="spacing" textLength="82" x="12" y="24.88">Charge Point</text><rect fill="#7D5393" height="30.1" rx="2.5" ry="2.5" style="stroke:#181818;stroke-width:0.5;" width="113" x="328.5" y="5"/><text fill="#FFFFFF" font-family="NanumGothic" font-size="14" lengthAdjust="spacing" textLength="99" x="335.5" y="24.88">Local Controller</text><rect fill="#7D5393" height="30.1" rx="2.5" ry="2.5" style="stroke:#181818;stroke-width:0.5;" width="142" x="658" y="5"/><text fill="#FFFFFF" font-family="NanumGothic" font-size="14" lengthAdjust="spacing" textLength="128" x="665" y="24.88">CSO Central System</text><rect fill="#FFFFFF" height="78.85" style="stroke:#181818;stroke-width:1.0;" width="10" x="48" y="280.55"/><rect fill="#FFFFFF" height="93.8" style="stroke:#181818;stroke-width:1.0;" width="10" x="380" y="120.9"/><path d="M318.5,53.1 L515.5,53.1 L515.5,60.05 L505.5,70.05 L318.5,70.05 L318.5,53.1 " fill="#EEEEEE" style="stroke:#000000;stroke-width:1.5;"/><rect fill="none" height="169.6" style="stroke:#000000;stroke-width:1.5;" width="676.5" x="318.5" y="53.1"/><text fill="#000000" font-family="NanumGothic" font-size="13" font-weight="bold" lengthAdjust="spacing" textLength="152" x="333.5" y="66.06">opt Set local group limits</text><polygon fill="#181818" points="401,116.9,391,120.9,401,124.9,397,120.9" style="stroke:#181818;stroke-width:1.0;"/><line style="stroke:#181818;stroke-width:1.0;" x1="395" x2="728" y1="120.9" y2="120.9"/><text fill="#000000" font-family="NanumGothic" font-size="13" lengthAdjust="spacing" textLength="143" x="407" y="86.01">SetChargingProfile.req(</text><text fill="#000000" font-family="NanumGothic" font-size="13" font-weight="bold" lengthAdjust="spacing" textLength="88" x="554" y="86.01">connectorId: 0</text><text fill="#000000" font-family="NanumGothic" font-size="13" lengthAdjust="spacing" textLength="4" x="646" y="86.01">,</text><text fill="#000000" font-family="NanumGothic" font-size="13" font-weight="bold" lengthAdjust="spacing" textLength="292" x="407" y="100.96">chargingprofilePurpose: ChargepointMaxProfile</text><text fill="#000000" font-family="NanumGothic" font-size="13" lengthAdjust="spacing" textLength="4" x="703" y="100.96">,</text><text fill="#000000" font-family="NanumGothic" font-size="13" font-weight="bold" lengthAdjust="spacing" textLength="179" x="407" y="115.91">chargingProfileKind: absolute</text><text fill="#000000" font-family="NanumGothic" font-size="13" lengthAdjust="spacing" textLength="122" x="590" y="115.91">, validFrom, validTo)</text><path d="M734,133.9 L734,187.9 L985,187.9 L985,143.9 L975,133.9 L734,133.9 " fill="#7D5393" style="stroke:#000000;stroke-width:0.5;"/><path d="M975,133.9 L975,143.9 L985,143.9 L975,133.9 " fill="#7D5393" style="stroke:#000000;stroke-width:0.5;"/><text fill="#FFFFFF" font-family="NanumGothic" font-size="13" lengthAdjust="spacing" textLength="172" x="740" y="150.86">&#47196;&#52972; &#52964;&#45349;&#53552; &#44536;&#47353;&#50640; &#45824;&#54620; &#51228;&#54620;&#51008;</text><text fill="#FFFFFF" font-family="NanumGothic" font-size="13" lengthAdjust="spacing" textLength="196" x="740" y="165.81">&#47196;&#52972; &#52968;&#53944;&#47204;&#47084;&#50640;&#49436; &#49324;&#51204; &#49444;&#51221;&#54616;&#44144;&#45208;,</text><text fill="#FFFFFF" font-family="NanumGothic" font-size="13" lengthAdjust="spacing" textLength="230" x="740" y="180.76">CSO&#50640; &#51032;&#54644; &#46041;&#51201;&#51004;&#47196; &#49444;&#51221;&#54624; &#49688; &#51080;&#49845;&#45768;&#45796;.</text><polygon fill="#181818" points="717,210.7,727,214.7,717,218.7,721,214.7" style="stroke:#181818;stroke-width:1.0;"/><line style="stroke:#181818;stroke-width:1.0;" x1="385" x2="723" y1="214.7" y2="214.7"/><text fill="#000000" font-family="NanumGothic" font-size="13" lengthAdjust="spacing" textLength="211" x="392" y="209.71">SetChargingProfile.conf(Accepted)</text><polygon fill="#181818" points="69,276.55,59,280.55,69,284.55,65,280.55" style="stroke:#181818;stroke-width:1.0;"/><line style="stroke:#181818;stroke-width:1.0;" x1="63" x2="384" y1="280.55" y2="280.55"/><text fill="#000000" font-family="NanumGothic" font-size="13" lengthAdjust="spacing" textLength="143" x="75" y="245.66">SetChargingProfile.req(</text><text fill="#000000" font-family="NanumGothic" font-size="13" font-weight="bold" lengthAdjust="spacing" textLength="88" x="222" y="245.66">connectorId: 0</text><text fill="#000000" font-family="NanumGothic" font-size="13" lengthAdjust="spacing" textLength="4" x="314" y="245.66">,</text><text fill="#000000" font-family="NanumGothic" font-size="13" font-weight="bold" lengthAdjust="spacing" textLength="292" x="75" y="260.61">chargingprofilePurpose: ChargepointMaxProfile</text><text fill="#000000" font-family="NanumGothic" font-size="13" lengthAdjust="spacing" textLength="4" x="371" y="260.61">,</text><text fill="#000000" font-family="NanumGothic" font-size="13" font-weight="bold" lengthAdjust="spacing" textLength="179" x="75" y="275.56">chargingProfileKind: absolute</text><text fill="#000000" font-family="NanumGothic" font-size="13" lengthAdjust="spacing" textLength="122" x="258" y="275.56">, validFrom, validTo)</text><path d="M390,293.55 L390,332.55 L555,332.55 L555,303.55 L545,293.55 L390,293.55 " fill="#7D5393" style="stroke:#000000;stroke-width:0.5;"/><path d="M545,293.55 L545,303.55 L555,303.55 L545,293.55 " fill="#7D5393" style="stroke:#000000;stroke-width:0.5;"/><text fill="#FFFFFF" font-family="NanumGothic" font-size="13" lengthAdjust="spacing" textLength="140" x="396" y="310.51">&#47196;&#52972; &#52968;&#53944;&#47204;&#47084;&#45716; &#52649;&#51204;&#44592;&#50640;</text><text fill="#FFFFFF" font-family="NanumGothic" font-size="13" lengthAdjust="spacing" textLength="144" x="396" y="325.46">&#51204;&#47141;&#47049; &#51228;&#54620;&#51012; &#54624;&#45817;&#54633;&#45768;&#45796;.</text><polygon fill="#181818" points="373,355.4,383,359.4,373,363.4,377,359.4" style="stroke:#181818;stroke-width:1.0;"/><line style="stroke:#181818;stroke-width:1.0;" x1="53" x2="379" y1="359.4" y2="359.4"/><text fill="#000000" font-family="NanumGothic" font-size="13" lengthAdjust="spacing" textLength="211" x="60" y="354.41">SetChargingProfile.conf(Accepted)</text><!--SRC=[fLDDRzD04BtxLmmzjL6fEEU0X28X8K142aSkYxr9LzhiclMwehTI-H0I93WG4QIKkYALg9H3aFX8LNvHTlqV67-GnAaH0dpnUkQz6S-yjpUOS7deKGZq8QTxVjZbZkCJfPdBV28qR3NsYUfGQ4ecz1QG0F90zbr6Ff0kuT2GGYl9ELKPEWkkOXkrMu-WGJ67lDPXe6atxv27yeZZT9GCVP2-XXRLmBCkUOopBjE10sK6tBozsHRga3x8p_wUYKvJoJR3YHLzjWsrcYk5eAwMwfvNXrkr6kncX2S2KmN3pndDKFaoeFLY3twwXuVaUL6labdaxZE1nSdJGF9GvyW3mfbtLybkSNmiTnmSXxYQ7H1DhsqFG4WCAzRPro3R6vjA-vgpiRsQWhsQcEWyYMQm-3ut7o_jkpTWNXqbmp7OU8mlUt9KndzA-dDpDZ6dKyJQ2777Knj7OAE9ZOV9SBJuF3F7ezsCXSAb5Ut9A1b-0VFwlOrVsF4FBBR4ns1x8x0VUhR_rGnwPZ3PGoeLNZP2EkMcHYXRMSTwbM2eL7lxZkjINrDl1yjuzBVhmcwEKzLcPU7C6N_dYtyqnNyuOZdW-jqhE-6wKogKDVstOBzTeAoB-Gm5H1IUJNnkJbykVH41YcS6bydmufTkAzNMDrTvpVwis9fUw-Fy1000]--></g></svg>