<?xml version="1.0" encoding="us-ascii" standalone="no"?><svg xmlns="http://www.w3.org/2000/svg" xmlns:xlink="http://www.w3.org/1999/xlink" contentStyleType="text/css" height="1177px" preserveAspectRatio="none" style="width:680px;height:1177px;background:#FFFFFF;" version="1.1" viewBox="0 0 680 1177" width="680px" zoomAndPan="magnify"><defs/><g><rect fill="#FFFFFF" height="1042.25" style="stroke:#181818;stroke-width:1.0;" width="10" x="175.5" y="46.1"/><rect fill="#FFFFFF" height="798.8" style="stroke:#181818;stroke-width:1.0;" width="10" x="260" y="202.75"/><rect fill="#FFFFFF" height="395.4" style="stroke:#181818;stroke-width:1.0;" width="10" x="361.5" y="309.55"/><rect fill="#FFFFFF" height="119.9" style="stroke:#181818;stroke-width:1.0;" width="10" x="361.5" y="874.65"/><rect fill="#FFFFFF" height="53.95" style="stroke:#181818;stroke-width:1.0;" width="10" x="464.5" y="449.3"/><rect fill="#FFFFFF" height="53.95" style="stroke:#181818;stroke-width:1.0;" width="10" x="464.5" y="636"/><rect fill="#FFFFFF" height="53.95" style="stroke:#181818;stroke-width:1.0;" width="10" x="464.5" y="925.6"/><rect fill="none" height="1100.1" style="stroke:#000000;stroke-width:1.5;" width="664" x="10" y="53.1"/><rect fill="none" height="909.55" style="stroke:#000000;stroke-width:1.5;" width="564" x="100" y="171.8"/><rect fill="none" height="375.4" style="stroke:#000000;stroke-width:1.5;" width="406" x="248" y="329.55"/><rect fill="none" height="92.9" style="stroke:#000000;stroke-width:1.5;" width="331" x="309" y="418.35"/><rect fill="none" height="92.9" style="stroke:#000000;stroke-width:1.5;" width="331" x="309" y="605.05"/><rect fill="none" height="110.75" style="stroke:#000000;stroke-width:1.5;" width="306" x="211" y="718.95"/><rect fill="none" height="150.85" style="stroke:#000000;stroke-width:1.5;" width="439" x="211" y="843.7"/><rect fill="none" height="92.9" style="stroke:#000000;stroke-width:1.5;" width="331" x="309" y="894.65"/><line style="stroke:#181818;stroke-width:0.5;stroke-dasharray:5.0,5.0;" x1="180" x2="180" y1="36.1" y2="1170.2"/><line style="stroke:#181818;stroke-width:0.5;stroke-dasharray:5.0,5.0;" x1="265" x2="265" y1="36.1" y2="1170.2"/><line style="stroke:#181818;stroke-width:0.5;stroke-dasharray:5.0,5.0;" x1="366" x2="366" y1="36.1" y2="1170.2"/><line style="stroke:#181818;stroke-width:0.5;stroke-dasharray:5.0,5.0;" x1="469" x2="469" y1="36.1" y2="1170.2"/><rect fill="#7D5393" height="30.1" rx="2.5" ry="2.5" style="stroke:#181818;stroke-width:0.5;" width="61" x="150" y="5"/><text fill="#FFFFFF" font-family="NanumGothic" font-size="14" lengthAdjust="spacing" textLength="47" x="157" y="24.88">Session</text><rect fill="#7D5393" height="30.1" rx="2.5" ry="2.5" style="stroke:#181818;stroke-width:0.5;" width="88" x="221" y="5"/><text fill="#FFFFFF" font-family="NanumGothic" font-size="14" lengthAdjust="spacing" textLength="74" x="228" y="24.88">Transaction</text><rect fill="#7D5393" height="30.1" rx="2.5" ry="2.5" style="stroke:#181818;stroke-width:0.5;" width="95" x="319" y="5"/><text fill="#FFFFFF" font-family="NanumGothic" font-size="14" lengthAdjust="spacing" textLength="81" x="326" y="24.88">Energy Offer</text><rect fill="#7D5393" height="30.1" rx="2.5" ry="2.5" style="stroke:#181818;stroke-width:0.5;" width="91" x="424" y="5"/><text fill="#FFFFFF" font-family="NanumGothic" font-size="14" lengthAdjust="spacing" textLength="77" x="431" y="24.88">Energy Flow</text><rect fill="#FFFFFF" height="1042.25" style="stroke:#181818;stroke-width:1.0;" width="10" x="175.5" y="46.1"/><rect fill="#FFFFFF" height="798.8" style="stroke:#181818;stroke-width:1.0;" width="10" x="260" y="202.75"/><rect fill="#FFFFFF" height="395.4" style="stroke:#181818;stroke-width:1.0;" width="10" x="361.5" y="309.55"/><rect fill="#FFFFFF" height="119.9" style="stroke:#181818;stroke-width:1.0;" width="10" x="361.5" y="874.65"/><rect fill="#FFFFFF" height="53.95" style="stroke:#181818;stroke-width:1.0;" width="10" x="464.5" y="449.3"/><rect fill="#FFFFFF" height="53.95" style="stroke:#181818;stroke-width:1.0;" width="10" x="464.5" y="636"/><rect fill="#FFFFFF" height="53.95" style="stroke:#181818;stroke-width:1.0;" width="10" x="464.5" y="925.6"/><path d="M10,53.1 L160,53.1 L160,60.05 L150,70.05 L10,70.05 L10,53.1 " fill="#EEEEEE" style="stroke:#000000;stroke-width:1.5;"/><rect fill="none" height="1100.1" style="stroke:#000000;stroke-width:1.5;" width="664" x="10" y="53.1"/><text fill="#000000" font-family="NanumGothic" font-size="13" font-weight="bold" lengthAdjust="spacing" textLength="105" x="25" y="66.06">Charging Session</text><path d="M20,75.05 L20,159.05 L341,159.05 L341,85.05 L331,75.05 L20,75.05 " fill="#7D5393" style="stroke:#000000;stroke-width:0.5;"/><path d="M331,75.05 L331,85.05 L341,85.05 L331,75.05 " fill="#7D5393" style="stroke:#000000;stroke-width:0.5;"/><text fill="#FFFFFF" font-family="NanumGothic" font-size="13" lengthAdjust="spacing" textLength="300" x="26" y="92.01">Charging Session is started when first interaction</text><text fill="#FFFFFF" font-family="NanumGothic" font-size="13" lengthAdjust="spacing" textLength="224" x="26" y="106.96">with user or EV occurs. This can be a</text><text fill="#FFFFFF" font-family="NanumGothic" font-size="13" lengthAdjust="spacing" textLength="242" x="26" y="121.91">card swipe, remote start of transaction,</text><text fill="#FFFFFF" font-family="NanumGothic" font-size="13" lengthAdjust="spacing" textLength="188" x="26" y="136.86">connection of cable and/or EV,</text><text fill="#FFFFFF" font-family="NanumGothic" font-size="13" lengthAdjust="spacing" textLength="223" x="26" y="151.81">parking bay occupancy detector, etc.</text><path d="M100,171.8 L215,171.8 L215,178.75 L205,188.75 L100,188.75 L100,171.8 " fill="#EEEEEE" style="stroke:#000000;stroke-width:1.5;"/><rect fill="none" height="909.55" style="stroke:#000000;stroke-width:1.5;" width="564" x="100" y="171.8"/><text fill="#000000" font-family="NanumGothic" font-size="13" font-weight="bold" lengthAdjust="spacing" textLength="70" x="115" y="184.76">Transaction</text><path d="M127,220.75 L127,289.75 L403,289.75 L403,230.75 L393,220.75 L127,220.75 " fill="#7D5393" style="stroke:#000000;stroke-width:0.5;"/><path d="M393,220.75 L393,230.75 L403,230.75 L393,220.75 " fill="#7D5393" style="stroke:#000000;stroke-width:0.5;"/><text fill="#FFFFFF" font-family="NanumGothic" font-size="13" lengthAdjust="spacing" textLength="230" x="133" y="237.71">Transaction starts at the point that all</text><text fill="#FFFFFF" font-family="NanumGothic" font-size="13" lengthAdjust="spacing" textLength="219" x="133" y="252.66">conditions for charging are met, for</text><text fill="#FFFFFF" font-family="NanumGothic" font-size="13" lengthAdjust="spacing" textLength="255" x="133" y="267.61">instance, EV is connected to Charge Point</text><text fill="#FFFFFF" font-family="NanumGothic" font-size="13" lengthAdjust="spacing" textLength="185" x="133" y="282.56">and user has been authorized.</text><path d="M248,329.55 L405,329.55 L405,336.5 L395,346.5 L248,346.5 L248,329.55 " fill="#EEEEEE" style="stroke:#000000;stroke-width:1.5;"/><rect fill="none" height="375.4" style="stroke:#000000;stroke-width:1.5;" width="406" x="248" y="329.55"/><text fill="#000000" font-family="NanumGothic" font-size="13" font-weight="bold" lengthAdjust="spacing" textLength="112" x="263" y="342.51">EnergyOfferPeriod</text><path d="M258,351.5 L258,405.5 L475,405.5 L475,361.5 L465,351.5 L258,351.5 " fill="#7D5393" style="stroke:#000000;stroke-width:0.5;"/><path d="M465,351.5 L465,361.5 L475,361.5 L465,351.5 " fill="#7D5393" style="stroke:#000000;stroke-width:0.5;"/><text fill="#FFFFFF" font-family="NanumGothic" font-size="13" lengthAdjust="spacing" textLength="196" x="264" y="368.46">Energy Offer Period starts when</text><text fill="#FFFFFF" font-family="NanumGothic" font-size="13" lengthAdjust="spacing" textLength="191" x="264" y="383.41">the EVSE is ready and willing to</text><text fill="#FFFFFF" font-family="NanumGothic" font-size="13" lengthAdjust="spacing" textLength="88" x="264" y="398.36">supply energy.</text><path d="M309,418.35 L484,418.35 L484,425.3 L474,435.3 L309,435.3 L309,418.35 " fill="#EEEEEE" style="stroke:#000000;stroke-width:1.5;"/><rect fill="none" height="92.9" style="stroke:#000000;stroke-width:1.5;" width="331" x="309" y="418.35"/><text fill="#000000" font-family="NanumGothic" font-size="13" font-weight="bold" lengthAdjust="spacing" textLength="130" x="324" y="431.31">EnergyTransferPeriod</text><path d="M479,467.3 L479,491.3 L630,491.3 L630,477.3 L620,467.3 L479,467.3 " fill="#7D5393" style="stroke:#000000;stroke-width:0.5;"/><path d="M620,467.3 L620,477.3 L630,477.3 L620,467.3 " fill="#7D5393" style="stroke:#000000;stroke-width:0.5;"/><text fill="#FFFFFF" font-family="NanumGothic" font-size="13" lengthAdjust="spacing" textLength="130" x="485" y="484.26">Energy is transferred.</text><path d="M376,523.25 L376,592.25 L644,592.25 L644,533.25 L634,523.25 L376,523.25 " fill="#7D5393" style="stroke:#000000;stroke-width:0.5;"/><path d="M634,523.25 L634,533.25 L644,533.25 L634,523.25 " fill="#7D5393" style="stroke:#000000;stroke-width:0.5;"/><text fill="#FFFFFF" font-family="NanumGothic" font-size="13" lengthAdjust="spacing" textLength="241" x="382" y="540.21">During an EnergyOfferPeriod there may</text><text fill="#FFFFFF" font-family="NanumGothic" font-size="13" lengthAdjust="spacing" textLength="247" x="382" y="555.16">be periods the EV is not charging due to</text><text fill="#FFFFFF" font-family="NanumGothic" font-size="13" lengthAdjust="spacing" textLength="223" x="382" y="570.11">for instance, warm/full battery or EV</text><text fill="#FFFFFF" font-family="NanumGothic" font-size="13" lengthAdjust="spacing" textLength="146" x="382" y="585.06">internal smart charging.</text><path d="M309,605.05 L484,605.05 L484,612 L474,622 L309,622 L309,605.05 " fill="#EEEEEE" style="stroke:#000000;stroke-width:1.5;"/><rect fill="none" height="92.9" style="stroke:#000000;stroke-width:1.5;" width="331" x="309" y="605.05"/><text fill="#000000" font-family="NanumGothic" font-size="13" font-weight="bold" lengthAdjust="spacing" textLength="130" x="324" y="618.01">EnergyTransferPeriod</text><path d="M479,654 L479,678 L630,678 L630,664 L620,654 L479,654 " fill="#7D5393" style="stroke:#000000;stroke-width:0.5;"/><path d="M620,654 L620,664 L630,664 L620,654 " fill="#7D5393" style="stroke:#000000;stroke-width:0.5;"/><text fill="#FFFFFF" font-family="NanumGothic" font-size="13" lengthAdjust="spacing" textLength="130" x="485" y="670.96">Energy is transferred.</text><path d="M211,718.95 L420,718.95 L420,725.9 L410,735.9 L211,735.9 L211,718.95 " fill="#EEEEEE" style="stroke:#000000;stroke-width:1.5;"/><rect fill="none" height="110.75" style="stroke:#000000;stroke-width:1.5;" width="306" x="211" y="718.95"/><text fill="#000000" font-family="NanumGothic" font-size="13" font-weight="bold" lengthAdjust="spacing" textLength="164" x="226" y="731.91">EnergyOfferSuspendPeriod</text><path d="M225,754.9 L225,823.9 L507,823.9 L507,764.9 L497,754.9 L225,754.9 " fill="#7D5393" style="stroke:#000000;stroke-width:0.5;"/><path d="M497,754.9 L497,764.9 L507,764.9 L497,754.9 " fill="#7D5393" style="stroke:#000000;stroke-width:0.5;"/><text fill="#FFFFFF" font-family="NanumGothic" font-size="13" lengthAdjust="spacing" textLength="261" x="231" y="771.86">During a transaction, there may be periods</text><text fill="#FFFFFF" font-family="NanumGothic" font-size="13" lengthAdjust="spacing" textLength="259" x="231" y="786.81">the EnergyOffer to EV is suspended by the</text><text fill="#FFFFFF" font-family="NanumGothic" font-size="13" lengthAdjust="spacing" textLength="254" x="231" y="801.76">EVSE, for instance due to Smart Charging</text><text fill="#FFFFFF" font-family="NanumGothic" font-size="13" lengthAdjust="spacing" textLength="110" x="231" y="816.71">or local balancing.</text><path d="M211,843.7 L368,843.7 L368,850.65 L358,860.65 L211,860.65 L211,843.7 " fill="#EEEEEE" style="stroke:#000000;stroke-width:1.5;"/><rect fill="none" height="150.85" style="stroke:#000000;stroke-width:1.5;" width="439" x="211" y="843.7"/><text fill="#000000" font-family="NanumGothic" font-size="13" font-weight="bold" lengthAdjust="spacing" textLength="112" x="226" y="856.66">EnergyOfferPeriod</text><path d="M309,894.65 L484,894.65 L484,901.6 L474,911.6 L309,911.6 L309,894.65 " fill="#EEEEEE" style="stroke:#000000;stroke-width:1.5;"/><rect fill="none" height="92.9" style="stroke:#000000;stroke-width:1.5;" width="331" x="309" y="894.65"/><text fill="#000000" font-family="NanumGothic" font-size="13" font-weight="bold" lengthAdjust="spacing" textLength="130" x="324" y="907.61">EnergyTransferPeriod</text><path d="M479,943.6 L479,967.6 L630,967.6 L630,953.6 L620,943.6 L479,943.6 " fill="#7D5393" style="stroke:#000000;stroke-width:0.5;"/><path d="M620,943.6 L620,953.6 L630,953.6 L620,943.6 " fill="#7D5393" style="stroke:#000000;stroke-width:0.5;"/><text fill="#FFFFFF" font-family="NanumGothic" font-size="13" lengthAdjust="spacing" textLength="130" x="485" y="960.56">Energy is transferred.</text><path d="M110,1006.55 L110,1075.55 L420,1075.55 L420,1016.55 L410,1006.55 L110,1006.55 " fill="#7D5393" style="stroke:#000000;stroke-width:0.5;"/><path d="M410,1006.55 L410,1016.55 L420,1016.55 L410,1006.55 " fill="#7D5393" style="stroke:#000000;stroke-width:0.5;"/><text fill="#FFFFFF" font-family="NanumGothic" font-size="13" lengthAdjust="spacing" textLength="289" x="116" y="1023.51">Transaction ends at the point where one of the</text><text fill="#FFFFFF" font-family="NanumGothic" font-size="13" lengthAdjust="spacing" textLength="288" x="116" y="1038.46">preconditions for charging irrevocably becomes</text><text fill="#FFFFFF" font-family="NanumGothic" font-size="13" lengthAdjust="spacing" textLength="280" x="116" y="1053.41">false, for instance when a user swipes to stop</text><text fill="#FFFFFF" font-family="NanumGothic" font-size="13" lengthAdjust="spacing" textLength="260" x="116" y="1068.36">the transaction and the stop is authorized.</text><path d="M43,1093.35 L43,1147.35 L317,1147.35 L317,1103.35 L307,1093.35 L43,1093.35 " fill="#7D5393" style="stroke:#000000;stroke-width:0.5;"/><path d="M307,1093.35 L307,1103.35 L317,1103.35 L307,1093.35 " fill="#7D5393" style="stroke:#000000;stroke-width:0.5;"/><text fill="#FFFFFF" font-family="NanumGothic" font-size="13" lengthAdjust="spacing" textLength="253" x="49" y="1110.31">Session ends at the point that the station</text><text fill="#FFFFFF" font-family="NanumGothic" font-size="13" lengthAdjust="spacing" textLength="219" x="49" y="1125.26">is available again. No cable plugged,</text><text fill="#FFFFFF" font-family="NanumGothic" font-size="13" lengthAdjust="spacing" textLength="103" x="49" y="1140.21">parking bay free.</text><!--SRC=[vLPDaziW3BtdLwXxpcR_GIzjUcnt9ZjxwVH0Z6mp9U01d8pxwok1Fx2TPDDpVJBm4DBJG-YJCeLk9O8FdSPTqvxqPjC85rIX6c42F1tGUsND4mWF_VySyEQ4yQ880oWRpu5xWwxgu4TPeel8D177Lv7VjBraG1vkDcpvB0AEpcmgPzi6ljJ2LSfKqpo0iOIpPtJZ9D2tH8Bo53wTZn8kDHeebVC1b0de-ZXusqM56bfFngo3_JlOecYTty5RJViBOU2882Ao44w2lwW6j-3mn4v4-s1B21CxsmIsnc0Syt8XZfhC6FaI3qaGukOt-tiKNJoLI2ewa1XedtLRm53i28X6neWvyiH9dWesb8tX-MUjf4Jpw_dp2ZTol5oO25skp8t7S3s80A56Q2nnINyq55htS8fRAWPxA2dMOaYAS0Wd35kUxQ7Aa3rJ49j4EvETAADq1PkoYV3AP_HueYybgYRj794oAjfGMwV-eDn5J4uLv3gSqPBhSqRBSY6ndSs-ebDMzkvCf2ttJOUdMm5ftq0VYt74CP7xzyEU2N0eP1V3l2YjcRLWHw1lcqPt52BRtVNJyu1pVsFQbYvF5-uA8V4UzapF6SbMOj1ELNLK_MfvZ9kY2Rq7RiXEvku3xkHqIhpb4LdStF8hj_2rTL65PfrEJW6BKtGzbYvy4rTydnsEXWwOn2nRd5B3Cf-aV17kz5AsMjEr3bHfkbHMHidJb14Q_8aBns1meTx_F9ShnB2T0TSlvg7r3QtE2BfL5TSktR_9WtHcDNuIJIQN-QNEgW_LiwGYd_oa4dVi63LHJILWEvDIBp8uHAKCZzkuWP3Q5e9bfWa-YcYHcDkKFSJL-ZcuMImVaEpZehqdsmU4-u5qL-Bz1_dU4_0auJiYlghpdET_Uf79rk8zlaHXMeEnBHabrZYyzJGhukPikKLXCHVsX8EIIw4zBcGPMocH7kBO37bMgG-ssKpYpwvAVCzuZY6Sa9kFzi1Cnik7JT_GwwrvY7r9EbUCvF7nPw5qQiSgeSmEljk-FMjqMrKeryrPwH1ddHZx-HS0]--></g></svg>