<?xml version="1.0" encoding="us-ascii" standalone="no"?><svg xmlns="http://www.w3.org/2000/svg" xmlns:xlink="http://www.w3.org/1999/xlink" contentStyleType="text/css" height="399px" preserveAspectRatio="none" style="width:725px;height:399px;background:#FFFFFF;" version="1.1" viewBox="0 0 725 399" width="725px" zoomAndPan="magnify"><defs/><g><rect fill="#FFFFFF" height="28.95" style="stroke:#181818;stroke-width:1.0;" width="10" x="55" y="67.05"/><rect fill="#FFFFFF" height="28.95" style="stroke:#181818;stroke-width:1.0;" width="10" x="55" y="159.9"/><rect fill="#FFFFFF" height="28.95" style="stroke:#181818;stroke-width:1.0;" width="10" x="55" y="252.75"/><rect fill="#FFFFFF" height="28.95" style="stroke:#181818;stroke-width:1.0;" width="10" x="55" y="345.6"/><rect fill="#FFFFFF" height="28.95" style="stroke:#181818;stroke-width:1.0;" width="10" x="659" y="67.05"/><rect fill="#FFFFFF" height="28.95" style="stroke:#181818;stroke-width:1.0;" width="10" x="659" y="159.9"/><rect fill="#FFFFFF" height="28.95" style="stroke:#181818;stroke-width:1.0;" width="10" x="659" y="252.75"/><rect fill="#FFFFFF" height="28.95" style="stroke:#181818;stroke-width:1.0;" width="10" x="659" y="345.6"/><line style="stroke:#181818;stroke-width:0.5;stroke-dasharray:5.0,5.0;" x1="60" x2="60" y1="36.1" y2="392.55"/><line style="stroke:#181818;stroke-width:0.5;stroke-dasharray:5.0,5.0;" x1="664" x2="664" y1="36.1" y2="392.55"/><rect fill="#7D5393" height="30.1" rx="2.5" ry="2.5" style="stroke:#181818;stroke-width:0.5;" width="96" x="12" y="5"/><text fill="#FFFFFF" font-family="NanumGothic" font-size="14" lengthAdjust="spacing" textLength="82" x="19" y="24.88">Charge Point</text><rect fill="#7D5393" height="30.1" rx="2.5" ry="2.5" style="stroke:#181818;stroke-width:0.5;" width="110" x="609" y="5"/><text fill="#FFFFFF" font-family="NanumGothic" font-size="14" lengthAdjust="spacing" textLength="96" x="616" y="24.88">Central System</text><rect fill="#FFFFFF" height="28.95" style="stroke:#181818;stroke-width:1.0;" width="10" x="55" y="67.05"/><rect fill="#FFFFFF" height="28.95" style="stroke:#181818;stroke-width:1.0;" width="10" x="55" y="159.9"/><rect fill="#FFFFFF" height="28.95" style="stroke:#181818;stroke-width:1.0;" width="10" x="55" y="252.75"/><rect fill="#FFFFFF" height="28.95" style="stroke:#181818;stroke-width:1.0;" width="10" x="55" y="345.6"/><rect fill="#FFFFFF" height="28.95" style="stroke:#181818;stroke-width:1.0;" width="10" x="659" y="67.05"/><rect fill="#FFFFFF" height="28.95" style="stroke:#181818;stroke-width:1.0;" width="10" x="659" y="159.9"/><rect fill="#FFFFFF" height="28.95" style="stroke:#181818;stroke-width:1.0;" width="10" x="659" y="252.75"/><rect fill="#FFFFFF" height="28.95" style="stroke:#181818;stroke-width:1.0;" width="10" x="659" y="345.6"/><polygon fill="#181818" points="647,63.05,657,67.05,647,71.05,651,67.05" style="stroke:#181818;stroke-width:1.0;"/><line style="stroke:#181818;stroke-width:1.0;" x1="65" x2="653" y1="67.05" y2="67.05"/><text fill="#000000" font-family="NanumGothic" font-size="13" lengthAdjust="spacing" textLength="126" x="72" y="62.06">Authorize.req(idTag)</text><polygon fill="#181818" points="71,92,61,96,71,100,67,96" style="stroke:#181818;stroke-width:1.0;"/><line style="stroke:#181818;stroke-width:1.0;stroke-dasharray:2.0,2.0;" x1="65" x2="663" y1="96" y2="96"/><text fill="#000000" font-family="NanumGothic" font-size="13" lengthAdjust="spacing" textLength="157" x="77" y="91.01">Authorize.conf(idTagInfo)</text><path d="M5,109 L5,133 L115,133 L115,119 L105,109 L5,109 " fill="#7D5393" style="stroke:#000000;stroke-width:0.5;"/><path d="M105,109 L105,119 L115,119 L105,109 " fill="#7D5393" style="stroke:#000000;stroke-width:0.5;"/><text fill="#FFFFFF" font-family="NanumGothic" font-size="13" lengthAdjust="spacing" textLength="89" x="11" y="125.96">Start Charging</text><polygon fill="#181818" points="647,155.9,657,159.9,647,163.9,651,159.9" style="stroke:#181818;stroke-width:1.0;"/><line style="stroke:#181818;stroke-width:1.0;" x1="65" x2="653" y1="159.9" y2="159.9"/><text fill="#000000" font-family="NanumGothic" font-size="13" lengthAdjust="spacing" textLength="488" x="72" y="154.91">StartTransaction.req(connectorId, idTag, meterStart, timestamp, [reservationId])</text><polygon fill="#181818" points="71,184.85,61,188.85,71,192.85,67,188.85" style="stroke:#181818;stroke-width:1.0;"/><line style="stroke:#181818;stroke-width:1.0;stroke-dasharray:2.0,2.0;" x1="65" x2="663" y1="188.85" y2="188.85"/><text fill="#000000" font-family="NanumGothic" font-size="13" lengthAdjust="spacing" textLength="284" x="77" y="183.86">StartTransaction.conf(idTagInfo, transactionId)</text><path d="M15,201.85 L15,225.85 L104,225.85 L104,211.85 L94,201.85 L15,201.85 " fill="#7D5393" style="stroke:#000000;stroke-width:0.5;"/><path d="M94,201.85 L94,211.85 L104,211.85 L94,201.85 " fill="#7D5393" style="stroke:#000000;stroke-width:0.5;"/><text fill="#FFFFFF" font-family="NanumGothic" font-size="13" lengthAdjust="spacing" textLength="68" x="21" y="218.81">Charging...</text><polygon fill="#181818" points="647,248.75,657,252.75,647,256.75,651,252.75" style="stroke:#181818;stroke-width:1.0;"/><line style="stroke:#181818;stroke-width:1.0;" x1="65" x2="653" y1="252.75" y2="252.75"/><text fill="#000000" font-family="NanumGothic" font-size="13" lengthAdjust="spacing" textLength="126" x="72" y="247.76">Authorize.req(idTag)</text><polygon fill="#181818" points="71,277.7,61,281.7,71,285.7,67,281.7" style="stroke:#181818;stroke-width:1.0;"/><line style="stroke:#181818;stroke-width:1.0;stroke-dasharray:2.0,2.0;" x1="65" x2="663" y1="281.7" y2="281.7"/><text fill="#000000" font-family="NanumGothic" font-size="13" lengthAdjust="spacing" textLength="157" x="77" y="276.71">Authorize.conf(idTagInfo)</text><path d="M5,294.7 L5,318.7 L114,318.7 L114,304.7 L104,294.7 L5,294.7 " fill="#7D5393" style="stroke:#000000;stroke-width:0.5;"/><path d="M104,294.7 L104,304.7 L114,304.7 L104,294.7 " fill="#7D5393" style="stroke:#000000;stroke-width:0.5;"/><text fill="#FFFFFF" font-family="NanumGothic" font-size="13" lengthAdjust="spacing" textLength="88" x="11" y="311.66">Stop Charging</text><polygon fill="#181818" points="647,341.6,657,345.6,647,349.6,651,345.6" style="stroke:#181818;stroke-width:1.0;"/><line style="stroke:#181818;stroke-width:1.0;" x1="65" x2="653" y1="345.6" y2="345.6"/><text fill="#000000" font-family="NanumGothic" font-size="13" lengthAdjust="spacing" textLength="580" x="72" y="340.61">StopTransaction.req(meterStop, timestamp, transactionId, [reason], [idTag], [transactionData])</text><polygon fill="#181818" points="71,370.55,61,374.55,71,378.55,67,374.55" style="stroke:#181818;stroke-width:1.0;"/><line style="stroke:#181818;stroke-width:1.0;stroke-dasharray:2.0,2.0;" x1="65" x2="663" y1="374.55" y2="374.55"/><text fill="#000000" font-family="NanumGothic" font-size="13" lengthAdjust="spacing" textLength="196" x="77" y="369.56">StopTransaction.conf(idTagInfo)</text><!--SRC=[lL91JiCm4Bpx5KjFL4hp00v822wvLMflg8TLl4qj9UjWRogLr-CueCGbQeKAtEpnR6PsCdU6oxhJ15vEDULjrzHAjUZ4bAP55bWy7z1L16jhM1Q07WOWti-OnEAmXit92pK3Tu06HAd9AAmUqzS7UEhaO9rvfzpHsxtHMwoM2ainHnHAP4Sm-NvoWrMlC16S2fIMzuD2mNkxL9fcTQPmkWdRWDaZkOI_aP37W1Yk5B66ddXvyM0ipcqTik_rBCS0WaUcKgmhT0RHQmOD2Rd8pa1CGrwmQJDuTUJ91PzXjj2xdwLs5jjCRj_ifV45A-DReNyjpQySypmVexoIvCqTkfx6FxJ8jZCbkhnvFtJUeC-ss3OfI_ApOdVGMzw5KrobFqmeBoZu1uLApTuOv0S0]--></g></svg>