<?xml version="1.0" encoding="us-ascii" standalone="no"?><svg xmlns="http://www.w3.org/2000/svg" xmlns:xlink="http://www.w3.org/1999/xlink" contentStyleType="text/css" height="287px" preserveAspectRatio="none" style="width:820px;height:287px;background:#FFFFFF;" version="1.1" viewBox="0 0 820 287" width="820px" zoomAndPan="magnify"><defs/><g><!--entity CentralSystem--><g id="elem_CentralSystem"><polygon fill="#7D5393" points="84,121.05,94,111.05,220,111.05,220,147.15,210,157.15,84,157.15,84,121.05" style="stroke:#181818;stroke-width:1.5;"/><line style="stroke:#181818;stroke-width:1.5;" x1="210" x2="220" y1="121.05" y2="111.05"/><line style="stroke:#181818;stroke-width:1.5;" x1="84" x2="210" y1="121.05" y2="121.05"/><line style="stroke:#181818;stroke-width:1.5;" x1="210" x2="210" y1="121.05" y2="157.15"/><text fill="#FFFFFF" font-family="NanumGothic" font-size="14" lengthAdjust="spacing" textLength="96" x="99" y="143.93">Central System</text></g><!--entity CP10--><g id="elem_CP10"><polygon fill="#7D5393" points="475,16,485,6,597,6,597,58.2,587,68.2,475,68.2,475,16" style="stroke:#181818;stroke-width:1.5;"/><line style="stroke:#181818;stroke-width:1.5;" x1="587" x2="597" y1="16" y2="6"/><line style="stroke:#181818;stroke-width:1.5;" x1="475" x2="587" y1="16" y2="16"/><line style="stroke:#181818;stroke-width:1.5;" x1="587" x2="587" y1="16" y2="68.2"/><text fill="#FFFFFF" font-family="NanumGothic" font-size="14" lengthAdjust="spacing" textLength="82" x="490" y="38.88">Charge Point</text><text fill="#FFFFFF" font-family="NanumGothic" font-size="14" lengthAdjust="spacing" textLength="33" x="490" y="54.98">CP10</text></g><!--entity CP11--><g id="elem_CP11"><polygon fill="#7D5393" points="475,113,485,103,597,103,597,155.2,587,165.2,475,165.2,475,113" style="stroke:#181818;stroke-width:1.5;"/><line style="stroke:#181818;stroke-width:1.5;" x1="587" x2="597" y1="113" y2="103"/><line style="stroke:#181818;stroke-width:1.5;" x1="475" x2="587" y1="113" y2="113"/><line style="stroke:#181818;stroke-width:1.5;" x1="587" x2="587" y1="113" y2="165.2"/><text fill="#FFFFFF" font-family="NanumGothic" font-size="14" lengthAdjust="spacing" textLength="82" x="490" y="135.88">Charge Point</text><text fill="#FFFFFF" font-family="NanumGothic" font-size="14" lengthAdjust="spacing" textLength="33" x="490" y="151.98">CP11</text></g><!--entity CP12--><g id="elem_CP12"><polygon fill="#7D5393" points="475,218,485,208,597,208,597,260.2,587,270.2,475,270.2,475,218" style="stroke:#181818;stroke-width:1.5;"/><line style="stroke:#181818;stroke-width:1.5;" x1="587" x2="597" y1="218" y2="208"/><line style="stroke:#181818;stroke-width:1.5;" x1="475" x2="587" y1="218" y2="218"/><line style="stroke:#181818;stroke-width:1.5;" x1="587" x2="587" y1="218" y2="270.2"/><text fill="#FFFFFF" font-family="NanumGothic" font-size="14" lengthAdjust="spacing" textLength="82" x="490" y="240.88">Charge Point</text><text fill="#FFFFFF" font-family="NanumGothic" font-size="14" lengthAdjust="spacing" textLength="33" x="490" y="256.98">CP12</text></g><!--entity EV1--><g id="elem_EV1"><ellipse cx="800.5" cy="100.55" fill="#F1F1F1" rx="8" ry="8" style="stroke:#7D5393;stroke-width:1.5;"/><path d="M800.5,108.55 L800.5,135.55 M787.5,116.55 L813.5,116.55 M800.5,135.55 L787.5,150.55 M800.5,135.55 L813.5,150.55 " fill="none" style="stroke:#7D5393;stroke-width:1.5;"/><text fill="#000000" font-family="NanumGothic" font-size="14" lengthAdjust="spacing" textLength="25" x="788" y="165.93">EV1</text></g><!--entity EV2--><g id="elem_EV2"><ellipse cx="800.5" cy="213.55" fill="#F1F1F1" rx="8" ry="8" style="stroke:#7D5393;stroke-width:1.5;"/><path d="M800.5,221.55 L800.5,248.55 M787.5,229.55 L813.5,229.55 M800.5,248.55 L787.5,263.55 M800.5,248.55 L813.5,263.55 " fill="none" style="stroke:#7D5393;stroke-width:1.5;"/><text fill="#000000" font-family="NanumGothic" font-size="14" lengthAdjust="spacing" textLength="25" x="788" y="278.93">EV2</text></g><g id="elem_GMN8"><path d="M6,36.15 L6,76.05 A0,0 0 0 0 6,76.05 L148,76.05 L152,110.64 L156,76.05 L298,76.05 A0,0 0 0 0 298,76.05 L298,46.15 L288,36.15 L6,36.15 A0,0 0 0 0 6,36.15 " fill="#7D5393" style="stroke:#000000;stroke-width:0.5;"/><path d="M288,36.15 L288,46.15 L298,46.15 L288,36.15 " fill="#7D5393" style="stroke:#000000;stroke-width:0.5;"/><text fill="#FFFFFF" font-family="NanumGothic" font-size="13" lengthAdjust="spacing" textLength="271" x="12" y="53.11">Central System&#51008; DSO(&#48176;&#51204;&#44228;&#53685; &#50868;&#50689;&#51088;)&#50752; &#44057;&#51008;</text><text fill="#FFFFFF" font-family="NanumGothic" font-size="13" lengthAdjust="spacing" textLength="224" x="12" y="68.06">&#50808;&#48512;&#47196;&#48512;&#53552; &#51204;&#47141; &#49688;&#50836; &#50696;&#52769;&#47049;&#51012; &#48155;&#49845;&#45768;&#45796;.</text></g><!--link CentralSystem to CP10--><g id="link_CentralSystem_CP10"><path d="M220.41,116.98 C292.38,98.71 405.37,70.02 474.55,52.45 " fill="none" id="CentralSystem-CP10" style="stroke:#181818;stroke-width:1.0;"/></g><!--link CentralSystem to CP11--><g id="link_CentralSystem_CP11"><path d="M220.41,134.1 C292.38,134.1 399.37,134.1 468.55,134.1 " fill="none" id="CentralSystem-to-CP11" style="stroke:#181818;stroke-width:1.0;"/><polygon fill="#181818" points="474.55,134.1,465.55,130.1,469.55,134.1,465.55,138.1,474.55,134.1" style="stroke:#181818;stroke-width:1.0;"/><text fill="#000000" font-family="NanumGothic" font-size="13" lengthAdjust="spacing" textLength="115" x="329" y="131.06">OCPP &#52264;&#51669; &#54532;&#47196;&#54028;&#51068;</text></g><!--link CentralSystem to CP12--><g id="link_CentralSystem_CP12"><path d="M220.41,152.63 C292.38,172.41 399.5845,201.8802 468.7645,220.8902 " fill="none" id="CentralSystem-to-CP12" style="stroke:#181818;stroke-width:1.0;"/><polygon fill="#181818" points="474.55,222.48,466.9316,216.2383,469.7287,221.1552,464.8118,223.9523,474.55,222.48" style="stroke:#181818;stroke-width:1.0;"/><text fill="#000000" font-family="NanumGothic" font-size="13" lengthAdjust="spacing" textLength="115" x="329" y="180.41">OCPP &#52264;&#51669; &#54532;&#47196;&#54028;&#51068;</text></g><!--link CP11 to EV1--><g id="link_CP11_EV1"><path d="M597.22,133.18 C659.28,132.24 745.6607,130.9208 780.0007,130.4008 " fill="none" id="CP11-to-EV1" style="stroke:#181818;stroke-width:1.0;stroke-dasharray:1.0,3.0;"/><polygon fill="#181818" points="786,130.31,776.9405,126.4467,781.0006,130.3857,777.0616,134.4458,786,130.31" style="stroke:#181818;stroke-width:1.0;"/><text fill="#000000" font-family="NanumGothic" font-size="13" lengthAdjust="spacing" textLength="45" x="667" y="112.73">CP &#49888;&#54840;</text><text fill="#000000" font-family="NanumGothic" font-size="13" lengthAdjust="spacing" textLength="127" x="628" y="127.68">(Control Pilot Signal)</text></g><!--link CP12 to EV2--><g id="link_CP12_EV2"><path d="M597.22,240.02 C659.28,240.96 745.6607,242.2792 780.0007,242.7992 " fill="none" id="CP12-to-EV2" style="stroke:#181818;stroke-width:1.0;stroke-dasharray:1.0,3.0;"/><polygon fill="#181818" points="786,242.89,777.0616,238.7542,781.0006,242.8143,776.9405,246.7533,786,242.89" style="stroke:#181818;stroke-width:1.0;"/><text fill="#000000" font-family="NanumGothic" font-size="13" lengthAdjust="spacing" textLength="45" x="667" y="222.47">CP &#49888;&#54840;</text><text fill="#000000" font-family="NanumGothic" font-size="13" lengthAdjust="spacing" textLength="127" x="628" y="237.42">(Control Pilot Signal)</text></g><!--SRC=[ZP0nJy905CVt-nHF9XWWqj71fJhJXCH536dQernolIFbY673f34e30wO51I5HADZ4yKm-8dezJjujA11nRZSNTxzVY__ztO8isZBnc1njy4PPg9g4zFnJBVQ56sA2usMIn6Yk2P0SF28KnTW4mzRWd264EFApUZAyqmAvNPJO3S3PXDMfRJooTLDpy5WSC94XUb6SJTbrMCRKLmJnMs4jYOqX4nBS0yoXqUffkwlahOgQSiq0gjn6i1htu82RCuYnnquA9UoKHZAYRzuyUFp6SZHgmpEvDrLJWuxi0Y7YbAc7CwZjquqlLLdx8UWX6Zo2B8RoD40PD2LysbqVo77FaJXZRoSHRrkr7ie8CniM4P2Q2CCv6r-olBfUdxxsK_s0djGqWq3PFWidwuX7lWgGjplo_7xTalxoq99suG-jhaGs3vHbbgcadIbz2PnC8SAo-fSjUSK34AvW39nc4bpA6d_qzR-Pty0]--></g></svg>