<?xml version="1.0" encoding="us-ascii" standalone="no"?><svg xmlns="http://www.w3.org/2000/svg" xmlns:xlink="http://www.w3.org/1999/xlink" contentStyleType="text/css" height="414px" preserveAspectRatio="none" style="width:909px;height:414px;background:#FFFFFF;" version="1.1" viewBox="0 0 909 414" width="909px" zoomAndPan="magnify"><defs/><g><rect fill="#FFFFFF" height="78.85" style="stroke:#181818;stroke-width:1.0;" width="10" x="48" y="310.45"/><rect fill="#FFFFFF" height="123.7" style="stroke:#181818;stroke-width:1.0;" width="10" x="380" y="120.9"/><rect fill="none" height="199.5" style="stroke:#000000;stroke-width:1.5;" width="584.5" x="318.5" y="53.1"/><line style="stroke:#181818;stroke-width:0.5;stroke-dasharray:5.0,5.0;" x1="53" x2="53" y1="36.1" y2="407.3"/><line style="stroke:#181818;stroke-width:0.5;stroke-dasharray:5.0,5.0;" x1="384.5" x2="384.5" y1="36.1" y2="407.3"/><line style="stroke:#181818;stroke-width:0.5;stroke-dasharray:5.0,5.0;" x1="729" x2="729" y1="36.1" y2="407.3"/><rect fill="#7D5393" height="30.1" rx="2.5" ry="2.5" style="stroke:#181818;stroke-width:0.5;" width="96" x="5" y="5"/><text fill="#FFFFFF" font-family="NanumGothic" font-size="14" lengthAdjust="spacing" textLength="82" x="12" y="24.88">Charge Point</text><rect fill="#7D5393" height="30.1" rx="2.5" ry="2.5" style="stroke:#181818;stroke-width:0.5;" width="113" x="328.5" y="5"/><text fill="#FFFFFF" font-family="NanumGothic" font-size="14" lengthAdjust="spacing" textLength="99" x="335.5" y="24.88">Local Controller</text><rect fill="#7D5393" height="30.1" rx="2.5" ry="2.5" style="stroke:#181818;stroke-width:0.5;" width="142" x="658" y="5"/><text fill="#FFFFFF" font-family="NanumGothic" font-size="14" lengthAdjust="spacing" textLength="128" x="665" y="24.88">CSO Central System</text><rect fill="#FFFFFF" height="78.85" style="stroke:#181818;stroke-width:1.0;" width="10" x="48" y="310.45"/><rect fill="#FFFFFF" height="123.7" style="stroke:#181818;stroke-width:1.0;" width="10" x="380" y="120.9"/><path d="M318.5,53.1 L515.5,53.1 L515.5,60.05 L505.5,70.05 L318.5,70.05 L318.5,53.1 " fill="#EEEEEE" style="stroke:#000000;stroke-width:1.5;"/><rect fill="none" height="199.5" style="stroke:#000000;stroke-width:1.5;" width="584.5" x="318.5" y="53.1"/><text fill="#000000" font-family="NanumGothic" font-size="13" font-weight="bold" lengthAdjust="spacing" textLength="152" x="333.5" y="66.06">opt Set local group limits</text><polygon fill="#181818" points="401,116.9,391,120.9,401,124.9,397,120.9" style="stroke:#181818;stroke-width:1.0;"/><line style="stroke:#181818;stroke-width:1.0;" x1="395" x2="728" y1="120.9" y2="120.9"/><text fill="#000000" font-family="NanumGothic" font-size="13" lengthAdjust="spacing" textLength="143" x="407" y="86.01">SetChargingProfile.req(</text><text fill="#000000" font-family="NanumGothic" font-size="13" font-weight="bold" lengthAdjust="spacing" textLength="88" x="554" y="86.01">connectorId: 0</text><text fill="#000000" font-family="NanumGothic" font-size="13" lengthAdjust="spacing" textLength="4" x="646" y="86.01">,</text><text fill="#000000" font-family="NanumGothic" font-size="13" font-weight="bold" lengthAdjust="spacing" textLength="292" x="407" y="100.96">chargingprofilePurpose: ChargepointMaxProfile</text><text fill="#000000" font-family="NanumGothic" font-size="13" lengthAdjust="spacing" textLength="4" x="703" y="100.96">,</text><text fill="#000000" font-family="NanumGothic" font-size="13" font-weight="bold" lengthAdjust="spacing" textLength="179" x="407" y="115.91">chargingProfileKind: absolute</text><text fill="#000000" font-family="NanumGothic" font-size="13" lengthAdjust="spacing" textLength="122" x="590" y="115.91">, validFrom, validTo)</text><path d="M734,133.9 L734,217.9 L893,217.9 L893,143.9 L883,133.9 L734,133.9 " fill="#7D5393" style="stroke:#000000;stroke-width:0.5;"/><path d="M883,133.9 L883,143.9 L893,143.9 L883,133.9 " fill="#7D5393" style="stroke:#000000;stroke-width:0.5;"/><text fill="#FFFFFF" font-family="NanumGothic" font-size="13" lengthAdjust="spacing" textLength="88" x="740" y="150.86">Limits for local</text><text fill="#FFFFFF" font-family="NanumGothic" font-size="13" lengthAdjust="spacing" textLength="138" x="740" y="165.81">controller's group may</text><text fill="#FFFFFF" font-family="NanumGothic" font-size="13" lengthAdjust="spacing" textLength="120" x="740" y="180.76">be preconfigured in</text><text fill="#FFFFFF" font-family="NanumGothic" font-size="13" lengthAdjust="spacing" textLength="97" x="740" y="195.71">controller or set</text><text fill="#FFFFFF" font-family="NanumGothic" font-size="13" lengthAdjust="spacing" textLength="117" x="740" y="210.66">dynamically by CSO</text><polygon fill="#181818" points="717,240.6,727,244.6,717,248.6,721,244.6" style="stroke:#181818;stroke-width:1.0;"/><line style="stroke:#181818;stroke-width:1.0;" x1="385" x2="723" y1="244.6" y2="244.6"/><text fill="#000000" font-family="NanumGothic" font-size="13" lengthAdjust="spacing" textLength="211" x="392" y="239.61">SetChargingProfile.conf(Accepted)</text><polygon fill="#181818" points="69,306.45,59,310.45,69,314.45,65,310.45" style="stroke:#181818;stroke-width:1.0;"/><line style="stroke:#181818;stroke-width:1.0;" x1="63" x2="384" y1="310.45" y2="310.45"/><text fill="#000000" font-family="NanumGothic" font-size="13" lengthAdjust="spacing" textLength="143" x="75" y="275.56">SetChargingProfile.req(</text><text fill="#000000" font-family="NanumGothic" font-size="13" font-weight="bold" lengthAdjust="spacing" textLength="88" x="222" y="275.56">connectorId: 0</text><text fill="#000000" font-family="NanumGothic" font-size="13" lengthAdjust="spacing" textLength="4" x="314" y="275.56">,</text><text fill="#000000" font-family="NanumGothic" font-size="13" font-weight="bold" lengthAdjust="spacing" textLength="292" x="75" y="290.51">chargingprofilePurpose: ChargepointMaxProfile</text><text fill="#000000" font-family="NanumGothic" font-size="13" lengthAdjust="spacing" textLength="4" x="371" y="290.51">,</text><text fill="#000000" font-family="NanumGothic" font-size="13" font-weight="bold" lengthAdjust="spacing" textLength="179" x="75" y="305.46">chargingProfileKind: absolute</text><text fill="#000000" font-family="NanumGothic" font-size="13" lengthAdjust="spacing" textLength="122" x="258" y="305.46">, validFrom, validTo)</text><path d="M390,323.45 L390,362.45 L554,362.45 L554,333.45 L544,323.45 L390,323.45 " fill="#7D5393" style="stroke:#000000;stroke-width:0.5;"/><path d="M544,323.45 L544,333.45 L554,333.45 L544,323.45 " fill="#7D5393" style="stroke:#000000;stroke-width:0.5;"/><text fill="#FFFFFF" font-family="NanumGothic" font-size="13" lengthAdjust="spacing" textLength="143" x="396" y="340.41">Local Controller assigns</text><text fill="#FFFFFF" font-family="NanumGothic" font-size="13" lengthAdjust="spacing" textLength="133" x="396" y="355.36">limits to Charge Point</text><polygon fill="#181818" points="373,385.3,383,389.3,373,393.3,377,389.3" style="stroke:#181818;stroke-width:1.0;"/><line style="stroke:#181818;stroke-width:1.0;" x1="53" x2="379" y1="389.3" y2="389.3"/><text fill="#000000" font-family="NanumGothic" font-size="13" lengthAdjust="spacing" textLength="211" x="60" y="384.31">SetChargingProfile.conf(Accepted)</text><!--SRC=[fLDDJyCm3BtdLnWkm0I8ymv8Q18I0iIaSUIIfLuNAOr3uYBwxt6JYdLb204zjSz-_dYlFhBUkBP2IDmvl0njuvGAEh8rDcZFSBpOwbWZBCbwFWQTe03vUp_pWOnsi23FaPp3cBCpkCCcjLTFi4292M_L9SQcT2XGGPIg8xK1A32iaC7bBWLpjh6S5EmpuE9wsXRcq3_2pzDRNoyZRQni7F7r56OpGzwZOOftrHokPZCupuGNBw614GfZsSP02UU33g7NuL6_3_KECeVOlVLINAyJkPPBvfjsjhgDr0olptIcP1rjsBvfnY_g0NWIEDfwoq2RYL9ztuSi2Mme5gKoQ3uhdAH1kaPtERH6214bOMFhDc85raye8AKISaQhpkl6IbdNmRe3yKzWz5KUgvzyghjOiU_D_909VVlJ6sCmC5PdKgR2RoMGRaeTQhFxBRFRl_FwZqR_m-NF1SVtjE_kL_Ud9oRNacpj-nCejm1CCBvOjJDdBD312_dPc94juwa_0000]--></g></svg>